<svg xmlns="http://www.w3.org/2000/svg" width="80" height="80" viewBox="0 0 80 80">
  <g id="t1-ic5" transform="translate(-548 -1266)">
    <rect id="Rectangle_7687" data-name="Rectangle 7687" width="80" height="80" rx="10" transform="translate(548 1266)" fill="#5038a1"/>
    <g id="avion" transform="translate(557 1162.727)">
      <path id="Path_101663" data-name="Path 101663" d="M160.994,202.059l0-.007a4.536,4.536,0,0,0-1.421-2.4l-1.268-1.119a17.768,17.768,0,0,0-11.766-4.449h-4.3a.908.908,0,0,0,0,1.816h4.3a15.957,15.957,0,0,1,7.5,1.873h-5.665a1.839,1.839,0,0,0-1.089,3.32l1.736,1.275a4.005,4.005,0,0,0,2.387.783h7.873a2.726,2.726,0,0,1-1.559,2.355l-2.236,1.046a24.945,24.945,0,0,1-10.52,2.342h-7.3l2.632-1.313a1.328,1.328,0,0,0-.593-2.516H124.146a2.134,2.134,0,0,0-1.547.668l-2.964,3.147a8.853,8.853,0,0,1-3.168-.748l-2.434-1.073a.908.908,0,0,0-.732,1.662l2.433,1.073a10.691,10.691,0,0,0,2.352.731l-3.368,3.576a1.819,1.819,0,0,0,1.324,3.066h3.133a8.116,8.116,0,0,0,3.6-.849l11.244-5.609h10.946a26.775,26.775,0,0,0,11.29-2.513l2.236-1.046a4.527,4.527,0,0,0,2.5-5.091Zm-39.027,12.634a6.291,6.291,0,0,1-2.794.658h-3.133l0,0s-.005-.009,0-.009l7.882-8.369a.31.31,0,0,1,.225-.1h13.482ZM150.1,200.9l-1.736-1.275-.011-.008a.116.116,0,0,1,.006-.03.069.069,0,0,1,.018,0h8.369c.12.1.239.2.357.3l1.268,1.119a2.731,2.731,0,0,1,.309.323H151.41A2.2,2.2,0,0,1,150.1,200.9Z" transform="translate(-99.103 -58.718)" fill="#fff"/>
      <path id="Path_101664" data-name="Path 101664" d="M10.429,140.215h-5.5a2.424,2.424,0,0,0-1.825.829l-.558.639a4.06,4.06,0,0,1-.326-1.587v-1.108a1.811,1.811,0,0,1,1.809-1.808H38.9a.908.908,0,0,0,0-1.816H16.487l-6.293-6.452a5.461,5.461,0,0,0-3.887-1.639H4.151a1.505,1.505,0,0,0-1.387,2.09l2.532,6H4.032a3.629,3.629,0,0,0-3.625,3.624V140.1a5.894,5.894,0,0,0,.859,3.055l-.86.984a1.626,1.626,0,0,0,1.224,2.7H3.36a4.207,4.207,0,0,0,1.821-.417l.415-.2,4.721,2.081a.908.908,0,0,0,.733-1.662l-3.307-1.458,3.44-1.664a1.734,1.734,0,0,0-.755-3.294ZM4.621,129.089H6.307a3.635,3.635,0,0,1,2.587,1.091l5.056,5.183H7.268Zm.582,15.3-.05.024-.762.369a2.379,2.379,0,0,1-1.03.236H2.048l2.426-2.775a.608.608,0,0,1,.458-.208h5.136Z" transform="translate(0)" fill="#fff"/>
      <path id="Path_101665" data-name="Path 101665" d="M309.786,227.071v.335a2.525,2.525,0,0,0,2.522,2.522h1.71a2.525,2.525,0,0,0,2.522-2.522v-.335a2.525,2.525,0,0,0-2.522-2.522h-1.71A2.525,2.525,0,0,0,309.786,227.071Zm1.816,0a.706.706,0,0,1,.705-.705h1.71a.706.706,0,0,1,.705.705v.335a.706.706,0,0,1-.705.705h-1.71a.706.706,0,0,1-.705-.705Z" transform="translate(-272.273 -85.496)" fill="#fff"/>
      <path id="Path_101666" data-name="Path 101666" d="M232.443,224.55a2.525,2.525,0,0,0-2.522,2.522v.335a2.525,2.525,0,0,0,2.522,2.522h1.71a2.525,2.525,0,0,0,2.522-2.522v-.335a2.525,2.525,0,0,0-2.522-2.522Zm2.416,2.522v.335a.706.706,0,0,1-.705.705h-1.71a.706.706,0,0,1-.705-.705v-.335a.706.706,0,0,1,.705-.705h1.71A.706.706,0,0,1,234.858,227.072Z" transform="translate(-202.079 -85.497)" fill="#fff"/>
      <path id="Path_101667" data-name="Path 101667" d="M152.579,224.55a2.525,2.525,0,0,0-2.522,2.522v.335a2.525,2.525,0,0,0,2.522,2.522h1.71a2.525,2.525,0,0,0,2.522-2.522v-.335a2.525,2.525,0,0,0-2.522-2.522Zm2.416,2.522v.335a.706.706,0,0,1-.705.705h-1.71a.706.706,0,0,1-.705-.705v-.335a.706.706,0,0,1,.705-.705h1.71A.706.706,0,0,1,154.994,227.072Z" transform="translate(-131.886 -85.497)" fill="#fff"/>
    </g>
  </g>
</svg>
