<svg xmlns="http://www.w3.org/2000/svg" width="80" height="80" viewBox="0 0 80 80">
  <g id="t1-ic2" transform="translate(-548 -124)">
    <rect id="Rectangle_7646" data-name="Rectangle 7646" width="80" height="80" rx="10" transform="translate(548 124)" fill="#5038a1"/>
    <g id="equipaje" transform="translate(571 134)">
      <path id="Path_101657" data-name="Path 101657" d="M29,16H23V5h2a1,1,0,0,0,1-1V1a1,1,0,0,0-1-1H9A1,1,0,0,0,8,1V4A1,1,0,0,0,9,5h2V16H5a5.006,5.006,0,0,0-5,5V52a5.006,5.006,0,0,0,5,5v2a1,1,0,0,0,1,1h4a1,1,0,0,0,1-1V57H23v2a1,1,0,0,0,1,1h4a1,1,0,0,0,1-1V57a5.006,5.006,0,0,0,5-5V21A5.006,5.006,0,0,0,29,16ZM10,2H24V3H10Zm3,3h8V16H13ZM9,58H7V57H9Zm18,0H25V57h2Zm5-6a3,3,0,0,1-3,3H5a3,3,0,0,1-3-3V21a3,3,0,0,1,3-3H29a3,3,0,0,1,3,3Zm0,0" fill="#fff"/>
      <path id="Path_101657_-_Outline" data-name="Path 101657 - Outline" d="M28,60.25H24A1.251,1.251,0,0,1,22.75,59V57.25H11.25V59A1.251,1.251,0,0,1,10,60.25H6A1.251,1.251,0,0,1,4.75,59V57.244A5.266,5.266,0,0,1-.25,52V21A5.265,5.265,0,0,1,5,15.75h5.75V5.25H9A1.251,1.251,0,0,1,7.75,4V1A1.251,1.251,0,0,1,9-.25H25A1.251,1.251,0,0,1,26.25,1V4A1.251,1.251,0,0,1,25,5.25H23.25v10.5H29A5.265,5.265,0,0,1,34.25,21V52a5.266,5.266,0,0,1-5,5.244V59A1.251,1.251,0,0,1,28,60.25Zm-17.25-3.5h12.5V59a.751.751,0,0,0,.75.75h4a.751.751,0,0,0,.75-.75V56.75H29A4.764,4.764,0,0,0,33.75,52V21A4.764,4.764,0,0,0,29,16.25H22.75V4.75H25A.751.751,0,0,0,25.75,4V1A.751.751,0,0,0,25,.25H9A.751.751,0,0,0,8.25,1V4A.751.751,0,0,0,9,4.75h2.25v11.5H5A4.764,4.764,0,0,0,.25,21V52A4.764,4.764,0,0,0,5,56.75h.25V59a.751.751,0,0,0,.75.75h4a.751.751,0,0,0,.75-.75Zm16.5,1.5h-2.5v-1.5h2.5Zm-2-.5h1.5v-.5h-1.5Zm-16,.5H6.75v-1.5h2.5Zm-2-.5h1.5v-.5H7.25ZM29,55.25H5A3.254,3.254,0,0,1,1.75,52V21A3.254,3.254,0,0,1,5,17.75H29A3.254,3.254,0,0,1,32.25,21V52A3.254,3.254,0,0,1,29,55.25Zm-24-37A2.753,2.753,0,0,0,2.25,21V52A2.753,2.753,0,0,0,5,54.75H29A2.753,2.753,0,0,0,31.75,52V21A2.753,2.753,0,0,0,29,18.25Zm16.25-2h-8.5V4.75h8.5Zm-8-.5h7.5V5.25h-7.5Zm11-12.5H9.75V1.75h14.5Zm-14-.5h13.5v-.5H10.25Z" fill="#fff"/>
      <path id="Path_101658" data-name="Path 101658" d="M129,160a1,1,0,0,0-1,1v31a1,1,0,0,0,2,0V161A1,1,0,0,0,129,160Zm0,0" transform="translate(-112 -140)" fill="#fff"/>
      <path id="Path_101658_-_Outline" data-name="Path 101658 - Outline" d="M129,193.25a1.251,1.251,0,0,1-1.25-1.25V161a1.25,1.25,0,0,1,2.5,0v31A1.251,1.251,0,0,1,129,193.25Zm0-33a.751.751,0,0,0-.75.75v31a.75.75,0,0,0,1.5,0V161A.751.751,0,0,0,129,160.25Z" transform="translate(-112 -140)" fill="#fff"/>
      <path id="Path_101659" data-name="Path 101659" d="M193,176a1,1,0,0,0-1,1v27a1,1,0,1,0,2,0V177A1,1,0,0,0,193,176Zm0,0" transform="translate(-168 -154)" fill="#fff"/>
      <path id="Path_101659_-_Outline" data-name="Path 101659 - Outline" d="M193,205.25a1.251,1.251,0,0,1-1.25-1.25V177a1.25,1.25,0,0,1,2.5,0v27A1.251,1.251,0,0,1,193,205.25Zm0-29a.751.751,0,0,0-.75.75v27a.75.75,0,1,0,1.5,0V177A.751.751,0,0,0,193,176.25Z" transform="translate(-168 -154)" fill="#fff"/>
      <path id="Path_101660" data-name="Path 101660" d="M65,176a1,1,0,0,0-1,1v27a1,1,0,1,0,2,0V177A1,1,0,0,0,65,176Zm0,0" transform="translate(-56 -154)" fill="#fff"/>
      <path id="Path_101660_-_Outline" data-name="Path 101660 - Outline" d="M65,205.25A1.251,1.251,0,0,1,63.75,204V177a1.25,1.25,0,0,1,2.5,0v27A1.251,1.251,0,0,1,65,205.25Zm0-29a.751.751,0,0,0-.75.75v27a.75.75,0,1,0,1.5,0V177A.751.751,0,0,0,65,176.25Z" transform="translate(-56 -154)" fill="#fff"/>
    </g>
  </g>
</svg>
