<svg xmlns="http://www.w3.org/2000/svg" width="80" height="80" viewBox="0 0 80 80">
  <g id="t1-ic4" transform="translate(-548 -876)">
    <rect id="Rectangle_7683" data-name="Rectangle 7683" width="80" height="80" rx="10" transform="translate(548 876)" fill="#5038a1"/>
    <g id="municipalidad" transform="translate(563 889.704)">
      <g id="Group_55990" data-name="Group 55990" transform="translate(0 1.296)">
        <g id="Group_55989" data-name="Group 55989">
          <path id="Path_101668" data-name="Path 101668" d="M47.5,46.043v-.833a2.5,2.5,0,0,0-1.667-2.34v-.994a2.5,2.5,0,0,0-1.667-2.346V26.723a2.5,2.5,0,0,0,1.667-2.346v-1.47l1.519-3.037,2.4-2.4a.832.832,0,0,0-.155-1.3L25.434,1.418a.831.831,0,0,0-.867,0L.4,16.165a.833.833,0,0,0-.155,1.3l2.4,2.4,1.519,3.037v1.47a2.5,2.5,0,0,0,1.667,2.346V39.53a2.5,2.5,0,0,0-1.667,2.346v.994A2.5,2.5,0,0,0,2.5,45.209v.833a2.5,2.5,0,0,0-2.5,2.5v1.667a.833.833,0,0,0,.833.833H49.167A.833.833,0,0,0,50,50.21h0V48.543A2.5,2.5,0,0,0,47.5,46.043ZM44.167,24.376a.834.834,0,0,1-.833.833h-5a.834.834,0,0,1-.833-.833v-.833h6.667v.833ZM20.834,39.53V26.723A2.5,2.5,0,0,0,22.5,24.376v-.833h5v.833a2.5,2.5,0,0,0,1.667,2.346V39.53A2.5,2.5,0,0,0,27.5,41.876v.833h-5v-.833A2.5,2.5,0,0,0,20.834,39.53ZM6.667,25.21a.834.834,0,0,1-.833-.833v-.833H12.5v.833a.834.834,0,0,1-.833.833Zm4.167,1.667v12.5H7.5v-12.5Zm1.667-.154a2.487,2.487,0,0,0,.833-.5,2.486,2.486,0,0,0,.833.5V39.53a2.487,2.487,0,0,0-.833.5,2.488,2.488,0,0,0-.833-.5Zm1.667,15.153A.834.834,0,0,1,15,41.043h5a.834.834,0,0,1,.833.833v.833H14.167Zm1.667-2.5v-12.5h3.333v12.5ZM20,25.21H15a.834.834,0,0,1-.833-.833v-.833h6.667v.833A.834.834,0,0,1,20,25.21Zm9.167,16.666A.834.834,0,0,1,30,41.043h5a.834.834,0,0,1,.833.833v.833H29.167Zm1.667-2.5v-12.5h3.333v12.5ZM35,25.21H30a.834.834,0,0,1-.833-.833v-.833h6.667v.833A.834.834,0,0,1,35,25.21Zm.833,1.513a2.487,2.487,0,0,0,.833-.5,2.486,2.486,0,0,0,.833.5V39.53a2.487,2.487,0,0,0-.833.5,2.488,2.488,0,0,0-.833-.5ZM37.5,41.876a.834.834,0,0,1,.833-.833h5a.834.834,0,0,1,.833.833v.833H37.5v-.833Zm1.667-2.5v-12.5H42.5v12.5ZM3.457,18.322,2.172,17.036,25,3.105,47.829,17.036l-1.286,1.286L25.437,5.333a.832.832,0,0,0-.874,0Zm40.265.221H6.278L25,7.022ZM5.516,21.876,4.682,20.21H45.318l-.833,1.667Zm.318,20a.834.834,0,0,1,.833-.833h5a.834.834,0,0,1,.833.833v.833H5.834Zm42.5,7.5H1.667v-.833a.834.834,0,0,1,.833-.833H20a.833.833,0,1,0,0-1.667H4.167V45.21a.851.851,0,0,1,.866-.833H44.968a.851.851,0,0,1,.866.833v.833H30a.833.833,0,1,0,0,1.667H47.5a.834.834,0,0,1,.833.833Z" transform="translate(0 -1.296)" fill="#fff"/>
        </g>
      </g>
      <g id="Group_55992" data-name="Group 55992" transform="translate(21.667 9.793)">
        <g id="Group_55991" data-name="Group 55991">
          <path id="Path_101669" data-name="Path 101669" d="M225.2,88.309a3.333,3.333,0,1,0,3.333,3.333A3.337,3.337,0,0,0,225.2,88.309Zm0,5a1.667,1.667,0,1,1,1.667-1.667A1.667,1.667,0,0,1,225.2,93.309Z" transform="translate(-221.87 -88.309)" fill="#fff"/>
        </g>
      </g>
    </g>
  </g>
</svg>
