<svg xmlns="http://www.w3.org/2000/svg" width="144" height="144" viewBox="0 0 144 144">
  <g id="t1-ic7" transform="translate(-436 -12915)">
    <rect id="Rectangle_7527" data-name="Rectangle 7527" width="144" height="144" rx="20" transform="translate(436 12915)" fill="#5038a1"/>
    <g id="_000000ff" data-name="#000000ff" transform="translate(443.789 12909.825)">
      <path id="Path_101508" data-name="Path 101508" d="M97.249,32.222A1.568,1.568,0,0,1,98.921,33a6.157,6.157,0,0,1,.251,2.558c-.008.878.145,1.965-.627,2.592a1.507,1.507,0,0,1-2.174-.2,3.688,3.688,0,0,1-.418-2.4A6.138,6.138,0,0,1,96.2,33,1.655,1.655,0,0,1,97.249,32.222Z" transform="translate(-63.71 0)" fill="#fff"/>
      <path id="Path_101509" data-name="Path 101509" d="M90.861,33.719a12.489,12.489,0,0,1,7.9-1.366,11.527,11.527,0,0,1,7.192,3.468,14.939,14.939,0,0,1,3.862,9,24.063,24.063,0,0,1-1.949,12.138c-.289.424.249.7.488.979a13.708,13.708,0,0,1,3.933,12.664,14,14,0,0,1-3.428,6.621,12.871,12.871,0,0,1,.852,7.281,11.889,11.889,0,0,1-4.262,7.2A13.715,13.715,0,0,1,98.155,94.7q.006,12.139,0,24.281c3.085,0,6.171,0,9.258,0a1.793,1.793,0,0,1,1.861,1.147,1.634,1.634,0,0,1-1.664,2.066q-44.211.015-88.427.006A5.155,5.155,0,0,1,17.161,122a1.532,1.532,0,0,1-.663-2.287c.645-.94,1.907-.725,2.888-.735,0-1.545-.01-3.091,0-4.634a1.729,1.729,0,0,1,1.141-1.666,1.527,1.527,0,0,1,1.821.727,7.528,7.528,0,0,1,.253,2.841,45.2,45.2,0,0,0,8.2-17.228c.193-.587.822-.784,1.284-1.105a61.075,61.075,0,0,0,9.551-8.526,142.545,142.545,0,0,0,11.84-14.684,1.7,1.7,0,0,1,2-.5,7.37,7.37,0,0,1,1.465,1.77A122.048,122.048,0,0,0,71.881,93.408a41.271,41.271,0,0,0,6.3,4.976,1.387,1.387,0,0,1,.583.782A44.567,44.567,0,0,0,86.9,116.249c.09-1.123-.338-2.6.742-3.372a1.6,1.6,0,0,1,2.46,1.282c.046,1.606,0,3.213.018,4.821,1.608,0,3.215,0,4.825,0q0-12.139,0-24.279c-6.931-.754-12.552-7.033-13.074-13.89-.03-.944-.034-1.889.01-2.833a18.027,18.027,0,0,1,1.087-4.381,12.391,12.391,0,0,1-4.956-6.205,11.99,11.99,0,0,1-.2-7.53,12.51,12.51,0,0,1,6.642-7.678,19.88,19.88,0,0,1-.557-3.726,23.5,23.5,0,0,1,1.565-8.281,12.773,12.773,0,0,1,5.4-6.455m-.944,4.875a15.522,15.522,0,0,0-2.8,7.823,16.3,16.3,0,0,0,.332,4.9c.163.484.506.886.659,1.377a1.684,1.684,0,0,1-1.278,1.893A9.227,9.227,0,0,0,81.082,59.9a9.724,9.724,0,0,0-.537,4.956,9.191,9.191,0,0,0,4.63,6.41,2.89,2.89,0,0,1,1.26.973,2,2,0,0,1-.155,1.724A12.578,12.578,0,0,0,84.953,78.4c-.611,6.033,3.9,12.284,9.991,13.166-.032-7.319.052-14.645-.04-21.958-1.931-2.488-3.929-4.927-5.89-7.393a2.466,2.466,0,0,1-.5-1.111,1.8,1.8,0,0,1,1.6-1.6c.938.086,1.463.934,2,1.6.942,1.164,1.859,2.349,2.821,3.5.018-4.855,0-9.71.01-14.563a1.633,1.633,0,0,1,2.068-1.664,1.736,1.736,0,0,1,1.139,1.662c.014,8.072-.008,16.145.01,24.217,1.248-1.469,2.387-3.026,3.639-4.489a1.474,1.474,0,0,1,2.044-.291,1.532,1.532,0,0,1,.326,2.269c-1.919,2.432-3.868,4.839-5.8,7.258a.735.735,0,0,0-.217.587c0,4.015,0,8.03,0,12.045a10.84,10.84,0,0,0,6.971-4.063,9.229,9.229,0,0,0,1.28-8,24.319,24.319,0,0,0-1.011-2.421,1.923,1.923,0,0,1,.848-1.728,10.549,10.549,0,0,0,2.994-5.456,13.415,13.415,0,0,0,.167-3.249,10.667,10.667,0,0,0-4.347-7.486A1.623,1.623,0,0,1,104.3,57.2a20.974,20.974,0,0,0,2.138-13.832,9.908,9.908,0,0,0-4.994-7.059,11.348,11.348,0,0,0-6.262-.872,8.254,8.254,0,0,0-5.267,3.153M47.561,87.462A78.2,78.2,0,0,1,33.85,100.51q.009,9.233,0,18.47,9.649,0,19.3,0,0-16.787,0-33.571a1.633,1.633,0,0,1,2.068-1.664,1.725,1.725,0,0,1,1.139,1.664c.016,1.883-.006,3.768.006,5.653a18.685,18.685,0,0,0,6.109,12.373,17.062,17.062,0,0,0,8.551,4.1,1.552,1.552,0,0,1,1.057,2.444,11.573,11.573,0,0,0-2.357,3.665,11.978,11.978,0,0,0-.679,5.329c2.2.022,4.407,0,6.611.012q0-9.239,0-18.474a55.458,55.458,0,0,1-7-5.88,125.27,125.27,0,0,1-13.9-16.338Q51.316,83,47.561,87.462m11.766,17.374a40.966,40.966,0,0,0,6.561,11.314,15.113,15.113,0,0,1,2.188-6.075,22.818,22.818,0,0,1-5.082-2.357,28.963,28.963,0,0,1-3.667-2.882M56.373,106c-.034,4.325,0,8.649-.016,12.974,2.62,0,5.239,0,7.857,0A46.738,46.738,0,0,1,56.373,106M24.458,118.964c2.06.032,4.12,0,6.181.016-.01-3.312.012-6.621-.012-9.931a51.86,51.86,0,0,1-6.169,9.915m54.418-9.913c-.024,3.31,0,6.619-.01,9.929,2.062-.01,4.126.012,6.189-.012A51.6,51.6,0,0,1,78.876,109.051Z" transform="translate(0 -0.026)" fill="#fff"/>
      <path id="Path_101510" data-name="Path 101510" d="M28.215,72.116c.36-.161.719.078,1.051.2q1.42.787,2.811,1.62a1.584,1.584,0,0,1,.123,2.576,1.473,1.473,0,0,1-1.475.183c-.985-.452-1.883-1.075-2.837-1.59a1.568,1.568,0,0,1,.328-2.994Z" transform="translate(-8.554 -31.873)" fill="#fff"/>
      <path id="Path_101511" data-name="Path 101511" d="M155.913,72.159a1.587,1.587,0,0,1,1.654,2.09c-.247.737-1.037,1-1.634,1.379a11.754,11.754,0,0,1-2.564,1.29,1.839,1.839,0,0,1-1.292-.637,1.607,1.607,0,0,1,.559-2.353A27.428,27.428,0,0,1,155.913,72.159Z" transform="translate(-108.329 -31.939)" fill="#fff"/>
      <path id="Path_101512" data-name="Path 101512" d="M71.368,80.283a7.71,7.71,0,0,1,4.192.637,8.014,8.014,0,1,1-4.192-.637m-.215,3.169a4.93,4.93,0,0,0-3.47,3.159,5.8,5.8,0,0,0-.2,2.389,4.919,4.919,0,0,0,4.011,4.009,5.759,5.759,0,0,0,2.387-.2,4.895,4.895,0,0,0,.289-9.1A5.382,5.382,0,0,0,71.153,83.452Z" transform="translate(-38.436 -38.378)" fill="#fff"/>
      <path id="Path_101513" data-name="Path 101513" d="M250.045,85.369A11.739,11.739,0,0,1,256.1,81.02a1.74,1.74,0,0,1,1.425.979,1.547,1.547,0,0,1-.944,2.11,9.025,9.025,0,0,0-4.873,4.558c-.253.587-.721,1.256-1.439,1.22A1.455,1.455,0,0,1,248.7,89a6.018,6.018,0,0,0-3.784-3.249,1.574,1.574,0,0,1,.307-3.131A9.53,9.53,0,0,1,250.045,85.369Z" transform="translate(-181.653 -39.03)" fill="#fff"/>
      <path id="Path_101514" data-name="Path 101514" d="M31.016,144.2a1.517,1.517,0,0,1,1.762,1.547,1.446,1.446,0,0,1-.83,1.4c-.944.533-1.863,1.115-2.829,1.6a1.542,1.542,0,0,1-2.106-.874,1.585,1.585,0,0,1,.868-1.977A29.184,29.184,0,0,1,31.016,144.2Z" transform="translate(-8.55 -89.498)" fill="#fff"/>
      <path id="Path_101515" data-name="Path 101515" d="M153.092,144.109c.362-.127.715.117,1.043.243.9.5,1.8,1.017,2.685,1.543a1.532,1.532,0,0,1,.673,2.05,1.71,1.71,0,0,1-1.433.916,12.724,12.724,0,0,1-2.793-1.427c-.627-.348-1.477-.733-1.467-1.575A1.542,1.542,0,0,1,153.092,144.109Z" transform="translate(-108.321 -89.413)" fill="#fff"/>
      <path id="Path_101516" data-name="Path 101516" d="M97.277,176.22a1.568,1.568,0,0,1,1.672.778,11.167,11.167,0,0,1,0,4.71,1.53,1.53,0,0,1-1.823.725,1.73,1.73,0,0,1-1.139-1.664c-.012-.944-.01-1.889,0-2.835A1.736,1.736,0,0,1,97.277,176.22Z" transform="translate(-63.738 -115.061)" fill="#fff"/>
      <path id="Path_101517" data-name="Path 101517" d="M36.851,255.355c.571-.245,1.246-.623,1.843-.225a1.692,1.692,0,0,1,.957,1.427,1.776,1.776,0,0,1-1.131,1.475,9.044,9.044,0,0,0-4.875,4.574,2.661,2.661,0,0,1-.555.856,1.549,1.549,0,0,1-2.343-.38,6.494,6.494,0,0,0-2.076-2.546,8.543,8.543,0,0,0-2.339-1.069,1.561,1.561,0,0,1-.133-2.681c.693-.476,1.563-.123,2.271.135A10.632,10.632,0,0,1,32,259.26,12.414,12.414,0,0,1,36.851,255.355Z" transform="translate(-7.423 -178.013)" fill="#fff"/>
    </g>
  </g>
</svg>
