<svg xmlns="http://www.w3.org/2000/svg" width="820" height="320" viewBox="0 0 820 320">
  <g id="t1-info2" transform="translate(-1006.071 667.162)">
    <rect id="Rectángulo_7768" data-name="Rectángulo 7768" width="820" height="320" transform="translate(1006.071 -667.162)" fill="none"/>
    <rect id="Rectangle_7769" data-name="Rectangle 7769" width="166.714" height="28.674" rx="4.286" transform="translate(1019.429 -651.186)" fill="#ffeaab"/>
    <path id="Rectangle_7769_-_Outline" data-name="Rectangle 7769 - Outline" d="M4.286-.75H162.429a5.041,5.041,0,0,1,5.036,5.036v20.1a5.041,5.041,0,0,1-5.036,5.036H4.286A5.041,5.041,0,0,1-.75,24.388V4.286A5.041,5.041,0,0,1,4.286-.75ZM162.429,27.924a3.54,3.54,0,0,0,3.536-3.536V4.286A3.54,3.54,0,0,0,162.429.75H4.286A3.54,3.54,0,0,0,.75,4.286v20.1a3.54,3.54,0,0,0,3.536,3.536Z" transform="translate(1019.429 -651.186)" fill="#ffb74d"/>
    <path id="Path_102070" data-name="Path 102070" d="M96.429,0A96.429,96.429,0,1,1,0,96.429,96.429,96.429,0,0,1,96.429,0Z" transform="translate(1319.643 -603.591)" fill="#ffeaab"/>
    <path id="Path_102070_-_Outline" data-name="Path 102070 - Outline" d="M96.429-1.5A98.643,98.643,0,0,1,116.163.49a97.4,97.4,0,0,1,35.019,14.736A98.21,98.21,0,0,1,186.661,58.31a97.446,97.446,0,0,1,5.707,18.384,98.868,98.868,0,0,1,0,39.469,97.4,97.4,0,0,1-14.736,35.019,98.21,98.21,0,0,1-43.084,35.478,97.446,97.446,0,0,1-18.384,5.707,98.868,98.868,0,0,1-39.469,0,97.4,97.4,0,0,1-35.019-14.736A98.21,98.21,0,0,1,6.2,134.547,97.446,97.446,0,0,1,.49,116.163a98.868,98.868,0,0,1,0-39.469A97.4,97.4,0,0,1,15.226,41.675,98.21,98.21,0,0,1,58.31,6.2,97.446,97.446,0,0,1,76.694.49,98.643,98.643,0,0,1,96.429-1.5Zm0,192.857A94.929,94.929,0,1,0,1.5,96.429,95.036,95.036,0,0,0,96.429,191.357Z" transform="translate(1319.643 -603.591)" fill="#ffb74d"/>
    <path id="Path_102072" data-name="Path 102072" d="M7.778-3.357A1.353,1.353,0,0,0,7.251-4.5a6.917,6.917,0,0,0-1.9-.844,13.458,13.458,0,0,1-2.171-.875A3.547,3.547,0,0,1,1-9.4a3.09,3.09,0,0,1,.584-1.85,3.812,3.812,0,0,1,1.679-1.27,6.318,6.318,0,0,1,2.457-.457,5.751,5.751,0,0,1,2.443.5,3.891,3.891,0,0,1,1.666,1.4,3.668,3.668,0,0,1,.593,2.057H7.787a1.726,1.726,0,0,0-.554-1.367,2.276,2.276,0,0,0-1.556-.488,2.432,2.432,0,0,0-1.5.409,1.289,1.289,0,0,0-.536,1.077,1.235,1.235,0,0,0,.628,1.046,7.1,7.1,0,0,0,1.85.791A7.994,7.994,0,0,1,9.4-5.871a3.343,3.343,0,0,1,1.028,2.5A3.08,3.08,0,0,1,9.167-.769,5.5,5.5,0,0,1,5.783.176,6.534,6.534,0,0,1,3.094-.365a4.256,4.256,0,0,1-1.85-1.481,3.793,3.793,0,0,1-.637-2.18H3.252q0,2.118,2.531,2.118A2.462,2.462,0,0,0,7.251-2.29,1.244,1.244,0,0,0,7.778-3.357ZM14.722,0H12.173V-9.51h2.549Zm-2.7-11.971a1.251,1.251,0,0,1,.382-.94,1.436,1.436,0,0,1,1.042-.369,1.44,1.44,0,0,1,1.037.369,1.244,1.244,0,0,1,.387.94,1.247,1.247,0,0,1-.391.949,1.443,1.443,0,0,1-1.033.369,1.443,1.443,0,0,1-1.033-.369A1.247,1.247,0,0,1,12.023-11.971Zm9.94,9.343a.818.818,0,0,0-.461-.734,5.241,5.241,0,0,0-1.481-.479q-3.393-.712-3.393-2.883a2.613,2.613,0,0,1,1.05-2.114,4.237,4.237,0,0,1,2.747-.848,4.56,4.56,0,0,1,2.9.853,2.687,2.687,0,0,1,1.085,2.215h-2.54a1.229,1.229,0,0,0-.352-.9,1.488,1.488,0,0,0-1.1-.356,1.52,1.52,0,0,0-.993.29.916.916,0,0,0-.352.738.783.783,0,0,0,.4.681,4.114,4.114,0,0,0,1.349.448,11.019,11.019,0,0,1,1.6.426,2.628,2.628,0,0,1,2.013,2.558,2.481,2.481,0,0,1-1.116,2.1,4.815,4.815,0,0,1-2.883.8A5.029,5.029,0,0,1,18.312-.25a3.561,3.561,0,0,1-1.455-1.169,2.716,2.716,0,0,1-.527-1.6h2.408a1.326,1.326,0,0,0,.5,1.037,1.987,1.987,0,0,0,1.248.36,1.839,1.839,0,0,0,1.1-.277A.861.861,0,0,0,21.964-2.628Zm7.146-9.22V-9.51h1.626v1.863H29.109V-2.9a1.133,1.133,0,0,0,.2.756,1.015,1.015,0,0,0,.773.229,4.051,4.051,0,0,0,.747-.062V-.053a5.229,5.229,0,0,1-1.538.229,2.425,2.425,0,0,1-2.725-2.7V-7.646H25.181V-9.51h1.389v-2.338ZM36.527.176a4.668,4.668,0,0,1-3.406-1.283,4.561,4.561,0,0,1-1.314-3.419v-.246a5.745,5.745,0,0,1,.554-2.562,4.064,4.064,0,0,1,1.569-1.74,4.4,4.4,0,0,1,2.316-.611,3.947,3.947,0,0,1,3.072,1.23,5,5,0,0,1,1.121,3.489v1.037H34.383a2.36,2.36,0,0,0,.743,1.494,2.245,2.245,0,0,0,1.569.563,2.742,2.742,0,0,0,2.294-1.063l1.248,1.4A3.813,3.813,0,0,1,38.689-.277,5.075,5.075,0,0,1,36.527.176Zm-.29-7.813a1.587,1.587,0,0,0-1.226.512,2.651,2.651,0,0,0-.6,1.466h3.533v-.2a1.891,1.891,0,0,0-.457-1.311A1.638,1.638,0,0,0,36.237-7.638ZM44.262-9.51l.079,1.063a3.342,3.342,0,0,1,2.733-1.239A2.536,2.536,0,0,1,49.6-8.235a3.265,3.265,0,0,1,2.856-1.45,2.836,2.836,0,0,1,2.3.9,4.141,4.141,0,0,1,.756,2.711V0H52.963V-6.078a1.818,1.818,0,0,0-.316-1.185,1.4,1.4,0,0,0-1.116-.374,1.585,1.585,0,0,0-1.582,1.092L49.957,0h-2.54V-6.07a1.8,1.8,0,0,0-.325-1.2,1.414,1.414,0,0,0-1.107-.37,1.645,1.645,0,0,0-1.564.9V0H41.88V-9.51ZM62.974,0a2.821,2.821,0,0,1-.255-.853,3.073,3.073,0,0,1-2.4,1.028A3.376,3.376,0,0,1,58-.633a2.6,2.6,0,0,1-.918-2.039,2.687,2.687,0,0,1,1.121-2.32,5.529,5.529,0,0,1,3.239-.817h1.169v-.545a1.567,1.567,0,0,0-.338-1.055,1.331,1.331,0,0,0-1.068-.4A1.513,1.513,0,0,0,60.2-7.5a1.045,1.045,0,0,0-.365.844H57.3a2.551,2.551,0,0,1,.51-1.529,3.37,3.37,0,0,1,1.441-1.1,5.253,5.253,0,0,1,2.092-.4,4.15,4.15,0,0,1,2.791.883,3.09,3.09,0,0,1,1.033,2.483V-2.2A4.546,4.546,0,0,0,65.54-.149V0Zm-2.1-1.767a2.188,2.188,0,0,0,1.037-.25,1.645,1.645,0,0,0,.7-.672V-4.324h-.949q-1.907,0-2.03,1.318l-.009.149a1.017,1.017,0,0,0,.334.782A1.3,1.3,0,0,0,60.873-1.767ZM74.637-11.848V-9.51h1.626v1.863H74.637V-2.9a1.133,1.133,0,0,0,.2.756,1.015,1.015,0,0,0,.773.229,4.051,4.051,0,0,0,.747-.062V-.053a5.229,5.229,0,0,1-1.538.229,2.425,2.425,0,0,1-2.725-2.7V-7.646H70.708V-9.51H72.1v-2.338ZM83.373-.967a3.185,3.185,0,0,1-2.6,1.143A3,3,0,0,1,78.438-.7a3.752,3.752,0,0,1-.822-2.575V-9.51h2.54v6.151q0,1.487,1.354,1.487a1.834,1.834,0,0,0,1.775-.9V-9.51h2.549V0H83.443Zm9.721-6.161a6.9,6.9,0,0,0-.914-.07,1.86,1.86,0,0,0-1.89.976V0H87.75V-9.51h2.4l.07,1.134a2.354,2.354,0,0,1,2.118-1.31,2.662,2.662,0,0,1,.791.114ZM97.058,0h-2.54V-9.51h2.54Zm-.747-13.368h2.769l-2.435,2.725H94.579ZM104.4-2.628a.818.818,0,0,0-.461-.734,5.241,5.241,0,0,0-1.481-.479q-3.393-.712-3.393-2.883a2.613,2.613,0,0,1,1.05-2.114,4.237,4.237,0,0,1,2.747-.848,4.56,4.56,0,0,1,2.9.853,2.687,2.687,0,0,1,1.085,2.215H104.3a1.229,1.229,0,0,0-.352-.9,1.488,1.488,0,0,0-1.1-.356,1.52,1.52,0,0,0-.993.29.916.916,0,0,0-.352.738.783.783,0,0,0,.4.681,4.114,4.114,0,0,0,1.349.448,11.019,11.019,0,0,1,1.6.426,2.628,2.628,0,0,1,2.013,2.558,2.481,2.481,0,0,1-1.116,2.1,4.815,4.815,0,0,1-2.883.8,5.029,5.029,0,0,1-2.123-.426A3.561,3.561,0,0,1,99.29-1.419a2.716,2.716,0,0,1-.527-1.6h2.408a1.326,1.326,0,0,0,.5,1.037,1.987,1.987,0,0,0,1.248.36,1.839,1.839,0,0,0,1.1-.277A.861.861,0,0,0,104.4-2.628Zm7.146-9.22V-9.51h1.626v1.863h-1.626V-2.9a1.133,1.133,0,0,0,.2.756,1.015,1.015,0,0,0,.773.229,4.051,4.051,0,0,0,.747-.062V-.053a5.229,5.229,0,0,1-1.538.229A2.425,2.425,0,0,1,109-2.522V-7.646h-1.389V-9.51H109v-2.338ZM117.264,0h-2.549V-9.51h2.549Zm-2.7-11.971a1.251,1.251,0,0,1,.382-.94,1.436,1.436,0,0,1,1.042-.369,1.44,1.44,0,0,1,1.037.369,1.244,1.244,0,0,1,.387.94,1.247,1.247,0,0,1-.391.949,1.443,1.443,0,0,1-1.033.369,1.443,1.443,0,0,1-1.033-.369A1.247,1.247,0,0,1,114.565-11.971Zm8.745,10.1a1.666,1.666,0,0,0,1.143-.387,1.355,1.355,0,0,0,.457-1.028h2.382a3.258,3.258,0,0,1-.527,1.771,3.48,3.48,0,0,1-1.419,1.248,4.442,4.442,0,0,1-1.991.444,4.129,4.129,0,0,1-3.217-1.3A5.13,5.13,0,0,1,118.96-4.7v-.167a5.071,5.071,0,0,1,1.169-3.507,4.08,4.08,0,0,1,3.208-1.31A4,4,0,0,1,126.2-8.67a3.594,3.594,0,0,1,1.094,2.7H124.91a1.745,1.745,0,0,0-.457-1.206,1.524,1.524,0,0,0-1.16-.464,1.53,1.53,0,0,0-1.34.647,3.749,3.749,0,0,0-.453,2.1v.264a3.8,3.8,0,0,0,.448,2.113A1.549,1.549,0,0,0,123.311-1.872Zm5.036-2.971a5.64,5.64,0,0,1,.545-2.522,3.989,3.989,0,0,1,1.569-1.714,4.577,4.577,0,0,1,2.377-.606,4.33,4.33,0,0,1,3.142,1.178,4.727,4.727,0,0,1,1.358,3.2l.018.65a4.97,4.97,0,0,1-1.222,3.511A4.247,4.247,0,0,1,132.855.176a4.268,4.268,0,0,1-3.283-1.318,5.058,5.058,0,0,1-1.226-3.586Zm2.54.18a3.555,3.555,0,0,0,.51,2.073,1.682,1.682,0,0,0,1.459.717,1.686,1.686,0,0,0,1.441-.709,3.89,3.89,0,0,0,.519-2.267,3.519,3.519,0,0,0-.519-2.06,1.686,1.686,0,0,0-1.459-.731,1.658,1.658,0,0,0-1.441.726A3.955,3.955,0,0,0,130.887-4.662Z" transform="translate(1033.813 -631.589)" fill="#12263f"/>
    <path id="Path_102071" data-name="Path 102071" d="M3.946,0H1.31V-12.8H3.946ZM8.561-9.51l.079,1.1a3.32,3.32,0,0,1,2.733-1.274,2.759,2.759,0,0,1,2.25.888,4.142,4.142,0,0,1,.756,2.654V0h-2.54V-6.1a1.654,1.654,0,0,0-.352-1.176,1.572,1.572,0,0,0-1.169-.366,1.747,1.747,0,0,0-1.608.916V0H6.17V-9.51Zm10.784-2.338V-9.51h1.626v1.863H19.345V-2.9a1.133,1.133,0,0,0,.2.756,1.015,1.015,0,0,0,.773.229,4.051,4.051,0,0,0,.747-.062V-.053a5.229,5.229,0,0,1-1.538.229,2.425,2.425,0,0,1-2.725-2.7V-7.646H15.416V-9.51H16.8v-2.338ZM26.763.176a4.668,4.668,0,0,1-3.406-1.283,4.561,4.561,0,0,1-1.314-3.419v-.246A5.745,5.745,0,0,1,22.6-7.334a4.064,4.064,0,0,1,1.569-1.74,4.4,4.4,0,0,1,2.316-.611,3.947,3.947,0,0,1,3.072,1.23,5,5,0,0,1,1.121,3.489v1.037H24.618a2.36,2.36,0,0,0,.743,1.494,2.245,2.245,0,0,0,1.569.563,2.742,2.742,0,0,0,2.294-1.063l1.248,1.4A3.813,3.813,0,0,1,28.925-.277,5.075,5.075,0,0,1,26.763.176Zm-.29-7.813a1.587,1.587,0,0,0-1.226.512,2.651,2.651,0,0,0-.6,1.466h3.533v-.2a1.891,1.891,0,0,0-.457-1.311A1.638,1.638,0,0,0,26.473-7.638Zm10.986.51a6.9,6.9,0,0,0-.914-.07,1.86,1.86,0,0,0-1.89.976V0h-2.54V-9.51h2.4l.07,1.134A2.354,2.354,0,0,1,36.7-9.686a2.662,2.662,0,0,1,.791.114Zm3.6-2.382.079,1.063a3.342,3.342,0,0,1,2.733-1.239A2.536,2.536,0,0,1,46.4-8.235a3.265,3.265,0,0,1,2.856-1.45,2.836,2.836,0,0,1,2.3.9,4.141,4.141,0,0,1,.756,2.711V0H49.764V-6.078a1.818,1.818,0,0,0-.316-1.185,1.4,1.4,0,0,0-1.116-.374,1.585,1.585,0,0,0-1.582,1.092L46.758,0h-2.54V-6.07a1.8,1.8,0,0,0-.325-1.2,1.414,1.414,0,0,0-1.107-.37,1.645,1.645,0,0,0-1.564.9V0h-2.54V-9.51ZM58.641.176a4.668,4.668,0,0,1-3.406-1.283,4.561,4.561,0,0,1-1.314-3.419v-.246a5.745,5.745,0,0,1,.554-2.562,4.064,4.064,0,0,1,1.569-1.74,4.4,4.4,0,0,1,2.316-.611,3.947,3.947,0,0,1,3.072,1.23,5,5,0,0,1,1.121,3.489v1.037H56.5a2.36,2.36,0,0,0,.743,1.494,2.245,2.245,0,0,0,1.569.563A2.742,2.742,0,0,0,61.1-2.936l1.248,1.4A3.813,3.813,0,0,1,60.8-.277,5.075,5.075,0,0,1,58.641.176Zm-.29-7.813a1.587,1.587,0,0,0-1.226.512,2.651,2.651,0,0,0-.6,1.466h3.533v-.2A1.891,1.891,0,0,0,59.6-7.174,1.638,1.638,0,0,0,58.351-7.638ZM63.6-4.825a5.731,5.731,0,0,1,1-3.542,3.237,3.237,0,0,1,2.729-1.318,2.913,2.913,0,0,1,2.294,1.037V-13.5h2.549V0H69.873L69.75-1.011A2.989,2.989,0,0,1,67.307.176a3.228,3.228,0,0,1-2.694-1.323A5.916,5.916,0,0,1,63.6-4.825Zm2.54.181A3.775,3.775,0,0,0,66.6-2.587a1.516,1.516,0,0,0,1.354.715,1.7,1.7,0,0,0,1.661-1V-6.64a1.675,1.675,0,0,0-1.644-1Q66.138-7.638,66.138-4.644ZM76.816,0H74.268V-9.51h2.549Zm-2.7-11.971a1.251,1.251,0,0,1,.382-.94,1.436,1.436,0,0,1,1.042-.369,1.44,1.44,0,0,1,1.037.369,1.244,1.244,0,0,1,.387.94,1.247,1.247,0,0,1-.391.949,1.443,1.443,0,0,1-1.033.369,1.443,1.443,0,0,1-1.033-.369A1.247,1.247,0,0,1,74.118-11.971ZM84.419,0a2.821,2.821,0,0,1-.255-.853,3.073,3.073,0,0,1-2.4,1.028,3.376,3.376,0,0,1-2.316-.809,2.6,2.6,0,0,1-.918-2.039,2.687,2.687,0,0,1,1.121-2.32A5.529,5.529,0,0,1,82.89-5.81h1.169v-.545a1.567,1.567,0,0,0-.338-1.055,1.331,1.331,0,0,0-1.068-.4,1.513,1.513,0,0,0-1.006.308,1.045,1.045,0,0,0-.365.844h-2.54a2.551,2.551,0,0,1,.51-1.529,3.37,3.37,0,0,1,1.441-1.1,5.253,5.253,0,0,1,2.092-.4,4.15,4.15,0,0,1,2.791.883,3.09,3.09,0,0,1,1.033,2.483V-2.2a4.546,4.546,0,0,0,.378,2.048V0Zm-2.1-1.767a2.188,2.188,0,0,0,1.037-.25,1.645,1.645,0,0,0,.7-.672V-4.324h-.949q-1.907,0-2.03,1.318l-.009.149a1.017,1.017,0,0,0,.334.782A1.3,1.3,0,0,0,82.318-1.767ZM93.9-7.128a6.9,6.9,0,0,0-.914-.07,1.86,1.86,0,0,0-1.89.976V0h-2.54V-9.51h2.4l.07,1.134a2.354,2.354,0,0,1,2.118-1.31,2.662,2.662,0,0,1,.791.114ZM97.8,0H95.256V-9.51H97.8Zm-2.7-11.971a1.251,1.251,0,0,1,.382-.94,1.436,1.436,0,0,1,1.042-.369,1.44,1.44,0,0,1,1.037.369,1.244,1.244,0,0,1,.387.94,1.247,1.247,0,0,1-.391.949,1.443,1.443,0,0,1-1.033.369,1.443,1.443,0,0,1-1.033-.369A1.247,1.247,0,0,1,95.106-11.971ZM99.5-4.843a5.64,5.64,0,0,1,.545-2.522,3.989,3.989,0,0,1,1.569-1.714,4.577,4.577,0,0,1,2.377-.606,4.33,4.33,0,0,1,3.142,1.178,4.727,4.727,0,0,1,1.358,3.2l.018.65a4.97,4.97,0,0,1-1.222,3.511A4.247,4.247,0,0,1,104.01.176a4.268,4.268,0,0,1-3.283-1.318A5.058,5.058,0,0,1,99.5-4.729Zm2.54.18a3.555,3.555,0,0,0,.51,2.073,1.682,1.682,0,0,0,1.459.717,1.686,1.686,0,0,0,1.441-.709,3.89,3.89,0,0,0,.519-2.267,3.519,3.519,0,0,0-.519-2.06,1.686,1.686,0,0,0-1.459-.731,1.658,1.658,0,0,0-1.441.726A3.955,3.955,0,0,0,102.041-4.662Zm13.184,2.035a.818.818,0,0,0-.461-.734,5.241,5.241,0,0,0-1.481-.479q-3.393-.712-3.393-2.883a2.613,2.613,0,0,1,1.05-2.114,4.237,4.237,0,0,1,2.747-.848,4.56,4.56,0,0,1,2.9.853,2.687,2.687,0,0,1,1.085,2.215h-2.54a1.229,1.229,0,0,0-.352-.9,1.488,1.488,0,0,0-1.1-.356,1.52,1.52,0,0,0-.993.29.916.916,0,0,0-.352.738.783.783,0,0,0,.4.681,4.114,4.114,0,0,0,1.349.448,11.019,11.019,0,0,1,1.6.426,2.628,2.628,0,0,1,2.013,2.558,2.481,2.481,0,0,1-1.116,2.1,4.815,4.815,0,0,1-2.883.8,5.029,5.029,0,0,1-2.123-.426,3.561,3.561,0,0,1-1.455-1.169,2.716,2.716,0,0,1-.527-1.6H112a1.326,1.326,0,0,0,.5,1.037,1.987,1.987,0,0,0,1.248.36,1.839,1.839,0,0,0,1.1-.277A.861.861,0,0,0,115.225-2.628Zm4.228,1.38a1.279,1.279,0,0,1,.409-.984,1.45,1.45,0,0,1,1.024-.378,1.462,1.462,0,0,1,1.033.378,1.279,1.279,0,0,1,.409.984,1.261,1.261,0,0,1-.4.971A1.468,1.468,0,0,1,120.885.1a1.456,1.456,0,0,1-1.028-.374A1.261,1.261,0,0,1,119.452-1.248Zm0-7.2a1.279,1.279,0,0,1,.409-.984,1.45,1.45,0,0,1,1.024-.378,1.462,1.462,0,0,1,1.033.378,1.279,1.279,0,0,1,.409.984,1.261,1.261,0,0,1-.4.971,1.468,1.468,0,0,1-1.037.374,1.456,1.456,0,0,1-1.028-.374A1.261,1.261,0,0,1,119.452-8.446Z" transform="translate(1354.355 -532.432)" fill="#12263f"/>
    <path id="Path_102073" data-name="Path 102073" d="M11.654-6.108a7.725,7.725,0,0,1-.668,3.313A5.03,5.03,0,0,1,9.075-.6,5.288,5.288,0,0,1,6.223.176,5.324,5.324,0,0,1,3.384-.589,5.08,5.08,0,0,1,1.45-2.773,7.5,7.5,0,0,1,.756-6.038v-.633A7.685,7.685,0,0,1,1.437-10,5.072,5.072,0,0,1,3.362-12.2a5.3,5.3,0,0,1,2.843-.769,5.3,5.3,0,0,1,2.843.769A5.072,5.072,0,0,1,10.973-10a7.663,7.663,0,0,1,.681,3.318Zm-2.672-.58a5.385,5.385,0,0,0-.721-3.059,2.349,2.349,0,0,0-2.057-1.046A2.349,2.349,0,0,0,4.157-9.76a5.324,5.324,0,0,0-.729,3.028v.624a5.453,5.453,0,0,0,.721,3.041A2.342,2.342,0,0,0,6.223-1.986,2.321,2.321,0,0,0,8.262-3.028a5.421,5.421,0,0,0,.721-3.037ZM14.1,0V-7.646H12.683V-9.51H14.1v-.809a3.283,3.283,0,0,1,.918-2.483,3.557,3.557,0,0,1,2.571-.883,5.987,5.987,0,0,1,1.292.174l-.026,1.953a3.238,3.238,0,0,0-.773-.079q-1.433,0-1.433,1.356v.771h1.89v1.863h-1.89V0Zm9.923.176a4.668,4.668,0,0,1-3.406-1.283A4.561,4.561,0,0,1,19.3-4.526v-.246a5.745,5.745,0,0,1,.554-2.562,4.064,4.064,0,0,1,1.569-1.74,4.4,4.4,0,0,1,2.316-.611,3.947,3.947,0,0,1,3.072,1.23,5,5,0,0,1,1.121,3.489v1.037H21.876a2.36,2.36,0,0,0,.743,1.494,2.245,2.245,0,0,0,1.569.563,2.742,2.742,0,0,0,2.294-1.063l1.248,1.4A3.813,3.813,0,0,1,26.183-.277,5.075,5.075,0,0,1,24.021.176Zm-.29-7.813a1.587,1.587,0,0,0-1.226.512,2.651,2.651,0,0,0-.6,1.466h3.533v-.2a1.891,1.891,0,0,0-.457-1.311A1.638,1.638,0,0,0,23.73-7.638Zm10.986.51A6.9,6.9,0,0,0,33.8-7.2a1.86,1.86,0,0,0-1.89.976V0h-2.54V-9.51h2.4l.07,1.134a2.354,2.354,0,0,1,2.118-1.31,2.662,2.662,0,0,1,.791.114Zm4.7-4.72V-9.51h1.626v1.863H39.419V-2.9a1.133,1.133,0,0,0,.2.756,1.015,1.015,0,0,0,.773.229,4.051,4.051,0,0,0,.747-.062V-.053A5.229,5.229,0,0,1,39.6.176a2.425,2.425,0,0,1-2.725-2.7V-7.646H35.49V-9.51h1.389v-2.338ZM47.971,0a2.821,2.821,0,0,1-.255-.853,3.073,3.073,0,0,1-2.4,1.028A3.376,3.376,0,0,1,43-.633a2.6,2.6,0,0,1-.918-2.039A2.687,2.687,0,0,1,43.2-4.992a5.529,5.529,0,0,1,3.239-.817H47.61v-.545a1.567,1.567,0,0,0-.338-1.055A1.331,1.331,0,0,0,46.2-7.8,1.513,1.513,0,0,0,45.2-7.5a1.045,1.045,0,0,0-.365.844h-2.54a2.551,2.551,0,0,1,.51-1.529,3.37,3.37,0,0,1,1.441-1.1,5.253,5.253,0,0,1,2.092-.4,4.15,4.15,0,0,1,2.791.883,3.09,3.09,0,0,1,1.033,2.483V-2.2a4.546,4.546,0,0,0,.378,2.048V0Zm-2.1-1.767a2.188,2.188,0,0,0,1.037-.25,1.645,1.645,0,0,0,.7-.672V-4.324h-.949q-1.907,0-2.03,1.318l-.009.149a1.017,1.017,0,0,0,.334.782A1.3,1.3,0,0,0,45.87-1.767Z" transform="translate(1650.302 -637.525)" fill="#12263f"/>
    <path id="Path_102077" data-name="Path 102077" d="M1.143,0V-12.8H5.08a5.98,5.98,0,0,1,3.019.76,5.3,5.3,0,0,1,2.079,2.162,6.669,6.669,0,0,1,.747,3.186V-6.1a6.688,6.688,0,0,1-.734,3.173A5.256,5.256,0,0,1,8.121-.773,6.025,6.025,0,0,1,5.106,0ZM3.779-10.661v8.543H5.054A2.863,2.863,0,0,0,7.418-3.129a4.567,4.567,0,0,0,.835-2.892V-6.7a4.64,4.64,0,0,0-.809-2.958A2.854,2.854,0,0,0,5.08-10.661ZM17.051.176a4.668,4.668,0,0,1-3.406-1.283,4.561,4.561,0,0,1-1.314-3.419v-.246a5.745,5.745,0,0,1,.554-2.562,4.064,4.064,0,0,1,1.569-1.74,4.4,4.4,0,0,1,2.316-.611,3.947,3.947,0,0,1,3.072,1.23,5,5,0,0,1,1.121,3.489v1.037H14.906a2.36,2.36,0,0,0,.743,1.494,2.245,2.245,0,0,0,1.569.563,2.742,2.742,0,0,0,2.294-1.063l1.248,1.4A3.813,3.813,0,0,1,19.213-.277,5.075,5.075,0,0,1,17.051.176Zm-.29-7.813a1.587,1.587,0,0,0-1.226.512,2.651,2.651,0,0,0-.6,1.466h3.533v-.2a1.891,1.891,0,0,0-.457-1.311A1.638,1.638,0,0,0,16.761-7.638ZM24.785-9.51l.079,1.063A3.342,3.342,0,0,1,27.6-9.686a2.536,2.536,0,0,1,2.522,1.45,3.265,3.265,0,0,1,2.856-1.45,2.836,2.836,0,0,1,2.3.9,4.141,4.141,0,0,1,.756,2.711V0H33.486V-6.078a1.818,1.818,0,0,0-.316-1.185,1.4,1.4,0,0,0-1.116-.374,1.585,1.585,0,0,0-1.582,1.092L30.48,0H27.94V-6.07a1.8,1.8,0,0,0-.325-1.2,1.414,1.414,0,0,0-1.107-.37,1.645,1.645,0,0,0-1.564.9V0H22.4V-9.51ZM43.5,0a2.821,2.821,0,0,1-.255-.853,3.073,3.073,0,0,1-2.4,1.028,3.376,3.376,0,0,1-2.316-.809,2.6,2.6,0,0,1-.918-2.039,2.687,2.687,0,0,1,1.121-2.32,5.529,5.529,0,0,1,3.239-.817h1.169v-.545A1.567,1.567,0,0,0,42.8-7.409a1.331,1.331,0,0,0-1.068-.4,1.513,1.513,0,0,0-1.006.308,1.045,1.045,0,0,0-.365.844h-2.54a2.551,2.551,0,0,1,.51-1.529,3.37,3.37,0,0,1,1.441-1.1,5.253,5.253,0,0,1,2.092-.4,4.15,4.15,0,0,1,2.791.883,3.09,3.09,0,0,1,1.033,2.483V-2.2a4.546,4.546,0,0,0,.378,2.048V0ZM41.4-1.767a2.188,2.188,0,0,0,1.037-.25,1.645,1.645,0,0,0,.7-.672V-4.324h-.949q-1.907,0-2.03,1.318l-.009.149a1.017,1.017,0,0,0,.334.782A1.3,1.3,0,0,0,41.4-1.767ZM49.975-9.51l.079,1.1a3.32,3.32,0,0,1,2.733-1.274,2.759,2.759,0,0,1,2.25.888,4.142,4.142,0,0,1,.756,2.654V0h-2.54V-6.1A1.654,1.654,0,0,0,52.9-7.272a1.572,1.572,0,0,0-1.169-.366,1.747,1.747,0,0,0-1.608.916V0h-2.54V-9.51Zm7.348,4.685a5.731,5.731,0,0,1,1-3.542,3.237,3.237,0,0,1,2.729-1.318,2.913,2.913,0,0,1,2.294,1.037V-13.5h2.549V0H63.6l-.123-1.011A2.989,2.989,0,0,1,61.031.176a3.228,3.228,0,0,1-2.694-1.323A5.916,5.916,0,0,1,57.322-4.825Zm2.54.181a3.775,3.775,0,0,0,.466,2.057,1.516,1.516,0,0,0,1.354.715,1.7,1.7,0,0,0,1.661-1V-6.64a1.675,1.675,0,0,0-1.644-1Q59.862-7.638,59.862-4.644ZM73.371,0a2.821,2.821,0,0,1-.255-.853,3.073,3.073,0,0,1-2.4,1.028A3.376,3.376,0,0,1,68.4-.633a2.6,2.6,0,0,1-.918-2.039A2.687,2.687,0,0,1,68.6-4.992a5.529,5.529,0,0,1,3.239-.817h1.169v-.545a1.567,1.567,0,0,0-.338-1.055A1.331,1.331,0,0,0,71.6-7.8,1.513,1.513,0,0,0,70.6-7.5a1.045,1.045,0,0,0-.365.844h-2.54a2.551,2.551,0,0,1,.51-1.529,3.37,3.37,0,0,1,1.441-1.1,5.253,5.253,0,0,1,2.092-.4,4.15,4.15,0,0,1,2.791.883A3.09,3.09,0,0,1,75.56-6.319V-2.2a4.546,4.546,0,0,0,.378,2.048V0Zm-2.1-1.767a2.188,2.188,0,0,0,1.037-.25,1.645,1.645,0,0,0,.7-.672V-4.324h-.949q-1.907,0-2.03,1.318l-.009.149a1.017,1.017,0,0,0,.334.782A1.3,1.3,0,0,0,71.271-1.767Z" transform="translate(1649.286 -367.447)" fill="#12263f"/>
    <path id="Path_102074" data-name="Path 102074" d="M7.6-2.977H2.836L1.766,0H.219L4.563-11.375H5.875L10.227,0H8.688ZM3.289-4.2H7.156L5.219-9.523Zm7.9-.094A4.968,4.968,0,0,1,12.1-7.441a2.923,2.923,0,0,1,2.422-1.168,2.908,2.908,0,0,1,2.414,1.094l.07-.937h1.32V-.2a3.439,3.439,0,0,1-.973,2.586,3.589,3.589,0,0,1-2.613.945,4.348,4.348,0,0,1-1.789-.391,3.08,3.08,0,0,1-1.336-1.07L12.367,1a2.826,2.826,0,0,0,2.273,1.148,2.214,2.214,0,0,0,1.645-.594,2.269,2.269,0,0,0,.59-1.672V-.844a2.971,2.971,0,0,1-2.367,1,2.887,2.887,0,0,1-2.4-1.2A5.224,5.224,0,0,1,11.188-4.3Zm1.453.164a3.79,3.79,0,0,0,.586,2.246,1.9,1.9,0,0,0,1.641.816,2.117,2.117,0,0,0,2.008-1.242V-6.172a2.142,2.142,0,0,0-1.992-1.211,1.921,1.921,0,0,0-1.648.82A4.128,4.128,0,0,0,12.641-4.133ZM24.016.156a3.693,3.693,0,0,1-2.8-1.129,4.19,4.19,0,0,1-1.078-3.02v-.266a5.073,5.073,0,0,1,.48-2.246,3.748,3.748,0,0,1,1.344-1.547,3.378,3.378,0,0,1,1.871-.559A3.166,3.166,0,0,1,26.4-7.523a4.7,4.7,0,0,1,.914,3.109v.6H21.586a3,3,0,0,0,.73,2.02,2.3,2.3,0,0,0,1.777.77,2.517,2.517,0,0,0,1.3-.312,3.259,3.259,0,0,0,.93-.828l.883.688A3.55,3.55,0,0,1,24.016.156Zm-.18-7.578a1.928,1.928,0,0,0-1.469.637A3.1,3.1,0,0,0,21.633-5h4.234v-.109a2.753,2.753,0,0,0-.594-1.707A1.815,1.815,0,0,0,23.836-7.422Zm6.516-1.031L30.4-7.391A3.08,3.08,0,0,1,32.93-8.609q2.68,0,2.7,3.023V0H34.188V-5.594a1.946,1.946,0,0,0-.418-1.352,1.675,1.675,0,0,0-1.277-.437,2.086,2.086,0,0,0-1.234.375,2.546,2.546,0,0,0-.828.984V0H28.984V-8.453ZM41.2-1.023a2.082,2.082,0,0,0,1.352-.469A1.649,1.649,0,0,0,43.2-2.664h1.367a2.621,2.621,0,0,1-.5,1.383,3.293,3.293,0,0,1-1.23,1.047A3.55,3.55,0,0,1,41.2.156,3.482,3.482,0,0,1,38.457-1a4.59,4.59,0,0,1-1.02-3.152v-.242a5.089,5.089,0,0,1,.453-2.2,3.451,3.451,0,0,1,1.3-1.492,3.7,3.7,0,0,1,2-.531,3.39,3.39,0,0,1,2.363.852,3.043,3.043,0,0,1,1,2.211H43.2a1.992,1.992,0,0,0-.621-1.348A1.932,1.932,0,0,0,41.2-7.422a2.023,2.023,0,0,0-1.707.793,3.724,3.724,0,0,0-.605,2.293v.273a3.65,3.65,0,0,0,.6,2.25A2.033,2.033,0,0,0,41.2-1.023ZM47.758,0H46.313V-8.453h1.445ZM46.2-10.7a.863.863,0,0,1,.215-.594.807.807,0,0,1,.637-.242.819.819,0,0,1,.641.242.854.854,0,0,1,.219.594.826.826,0,0,1-.219.586.834.834,0,0,1-.641.234.821.821,0,0,1-.637-.234A.834.834,0,0,1,46.2-10.7ZM55.289,0a3.036,3.036,0,0,1-.2-.891A3.225,3.225,0,0,1,52.68.156a2.984,2.984,0,0,1-2.051-.707,2.287,2.287,0,0,1-.8-1.793,2.39,2.39,0,0,1,1-2.051,4.733,4.733,0,0,1,2.824-.73h1.406v-.664A1.623,1.623,0,0,0,54.609-7a1.821,1.821,0,0,0-1.336-.449,2.107,2.107,0,0,0-1.3.391,1.151,1.151,0,0,0-.523.945H50a2,2,0,0,1,.449-1.223,3.066,3.066,0,0,1,1.219-.934,4.1,4.1,0,0,1,1.691-.344,3.342,3.342,0,0,1,2.289.73,2.635,2.635,0,0,1,.859,2.012v3.891a4.757,4.757,0,0,0,.3,1.852V0Zm-2.4-1.1a2.54,2.54,0,0,0,1.289-.352,2.127,2.127,0,0,0,.883-.914V-4.1H53.93q-2.656,0-2.656,1.555a1.316,1.316,0,0,0,.453,1.063A1.742,1.742,0,0,0,52.891-1.1ZM63.7-2.242a1.064,1.064,0,0,0-.441-.91,4.249,4.249,0,0,0-1.539-.559,7.277,7.277,0,0,1-1.742-.562,2.479,2.479,0,0,1-.953-.781,1.869,1.869,0,0,1-.309-1.078,2.193,2.193,0,0,1,.879-1.758,3.432,3.432,0,0,1,2.246-.719,3.532,3.532,0,0,1,2.332.742,2.357,2.357,0,0,1,.895,1.9H63.609a1.3,1.3,0,0,0-.5-1.023,1.888,1.888,0,0,0-1.27-.43,1.976,1.976,0,0,0-1.234.344,1.082,1.082,0,0,0-.445.9.877.877,0,0,0,.414.789,5.1,5.1,0,0,0,1.5.508A7.8,7.8,0,0,1,63.82-4.3a2.558,2.558,0,0,1,1,.809,1.988,1.988,0,0,1,.324,1.152,2.163,2.163,0,0,1-.906,1.816,3.8,3.8,0,0,1-2.352.684,4.257,4.257,0,0,1-1.8-.359,2.922,2.922,0,0,1-1.223-1A2.42,2.42,0,0,1,58.422-2.6h1.445a1.5,1.5,0,0,0,.582,1.152,2.258,2.258,0,0,0,1.434.426A2.331,2.331,0,0,0,63.2-1.355,1.02,1.02,0,0,0,63.7-2.242Zm9.453-9.133,3.719,9.281,3.719-9.281h1.945V0h-1.5V-4.43l.141-4.781L77.438,0H76.289L72.563-9.187l.148,4.758V0h-1.5V-11.375ZM90.172,0a3.036,3.036,0,0,1-.2-.891A3.225,3.225,0,0,1,87.563.156a2.984,2.984,0,0,1-2.051-.707,2.288,2.288,0,0,1-.8-1.793,2.39,2.39,0,0,1,1-2.051,4.733,4.733,0,0,1,2.824-.73h1.406v-.664A1.623,1.623,0,0,0,89.492-7a1.821,1.821,0,0,0-1.336-.449,2.108,2.108,0,0,0-1.3.391,1.151,1.151,0,0,0-.523.945H84.883a2,2,0,0,1,.449-1.223,3.066,3.066,0,0,1,1.219-.934,4.1,4.1,0,0,1,1.691-.344,3.342,3.342,0,0,1,2.289.73,2.635,2.635,0,0,1,.859,2.012v3.891a4.757,4.757,0,0,0,.3,1.852V0Zm-2.4-1.1a2.54,2.54,0,0,0,1.289-.352,2.127,2.127,0,0,0,.883-.914V-4.1H88.813q-2.656,0-2.656,1.555a1.316,1.316,0,0,0,.453,1.063A1.742,1.742,0,0,0,87.773-1.1ZM96.3-2.117l1.969-6.336H99.82L96.422,1.3q-.789,2.109-2.508,2.109l-.273-.023-.539-.1V2.117l.391.031a1.923,1.923,0,0,0,1.145-.3A2.149,2.149,0,0,0,95.313.766l.32-.859L92.617-8.453H94.2Zm4.3-2.187a4.993,4.993,0,0,1,.488-2.234,3.643,3.643,0,0,1,1.359-1.531,3.7,3.7,0,0,1,1.988-.539,3.565,3.565,0,0,1,2.793,1.2,4.6,4.6,0,0,1,1.066,3.18v.1a5.036,5.036,0,0,1-.473,2.215A3.589,3.589,0,0,1,106.48-.391a3.743,3.743,0,0,1-2.02.547,3.556,3.556,0,0,1-2.785-1.2A4.575,4.575,0,0,1,100.609-4.2Zm1.453.172a3.616,3.616,0,0,0,.652,2.258,2.088,2.088,0,0,0,1.746.852,2.075,2.075,0,0,0,1.75-.863,3.955,3.955,0,0,0,.648-2.418,3.61,3.61,0,0,0-.66-2.254,2.1,2.1,0,0,0-1.754-.863,2.075,2.075,0,0,0-1.727.852A3.925,3.925,0,0,0,102.063-4.133ZM114.2-7.156a4.331,4.331,0,0,0-.711-.055A1.9,1.9,0,0,0,111.563-6V0h-1.445V-8.453h1.406l.023.977a2.251,2.251,0,0,1,2.016-1.133,1.477,1.477,0,0,1,.641.109ZM117.1,0h-1.445V-8.453H117.1Zm-1.562-10.7a.863.863,0,0,1,.215-.594.807.807,0,0,1,.637-.242.819.819,0,0,1,.641.242.854.854,0,0,1,.219.594.826.826,0,0,1-.219.586.834.834,0,0,1-.641.234.821.821,0,0,1-.637-.234A.834.834,0,0,1,115.539-10.7Zm8.8,8.453a1.064,1.064,0,0,0-.441-.91,4.249,4.249,0,0,0-1.539-.559,7.277,7.277,0,0,1-1.742-.562,2.479,2.479,0,0,1-.953-.781,1.869,1.869,0,0,1-.309-1.078,2.193,2.193,0,0,1,.879-1.758,3.432,3.432,0,0,1,2.246-.719,3.532,3.532,0,0,1,2.332.742,2.357,2.357,0,0,1,.895,1.9H124.25a1.3,1.3,0,0,0-.5-1.023,1.888,1.888,0,0,0-1.27-.43,1.976,1.976,0,0,0-1.234.344,1.082,1.082,0,0,0-.445.9.877.877,0,0,0,.414.789,5.1,5.1,0,0,0,1.5.508,7.8,7.8,0,0,1,1.754.578,2.558,2.558,0,0,1,1,.809,1.988,1.988,0,0,1,.324,1.152,2.163,2.163,0,0,1-.906,1.816,3.8,3.8,0,0,1-2.352.684,4.257,4.257,0,0,1-1.8-.359,2.922,2.922,0,0,1-1.223-1,2.42,2.42,0,0,1-.441-1.395h1.445a1.5,1.5,0,0,0,.582,1.152,2.258,2.258,0,0,0,1.434.426,2.331,2.331,0,0,0,1.316-.332A1.02,1.02,0,0,0,124.336-2.242Zm5.289-8.258v2.047H131.2v1.117h-1.578v5.249a1.173,1.173,0,0,0,.211.763.888.888,0,0,0,.719.254,3.5,3.5,0,0,0,.688-.094V0a4.215,4.215,0,0,1-1.109.155,1.8,1.8,0,0,1-1.461-.586,2.517,2.517,0,0,1-.492-1.664V-7.336h-1.539V-8.453h1.539V-10.5ZM138.109,0a3.036,3.036,0,0,1-.2-.891A3.225,3.225,0,0,1,135.5.156a2.984,2.984,0,0,1-2.051-.707,2.287,2.287,0,0,1-.8-1.793,2.39,2.39,0,0,1,1-2.051,4.733,4.733,0,0,1,2.824-.73h1.406v-.664A1.623,1.623,0,0,0,137.43-7a1.821,1.821,0,0,0-1.336-.449,2.107,2.107,0,0,0-1.3.391,1.151,1.151,0,0,0-.523.945H132.82a2,2,0,0,1,.449-1.223,3.066,3.066,0,0,1,1.219-.934,4.1,4.1,0,0,1,1.691-.344,3.342,3.342,0,0,1,2.289.73,2.635,2.635,0,0,1,.859,2.012v3.891a4.757,4.757,0,0,0,.3,1.852V0Zm-2.4-1.1A2.54,2.54,0,0,0,137-1.453a2.127,2.127,0,0,0,.883-.914V-4.1H136.75q-2.656,0-2.656,1.555a1.316,1.316,0,0,0,.453,1.063A1.742,1.742,0,0,0,135.711-1.1Zm10.8-1.141a1.064,1.064,0,0,0-.441-.91,4.249,4.249,0,0,0-1.539-.559,7.277,7.277,0,0,1-1.742-.562,2.479,2.479,0,0,1-.953-.781,1.869,1.869,0,0,1-.309-1.078,2.193,2.193,0,0,1,.879-1.758,3.432,3.432,0,0,1,2.246-.719,3.532,3.532,0,0,1,2.332.742,2.357,2.357,0,0,1,.895,1.9H146.43a1.3,1.3,0,0,0-.5-1.023,1.888,1.888,0,0,0-1.27-.43,1.976,1.976,0,0,0-1.234.344,1.082,1.082,0,0,0-.445.9.877.877,0,0,0,.414.789,5.1,5.1,0,0,0,1.5.508,7.8,7.8,0,0,1,1.754.578,2.558,2.558,0,0,1,1,.809,1.988,1.988,0,0,1,.324,1.152,2.163,2.163,0,0,1-.906,1.816A3.8,3.8,0,0,1,144.7.156a4.257,4.257,0,0,1-1.8-.359,2.922,2.922,0,0,1-1.223-1,2.42,2.42,0,0,1-.441-1.395h1.445a1.5,1.5,0,0,0,.582,1.152,2.258,2.258,0,0,0,1.434.426,2.331,2.331,0,0,0,1.316-.332A1.02,1.02,0,0,0,146.516-2.242Z" transform="translate(1351.648 -499.079)" fill="#12263f"/>
    <path id="comprobado" d="M1331.745-503.336l4.482,4.49,8.606-8.6-1.236-1.218-7.37,7.359-3.264-3.258Z" fill="#5038a1"/>
    <path id="Path_102075" data-name="Path 102075" d="M5.086-1.992l3.25-9.383H9.977L5.758,0H4.43L.219-11.375H1.852Zm8.867-.125,1.969-6.336h1.547L14.07,1.3q-.789,2.109-2.508,2.109l-.273-.023-.539-.1V2.117l.391.031a1.923,1.923,0,0,0,1.145-.3A2.148,2.148,0,0,0,12.961.766l.32-.859L10.266-8.453h1.578Zm12.891-8.031H23.188V0H21.7V-10.148H18.047v-1.227h8.8Z" transform="translate(1412.577 -472.878)" fill="#12263f"/>
    <path id="comprobado-2" data-name="comprobado" d="M1392.767-477.135l4.482,4.49,8.606-8.6-1.236-1.218-7.37,7.359-3.264-3.258Z" fill="#5038a1"/>
    <path id="Path_102076" data-name="Path 102076" d="M2.578-7.684l-2.359-.7L.578-9.564l2.359.874-.07-2.685h1.2L3.984-8.651,6.3-9.51l.359,1.186-2.4.71L5.813-5.5l-.969.734L3.391-7.012l-1.406,2.2-.977-.711ZM16.961-5.32A7.037,7.037,0,0,1,16.4-2.4,4.261,4.261,0,0,1,14.8-.5,4.385,4.385,0,0,1,12.4.156,4.347,4.347,0,0,1,10.016-.5,4.363,4.363,0,0,1,8.4-2.387a6.752,6.752,0,0,1-.59-2.832v-.82a6.953,6.953,0,0,1,.57-2.9A4.347,4.347,0,0,1,10-10.863a4.329,4.329,0,0,1,2.387-.668,4.41,4.41,0,0,1,2.41.66A4.253,4.253,0,0,1,16.4-8.957a7.071,7.071,0,0,1,.563,2.918Zm-1.492-.734a5.1,5.1,0,0,0-.812-3.105,2.68,2.68,0,0,0-2.273-1.082A2.651,2.651,0,0,0,10.145-9.16a5,5,0,0,0-.84,3v.836a5.107,5.107,0,0,0,.824,3.082A2.662,2.662,0,0,0,12.4-1.117a2.652,2.652,0,0,0,2.25-1.059,5.079,5.079,0,0,0,.82-3.035Zm11.391-4.094H23.2V0H21.711V-10.148H18.063v-1.227h8.8Zm7.352,7.172H29.445L28.375,0H26.828l4.344-11.375h1.313L36.836,0H35.3ZM29.9-4.2h3.867l-1.937-5.32Z" transform="translate(1407.532 -446.676)" fill="#12263f"/>
    <path id="comprobado-3" data-name="comprobado" d="M1387.7-450.933l4.465,4.49,8.575-8.6-1.232-1.218-7.343,7.359-3.251-3.258Z" fill="#5038a1"/>
    <path id="Path_101460" data-name="Path 101460" d="M1295.623-650.61a1.249,1.249,0,0,0-1.727-.378l-145.961,93.654-1.148-6.106-6.377,13.71,14.714-3.483-5.483-2.245,145.6-93.425A1.25,1.25,0,0,0,1295.623-650.61Z" fill="#8c6df2"/>
    <path id="Path_101461" data-name="Path 101461" d="M1525.113-650.61a1.249,1.249,0,0,1,1.727-.378L1672.8-557.334l1.148-6.106,6.377,13.71-14.714-3.483,5.483-2.245-145.6-93.425A1.25,1.25,0,0,1,1525.113-650.61Z" fill="#8c6df2"/>
    <path id="Path_101462" data-name="Path 101462" d="M1140.609-464.018a1.248,1.248,0,0,1,1.726-.378L1288.3-370.742l1.147-6.106,6.377,13.71-14.714-3.483,5.483-2.246-145.6-93.424A1.25,1.25,0,0,1,1140.609-464.018Z" fill="#8c6df2"/>
    <path id="Path_101463" data-name="Path 101463" d="M1680.127-464.018a1.248,1.248,0,0,0-1.726-.378l-145.962,93.654-1.147-6.106-6.377,13.71,14.714-3.483-5.483-2.246,145.6-93.424A1.249,1.249,0,0,0,1680.127-464.018Z" fill="#8c6df2"/>
    <path id="Path_101464" data-name="Path 101464" d="M1634.429-645.715h-42.963v-7L1571.62-641.19l19.846,11.524v-7h42.963Z" fill="#8c6df2"/>
    <path id="Path_101464_-_Outline" data-name="Path 101464 - Outline" d="M1591.465-653.714a1,1,0,0,1,.5.133,1,1,0,0,1,.5.867v6h41.963a1,1,0,0,1,1,1v9.049a1,1,0,0,1-1,1h-41.963v6a1,1,0,0,1-.5.867,1,1,0,0,1-1,0l-19.846-11.524a1,1,0,0,1-.5-.865,1,1,0,0,1,.5-.865l19.846-11.524A1,1,0,0,1,1591.465-653.714Zm41.963,9h-41.963a1,1,0,0,1-1-1v-5.263l-16.854,9.787,16.854,9.787v-5.263a1,1,0,0,1,1-1h41.963Z" fill="#5038a1"/>
    <g id="Group_55917" data-name="Group 55917">
      <path id="Path_101465" data-name="Path 101465" d="M1409.341-645.1v19.257h-10.413l17.144,29.524,17.144-29.524H1422.8V-645.1Z" fill="#8c6df2"/>
      <path id="Path_101465_-_Outline" data-name="Path 101465 - Outline" d="M1409.341-646.1H1422.8a1,1,0,0,1,1,1v18.257h9.413a1,1,0,0,1,.867.5,1,1,0,0,1,0,1l-17.144,29.524a1,1,0,0,1-.865.5,1,1,0,0,1-.865-.5l-17.144-29.524a1,1,0,0,1,0-1,1,1,0,0,1,.867-.5h9.413V-645.1A1,1,0,0,1,1409.341-646.1Zm12.462,2h-11.462v18.257a1,1,0,0,1-1,1h-8.676l15.407,26.532,15.407-26.532H1422.8a1,1,0,0,1-1-1Z" fill="#5038a1"/>
      <path id="Path_101466" data-name="Path 101466" d="M1409.341-418v19.257h-10.413l17.144,29.524,17.144-29.524H1422.8V-418Z" fill="#8c6df2"/>
      <path id="Path_101466_-_Outline" data-name="Path 101466 - Outline" d="M1409.341-419H1422.8a1,1,0,0,1,1,1v18.257h9.413a1,1,0,0,1,.867.5,1,1,0,0,1,0,1l-17.144,29.524a1,1,0,0,1-.865.5,1,1,0,0,1-.865-.5l-17.144-29.524a1,1,0,0,1,0-1,1,1,0,0,1,.867-.5h9.413V-418A1,1,0,0,1,1409.341-419Zm12.462,2h-11.462v18.257a1,1,0,0,1-1,1h-8.676l15.407,26.532,15.407-26.532H1422.8a1,1,0,0,1-1-1Z" fill="#5038a1"/>
    </g>
    <path id="Path_101467" data-name="Path 101467" d="M1634.429-376.647h-42.963v-7l-19.846,11.524,19.846,11.524v-7h42.963Z" fill="#8c6df2"/>
    <path id="Path_101467_-_Outline" data-name="Path 101467 - Outline" d="M1591.465-384.647a1,1,0,0,1,.5.133,1,1,0,0,1,.5.867v6h41.963a1,1,0,0,1,1,1v9.049a1,1,0,0,1-1,1h-41.963v6a1,1,0,0,1-.5.867,1,1,0,0,1-1,0l-19.846-11.524a1,1,0,0,1-.5-.865,1,1,0,0,1,.5-.865l19.846-11.524A1,1,0,0,1,1591.465-384.647Zm41.963,9h-41.963a1,1,0,0,1-1-1v-5.263l-16.854,9.787,16.854,9.787V-367.6a1,1,0,0,1,1-1h41.963Z" fill="#5038a1"/>
    <path id="Path_101468" data-name="Path 101468" d="M1308.575-425.777V-597.993a1.249,1.249,0,0,0-1.25-1.25,1.25,1.25,0,0,0-1.25,1.25v172.216l-5.347-2.909,6.6,13.605,6.6-13.605Z" fill="#8c6df2"/>
    <path id="Path_101469" data-name="Path 101469" d="M1517.847-588.546v172.215a1.25,1.25,0,0,0,1.25,1.25,1.249,1.249,0,0,0,1.25-1.25V-588.546l5.347,2.908-6.6-13.6-6.6,13.6Z" fill="#8c6df2"/>
  </g>
</svg>
