<svg xmlns="http://www.w3.org/2000/svg" width="295" height="184.788" viewBox="0 0 295 184.788">
  <g id="t1-ip1" transform="translate(-390 -11295.213)">
    <rect id="Rectangle_7523" data-name="Rectangle 7523" width="295" height="184" transform="translate(390 11296)" fill="none"/>
    <g id="Group_55953" data-name="Group 55953" transform="translate(-66.033 -56.482)">
      <g id="Group_55952" data-name="Group 55952" transform="translate(463.971 11351.695)">
        <path id="Path_101518" data-name="Path 101518" d="M698.191-954.424s-33.178-34.028-12.049-74.041,49.48-19.878,48.123-66.458,65.236-50.561,86.428-37.048,21.059,29.781,64.82,24.415,52.1,39.5,40.712,62.363c-16.164,32.439,44.819,27.107,6.371,90.85Z" transform="translate(-674.256 1138.749)" fill="#c4b3ff" opacity="0.15"/>
        <path id="Path_101519" data-name="Path 101519" d="M843.255-1076.316a54.321,54.321,0,0,1-.87,9.706,53.6,53.6,0,0,1-8.5,20.67,53.813,53.813,0,0,1-44.5,23.5A53.882,53.882,0,0,1,740.1-1054.5a53.21,53.21,0,0,1-2.745-7.749,53.834,53.834,0,0,1-1.856-14.064,54.018,54.018,0,0,1,1.222-11.465c.008-.042.019-.083.027-.126a53.765,53.765,0,0,1,14.5-26.473,53.773,53.773,0,0,1,6.529-5.576c1.106-.8,2.25-1.568,3.418-2.285a53.6,53.6,0,0,1,28.18-7.952q2.057,0,4.072.153a53.518,53.518,0,0,1,5.6.71,53.563,53.563,0,0,1,21.084,8.772h0a54.017,54.017,0,0,1,10.392,9.46,53.952,53.952,0,0,1,4.387,5.972q1.237,1.957,2.312,4.018a53.414,53.414,0,0,1,4.105,10.477A53.936,53.936,0,0,1,843.255-1076.316Z" transform="translate(-613.837 1147.916)" fill="#ffeaab"/>
        <path id="Path_101520" data-name="Path 101520" d="M770.442-1104.545c-2.15,3.405.9,9.317-5.551,7.705s-10.394-2.33-10.75,1.251,4.837,3.585,4.837,7.349-2.33,5.006-5.911,3.219-4.615-4.385-8.78-2.773-6.585.539-7.525-2.687a4.717,4.717,0,0,0-.669-1.413c.008-.042.019-.083.027-.126a53.765,53.765,0,0,1,14.5-26.473,53.773,53.773,0,0,1,6.529-5.576c1.106-.8,2.25-1.568,3.418-2.285a7.087,7.087,0,0,1,5.4,2.817c3.762,4.658,6.27,2.33,5.375,7.7s.536,6.094,3.581,5.914,6.63-.18,6.989,2.15S772.592-1107.95,770.442-1104.545Z" transform="translate(-613.205 1152.029)" fill="#ffdc72" opacity="0.7"/>
        <path id="Path_101521" data-name="Path 101521" d="M777.763-1094.912s-4.75,1.524-6-1.792.178-4.031-4.031-5.015-4.569-3.853-7.256-3.494-1.344,1.433-4.48,3.761-6,1.255-5.912,5.555,4.747,4.971,5.688,7.792-.671,4.033,1.344,6.183,5.777,1.208,4.031,4.165-4.435,5.24-3.09,9.81.4,4.837,2.687,8.062,6.719,4.3,7.39,2.15-3.09-4.971-1.881-7.121,3.225-.673,4.031-3.9,4.076-3.225,4.346-5.464-3.942-5.644-2.33-7.078,4.839,2.6,7.347-.984.806-6.45,3.4-9.855S779.555-1096.882,777.763-1094.912Z" transform="translate(-598.218 1174.644)" fill="#ffdc72" opacity="0.7"/>
        <path id="Path_101522" data-name="Path 101522" d="M809.025-1092.436a54.321,54.321,0,0,1-.87,9.706,53.6,53.6,0,0,1-8.5,20.67,6.159,6.159,0,0,1-4.306-.116c-6.719-2.688-1.748-9.944.94-13.573s-4.165-2.015-9.139-5.373.538-12.364-4.567-10.885-11.289,3.36-14.244-1.614,2.686-5.777.135-9.942,1.477-6.585,6.585-6.989,4.433-4.031,10.75-4.569,6.181,7.525,13.167,6.989,6.674,1.075,6.674,1.075a3.229,3.229,0,0,1,1.458.306A53.936,53.936,0,0,1,809.025-1092.436Z" transform="translate(-579.606 1164.036)" fill="#ffdc72" opacity="0.7"/>
        <path id="Path_101523" data-name="Path 101523" d="M801.505-1106.091c-5.81,2.827-8.144-4.861-13.109-2.55-5.008,2.33-4.132-2.15-8.072-5.017s-11.825,2.328-11.467-2.15,6.27-3.225,7.525-6.808,6.986-2.687,6.986-2.687a3.9,3.9,0,0,1,1.044-.238h0a54.017,54.017,0,0,1,10.392,9.46,53.952,53.952,0,0,1,4.387,5.972Q800.43-1108.152,801.505-1106.091Z" transform="translate(-578.114 1152.9)" fill="#ffdc72" opacity="0.7"/>
        <path id="Path_101524" data-name="Path 101524" d="M768.318-1120.409s3.047-4.4-1.792-5.692-4.747.4-8.509,0-5.24,2.512-2.419,5.692,5.106,9.283,7.66,6.03S765.319-1120.1,768.318-1120.409Z" transform="translate(-593.881 1151.768)" fill="#ffdc72" opacity="0.7"/>
        <path id="Path_101525" data-name="Path 101525" d="M833.432-1052.644c2.142-6.829-8.847-11.287-8.847-11.287S811.406-1058,809.31-1059s10.278-7.268,10.278-7.268c-3.527-2.767-16.055-4.279-16.055-4.279s-6.989,12.277-8.774,10.794,6.742-10.554,6.742-10.554c-4.337-1.232-10.446.843-10.446.843-8.662,4.2-5.332,19.313-10.9,22.416h0a16.75,16.75,0,0,0-2.666,1.618l.992.634c.251-.213.5-.414.76-.6l.006,0,.01-.008c.166-.11.4-.265.694-.454h0v0c.684-.4,1.168-.706,1.5-.94l0,0c2.1-1.282,6.183-3.032,6.156-2.825-.628,4.725,7.477,10.754,12.83,12.8s4.141-.6,2.976-4.393-6.866-6.63-7.9-8.486,1.812-1.234,4.812,1.023,2.562,6.419,7.347,10.158,14.789-3.364,14.789-3.364c-4.215-1.156-9.284-7.125-8.751-8.494s9.8,4.72,11.483,5.286S831.29-1045.812,833.432-1052.644Z" transform="translate(-568.855 1211.655)" fill="#c4b3ff" opacity="0.45"/>
        <path id="Path_101526" data-name="Path 101526" d="M683.538-1068.832c1.023-9.126,16.227-8.667,16.227-8.667s12.4,13.785,15.377,13.7-8.3-13.855-8.3-13.855c5.572-1.421,21.059,3.293,21.059,3.293s1.843,18.027,4.708,17.211-2.446-15.877-2.446-15.877c5.727.8,11.821,6.4,11.821,6.4,7.991,9.418-3.741,25.427,1.187,31.954h0a21.4,21.4,0,0,1,2.291,3.279l-1.493.23c-.184-.381-.377-.748-.584-1.1l0-.006-.008-.014c-.139-.215-.335-.522-.58-.893l0,0v0c-.594-.823-1-1.433-1.272-1.881l0,0c-1.8-2.591-5.686-6.759-5.76-6.5-1.711,5.868-14.346,8.749-21.689,8.387s-4.551-2.85-1.22-6.7,11.494-4.228,13.669-5.87-1.487-2.386-6.177-1.291-6.33,6.208-13.884,8.117-15.614-11.605-15.614-11.605c5.545.826,14.586-3.556,14.669-5.437s-13.94.466-16.214.257S682.515-1059.706,683.538-1068.832Z" transform="translate(-669.665 1203.916)" fill="#c4b3ff"/>
        <g id="Group_55921" data-name="Group 55921" transform="translate(222.094 119.676)" opacity="0.45">
          <path id="Path_101527" data-name="Path 101527" d="M784.725-1059.132s3.94-14.048,12.606-21.448a1.62,1.62,0,0,1,2.641,1.52l-.015.077C799.465-1076.447,789.574-1066.954,784.725-1059.132Z" transform="translate(-783.196 1080.971)" fill="#c4b3ff" opacity="0.5"/>
          <path id="Path_101528" data-name="Path 101528" d="M783.987-1056.688s10.1-16.755,23.814-22.722a1.718,1.718,0,0,1,2.235.793,2.734,2.734,0,0,1-.267,2.438C808.283-1073.188,792.707-1064.764,783.987-1056.688Z" transform="translate(-783.987 1082.487)" fill="#c4b3ff" opacity="0.5"/>
        </g>
        <g id="Group_55922" data-name="Group 55922" transform="translate(31.648 104.295)" opacity="0.45">
          <path id="Path_101529" data-name="Path 101529" d="M711.865-1066.559s-3.94-14.05-12.606-21.448a1.619,1.619,0,0,0-2.639,1.52l.012.075C697.125-1083.873,707.016-1074.38,711.865-1066.559Z" transform="translate(-687.167 1088.397)" fill="#c4b3ff" opacity="0.5"/>
          <path id="Path_101530" data-name="Path 101530" d="M718.268-1064.114s-10.1-16.755-23.814-22.724a1.721,1.721,0,0,0-2.235.8,2.726,2.726,0,0,0,.269,2.436C693.974-1080.614,709.548-1072.189,718.268-1064.114Z" transform="translate(-692.042 1089.912)" fill="#c4b3ff" opacity="0.5"/>
        </g>
        <path id="Rectangle_7770" data-name="Rectangle 7770" d="M3.528,0h71.8a3.529,3.529,0,0,1,3.529,3.529V133.984a3.529,3.529,0,0,1-3.529,3.529H3.529A3.529,3.529,0,0,1,0,133.985V3.528A3.528,3.528,0,0,1,3.528,0Z" transform="translate(95.364 45.922)" fill="#f1edff"/>
        <path id="Path_101531" data-name="Path 101531" d="M794.819-977.656l-64.244-.023a8.239,8.239,0,0,1-8.225-8.229l.043-122.9a8.235,8.235,0,0,1,8.229-8.223l64.244.021a8.235,8.235,0,0,1,8.223,8.231l-.041,122.893A8.239,8.239,0,0,1,794.819-977.656Zm-64.2-137.538a6.4,6.4,0,0,0-6.394,6.39l-.043,122.9a6.4,6.4,0,0,0,6.39,6.394l64.244.023a6.4,6.4,0,0,0,6.394-6.39l.041-122.9a6.4,6.4,0,0,0-6.39-6.394Z" transform="translate(-627.926 1162.021)" fill="#12263f"/>
        <g id="Group_55923" data-name="Group 55923" transform="translate(84.186 16.258)">
          <path id="Path_101532" data-name="Path 101532" d="M740.6-1121.449a18.371,18.371,0,0,0-10.738-1.015s6.924-.474,11.03,3.921c0,0,2.869-4.4,7.616-5.412C748.5-1123.955,744.967-1124.376,740.6-1121.449Z" transform="translate(-704.067 1138.318)" fill="#c4b3ff"/>
          <path id="Path_101533" data-name="Path 101533" d="M732.962-1122.787a14.21,14.21,0,0,0-8.3-.835s5.356-.333,8.511,3.084a10.551,10.551,0,0,1,5.916-4.151A9.877,9.877,0,0,0,732.962-1122.787Z" transform="translate(-709.635 1137.535)" fill="#c4b3ff"/>
          <path id="Path_101534" data-name="Path 101534" d="M726.964-1123.537a12.945,12.945,0,0,0-7.581-.437s4.859-.512,7.861,2.475a9.6,9.6,0,0,1,5.22-4A8.992,8.992,0,0,0,726.964-1123.537Z" transform="translate(-715.29 1136.678)" fill="#c4b3ff"/>
          <path id="Path_101535" data-name="Path 101535" d="M722.548-1125.317a8.773,8.773,0,0,0-5.141.182s3.246-.651,5.458,1.174a6.505,6.505,0,0,1,3.266-3.03A6.1,6.1,0,0,0,722.548-1125.317Z" transform="translate(-717.407 1135.088)" fill="#c4b3ff"/>
          <path id="Path_101536" data-name="Path 101536" d="M733.84-1129.417a8.771,8.771,0,0,0-5.143-.087s3.275-.481,5.39,1.458a6.5,6.5,0,0,1,3.422-2.854A6.085,6.085,0,0,0,733.84-1129.417Z" transform="translate(-705.312 1130.9)" fill="#c4b3ff"/>
          <path id="Path_101537" data-name="Path 101537" d="M740.528-1125.473a12.757,12.757,0,0,0-7.444-.847s4.816-.236,7.608,2.871a9.477,9.477,0,0,1,5.363-3.658A8.854,8.854,0,0,0,740.528-1125.473Z" transform="translate(-700.612 1134.939)" fill="#c4b3ff"/>
          <path id="Path_101538" data-name="Path 101538" d="M738.081-1127.881a11.789,11.789,0,0,0-6.908-.522s4.441-.387,7.13,2.386a8.762,8.762,0,0,1,4.828-3.567A8.212,8.212,0,0,0,738.081-1127.881Z" transform="translate(-702.659 1132.302)" fill="#c4b3ff"/>
        </g>
        <g id="Group_55924" data-name="Group 55924" transform="translate(203.997 57.001)">
          <path id="Path_101539" data-name="Path 101539" d="M775.25-1101.472c0,5.39,9.074,14,9.074,14s9.075-8.613,9.075-14-4.064-9.758-9.075-9.758S775.25-1106.86,775.25-1101.472Zm3.726-.572a5.357,5.357,0,0,1,5.348-5.346,5.346,5.346,0,0,1,5.346,5.346,5.337,5.337,0,0,1-5.346,5.346A5.347,5.347,0,0,1,778.976-1102.044Z" transform="translate(-775.25 1111.23)" fill="#5038a1"/>
        </g>
        <g id="Group_55925" data-name="Group 55925" transform="translate(173.01 23.088)">
          <path id="Path_101540" data-name="Path 101540" d="M760.29-1118.23c0,5.176,8.716,13.451,8.716,13.451s8.716-8.275,8.716-13.451-3.9-9.373-8.716-9.373S760.29-1123.4,760.29-1118.23Zm3.581-.549a5.143,5.143,0,0,1,5.135-5.135,5.136,5.136,0,0,1,5.137,5.135,5.129,5.129,0,0,1-5.137,5.137A5.137,5.137,0,0,1,763.871-1118.779Z" transform="translate(-760.29 1127.603)" fill="#5038a1"/>
        </g>
        <g id="Group_55927" data-name="Group 55927" transform="translate(201.076 133.942)">
          <path id="Rectangle_7771" data-name="Rectangle 7771" d="M0,0H30.654a0,0,0,0,1,0,0V2.183a2.038,2.038,0,0,1-2.038,2.038H2.038A2.038,2.038,0,0,1,0,2.183V0A0,0,0,0,1,0,0Z" transform="translate(0 42.651)" fill="#5038a1"/>
          <path id="Path_101541" data-name="Path 101541" d="M804.493-1067.8v34.235a5.475,5.475,0,0,1-.133,1.2h-4.016a3.122,3.122,0,0,0-1.694.5,3.107,3.107,0,0,0-.789.719,3.133,3.133,0,0,0-.667,1.939v1.069h-15.73v-1.069a3.15,3.15,0,0,0-1.417-2.633,3.158,3.158,0,0,0-.791-.377,3.145,3.145,0,0,0-.943-.143h-4.342a5.482,5.482,0,0,1-.132-1.2V-1067.8a5.42,5.42,0,0,1,5.417-5.423h19.82A5.42,5.42,0,0,1,804.493-1067.8Z" transform="translate(-773.84 1075.012)" fill="#ffb74d"/>
          <g id="Group_55926" data-name="Group 55926" transform="translate(8.741)">
            <path id="Path_101542" data-name="Path 101542" d="M790.417-1072.311c-7.1-2.8-12.053-.043-12.1-.016l-.257-.446a11.31,11.31,0,0,1,3.507-1.11,16.971,16.971,0,0,1,9.039,1.094Z" transform="translate(-778.06 1074.084)" fill="#5038a1"/>
          </g>
          <rect id="Rectangle_7772" data-name="Rectangle 7772" width="2.076" height="2.828" transform="translate(2.922 45.287)" fill="#5038a1"/>
          <path id="Path_101543" data-name="Path 101543" d="M775.039-1049.883a1.477,1.477,0,0,1,1.477-1.479,1.478,1.478,0,0,1,1.477,1.479,1.477,1.477,0,0,1-1.477,1.477A1.476,1.476,0,0,1,775.039-1049.883Z" transform="translate(-772.555 1098.427)" fill="#36256b"/>
          <path id="Path_101544" data-name="Path 101544" d="M775.319-1050.183a.9.9,0,0,1,.9-.9.9.9,0,0,1,.9.9.9.9,0,0,1-.9.9A.9.9,0,0,1,775.319-1050.183Z" transform="translate(-772.255 1098.727)" fill="#5038a1"/>
          <rect id="Rectangle_7773" data-name="Rectangle 7773" width="2.076" height="2.828" transform="translate(24.275 45.287)" fill="#5038a1"/>
          <path id="Path_101545" data-name="Path 101545" d="M785.348-1049.883a1.477,1.477,0,0,1,1.477-1.479,1.477,1.477,0,0,1,1.477,1.479,1.476,1.476,0,0,1-1.477,1.477A1.476,1.476,0,0,1,785.348-1049.883Z" transform="translate(-761.511 1098.427)" fill="#36256b"/>
          <path id="Path_101546" data-name="Path 101546" d="M785.628-1050.183a.9.9,0,0,1,.9-.9.9.9,0,0,1,.9.9.9.9,0,0,1-.9.9A.9.9,0,0,1,785.628-1050.183Z" transform="translate(-761.211 1098.727)" fill="#5038a1"/>
          <path id="Path_101547" data-name="Path 101547" d="M777.246-1073.219v41.379a3.158,3.158,0,0,0-.791-.377v-41Z" transform="translate(-771.038 1075.012)" fill="#ffb74d" style="mix-blend-mode: multiply;isolation: isolate"/>
          <rect id="Rectangle_7774" data-name="Rectangle 7774" width="0.79" height="45.079" transform="translate(11.74 1.792)" fill="#ffb74d" style="mix-blend-mode: multiply;isolation: isolate"/>
          <rect id="Rectangle_7775" data-name="Rectangle 7775" width="0.79" height="45.079" transform="translate(17.639 1.792)" fill="#ffb74d" style="mix-blend-mode: multiply;isolation: isolate"/>
          <path id="Path_101548" data-name="Path 101548" d="M786.226-1073.219v41.354a3.107,3.107,0,0,0-.789.719v-42.073Z" transform="translate(-761.416 1075.012)" fill="#ffb74d" style="mix-blend-mode: multiply;isolation: isolate"/>
        </g>
        <g id="Group_55929" data-name="Group 55929" transform="translate(180.818 92.085)">
          <path id="Path_101549" data-name="Path 101549" d="M765.7-1080.708c0-.06.864-1.848.588-1.984s-.768-.116-.824.2A10.855,10.855,0,0,0,765.7-1080.708Z" transform="translate(-762.563 1106.633)" fill="#ffae73"/>
          <path id="Path_101550" data-name="Path 101550" d="M767.522-1078.855c0-.176-.2-2.852-.655-3.385s-1.371-1.29-1.661-1.268a2.853,2.853,0,0,0-1.083,2.684,9.438,9.438,0,0,0,1.779,2.718Z" transform="translate(-764.059 1105.846)" fill="#ffae73"/>
          <g id="Group_55928" data-name="Group 55928" transform="translate(0.24 18.416)">
            <path id="Path_101551" data-name="Path 101551" d="M768.808-1080.069l-2.628.789a.167.167,0,0,1-.205-.112l-1.5-5.01a.164.164,0,0,1,.11-.205l2.629-.787a.164.164,0,0,1,.205.11l1.5,5.01A.163.163,0,0,1,768.808-1080.069Z" transform="translate(-763.864 1085.401)" fill="#fc9f38"/>
            <rect id="Rectangle_7776" data-name="Rectangle 7776" width="3.073" height="5.561" rx="0.141" transform="translate(0 1.01) rotate(-16.686)" fill="#e65f00"/>
          </g>
          <path id="Path_101552" data-name="Path 101552" d="M764.482-1082.589s1.094-1.684,1.361-1.589c.381.133-.992,2.27-.992,2.27s1.019-1.6,1.177-1.477c.362.273-.214,1.276-.785,2.046,0,0,1.023-.938,1.056-.771.116.593-1.125,2.026-1.125,2.026l-.692-1.584Z" transform="translate(-763.607 1105.124)" fill="#ffae73"/>
          <path id="Path_101553" data-name="Path 101553" d="M764.085-1080.655c.054-.205.321-4.228.435-3.846s.387,2.492.387,2.492Z" transform="translate(-764.032 1104.753)" fill="#ffae73"/>
          <path id="Path_101554" data-name="Path 101554" d="M780.683-1080.2a29.769,29.769,0,0,1-1.375,7.9c-1,2.786-2.707,5.046-5.642,4.211-.3-.085-.59-.176-.872-.276l0,0a13.423,13.423,0,0,1-7.894-6.831,3.075,3.075,0,0,1,1.732-1c1.2.064,6.479,2.305,6.815,2.374,1.22.247,2.208-6.462,3-8.787s4.039-3.364,4.039-3.364Z" transform="translate(-763.164 1103.196)" fill="#fff"/>
          <path id="Path_101555" data-name="Path 101555" d="M775.338-1080.9l-.116,3.15c-1,2.786-2.707,5.046-5.642,4.211-.3-.085-.59-.176-.872-.276.093.012,1.889.255,2.641-.5.773-.772.694-3.337,2.117-5.046S775.338-1080.9,775.338-1080.9Z" transform="translate(-759.079 1108.638)" fill="#e6e6e6"/>
          <path id="Path_101556" data-name="Path 101556" d="M774.738-1052.755s1.469,1.338,1.181,2.291-1.609,1.587-1.79,2.749-.895,1.8-1.539,1.8h-3.072s-.474-.818.671-1.065,1.578-1.614,1.506-2.883a22.151,22.151,0,0,1,.108-2.96l2.434-.565Z" transform="translate(-758.315 1138.11)" fill="#36256b"/>
          <path id="Path_101557" data-name="Path 101557" d="M764.181-1046.3h9.045a.652.652,0,0,0,.655-.636,4.607,4.607,0,0,0-.323-1.949c-.483-1.071-.787-1.259,1.251-4.372-.613.63-2.266.342-3.66.153a44.474,44.474,0,0,1-3.331,4.688C767.187-1047.968,764.376-1048.127,764.181-1046.3Z" transform="translate(-763.929 1138.251)" fill="#36256b"/>
          <path id="Path_101558" data-name="Path 101558" d="M775.377-1073.611s-6.558,12.376-8.339,19.188c-1.384,5.29,7.059,25.753,7.059,25.753a6.759,6.759,0,0,0,1.814-.487,2.945,2.945,0,0,0,1.526-1.6s-.5-14.632-2.21-21.71c-.383-1.589,1.858-6.715,5.642-9.522s5.359-11.84,3.107-12.448S775.377-1073.611,775.377-1073.611Z" transform="translate(-761.032 1115.401)" fill="#36256b"/>
          <path id="Path_101559" data-name="Path 101559" d="M781.141-1075.813s-6.9,25.274-8.985,30.948-5.408,17.72-5.408,17.72a8.719,8.719,0,0,0,4.781.52s10.081-14.769,10.52-21.3c.2-3.018,10.344-14.978,9.213-22.778Z" transform="translate(-761.18 1114.089)" fill="#5038a1"/>
          <path id="Path_101560" data-name="Path 101560" d="M787.613-1056.595a12.006,12.006,0,0,1-4.06.957h0c-2.968.25-7.415-.187-12.832-3.2,0,0-1.512-1.245.344-6.541,1.406-4.008,2.09-12.459,3.8-20.16,0,0,5.564-1.744,10.027-.236,3.409,1.154,3.07,6.386,3.7,11.835.06.51.126,1.019.205,1.529C789.73-1066.448,787.613-1056.595,787.613-1056.595Z" transform="translate(-757.549 1102.757)" fill="#fff"/>
          <path id="Path_101561" data-name="Path 101561" d="M771.473-1089.463s3.8-6.181,6.738-3c0,0,1.922.491,3.024,3.484,1.123,3.053-.628,5.75-1.8,5.313-.75-.28-1.1,1.013-1.1,1.013Z" transform="translate(-756.117 1095.277)" fill="#1e3865"/>
          <path id="Path_101562" data-name="Path 101562" d="M774.445-1091.965s.261-2.558,4-2.31c0,0-1.769.031-2.148.769a2.877,2.877,0,0,1,2.225-.425c.938.4,1.334,2.158,1.284,2.718s-.771,2.3-1.4,2.395a2.932,2.932,0,0,1-1.456-.354Z" transform="translate(-752.933 1094.292)" fill="#1e3865"/>
          <path id="Path_101563" data-name="Path 101563" d="M778.091-1083.633a17.276,17.276,0,0,1-1.295-4.907l-.224.079-3.774,1.33s.265,1.209.433,2.361c.068.47.118,1.311.151,2.044.033.75.771.82,1.52.787C776.9-1082.032,778-1082.775,778.091-1083.633Z" transform="translate(-754.696 1100.455)" fill="#ffae73"/>
          <path id="Path_101564" data-name="Path 101564" d="M772.8-1087.172s.265,1.209.433,2.361c2.164-.375,3.028-2.525,3.341-3.691Z" transform="translate(-754.696 1100.495)" fill="#f48f4e"/>
          <path id="Path_101565" data-name="Path 101565" d="M778.617-1084.75a11.552,11.552,0,0,0,.932-3.544c.037-1.127-1.11-5.121-5.118-3.944a5.637,5.637,0,0,0-2.181,1.206c-.8.729-1.9,2.208.048,5.557l.547,1.147Z" transform="translate(-756.401 1096.263)" fill="#1e3865"/>
          <path id="Path_101566" data-name="Path 101566" d="M773.87-1082.6s5.156-.656,4.7-3.861-.1-5.448-3.411-5.164-3.776,1.6-3.884,2.7S772.518-1082.516,773.87-1082.6Z" transform="translate(-756.337 1097.121)" fill="#ffae73"/>
          <path id="Path_101567" data-name="Path 101567" d="M772.008-1091.069s1.951,3.557,4.192,3.8,3.095-.468,3.095-.468a6.188,6.188,0,0,1-2.523-3.329S772.812-1093.011,772.008-1091.069Z" transform="translate(-755.544 1096.821)" fill="#1e3865"/>
          <path id="Path_101568" data-name="Path 101568" d="M773.425-1091.138a4.58,4.58,0,0,0-1.071,1.844c-.139.853-.01,2.55-.51,2.562,0,0-1.429-2.4-.445-4.018C772.443-1092.466,773.425-1091.138,773.425-1091.138Z" transform="translate(-756.567 1097.146)" fill="#1e3865"/>
          <path id="Path_101569" data-name="Path 101569" d="M772.112-1090.753s1.572,3.79,4.48,4.658c0,0-3.076-2.026-3.683-4.59S772.112-1090.753,772.112-1090.753Z" transform="translate(-755.432 1096.916)" fill="#1e3865"/>
          <path id="Path_101570" data-name="Path 101570" d="M781.129-1062.815a12.006,12.006,0,0,1-4.06.957h0a4.547,4.547,0,0,1,.249-5.665c2.376-2.993-.186-8.517,1.645-11.523,1.274-2.09,2.515-1.6,3.151-1.116.06.51.126,1.019.205,1.529C783.246-1072.668,781.129-1062.815,781.129-1062.815Z" transform="translate(-751.065 1108.977)" fill="#e6e6e6"/>
          <path id="Path_101571" data-name="Path 101571" d="M783.9-1074.149s.317.736.758.785a9.264,9.264,0,0,1,2.309.812c.584.346.545,1.9-.039,2.044s-.876-1.156-2.7-1.5c-.619-.12-1.52.309-1.887-1.174Z" transform="translate(-744.479 1115.872)" fill="#ffae73"/>
          <path id="Path_101572" data-name="Path 101572" d="M777.828-1086.073c5.309,1.953,5.505,11.359,7.871,15.5,2.442,4.273,4.818,9.9,4.818,9.9s-.042.169-.953.428a3.77,3.77,0,0,1-1.309.106,83.543,83.543,0,0,1-6.38-6.326c-1.363-1.792-4.576-10.1-4.576-10.1S775.72-1086.848,777.828-1086.073Z" transform="translate(-750.483 1103.052)" fill="#fff"/>
          <path id="Path_101573" data-name="Path 101573" d="M782.4-1073.507a2.008,2.008,0,0,0,.911,1.144c.783.511,1.411,1.023,1.485.706s-.435-.656-.557-1.241S782.4-1073.507,782.4-1073.507Z" transform="translate(-744.411 1116.56)" fill="#ffae73"/>
        </g>
        <rect id="Rectangle_7777" data-name="Rectangle 7777" width="77.047" height="55.775" transform="translate(96.26 103.816)" fill="#ffb74d"/>
        <path id="Path_101574" data-name="Path 101574" d="M771-1051.165v7.525c0,.091,0,.184,0,.276H732.468c0-.091-.006-.184-.006-.276v-7.525c0-3.432,2.216-6.241,4.923-6.241H766.08C768.787-1057.406,771-1054.6,771-1051.165Z" transform="translate(-617.093 1225.894)" fill="#ffb74d"/>
        <g id="Group_55932" data-name="Group 55932" transform="translate(130.059 170.947)">
          <g id="Group_55930" data-name="Group 55930" transform="translate(2.061 2.38)">
            <path id="Path_101575" data-name="Path 101575" d="M743.029-1050.334l-2.48-2.22.7-.779,1.6,1.434,2.217-3.171.856.6Z" transform="translate(-740.549 1055.07)" fill="#ffe1c6"/>
          </g>
          <g id="Group_55931" data-name="Group 55931">
            <path id="Path_101576" data-name="Path 101576" d="M744.3-1046.724a4.752,4.752,0,0,1-4.747-4.747,4.754,4.754,0,0,1,4.747-4.748,4.754,4.754,0,0,1,4.747,4.748A4.752,4.752,0,0,1,744.3-1046.724Zm0-9.25a4.509,4.509,0,0,0-4.5,4.5,4.507,4.507,0,0,0,4.5,4.5,4.507,4.507,0,0,0,4.5-4.5A4.509,4.509,0,0,0,744.3-1055.974Z" transform="translate(-739.554 1056.219)" fill="#ffe1c6"/>
          </g>
        </g>
        <path id="Path_101577" data-name="Path 101577" d="M726.567-1102.654s1.785-3.973,6.05-3.532c0,0,6.2-6.62,12.8-.882,0,0,7.022-1.421,12.221,1.232a11.82,11.82,0,0,1,4.611,3.623Z" transform="translate(-623.408 1170.184)" fill="#e8f2fa"/>
        <path id="Path_101578" data-name="Path 101578" d="M739.232-1109.7l.066,0a1.1,1.1,0,0,0,.731-.286c.9-.818,3.631-2.86,6.572-.516a1.071,1.071,0,0,0,.82.218,11.169,11.169,0,0,1,6.431.81c.064.033.126.069.186.1a1.075,1.075,0,0,1-.549,2.009l-14.228-.184A1.076,1.076,0,0,1,739.232-1109.7Z" transform="translate(-610.943 1167.841)" fill="#e8f2fa"/>
        <g id="Group_55933" data-name="Group 55933" transform="translate(143.751 109.54)">
          <path id="Path_101579" data-name="Path 101579" d="M766.243-1044H750.949a4.79,4.79,0,0,1-4.785-4.785v-32.3a4.789,4.789,0,0,1,4.785-4.785h15.295a4.789,4.789,0,0,1,4.783,4.785v32.3A4.789,4.789,0,0,1,766.243-1044Zm-15.295-41.379a4.3,4.3,0,0,0-4.3,4.3v32.3a4.3,4.3,0,0,0,4.3,4.3h15.295a4.3,4.3,0,0,0,4.3-4.3v-32.3a4.3,4.3,0,0,0-4.3-4.3Z" transform="translate(-746.164 1085.865)" fill="#ffe1c6"/>
        </g>
        <rect id="Rectangle_7778" data-name="Rectangle 7778" width="29.136" height="20.809" rx="1.086" transform="translate(111.199 109.785)" fill="#ffe1c6"/>
        <g id="Group_55934" data-name="Group 55934" transform="translate(110.956 133.783)">
          <path id="Path_101580" data-name="Path 101580" d="M756.517-1056.536H733.769a3.442,3.442,0,0,1-3.438-3.438v-10.748a3.441,3.441,0,0,1,3.438-3.438h22.747a3.442,3.442,0,0,1,3.438,3.438v10.748A3.443,3.443,0,0,1,756.517-1056.536Zm-22.747-17.138a2.954,2.954,0,0,0-2.952,2.952v10.748a2.954,2.954,0,0,0,2.952,2.95h22.747a2.953,2.953,0,0,0,2.949-2.95v-10.748a2.954,2.954,0,0,0-2.949-2.952Z" transform="translate(-730.331 1074.161)" fill="#ffe1c6"/>
        </g>
        <g id="Group_55935" data-name="Group 55935" transform="translate(149.824 114.528)">
          <path id="Path_101581" data-name="Path 101581" d="M749.1-1076.62c0,3.776,6.359,9.812,6.359,9.812s6.357-6.036,6.357-9.812a6.61,6.61,0,0,0-6.357-6.837A6.611,6.611,0,0,0,749.1-1076.62Zm2.612-.4a3.753,3.753,0,0,1,3.747-3.747,3.746,3.746,0,0,1,3.745,3.747,3.739,3.739,0,0,1-3.745,3.745A3.746,3.746,0,0,1,751.708-1077.019Z" transform="translate(-749.096 1083.457)" fill="#ffe1c6"/>
        </g>
        <path id="Path_101582" data-name="Path 101582" d="M749.492-1077.017l-.3,0-.031,0-2.307.63a.122.122,0,0,1-.085-.008l-3.244-1.249c-.085-.039.418-.284.493-.337.81-.59,3.382-2.03,4.35-2.668a.212.212,0,0,0-.068-.384.474.474,0,0,0-.263.017l-4.725,1.715-.634-.4a.2.2,0,0,0-.276.062l-.311.491a.2.2,0,0,0,.058.271l-.609.222a.131.131,0,0,1-.089,0l-2.908-1.241a1.223,1.223,0,0,0-.814-.05c-.108.033-.226.067-.335.1a.415.415,0,0,0-.273.53l.039.112a1.29,1.29,0,0,0,.766.789l2.357.887a.127.127,0,0,1,.079.112l.021,1.019-.135-.085a.2.2,0,0,0-.273.062l-.311.491a.2.2,0,0,0,.06.275l.683.431.033,1.591a.652.652,0,0,0,.116.358c.093.135.193.284.226.267a32.243,32.243,0,0,0,1.545-3.461c.021-.054.483.118.539.139l3.215.982a.124.124,0,0,1,.077.1l.143.937a.462.462,0,0,0,.145.273l0,0a.123.123,0,0,0,.184-.023l.746-1.145a.129.129,0,0,1,.1-.056l.344-.01a.122.122,0,0,0,.081-.209l-.083-.081,1.744-1.239A.122.122,0,0,0,749.492-1077.017Z" transform="translate(-612.125 1200.578)" fill="#ffb74d"/>
        <g id="Group_55938" data-name="Group 55938" transform="translate(127.98 137.839)">
          <g id="Group_55936" data-name="Group 55936">
            <path id="Path_101583" data-name="Path 101583" d="M743.306-1062.691a4.761,4.761,0,0,1-4.756-4.756,4.761,4.761,0,0,1,4.756-4.756,4.761,4.761,0,0,1,4.756,4.756A4.761,4.761,0,0,1,743.306-1062.691Zm0-8.99a4.239,4.239,0,0,0-4.236,4.234,4.24,4.24,0,0,0,4.236,4.236,4.239,4.239,0,0,0,4.234-4.236A4.239,4.239,0,0,0,743.306-1071.681Z" transform="translate(-738.55 1072.203)" fill="#ffe1c6"/>
          </g>
          <g id="Group_55937" data-name="Group 55937" transform="translate(4.464 2.415)">
            <rect id="Rectangle_7779" data-name="Rectangle 7779" width="0.396" height="2.98" rx="0.095" transform="translate(0.063)" fill="#ffe1c6"/>
            <path id="Path_101584" data-name="Path 101584" d="M740.82-1068.186l0-.006a.1.1,0,0,1,0-.135l2.643-2.643a.1.1,0,0,1,.135,0l.006,0a.1.1,0,0,1,0,.135l-2.645,2.645A.1.1,0,0,1,740.82-1068.186Z" transform="translate(-740.617 1071.08)" fill="#ffe1c6"/>
            <path id="Path_101585" data-name="Path 101585" d="M740.705-1069.551a.26.26,0,0,1,.261-.261.259.259,0,0,1,.259.261.259.259,0,0,1-.259.259A.259.259,0,0,1,740.705-1069.551Z" transform="translate(-740.705 1072.349)" fill="#ffe1c6"/>
          </g>
        </g>
        <g id="Group_55939" data-name="Group 55939" transform="translate(114.335 136.899)">
          <rect id="Rectangle_7780" data-name="Rectangle 7780" width="10.456" height="1.085" fill="#ffe1c6"/>
          <rect id="Rectangle_7781" data-name="Rectangle 7781" width="10.456" height="1.092" transform="translate(0 2.475)" fill="#ffe1c6"/>
          <rect id="Rectangle_7782" data-name="Rectangle 7782" width="6.269" height="1.092" transform="translate(0 4.958)" fill="#ffe1c6"/>
        </g>
        <g id="Group_55940" data-name="Group 55940" transform="translate(150.954 136.945)">
          <rect id="Rectangle_7783" data-name="Rectangle 7783" width="10.456" height="1.085" fill="#ffe1c6"/>
          <rect id="Rectangle_7784" data-name="Rectangle 7784" width="10.456" height="1.092" transform="translate(0 2.475)" fill="#ffe1c6"/>
          <rect id="Rectangle_7785" data-name="Rectangle 7785" width="6.269" height="1.092" transform="translate(0 4.958)" fill="#ffe1c6"/>
        </g>
        <g id="Group_55941" data-name="Group 55941" transform="translate(114.983 114.571)">
          <rect id="Rectangle_7786" data-name="Rectangle 7786" width="10.456" height="1.085" fill="#ffb74d"/>
          <rect id="Rectangle_7787" data-name="Rectangle 7787" width="10.456" height="1.092" transform="translate(0 2.475)" fill="#ffb74d"/>
          <rect id="Rectangle_7788" data-name="Rectangle 7788" width="6.269" height="1.092" transform="translate(0 4.958)" fill="#ffb74d"/>
        </g>
        <g id="Group_55942" data-name="Group 55942" transform="translate(182.542 8.074)">
          <path id="Path_101586" data-name="Path 101586" d="M795.421-1088.112a.245.245,0,0,1-.244-.221s-.039-.431-.12-1.185a.244.244,0,0,1,.218-.269.244.244,0,0,1,.269.218c.081.758.12,1.189.12,1.193a.245.245,0,0,1-.222.265Zm-.253-2.367a.241.241,0,0,1-.24-.218c-.042-.356-.087-.748-.139-1.174a.244.244,0,0,1,.213-.271.247.247,0,0,1,.271.213c.052.427.1.82.139,1.178a.244.244,0,0,1-.215.269Zm-.282-2.351a.246.246,0,0,1-.242-.213c-.046-.373-.1-.764-.151-1.17a.247.247,0,0,1,.211-.275.243.243,0,0,1,.273.211q.081.612.151,1.174a.243.243,0,0,1-.211.272Zm-.309-2.345a.243.243,0,0,1-.242-.209c-.052-.379-.106-.768-.164-1.17a.245.245,0,0,1,.207-.275.243.243,0,0,1,.276.207c.058.4.112.792.166,1.173a.244.244,0,0,1-.209.273Zm-.335-2.338a.243.243,0,0,1-.24-.208c-.058-.381-.116-.77-.178-1.168a.244.244,0,0,1,.205-.278.245.245,0,0,1,.278.2c.062.4.12.787.178,1.17a.246.246,0,0,1-.205.277Zm-.36-2.335a.243.243,0,0,1-.24-.205c-.062-.383-.124-.77-.19-1.164a.245.245,0,0,1,.2-.281.245.245,0,0,1,.28.2q.1.59.191,1.168a.243.243,0,0,1-.2.28Zm-.387-2.33a.244.244,0,0,1-.24-.2c-.066-.383-.135-.771-.205-1.16a.246.246,0,0,1,.2-.284.242.242,0,0,1,.282.2c.07.391.139.781.205,1.164a.246.246,0,0,1-.2.284Zm-.416-2.324a.246.246,0,0,1-.24-.2c-.07-.383-.143-.771-.218-1.16a.244.244,0,0,1,.193-.286.245.245,0,0,1,.286.195c.075.389.149.777.22,1.162a.243.243,0,0,1-.195.284Zm-.447-2.318a.243.243,0,0,1-.238-.2q-.115-.575-.236-1.156a.245.245,0,0,1,.191-.288.244.244,0,0,1,.288.188c.081.389.159.775.236,1.16a.242.242,0,0,1-.191.286Zm-.479-2.312a.244.244,0,0,1-.238-.193q-.124-.575-.253-1.15a.244.244,0,0,1,.184-.29.242.242,0,0,1,.292.184q.127.578.253,1.152a.244.244,0,0,1-.186.29A.236.236,0,0,1,792.153-1109.131Zm-.516-2.3a.245.245,0,0,1-.238-.188q-.134-.575-.274-1.15a.243.243,0,0,1,.18-.294.242.242,0,0,1,.294.178q.14.578.276,1.154a.247.247,0,0,1-.182.294A.273.273,0,0,1,791.637-1111.432Zm-.559-2.3a.243.243,0,0,1-.236-.184c-.1-.381-.195-.76-.3-1.139a.245.245,0,0,1,.174-.3.242.242,0,0,1,.3.172q.152.572.3,1.146a.244.244,0,0,1-.176.3A.2.2,0,0,1,791.078-1113.729Zm-.6-2.282a.243.243,0,0,1-.234-.178c-.106-.379-.213-.758-.321-1.133a.244.244,0,0,1,.166-.3.244.244,0,0,1,.3.166q.165.568.323,1.139a.244.244,0,0,1-.17.3A.246.246,0,0,1,790.473-1116.012Zm-.657-2.266a.244.244,0,0,1-.234-.174c-.116-.377-.234-.754-.352-1.123a.246.246,0,0,1,.159-.307.243.243,0,0,1,.307.157c.118.371.238.752.352,1.131a.244.244,0,0,1-.162.3A.28.28,0,0,1,789.816-1118.278Zm-.723-2.248a.242.242,0,0,1-.23-.166c-.126-.375-.257-.748-.387-1.112a.243.243,0,0,1,.147-.311.245.245,0,0,1,.313.147c.13.367.263.741.389,1.119a.241.241,0,0,1-.153.308A.2.2,0,0,1,789.093-1120.526Zm-23.959-.787a.233.233,0,0,1-.089-.017.242.242,0,0,1-.137-.315c.083-.215.168-.429.253-.636a.241.241,0,0,1,.317-.135.241.241,0,0,1,.135.317c-.083.207-.168.416-.251.629A.243.243,0,0,1,765.135-1121.312Zm23.164-1.436a.241.241,0,0,1-.228-.157c-.143-.371-.288-.74-.431-1.094a.244.244,0,0,1,.135-.317.241.241,0,0,1,.317.132c.147.359.292.729.435,1.1a.243.243,0,0,1-.141.315A.257.257,0,0,1,788.3-1122.748Zm-22.457-.284a.233.233,0,0,1-.1-.021.245.245,0,0,1-.126-.321c.157-.369.319-.733.479-1.081a.247.247,0,0,1,.325-.12.244.244,0,0,1,.12.323c-.159.346-.319.706-.476,1.071A.242.242,0,0,1,765.841-1123.032Zm21.567-1.9a.248.248,0,0,1-.224-.147c-.159-.367-.323-.727-.483-1.069a.244.244,0,0,1,.116-.325.246.246,0,0,1,.325.116c.164.348.327.71.489,1.083a.244.244,0,0,1-.126.321A.269.269,0,0,1,787.408-1124.933Zm-20.585-.24a.252.252,0,0,1-.108-.025.247.247,0,0,1-.112-.327c.178-.363.36-.717.541-1.056a.244.244,0,0,1,.329-.1.247.247,0,0,1,.1.331c-.178.334-.356.684-.532,1.042A.242.242,0,0,1,766.823-1125.173Zm19.578-1.9a.245.245,0,0,1-.217-.132c-.18-.354-.367-.7-.553-1.032a.243.243,0,0,1,.093-.331.244.244,0,0,1,.333.093c.188.333.377.688.561,1.048a.243.243,0,0,1-.106.327A.242.242,0,0,1,786.4-1127.069Zm-18.472-.184a.263.263,0,0,1-.122-.033.245.245,0,0,1-.089-.333c.2-.35.408-.694.613-1.017a.247.247,0,0,1,.338-.077.244.244,0,0,1,.074.338c-.2.319-.4.654-.6,1A.249.249,0,0,1,767.929-1127.253Zm17.312-1.868a.246.246,0,0,1-.207-.116c-.211-.338-.429-.663-.644-.969a.243.243,0,0,1,.058-.34.245.245,0,0,1,.34.058c.222.313.443.646.661.992a.245.245,0,0,1-.077.338A.249.249,0,0,1,785.241-1129.121Zm-16.051-.12a.243.243,0,0,1-.141-.046.243.243,0,0,1-.058-.34c.234-.333.474-.655.713-.955a.246.246,0,0,1,.344-.039.246.246,0,0,1,.039.344c-.232.292-.468.6-.7.932A.249.249,0,0,1,769.19-1129.241Zm14.684-1.8a.244.244,0,0,1-.188-.089c-.253-.309-.514-.6-.771-.86a.245.245,0,0,1,0-.346.245.245,0,0,1,.346,0c.267.271.536.572.8.891a.246.246,0,0,1-.033.344A.243.243,0,0,1,783.874-1131.04Zm-13.215-.041a.248.248,0,0,1-.164-.064.245.245,0,0,1-.017-.346c.278-.3.561-.588.845-.849a.245.245,0,0,1,.346.015.243.243,0,0,1-.015.344c-.273.252-.549.528-.816.82A.24.24,0,0,1,770.659-1131.081Zm1.736-1.589a.246.246,0,0,1-.2-.1.245.245,0,0,1,.05-.342,10.14,10.14,0,0,1,1.007-.663.244.244,0,0,1,.333.091.243.243,0,0,1-.091.333,9.354,9.354,0,0,0-.957.63A.242.242,0,0,1,772.394-1132.669Zm9.826-.035a.251.251,0,0,1-.153-.054,7.6,7.6,0,0,0-.93-.648.246.246,0,0,1-.087-.336.246.246,0,0,1,.335-.085,8.2,8.2,0,0,1,.988.688.244.244,0,0,1,.037.344A.244.244,0,0,1,782.221-1132.7Zm-7.786-1.125a.244.244,0,0,1-.226-.153.243.243,0,0,1,.137-.317,7.8,7.8,0,0,1,1.16-.361.246.246,0,0,1,.292.184.244.244,0,0,1-.184.292,7.343,7.343,0,0,0-1.087.338A.233.233,0,0,1,774.435-1133.83Zm5.771-.045a.3.3,0,0,1-.083-.014,5.465,5.465,0,0,0-.549-.168q-.283-.071-.553-.124a.243.243,0,0,1-.193-.286.243.243,0,0,1,.286-.193c.188.037.381.081.576.128a5.649,5.649,0,0,1,.6.182.243.243,0,0,1,.147.313A.247.247,0,0,1,780.205-1133.875Zm-2.3-.462-.021,0a8.108,8.108,0,0,0-1.141-.006.243.243,0,0,1-.259-.228.244.244,0,0,1,.226-.261,8.818,8.818,0,0,1,1.212.008.246.246,0,0,1,.226.263A.245.245,0,0,1,777.9-1134.337Z" transform="translate(-764.892 1134.851)" fill="#5038a1"/>
        </g>
        <rect id="Rectangle_7789" data-name="Rectangle 7789" width="278.653" height="0.851" rx="0.164" transform="translate(0 183.937)" fill="#ffb74d"/>
        <path id="Path_101587" data-name="Path 101587" d="M723.269-1097.631s3.326-.23,4.052,2.378c0,0,2.562-5.218,7.972-4.787s6.409,3.61,6.409,3.61a7.822,7.822,0,0,1,5.675.356,4.514,4.514,0,0,1,2.407,4.022,6.678,6.678,0,0,1,7.1-2.129s-.947-4.791,4.76-5.887,8.128.8,8.128.8,6.46-4.161,12.179,1.054c0,0,4.192-.814,6.241,1.767a14.038,14.038,0,0,1,12.1-4.182v25.083H723.236Z" transform="translate(-626.976 1179.362)" fill="#d4e1ff"/>
        <path id="Path_101588" data-name="Path 101588" d="M723.269-1093.092a14.457,14.457,0,0,1,10.586,1.881s1.218-1.45,4.387-1.092a4.9,4.9,0,0,1,4.043,3.287s11.09-3.662,16.581,5.493H723.236Z" transform="translate(-626.976 1187.339)" fill="#e8f2fa"/>
        <path id="Path_101589" data-name="Path 101589" d="M743.733-1078.113a7.8,7.8,0,0,1,6.146-6.958,3.318,3.318,0,0,1-1.506-4.677,6.587,6.587,0,0,1,5.247-3.582s.389-6.036,10.926-4.994c2.96.294,6.092,2.065,6.581,5.158a4,4,0,0,1,3.511-1.754,3.675,3.675,0,0,1,3.7-3.4v20.21Z" transform="translate(-605.018 1181.93)" fill="#e8f2fa"/>
        <g id="Group_55945" data-name="Group 55945" transform="translate(63.551 46.106)">
          <path id="Path_101590" data-name="Path 101590" d="M775.515-1115.944l-5.319,18.428-.168-.021-18.174-2.208s8.418-1.75,9.292-2.761c.824-.951,9.565-12.244,12.121-13.451a.857.857,0,0,1,.4-.1Z" transform="translate(-659.868 1116.95)" fill="#5038a1"/>
          <path id="Path_101591" data-name="Path 101591" d="M770.028-1097.59l-18.174-2.208s8.418-1.75,9.292-2.761c.824-.951,9.565-12.244,12.121-13.451-2.264,3.287-7.511,11.187-7.287,13.484C766.192-1100.338,768.752-1098.418,770.028-1097.59Z" transform="translate(-659.868 1117.004)" fill="#36256b"/>
          <path id="Path_101592" data-name="Path 101592" d="M804.148-1098.073c-.619.213-2.475.8-5.019,1.537-7.314,2.127-20.324,5.543-26.066,5.12-5.149-.377-32.387-2.459-51.226-4.11,4.557-8.006,10.243-12.428,15.444-14.853,21.95,1.8,50.656,4.228,54.31,4.934,6.007,1.162,13.977,2.106,13.977,2.106s.054.242.105.63C805.844-1101.454,805.987-1098.705,804.148-1098.073Z" transform="translate(-692.025 1123.037)" fill="#f28018"/>
          <path id="Path_101593" data-name="Path 101593" d="M821.187-1100.273l0,.139a3.809,3.809,0,0,1-.926,2.755.7.7,0,0,1-.074.064,1.676,1.676,0,0,1-.155.116h0v0l-.085.054-.087.047h0a.921.921,0,0,1-.091.046c-.031.014-.062.029-.1.041s-.066.025-.1.037l-.031.01h0l-.031.01-.033.01v0l-.035.01v0l-.037.01-.037.012h0v0l-.04.013-.041.014h0l-.043.014-.046.015-.1.031h0l-.05.017h0l-.052.017-.039.012c-.137.043-.29.093-.458.145l-.1.029c-.439.139-.971.3-1.587.489-.064.019-.126.04-.193.058l-.329.1-.072.021-.1.033-.1.029-.106.033-.106.031-.108.031-.11.033-.11.031,0,0-.11.031-.081.025-.031.01-.114.031c-.191.058-.385.114-.584.17-.114.035-.23.069-.348.1l-.3.087-.232.066-.93.265-.191.054-.333.093-.3.085-.344.1c-3.8,1.056-8.409,2.239-12.683,3.1-.149.031-.3.06-.447.089l-.222.043c-.149.029-.3.058-.445.085q-.665.127-1.313.24l-.429.074-.214.035c-.141.023-.282.046-.422.07s-.28.043-.418.064l-.412.062c-.135.021-.273.042-.406.06s-.269.037-.4.054l-.4.052-.195.025c-.259.031-.516.06-.767.087l-.186.019-.369.035c-.242.021-.481.042-.713.056-.174.012-.346.023-.514.029-.112.008-.224.012-.333.014-.164.008-.325.012-.481.012-.209,0-.412,0-.609,0-.1,0-.195-.006-.29-.01-.048,0-.093,0-.141-.006-.093,0-.184-.01-.276-.017l-.1-.008h-.025l-.066-.006c-.083-.006-.172-.01-.267-.019l-.077-.006-.1-.008c-.05,0-.1-.006-.153-.01l-.083-.006-.085-.006c-.058,0-.116-.008-.176-.014s-.118-.008-.18-.012l-.1-.006-.24-.018-.114-.009-.249-.019c-.035,0-.07,0-.108-.008l-.321-.025-.965-.073-.126-.01c-.085,0-.17-.012-.259-.018-.128-.01-.263-.019-.4-.029-.056-.006-.112-.01-.166-.014-.128-.008-.259-.019-.389-.029-.048,0-.1-.009-.143-.01-.091-.008-.182-.014-.273-.021l-.3-.025-.162-.01-.149-.012-.244-.019-1.462-.112-.222-.017-.34-.027c-.265-.021-.536-.04-.81-.062l-.062,0-.721-.056-.035,0c-1.45-.112-3.014-.234-4.667-.363l-.251-.018c-.333-.027-.671-.052-1.013-.079l-.644-.052-.035,0-.744-.058c-.031,0-.06-.006-.093-.006l-1.328-.105-.344-.027-.106-.008-1.185-.093-.522-.042-.346-.027-.708-.056-1.065-.085c-.031,0-.064-.006-.1-.006-.147-.015-.294-.025-.441-.035l-.031,0c-.439-.033-.878-.068-1.321-.1l-.037,0-.137-.01-.783-.062-.594-.048c-.122-.008-.244-.019-.367-.029q-.771-.059-1.547-.122l-.012,0c-.858-.071-1.719-.139-2.587-.209-.118-.008-.236-.019-.354-.029h-.025l-1.141-.093c-.118-.009-.234-.019-.35-.029l-.984-.079c-.665-.056-1.332-.11-2-.164l-1.264-.1c-.263-.023-.528-.046-.791-.066-.63-.052-1.255-.1-1.883-.153l-.089-.009-1.177-.1c-.557-.048-1.114-.1-1.667-.141l-.665-.056c-.066,0-.135-.01-.2-.017l-1.334-.112-.195-.016c-.3-.027-.607-.052-.907-.077q-1.917-.165-3.757-.323l-.443-.037c-.089-.008-.178-.017-.267-.023-.12-.012-.238-.023-.358-.033-.238-.021-.476-.04-.71-.062-4.567-.4-8.644-.775-11.788-1.1-.321-.031-.632-.062-.932-.1-.748-.076-1.431-.151-2.047-.222-1.744-.2-2.931-.362-3.4-.48a35.236,35.236,0,0,1-9.391-4.083c-1.568-1.059-2.539-2.14-2.179-3.031a4.7,4.7,0,0,1,2.475-2.324c.886-.437,1.792-.74,2.386-1.083l.1-.058a2.174,2.174,0,0,0,.288-.213l.041-.041a15.005,15.005,0,0,1,1.162-.971A13.95,13.95,0,0,1,715.3-1109l.008-.006c2.276-1.332,6.083-2.742,11.883-2.324,0,0,11.351.9,25.51,2.057h0l4.308.354h0c.487.04.975.081,1.464.12q1.1.093,2.218.184h0c1.239.1,2.484.205,3.733.311l.752.062,1.5.124,3.008.255,1.5.125,5.3.451h.008c5.048.433,9.891.855,14.184,1.245h0l.677.062c2.521.23,4.841.445,6.885.644.98.1,1.9.187,2.74.273,3.061.311,5.2.562,6.029.723,2.165.418,4.582.81,6.79,1.137l.543.079.027,0c.273.042.543.079.808.118l.025,0,.9.126c.427.06.837.114,1.222.168l.491.066c1.906.253,3.175.4,3.175.4s.008.033.021.1l0,.016.01.056c.006.041.015.089.023.143.013.07.025.153.037.244l0,0,.008.07c.01.077.021.157.031.247l.019.191.01.11c0,.042.006.081.008.122l.012.182,0,.075c0,.043,0,.089.006.133v.068c0,.046,0,.091,0,.136Z" transform="translate(-707.445 1121.935)" fill="#dfd6ff"/>
          <path id="Path_101594" data-name="Path 101594" d="M792.087-1102.4l0,.139a3.809,3.809,0,0,1-.926,2.755.7.7,0,0,1-.074.064,1.676,1.676,0,0,1-.155.116h0v0l-.085.054-.087.047h0a.921.921,0,0,1-.091.046c-.031.014-.062.029-.1.041s-.066.025-.1.037l-.031.01h0l-.031.01-.033.01v0l-.035.01v0l-.037.01-.037.012h0v0l-.04.013-.041.014h0l-.043.014-.046.015-.1.031h0l-.05.017h0l-.052.017-.039.012c-.137.043-.29.093-.458.145l-.1.029c-.439.139-.971.3-1.587.489-.064.019-.126.04-.193.058l-.329.1-.072.021-.1.033-.1.029-.106.033-.106.031-.108.031-.11.033-.11.031,0,0-.11.031-.081.025-.031.01-.114.031c-.191.058-.385.114-.584.17-.114.035-.23.069-.348.1l-.3.087-.232.066-.93.265-.191.054-.333.093-.3.085-.344.1c-3.8,1.056-8.409,2.239-12.683,3.1-.149.031-.3.06-.447.089l-.222.043c-.149.029-.3.058-.445.085q-.665.127-1.313.24l-.429.074-.214.035c-.141.023-.282.046-.422.07s-.28.043-.418.064l-.412.062c-.135.021-.273.042-.406.06s-.269.037-.4.054l-.4.052-.195.025c-.259.031-.516.06-.767.087l-.186.019-.369.035c-.242.021-.481.042-.713.056-.174.012-.346.023-.514.029-.112.008-.224.012-.333.014-.164.008-.325.012-.481.012-.209,0-.412,0-.609,0-.1,0-.195-.006-.29-.01-.048,0-.093,0-.141-.006-.093,0-.184-.01-.276-.017l-.1-.008h-.025l-.066-.006c-.083-.006-.172-.01-.267-.019l-.077-.006-.1-.008c-.05,0-.1-.006-.153-.01l-.083-.006-.085-.006c-.058,0-.116-.008-.176-.014s-.118-.008-.18-.012l-.1-.006-.24-.018-.114-.009-.249-.019c-.035,0-.07,0-.108-.008l-.321-.025-.965-.073-.126-.01c-.085,0-.17-.012-.259-.018-.128-.01-.263-.019-.4-.029-.056-.006-.112-.01-.166-.014-.128-.008-.259-.019-.389-.029-.048,0-.1-.009-.143-.01-.091-.008-.182-.014-.273-.021l-.3-.025-.162-.01-.149-.012-.244-.019-1.462-.112-.222-.017-.34-.027c-.265-.021-.536-.04-.81-.062l-.062,0-.721-.056-.035,0c-1.45-.112-3.014-.234-4.667-.363l-.251-.018c-.333-.027-.671-.052-1.013-.079l-.644-.052-.035,0-.744-.058c-.031,0-.06-.006-.093-.006l-1.328-.105-.344-.027-.106-.008-1.185-.093-.522-.042-.346-.027-.708-.056-1.065-.085c-.031,0-.064-.006-.1-.006-.147-.015-.294-.025-.441-.035l-.031,0c-.439-.033-.878-.068-1.321-.1l-.037,0-.137-.01a28.259,28.259,0,0,0,12.778-15.058h.008c5.048.433,9.891.855,14.184,1.245h0l.677.062c2.521.23,4.841.445,6.885.644.98.1,1.9.187,2.74.273,3.061.311,5.2.562,6.029.723,2.165.418,4.582.81,6.79,1.137l.543.079.027,0c.273.042.543.079.808.118l.025,0,.9.126c.427.06.837.114,1.222.168l.491.066c1.906.253,3.175.4,3.175.4s.008.033.021.1l0,.016.01.056c.006.041.015.089.023.143.013.07.025.153.037.244l0,0,.008.07c.01.077.021.157.031.247l.019.191.01.11c0,.042.006.081.008.122l.012.182,0,.075c0,.043,0,.089.006.133v.068c0,.046,0,.091,0,.136Z" transform="translate(-678.344 1124.064)" fill="#ffdc72"/>
          <path id="Path_101595" data-name="Path 101595" d="M766.026-1102.04c-.619.213-2.475.8-5.019,1.537a8.093,8.093,0,0,0-3.585-5.04l10.131-1.133C767.723-1105.421,767.866-1102.672,766.026-1102.04Z" transform="translate(-653.903 1127.004)" fill="#f07100" opacity="0.5"/>
          <g id="Group_55943" data-name="Group 55943" transform="translate(19.486 14.897)">
            <path id="Path_101596" data-name="Path 101596" d="M735.7-1105.635h0a.643.643,0,0,1-.541-.727l.064-.713a.649.649,0,0,1,.663-.624h0a.643.643,0,0,1,.541.727l-.064.712A.649.649,0,0,1,735.7-1105.635Z" transform="translate(-697.24 1111.01)" fill="#36256b"/>
            <path id="Path_101597" data-name="Path 101597" d="M734.205-1105.766h0a.638.638,0,0,1-.541-.725l.064-.715a.647.647,0,0,1,.663-.621h0a.643.643,0,0,1,.541.725l-.066.715A.646.646,0,0,1,734.205-1105.766Z" transform="translate(-698.845 1110.872)" fill="#36256b"/>
            <path id="Path_101598" data-name="Path 101598" d="M732.706-1105.894h0a.645.645,0,0,1-.541-.727l.066-.712a.65.65,0,0,1,.663-.624h0a.642.642,0,0,1,.539.727l-.064.715A.647.647,0,0,1,732.706-1105.894Z" transform="translate(-700.451 1110.733)" fill="#36256b"/>
            <path id="Path_101599" data-name="Path 101599" d="M731.208-1106.023h0a.644.644,0,0,1-.541-.727l.064-.714a.649.649,0,0,1,.663-.622h0a.644.644,0,0,1,.541.727l-.064.712A.651.651,0,0,1,731.208-1106.023Z" transform="translate(-702.055 1110.594)" fill="#36256b"/>
            <path id="Path_101600" data-name="Path 101600" d="M729.71-1106.154h0a.641.641,0,0,1-.541-.725l.064-.715a.647.647,0,0,1,.663-.621h0a.64.64,0,0,1,.541.725l-.064.714A.648.648,0,0,1,729.71-1106.154Z" transform="translate(-703.66 1110.456)" fill="#36256b"/>
            <path id="Path_101601" data-name="Path 101601" d="M728.212-1106.282h0a.642.642,0,0,1-.541-.727l.064-.713a.651.651,0,0,1,.663-.623h0a.643.643,0,0,1,.541.727l-.064.712A.652.652,0,0,1,728.212-1106.282Z" transform="translate(-705.265 1110.317)" fill="#36256b"/>
            <path id="Path_101602" data-name="Path 101602" d="M726.713-1106.411h0a.645.645,0,0,1-.541-.727l.066-.715a.647.647,0,0,1,.663-.621h0a.64.64,0,0,1,.539.725l-.064.715A.651.651,0,0,1,726.713-1106.411Z" transform="translate(-706.871 1110.179)" fill="#36256b"/>
            <path id="Path_101603" data-name="Path 101603" d="M725.215-1106.542h0a.641.641,0,0,1-.541-.725l.064-.714a.65.65,0,0,1,.663-.622h0a.64.64,0,0,1,.541.725l-.064.715A.648.648,0,0,1,725.215-1106.542Z" transform="translate(-708.476 1110.04)" fill="#36256b"/>
            <path id="Path_101604" data-name="Path 101604" d="M723.717-1106.67h0a.643.643,0,0,1-.541-.727l.064-.712a.649.649,0,0,1,.663-.624h0a.643.643,0,0,1,.541.727l-.064.713A.649.649,0,0,1,723.717-1106.67Z" transform="translate(-710.081 1109.901)" fill="#36256b"/>
            <path id="Path_101605" data-name="Path 101605" d="M722.247-1106.8h0a.642.642,0,0,1-.539-.727l.064-.713a.651.651,0,0,1,.663-.623h0a.645.645,0,0,1,.541.727l-.066.714A.647.647,0,0,1,722.247-1106.8Z" transform="translate(-711.654 1109.765)" fill="#36256b"/>
            <path id="Path_101606" data-name="Path 101606" d="M720.75-1106.926h0a.645.645,0,0,1-.541-.727l.066-.715a.647.647,0,0,1,.661-.622h0a.642.642,0,0,1,.541.727l-.064.712A.65.65,0,0,1,720.75-1106.926Z" transform="translate(-713.259 1109.627)" fill="#36256b"/>
            <path id="Path_101607" data-name="Path 101607" d="M719.252-1107.057h0a.641.641,0,0,1-.541-.725l.064-.715a.647.647,0,0,1,.663-.621h0a.64.64,0,0,1,.541.725l-.064.715A.647.647,0,0,1,719.252-1107.057Z" transform="translate(-714.864 1109.489)" fill="#36256b"/>
            <path id="Path_101608" data-name="Path 101608" d="M717.4-1107.235h0a.64.64,0,0,1-.541-.725l.064-.715a.647.647,0,0,1,.663-.621h0a.641.641,0,0,1,.541.725l-.064.715A.647.647,0,0,1,717.4-1107.235Z" transform="translate(-716.852 1109.298)" fill="#36256b"/>
          </g>
          <g id="Group_55944" data-name="Group 55944" transform="translate(85.06 20.958)">
            <path id="Path_101609" data-name="Path 101609" d="M752.05-1104.05h0a.642.642,0,0,1-.541-.725l.064-.714a.647.647,0,0,1,.663-.622h0a.64.64,0,0,1,.541.725l-.064.715A.648.648,0,0,1,752.05-1104.05Z" transform="translate(-745.3 1106.649)" fill="#36256b"/>
            <path id="Path_101610" data-name="Path 101610" d="M750.552-1104.178h0a.643.643,0,0,1-.541-.727l.064-.712a.649.649,0,0,1,.663-.623h0a.643.643,0,0,1,.541.727l-.064.712A.652.652,0,0,1,750.552-1104.178Z" transform="translate(-746.905 1106.51)" fill="#36256b"/>
            <path id="Path_101611" data-name="Path 101611" d="M749.052-1104.309h0a.639.639,0,0,1-.538-.725l.064-.715a.647.647,0,0,1,.663-.621h0a.643.643,0,0,1,.541.725l-.066.714A.647.647,0,0,1,749.052-1104.309Z" transform="translate(-748.51 1106.372)" fill="#36256b"/>
          </g>
          <path id="Path_101612" data-name="Path 101612" d="M713.254-1110.215l-2.117,2-1.261.083a2.043,2.043,0,0,0,.288-.215l.041-.039a15.005,15.005,0,0,1,1.162-.971,13.742,13.742,0,0,1,1.328-.882l.006-.006Z" transform="translate(-704.84 1123.175)" fill="#36256b"/>
          <path id="Path_101613" data-name="Path 101613" d="M712.8-1110.2l-2.066,2.015,2.346.5.741-2.3Z" transform="translate(-703.923 1123.231)" fill="#36256b"/>
          <path id="Path_101614" data-name="Path 101614" d="M712.61-1110.06l-.545,2.161,1.738-.494.112-1.506Z" transform="translate(-702.495 1123.378)" fill="#36256b"/>
          <path id="Path_101615" data-name="Path 101615" d="M734.859-1099.957a1.7,1.7,0,0,0,.4-2.623,5.152,5.152,0,0,0-2.948-1.448c-2.386-.174-1.417,4.686-.625,4.785A9.582,9.582,0,0,0,734.859-1099.957Z" transform="translate(-682.422 1129.836)" fill="#36256b"/>
          <path id="Path_101616" data-name="Path 101616" d="M757.411-1105.507c.1-.128,8.979-3.057,14.783-1.784l-5.591,3.52-8.987-.773A.6.6,0,0,1,757.411-1105.507Z" transform="translate(-654.097 1126.002)" fill="#36256b"/>
          <path id="Path_101617" data-name="Path 101617" d="M782.585-1116.49s-5.945,13.138-7.078,15.133a9.906,9.906,0,0,1-3.6,3.266l-.015.006-15.752,6.4s-19.649-1.551-23.926-2.021h0c-.387-.043-.648-.079-.758-.1-1.3-.278-1.906-.878-1.657-1.353s30.459-4.1,33.8-4.47l.1-.01c3.254-.383,3.556-1.491,3.556-1.491l12.463-14.284a1.7,1.7,0,0,1,.723-.613A5.808,5.808,0,0,1,782.585-1116.49Z" transform="translate(-683.559 1116.49)" fill="#dfd6ff"/>
          <path id="Path_101618" data-name="Path 101618" d="M780.437-1116.267c-3.354,4.07-12.631,15.3-13.511,16.061-.947.822-28.054,5.178-34.715,6.261h0c-.387-.043-.648-.079-.758-.1-1.3-.278-1.906-.878-1.657-1.353s30.459-4.1,33.8-4.47,3.652-1.5,3.652-1.5l12.463-14.284A1.7,1.7,0,0,1,780.437-1116.267Z" transform="translate(-683.559 1116.729)" fill="#8c6df2"/>
          <path id="Path_101619" data-name="Path 101619" d="M765.023-1116.49s-5.945,13.138-7.078,15.133a9.906,9.906,0,0,1-3.6,3.266l-.015.006a26.221,26.221,0,0,1-8.194-1.555c3.254-.383,3.556-1.491,3.556-1.491l12.463-14.284a1.7,1.7,0,0,1,.723-.613A5.808,5.808,0,0,1,765.023-1116.49Z" transform="translate(-665.997 1116.49)" fill="#dfd6ff"/>
          <path id="Path_101620" data-name="Path 101620" d="M738.438-1103.692l-.6,6.626a18.052,18.052,0,0,1-6.492.7,14.078,14.078,0,0,1-4.928-1.052,5,5,0,0,1-.833-.443l.626-6.947a2.3,2.3,0,0,1,.911-.425c3.132-.8,10.829,1.274,10.829,1.274Z" transform="translate(-688.009 1128.353)" fill="#ffdc72"/>
          <path id="Path_101621" data-name="Path 101621" d="M727.124-1105.328l-.7,7.815a5,5,0,0,1-.833-.443l.626-6.947A2.3,2.3,0,0,1,727.124-1105.328Z" transform="translate(-688.009 1128.448)" fill="#8c6df2"/>
        </g>
        <g id="Group_55946" data-name="Group 55946" transform="translate(58.512 84.095)">
          <path id="Path_101622" data-name="Path 101622" d="M728.509-1004.059l38.7-10.33c.818-.218,1.363-.872,1.21-1.452l-21.7-81.579c-.155-.58-.953-.876-1.771-.659l-38.7,10.332c-.82.218-1.365.872-1.21,1.452l21.7,81.579C726.893-1004.135,727.689-1003.84,728.509-1004.059Z" transform="translate(-705.012 1098.15)" fill="#ffeaab"/>
          <path id="Path_101623" data-name="Path 101623" d="M728.509-1009l3.182-.849-22.26-83.689-3.182.851c-.82.218-1.365.872-1.21,1.452l21.7,81.579C726.893-1009.076,727.689-1008.78,728.509-1009Z" transform="translate(-705.012 1103.09)" fill="#ffb74d"/>
          <rect id="Rectangle_7790" data-name="Rectangle 7790" width="25.341" height="5.14" transform="matrix(0.257, 0.966, -0.966, 0.257, 28.311, 12.48)" fill="#ffb74d" opacity="0.5"/>
          <rect id="Rectangle_7791" data-name="Rectangle 7791" width="36.069" height="5.14" transform="translate(39.327 9.54) rotate(75.105)" fill="#ffb74d" opacity="0.5"/>
          <rect id="Rectangle_7792" data-name="Rectangle 7792" width="18.034" height="1.146" transform="matrix(0.257, 0.966, -0.966, 0.257, 33.097, 11.201)" fill="#ffb74d"/>
          <rect id="Rectangle_7793" data-name="Rectangle 7793" width="18.034" height="1.146" transform="translate(22.154 14.121) rotate(75.105)" fill="#ffb74d"/>
          <path id="Path_101624" data-name="Path 101624" d="M713.237-1090.327l.1.286.015.027,1.375,1.988a.117.117,0,0,1,.021.083l-.1,3.509c-.01.093-.412-.3-.489-.356-.835-.574-3.068-2.542-4-3.248a.212.212,0,0,0-.34.193.466.466,0,0,0,.1.244l3.221,3.927-.17.74a.2.2,0,0,0,.149.24l.574.131a.2.2,0,0,0,.24-.145l.414.506a.13.13,0,0,1,.027.087l-.2,3.186a1.223,1.223,0,0,0,.226.791l.207.288a.416.416,0,0,0,.6.081l.093-.073a1.309,1.309,0,0,0,.5-1l.054-2.544a.124.124,0,0,1,.081-.112l.963-.362-.035.157a.2.2,0,0,0,.149.24l.574.131a.2.2,0,0,0,.242-.151l.182-.8,1.5-.563a.657.657,0,0,0,.3-.232c.1-.135.205-.277.178-.306a33.014,33.014,0,0,0-3.815-.309c-.06,0-.052-.5-.05-.559l-.141-3.393a.121.121,0,0,1,.064-.106l.845-.452a.471.471,0,0,0,.213-.23v0a.122.122,0,0,0-.083-.168l-1.342-.327a.124.124,0,0,1-.085-.075l-.126-.325a.124.124,0,0,0-.228-.006l-.048.108-1.765-1.247A.123.123,0,0,0,713.237-1090.327Z" transform="translate(-699.863 1106.351)" fill="#ffb74d"/>
        </g>
        <g id="Group_55951" data-name="Group 55951" transform="translate(49.315 113.519)">
          <path id="Rectangle_7794" data-name="Rectangle 7794" d="M0,0H54.469a0,0,0,0,1,0,0V69.975a.443.443,0,0,1-.443.443H0a0,0,0,0,1,0,0V0A0,0,0,0,1,0,0Z" fill="#8c6df2"/>
          <g id="Group_55947" data-name="Group 55947" transform="translate(6.95 5.096)">
            <path id="Path_101625" data-name="Path 101625" d="M704.958-1077.713v2.206h-1.031v-5.936h2.27a2.786,2.786,0,0,1,.92.139,1.987,1.987,0,0,1,.679.394,1.7,1.7,0,0,1,.423.6,1.956,1.956,0,0,1,.143.754,1.994,1.994,0,0,1-.143.774,1.55,1.55,0,0,1-.423.578,1.907,1.907,0,0,1-.679.365,3.1,3.1,0,0,1-.92.126Zm0-.829H706.2a1.621,1.621,0,0,0,.512-.073.913.913,0,0,0,.352-.209.788.788,0,0,0,.2-.319,1.273,1.273,0,0,0,.062-.406,1.293,1.293,0,0,0-.062-.4.892.892,0,0,0-.2-.34.989.989,0,0,0-.352-.238,1.354,1.354,0,0,0-.512-.087h-1.239Z" transform="translate(-703.927 1081.527)" fill="#5038a1"/>
            <path id="Path_101626" data-name="Path 101626" d="M709.75-1076.891h-2.3l-.481,1.384H705.9l2.243-5.936h.926l2.245,5.936h-1.075Zm-2.009-.831h1.721l-.862-2.463Z" transform="translate(-701.817 1081.527)" fill="#5038a1"/>
            <path id="Path_101627" data-name="Path 101627" d="M712.1-1077a.859.859,0,0,0-.054-.319.635.635,0,0,0-.193-.259,1.56,1.56,0,0,0-.387-.226,5.663,5.663,0,0,0-.634-.228,5.969,5.969,0,0,1-.783-.288,2.736,2.736,0,0,1-.617-.379,1.6,1.6,0,0,1-.406-.5,1.373,1.373,0,0,1-.147-.644,1.439,1.439,0,0,1,.153-.658,1.525,1.525,0,0,1,.429-.522,2.11,2.11,0,0,1,.665-.344,2.876,2.876,0,0,1,.858-.122,2.611,2.611,0,0,1,.9.145,2.026,2.026,0,0,1,.673.393,1.705,1.705,0,0,1,.422.576,1.709,1.709,0,0,1,.147.7H712.1a1.177,1.177,0,0,0-.066-.4.819.819,0,0,0-.207-.313.942.942,0,0,0-.35-.207,1.572,1.572,0,0,0-.5-.073,1.685,1.685,0,0,0-.474.06.986.986,0,0,0-.332.172.673.673,0,0,0-.2.261.849.849,0,0,0-.062.325.651.651,0,0,0,.313.551,3.264,3.264,0,0,0,.951.408,5.565,5.565,0,0,1,.868.325,2.48,2.48,0,0,1,.611.406,1.473,1.473,0,0,1,.36.51,1.654,1.654,0,0,1,.118.638,1.492,1.492,0,0,1-.149.675,1.414,1.414,0,0,1-.425.51,1.954,1.954,0,0,1-.665.323,3.187,3.187,0,0,1-.874.112,3.158,3.158,0,0,1-.843-.116,2.423,2.423,0,0,1-.746-.35,1.821,1.821,0,0,1-.532-.586,1.622,1.622,0,0,1-.2-.824h1.031a1.059,1.059,0,0,0,.1.484.885.885,0,0,0,.273.33,1.1,1.1,0,0,0,.408.188,2.09,2.09,0,0,0,.51.058,1.273,1.273,0,0,0,.81-.217A.706.706,0,0,0,712.1-1077Z" transform="translate(-698.824 1081.484)" fill="#5038a1"/>
            <path id="Path_101628" data-name="Path 101628" d="M714.528-1077a.9.9,0,0,0-.054-.319.638.638,0,0,0-.193-.259,1.558,1.558,0,0,0-.387-.226,5.826,5.826,0,0,0-.634-.228,5.973,5.973,0,0,1-.783-.288,2.736,2.736,0,0,1-.617-.379,1.607,1.607,0,0,1-.406-.5,1.373,1.373,0,0,1-.147-.644,1.44,1.44,0,0,1,.153-.658,1.528,1.528,0,0,1,.429-.522,2.11,2.11,0,0,1,.665-.344,2.875,2.875,0,0,1,.858-.122,2.612,2.612,0,0,1,.9.145,2.027,2.027,0,0,1,.673.393,1.705,1.705,0,0,1,.423.576,1.713,1.713,0,0,1,.147.7h-1.027a1.18,1.18,0,0,0-.066-.4.818.818,0,0,0-.207-.313.959.959,0,0,0-.35-.207,1.571,1.571,0,0,0-.5-.073,1.686,1.686,0,0,0-.474.06.983.983,0,0,0-.331.172.673.673,0,0,0-.2.261.851.851,0,0,0-.062.325.651.651,0,0,0,.313.551,3.263,3.263,0,0,0,.951.408,5.56,5.56,0,0,1,.868.325,2.475,2.475,0,0,1,.611.406,1.471,1.471,0,0,1,.36.51,1.654,1.654,0,0,1,.118.638,1.49,1.49,0,0,1-.149.675,1.411,1.411,0,0,1-.425.51,1.953,1.953,0,0,1-.665.323,3.186,3.186,0,0,1-.874.112,3.156,3.156,0,0,1-.843-.116,2.42,2.42,0,0,1-.746-.35,1.821,1.821,0,0,1-.532-.586,1.622,1.622,0,0,1-.2-.824h1.031a1.059,1.059,0,0,0,.1.484.885.885,0,0,0,.273.33,1.1,1.1,0,0,0,.408.188,2.086,2.086,0,0,0,.509.058,1.274,1.274,0,0,0,.81-.217A.706.706,0,0,0,714.528-1077Z" transform="translate(-696.218 1081.484)" fill="#5038a1"/>
            <path id="Path_101629" data-name="Path 101629" d="M714.734-1077.713v2.206H713.7v-5.936h2.272a2.781,2.781,0,0,1,.917.139,1.968,1.968,0,0,1,.679.394,1.7,1.7,0,0,1,.422.6,1.954,1.954,0,0,1,.145.754,1.992,1.992,0,0,1-.145.774,1.55,1.55,0,0,1-.422.578,1.89,1.89,0,0,1-.679.365,3.093,3.093,0,0,1-.917.126Zm0-.829h1.241a1.631,1.631,0,0,0,.512-.073.944.944,0,0,0,.352-.209.8.8,0,0,0,.2-.319,1.218,1.218,0,0,0,.064-.406,1.236,1.236,0,0,0-.064-.4.911.911,0,0,0-.2-.34,1.026,1.026,0,0,0-.352-.238,1.362,1.362,0,0,0-.512-.087h-1.241Z" transform="translate(-693.455 1081.527)" fill="#5038a1"/>
            <path id="Path_101630" data-name="Path 101630" d="M721.113-1078.28a3.8,3.8,0,0,1-.178,1.214,2.616,2.616,0,0,1-.5.909,2.139,2.139,0,0,1-.775.572,2.43,2.43,0,0,1-1,.2,2.418,2.418,0,0,1-1-.2,2.2,2.2,0,0,1-.781-.572,2.6,2.6,0,0,1-.51-.909,3.747,3.747,0,0,1-.182-1.214v-.3a3.759,3.759,0,0,1,.182-1.216,2.7,2.7,0,0,1,.505-.914,2.146,2.146,0,0,1,.777-.573,2.42,2.42,0,0,1,1-.2,2.442,2.442,0,0,1,1,.2,2.136,2.136,0,0,1,.779.573,2.627,2.627,0,0,1,.5.914,3.816,3.816,0,0,1,.178,1.216Zm-1.031-.309a3.6,3.6,0,0,0-.1-.878,1.867,1.867,0,0,0-.28-.638,1.192,1.192,0,0,0-.452-.389,1.331,1.331,0,0,0-.6-.133,1.3,1.3,0,0,0-.594.133,1.207,1.207,0,0,0-.452.389,1.909,1.909,0,0,0-.286.638,3.486,3.486,0,0,0-.1.878v.309a3.546,3.546,0,0,0,.1.883,1.972,1.972,0,0,0,.288.642,1.266,1.266,0,0,0,.456.392,1.339,1.339,0,0,0,.6.131,1.212,1.212,0,0,0,1.054-.52,2.633,2.633,0,0,0,.369-1.527Z" transform="translate(-690.792 1081.484)" fill="#5038a1"/>
            <path id="Path_101631" data-name="Path 101631" d="M721.243-1077.8h-1.15v2.289h-1.031v-5.936h2.088a3.212,3.212,0,0,1,.909.116,1.855,1.855,0,0,1,.675.342,1.442,1.442,0,0,1,.416.562,1.952,1.952,0,0,1,.143.775,1.673,1.673,0,0,1-.286,1,1.835,1.835,0,0,1-.8.617l1.332,2.475v.054h-1.1Zm-1.15-.826h1.061a1.434,1.434,0,0,0,.485-.075.933.933,0,0,0,.346-.2.818.818,0,0,0,.209-.311,1.094,1.094,0,0,0,.068-.4,1.25,1.25,0,0,0-.064-.414.819.819,0,0,0-.2-.317.847.847,0,0,0-.344-.2,1.576,1.576,0,0,0-.5-.072h-1.056Z" transform="translate(-687.713 1081.527)" fill="#5038a1"/>
            <path id="Path_101632" data-name="Path 101632" d="M725.985-1080.613h-1.852v5.106H723.11v-5.106h-1.833v-.831h4.708Z" transform="translate(-685.34 1081.527)" fill="#5038a1"/>
          </g>
          <g id="Group_55948" data-name="Group 55948" transform="translate(16.869 61.906)">
            <path id="Path_101633" data-name="Path 101633" d="M720.194-1053.1H712.01a.477.477,0,0,1-.479-.477h0a.479.479,0,0,1,.479-.478h8.184a.479.479,0,0,1,.479.478h0A.477.477,0,0,1,720.194-1053.1Z" transform="translate(-705.699 1054.057)" fill="#5038a1"/>
            <path id="Path_101634" data-name="Path 101634" d="M729.044-1052H709.195a.477.477,0,0,1-.479-.477h0a.477.477,0,0,1,.479-.478h19.849a.477.477,0,0,1,.478.478h0A.477.477,0,0,1,729.044-1052Z" transform="translate(-708.716 1055.234)" fill="#5038a1"/>
          </g>
          <g id="Group_55949" data-name="Group 55949" transform="translate(7.857 17.074)">
            <path id="Path_101635" data-name="Path 101635" d="M723.779-1036.87a19.289,19.289,0,0,1-13.729-5.688,19.289,19.289,0,0,1-5.686-13.729,19.3,19.3,0,0,1,5.686-13.729,19.3,19.3,0,0,1,13.729-5.686,19.3,19.3,0,0,1,13.731,5.686,19.3,19.3,0,0,1,5.686,13.729,19.289,19.289,0,0,1-5.686,13.729A19.291,19.291,0,0,1,723.779-1036.87Zm0-38.618a19.075,19.075,0,0,0-13.578,5.624,19.076,19.076,0,0,0-5.624,13.577,19.077,19.077,0,0,0,5.624,13.58,19.076,19.076,0,0,0,13.578,5.624,19.077,19.077,0,0,0,13.58-5.624,19.077,19.077,0,0,0,5.624-13.58,19.076,19.076,0,0,0-5.624-13.577A19.076,19.076,0,0,0,723.779-1075.488Z" transform="translate(-704.365 1075.701)" fill="#5038a1"/>
          </g>
          <path id="Path_101636" data-name="Path 101636" d="M737.358-1058.274a15.629,15.629,0,0,1-.251,2.8,15.5,15.5,0,0,1-2.457,5.974,15.552,15.552,0,0,1-12.859,6.79,15.569,15.569,0,0,1-14.24-9.265,15.246,15.246,0,0,1-.793-2.239,15.548,15.548,0,0,1-.536-4.062,15.589,15.589,0,0,1,.354-3.314l.008-.037a15.524,15.524,0,0,1,4.19-7.649,15.731,15.731,0,0,1,1.885-1.612q.482-.348.988-.659a15.487,15.487,0,0,1,8.144-2.3c.4,0,.787.014,1.177.045a14.974,14.974,0,0,1,1.618.205,15.459,15.459,0,0,1,6.092,2.535h0a15.559,15.559,0,0,1,3,2.732,15.472,15.472,0,0,1,1.268,1.725c.238.377.462.764.667,1.162a15.315,15.315,0,0,1,1.187,3.026A15.581,15.581,0,0,1,737.358-1058.274Z" transform="translate(-694.519 1094.765)" fill="#c4b3ff"/>
          <g id="Group_55950" data-name="Group 55950" transform="translate(12.057 23.074)" opacity="0.75">
            <path id="Path_101637" data-name="Path 101637" d="M716.319-1066.433c-.621.984.259,2.693-1.605,2.227s-3-.673-3.1.362,1.4,1.036,1.4,2.123-.673,1.446-1.709.93-1.334-1.267-2.537-.8-1.9.155-2.175-.777a1.36,1.36,0,0,0-.193-.408l.008-.037a15.524,15.524,0,0,1,4.19-7.649,15.731,15.731,0,0,1,1.885-1.612q.482-.348.988-.659a2.038,2.038,0,0,1,1.56.814c1.088,1.346,1.812.673,1.553,2.225s.155,1.76,1.036,1.709,1.916-.052,2.02.621S716.94-1067.417,716.319-1066.433Z" transform="translate(-706.393 1072.88)" fill="#5038a1"/>
            <path id="Path_101638" data-name="Path 101638" d="M718.435-1063.649s-1.373.439-1.734-.518.05-1.164-1.166-1.45-1.319-1.112-2.1-1.009-.389.414-1.295,1.088-1.734.362-1.709,1.6,1.373,1.438,1.645,2.253-.195,1.164.387,1.786,1.669.35,1.166,1.2-1.282,1.514-.895,2.836.118,1.4.777,2.328,1.943,1.243,2.135.622-.893-1.436-.543-2.057.932-.195,1.164-1.127,1.179-.932,1.255-1.579-1.137-1.632-.673-2.044,1.4.75,2.123-.286.234-1.864.984-2.848S718.952-1064.219,718.435-1063.649Z" transform="translate(-702.063 1079.415)" fill="#5038a1"/>
            <path id="Path_101639" data-name="Path 101639" d="M727.467-1062.932a15.629,15.629,0,0,1-.251,2.8,15.5,15.5,0,0,1-2.457,5.974,1.791,1.791,0,0,1-1.245-.033c-1.943-.777-.505-2.875.271-3.923s-1.2-.582-2.641-1.551.155-3.573-1.319-3.146-3.262.971-4.116-.466.777-1.669.039-2.873.427-1.9,1.9-2.02,1.282-1.164,3.107-1.319,1.786,2.175,3.805,2.02,1.928.311,1.928.311a.925.925,0,0,1,.42.087A15.581,15.581,0,0,1,727.467-1062.932Z" transform="translate(-696.685 1076.35)" fill="#5038a1"/>
            <path id="Path_101640" data-name="Path 101640" d="M725.294-1066.88c-1.678.816-2.353-1.4-3.786-.737s-1.2-.621-2.332-1.45-3.418.673-3.314-.621,1.812-.932,2.175-1.966,2.02-.777,2.02-.777a1.024,1.024,0,0,1,.3-.068h0a15.559,15.559,0,0,1,3,2.732,15.472,15.472,0,0,1,1.268,1.725C724.865-1067.664,725.089-1067.277,725.294-1066.88Z" transform="translate(-696.254 1073.132)" fill="#5038a1"/>
            <path id="Path_101641" data-name="Path 101641" d="M715.7-1071.018s.88-1.27-.516-1.643-1.373.114-2.461,0-1.514.725-.7,1.643,1.475,2.684,2.212,1.744S714.839-1070.927,715.7-1071.018Z" transform="translate(-700.81 1072.804)" fill="#5038a1"/>
          </g>
        </g>
      </g>
    </g>
  </g>
</svg>
