<svg xmlns="http://www.w3.org/2000/svg" width="295" height="217" viewBox="0 0 295 217">
  <g id="t1-i4" transform="translate(-390 -4060)">
    <rect id="Rectangle_5553" data-name="Rectangle 5553" width="295" height="217" rx="13" transform="translate(390 4060)" fill="#13477b"/>
    <g id="Group_55919" data-name="Group 55919" transform="translate(247.811 5205.818)">
      <path id="Path_101470" data-name="Path 101470" d="M198.841-1082.985h57.164s-.486,20.189,23.838,27.973c0,0,.244,3.649-9.243,7.3H234.842s-8.027-2.432-9-5.594h33.812s2.676-2.432-.486-3.649H224.382s-6.81-2.676-7.3-6.568h37.461s3.161-2.432-.73-3.891H212.95s-5.351-2.676-5.351-4.622h41.6s3.162-1.947,0-3.406H204.436s-5.352-2.188-5.6-7.54Z" transform="translate(-1.535 -3.399)" fill="#fff" fill-rule="evenodd"/>
      <path id="Path_101470_-_Outline" data-name="Path 101470 - Outline" d="M198.684-1083.135h57.475l0,.153a26.61,26.61,0,0,0,2.789,11.012c2.652,5.462,8.438,12.813,20.945,16.815l.1.031.007.1a3.794,3.794,0,0,1-1.1,2.386c-1.51,1.836-4.282,3.539-8.241,5.062l-.026.01H234.82l-.021-.006a34.656,34.656,0,0,1-4.155-1.619c-2.864-1.35-4.528-2.721-4.944-4.075l-.06-.194h33.955c.206-.2,1.116-1.155.947-2.055-.1-.535-.572-.97-1.4-1.294H224.354l-.026-.01a21.734,21.734,0,0,1-3.493-1.839c-2.379-1.559-3.69-3.191-3.9-4.851l-.021-.169h37.578c.214-.177,1.241-1.083,1.1-2.015-.094-.628-.7-1.158-1.806-1.577H212.914l-.032-.016c-.222-.111-5.434-2.741-5.434-4.756v-.15h41.7c.215-.141,1.349-.93,1.3-1.78-.03-.494-.463-.94-1.287-1.326H204.407l-.027-.011a10.651,10.651,0,0,1-2.749-1.79,8.351,8.351,0,0,1-2.939-5.882Zm57.171.3H199a8.079,8.079,0,0,0,2.823,5.508,10.681,10.681,0,0,0,2.645,1.732h44.76l.03.014c.952.439,1.453.976,1.49,1.595.067,1.113-1.412,2.036-1.475,2.075l-.036.022H207.76c.11.727,1,1.678,2.6,2.765a26.3,26.3,0,0,0,2.629,1.557h40.858l.025.01c1.23.461,1.911,1.075,2.023,1.823.181,1.208-1.195,2.282-1.254,2.327l-.04.031H217.259c.623,3.552,6.7,6.086,7.152,6.269H259.2l.026.01c.949.365,1.492.88,1.614,1.53.22,1.173-1.027,2.322-1.081,2.37l-.043.039H226.055c1.17,2.882,8.365,5.157,8.81,5.295h35.708c4.817-1.856,7.042-3.7,8.06-4.925a4.041,4.041,0,0,0,1.057-2.114,38.742,38.742,0,0,1-13.932-7.65,29.663,29.663,0,0,1-7.09-9.3,29.122,29.122,0,0,1-2.506-7.832A20.755,20.755,0,0,1,255.855-1082.835Z" transform="translate(-1.535 -3.399)" fill="#00688f"/>
      <path id="Path_101471" data-name="Path 101471" d="M246.817-1030.359l-7.546,36.346H230.7l7.546-36.346Z" transform="translate(-4.427 -8.176)" fill="#fff" fill-rule="evenodd"/>
      <path id="Path_101471_-_Outline" data-name="Path 101471 - Outline" d="M237.978-1030.693h9.249l-7.685,37.014h-9.249Zm8.429.667h-7.886l-7.408,35.679H239Z" transform="translate(-4.427 -8.176)" fill="#00688f"/>
      <path id="Path_101472" data-name="Path 101472" d="M282.12-1030.359l6.109,36.347h-9.086l-.925-6.8H265.03l-3.7,6.8H252.3l21.15-36.347Zm-4.488,23.365-1.794-13.864-7.656,13.864Z" transform="translate(-6.387 -8.176)" fill="#fff" fill-rule="evenodd"/>
      <path id="Path_101472_-_Outline" data-name="Path 101472 - Outline" d="M273.257-1030.693H282.4l.047.278,6.175,36.735h-9.772l-.925-6.8h-12.7l-3.7,6.8h-9.813Zm8.581.667h-8.2l-20.761,35.679h8.256l3.7-6.8H278.51l.925,6.8h8.4Zm-6.292,9.007.623.118,1.843,14.24H267.617Zm1.706,13.692-1.615-12.478-6.89,12.478Z" transform="translate(-6.387 -8.176)" fill="#00688f"/>
      <path id="Path_101473" data-name="Path 101473" d="M299.1-1023.3l1.466-7.061H331.1l-1.466,7.061H318.678l-6.08,29.285H304.03l6.08-29.285Z" transform="translate(-10.635 -8.176)" fill="#fff" fill-rule="evenodd"/>
      <path id="Path_101473_-_Outline" data-name="Path 101473 - Outline" d="M300.3-1030.693H331.51l-1.6,7.728H318.95l-6.08,29.285H303.62l6.08-29.285H298.693Zm30.392.667H300.841l-1.328,6.394h11.008l-6.08,29.285h7.886l6.08-29.285h10.956Z" transform="translate(-10.635 -8.176)" fill="#00688f"/>
      <path id="Path_101474" data-name="Path 101474" d="M362.541-1030.359l6.109,36.347h-9.086l-.924-6.8H345.451l-3.7,6.8h-9.035l21.151-36.347Zm-4.488,23.365-1.794-13.864-7.657,13.864Z" transform="translate(-13.686 -8.176)" fill="#fff" fill-rule="evenodd"/>
      <path id="Path_101474_-_Outline" data-name="Path 101474 - Outline" d="M353.678-1030.693h9.145l6.221,37.014h-9.772l-.924-6.8h-12.7l-3.7,6.8h-9.814Zm8.581.667h-8.2L333.3-994.346h8.257l3.7-6.8h13.679l.924,6.8h8.4Zm-6.292,9.007.623.119,1.843,14.24h-10.4Zm1.706,13.692-1.615-12.478-6.891,12.478Z" transform="translate(-13.686 -8.176)" fill="#00688f"/>
      <path id="Path_101476" data-name="Path 101476" d="M299.057-1118.285a49.058,49.058,0,0,0-7.789,8.315,19.11,19.11,0,0,0,7.789,2.253v-10.568Z" transform="translate(-9.924 -0.195)" fill="#fff" fill-rule="evenodd"/>
      <path id="Path_101476_-_Outline" data-name="Path 101476 - Outline" d="M299.207-1118.607v11.049l-.158-.009a19.2,19.2,0,0,1-7.851-2.27l-.154-.081.1-.141a49.3,49.3,0,0,1,7.814-8.341Zm-.3,10.73v-10.085a49.1,49.1,0,0,0-7.415,7.939A18.894,18.894,0,0,0,298.907-1107.876Z" transform="translate(-9.924 -0.195)" fill="#00688f"/>
      <path id="Path_101477" data-name="Path 101477" d="M302.774-1120.438a49.587,49.587,0,0,1,8.711,9.148,31.651,31.651,0,0,0,5.222-4.393,27.531,27.531,0,0,0-13.933-4.755Z" transform="translate(-10.968)" fill="#fff" fill-rule="evenodd"/>
      <path id="Path_101477_-_Outline" data-name="Path 101477 - Outline" d="M302.783-1120.588a27.758,27.758,0,0,1,14.009,4.781l.147.1-.124.128a31.95,31.95,0,0,1-5.247,4.413l-.12.079-.084-.116a49.41,49.41,0,0,0-8.684-9.119Zm13.692,4.928a27.447,27.447,0,0,0-13.24-4.6,49.867,49.867,0,0,1,8.287,8.761A31.63,31.63,0,0,0,316.475-1115.659Z" transform="translate(-10.968)" fill="#00688f"/>
      <path id="Path_101478" data-name="Path 101478" d="M301.976-1118.306v10.571a18.339,18.339,0,0,0,7.718-2.33,49.486,49.486,0,0,0-7.718-8.24Z" transform="translate(-10.896 -0.194)" fill="#fff" fill-rule="evenodd"/>
      <path id="Path_101478_-_Outline" data-name="Path 101478 - Outline" d="M301.826-1118.629l.247.209a49.941,49.941,0,0,1,7.742,8.266l.1.138-.15.082a18.557,18.557,0,0,1-7.781,2.348l-.159.01Zm7.645,8.514a49.754,49.754,0,0,0-7.345-7.866v10.086A18.251,18.251,0,0,0,309.471-1110.115Z" transform="translate(-10.896 -0.194)" fill="#00688f"/>
      <path id="Path_101479" data-name="Path 101479" d="M283.525-1115.555a27.4,27.4,0,0,0,5.3,4.393,49.622,49.622,0,0,1,8.8-9.276,27.518,27.518,0,0,0-14.1,4.883Z" transform="translate(-9.221)" fill="#fff" fill-rule="evenodd"/>
      <path id="Path_101479_-_Outline" data-name="Path 101479 - Outline" d="M288.868-1110.96l-.119-.075a27.591,27.591,0,0,1-5.335-4.418l-.116-.126.141-.1a27.732,27.732,0,0,1,14.181-4.91l.1.266a49.369,49.369,0,0,0-8.772,9.247Zm-5.116-4.57a27.43,27.43,0,0,0,5.038,4.165,49.827,49.827,0,0,1,8.377-8.891A27.425,27.425,0,0,0,283.753-1115.53Z" transform="translate(-9.221)" fill="#00688f"/>
      <path id="Path_101480" data-name="Path 101480" d="M301.976-1062.93a53.417,53.417,0,0,0,7.69-7.958,18.36,18.36,0,0,0-7.69-2.315v10.273Z" transform="translate(-10.896 -4.287)" fill="#fff" fill-rule="evenodd"/>
      <path id="Path_101480_-_Outline" data-name="Path 101480 - Outline" d="M301.826-1062.6v-10.758l.159.01a18.574,18.574,0,0,1,7.753,2.333l.154.084-.107.139a53.8,53.8,0,0,1-7.712,7.981Zm.3-10.438v9.787a53.4,53.4,0,0,0,7.314-7.584A18.269,18.269,0,0,0,302.126-1073.043Z" transform="translate(-10.896 -4.287)" fill="#00688f"/>
      <path id="Path_101481" data-name="Path 101481" d="M313.561-1109.094a31.776,31.776,0,0,1,5.57,15.882H329.7a27.607,27.607,0,0,0-10.434-20.7,33.921,33.921,0,0,1-5.7,4.818Z" transform="translate(-11.947 -0.592)" fill="#fff" fill-rule="evenodd"/>
      <path id="Path_101481_-_Outline" data-name="Path 101481 - Outline" d="M319.249-1114.114l.107.085a27.784,27.784,0,0,1,10.491,20.813l.005.155H318.988l-.007-.142a31.4,31.4,0,0,0-5.545-15.807l-.083-.125.125-.083a33.959,33.959,0,0,0,5.677-4.8Zm10.292,20.753a27.482,27.482,0,0,0-10.266-20.348,34.29,34.29,0,0,1-5.508,4.657,31.685,31.685,0,0,1,5.505,15.691Z" transform="translate(-11.947 -0.592)" fill="#00688f"/>
      <path id="Path_101482" data-name="Path 101482" d="M316.558-1065.255a31.486,31.486,0,0,0-5.144-4.3,55.932,55.932,0,0,1-8.731,8.952,27.53,27.53,0,0,0,13.876-4.653Z" transform="translate(-10.96 -4.619)" fill="#fff" fill-rule="evenodd"/>
      <path id="Path_101482_-_Outline" data-name="Path 101482 - Outline" d="M311.379-1069.756l.117.077a31.776,31.776,0,0,1,5.169,4.319l.126.128-.149.1a27.754,27.754,0,0,1-13.951,4.679l-.1-.265a56.021,56.021,0,0,0,8.708-8.928Zm4.945,4.477a31.46,31.46,0,0,0-4.876-4.073,56.013,56.013,0,0,1-8.318,8.57A27.438,27.438,0,0,0,316.324-1065.279Z" transform="translate(-10.96 -4.619)" fill="#00688f"/>
      <path id="Path_101483" data-name="Path 101483" d="M298.422-1092.616v-12.156a21.186,21.186,0,0,1-8.922-2.578,29.815,29.815,0,0,0-5.236,14.734Z" transform="translate(-9.288 -1.188)" fill="#fff" fill-rule="evenodd"/>
      <path id="Path_101483_-_Outline" data-name="Path 101483 - Outline" d="M298.572-1092.466H284.1l.009-.158a29.737,29.737,0,0,1,5.261-14.809l.075-.114.12.064a20.975,20.975,0,0,0,8.859,2.561l.142.007Zm-14.15-.3h13.85v-11.864a21.271,21.271,0,0,1-8.722-2.524A29.452,29.452,0,0,0,284.422-1092.766Z" transform="translate(-9.288 -1.188)" fill="#00688f"/>
      <path id="Path_101484" data-name="Path 101484" d="M286.553-1073.046a29.339,29.339,0,0,1-5.521-15.959H270.5a27.608,27.608,0,0,0,10.4,20.676,28.555,28.555,0,0,1,5.647-4.717Z" transform="translate(-8.039 -2.853)" fill="#fff" fill-rule="evenodd"/>
      <path id="Path_101484_-_Outline" data-name="Path 101484 - Outline" d="M280.922-1068.124l-.11-.088A27.791,27.791,0,0,1,270.353-1089l-.005-.155h10.83l0,.146a29.286,29.286,0,0,0,5.495,15.878l.087.128-.131.083a28.6,28.6,0,0,0-5.617,4.691Zm-10.263-20.731a27.489,27.489,0,0,0,10.231,20.321,29.036,29.036,0,0,1,5.452-4.555,29.569,29.569,0,0,1-5.456-15.766Z" transform="translate(-8.039 -2.853)" fill="#00688f"/>
      <path id="Path_101485" data-name="Path 101485" d="M301.976-1104.806v12.179h14.152a29.966,29.966,0,0,0-5.319-14.848,20.271,20.271,0,0,1-8.833,2.669Z" transform="translate(-10.896 -1.177)" fill="#fff" fill-rule="evenodd"/>
      <path id="Path_101485_-_Outline" data-name="Path 101485 - Outline" d="M310.857-1107.673l.077.115a29.856,29.856,0,0,1,5.344,14.923l.009.158h-14.46v-12.471l.142-.008a20.194,20.194,0,0,0,8.768-2.65Zm5.112,14.9a29.57,29.57,0,0,0-5.208-14.5,20.489,20.489,0,0,1-8.635,2.612v11.888Z" transform="translate(-10.896 -1.177)" fill="#00688f"/>
      <path id="Path_101486" data-name="Path 101486" d="M281.069-1093.2a31.7,31.7,0,0,1,5.464-15.728,28.161,28.161,0,0,1-5.757-4.851A27.615,27.615,0,0,0,270.5-1093.2Z" transform="translate(-8.039 -0.605)" fill="#fff" fill-rule="evenodd"/>
      <path id="Path_101486_-_Outline" data-name="Path 101486 - Outline" d="M281.212-1093.049H270.348l.005-.155a27.812,27.812,0,0,1,10.328-20.69l.111-.09.095.107a28.04,28.04,0,0,0,5.726,4.824l.128.082-.083.127a31.324,31.324,0,0,0-5.439,15.653Zm-10.553-.3h10.268a31.614,31.614,0,0,1,5.4-15.533,28.479,28.479,0,0,1-5.565-4.689A27.51,27.51,0,0,0,270.659-1093.349Z" transform="translate(-8.039 -0.605)" fill="#00688f"/>
      <path id="Path_101487" data-name="Path 101487" d="M319.166-1089.005a29.411,29.411,0,0,1-5.627,16.112,33.834,33.834,0,0,1,5.581,4.693,27.6,27.6,0,0,0,10.575-20.805Z" transform="translate(-11.945 -2.853)" fill="#fff" fill-rule="evenodd"/>
      <path id="Path_101487_-_Outline" data-name="Path 101487 - Outline" d="M319.02-1089.155h10.83l-.005.155a27.758,27.758,0,0,1-10.633,20.918l-.106.083-.094-.1a33.857,33.857,0,0,0-5.556-4.672l-.127-.084.087-.126a29.356,29.356,0,0,0,5.6-16.031Zm10.52.3H319.312a29.64,29.64,0,0,1-5.563,15.922,34.19,34.19,0,0,1,5.384,4.532A27.455,27.455,0,0,0,329.54-1088.855Z" transform="translate(-11.945 -2.853)" fill="#00688f"/>
      <path id="Path_101488" data-name="Path 101488" d="M298.418-1076.606v-12.4H284.224a27.469,27.469,0,0,0,5.292,14.967,21.179,21.179,0,0,1,8.9-2.568Z" transform="translate(-9.285 -2.853)" fill="#fff" fill-rule="evenodd"/>
      <path id="Path_101488_-_Outline" data-name="Path 101488 - Outline" d="M289.468-1073.843l-.076-.11A27.7,27.7,0,0,1,284.074-1089l0-.154h14.5v12.692l-.142.007a20.973,20.973,0,0,0-8.839,2.55Zm-5.09-15.012a27.408,27.408,0,0,0,5.185,14.622,21.27,21.27,0,0,1,8.7-2.515v-12.107Z" transform="translate(-9.285 -2.853)" fill="#00688f"/>
      <path id="Path_101489" data-name="Path 101489" d="M301.976-1089.005v12.423a20.258,20.258,0,0,1,8.848,2.677,27.627,27.627,0,0,0,5.347-15.1Z" transform="translate(-10.896 -2.853)" fill="#fff" fill-rule="evenodd"/>
      <path id="Path_101489_-_Outline" data-name="Path 101489 - Outline" d="M301.826-1089.155h14.5l0,.154a27.861,27.861,0,0,1-5.374,15.181l-.078.112-.119-.066a20.184,20.184,0,0,0-8.783-2.658l-.142-.008Zm14.19.3h-13.89v12.131a20.481,20.481,0,0,1,8.652,2.621A27.572,27.572,0,0,0,316.016-1088.855Z" transform="translate(-10.896 -2.853)" fill="#00688f"/>
      <path id="Path_101490" data-name="Path 101490" d="M299.063-1062.979v-10.242a19.1,19.1,0,0,0-7.73,2.222,53.66,53.66,0,0,0,7.73,8.02Z" transform="translate(-9.93 -4.286)" fill="#fff" fill-rule="evenodd"/>
      <path id="Path_101490_-_Outline" data-name="Path 101490 - Outline" d="M299.213-1062.653l-.247-.212a54.055,54.055,0,0,1-7.752-8.043l-.109-.142.158-.083a19.185,19.185,0,0,1,7.791-2.239l.158-.009Zm-7.652-8.3a53.648,53.648,0,0,0,7.352,7.643v-9.756A18.882,18.882,0,0,0,291.562-1070.948Z" transform="translate(-9.93 -4.286)" fill="#00688f"/>
      <path id="Path_101491" data-name="Path 101491" d="M283.673-1065.4a27.516,27.516,0,0,0,14.053,4.786,55.826,55.826,0,0,1-8.824-9.072,27.46,27.46,0,0,0-5.229,4.286Z" transform="translate(-9.235 -4.607)" fill="#fff" fill-rule="evenodd"/>
      <path id="Path_101491_-_Outline" data-name="Path 101491 - Outline" d="M288.939-1069.886l.083.11a55.91,55.91,0,0,0,8.8,9.048l-.1.265a27.729,27.729,0,0,1-14.129-4.812l-.144-.1.119-.127a27.465,27.465,0,0,1,5.258-4.31Zm8.34,9.093a55.909,55.909,0,0,1-8.413-8.692,27.264,27.264,0,0,0-4.963,4.061A27.42,27.42,0,0,0,297.279-1060.794Z" transform="translate(-9.235 -4.607)" fill="#00688f"/>
      <path id="Path_101492" data-name="Path 101492" d="M395.151-1083.253H337.987s.486,20.19-23.839,27.974c0,0-.243,3.65,9.244,7.3H359.15s8.028-2.433,9-5.6H334.337s-2.675-2.432.487-3.649h34.785s6.812-2.676,7.3-6.567H339.446s-3.162-2.432.73-3.892h40.866s5.352-2.676,5.352-4.622H344.8s-3.162-1.946,0-3.405h44.758s5.352-2.189,5.595-7.541Z" transform="translate(-12.001 -3.375)" fill="#fff" fill-rule="evenodd"/>
      <path id="Path_101492_-_Outline" data-name="Path 101492 - Outline" d="M337.987-1083.4h57.32l-.007.157a8.352,8.352,0,0,1-2.938,5.883,10.651,10.651,0,0,1-2.749,1.79l-.027.011H344.831c-.825.386-1.258.833-1.287,1.326-.051.852,1.083,1.638,1.3,1.779h41.7v.15c0,2.015-5.213,4.645-5.435,4.756l-.032.016H340.2c-1.1.419-1.712.95-1.806,1.578-.14.933.888,1.837,1.1,2.014h37.578l-.021.168c-.207,1.66-1.519,3.291-3.9,4.85a21.743,21.743,0,0,1-3.494,1.839l-.026.01H334.853c-.829.324-1.3.76-1.4,1.294-.169.9.74,1.852.946,2.055h33.955l-.06.194c-.416,1.354-2.08,2.725-4.944,4.075a34.665,34.665,0,0,1-4.156,1.62l-.021.006H323.364l-.026-.01c-3.959-1.523-6.732-3.226-8.242-5.062a3.8,3.8,0,0,1-1.1-2.386l.007-.1.1-.031c12.508-4,18.294-11.353,20.946-16.815a26.611,26.611,0,0,0,2.789-11.012l0-.153Zm57.005.3H338.138a20.751,20.751,0,0,1-.307,3.151,29.121,29.121,0,0,1-2.506,7.832,29.661,29.661,0,0,1-7.09,9.3,38.742,38.742,0,0,1-13.933,7.651,4.044,4.044,0,0,0,1.057,2.115c1.019,1.223,3.244,3.07,8.061,4.926h35.707c.444-.138,7.64-2.414,8.81-5.3H334.279l-.043-.039c-.053-.048-1.3-1.2-1.08-2.37.122-.65.665-1.164,1.614-1.53l.026-.01H369.58c.451-.183,6.531-2.717,7.153-6.268H339.4l-.04-.031c-.059-.045-1.435-1.119-1.254-2.328.112-.749.793-1.363,2.023-1.824l.025-.01h40.858a26.294,26.294,0,0,0,2.63-1.557c1.594-1.087,2.486-2.038,2.6-2.765H344.756l-.036-.022c-.063-.039-1.541-.961-1.475-2.074.037-.619.538-1.155,1.49-1.594l.03-.014h44.76a10.678,10.678,0,0,0,2.645-1.732A8.078,8.078,0,0,0,394.992-1083.1Z" transform="translate(-12.001 -3.375)" fill="#00688f"/>
      <path id="Path_101493" data-name="Path 101493" d="M193.609-953.84l2.3,14.14h-3.454l-.344-2.646h-5.131l-1.475,2.646h-3.576l8.3-14.14Zm-1.717,9.091-.707-5.394-2.99,5.394Z" transform="translate(0 -15.122)" fill="#fff" fill-rule="evenodd"/>
      <path id="Path_101494" data-name="Path 101494" d="M212.655-944.729a7.043,7.043,0,0,1-7.192,5.394c-4.161,0-5.938-2.565-5.938-5.757,0-3.172,1.616-9.192,8.2-9.192,2.262,0,5.757.526,5.757,4.182a5.859,5.859,0,0,1-.061,1.03H210.13a3.022,3.022,0,0,0,.02-.425c0-1.415-1.03-2.041-2.565-2.041-3.334,0-4.465,3.758-4.465,5.94,0,3.353,2.081,3.514,2.687,3.514.829,0,2.566-.1,3.536-2.646Z" transform="translate(-1.597 -15.081)" fill="#fff" fill-rule="evenodd"/>
      <path id="Path_101495" data-name="Path 101495" d="M228.846-944.729a7.042,7.042,0,0,1-7.191,5.394c-4.162,0-5.939-2.565-5.939-5.757,0-3.172,1.616-9.192,8.2-9.192,2.263,0,5.757.526,5.757,4.182a5.861,5.861,0,0,1-.061,1.03h-3.292a3.025,3.025,0,0,0,.02-.425c0-1.415-1.029-2.041-2.565-2.041-3.333,0-4.464,3.758-4.464,5.94,0,3.353,2.081,3.514,2.687,3.514.828,0,2.565-.1,3.534-2.646Z" transform="translate(-3.066 -15.081)" fill="#fff" fill-rule="evenodd"/>
      <path id="Path_101496" data-name="Path 101496" d="M234.231-953.84h6.847c3.6,0,4.323,2.04,4.323,3.536a4.154,4.154,0,0,1-3.171,4.142l-.02.06a1.871,1.871,0,0,1,1.475,1.878,10.406,10.406,0,0,1-.3,2,9.034,9.034,0,0,0-.222,1.617,2.174,2.174,0,0,0,.243.908h-3.394a2.506,2.506,0,0,1-.222-.928,6.956,6.956,0,0,1,.2-1.455,7.668,7.668,0,0,0,.242-1.536c0-1.211-1.292-1.211-1.979-1.211h-2.585l-1.091,5.13h-3.333l2.99-14.14Zm2,6.263h3.05c1.879,0,2.586-.99,2.586-1.9,0-1.029-.586-1.616-2.08-1.616h-2.808l-.747,3.515Z" transform="translate(-4.476 -15.122)" fill="#fff" fill-rule="evenodd"/>
      <path id="Path_101497" data-name="Path 101497" d="M259.247-948.284l-.545,2.748h-6.949l-.646,3.091h8.02l-.566,2.747H247.188l2.989-14.14h11.191l-.565,2.748h-7.878l-.585,2.808Z" transform="translate(-5.923 -15.122)" fill="#fff" fill-rule="evenodd"/>
      <path id="Path_101498" data-name="Path 101498" d="M270.7-953.84c4.343,0,5.7,2.506,5.7,5.777,0,8.343-7.777,8.363-8.6,8.363h-6.06l2.99-14.14Zm-5.05,11.394H267.8c4.5,0,5.01-4.3,5.01-5.838,0-1.9-1.05-2.808-2.97-2.808h-2.364l-1.818,8.646Z" transform="translate(-7.243 -15.122)" fill="#fff" fill-rule="evenodd"/>
      <path id="Path_101499" data-name="Path 101499" d="M284.874-953.84l-2.99,14.14h-3.333l2.989-14.14Z" transform="translate(-8.77 -15.122)" fill="#fff" fill-rule="evenodd"/>
      <path id="Path_101500" data-name="Path 101500" d="M286.77-951.092l.586-2.748h11.857l-.586,2.748h-4.262l-2.4,11.393h-3.333l2.4-11.393Z" transform="translate(-9.516 -15.122)" fill="#fff" fill-rule="evenodd"/>
      <path id="Path_101501" data-name="Path 101501" d="M311.02-948.284l-.545,2.748h-6.949l-.647,3.091h8.02l-.566,2.747H298.961l2.989-14.14h11.192l-.566,2.748H304.7l-.586,2.808Z" transform="translate(-10.622 -15.122)" fill="#fff" fill-rule="evenodd"/>
      <path id="Path_101502" data-name="Path 101502" d="M322.478-953.84c4.343,0,5.7,2.506,5.7,5.777,0,8.343-7.778,8.363-8.605,8.363h-6.061l2.99-14.14Zm-5.05,11.394h2.142c4.5,0,5.009-4.3,5.009-5.838,0-1.9-1.05-2.808-2.97-2.808h-2.363l-1.818,8.646Z" transform="translate(-11.943 -15.122)" fill="#fff" fill-rule="evenodd"/>
      <path id="Path_101503" data-name="Path 101503" d="M349.609-953.84l2.3,14.14h-3.454l-.345-2.646h-5.13l-1.475,2.646h-3.575l8.3-14.14Zm-1.718,9.091-.706-5.394-2.99,5.394Z" transform="translate(-14.16 -15.122)" fill="#fff" fill-rule="evenodd"/>
      <path id="Path_101504" data-name="Path 101504" d="M369.641-947.416,368-939.74H365.52l.263-1.192h-.04c-1.09,1.314-2.687,1.6-4.424,1.6-3.879,0-5.837-2.283-5.837-6.181,0-3.677,2.06-8.768,8.5-8.768,4.524,0,6.262,2.647,5.918,4.99h-3.474v-.384c0-1.374-1.273-1.859-2.5-1.859-3.17,0-4.848,2.708-4.848,5.737,0,2.344,1.131,3.717,3.252,3.717a3.672,3.672,0,0,0,3.575-2.767h-2.828l.566-2.566Z" transform="translate(-15.752 -15.081)" fill="#fff" fill-rule="evenodd"/>
      <path id="Path_101505" data-name="Path 101505" d="M384.355-948.284l-.545,2.748h-6.949l-.646,3.091h8.02l-.567,2.747H372.3l2.99-14.14h11.19l-.565,2.748h-7.878l-.585,2.808Z" transform="translate(-17.279 -15.122)" fill="#fff" fill-rule="evenodd"/>
      <path id="Path_101506" data-name="Path 101506" d="M392.016-948.628l-1.839,8.929h-3.333l2.99-14.14h3.253l3.9,8.888h.06l1.819-8.888H402.2l-2.989,14.14h-3.273l-3.879-8.929Z" transform="translate(-18.599 -15.122)" fill="#fff" fill-rule="evenodd"/>
      <path id="Path_101507" data-name="Path 101507" d="M404.992-951.092l.585-2.748h11.858l-.586,2.748h-4.262l-2.4,11.393H406.85l2.4-11.393Z" transform="translate(-20.246 -15.122)" fill="#fff" fill-rule="evenodd"/>
    </g>
  </g>
</svg>
