<svg xmlns="http://www.w3.org/2000/svg" width="61" height="62.041" viewBox="0 0 61 62.041">
  <g id="t2-ic8" transform="translate(-3.865 0.5)">
    <path id="Path_101670" data-name="Path 101670" d="M59.077,36.645a.894.894,0,1,0-.528,1.708,5.692,5.692,0,0,1,4.028,5.464V52.5a6.766,6.766,0,0,1-6.759,6.757H18.144a8.674,8.674,0,0,0,.809-.715,8.494,8.494,0,0,0,2.5-6.042V43.818A5.724,5.724,0,0,1,27.174,38.1H54.882a.894.894,0,1,0,0-1.788H49.061V7.506A7.515,7.515,0,0,0,41.555,0H11.871A7.515,7.515,0,0,0,4.365,7.506V52.5a8.555,8.555,0,0,0,8.546,8.546H55.818A8.556,8.556,0,0,0,64.365,52.5V43.818A7.472,7.472,0,0,0,59.077,36.645ZM12.911,59.253A6.765,6.765,0,0,1,6.153,52.5V7.506a5.724,5.724,0,0,1,5.718-5.718H41.555a5.724,5.724,0,0,1,5.718,5.718V36.312h-20.1a7.516,7.516,0,0,0-7.451,6.612H10.435a.894.894,0,0,0,0,1.788h9.233v3.861H10.435a.894.894,0,1,0,0,1.788h9.233V52.5a6.758,6.758,0,0,1-6.757,6.757Z" fill="#5038a1"/>
    <path id="Path_101670_-_Outline" data-name="Path 101670 - Outline" d="M55.818,61.541H12.911A9.056,9.056,0,0,1,3.865,52.5V7.506A8.015,8.015,0,0,1,11.871-.5H41.555a8.015,8.015,0,0,1,8.006,8.006V35.812h5.322a1.394,1.394,0,0,1,0,2.788H27.174a5.224,5.224,0,0,0-5.218,5.218V52.5a8.988,8.988,0,0,1-2.514,6.257H55.818A6.265,6.265,0,0,0,62.077,52.5V43.818A5.194,5.194,0,0,0,58.4,38.831a1.394,1.394,0,1,1,.824-2.664,7.969,7.969,0,0,1,5.64,7.65V52.5A9.057,9.057,0,0,1,55.818,61.541ZM11.871.5A7.014,7.014,0,0,0,4.865,7.506V52.5a8.055,8.055,0,0,0,8.046,8.046H55.818A8.055,8.055,0,0,0,63.865,52.5V43.818a6.974,6.974,0,0,0-4.936-6.7.394.394,0,0,0-.233.753,6.189,6.189,0,0,1,4.38,5.942V52.5a7.266,7.266,0,0,1-7.259,7.257H16.688l1.15-.895a8.206,8.206,0,0,0,.763-.674A8,8,0,0,0,20.956,52.5V43.818A6.225,6.225,0,0,1,27.174,37.6H54.882a.394.394,0,0,0,0-.788H48.561V7.506A7.014,7.014,0,0,0,41.555.5Zm1.04,59.253A7.266,7.266,0,0,1,5.653,52.5V7.506a6.225,6.225,0,0,1,6.218-6.218H41.555a6.225,6.225,0,0,1,6.218,6.218V36.812h-20.6a7.006,7.006,0,0,0-6.955,6.171l-.053.441H10.435a.394.394,0,0,0,0,.788h9.733v4.861H10.435a.394.394,0,1,0,0,.788h9.733V52.5a7.258,7.258,0,0,1-7.257,7.257ZM11.871,2.288A5.224,5.224,0,0,0,6.653,7.506V52.5a6.257,6.257,0,0,0,12.515,0V50.862H10.435a1.394,1.394,0,1,1,0-2.788h8.733V45.212H10.435a1.394,1.394,0,0,1,0-2.788h8.857a8.007,8.007,0,0,1,7.883-6.612h19.6V7.506a5.224,5.224,0,0,0-5.218-5.218Z" fill="#5038a1"/>
    <path id="Path_101671" data-name="Path 101671" d="M35.871,73.214a7.248,7.248,0,0,1,.593,1.9c.3,1.332.638,2.841,1.9,3.573a2.76,2.76,0,0,0,1.048.346v5.275a1.909,1.909,0,0,0,3.26,1.35l1.594-1.594a.123.123,0,0,1,.173,0l1.6,1.6a1.91,1.91,0,0,0,3.261-1.35V79.033a2.761,2.761,0,0,0,1.047-.346c1.265-.732,1.6-2.241,1.9-3.573a7.242,7.242,0,0,1,.594-1.9,6.916,6.916,0,0,1,1.3-1.391c1.026-.932,2.188-1.989,2.188-3.509s-1.163-2.577-2.189-3.509a6.917,6.917,0,0,1-1.3-1.39,5.913,5.913,0,0,1-.509-1.53.894.894,0,0,0-1.743.4,7.2,7.2,0,0,0,.7,2.025,8.183,8.183,0,0,0,1.644,1.817c.788.716,1.6,1.457,1.6,2.186s-.815,1.469-1.6,2.185a8.185,8.185,0,0,0-1.645,1.818,8.541,8.541,0,0,0-.791,2.4c-.23,1.021-.467,2.078-1.054,2.417-.551.318-1.563.008-2.542-.293a8.914,8.914,0,0,0-2.552-.521,8.909,8.909,0,0,0-2.551.521c-.979.3-1.992.612-2.543.293-.587-.34-.824-1.4-1.053-2.417a8.546,8.546,0,0,0-.79-2.4A8.186,8.186,0,0,0,35.775,70.5c-.788-.716-1.6-1.457-1.6-2.186s.815-1.469,1.6-2.186a8.184,8.184,0,0,0,1.644-1.817,8.547,8.547,0,0,0,.79-2.4c.229-1.021.466-2.078,1.053-2.417.551-.318,1.564-.008,2.543.293a8.909,8.909,0,0,0,2.551.521,8.915,8.915,0,0,0,2.552-.521c.967-.3,1.967-.6,2.52-.305a.894.894,0,0,0,.849-1.574c-1.212-.654-2.637-.217-3.895.169a7.7,7.7,0,0,1-2.027.442,7.7,7.7,0,0,1-2.026-.442c-1.283-.394-2.738-.84-3.963-.132-1.265.732-1.6,2.241-1.9,3.573a7.247,7.247,0,0,1-.593,1.9,6.92,6.92,0,0,1-1.3,1.389c-1.026.932-2.189,1.989-2.189,3.509s1.163,2.577,2.189,3.509A6.915,6.915,0,0,1,35.871,73.214Zm6.459,5.34a7.7,7.7,0,0,1,2.026-.442,7.7,7.7,0,0,1,2.027.442c.365.112.744.228,1.127.321v5.431a.108.108,0,0,1-.075.112.109.109,0,0,1-.133-.027l-1.6-1.6a1.915,1.915,0,0,0-2.7,0l-1.6,1.6a.121.121,0,0,1-.207-.085V78.874C41.587,78.782,41.966,78.667,42.331,78.555Z" transform="translate(-24.678 -50.708)" fill="#5038a1"/>
    <path id="Path_101671_-_Outline" data-name="Path 101671 - Outline" d="M47.387,86.718a2.393,2.393,0,0,1-1.7-.707l-1.328-1.328-1.328,1.328a2.393,2.393,0,0,1-1.7.707h0a2.412,2.412,0,0,1-2.411-2.411V79.444a3.185,3.185,0,0,1-.8-.325c-1.454-.842-1.835-2.535-2.14-3.9a6.992,6.992,0,0,0-.538-1.758,6.675,6.675,0,0,0-1.2-1.269c-1.048-.952-2.353-2.138-2.353-3.879s1.3-2.927,2.353-3.879a6.684,6.684,0,0,0,1.2-1.27,6.989,6.989,0,0,0,.538-1.757c.306-1.361.686-3.055,2.14-3.9a3.381,3.381,0,0,1,1.74-.441,9.156,9.156,0,0,1,2.621.527,7.421,7.421,0,0,0,1.879.42,7.418,7.418,0,0,0,1.881-.42,9.145,9.145,0,0,1,2.619-.527,3.407,3.407,0,0,1,1.66.4,1.394,1.394,0,1,1-1.324,2.454.757.757,0,0,0-.343-.062,7.21,7.21,0,0,0-1.793.4,9.289,9.289,0,0,1-2.7.543,9.279,9.279,0,0,1-2.7-.543,7.208,7.208,0,0,0-1.793-.405.739.739,0,0,0-.352.067c-.4.23-.629,1.263-.815,2.094a8.912,8.912,0,0,1-.845,2.543A8.547,8.547,0,0,1,36.111,66.5c-.675.613-1.439,1.308-1.439,1.815s.765,1.2,1.439,1.815a8.548,8.548,0,0,1,1.741,1.937,8.91,8.91,0,0,1,.846,2.543c.186.83.418,1.864.816,2.094a.738.738,0,0,0,.352.067,7.21,7.21,0,0,0,1.794-.405,9.278,9.278,0,0,1,2.7-.543,9.28,9.28,0,0,1,2.7.543,7.21,7.21,0,0,0,1.794.405.738.738,0,0,0,.352-.067c.4-.23.63-1.263.816-2.094a8.909,8.909,0,0,1,.846-2.543,8.543,8.543,0,0,1,1.74-1.937c.676-.614,1.44-1.309,1.44-1.816s-.765-1.2-1.439-1.815a8.544,8.544,0,0,1-1.741-1.937A7.632,7.632,0,0,1,50.1,62.4a1.394,1.394,0,1,1,2.717-.626,5.634,5.634,0,0,0,.455,1.392,6.673,6.673,0,0,0,1.2,1.269c1.049.953,2.354,2.138,2.354,3.88s-1.3,2.927-2.352,3.879a6.675,6.675,0,0,0-1.2,1.271,6.983,6.983,0,0,0-.539,1.757c-.306,1.361-.687,3.055-2.141,3.9a3.2,3.2,0,0,1-.8.326v4.863a2.413,2.413,0,0,1-2.412,2.411Zm-3.03-3.191a.617.617,0,0,1,.439.181l1.6,1.6a1.41,1.41,0,0,0,2.407-1V78.592l.437-.056a2.251,2.251,0,0,0,.86-.283c1.075-.622,1.375-1.958,1.666-3.25a7.538,7.538,0,0,1,.649-2.039,7.2,7.2,0,0,1,1.4-1.51c1-.9,2.025-1.84,2.025-3.139s-1.03-2.235-2.025-3.139a7.2,7.2,0,0,1-1.4-1.509A6.311,6.311,0,0,1,51.846,62a.394.394,0,1,0-.768.177,6.778,6.778,0,0,0,.65,1.886,7.829,7.829,0,0,0,1.548,1.7c.869.789,1.767,1.605,1.767,2.556s-.9,1.766-1.766,2.555a7.834,7.834,0,0,0-1.548,1.7,8.184,8.184,0,0,0-.736,2.26c-.253,1.127-.515,2.292-1.292,2.741a1.664,1.664,0,0,1-.853.2,7.766,7.766,0,0,1-2.085-.449,8.559,8.559,0,0,0-2.407-.5,8.548,8.548,0,0,0-2.4.5,7.777,7.777,0,0,1-2.087.449,1.664,1.664,0,0,1-.853-.2c-.777-.449-1.038-1.614-1.291-2.74a8.19,8.19,0,0,0-.735-2.262,7.833,7.833,0,0,0-1.548-1.7c-.869-.789-1.767-1.605-1.767-2.556s.9-1.766,1.766-2.555a7.837,7.837,0,0,0,1.549-1.7,8.191,8.191,0,0,0,.735-2.261c.253-1.126.514-2.291,1.291-2.74a1.665,1.665,0,0,1,.853-.2,7.775,7.775,0,0,1,2.087.449,8.549,8.549,0,0,0,2.4.5,8.55,8.55,0,0,0,2.4-.5,7.784,7.784,0,0,1,2.088-.45,1.686,1.686,0,0,1,.818.182.389.389,0,0,0,.187.048.394.394,0,0,0,.188-.741,2.434,2.434,0,0,0-1.185-.276,8.278,8.278,0,0,0-2.326.483,8.013,8.013,0,0,1-2.174.464,8.012,8.012,0,0,1-2.172-.464,8.291,8.291,0,0,0-2.327-.484,2.41,2.41,0,0,0-1.239.307c-1.075.622-1.375,1.958-1.665,3.25a7.546,7.546,0,0,1-.648,2.039,7.206,7.206,0,0,1-1.4,1.509c-1,.9-2.025,1.84-2.025,3.139s1.03,2.235,2.025,3.139a7.2,7.2,0,0,1,1.4,1.509A7.542,7.542,0,0,1,36.952,75c.29,1.293.59,2.629,1.666,3.251a2.25,2.25,0,0,0,.86.282l.437.055v5.716a1.409,1.409,0,0,0,2.406,1l1.594-1.594A.621.621,0,0,1,44.357,83.527Zm3.025,1.4a.6.6,0,0,1-.434-.185l-1.6-1.6a1.415,1.415,0,0,0-1.994,0l-1.595,1.595a.6.6,0,0,1-.434.185.635.635,0,0,1-.244-.05.6.6,0,0,1-.383-.574V78.481l.382-.092c.357-.086.708-.192,1.1-.312a8.012,8.012,0,0,1,2.173-.464,8.013,8.013,0,0,1,2.173.464c.357.11.726.223,1.1.313l.382.093v5.825a.6.6,0,0,1-.384.574A.637.637,0,0,1,47.383,84.931ZM44.357,81.74a2.4,2.4,0,0,1,1.7.7l.951.951V79.262c-.27-.075-.533-.155-.774-.229a7.421,7.421,0,0,0-1.88-.42,7.418,7.418,0,0,0-1.879.42c-.269.083-.522.159-.773.229v4.131l.949-.949A2.4,2.4,0,0,1,44.357,81.74Z" transform="translate(-24.678 -50.708)" fill="#5038a1"/>
    <path id="Path_101672" data-name="Path 101672" d="M85.66,94.15a6.383,6.383,0,1,0,6.383,6.383A6.39,6.39,0,0,0,85.66,94.15Zm0,10.978a4.595,4.595,0,1,1,4.595-4.595A4.6,4.6,0,0,1,85.66,105.128Z" transform="translate(-65.981 -82.925)" fill="#5038a1"/>
    <path id="Path_101672_-_Outline" data-name="Path 101672 - Outline" d="M85.66,93.65a6.883,6.883,0,1,1-6.883,6.883A6.891,6.891,0,0,1,85.66,93.65Zm0,12.766a5.883,5.883,0,1,0-5.883-5.883A5.89,5.89,0,0,0,85.66,106.416Zm0-10.978a5.095,5.095,0,1,1-5.095,5.095A5.1,5.1,0,0,1,85.66,95.438Zm0,9.189a4.095,4.095,0,1,0-4.095-4.095A4.1,4.1,0,0,0,85.66,104.628Z" transform="translate(-65.981 -82.925)" fill="#5038a1"/>
    <path id="Path_101673" data-name="Path 101673" d="M245.024,95.938h10.127a.894.894,0,0,0,0-1.788H245.024a.894.894,0,0,0,0,1.788Z" transform="translate(-211.18 -82.925)" fill="#5038a1"/>
    <path id="Path_101673_-_Outline" data-name="Path 101673 - Outline" d="M255.152,96.438H245.024a1.394,1.394,0,1,1,0-2.788h10.127a1.394,1.394,0,1,1,0,2.788ZM245.024,94.65a.394.394,0,1,0,0,.788h10.127a.394.394,0,1,0,0-.788Z" transform="translate(-211.18 -82.925)" fill="#5038a1"/>
    <path id="Path_101674" data-name="Path 101674" d="M245.024,141.978h10.127a.894.894,0,0,0,0-1.788H245.024a.894.894,0,0,0,0,1.788Z" transform="translate(-211.18 -123.476)" fill="#5038a1"/>
    <path id="Path_101674_-_Outline" data-name="Path 101674 - Outline" d="M255.152,142.478H245.024a1.394,1.394,0,1,1,0-2.788h10.127a1.394,1.394,0,0,1,0,2.788Zm-10.127-1.788a.394.394,0,1,0,0,.788h10.127a.394.394,0,0,0,0-.788Z" transform="translate(-211.18 -123.476)" fill="#5038a1"/>
    <path id="Path_101675" data-name="Path 101675" d="M245.024,188.019h10.127a.894.894,0,1,0,0-1.788H245.024a.894.894,0,1,0,0,1.788Z" transform="translate(-211.18 -164.028)" fill="#5038a1"/>
    <path id="Path_101675_-_Outline" data-name="Path 101675 - Outline" d="M255.152,188.519H245.024a1.394,1.394,0,1,1,0-2.788h10.127a1.394,1.394,0,1,1,0,2.788Zm-10.127-1.788a.394.394,0,1,0,0,.788h10.127a.394.394,0,1,0,0-.788Z" transform="translate(-211.18 -164.028)" fill="#5038a1"/>
    <path id="Path_101676" data-name="Path 101676" d="M245.024,234.912h10.127a.894.894,0,1,0,0-1.788H245.024a.894.894,0,1,0,0,1.788Z" transform="translate(-211.18 -205.331)" fill="#5038a1"/>
    <path id="Path_101676_-_Outline" data-name="Path 101676 - Outline" d="M255.152,235.412H245.024a1.394,1.394,0,1,1,0-2.788h10.127a1.394,1.394,0,1,1,0,2.788Zm-10.127-1.788a.394.394,0,1,0,0,.788h10.127a.394.394,0,1,0,0-.788Z" transform="translate(-211.18 -205.331)" fill="#5038a1"/>
  </g>
</svg>
