<svg xmlns="http://www.w3.org/2000/svg" width="190" height="210" viewBox="0 0 190 210">
  <g id="t2-ic1" transform="translate(-180 -749)">
    <path id="Rectangle_7795" data-name="Rectangle 7795" d="M2.5,2.5v205h112V2.5H2.5M0,0H117V210H0Z" transform="translate(180 749)" fill="#ffdc72"/>
    <g id="Group_53943" data-name="Group 53943" transform="translate(223.161 774)">
      <path id="Path_101087" data-name="Path 101087" d="M63.638,49.964a8.488,8.488,0,0,1,8.486-8.486H94.76a8.489,8.489,0,0,0-8.49,8.486V63.128H67.879a4.241,4.241,0,0,1-4.241-4.241V49.964Z" transform="translate(-61.777 -39.618)" fill="#d2e1f1"/>
      <path id="Path_101088" data-name="Path 101088" d="M87.409,41.467H160.97a8.493,8.493,0,0,1,8.49,8.49V159.088H104.385A8.488,8.488,0,0,1,95.9,150.6V49.958a8.493,8.493,0,0,0-8.49-8.49Z" transform="translate(-76.705 -39.611)" fill="#f3f9ff"/>
      <g id="Group_55720" data-name="Group 55720" transform="translate(49.409 9.35)">
        <path id="Path_101089" data-name="Path 101089" d="M218.5,63.473a1.86,1.86,0,0,0-1.86-1.86H193.315a1.86,1.86,0,0,0-1.86,1.86v68.374H218.5Z" transform="translate(-191.455 -61.613)" fill="#fff1db"/>
      </g>
      <g id="Group_55735" data-name="Group 55735" transform="translate(27.273 76.316)">
        <g id="Group_55728" data-name="Group 55728" transform="translate(0 0)">
          <g id="Group_55727" data-name="Group 55727">
            <g id="Group_55722" data-name="Group 55722" transform="translate(41.758)">
              <g id="Group_55721" data-name="Group 55721">
                <path id="Path_101090" data-name="Path 101090" d="M257.409,243.49a1.86,1.86,0,0,0-1.86-1.86h-9.487a1.86,1.86,0,1,0,0,3.72h9.487A1.86,1.86,0,0,0,257.409,243.49Z" transform="translate(-244.202 -241.63)" fill="#8c6df2"/>
              </g>
            </g>
            <g id="Group_55724" data-name="Group 55724">
              <g id="Group_55723" data-name="Group 55723">
                <path id="Path_101091" data-name="Path 101091" d="M167.933,243.49a1.86,1.86,0,0,0-1.86-1.86H133.809a1.86,1.86,0,1,0,0,3.72h32.264A1.86,1.86,0,0,0,167.933,243.49Z" transform="translate(-131.949 -241.63)" fill="#8c6df2"/>
              </g>
            </g>
            <g id="Group_55726" data-name="Group 55726" transform="translate(0 8.269)">
              <g id="Group_55725" data-name="Group 55725">
                <path id="Path_101092" data-name="Path 101092" d="M131.949,265.718a1.86,1.86,0,0,0,1.86,1.86H147.35v-3.72H133.809A1.86,1.86,0,0,0,131.949,265.718Z" transform="translate(-131.949 -263.858)" fill="#8c6df2"/>
              </g>
            </g>
          </g>
        </g>
        <g id="Group_55734" data-name="Group 55734" transform="translate(0 16.538)">
          <g id="Group_55733" data-name="Group 55733">
            <g id="Group_55730" data-name="Group 55730">
              <g id="Group_55729" data-name="Group 55729">
                <path id="Path_101093" data-name="Path 101093" d="M131.949,287.946a1.86,1.86,0,0,0,1.86,1.86H147.35v-3.72H133.809A1.86,1.86,0,0,0,131.949,287.946Z" transform="translate(-131.949 -286.086)" fill="#8c6df2"/>
              </g>
            </g>
            <g id="Group_55732" data-name="Group 55732" transform="translate(0 8.269)">
              <g id="Group_55731" data-name="Group 55731">
                <path id="Path_101094" data-name="Path 101094" d="M131.949,310.174a1.86,1.86,0,0,0,1.86,1.86H147.35v-3.72H133.809A1.86,1.86,0,0,0,131.949,310.174Z" transform="translate(-131.949 -308.314)" fill="#8c6df2"/>
              </g>
            </g>
          </g>
        </g>
      </g>
      <path id="Path_101095" data-name="Path 101095" d="M134.667,290.308a8.488,8.488,0,0,0,8.486-8.486V258.9A8.483,8.483,0,0,1,149,250.839a8.383,8.383,0,0,1,2.648-.424h22.631a8.488,8.488,0,0,0-8.486,8.486v31.407Z" transform="translate(-106.383 -170.831)" fill="#d2e1f1"/>
      <path id="Path_101096" data-name="Path 101096" d="M255.206,250.415a8.489,8.489,0,0,1,8.49,8.486v69.6H198.621a8.488,8.488,0,0,1-8.486-8.486V258.9a8.489,8.489,0,0,0-8.49-8.486Z" transform="translate(-135.886 -170.831)" fill="#f3f9ff"/>
      <path id="Path_101097" data-name="Path 101097" d="M234.729,333.757a1.86,1.86,0,0,1-1.86-1.86V275.718a1.86,1.86,0,0,1,1.86-1.86h18.625a1.86,1.86,0,0,1,1.86,1.86V331.9a1.86,1.86,0,0,1-1.86,1.86Z" transform="translate(-168.054 -185.553)" fill="#fff1db"/>
      <path id="Path_101098" data-name="Path 101098" d="M181.65,250.415h14.362" transform="translate(-135.889 -170.831)" fill="#daffee"/>
      <path id="Path_101099" data-name="Path 101099" d="M227.807,427.37a8.489,8.489,0,0,0,8.486-8.49v-6.792a4.244,4.244,0,0,1,4.245-4.241h65.071a4.244,4.244,0,0,1,4.245,4.241v6.792a8.489,8.489,0,0,1-8.486,8.49Z" transform="translate(-164.875 -269.699)" fill="#d2e1f1"/>
      <path id="Path_101100" data-name="Path 101100" d="M68.982,36.478A10.359,10.359,0,0,0,58.635,46.826v8.92a6.111,6.111,0,0,0,6.1,6.1h.679a1.86,1.86,0,0,0,0-3.72h-.679a2.387,2.387,0,0,1-2.384-2.384v-8.92A6.635,6.635,0,0,1,68.982,40.2h.36a6.635,6.635,0,0,1,6.628,6.628V147.467a10.36,10.36,0,0,0,10.348,10.348h24.705v2.759a1.86,1.86,0,0,0,3.72,0V124.55a10.3,10.3,0,0,0-2.407-6.628h65.619a6.635,6.635,0,0,1,6.628,6.628v48.218H134.3a6.111,6.111,0,0,0-6.1,6.1v6.79a6.635,6.635,0,0,1-6.628,6.628h-.194a6.636,6.636,0,0,1-6.628-6.628V173.156a1.86,1.86,0,0,0-3.72,0v12.505a10.36,10.36,0,0,0,10.348,10.348h73.754a10.359,10.359,0,0,0,10.348-10.348v-6.79a6.111,6.111,0,0,0-6.1-6.1H188.3V124.55A10.36,10.36,0,0,0,177.957,114.2H153.251V46.826A10.36,10.36,0,0,0,142.9,36.478ZM134.3,176.488h65.072a2.387,2.387,0,0,1,2.384,2.384v6.79a6.636,6.636,0,0,1-6.628,6.628h-65.62a10.3,10.3,0,0,0,2.407-6.628v-6.79A2.387,2.387,0,0,1,134.3,176.488Zm-23.273-22.394H94.859a10.3,10.3,0,0,0,2.407-6.627V124.55a6.635,6.635,0,0,1,6.628-6.628,1.8,1.8,0,0,0,.251-.025,1.863,1.863,0,0,0,.251.025,6.635,6.635,0,0,1,6.628,6.628v29.545ZM79.691,46.826A10.3,10.3,0,0,0,77.284,40.2H142.9a6.636,6.636,0,0,1,6.628,6.628V114.2H103.893A10.359,10.359,0,0,0,93.546,124.55v22.917a6.635,6.635,0,0,1-6.628,6.627h-.6a6.636,6.636,0,0,1-6.628-6.628V46.826Z" transform="translate(-58.635 -36.478)" fill="#12263f"/>
      <g id="Group_55736" data-name="Group 55736" transform="translate(33.661 11.052)">
        <path id="Path_101101" data-name="Path 101101" d="M224.9,111.957a5.879,5.879,0,0,0,5.872,5.872h2.256a5.879,5.879,0,0,0,5.872-5.872,3.571,3.571,0,0,0-1.672-3.02L233.694,95.7a1.86,1.86,0,0,0-3.594,0l-3.531,13.233a3.571,3.571,0,0,0-1.672,3.02Zm7-8.56,1.331,4.986h-2.661Zm-3.275,8.706h6.551a2.155,2.155,0,0,1-2.147,2.006h-2.256A2.156,2.156,0,0,1,228.622,112.1Z" transform="translate(-196.709 -83.856)" fill="#5038a1"/>
        <path id="Path_101102" data-name="Path 101102" d="M150.794,108.937a3.572,3.572,0,0,0-1.672,3.02,5.879,5.879,0,0,0,5.872,5.872h2.256a5.879,5.879,0,0,0,5.872-5.872,3.571,3.571,0,0,0-1.672-3.02L157.919,95.7a1.86,1.86,0,0,0-3.594,0l-3.531,13.233Zm5.328-5.539,1.331,4.986h-2.661Zm-3.275,8.706H159.4a2.155,2.155,0,0,1-2.147,2.006h-2.256A2.156,2.156,0,0,1,152.847,112.1Z" transform="translate(-149.122 -83.856)" fill="#5038a1"/>
        <path id="Path_101103" data-name="Path 101103" d="M163.119,102.886a1.86,1.86,0,1,0,0,3.72h19.234a1.86,1.86,0,0,0,0-3.72H174.6V73.628h15.882a1.86,1.86,0,1,0,0-3.72H174.6V68.047a1.86,1.86,0,1,0-3.72,0v1.861H154.995a1.86,1.86,0,1,0,0,3.72h15.882v29.257Z" transform="translate(-151.642 -66.187)" fill="#5038a1"/>
      </g>
      <g id="Group_55750" data-name="Group 55750" transform="translate(63.386 93.011)">
        <g id="Group_55749" data-name="Group 55749" transform="translate(0 0)">
          <g id="Group_55738" data-name="Group 55738" transform="translate(41.758)">
            <g id="Group_55737" data-name="Group 55737">
              <path id="Path_101104" data-name="Path 101104" d="M354.488,288.368a1.86,1.86,0,0,0-1.86-1.86h-9.487a1.86,1.86,0,1,0,0,3.72h9.487A1.86,1.86,0,0,0,354.488,288.368Z" transform="translate(-341.281 -286.508)" fill="#8c6df2"/>
            </g>
          </g>
          <g id="Group_55740" data-name="Group 55740">
            <g id="Group_55739" data-name="Group 55739">
              <path id="Path_101105" data-name="Path 101105" d="M263.152,290.228a1.86,1.86,0,0,0,0-3.72H230.888a1.86,1.86,0,0,0,0,3.72Z" transform="translate(-229.028 -286.508)" fill="#8c6df2"/>
            </g>
          </g>
          <g id="Group_55742" data-name="Group 55742" transform="translate(47.452 8.269)">
            <g id="Group_55741" data-name="Group 55741">
              <path id="Path_101106" data-name="Path 101106" d="M364.1,310.6a1.86,1.86,0,0,0-1.86-1.86h-3.793a1.86,1.86,0,0,0,0,3.72h3.793A1.86,1.86,0,0,0,364.1,310.6Z" transform="translate(-356.588 -308.737)" fill="#8c6df2"/>
            </g>
          </g>
          <g id="Group_55744" data-name="Group 55744" transform="translate(0 8.269)">
            <g id="Group_55743" data-name="Group 55743">
              <path id="Path_101107" data-name="Path 101107" d="M270.707,310.6a1.86,1.86,0,0,0-1.86-1.86H230.888a1.86,1.86,0,0,0,0,3.72h37.959A1.86,1.86,0,0,0,270.707,310.6Z" transform="translate(-229.028 -308.737)" fill="#8c6df2"/>
            </g>
          </g>
          <g id="Group_55746" data-name="Group 55746" transform="translate(0 16.538)">
            <g id="Group_55745" data-name="Group 55745">
              <path id="Path_101108" data-name="Path 101108" d="M282.134,334.685a1.86,1.86,0,0,0,0-3.72H230.889a1.86,1.86,0,1,0,0,3.72Z" transform="translate(-229.029 -330.965)" fill="#8c6df2"/>
            </g>
          </g>
          <g id="Group_55748" data-name="Group 55748" transform="translate(0.001 24.807)">
            <g id="Group_55747" data-name="Group 55747">
              <path id="Path_101109" data-name="Path 101109" d="M286.746,355.053a1.86,1.86,0,0,0,1.86,1.86H318.38a1.86,1.86,0,0,0,1.851-2.043,1.914,1.914,0,0,0-1.931-1.677H288.606A1.86,1.86,0,0,0,286.746,355.053Z" transform="translate(-265.276 -353.193)" fill="#8c6df2"/>
              <path id="Path_101110" data-name="Path 101110" d="M229.038,354.87a1.86,1.86,0,0,0,1.851,2.043h12.358a1.86,1.86,0,0,0,0-3.72H230.969A1.913,1.913,0,0,0,229.038,354.87Z" transform="translate(-229.029 -353.193)" fill="#8c6df2"/>
            </g>
          </g>
        </g>
      </g>
      <g id="Group_55760" data-name="Group 55760" transform="translate(27.273 59.779)">
        <g id="Group_55759" data-name="Group 55759" transform="translate(0)">
          <g id="Group_55752" data-name="Group 55752" transform="translate(41.758)">
            <g id="Group_55751" data-name="Group 55751">
              <path id="Path_101111" data-name="Path 101111" d="M257.409,199.034a1.86,1.86,0,0,0-1.86-1.86h-9.487a1.86,1.86,0,1,0,0,3.72h9.487A1.86,1.86,0,0,0,257.409,199.034Z" transform="translate(-244.202 -197.174)" fill="#ffb74d"/>
            </g>
          </g>
          <g id="Group_55754" data-name="Group 55754">
            <g id="Group_55753" data-name="Group 55753">
              <path id="Path_101112" data-name="Path 101112" d="M167.933,199.034a1.86,1.86,0,0,0-1.86-1.86H133.809a1.86,1.86,0,1,0,0,3.72h32.264A1.86,1.86,0,0,0,167.933,199.034Z" transform="translate(-131.949 -197.174)" fill="#ffb74d"/>
            </g>
          </g>
          <g id="Group_55756" data-name="Group 55756" transform="translate(47.452 8.269)">
            <g id="Group_55755" data-name="Group 55755">
              <path id="Path_101113" data-name="Path 101113" d="M267.022,221.262a1.86,1.86,0,0,0-1.86-1.86h-3.793a1.86,1.86,0,0,0,0,3.72h3.793A1.86,1.86,0,0,0,267.022,221.262Z" transform="translate(-259.509 -219.402)" fill="#ffb74d"/>
            </g>
          </g>
          <g id="Group_55758" data-name="Group 55758" transform="translate(0 8.269)">
            <g id="Group_55757" data-name="Group 55757">
              <path id="Path_101114" data-name="Path 101114" d="M173.628,221.262a1.86,1.86,0,0,0-1.86-1.86H133.809a1.86,1.86,0,1,0,0,3.72h37.959A1.86,1.86,0,0,0,173.628,221.262Z" transform="translate(-131.949 -219.402)" fill="#ffb74d"/>
            </g>
          </g>
        </g>
      </g>
      <g id="Group_55764" data-name="Group 55764" transform="translate(63.386 126.086)">
        <g id="Group_55763" data-name="Group 55763" transform="translate(0)">
          <g id="Group_55762" data-name="Group 55762">
            <g id="Group_55761" data-name="Group 55761">
              <path id="Path_101115" data-name="Path 101115" d="M282.134,379.141a1.86,1.86,0,0,0,0-3.72H230.889a1.86,1.86,0,0,0,0,3.72Z" transform="translate(-229.029 -375.421)" fill="#ffb74d"/>
            </g>
          </g>
        </g>
      </g>
    </g>
  </g>
</svg>
