<svg xmlns="http://www.w3.org/2000/svg" width="60" height="60.001" viewBox="0 0 60 60.001">
  <g id="t2-ic7" transform="translate(-0.003)">
    <path id="Path_101654" data-name="Path 101654" d="M1.175,11.719H7.034V55.313A4.693,4.693,0,0,0,11.722,60H30.589a1.172,1.172,0,1,0,0-2.344H15.779a4.657,4.657,0,0,0,.631-2.344V52.969h38.2v2.344a2.346,2.346,0,0,1-2.344,2.344H41.136a1.172,1.172,0,1,0,0,2.344H52.269a4.693,4.693,0,0,0,4.688-4.688V51.8a1.172,1.172,0,0,0-1.172-1.172H49.925V22.132A99.584,99.584,0,0,0,59.887,6.37a1.175,1.175,0,0,0-.761-1.645l-.009,0a34.4,34.4,0,0,0-9.585-.979A5.877,5.877,0,0,0,44.066,0H4.69A4.693,4.693,0,0,0,0,4.688v5.859a1.172,1.172,0,0,0,1.172,1.172Zm44.343,12.13c-.551.647-1.137,1.295-1.745,1.932H37.035a1.172,1.172,0,0,0-1.048,1.7l1.843,3.686a70.47,70.47,0,0,1-8.46,5.727,34.133,34.133,0,0,1,6.548-15.8H44.2a1.172,1.172,0,1,0,0-2.344H37.83a36.407,36.407,0,0,1,5.04-4.688h6.25a1.172,1.172,0,1,0,0-2.344H46.309A36.512,36.512,0,0,1,56.656,7.494,98.557,98.557,0,0,1,45.518,23.849ZM28.879,29.2c.351-5.71,1.737-12.679,5.951-17.136L33.9,19.782c0,.034-.006.069-.007.1A37.016,37.016,0,0,0,28.879,29.2ZM36.65,16.565l.81-6.751a19.848,19.848,0,0,1,6-2.794l-2.535,5.37a1.169,1.169,0,0,0-.093.291,38.752,38.752,0,0,0-4.182,3.884Zm14.125-10.5c.736,0,1.442.026,2.106.068a38.987,38.987,0,0,0-8.23,3.854L46.346,6.4A28.685,28.685,0,0,1,50.776,6.064Zm-6.71-3.721a3.526,3.526,0,0,1,2.945,1.6A22.82,22.82,0,0,0,33.893,9.689c-4.847,4.51-6.736,11.659-7.283,18.289a56.249,56.249,0,0,0,.184,11.046l-.226,3.164H12.894a1.172,1.172,0,1,0,0,2.344H32.347a1.172,1.172,0,1,0,0-2.344H28.918l.176-2.462a70.356,70.356,0,0,0,10.948-7.333,1.172,1.172,0,0,0,.308-1.433l-1.418-2.836h5.34a1.172,1.172,0,0,0,.84-.354c.767-.787,1.5-1.6,2.191-2.4.094-.11.187-.222.28-.332V50.626H15.237A1.172,1.172,0,0,0,14.066,51.8v3.516a2.344,2.344,0,1,1-4.688,0V4.688a4.657,4.657,0,0,0-.631-2.344ZM2.347,4.688a2.344,2.344,0,1,1,4.688,0V9.375H2.347Z" fill="#5038a1"/>
    <path id="Path_101655" data-name="Path 101655" d="M101.175,322.344h10.078a1.172,1.172,0,1,0,0-2.344H101.175a1.172,1.172,0,1,0,0,2.344Z" transform="translate(-88.281 -282.5)" fill="#5038a1"/>
    <path id="Path_101656" data-name="Path 101656" d="M110.034,74.063A7.031,7.031,0,1,0,103,67.031,7.039,7.039,0,0,0,110.034,74.063Zm0-11.719a4.688,4.688,0,1,1-4.688,4.688A4.693,4.693,0,0,1,110.034,62.344Z" transform="translate(-90.93 -52.969)" fill="#5038a1"/>
    <circle id="Ellipse_4112" data-name="Ellipse 4112" cx="1.172" cy="1.172" r="1.172" transform="translate(34.691 57.657)" fill="#5038a1"/>
  </g>
</svg>
