<svg xmlns="http://www.w3.org/2000/svg" width="280" height="283" viewBox="0 0 280 283">
  <g id="t2-k2" transform="translate(-285 -188)">
    <path id="Rectangle_7847" data-name="Rectangle 7847" d="M2.5,2.5v261h260V2.5H2.5M0,0H265V266H0Z" transform="translate(300 205)" fill="#ffdc72"/>
    <rect id="Rectangle_7848" data-name="Rectangle 7848" width="263" height="266" transform="translate(285 188)" fill="#fff8e3"/>
    <g id="Group_55948" data-name="Group 55948" transform="translate(-1186.156 849.564)">
      <path id="Path_101253" data-name="Path 101253" d="M1680.282-615.093v178.085a10.468,10.468,0,0,1-10.471,10.471H1548.585a10.472,10.472,0,0,1-10.471-10.471V-615.093a10.472,10.472,0,0,1,10.471-10.471h121.226A10.468,10.468,0,0,1,1680.282-615.093Z" transform="translate(-4.744 -2.383)" fill="#ffc571"/>
      <path id="Path_101254" data-name="Path 101254" d="M1664.319-540.332v131.943a10.9,10.9,0,0,1-10.586,10.885c.1.005.209.021.314.021H1543.805a10.852,10.852,0,0,1-5.691-1.6v-23.487h15.969v-117.76a5.231,5.231,0,0,1,5.236-5.236h99.765a5.234,5.234,0,0,1,5.235,5.236Z" transform="translate(-4.744 -40.496)" fill="#ffb74d"/>
      <path id="Path_101255" data-name="Path 101255" d="M1678.85-592.3V-443.77a10.907,10.907,0,0,1-10.9,10.9h-99.336V-592.3a5.231,5.231,0,0,1,5.236-5.235h99.765A5.234,5.234,0,0,1,1678.85-592.3Z" transform="translate(-19.276 -15.739)" fill="#fff"/>
      <g id="Group_55924" data-name="Group 55924" transform="translate(1631.603 -488.224)">
        <path id="Path_101256" data-name="Path 101256" d="M1733.174-336.4c-.069,0-.138,0-.208-.009a2.366,2.366,0,0,1-1.989-1.478l-2.559-6.4a.338.338,0,0,0-.316-.214,2.364,2.364,0,0,1-2.365-2.364,2.364,2.364,0,0,1,2.365-2.364,5.045,5.045,0,0,1,4.706,3.186l.822,2.054,8.432-13.587a2.364,2.364,0,0,1,3.255-.762,2.364,2.364,0,0,1,.762,3.256l-10.9,17.562a2.36,2.36,0,0,1-2.007,1.117Z" transform="translate(-1725.738 358.696)" fill="#ffb74d"/>
      </g>
      <g id="Group_55926" data-name="Group 55926" transform="translate(1559.361 -482.074)">
        <g id="Group_55925" data-name="Group 55925" transform="translate(0 0)">
          <path id="Path_101257" data-name="Path 101257" d="M1596.407-341.713h-6.031a2.618,2.618,0,0,1-2.618-2.618,2.618,2.618,0,0,1,2.618-2.618h6.031a2.618,2.618,0,0,1,2.618,2.618A2.618,2.618,0,0,1,1596.407-341.713Z" transform="translate(-1587.758 346.949)" fill="#5038a1"/>
        </g>
      </g>
      <path id="Path_101258" data-name="Path 101258" d="M1676.981-597.2v10.361a5.237,5.237,0,0,1-5.235,5.236H1613.4a5.238,5.238,0,0,1-5.236-5.236V-597.2Z" transform="translate(-38.119 -15.894)" fill="#f6f6f6"/>
      <path id="Path_101259" data-name="Path 101259" d="M1671.748-602.2H1613.4a5.236,5.236,0,0,1-5.236-5.236v-18.126h68.815v18.126A5.235,5.235,0,0,1,1671.748-602.2Z" transform="translate(-38.121 -2.382)" fill="#12263f"/>
      <path id="Path_101260" data-name="Path 101260" d="M1667.431-426.3H1546.206a13.1,13.1,0,0,1-13.089-13.089v-74.917a2.618,2.618,0,0,1,2.618-2.618,2.618,2.618,0,0,1,2.618,2.618v74.917a7.863,7.863,0,0,0,7.854,7.854h121.224a7.863,7.863,0,0,0,7.853-7.854V-617.476a7.862,7.862,0,0,0-7.853-7.853h-37.5a2.618,2.618,0,0,1-2.618-2.618,2.618,2.618,0,0,1,2.618-2.618h37.5a13.1,13.1,0,0,1,13.089,13.089V-439.39a13.1,13.1,0,0,1-13.089,13.089Z" transform="translate(-2.364 0)" fill="#12263f"/>
      <path id="Path_101261" data-name="Path 101261" d="M1535.735-527a2.618,2.618,0,0,1-2.618-2.618v-87.853a13.1,13.1,0,0,1,13.089-13.089h68.408a2.618,2.618,0,0,1,2.618,2.618,2.618,2.618,0,0,1-2.618,2.618h-68.408a7.862,7.862,0,0,0-7.854,7.853v87.853A2.618,2.618,0,0,1,1535.735-527Z" transform="translate(-2.364 0)" fill="#12263f"/>
      <path id="Path_101262" data-name="Path 101262" d="M1649.3-305.859H1539.062a10.91,10.91,0,0,1-10.906-10.911v-8.942a5.235,5.235,0,0,1,5.235-5.236h99.77a5.235,5.235,0,0,1,5.236,5.236v8.942a10.91,10.91,0,0,0,10.906,10.911Z" transform="translate(0 -142.748)" fill="#e8e8e8"/>
      <g id="Group_55929" data-name="Group 55929" transform="translate(1577.361 -615.55)">
        <g id="Group_55927" data-name="Group 55927" transform="translate(0 0)">
          <circle id="Ellipse_4060" data-name="Ellipse 4060" cx="2.449" cy="2.449" r="2.449" transform="translate(7.749)" fill="#f3f9ff"/>
          <circle id="Ellipse_4061" data-name="Ellipse 4061" cx="2.449" cy="2.449" r="2.449" fill="#f3f9ff"/>
        </g>
        <g id="Group_55928" data-name="Group 55928" transform="translate(41.54 0)">
          <circle id="Ellipse_4062" data-name="Ellipse 4062" cx="2.449" cy="2.449" r="2.449" transform="translate(7.749)" fill="#f3f9ff"/>
          <circle id="Ellipse_4063" data-name="Ellipse 4063" cx="2.449" cy="2.449" r="2.449" fill="#f3f9ff"/>
        </g>
      </g>
      <path id="Path_101263" data-name="Path 101263" d="M1733.174-444.578c-.069,0-.138,0-.208-.009a2.366,2.366,0,0,1-1.989-1.477l-2.559-6.4a.338.338,0,0,0-.316-.214,2.365,2.365,0,0,1-2.365-2.365,2.364,2.364,0,0,1,2.365-2.364,5.045,5.045,0,0,1,4.706,3.186l.822,2.054,8.432-13.587a2.364,2.364,0,0,1,3.255-.762,2.364,2.364,0,0,1,.762,3.256l-10.9,17.562a2.361,2.361,0,0,1-2.007,1.117Z" transform="translate(-94.135 -77.991)" fill="#ffb74d"/>
      <g id="Group_55930" data-name="Group 55930" transform="translate(1559.361 -528.222)">
        <path id="Path_101264" data-name="Path 101264" d="M1619.968-429.855h-29.592a2.618,2.618,0,0,1-2.618-2.618,2.618,2.618,0,0,1,2.618-2.618h29.592a2.618,2.618,0,0,1,2.618,2.618A2.618,2.618,0,0,1,1619.968-429.855Z" transform="translate(-1587.758 435.091)" fill="#5038a1"/>
      </g>
      <g id="Group_55931" data-name="Group 55931" transform="translate(1601.644 -528.222)">
        <path id="Path_101265" data-name="Path 101265" d="M1682.4-429.855h-11.267a2.618,2.618,0,0,1-2.618-2.618,2.618,2.618,0,0,1,2.618-2.618H1682.4a2.618,2.618,0,0,1,2.618,2.618A2.618,2.618,0,0,1,1682.4-429.855Z" transform="translate(-1668.517 435.091)" fill="#5038a1"/>
      </g>
      <g id="Group_55932" data-name="Group 55932" transform="translate(1559.361 -538.71)">
        <path id="Path_101266" data-name="Path 101266" d="M1596.407-449.887h-6.031a2.618,2.618,0,0,1-2.618-2.618,2.618,2.618,0,0,1,2.618-2.618h6.031a2.618,2.618,0,0,1,2.618,2.618A2.618,2.618,0,0,1,1596.407-449.887Z" transform="translate(-1587.758 455.123)" fill="#5038a1"/>
      </g>
      <g id="Group_55933" data-name="Group 55933" transform="translate(1631.603 -572.385)">
        <path id="Path_101267" data-name="Path 101267" d="M1733.174-497.151c-.069,0-.138,0-.208-.009a2.366,2.366,0,0,1-1.989-1.477l-2.559-6.4a.338.338,0,0,0-.316-.214,2.364,2.364,0,0,1-2.365-2.364,2.364,2.364,0,0,1,2.365-2.364,5.045,5.045,0,0,1,4.706,3.186l.822,2.055,8.432-13.587a2.364,2.364,0,0,1,3.255-.762,2.364,2.364,0,0,1,.762,3.256l-10.9,17.562a2.361,2.361,0,0,1-2.007,1.117Z" transform="translate(-1725.738 519.442)" fill="#ffb74d"/>
      </g>
      <g id="Group_55937" data-name="Group 55937" transform="translate(1559.361 -566.235)">
        <g id="Group_55934" data-name="Group 55934" transform="translate(0 10.488)">
          <path id="Path_101268" data-name="Path 101268" d="M1619.968-482.428h-29.592a2.618,2.618,0,0,1-2.618-2.618,2.618,2.618,0,0,1,2.618-2.618h29.592a2.618,2.618,0,0,1,2.618,2.618A2.618,2.618,0,0,1,1619.968-482.428Z" transform="translate(-1587.758 487.664)" fill="#5038a1"/>
        </g>
        <g id="Group_55935" data-name="Group 55935" transform="translate(42.282 10.488)">
          <path id="Path_101269" data-name="Path 101269" d="M1682.4-482.428h-11.267a2.618,2.618,0,0,1-2.618-2.618,2.618,2.618,0,0,1,2.618-2.618H1682.4a2.618,2.618,0,0,1,2.618,2.618A2.618,2.618,0,0,1,1682.4-482.428Z" transform="translate(-1668.517 487.664)" fill="#5038a1"/>
        </g>
        <g id="Group_55936" data-name="Group 55936" transform="translate(0)">
          <path id="Path_101270" data-name="Path 101270" d="M1596.407-502.46h-6.031a2.618,2.618,0,0,1-2.618-2.618,2.618,2.618,0,0,1,2.618-2.618h6.031a2.618,2.618,0,0,1,2.618,2.618A2.618,2.618,0,0,1,1596.407-502.46Z" transform="translate(-1587.758 507.696)" fill="#5038a1"/>
        </g>
      </g>
      <g id="Group_55938" data-name="Group 55938" transform="translate(1632.126 -599.91)">
        <path id="Path_101271" data-name="Path 101271" d="M1734.174-549.724c-.069,0-.138,0-.207-.009a2.365,2.365,0,0,1-1.989-1.478l-2.559-6.4a.338.338,0,0,0-.316-.214,2.364,2.364,0,0,1-2.365-2.364,2.364,2.364,0,0,1,2.365-2.364,5.045,5.045,0,0,1,4.706,3.186l.822,2.054,8.432-13.587a2.364,2.364,0,0,1,3.256-.762,2.364,2.364,0,0,1,.762,3.256l-10.9,17.562a2.361,2.361,0,0,1-2.007,1.117Z" transform="translate(-1726.738 572.015)" fill="#ffb74d"/>
      </g>
      <g id="Group_55942" data-name="Group 55942" transform="translate(1559.361 -593.761)">
        <g id="Group_55939" data-name="Group 55939" transform="translate(0 10.488)">
          <path id="Path_101272" data-name="Path 101272" d="M1619.968-535h-29.592a2.618,2.618,0,0,1-2.618-2.618,2.618,2.618,0,0,1,2.618-2.618h29.592a2.618,2.618,0,0,1,2.618,2.618A2.618,2.618,0,0,1,1619.968-535Z" transform="translate(-1587.758 540.237)" fill="#5038a1"/>
        </g>
        <g id="Group_55940" data-name="Group 55940" transform="translate(42.282 10.488)">
          <path id="Path_101273" data-name="Path 101273" d="M1682.4-535h-11.267a2.618,2.618,0,0,1-2.618-2.618,2.618,2.618,0,0,1,2.618-2.618H1682.4a2.618,2.618,0,0,1,2.618,2.618A2.618,2.618,0,0,1,1682.4-535Z" transform="translate(-1668.517 540.237)" fill="#5038a1"/>
        </g>
        <g id="Group_55941" data-name="Group 55941" transform="translate(0 0)">
          <path id="Path_101274" data-name="Path 101274" d="M1596.407-555.033h-6.031a2.618,2.618,0,0,1-2.618-2.618,2.618,2.618,0,0,1,2.618-2.618h6.031a2.618,2.618,0,0,1,2.618,2.618A2.618,2.618,0,0,1,1596.407-555.033Z" transform="translate(-1587.758 560.269)" fill="#5038a1"/>
        </g>
      </g>
      <g id="Group_55943" data-name="Group 55943" transform="translate(1631.603 -516.542)">
        <path id="Path_101275" data-name="Path 101275" d="M1733.174-390.492c-.069,0-.138,0-.208-.009a2.366,2.366,0,0,1-1.989-1.477l-2.559-6.4a.338.338,0,0,0-.316-.214,2.364,2.364,0,0,1-2.365-2.364,2.364,2.364,0,0,1,2.365-2.364,5.045,5.045,0,0,1,4.706,3.186l.822,2.054,8.432-13.587a2.364,2.364,0,0,1,3.255-.762,2.364,2.364,0,0,1,.762,3.256l-10.9,17.562a2.361,2.361,0,0,1-2.007,1.117Z" transform="translate(-1725.738 412.783)" fill="#ffb74d"/>
      </g>
      <g id="Group_55947" data-name="Group 55947" transform="translate(1559.361 -510.392)">
        <g id="Group_55944" data-name="Group 55944" transform="translate(0 10.488)">
          <path id="Path_101276" data-name="Path 101276" d="M1619.968-375.769h-29.592a2.618,2.618,0,0,1-2.618-2.618,2.618,2.618,0,0,1,2.618-2.618h29.592a2.618,2.618,0,0,1,2.618,2.618A2.618,2.618,0,0,1,1619.968-375.769Z" transform="translate(-1587.758 381.005)" fill="#5038a1"/>
        </g>
        <g id="Group_55945" data-name="Group 55945" transform="translate(42.282 10.488)">
          <path id="Path_101277" data-name="Path 101277" d="M1682.4-375.769h-11.267a2.618,2.618,0,0,1-2.618-2.618,2.618,2.618,0,0,1,2.618-2.618H1682.4a2.618,2.618,0,0,1,2.618,2.618A2.618,2.618,0,0,1,1682.4-375.769Z" transform="translate(-1668.517 381.005)" fill="#5038a1"/>
        </g>
        <g id="Group_55946" data-name="Group 55946" transform="translate(0)">
          <path id="Path_101278" data-name="Path 101278" d="M1596.407-395.8h-6.031a2.618,2.618,0,0,1-2.618-2.618,2.618,2.618,0,0,1,2.618-2.618h6.031a2.618,2.618,0,0,1,2.618,2.618A2.618,2.618,0,0,1,1596.407-395.8Z" transform="translate(-1587.758 401.036)" fill="#5038a1"/>
        </g>
      </g>
    </g>
  </g>
</svg>
