<svg xmlns="http://www.w3.org/2000/svg" width="280" height="283" viewBox="0 0 280 283">
  <g id="t2-k3" transform="translate(-285 -746)">
    <path id="Rectangle_7850" data-name="Rectangle 7850" d="M2.5,2.5v261h260V2.5H2.5M0,0H265V266H0Z" transform="translate(300 763)" fill="#ffdc72"/>
    <rect id="Rectangle_7849" data-name="Rectangle 7849" width="263" height="266" transform="translate(285 746)" fill="#fff8e3"/>
    <g id="Group_55829" data-name="Group 55829" transform="translate(-757.774 1454.529)">
      <path id="Path_101167" data-name="Path 101167" d="M1104.776-643.7a8.832,8.832,0,0,1,6.32-8.464,8.764,8.764,0,0,1,2.509-.365h23.548a8.831,8.831,0,0,0-8.833,8.828v13.694h-19.132a4.412,4.412,0,0,1-4.412-4.412V-643.7Z" transform="translate(-3.066 -3.065)" fill="#d6cef2"/>
      <path id="Path_101168" data-name="Path 101168" d="M1131.616-652.541h108.12a8.835,8.835,0,0,1,8.833,8.833v151.047h-99.291a8.83,8.83,0,0,1-8.828-8.828V-643.708a8.835,8.835,0,0,0-8.833-8.833Z" transform="translate(-19.519 -3.058)" fill="#fff"/>
      <path id="Path_101169" data-name="Path 101169" d="M1180.182-271.579a8.831,8.831,0,0,0,8.829-8.832v-7.065a4.415,4.415,0,0,1,4.416-4.412h99.287a4.416,4.416,0,0,1,4.417,4.412v7.065a8.832,8.832,0,0,1-8.829,8.832Z" transform="translate(-49.29 -224.14)" fill="#d6cef2"/>
      <path id="Path_101170" data-name="Path 101170" d="M1110.539-657.53a10.777,10.777,0,0,0-10.765,10.765v9.279a6.357,6.357,0,0,0,6.35,6.35h1.571a1.935,1.935,0,0,0,1.935-1.935,1.935,1.935,0,0,0-1.935-1.935h-1.571a2.483,2.483,0,0,1-2.48-2.48v-9.279a6.9,6.9,0,0,1,6.895-6.895h1.562a6.9,6.9,0,0,1,6.9,6.895V-504.55a10.777,10.777,0,0,0,10.765,10.765h109.248a10.777,10.777,0,0,0,10.765-10.765v-7.064a6.357,6.357,0,0,0-6.35-6.35h-12.439v-48.323a1.935,1.935,0,0,0-1.935-1.935,1.935,1.935,0,0,0-1.935,1.935v48.323h-82.979a6.357,6.357,0,0,0-6.35,6.35v7.064a6.9,6.9,0,0,1-6.88,6.894h-1.144a6.9,6.9,0,0,1-6.895-6.895V-646.765a10.716,10.716,0,0,0-2.5-6.895h99.858a6.9,6.9,0,0,1,6.895,6.895v67.39a1.935,1.935,0,0,0,1.935,1.935,1.935,1.935,0,0,0,1.935-1.935v-67.39a10.777,10.777,0,0,0-10.765-10.765ZM1245.9-504.549a6.9,6.9,0,0,1-6.895,6.9h-99.858a10.715,10.715,0,0,0,2.5-6.894v-7.064a2.483,2.483,0,0,1,2.48-2.48h99.289a2.483,2.483,0,0,1,2.48,2.48v7.064Z" fill="#12263f"/>
      <path id="Path_101171" data-name="Path 101171" d="M1186.1-583.36v-10.157a3.87,3.87,0,0,1,3.87-3.87h75.57a3.87,3.87,0,0,1,3.87,3.87v10.157a3.87,3.87,0,0,1-3.87,3.87h-75.57A3.871,3.871,0,0,1,1186.1-583.36Z" transform="translate(-52.917 -36.868)" fill="#ffdc72"/>
      <g id="Group_55791" data-name="Group 55791" transform="translate(1134.161 -609.189)">
        <g id="Group_55788" data-name="Group 55788" transform="translate(0 0)">
          <g id="Group_55785" data-name="Group 55785" transform="translate(25.353)">
            <path id="Path_101172" data-name="Path 101172" d="M1254.143-530.681a1.935,1.935,0,0,1,1.935-1.935h7.192a1.935,1.935,0,0,1,1.935,1.935,1.935,1.935,0,0,1-1.935,1.935h-7.192A1.935,1.935,0,0,1,1254.143-530.681Z" transform="translate(-1254.143 532.616)" fill="#5038a1"/>
          </g>
          <g id="Group_55786" data-name="Group 55786" transform="translate(0 7.114)">
            <path id="Path_101173" data-name="Path 101173" d="M1188.631-512.3a1.935,1.935,0,0,1,1.935-1.935h32.544a1.935,1.935,0,0,1,1.935,1.935,1.935,1.935,0,0,1-1.935,1.935h-32.544A1.935,1.935,0,0,1,1188.631-512.3Z" transform="translate(-1188.631 514.234)" fill="#5038a1"/>
          </g>
          <g id="Group_55787" data-name="Group 55787" transform="translate(0 14.227)">
            <path id="Path_101174" data-name="Path 101174" d="M1188.631-493.917a1.935,1.935,0,0,1,1.935-1.935h32.544a1.935,1.935,0,0,1,1.935,1.935,1.935,1.935,0,0,1-1.935,1.935h-32.544A1.935,1.935,0,0,1,1188.631-493.917Z" transform="translate(-1188.631 495.852)" fill="#5038a1"/>
          </g>
        </g>
        <g id="Group_55790" data-name="Group 55790" transform="translate(0 21.341)">
          <g id="Group_55789" data-name="Group 55789">
            <path id="Path_101175" data-name="Path 101175" d="M1188.631-475.536a1.935,1.935,0,0,1,1.935-1.935h32.544a1.935,1.935,0,0,1,1.935,1.935,1.935,1.935,0,0,1-1.935,1.935h-32.544A1.935,1.935,0,0,1,1188.631-475.536Z" transform="translate(-1188.631 477.471)" fill="#5038a1"/>
          </g>
        </g>
      </g>
      <g id="Group_55798" data-name="Group 55798" transform="translate(1180.201 -578.717)">
        <g id="Group_55795" data-name="Group 55795" transform="translate(0 0)">
          <g id="Group_55792" data-name="Group 55792" transform="translate(25.353)">
            <path id="Path_101176" data-name="Path 101176" d="M1373.111-451.94a1.935,1.935,0,0,1,1.935-1.935h7.191a1.935,1.935,0,0,1,1.935,1.935,1.935,1.935,0,0,1-1.935,1.935h-7.191A1.935,1.935,0,0,1,1373.111-451.94Z" transform="translate(-1373.111 453.875)" fill="#5038a1"/>
          </g>
          <g id="Group_55793" data-name="Group 55793" transform="translate(0 7.113)">
            <path id="Path_101177" data-name="Path 101177" d="M1307.6-433.559a1.935,1.935,0,0,1,1.935-1.935h32.544a1.935,1.935,0,0,1,1.935,1.935,1.935,1.935,0,0,1-1.935,1.935h-32.544A1.935,1.935,0,0,1,1307.6-433.559Z" transform="translate(-1307.599 435.494)" fill="#5038a1"/>
          </g>
          <g id="Group_55794" data-name="Group 55794" transform="translate(0 14.227)">
            <path id="Path_101178" data-name="Path 101178" d="M1307.6-415.177a1.935,1.935,0,0,1,1.935-1.935h32.544a1.935,1.935,0,0,1,1.935,1.935,1.935,1.935,0,0,1-1.935,1.935h-32.544A1.935,1.935,0,0,1,1307.6-415.177Z" transform="translate(-1307.599 417.112)" fill="#5038a1"/>
          </g>
        </g>
        <g id="Group_55797" data-name="Group 55797" transform="translate(0 21.341)">
          <g id="Group_55796" data-name="Group 55796">
            <path id="Path_101179" data-name="Path 101179" d="M1307.6-396.8a1.935,1.935,0,0,1,1.935-1.935h32.544a1.935,1.935,0,0,1,1.935,1.935,1.935,1.935,0,0,1-1.935,1.935h-32.544A1.935,1.935,0,0,1,1307.6-396.8Z" transform="translate(-1307.599 398.73)" fill="#5038a1"/>
          </g>
        </g>
      </g>
      <g id="Group_55805" data-name="Group 55805" transform="translate(1180.201 -550.263)">
        <g id="Group_55802" data-name="Group 55802" transform="translate(0)">
          <g id="Group_55799" data-name="Group 55799" transform="translate(0.124)">
            <path id="Path_101180" data-name="Path 101180" d="M1309.855-376.479a1.935,1.935,0,0,1-1.935-1.935,1.935,1.935,0,0,1,1.935-1.935h7.192a1.935,1.935,0,0,1,1.935,1.935,1.935,1.935,0,0,1-1.935,1.935Z" transform="translate(-1307.92 380.349)" fill="#5038a1"/>
          </g>
          <g id="Group_55800" data-name="Group 55800" transform="translate(0 7.113)">
            <path id="Path_101181" data-name="Path 101181" d="M1307.6-360.033a1.935,1.935,0,0,1,1.935-1.935h32.544a1.935,1.935,0,0,1,1.935,1.935,1.935,1.935,0,0,1-1.935,1.935h-32.544A1.935,1.935,0,0,1,1307.6-360.033Z" transform="translate(-1307.599 361.968)" fill="#5038a1"/>
          </g>
          <g id="Group_55801" data-name="Group 55801" transform="translate(0 14.227)">
            <path id="Path_101182" data-name="Path 101182" d="M1307.6-341.651a1.935,1.935,0,0,1,1.935-1.935h32.544a1.935,1.935,0,0,1,1.935,1.935,1.935,1.935,0,0,1-1.935,1.935h-32.544A1.935,1.935,0,0,1,1307.6-341.651Z" transform="translate(-1307.599 343.586)" fill="#5038a1"/>
          </g>
        </g>
        <g id="Group_55804" data-name="Group 55804" transform="translate(0 21.34)">
          <g id="Group_55803" data-name="Group 55803">
            <path id="Path_101183" data-name="Path 101183" d="M1307.6-323.27a1.935,1.935,0,0,1,1.935-1.935h32.544a1.935,1.935,0,0,1,1.935,1.935,1.935,1.935,0,0,1-1.935,1.935h-32.544A1.935,1.935,0,0,1,1307.6-323.27Z" transform="translate(-1307.599 325.205)" fill="#5038a1"/>
          </g>
        </g>
      </g>
      <path id="Path_101184" data-name="Path 101184" d="M1307.92-510.288v-21.543a1.935,1.935,0,0,1,1.935-1.935h32.3a1.935,1.935,0,0,1,1.935,1.935v21.543a1.935,1.935,0,0,1-1.935,1.935h-32.3A1.935,1.935,0,0,1,1307.92-510.288Z" transform="translate(-127.595 -75.868)" fill="#8c6df2"/>
      <path id="Path_101185" data-name="Path 101185" d="M1191.1-426.522v-21.543a1.935,1.935,0,0,1,1.935-1.935h32.3a1.935,1.935,0,0,1,1.935,1.935v21.543a1.935,1.935,0,0,1-1.935,1.935h-32.3A1.935,1.935,0,0,1,1191.1-426.522Z" transform="translate(-55.985 -127.217)" fill="#ffdc72"/>
      <path id="Path_101186" data-name="Path 101186" d="M1191.1-353.044v-20.375a1.935,1.935,0,0,1,1.935-1.935h32.3a1.935,1.935,0,0,1,1.935,1.935v20.375a1.935,1.935,0,0,1-1.935,1.935h-32.3A1.935,1.935,0,0,1,1191.1-353.044Z" transform="translate(-55.985 -172.976)" fill="#8c6df2"/>
      <g id="Group_55811" data-name="Group 55811" transform="translate(1133.181 -645.709)">
        <g id="Group_55809" data-name="Group 55809" transform="translate(0 0)">
          <g id="Group_55806" data-name="Group 55806">
            <path id="Path_101187" data-name="Path 101187" d="M1186.1-625v-.045a1.935,1.935,0,0,1,1.935-1.935,1.935,1.935,0,0,1,1.935,1.935V-625a1.935,1.935,0,0,1-1.935,1.935A1.935,1.935,0,0,1,1186.1-625Z" transform="translate(-1186.099 626.984)" fill="#ffb74d"/>
          </g>
          <g id="Group_55807" data-name="Group 55807" transform="translate(6.233)">
            <path id="Path_101188" data-name="Path 101188" d="M1202.206-625v-.045a1.935,1.935,0,0,1,1.935-1.935,1.935,1.935,0,0,1,1.935,1.935V-625a1.935,1.935,0,0,1-1.935,1.935A1.935,1.935,0,0,1,1202.206-625Z" transform="translate(-1202.206 626.984)" fill="#ffb74d"/>
          </g>
          <g id="Group_55808" data-name="Group 55808" transform="translate(12.467)">
            <path id="Path_101189" data-name="Path 101189" d="M1218.313-625v-.045a1.935,1.935,0,0,1,1.935-1.935,1.935,1.935,0,0,1,1.935,1.935V-625a1.935,1.935,0,0,1-1.935,1.935A1.935,1.935,0,0,1,1218.313-625Z" transform="translate(-1218.313 626.984)" fill="#ffb74d"/>
          </g>
        </g>
        <g id="Group_55810" data-name="Group 55810" transform="translate(52.328 0.022)">
          <path id="Path_101190" data-name="Path 101190" d="M1323.251-623.056a1.935,1.935,0,0,1-1.935-1.935,1.935,1.935,0,0,1,1.935-1.935h26.937a1.935,1.935,0,0,1,1.935,1.935,1.935,1.935,0,0,1-1.935,1.935Z" transform="translate(-1321.316 626.926)" fill="#ffb74d"/>
        </g>
      </g>
      <g id="Group_55816" data-name="Group 55816" transform="translate(1182.137 -605.976)">
        <g id="Group_55815" data-name="Group 55815" transform="translate(0 0)">
          <g id="Group_55812" data-name="Group 55812">
            <path id="Path_101191" data-name="Path 101191" d="M1321.729-520.444h-7.191a1.935,1.935,0,0,1-1.935-1.935,1.935,1.935,0,0,1,1.935-1.935h7.191a1.935,1.935,0,0,1,1.935,1.935A1.935,1.935,0,0,1,1321.729-520.444Z" transform="translate(-1312.602 524.314)" fill="#f3f9ff"/>
          </g>
          <g id="Group_55813" data-name="Group 55813" transform="translate(0 7.114)">
            <path id="Path_101192" data-name="Path 101192" d="M1343.208-502.062h-28.671A1.935,1.935,0,0,1,1312.6-504a1.935,1.935,0,0,1,1.935-1.935h28.671a1.935,1.935,0,0,1,1.935,1.935A1.935,1.935,0,0,1,1343.208-502.062Z" transform="translate(-1312.602 505.932)" fill="#f3f9ff"/>
          </g>
          <g id="Group_55814" data-name="Group 55814" transform="translate(0 14.227)">
            <path id="Path_101193" data-name="Path 101193" d="M1343.208-483.68h-28.671a1.935,1.935,0,0,1-1.935-1.935,1.935,1.935,0,0,1,1.935-1.935h28.671a1.935,1.935,0,0,1,1.935,1.935A1.935,1.935,0,0,1,1343.208-483.68Z" transform="translate(-1312.602 487.55)" fill="#f3f9ff"/>
          </g>
        </g>
      </g>
      <g id="Group_55821" data-name="Group 55821" transform="translate(1136.93 -545.256)">
        <g id="Group_55820" data-name="Group 55820" transform="translate(0 0)">
          <g id="Group_55817" data-name="Group 55817">
            <path id="Path_101194" data-name="Path 101194" d="M1204.912-363.542h-7.192a1.935,1.935,0,0,1-1.935-1.935,1.935,1.935,0,0,1,1.935-1.935h7.192a1.935,1.935,0,0,1,1.935,1.935A1.935,1.935,0,0,1,1204.912-363.542Z" transform="translate(-1195.785 367.412)" fill="#f3f9ff"/>
          </g>
          <g id="Group_55818" data-name="Group 55818" transform="translate(0 7.114)">
            <path id="Path_101195" data-name="Path 101195" d="M1226.392-345.16H1197.72a1.935,1.935,0,0,1-1.935-1.935,1.935,1.935,0,0,1,1.935-1.935h28.672a1.935,1.935,0,0,1,1.935,1.935A1.935,1.935,0,0,1,1226.392-345.16Z" transform="translate(-1195.785 349.03)" fill="#f3f9ff"/>
          </g>
          <g id="Group_55819" data-name="Group 55819" transform="translate(0 14.227)">
            <path id="Path_101196" data-name="Path 101196" d="M1226.392-326.778H1197.72a1.935,1.935,0,0,1-1.935-1.935,1.935,1.935,0,0,1,1.935-1.935h28.672a1.935,1.935,0,0,1,1.935,1.935A1.935,1.935,0,0,1,1226.392-326.778Z" transform="translate(-1195.785 330.648)" fill="#f3f9ff"/>
          </g>
        </g>
      </g>
      <g id="Group_55826" data-name="Group 55826" transform="translate(1136.93 -573.559)">
        <g id="Group_55825" data-name="Group 55825" transform="translate(0 0)">
          <g id="Group_55822" data-name="Group 55822" transform="translate(21.48)">
            <path id="Path_101197" data-name="Path 101197" d="M1251.29-438.613a1.935,1.935,0,0,1,1.935-1.935h7.191a1.935,1.935,0,0,1,1.935,1.935,1.935,1.935,0,0,1-1.935,1.935h-7.191A1.935,1.935,0,0,1,1251.29-438.613Z" transform="translate(-1251.29 440.548)" fill="#5038a1"/>
          </g>
          <g id="Group_55823" data-name="Group 55823" transform="translate(0 7.114)">
            <path id="Path_101198" data-name="Path 101198" d="M1195.785-420.231a1.935,1.935,0,0,1,1.935-1.935h28.672a1.935,1.935,0,0,1,1.935,1.935,1.935,1.935,0,0,1-1.935,1.935H1197.72A1.935,1.935,0,0,1,1195.785-420.231Z" transform="translate(-1195.785 422.166)" fill="#5038a1"/>
          </g>
          <g id="Group_55824" data-name="Group 55824" transform="translate(0 14.227)">
            <path id="Path_101199" data-name="Path 101199" d="M1195.785-401.849a1.935,1.935,0,0,1,1.935-1.935h28.672a1.935,1.935,0,0,1,1.935,1.935,1.935,1.935,0,0,1-1.935,1.935H1197.72A1.935,1.935,0,0,1,1195.785-401.849Z" transform="translate(-1195.785 403.784)" fill="#5038a1"/>
          </g>
        </g>
      </g>
      <g id="Group_55827" data-name="Group 55827" transform="translate(1136.25 -623.478)">
        <path id="Path_101200" data-name="Path 101200" d="M1195.963-565.669a1.935,1.935,0,0,1-1.935-1.935,1.935,1.935,0,0,1,1.935-1.935h57.916a1.935,1.935,0,0,1,1.935,1.935,1.935,1.935,0,0,1-1.935,1.935Z" transform="translate(-1194.028 569.539)" fill="#5038a1"/>
      </g>
      <g id="Group_55828" data-name="Group 55828" transform="translate(1136.25 -630.942)">
        <path id="Path_101201" data-name="Path 101201" d="M1195.963-584.955a1.935,1.935,0,0,1-1.935-1.935,1.935,1.935,0,0,1,1.935-1.935H1222.9a1.935,1.935,0,0,1,1.935,1.935,1.935,1.935,0,0,1-1.935,1.935Z" transform="translate(-1194.028 588.825)" fill="#5038a1"/>
      </g>
    </g>
  </g>
</svg>
