<svg xmlns="http://www.w3.org/2000/svg" width="144" height="144" viewBox="0 0 144 144">
  <g id="t2-p1" transform="translate(-371 -2529)">
    <rect id="Rectangle_7796" data-name="Rectangle 7796" width="144" height="144" rx="20" transform="translate(371 2529)" fill="#5038a1"/>
    <g id="ley" transform="translate(397.997 2556)">
      <path id="Path_101654" data-name="Path 101654" d="M1.761,17.578H10.55V82.969A7.039,7.039,0,0,0,17.581,90h28.3a1.758,1.758,0,0,0,0-3.516H23.666a6.986,6.986,0,0,0,.946-3.516V79.453h57.3v3.516A3.52,3.52,0,0,1,78.4,86.484H61.7A1.758,1.758,0,0,0,61.7,90H78.4a7.039,7.039,0,0,0,7.031-7.031V77.7a1.758,1.758,0,0,0-1.758-1.758H74.886V33.2A149.373,149.373,0,0,0,89.827,9.554a1.763,1.763,0,0,0-1.141-2.467l-.014,0A51.605,51.605,0,0,0,74.294,5.616,8.815,8.815,0,0,0,66.1,0H7.034A7.039,7.039,0,0,0,0,7.031V15.82a1.758,1.758,0,0,0,1.758,1.758Zm66.514,18.2c-.827.97-1.705,1.942-2.618,2.9H55.55a1.758,1.758,0,0,0-1.572,2.544l2.765,5.529a105.7,105.7,0,0,1-12.69,8.591,51.2,51.2,0,0,1,9.822-23.695h12.42a1.758,1.758,0,0,0,0-3.516H56.743A54.61,54.61,0,0,1,64.3,21.094h9.375a1.758,1.758,0,0,0,0-3.516H69.461a54.768,54.768,0,0,1,15.521-6.337A147.834,147.834,0,0,1,68.275,35.773ZM43.316,43.8c.527-8.565,2.606-19.019,8.927-25.7l-1.39,11.578c-.006.052-.009.1-.01.154A55.523,55.523,0,0,0,43.316,43.8ZM54.973,24.848l1.215-10.127a29.772,29.772,0,0,1,9-4.191l-3.8,8.055a1.753,1.753,0,0,0-.139.437,58.127,58.127,0,0,0-6.273,5.825ZM76.161,9.1c1.1,0,2.162.038,3.159.1a58.48,58.48,0,0,0-12.344,5.781l2.542-5.385A43.027,43.027,0,0,1,76.161,9.1ZM66.1,3.516A5.289,5.289,0,0,1,70.514,5.91c-7.413.882-14.258,3.58-19.678,8.624-7.27,6.765-10.1,17.489-10.924,27.433a84.372,84.372,0,0,0,.276,16.569l-.338,4.746H19.339a1.758,1.758,0,1,0,0,3.516h29.18a1.758,1.758,0,1,0,0-3.516H43.375l.263-3.693a105.533,105.533,0,0,0,16.422-11,1.758,1.758,0,0,0,.462-2.149l-2.127-4.253H66.4a1.758,1.758,0,0,0,1.259-.532c1.15-1.181,2.255-2.393,3.287-3.6.14-.165.28-.332.42-.5V75.938H22.854A1.758,1.758,0,0,0,21.1,77.7v5.273a3.516,3.516,0,0,1-7.031,0V7.031a6.986,6.986,0,0,0-.946-3.516ZM3.519,7.031a3.516,3.516,0,1,1,7.031,0v7.031H3.519Z" fill="#fff"/>
      <path id="Path_101655" data-name="Path 101655" d="M101.761,323.516h15.117a1.758,1.758,0,0,0,0-3.516H101.761a1.758,1.758,0,0,0,0,3.516Z" transform="translate(-82.422 -263.75)" fill="#fff"/>
      <path id="Path_101656" data-name="Path 101656" d="M113.55,81.094A10.547,10.547,0,1,0,103,70.547,10.559,10.559,0,0,0,113.55,81.094Zm0-17.578a7.031,7.031,0,1,1-7.031,7.031A7.039,7.039,0,0,1,113.55,63.516Z" transform="translate(-84.895 -49.453)" fill="#fff"/>
      <circle id="Ellipse_4112" data-name="Ellipse 4112" cx="1.758" cy="1.758" r="1.758" transform="translate(52.034 86.484)" fill="#fff"/>
    </g>
  </g>
</svg>
