<svg xmlns="http://www.w3.org/2000/svg" width="80" height="80" viewBox="0 0 80 80">
  <g id="t3-ic1" transform="translate(-543 -1597)">
    <rect id="Rectangle_7611" data-name="Rectangle 7611" width="80" height="80" rx="10" transform="translate(543 1597)" fill="#5038a1"/>
    <g id="revision" transform="translate(508.322 1609)">
      <path id="Path_101704" data-name="Path 101704" d="M94.971,23.716l1.9-4.6a3.933,3.933,0,0,0-1.584-4.873l-4.239-2.6L89.881,6.8a3.934,3.934,0,0,0-4.145-3.012l-4.961.385L76.988.949a3.934,3.934,0,0,0-5.124,0L68.077,4.176l-4.96-.385A3.934,3.934,0,0,0,58.971,6.8L57.8,11.64l-4.239,2.6a3.933,3.933,0,0,0-1.583,4.873l1.9,4.6-1.9,4.6a3.933,3.933,0,0,0,1.583,4.873l4.239,2.6,1.167,4.837a3.932,3.932,0,0,0,3.39,3L57.783,53.881A1.948,1.948,0,0,0,60.23,56.5l2.959-1.08a.82.82,0,0,1,.624.023l3.048,1.379a1.942,1.942,0,0,0,2.692-1.33l.674-2.9a.835.835,0,0,0-1.626-.378l-.674,2.9a.272.272,0,0,1-.378.187L64.5,53.927a2.481,2.481,0,0,0-1.884-.07l-2.96,1.08a.278.278,0,0,1-.35-.375l4.914-11.006,2.573-.2L65.173,48.22a.835.835,0,0,0,.528,1.056.874.874,0,0,0,1.056-.528L68.475,43.6l1.776,1.514-.771,3.322a.835.835,0,0,0,.624,1,.874.874,0,0,0,1-.624l.576-2.48a3.959,3.959,0,0,0,5.466.018l2.12,9.134A1.94,1.94,0,0,0,82,56.792l2.744-1.319a.82.82,0,0,1,.63-.036l3.273,1.141a1.948,1.948,0,0,0,2.42-2.634l-1.652-3.7a.835.835,0,1,0-1.525.681l1.652,3.7A.278.278,0,0,1,89.2,55l-3.273-1.141a2.48,2.48,0,0,0-1.9.107l-2.744,1.319a.272.272,0,0,1-.383-.184l-2.316-9.976,1.97-1.679,1.767,5.3A.835.835,0,0,0,83.9,48.22l-1.616-4.847,2.315.18,1.7,3.806a.835.835,0,0,0,1.525-.681l-1.36-3.047a3.931,3.931,0,0,0,3.417-3l1.167-4.837,4.239-2.6a3.933,3.933,0,0,0,1.583-4.873Zm-.559,8.049L90.075,34.43a1.382,1.382,0,0,0-.624.859l-1.194,4.949a2.271,2.271,0,0,1-2.393,1.739l-5.076-.394a1.382,1.382,0,0,0-1.01.328l-3.874,3.3a2.271,2.271,0,0,1-2.958,0l-3.875-3.3a1.539,1.539,0,0,0-1.01-.328l-5.075.394a2.271,2.271,0,0,1-2.393-1.739L59.4,35.289a1.383,1.383,0,0,0-.624-.859l-4.337-2.664a2.271,2.271,0,0,1-.914-2.813l1.943-4.705a1.382,1.382,0,0,0,0-1.062L53.525,18.48a2.271,2.271,0,0,1,.914-2.813L58.776,13a1.382,1.382,0,0,0,.624-.859l1.194-4.949a2.27,2.27,0,0,1,2.393-1.739l5.076.394a1.378,1.378,0,0,0,1.01-.328l3.874-3.3a2.271,2.271,0,0,1,2.958,0l3.875,3.3a1.386,1.386,0,0,0,1.01.328l5.075-.394a2.272,2.272,0,0,1,2.393,1.739l1.194,4.949a1.383,1.383,0,0,0,.624.859l4.337,2.664a2.271,2.271,0,0,1,.914,2.813l-1.943,4.705a1.382,1.382,0,0,0,0,1.062l1.943,4.705A2.271,2.271,0,0,1,94.413,31.765Z" transform="translate(0 0)" fill="#fff"/>
      <path id="Path_101705" data-name="Path 101705" d="M117.256,49.878a1.382,1.382,0,0,1,0-1.061l2-4.844a1.385,1.385,0,0,0-.558-1.716l-4.466-2.743a1.382,1.382,0,0,1-.624-.859l-1.229-5.1a1.384,1.384,0,0,0-1.46-1.061L105.7,32.9a1.383,1.383,0,0,1-1.009-.328l-3.989-3.4a1.385,1.385,0,0,0-1.8,0l-3.989,3.4a1.382,1.382,0,0,1-1.009.328L88.668,32.5a1.386,1.386,0,0,0-1.46,1.061l-1.229,5.1a1.382,1.382,0,0,1-.624.859l-4.466,2.743a1.385,1.385,0,0,0-.558,1.716l2,4.845a1.382,1.382,0,0,1,0,1.061l-2,4.844a1.385,1.385,0,0,0,.558,1.716l4.466,2.743a1.382,1.382,0,0,1,.624.859l1.229,5.1a1.384,1.384,0,0,0,1.46,1.061l5.225-.406a1.383,1.383,0,0,1,1.009.328l3.989,3.4a1.385,1.385,0,0,0,1.8,0l3.989-3.4a1.383,1.383,0,0,1,1.009-.328l5.225.406a1.388,1.388,0,0,0,1.46-1.061l1.229-5.1a1.382,1.382,0,0,1,.624-.859l4.466-2.743a1.385,1.385,0,0,0,.558-1.716Zm.457-6.543h0Zm-4.354,14.424a3.041,3.041,0,0,0-1.373,1.89l-1.173,4.864-4.989-.387a3.039,3.039,0,0,0-2.221.722l-3.808,3.245-3.808-3.245a3.209,3.209,0,0,0-2.222-.722l-4.989.387L87.6,59.649a3.041,3.041,0,0,0-1.373-1.89L81.966,55.14l1.91-4.625a3.04,3.04,0,0,0,0-2.336l-1.91-4.625,4.264-2.619a3.041,3.041,0,0,0,1.373-1.89l1.173-4.864,4.989.387a3.038,3.038,0,0,0,2.221-.722L99.794,30.6l3.808,3.245a3.042,3.042,0,0,0,2.222.722l4.989-.387,1.173,4.864a3.041,3.041,0,0,0,1.373,1.89l4.264,2.619-1.91,4.625a3.04,3.04,0,0,0,0,2.336l1.91,4.625Z" transform="translate(-25.368 -25.631)" fill="#fff"/>
      <path id="Path_101706" data-name="Path 101706" d="M182.08,94.583A2.54,2.54,0,0,0,180,90.577h-3.816a2.01,2.01,0,0,1-1.937-2.382l.4-2.161a3.872,3.872,0,0,0-2.084-4.172,1.758,1.758,0,0,0-2.442,1.019l-.828,2.46a.835.835,0,1,0,1.582.532l.828-2.46a.089.089,0,0,1,.051-.056.081.081,0,0,1,.071,0,2.2,2.2,0,0,1,1.18,2.368l-.4,2.161a3.69,3.69,0,0,0,3.578,4.358H180a.871.871,0,0,1,0,1.743h-2.339a.835.835,0,0,0,0,1.67h2.784a.871.871,0,0,1,0,1.743h-2.784a.835.835,0,0,0,0,1.67H180a.871.871,0,0,1,0,1.743h-2.339a.835.835,0,0,0,0,1.67h1.161a.852.852,0,0,1,0,1.7h-8.951a3.892,3.892,0,0,1-3.309-1.716V93.5a8.22,8.22,0,0,0,3.038-3.877.835.835,0,0,0-1.55-.622,7.15,7.15,0,0,1-1.753,2.6,2.027,2.027,0,0,0-1.763-1.03h-1.53a2.029,2.029,0,0,0-2.027,2.027v4.473a.835.835,0,0,0,1.67,0V92.6a.358.358,0,0,1,.357-.357h1.53a.358.358,0,0,1,.357.357v11.228a.358.358,0,0,1-.357.357h-1.53a.358.358,0,0,1-.357-.357v-2.837a.835.835,0,0,0-1.67,0v2.837a2.029,2.029,0,0,0,2.027,2.027h1.53a2.028,2.028,0,0,0,1.837-1.175,5.544,5.544,0,0,0,3.5,1.175h8.951a2.522,2.522,0,0,0,2.27-3.621,2.539,2.539,0,0,0,.984-3.759,2.538,2.538,0,0,0,0-3.9Z" transform="translate(-97.136 -72.589)" fill="#fff"/>
    </g>
  </g>
</svg>
