<svg xmlns="http://www.w3.org/2000/svg" width="140" height="140" viewBox="0 0 140 140">
  <g id="t3-ic5" transform="translate(-730 -1885)">
    <circle id="Ellipse_4088" data-name="Ellipse 4088" cx="70" cy="70" r="70" transform="translate(730 1885)" fill="#fff"/>
    <g id="Group_56153" data-name="Group 56153" transform="translate(285 -142)">
      <g id="Group_56152" data-name="Group 56152" transform="translate(475 2054)">
        <g id="Group_56143" data-name="Group 56143" transform="translate(16.465 0.558)">
          <g id="Group_56115" data-name="Group 56115" transform="translate(0.678 40.952)">
            <path id="Path_101797" data-name="Path 101797" d="M-856.222,636.766V622.449h15.257v14.317h13.776a9.706,9.706,0,0,1,9.65,9.725v19.8h-62.179V646.411a9.685,9.685,0,0,1,9.7-9.65Z" transform="translate(879.718 -622.449)" fill="#8c6df2"/>
          </g>
          <g id="Group_56116" data-name="Group 56116" transform="translate(24.174 40.952)">
            <path id="Path_101798" data-name="Path 101798" d="M-834.764,633.3l7.558,9.4,7.7-9.4v-10.85h-15.258Z" transform="translate(834.764 -622.449)" fill="#ff9f70"/>
          </g>
          <g id="Group_56118" data-name="Group 56118" transform="translate(49.817 55.268)">
            <g id="Group_56117" data-name="Group 56117">
              <path id="Path_101799" data-name="Path 101799" d="M-782.311,649.841H-785.7a9.7,9.7,0,0,1,9.65,9.721v19.8h3.39v-19.8A9.706,9.706,0,0,0-782.311,649.841Z" transform="translate(785.7 -649.841)" fill="#735ac7"/>
            </g>
          </g>
          <g id="Group_56120" data-name="Group 56120" transform="translate(0.678 55.264)">
            <g id="Group_56119" data-name="Group 56119">
              <path id="Path_101800" data-name="Path 101800" d="M-870.017,649.832l3.39,0a9.684,9.684,0,0,0-9.7,9.65v19.873h-3.39V659.482a9.684,9.684,0,0,1,9.7-9.65Z" transform="translate(879.718 -649.832)" fill="#a38af2"/>
            </g>
          </g>
          <g id="Group_56121" data-name="Group 56121" transform="translate(12.003 74.953)">
            <path id="Path_101801" data-name="Path 101801" d="M-857.371,697.68a.678.678,0,0,1-.678-.678v-8.82a.678.678,0,0,1,.678-.678.678.678,0,0,1,.678.678V697A.678.678,0,0,1-857.371,697.68Z" transform="translate(858.049 -687.503)" fill="#12263f"/>
          </g>
          <g id="Group_56122" data-name="Group 56122" transform="translate(50.175 74.953)">
            <path id="Path_101802" data-name="Path 101802" d="M-784.337,697.68a.679.679,0,0,1-.678-.678v-8.82a.678.678,0,0,1,.678-.678.678.678,0,0,1,.678.678V697A.678.678,0,0,1-784.337,697.68Z" transform="translate(785.015 -687.503)" fill="#12263f"/>
          </g>
          <g id="Group_56123" data-name="Group 56123" transform="translate(0 40.274)">
            <path id="Path_101803" data-name="Path 101803" d="M-818.158,666.348h-62.179a.679.679,0,0,1-.678-.678V645.792a10.257,10.257,0,0,1,3.051-7.31,10.311,10.311,0,0,1,7.315-3.018h.013l13.116,0V621.83a.678.678,0,0,1,.678-.678h15.258a.678.678,0,0,1,.678.678v13.638h13.1a10.241,10.241,0,0,1,7.311,3.065,10.35,10.35,0,0,1,3.017,7.34v19.8a.678.678,0,0,1-.678.678Zm-61.5-1.357h60.822V645.872a9,9,0,0,0-2.625-6.384,8.9,8.9,0,0,0-6.348-2.662h-13.775a.679.679,0,0,1-.678-.678V622.508h-13.9v13.638a.679.679,0,0,1-.2.48.679.679,0,0,1-.479.2h0l-13.795,0h-.012a8.965,8.965,0,0,0-6.359,2.624,8.91,8.91,0,0,0-2.651,6.349v19.2Z" transform="translate(881.015 -621.152)" fill="#12263f"/>
          </g>
          <g id="Group_56124" data-name="Group 56124" transform="translate(11.8 0.677)">
            <path id="Path_101804" data-name="Path 101804" d="M-824.4,557.627v-.583a5.9,5.9,0,0,0-3.6-5.434,36.739,36.739,0,0,1-6.9-3.7l-3.568-2.511v-.006l0,0,0,0v.006l-3.567,2.511a36.75,36.75,0,0,1-6.9,3.7,5.9,5.9,0,0,0-3.6,5.434v.583a5.9,5.9,0,0,0-5.878,6.358l1,12.792h37.891l1-12.792a5.9,5.9,0,0,0-5.879-6.358Z" transform="translate(858.438 -545.391)" fill="#ffb74d"/>
          </g>
          <g id="Group_56126" data-name="Group 56126" transform="translate(31.777 0.687)">
            <g id="Group_56125" data-name="Group 56125">
              <path id="Path_101805" data-name="Path 101805" d="M-806.154,557.636v-.583a5.9,5.9,0,0,0-3.6-5.434,36.739,36.739,0,0,1-6.9-3.7l-3.562-2.507c1.39,2.85,4.795,5.191,7.2,6.21a5.9,5.9,0,0,1,3.6,5.434.613.613,0,0,0,.559.608,5.9,5.9,0,0,1,5.32,6.332l-1,12.791h3.256l1-12.791A5.9,5.9,0,0,0-806.154,557.636Z" transform="translate(820.216 -545.41)" fill="#d99c42"/>
            </g>
          </g>
          <g id="Group_56128" data-name="Group 56128" transform="translate(11.799 0.687)">
            <g id="Group_56127" data-name="Group 56127">
              <path id="Path_101806" data-name="Path 101806" d="M-852.542,557.636v-.583a5.9,5.9,0,0,1,3.6-5.434,36.741,36.741,0,0,0,6.9-3.7l3.562-2.507c-1.39,2.85-4.795,5.191-7.2,6.21a5.9,5.9,0,0,0-3.6,5.434.613.613,0,0,1-.559.608,5.9,5.9,0,0,0-5.32,6.332l1,12.791h-3.256l-1-12.791a5.9,5.9,0,0,1,5.878-6.358Z" transform="translate(858.439 -545.41)" fill="#ffcb80"/>
            </g>
          </g>
          <g id="Group_56129" data-name="Group 56129" transform="translate(11.122)">
            <path id="Path_101807" data-name="Path 101807" d="M-820.145,576.836h-37.891a.679.679,0,0,1-.676-.625l-1-12.791a6.591,6.591,0,0,1,1.727-4.978,6.6,6.6,0,0,1,4.149-2.076,6.565,6.565,0,0,1,4.015-6,35.656,35.656,0,0,0,6.772-3.633l3.524-2.48a.7.7,0,0,1,.12-.08.681.681,0,0,1,.381-.076.676.676,0,0,1,.255.074.662.662,0,0,1,.124.084l3.521,2.477a35.7,35.7,0,0,0,6.772,3.633,6.565,6.565,0,0,1,4.015,6,6.6,6.6,0,0,1,4.149,2.076,6.594,6.594,0,0,1,1.727,4.978l-1,12.791A.678.678,0,0,1-820.145,576.836Zm-37.264-1.356h36.636l.955-12.166a5.161,5.161,0,0,0-1.371-3.951,5.161,5.161,0,0,0-3.831-1.676.679.679,0,0,1-.678-.678v-.583a5.21,5.21,0,0,0-3.187-4.808,36.994,36.994,0,0,1-7.024-3.773l-3.181-2.24-3.181,2.24a37,37,0,0,1-7.025,3.773,5.212,5.212,0,0,0-3.187,4.809v.583a.678.678,0,0,1-.678.678,5.162,5.162,0,0,0-3.832,1.676,5.163,5.163,0,0,0-1.371,3.951Z" transform="translate(859.736 -544.096)" fill="#12263f"/>
          </g>
          <g id="Group_56130" data-name="Group 56130" transform="translate(10.524 27.892)">
            <path id="Path_101808" data-name="Path 101808" d="M-854.745,597.462h-1.08a5.054,5.054,0,0,0-5.054,5.054,5.054,5.054,0,0,0,5.054,5.054h1.08Z" transform="translate(860.879 -597.462)" fill="#ffbd8e"/>
          </g>
          <g id="Group_56131" data-name="Group 56131" transform="translate(46.905 27.892)">
            <path id="Path_101809" data-name="Path 101809" d="M-790.192,597.462h-1.08V607.57h1.08a5.054,5.054,0,0,0,5.054-5.054A5.054,5.054,0,0,0-790.192,597.462Z" transform="translate(791.272 -597.462)" fill="#e18152"/>
          </g>
          <g id="Group_56132" data-name="Group 56132" transform="translate(16.658 12.338)">
            <path id="Path_101810" data-name="Path 101810" d="M-834.02,608.948a15.223,15.223,0,0,1-15.123-15.32V583.023A15.223,15.223,0,0,1-834.02,567.7a15.223,15.223,0,0,1,15.124,15.32v10.606A15.223,15.223,0,0,1-834.02,608.948Z" transform="translate(849.143 -567.703)" fill="#ff9f70"/>
          </g>
          <g id="Group_56133" data-name="Group 56133" transform="translate(30.063 12.338)">
            <path id="Path_101811" data-name="Path 101811" d="M-821.777,567.7a15.049,15.049,0,0,0-1.719.1,15.249,15.249,0,0,1,13.4,15.219v10.606a15.25,15.25,0,0,1-13.4,15.219,15.189,15.189,0,0,0,1.719.1,15.223,15.223,0,0,0,15.124-15.32V583.023A15.223,15.223,0,0,0-821.777,567.7Z" transform="translate(823.496 -567.702)" fill="#e18152"/>
          </g>
          <g id="Group_56134" data-name="Group 56134" transform="translate(16.658 12.338)">
            <path id="Path_101812" data-name="Path 101812" d="M-834.02,567.7a15.052,15.052,0,0,1,1.719.1,15.25,15.25,0,0,0-13.405,15.219v10.606A15.251,15.251,0,0,0-832.3,608.847a15.193,15.193,0,0,1-1.719.1,15.222,15.222,0,0,1-15.123-15.32V583.023A15.223,15.223,0,0,1-834.02,567.7Z" transform="translate(849.143 -567.702)" fill="#ffbd8e"/>
          </g>
          <g id="Group_56135" data-name="Group 56135" transform="translate(15.98 11.66)">
            <path id="Path_101813" data-name="Path 101813" d="M-834.639,609.007a15.92,15.92,0,0,1-15.8-16V582.4a15.919,15.919,0,0,1,15.8-16,15.919,15.919,0,0,1,15.8,16v10.606A15.919,15.919,0,0,1-834.639,609.007Zm0-41.246A14.561,14.561,0,0,0-849.084,582.4v10.606a14.56,14.56,0,0,0,14.445,14.641,14.56,14.56,0,0,0,14.445-14.641V582.4a14.561,14.561,0,0,0-14.445-14.641Z" transform="translate(850.441 -566.405)" fill="#12263f"/>
          </g>
          <g id="Group_56136" data-name="Group 56136" transform="translate(9.846 27.213)">
            <path id="Path_101814" data-name="Path 101814" d="M-855.364,607.628h-1.08a5.739,5.739,0,0,1-5.732-5.732,5.739,5.739,0,0,1,5.732-5.732h1.08a.679.679,0,0,1,.678.678v10.108A.678.678,0,0,1-855.364,607.628Zm-1.08-10.107a4.38,4.38,0,0,0-4.375,4.375,4.38,4.38,0,0,0,4.375,4.376h.4V597.52Z" transform="translate(862.176 -596.163)" fill="#12263f"/>
          </g>
          <g id="Group_56137" data-name="Group 56137" transform="translate(46.227 27.214)">
            <path id="Path_101815" data-name="Path 101815" d="M-790.812,607.628h-1.08a.678.678,0,0,1-.678-.678V596.842a.678.678,0,0,1,.678-.678h1.08a5.739,5.739,0,0,1,5.732,5.732A5.738,5.738,0,0,1-790.812,607.628Zm-.4-1.356h.4a4.381,4.381,0,0,0,4.376-4.376,4.381,4.381,0,0,0-4.376-4.376h-.4Z" transform="translate(792.57 -596.164)" fill="#12263f"/>
          </g>
          <g id="Group_56138" data-name="Group 56138" transform="translate(31.731 51.802)">
            <path id="Path_101816" data-name="Path 101816" d="M-812.6,643.209l-7.7,9.4,8.655,6.357,2.3-12.291Z" transform="translate(820.304 -643.209)" fill="#f4efed"/>
          </g>
          <g id="Group_56139" data-name="Group 56139" transform="translate(20.846 51.802)">
            <path id="Path_101817" data-name="Path 101817" d="M-837.8,643.209l7.558,9.4-8.583,6.357-2.3-12.292Z" transform="translate(841.13 -643.209)" fill="#f4efed"/>
          </g>
          <g id="Group_56140" data-name="Group 56140" transform="translate(31.052 51.124)">
            <path id="Path_101818" data-name="Path 101818" d="M-812.269,659.026a.679.679,0,0,1-.4-.131l-8.656-6.357a.681.681,0,0,1-.272-.462.677.677,0,0,1,.148-.515l7.7-9.4a.676.676,0,0,1,.5-.248.68.68,0,0,1,.517.213l3.258,3.466a.68.68,0,0,1,.173.59l-2.3,12.291a.68.68,0,0,1-.418.506.678.678,0,0,1-.249.048Zm-7.677-7.159,7.21,5.3,2.04-10.892-2.493-2.653Z" transform="translate(821.603 -641.912)" fill="#12263f"/>
          </g>
          <g id="Group_56141" data-name="Group 56141" transform="translate(20.168 51.123)">
            <path id="Path_101819" data-name="Path 101819" d="M-839.447,659.025a.68.68,0,0,1-.248-.047.679.679,0,0,1-.419-.507l-2.3-12.293a.678.678,0,0,1,.177-.594l3.327-3.465a.674.674,0,0,1,.519-.208.678.678,0,0,1,.5.253l7.558,9.4a.676.676,0,0,1,.144.511.679.679,0,0,1-.269.459l-8.583,6.357a.681.681,0,0,1-.4.133Zm-1.571-12.753,2.038,10.884,7.144-5.292-6.632-8.249Z" transform="translate(842.427 -641.91)" fill="#12263f"/>
          </g>
          <g id="Group_56142" data-name="Group 56142" transform="translate(3.389 68.504)">
            <path id="Path_101820" data-name="Path 101820" d="M-873.852,680.592a.678.678,0,0,1-.678-.678v-4.07a.679.679,0,0,1,.678-.678.679.679,0,0,1,.678.678v4.07A.678.678,0,0,1-873.852,680.592Z" transform="translate(874.53 -675.165)" fill="#12263f"/>
          </g>
        </g>
        <g id="Group_56151" data-name="Group 56151" transform="translate(0 0)">
          <g id="Group_56144" data-name="Group 56144" transform="translate(6.798 0.738)">
            <path id="Path_101821" data-name="Path 101821" d="M-875.711,561.188a1.947,1.947,0,0,0-1.947-1.947h-.619a2,2,0,0,0,2.028-1.887,1.947,1.947,0,0,0-1.946-2.008h-10.124v-9.01a1.9,1.9,0,0,0-1.9-1.9,1.9,1.9,0,0,0-1.871,1.589l-1.528,9.317h-.26a2.6,2.6,0,0,0-2.6,2.6h-3.032V568.7h3.056a2.571,2.571,0,0,0,2.58,2.227h13.731a1.948,1.948,0,0,0,1.946-2.007,2,2,0,0,0-2.028-1.887h1.659a1.947,1.947,0,0,0,1.947-1.947,1.947,1.947,0,0,0-1.947-1.947h.907a1.948,1.948,0,0,0,1.947-1.948Z" transform="translate(899.511 -544.44)" fill="#f4efed"/>
          </g>
          <g id="Group_56145" data-name="Group 56145" transform="translate(0.737 12.318)">
            <path id="Path_101822" data-name="Path 101822" d="M-909.806,581.5h3.46a1.3,1.3,0,0,0,1.3-1.3V567.895a1.3,1.3,0,0,0-1.3-1.3h-3.46a1.3,1.3,0,0,0-1.3,1.3V580.2A1.3,1.3,0,0,0-909.806,581.5Z" transform="translate(911.106 -566.595)" fill="#8c6df2"/>
          </g>
          <g id="Group_56146" data-name="Group 56146" transform="translate(0.737 12.318)">
            <path id="Path_101823" data-name="Path 101823" d="M-908.548,580.2V567.895a1.3,1.3,0,0,1,1.3-1.3h-2.558a1.3,1.3,0,0,0-1.3,1.3V580.2a1.3,1.3,0,0,0,1.3,1.3h2.558A1.3,1.3,0,0,1-908.548,580.2Z" transform="translate(911.106 -566.595)" fill="#735ac7"/>
          </g>
          <g id="Group_56147" data-name="Group 56147" transform="translate(0 11.58)">
            <path id="Path_101824" data-name="Path 101824" d="M-907.019,581.564h-3.46a2.04,2.04,0,0,1-2.038-2.038V567.221a2.04,2.04,0,0,1,2.038-2.038h3.46a2.04,2.04,0,0,1,2.038,2.038v12.305A2.04,2.04,0,0,1-907.019,581.564Zm-3.46-14.905a.563.563,0,0,0-.562.562v12.305a.563.563,0,0,0,.562.562h3.46a.563.563,0,0,0,.562-.562V567.221a.563.563,0,0,0-.562-.562Z" transform="translate(912.517 -565.183)" fill="#12263f"/>
          </g>
          <g id="Group_56148" data-name="Group 56148" transform="translate(22.658 14.8)">
            <path id="Path_101825" data-name="Path 101825" d="M-863.173,576.716h-5.254a.739.739,0,0,1-.738-.738.738.738,0,0,1,.738-.738h5.254a1.21,1.21,0,0,0,1.209-1.209,1.211,1.211,0,0,0-1.209-1.209h-5.254a.739.739,0,0,1-.738-.738.739.739,0,0,1,.738-.738h5.254a2.688,2.688,0,0,1,2.685,2.685A2.689,2.689,0,0,1-863.173,576.716Z" transform="translate(869.165 -571.345)" fill="#12263f"/>
          </g>
          <g id="Group_56149" data-name="Group 56149" transform="translate(22.658 18.696)">
            <path id="Path_101826" data-name="Path 101826" d="M-864.081,584.168h-4.347a.738.738,0,0,1-.737-.738.738.738,0,0,1,.737-.738h4.347a1.21,1.21,0,0,0,1.209-1.209,1.211,1.211,0,0,0-1.209-1.209h-4.347a.738.738,0,0,1-.737-.738.738.738,0,0,1,.737-.737h4.347a2.688,2.688,0,0,1,2.685,2.685A2.688,2.688,0,0,1-864.081,584.168Z" transform="translate(869.165 -578.798)" fill="#12263f"/>
          </g>
          <g id="Group_56150" data-name="Group 56150" transform="translate(6.06)">
            <path id="Path_101827" data-name="Path 101827" d="M-880.818,570.988h-13.731a3.343,3.343,0,0,1-3.161-2.227h-2.475a.739.739,0,0,1-.738-.738V557.275a.739.739,0,0,1,.738-.738h2.376a3.349,3.349,0,0,1,2.889-2.583l1.43-8.719a2.624,2.624,0,0,1,2.6-2.208,2.637,2.637,0,0,1,2.634,2.634v8.272h9.386a2.666,2.666,0,0,1,1.928.815,2.67,2.67,0,0,1,.757,1.952,2.748,2.748,0,0,1-2.766,2.6h-4.635a.738.738,0,0,1-.737-.738.738.738,0,0,1,.737-.738h4.635a1.262,1.262,0,0,0,1.29-1.172,1.2,1.2,0,0,0-.341-.88,1.2,1.2,0,0,0-.869-.367h-10.124a.738.738,0,0,1-.738-.737v-9.01a1.159,1.159,0,0,0-1.158-1.158,1.154,1.154,0,0,0-1.143.971l-1.528,9.316a.738.738,0,0,1-.728.618h-.26a1.868,1.868,0,0,0-1.866,1.865.738.738,0,0,1-.738.738h-2.294v9.273h2.318a.738.738,0,0,1,.731.643,1.825,1.825,0,0,0,1.848,1.584h13.732a1.2,1.2,0,0,0,.868-.367,1.2,1.2,0,0,0,.341-.88,1.262,1.262,0,0,0-1.29-1.172h-2.687a.738.738,0,0,1-.738-.738.738.738,0,0,1,.738-.738h2.687a2.747,2.747,0,0,1,2.765,2.6,2.666,2.666,0,0,1-.756,1.952,2.662,2.662,0,0,1-1.927.815Z" transform="translate(900.923 -543.028)" fill="#12263f"/>
          </g>
        </g>
      </g>
    </g>
  </g>
</svg>
