<svg xmlns="http://www.w3.org/2000/svg" width="140" height="140" viewBox="0 0 140 140">
  <g id="t3-ic7" transform="translate(-310 -2275)">
    <circle id="Ellipse_4092" data-name="Ellipse 4092" cx="70" cy="70" r="70" transform="translate(310 2275)" fill="#fff"/>
    <g id="Group_56240" data-name="Group 56240" transform="translate(1637.044 1757.904)">
      <g id="Group_56220" data-name="Group 56220" transform="translate(-1280.579 544.096)">
        <g id="Group_56192" data-name="Group 56192" transform="translate(0.678 40.952)">
          <path id="Path_101864" data-name="Path 101864" d="M-1240.75,636.766V622.449h15.258v14.317h13.776a9.706,9.706,0,0,1,9.65,9.725v19.8h-62.179V646.411a9.684,9.684,0,0,1,9.7-9.65Z" transform="translate(1264.245 -622.449)" fill="#8c6df2"/>
        </g>
        <g id="Group_56193" data-name="Group 56193" transform="translate(24.173 40.952)">
          <path id="Path_101865" data-name="Path 101865" d="M-1219.292,633.3l7.558,9.4,7.7-9.4v-10.85h-15.258Z" transform="translate(1219.292 -622.449)" fill="#ff9f70"/>
        </g>
        <g id="Group_56195" data-name="Group 56195" transform="translate(49.817 55.268)">
          <g id="Group_56194" data-name="Group 56194">
            <path id="Path_101866" data-name="Path 101866" d="M-1166.838,649.841h-3.39a9.7,9.7,0,0,1,9.65,9.721v19.8h3.39v-19.8A9.706,9.706,0,0,0-1166.838,649.841Z" transform="translate(1170.227 -649.841)" fill="#735ac7"/>
          </g>
        </g>
        <g id="Group_56197" data-name="Group 56197" transform="translate(0.678 55.264)">
          <g id="Group_56196" data-name="Group 56196">
            <path id="Path_101867" data-name="Path 101867" d="M-1254.545,649.832l3.39,0a9.684,9.684,0,0,0-9.7,9.65v19.873h-3.389V659.482a9.684,9.684,0,0,1,9.7-9.65Z" transform="translate(1264.245 -649.832)" fill="#a38af2"/>
          </g>
        </g>
        <g id="Group_56198" data-name="Group 56198" transform="translate(12.003 74.953)">
          <path id="Path_101868" data-name="Path 101868" d="M-1241.9,697.68a.679.679,0,0,1-.678-.678v-8.82a.679.679,0,0,1,.678-.678.678.678,0,0,1,.678.678V697A.679.679,0,0,1-1241.9,697.68Z" transform="translate(1242.577 -687.503)" fill="#12263f"/>
        </g>
        <g id="Group_56199" data-name="Group 56199" transform="translate(50.175 74.953)">
          <path id="Path_101869" data-name="Path 101869" d="M-1168.865,697.68a.679.679,0,0,1-.678-.678v-8.82a.679.679,0,0,1,.678-.678.678.678,0,0,1,.678.678V697A.679.679,0,0,1-1168.865,697.68Z" transform="translate(1169.543 -687.503)" fill="#12263f"/>
        </g>
        <g id="Group_56200" data-name="Group 56200" transform="translate(0 40.274)">
          <path id="Path_101870" data-name="Path 101870" d="M-1202.685,666.348h-62.179a.679.679,0,0,1-.678-.678V645.792a10.253,10.253,0,0,1,3.051-7.31,10.311,10.311,0,0,1,7.314-3.018h.014l13.116,0V621.83a.678.678,0,0,1,.678-.678h15.258a.679.679,0,0,1,.678.678v13.638h13.1a10.242,10.242,0,0,1,7.311,3.065,10.351,10.351,0,0,1,3.017,7.34v19.8a.679.679,0,0,1-.678.678Zm-61.5-1.357h60.823V645.872a9,9,0,0,0-2.625-6.384,8.9,8.9,0,0,0-6.348-2.662h-13.775a.679.679,0,0,1-.678-.678V622.508h-13.9v13.638a.679.679,0,0,1-.2.48.679.679,0,0,1-.48.2h0l-13.8,0h-.011a8.965,8.965,0,0,0-6.359,2.624,8.908,8.908,0,0,0-2.651,6.349v19.2Z" transform="translate(1265.542 -621.152)" fill="#12263f"/>
        </g>
        <g id="Group_56201" data-name="Group 56201" transform="translate(11.8 0.677)">
          <path id="Path_101871" data-name="Path 101871" d="M-1208.927,557.627v-.583a5.9,5.9,0,0,0-3.6-5.434,36.759,36.759,0,0,1-6.9-3.7l-3.567-2.511v-.006l0,0,0,0v.006l-3.567,2.511a36.755,36.755,0,0,1-6.9,3.7,5.9,5.9,0,0,0-3.6,5.434v.583a5.9,5.9,0,0,0-5.878,6.358l1,12.792h37.891l1-12.792a5.9,5.9,0,0,0-5.879-6.358Z" transform="translate(1242.966 -545.391)" fill="#ffb74d"/>
        </g>
        <g id="Group_56203" data-name="Group 56203" transform="translate(31.777 0.687)">
          <g id="Group_56202" data-name="Group 56202">
            <path id="Path_101872" data-name="Path 101872" d="M-1190.681,557.636v-.583a5.9,5.9,0,0,0-3.6-5.434,36.761,36.761,0,0,1-6.9-3.7l-3.562-2.507c1.389,2.85,4.795,5.191,7.2,6.21a5.9,5.9,0,0,1,3.6,5.434.613.613,0,0,0,.559.608,5.9,5.9,0,0,1,5.32,6.332l-1,12.791h3.256l1-12.791A5.9,5.9,0,0,0-1190.681,557.636Z" transform="translate(1204.743 -545.41)" fill="#d99c42"/>
          </g>
        </g>
        <g id="Group_56205" data-name="Group 56205" transform="translate(11.799 0.687)">
          <g id="Group_56204" data-name="Group 56204">
            <path id="Path_101873" data-name="Path 101873" d="M-1237.069,557.636v-.583a5.9,5.9,0,0,1,3.6-5.434,36.741,36.741,0,0,0,6.9-3.7l3.563-2.507c-1.39,2.85-4.795,5.191-7.2,6.21a5.9,5.9,0,0,0-3.6,5.434.612.612,0,0,1-.558.608,5.9,5.9,0,0,0-5.32,6.332l1,12.791h-3.256l-1-12.791a5.9,5.9,0,0,1,5.878-6.358Z" transform="translate(1242.966 -545.41)" fill="#ffcb80"/>
          </g>
        </g>
        <g id="Group_56206" data-name="Group 56206" transform="translate(11.121)">
          <path id="Path_101874" data-name="Path 101874" d="M-1204.672,576.836h-37.891a.678.678,0,0,1-.676-.625l-1-12.791a6.6,6.6,0,0,1,1.727-4.978,6.6,6.6,0,0,1,4.149-2.076,6.566,6.566,0,0,1,4.016-6,35.659,35.659,0,0,0,6.771-3.633l3.524-2.48a.691.691,0,0,1,.12-.08.681.681,0,0,1,.381-.076.669.669,0,0,1,.254.074.656.656,0,0,1,.125.084l3.521,2.477a35.7,35.7,0,0,0,6.772,3.633,6.565,6.565,0,0,1,4.015,6,6.6,6.6,0,0,1,4.149,2.076,6.594,6.594,0,0,1,1.727,4.978l-1,12.791A.679.679,0,0,1-1204.672,576.836Zm-37.264-1.356h36.637l.955-12.166a5.161,5.161,0,0,0-1.371-3.951,5.161,5.161,0,0,0-3.831-1.676.678.678,0,0,1-.678-.678v-.583a5.211,5.211,0,0,0-3.187-4.808,36.988,36.988,0,0,1-7.024-3.773l-3.181-2.24-3.181,2.24a37.018,37.018,0,0,1-7.025,3.773,5.211,5.211,0,0,0-3.187,4.808v.583a.678.678,0,0,1-.678.678,5.162,5.162,0,0,0-3.831,1.676,5.161,5.161,0,0,0-1.371,3.951Z" transform="translate(1244.264 -544.096)" fill="#12263f"/>
        </g>
        <g id="Group_56207" data-name="Group 56207" transform="translate(10.524 27.892)">
          <path id="Path_101875" data-name="Path 101875" d="M-1239.272,597.462h-1.08a5.054,5.054,0,0,0-5.054,5.054,5.054,5.054,0,0,0,5.054,5.054h1.08Z" transform="translate(1245.406 -597.462)" fill="#ffbd8e"/>
        </g>
        <g id="Group_56208" data-name="Group 56208" transform="translate(46.905 27.892)">
          <path id="Path_101876" data-name="Path 101876" d="M-1174.72,597.462h-1.08V607.57h1.08a5.054,5.054,0,0,0,5.054-5.054A5.054,5.054,0,0,0-1174.72,597.462Z" transform="translate(1175.8 -597.462)" fill="#e18152"/>
        </g>
        <g id="Group_56209" data-name="Group 56209" transform="translate(16.658 12.338)">
          <path id="Path_101877" data-name="Path 101877" d="M-1218.547,608.948a15.223,15.223,0,0,1-15.123-15.32V583.023a15.223,15.223,0,0,1,15.123-15.32,15.222,15.222,0,0,1,15.123,15.32v10.606A15.222,15.222,0,0,1-1218.547,608.948Z" transform="translate(1233.67 -567.703)" fill="#ff9f70"/>
        </g>
        <g id="Group_56210" data-name="Group 56210" transform="translate(30.063 12.338)">
          <path id="Path_101878" data-name="Path 101878" d="M-1206.3,567.7a15.048,15.048,0,0,0-1.719.1,15.249,15.249,0,0,1,13.4,15.219v10.606a15.25,15.25,0,0,1-13.4,15.219,15.174,15.174,0,0,0,1.719.1,15.222,15.222,0,0,0,15.123-15.32V583.023A15.223,15.223,0,0,0-1206.3,567.7Z" transform="translate(1208.023 -567.702)" fill="#e18152"/>
        </g>
        <g id="Group_56211" data-name="Group 56211" transform="translate(16.658 12.338)">
          <path id="Path_101879" data-name="Path 101879" d="M-1218.547,567.7a15.049,15.049,0,0,1,1.719.1,15.25,15.25,0,0,0-13.4,15.219v10.606a15.251,15.251,0,0,0,13.4,15.219,15.176,15.176,0,0,1-1.719.1,15.223,15.223,0,0,1-15.123-15.32V583.023a15.223,15.223,0,0,1,15.123-15.321Z" transform="translate(1233.67 -567.702)" fill="#ffbd8e"/>
        </g>
        <g id="Group_56212" data-name="Group 56212" transform="translate(15.98 11.66)">
          <path id="Path_101880" data-name="Path 101880" d="M-1219.166,609.007a15.919,15.919,0,0,1-15.8-16V582.4a15.919,15.919,0,0,1,15.8-16,15.919,15.919,0,0,1,15.8,16v10.606A15.919,15.919,0,0,1-1219.166,609.007Zm0-41.246a14.561,14.561,0,0,0-14.445,14.641v10.606a14.56,14.56,0,0,0,14.445,14.641,14.56,14.56,0,0,0,14.445-14.641V582.4a14.561,14.561,0,0,0-14.445-14.641Z" transform="translate(1234.968 -566.405)" fill="#12263f"/>
        </g>
        <g id="Group_56213" data-name="Group 56213" transform="translate(9.846 27.213)">
          <path id="Path_101881" data-name="Path 101881" d="M-1239.891,607.628h-1.08a5.738,5.738,0,0,1-5.732-5.732,5.738,5.738,0,0,1,5.732-5.732h1.08a.679.679,0,0,1,.678.678v10.108A.678.678,0,0,1-1239.891,607.628Zm-1.08-10.107a4.38,4.38,0,0,0-4.375,4.375,4.38,4.38,0,0,0,4.375,4.376h.4V597.52Z" transform="translate(1246.703 -596.163)" fill="#12263f"/>
        </g>
        <g id="Group_56214" data-name="Group 56214" transform="translate(46.227 27.214)">
          <path id="Path_101882" data-name="Path 101882" d="M-1175.339,607.628h-1.08a.678.678,0,0,1-.678-.678V596.842a.678.678,0,0,1,.678-.678h1.08a5.739,5.739,0,0,1,5.732,5.732A5.738,5.738,0,0,1-1175.339,607.628Zm-.4-1.356h.4a4.38,4.38,0,0,0,4.375-4.376,4.38,4.38,0,0,0-4.375-4.376h-.4Z" transform="translate(1177.097 -596.164)" fill="#12263f"/>
        </g>
        <g id="Group_56215" data-name="Group 56215" transform="translate(31.731 51.802)">
          <path id="Path_101883" data-name="Path 101883" d="M-1197.132,643.209l-7.7,9.4,8.656,6.357,2.3-12.291Z" transform="translate(1204.832 -643.209)" fill="#f4efed"/>
        </g>
        <g id="Group_56216" data-name="Group 56216" transform="translate(20.846 51.802)">
          <path id="Path_101884" data-name="Path 101884" d="M-1222.33,643.209l7.558,9.4-8.582,6.357-2.3-12.292Z" transform="translate(1225.657 -643.209)" fill="#f4efed"/>
        </g>
        <g id="Group_56217" data-name="Group 56217" transform="translate(31.052 51.124)">
          <path id="Path_101885" data-name="Path 101885" d="M-1196.8,659.026a.677.677,0,0,1-.4-.131l-8.656-6.357a.679.679,0,0,1-.272-.462.677.677,0,0,1,.148-.515l7.7-9.4a.676.676,0,0,1,.5-.248.678.678,0,0,1,.517.213l3.258,3.466a.678.678,0,0,1,.172.59l-2.3,12.291a.678.678,0,0,1-.417.506.678.678,0,0,1-.249.048Zm-7.678-7.159,7.21,5.3,2.041-10.892-2.494-2.653Z" transform="translate(1206.13 -641.912)" fill="#12263f"/>
        </g>
        <g id="Group_56218" data-name="Group 56218" transform="translate(20.168 51.123)">
          <path id="Path_101886" data-name="Path 101886" d="M-1223.974,659.025a.678.678,0,0,1-.248-.047.679.679,0,0,1-.419-.507l-2.3-12.293a.677.677,0,0,1,.177-.594l3.327-3.465a.674.674,0,0,1,.519-.208.678.678,0,0,1,.5.253l7.558,9.4a.679.679,0,0,1,.144.511.678.678,0,0,1-.269.459l-8.582,6.357a.681.681,0,0,1-.4.133Zm-1.572-12.753,2.039,10.884,7.144-5.292-6.633-8.249Z" transform="translate(1226.954 -641.91)" fill="#12263f"/>
        </g>
        <g id="Group_56219" data-name="Group 56219" transform="translate(3.389 68.504)">
          <path id="Path_101887" data-name="Path 101887" d="M-1258.38,680.592a.679.679,0,0,1-.678-.678v-4.07a.679.679,0,0,1,.678-.678.679.679,0,0,1,.678.678v4.07A.678.678,0,0,1-1258.38,680.592Z" transform="translate(1259.058 -675.165)" fill="#12263f"/>
        </g>
      </g>
      <g id="Group_56239" data-name="Group 56239" transform="translate(-1297.044 544.096)">
        <g id="Group_56231" data-name="Group 56231" transform="translate(7.958 8.029)">
          <g id="Group_56221" data-name="Group 56221" transform="translate(0.641 0.64)">
            <path id="Path_101888" data-name="Path 101888" d="M-1250.922,575.519a14.836,14.836,0,0,0-15.415-14.824,14.9,14.9,0,0,0-14.244,14.239,14.833,14.833,0,0,0,8.829,14.155,2.953,2.953,0,0,1,1.769,2.7v7.383a4.3,4.3,0,0,0,4.021,4.341,4.226,4.226,0,0,0,4.43-4.221v-7.5a2.946,2.946,0,0,1,1.76-2.693,14.833,14.833,0,0,0,8.849-13.573Z" transform="translate(1280.592 -560.684)" fill="#fcc24c"/>
          </g>
          <g id="Group_56222" data-name="Group 56222" transform="translate(14.594 0.64)">
            <path id="Path_101889" data-name="Path 101889" d="M-1253.594,560.695c-.1,0-.19.013-.285.018a14.833,14.833,0,0,1,13.934,14.806,14.834,14.834,0,0,1-8.849,13.573,2.946,2.946,0,0,0-1.76,2.693v7.5a4.224,4.224,0,0,1-3.341,4.127,4.066,4.066,0,0,0,.677.094,4.226,4.226,0,0,0,4.431-4.221v-7.5a2.945,2.945,0,0,1,1.76-2.693,14.834,14.834,0,0,0,8.848-13.573A14.834,14.834,0,0,0-1253.594,560.695Z" transform="translate(1253.895 -560.684)" fill="#dea42e"/>
          </g>
          <g id="Group_56223" data-name="Group 56223" transform="translate(0.642 0.64)">
            <path id="Path_101890" data-name="Path 101890" d="M-1265.176,560.695c.1,0,.19.013.285.018a14.834,14.834,0,0,0-13.934,14.806,14.833,14.833,0,0,0,8.849,13.573,2.946,2.946,0,0,1,1.76,2.693v7.5a4.224,4.224,0,0,0,3.341,4.127,4.053,4.053,0,0,1-.677.094,4.226,4.226,0,0,1-4.43-4.221v-7.5a2.945,2.945,0,0,0-1.76-2.693,14.834,14.834,0,0,1-8.848-13.573,14.834,14.834,0,0,1,15.414-14.824Z" transform="translate(1280.59 -560.684)" fill="#fce06a"/>
          </g>
          <g id="Group_56224" data-name="Group 56224">
            <path id="Path_101891" data-name="Path 101891" d="M-1266.339,603.571c-.079,0-.158,0-.237-.006a4.922,4.922,0,0,1-4.633-4.981V591.2a2.314,2.314,0,0,0-1.387-2.11,15.413,15.413,0,0,1-9.21-14.766,15.531,15.531,0,0,1,14.86-14.855,15.372,15.372,0,0,1,11.336,4.314,15.348,15.348,0,0,1,4.744,11.151,15.489,15.489,0,0,1-9.231,14.16,2.307,2.307,0,0,0-1.378,2.107v7.5a4.826,4.826,0,0,1-1.508,3.522,4.825,4.825,0,0,1-3.356,1.345Zm0-42.831c-.187,0-.373,0-.561.011a14.243,14.243,0,0,0-13.627,13.623,14.14,14.14,0,0,0,8.448,13.544,3.6,3.6,0,0,1,2.15,3.283v7.383a3.643,3.643,0,0,0,3.411,3.7,3.551,3.551,0,0,0,2.648-.987,3.554,3.554,0,0,0,1.111-2.594v-7.5a3.589,3.589,0,0,1,2.142-3.28,14.205,14.205,0,0,0,8.467-12.987,14.076,14.076,0,0,0-4.352-10.227,14.078,14.078,0,0,0-9.838-3.968Z" transform="translate(1281.818 -559.459)" fill="#12263f"/>
          </g>
          <g id="Group_56225" data-name="Group 56225" transform="translate(11.25 31.742)">
            <path id="Path_101892" data-name="Path 101892" d="M-1260.294,620.191v7.384a4.3,4.3,0,0,0,4.022,4.341,4.226,4.226,0,0,0,4.431-4.221v-7.5Z" transform="translate(1260.294 -620.191)" fill="#8c6df2"/>
          </g>
          <g id="Group_56226" data-name="Group 56226" transform="translate(14.594 31.742)">
            <path id="Path_101893" data-name="Path 101893" d="M-1250.554,620.191v7.5a4.224,4.224,0,0,1-3.341,4.127,4.072,4.072,0,0,0,.677.094,4.226,4.226,0,0,0,4.431-4.221v-7.5Z" transform="translate(1253.895 -620.191)" fill="#735ac7"/>
          </g>
          <g id="Group_56227" data-name="Group 56227" transform="translate(11.25 31.742)">
            <path id="Path_101894" data-name="Path 101894" d="M-1258.527,620.191v7.5a4.224,4.224,0,0,0,3.341,4.127,4.067,4.067,0,0,1-.677.094,4.226,4.226,0,0,1-4.431-4.221v-7.5Z" transform="translate(1260.294 -620.191)" fill="#a38af2"/>
          </g>
          <g id="Group_56228" data-name="Group 56228" transform="translate(10.609 31.102)">
            <path id="Path_101895" data-name="Path 101895" d="M-1256.649,631.976c-.079,0-.158,0-.238-.006a4.922,4.922,0,0,1-4.632-4.981v-7.383a.641.641,0,0,1,.641-.641h8.452a.641.641,0,0,1,.641.641v7.5a4.826,4.826,0,0,1-1.508,3.522A4.824,4.824,0,0,1-1256.649,631.976Zm-3.589-11.729v6.742a3.642,3.642,0,0,0,3.411,3.7,3.543,3.543,0,0,0,2.648-.986,3.553,3.553,0,0,0,1.111-2.594v-6.862Z" transform="translate(1261.52 -618.965)" fill="#12263f"/>
          </g>
          <g id="Group_56229" data-name="Group 56229" transform="translate(10.995 34.354)">
            <path id="Path_101896" data-name="Path 101896" d="M-1252.461,626.469h-7.679a.641.641,0,0,1-.641-.641.641.641,0,0,1,.641-.641h7.679a.641.641,0,0,1,.641.641A.64.64,0,0,1-1252.461,626.469Z" transform="translate(1260.781 -625.187)" fill="#12263f"/>
          </g>
          <g id="Group_56230" data-name="Group 56230" transform="translate(10.995 38.065)">
            <path id="Path_101897" data-name="Path 101897" d="M-1252.461,633.57h-7.679a.641.641,0,0,1-.641-.641.641.641,0,0,1,.641-.641h7.679a.641.641,0,0,1,.641.641A.641.641,0,0,1-1252.461,633.57Z" transform="translate(1260.781 -632.288)" fill="#12263f"/>
          </g>
        </g>
        <g id="Group_56232" data-name="Group 56232" transform="translate(22.756)">
          <path id="Path_101898" data-name="Path 101898" d="M-1252.827,551.092a.679.679,0,0,1-.678-.678v-5.64a.679.679,0,0,1,.678-.678.679.679,0,0,1,.678.678v5.64A.679.679,0,0,1-1252.827,551.092Z" transform="translate(1253.505 -544.096)" fill="#12263f"/>
        </g>
        <g id="Group_56233" data-name="Group 56233" transform="translate(0 22.709)">
          <path id="Path_101899" data-name="Path 101899" d="M-1290.048,588.223a.679.679,0,0,1-.678.678h-5.64a.678.678,0,0,1-.678-.678.679.679,0,0,1,.678-.678h5.64A.679.679,0,0,1-1290.048,588.223Z" transform="translate(1297.044 -587.545)" fill="#12263f"/>
        </g>
        <g id="Group_56234" data-name="Group 56234" transform="translate(3.127 11.055)">
          <path id="Path_101900" data-name="Path 101900" d="M-1284.953,569.156a.679.679,0,0,1-.93.236l-4.846-2.884a.679.679,0,0,1-.236-.93.679.679,0,0,1,.93-.236l4.847,2.884A.678.678,0,0,1-1284.953,569.156Z" transform="translate(1291.06 -565.247)" fill="#12263f"/>
        </g>
        <g id="Group_56235" data-name="Group 56235" transform="translate(11.964 2.535)">
          <path id="Path_101901" data-name="Path 101901" d="M-1270.514,555.206a.678.678,0,0,1-.917-.281l-2.643-4.981a.679.679,0,0,1,.281-.917.678.678,0,0,1,.917.281l2.643,4.982A.679.679,0,0,1-1270.514,555.206Z" transform="translate(1274.153 -548.946)" fill="#12263f"/>
        </g>
        <g id="Group_56236" data-name="Group 56236" transform="translate(9.55 36.527)">
          <path id="Path_101902" data-name="Path 101902" d="M-1274.4,614.11a.679.679,0,0,1,.153.947l-3.3,4.572a.678.678,0,0,1-.947.153.679.679,0,0,1-.153-.947l3.3-4.572A.679.679,0,0,1-1274.4,614.11Z" transform="translate(1278.771 -613.982)" fill="#12263f"/>
        </g>
        <g id="Group_56237" data-name="Group 56237" transform="translate(1.845 29.351)">
          <path id="Path_101903" data-name="Path 101903" d="M-1287.016,600.668a.678.678,0,0,1-.361.889l-5.2,2.193a.678.678,0,0,1-.888-.361.679.679,0,0,1,.361-.889l5.2-2.193A.679.679,0,0,1-1287.016,600.668Z" transform="translate(1293.515 -600.253)" fill="#12263f"/>
        </g>
        <g id="Group_56238" data-name="Group 56238" transform="translate(30.946 2.615)">
          <path id="Path_101904" data-name="Path 101904" d="M-1237.487,555.3a.679.679,0,0,1-.263-.922l2.741-4.928a.678.678,0,0,1,.922-.263.679.679,0,0,1,.263.922l-2.741,4.929A.678.678,0,0,1-1237.487,555.3Z" transform="translate(1237.836 -549.098)" fill="#12263f"/>
        </g>
      </g>
    </g>
  </g>
</svg>
