<svg xmlns="http://www.w3.org/2000/svg" width="80" height="80" viewBox="0 0 80 80">
  <g id="t3-ic3" transform="translate(-543 -361)">
    <rect id="Rectangle_7841" data-name="Rectangle 7841" width="80" height="80" rx="10" transform="translate(543 361)" fill="#5038a1"/>
    <g id="clasificacion" transform="translate(545.065 376)">
      <path id="Path_101699" data-name="Path 101699" d="M376.516,127.443a.964.964,0,0,0,.869-.009c.778-.406,3.319-1.888,3.349-3.927a2.452,2.452,0,0,0-3.788-2.062,2.429,2.429,0,0,0-1.331-.4,2.525,2.525,0,0,0-2.46,2.432c-.043,2.116,2.562,3.568,3.362,3.962Zm-.908-4.929h.007a.978.978,0,0,1,.673.27h0a.962.962,0,0,0,1.313,0,.989.989,0,0,1,1.669.7c-.014.965-1.381,1.988-2.334,2.526-.963-.518-2.336-1.516-2.316-2.5A1.039,1.039,0,0,1,375.607,122.514Z" transform="translate(-324.451 -109.228)" fill="#fff"/>
      <path id="Path_101700" data-name="Path 101700" d="M64.377,127.443a.964.964,0,0,0,.869-.01c.778-.406,3.319-1.888,3.349-3.927a2.453,2.453,0,0,0-3.788-2.061,2.43,2.43,0,0,0-1.348-.4,2.488,2.488,0,0,0-2.443,2.432C60.973,125.6,63.578,127.048,64.377,127.443Zm-.908-4.929h.007a.977.977,0,0,1,.673.27h0a.962.962,0,0,0,1.313,0,.989.989,0,0,1,1.669.7c-.014.965-1.381,1.988-2.334,2.526-.963-.518-2.336-1.516-2.316-2.5a1.039,1.039,0,0,1,.989-1Z" transform="translate(-42.794 -109.228)" fill="#fff"/>
      <path id="Path_101701" data-name="Path 101701" d="M23.833,20.476h2.356a.313.313,0,0,1,.223.092l1.6,1.592a1.26,1.26,0,0,0,1.768.006l1.626-1.6a.313.313,0,0,1,.221-.091H33.95a2.621,2.621,0,0,0,2.618-2.618V15.111a3.336,3.336,0,0,0,1.137.2h3.158a.84.84,0,0,1,.63.284l1.6,1.814a1.467,1.467,0,0,0,1.094.5h.006a1.467,1.467,0,0,0,1.092-.488l1.635-1.828a.84.84,0,0,1,.625-.279h3.123a3.339,3.339,0,0,0,1.032-.163v2.711a2.621,2.621,0,0,0,2.618,2.618h2.356a.313.313,0,0,1,.223.092l1.6,1.592a1.26,1.26,0,0,0,1.768.006l1.626-1.6a.313.313,0,0,1,.221-.09h2.328a2.621,2.621,0,0,0,2.618-2.618v-6.8a2.621,2.621,0,0,0-2.618-2.618H54.016V3.351A3.355,3.355,0,0,0,50.665,0H44.7a.732.732,0,0,0,0,1.465h5.967a1.888,1.888,0,0,1,1.886,1.886v8.608a1.888,1.888,0,0,1-1.886,1.886H47.542a2.307,2.307,0,0,0-1.717.768l-1.636,1.828-1.6-1.814a2.3,2.3,0,0,0-1.729-.781H37.706a1.888,1.888,0,0,1-1.886-1.886V3.351a1.888,1.888,0,0,1,1.886-1.886H41.28A.732.732,0,0,0,41.28,0H37.706a3.355,3.355,0,0,0-3.351,3.351V8.443H23.833a2.621,2.621,0,0,0-2.618,2.618v6.8A2.621,2.621,0,0,0,23.833,20.476Zm40.6-10.567a1.154,1.154,0,0,1,1.153,1.153v6.8a1.154,1.154,0,0,1-1.153,1.153H62.1a1.769,1.769,0,0,0-1.248.511l-1.479,1.455-1.449-1.446a1.768,1.768,0,0,0-1.257-.52H54.315a1.154,1.154,0,0,1-1.153-1.153V14.191a3.338,3.338,0,0,0,.854-2.232V9.908H64.433ZM22.68,11.061a1.154,1.154,0,0,1,1.153-1.153H34.354v2.051a3.335,3.335,0,0,0,.749,2.109v3.79a1.154,1.154,0,0,1-1.153,1.153H31.622a1.77,1.77,0,0,0-1.248.511L28.9,20.976l-1.449-1.446a1.768,1.768,0,0,0-1.257-.52H23.833a1.154,1.154,0,0,1-1.153-1.153v-6.8Z" transform="translate(-6.881)" fill="#fff"/>
      <path id="Path_101702" data-name="Path 101702" d="M200.9,39.8c-.061,3.016,3.765,5.14,4.939,5.719a1.086,1.086,0,0,0,.979-.011c1.145-.6,4.885-2.771,4.927-5.683a3.372,3.372,0,0,0-5.421-2.679,3.353,3.353,0,0,0-2.064-.694A3.423,3.423,0,0,0,200.9,39.8Zm3.37-1.882h.013a1.89,1.89,0,0,1,1.3.52h0a1.084,1.084,0,0,0,1.479,0,1.909,1.909,0,0,1,3.218,1.367c-.023,1.621-2.113,3.313-3.967,4.314-1.882-.964-3.982-2.628-3.949-4.289A1.973,1.973,0,0,1,204.266,37.917Z" transform="translate(-169.014 -32.892)" fill="#fff"/>
      <path id="Path_101703" data-name="Path 101703" d="M60.493,217.614V206.946a7.966,7.966,0,0,0-11.6-7.087.732.732,0,0,0,.669,1.3,6.426,6.426,0,0,1,2.965-.714,6.506,6.506,0,0,1,6.5,6.5v9.376l-.059-.027h0l-3.689-1.52v-1.432a8.666,8.666,0,0,0,2.493-5.741c0-2.674-1.19-4.775-3.185-5.621a.734.734,0,0,0-.568,0,.762.762,0,0,0-.434.52,5.284,5.284,0,0,1-4.047,4.028l-1.676.359a.85.85,0,0,0-.577.863,8.686,8.686,0,0,0,2.493,5.6v1.423l-2.914,1.2a3.647,3.647,0,0,0-.834-.753v-8.277A6.457,6.457,0,0,1,47.2,203.22a.732.732,0,1,0-1.2-.841,7.914,7.914,0,0,0-1.439,4.567v7.6l-4.008-1.652v-2.782a9.852,9.852,0,0,0,3.124-6.791,5.977,5.977,0,0,0,1.831-3.2,2.717,2.717,0,0,0-.357-2.237,2.685,2.685,0,0,0-1.1-.946,2.809,2.809,0,0,0,.033-.747,2.782,2.782,0,0,0-3.965-2.261,3.224,3.224,0,0,0-4.413-1.335,2.784,2.784,0,0,0-4.366,1.327,3.662,3.662,0,0,0-2.2,5.838,9.251,9.251,0,0,0,.125,1.9,3.485,3.485,0,0,0,1.71,2.4,12,12,0,0,0,.28,1.419.772.772,0,0,0,.894.523.732.732,0,0,0,.523-.894,10.544,10.544,0,0,1-.281-1.521c-.032-.283.073-.408.716-.721a2.959,2.959,0,0,0,1.334-1.019,4.285,4.285,0,0,0,3.882-1.9,3.276,3.276,0,0,0,2.038.538,3.4,3.4,0,0,0,1.307,1.441c.436.3.571.394.573.947-.152,3.423-2.045,6.958-4.959,6.958a4.131,4.131,0,0,1-3.315-1.881.732.732,0,1,0-1.185.861,6.834,6.834,0,0,0,1.227,1.308v2.775l-4.854,2a3.661,3.661,0,0,0-1.465,1.1l-2.947-1.214v-2.252a8.529,8.529,0,0,0,2.378-3.725.732.732,0,0,0,.513-.329c.761-1.189,2.224-4.8-.121-7.171a3.633,3.633,0,0,0-3.288-.925,2.317,2.317,0,0,0-.153-.282c-.989-1.545-3.546-1.762-5.82-.493a.732.732,0,1,0,.714,1.279c1.706-.951,3.38-.766,3.873,0a1.6,1.6,0,0,1,.036,1.345,3.933,3.933,0,0,1-2.4,2.316,8.6,8.6,0,0,0-3.31,2.167,6.67,6.67,0,0,1-.056-3.6.732.732,0,1,0-1.4-.423,8.026,8.026,0,0,0,.647,5.844.732.732,0,0,0,.53.332,8.553,8.553,0,0,0,2.358,3.656v2.258c-.067.029-3.659,1.5-3.73,1.539a3.165,3.165,0,0,0-1.925,2.918v2.308a1.712,1.712,0,0,0,1.71,1.71H59.225a1.712,1.712,0,0,0,1.71-1.71v-2.308a3.171,3.171,0,0,0-.442-1.618ZM41.538,199.449a.732.732,0,0,0-.931-.5,1.661,1.661,0,0,1-1.889-.649.732.732,0,0,0-1.3.183,2.777,2.777,0,0,1-2.644,1.915,4.985,4.985,0,0,1-.644-.085.733.733,0,0,0-.853.562c-.063.287-.281.416-.8.664a2.983,2.983,0,0,0-1.227.9,2,2,0,0,1-.543-1.05,8.182,8.182,0,0,1-.089-1.822.733.733,0,0,0-.193-.555,2.2,2.2,0,0,1,1.546-3.687.733.733,0,0,0,.708-.664,1.316,1.316,0,0,1,2.361-.671.732.732,0,0,0,1.066.108,1.757,1.757,0,0,1,2.9,1.122.732.732,0,0,0,1.292.385,1.307,1.307,0,0,1,1.136-.472,1.318,1.318,0,0,1,1.036,1.946.732.732,0,0,0,.565,1.081,1.23,1.23,0,0,1,.9.539,1.253,1.253,0,0,1,.164,1.032,6.912,6.912,0,0,1-.743,1.8,2.841,2.841,0,0,0-.859-.809,1.958,1.958,0,0,1-.962-1.271Zm8.308,8.511a6.754,6.754,0,0,0,4.892-4.2,4.748,4.748,0,0,1,1.57,3.847c0,2.628-2.287,5.669-3.78,5.669-1.383,0-3.448-2.588-3.744-5.084ZM35.983,221.785a14.391,14.391,0,0,0-2.727-7l1.314-.541a4.09,4.09,0,0,0,2.713,1.031h0A4.091,4.091,0,0,0,40,214.247l1.293.533a14.4,14.4,0,0,0-2.75,7.006Zm6.712-6.427,2.159.89a2.193,2.193,0,0,1,1.362,2.034v3.5h-6.2A12.914,12.914,0,0,1,42.695,215.358ZM37.283,211.3a5.031,5.031,0,0,0,1.81-.331v2.126a2.628,2.628,0,0,1-1.809.721h0a2.628,2.628,0,0,1-1.809-.721v-2.125a5.064,5.064,0,0,0,1.808.329Zm-10.4,10.49H25.61l1.277-1.483Zm.009-3.737-3.219,3.737H20.344l-3.358-4.5,2.824-1.163a3.4,3.4,0,0,0,2.184.795h0a3.4,3.4,0,0,0,2.185-.795l2.844,1.172A3.67,3.67,0,0,0,26.9,218.048Zm-.424-15.72c1.275,1.291.873,3.249.371,4.476a12.4,12.4,0,0,0-2.006-1.622,3.532,3.532,0,0,1-1.206-1.258,4.778,4.778,0,0,0,.632-1.228,3.807,3.807,0,0,0,.187-.869,2.222,2.222,0,0,1,2.022.5Zm-8.353,5.507a7.114,7.114,0,0,1,2.859-1.916,5.766,5.766,0,0,0,1.609-.9,5.1,5.1,0,0,0,1.46,1.394,10.993,10.993,0,0,1,1.808,1.473c-.565,2.4-2.534,4.407-3.862,4.407s-3.326-2.036-3.874-4.46Zm3.875,5.925a3.3,3.3,0,0,0,1.286-.282v1.491a1.935,1.935,0,0,1-1.286.488h0a1.935,1.935,0,0,1-1.285-.489v-1.492A3.279,3.279,0,0,0,21.994,213.76Zm-6.94,7.78v-2.308a1.7,1.7,0,0,1,.589-1.292l2.872,3.845H15.3A.245.245,0,0,1,15.054,221.54Zm13.3-3.258a2.193,2.193,0,0,1,1.362-2.034l2.141-.882a12.909,12.909,0,0,1,2.652,6.42H28.352v-3.5Zm19.329,3.5v-3.5a3.681,3.681,0,0,0-.14-1l2.244-.925a10.33,10.33,0,0,0,1.226,5.428Zm3.563-6.521v-.845a2.754,2.754,0,0,0,2.571,0s0,.774,0,.85c0,2.2,0,4.466-1.286,6.138-1.285-1.669-1.286-3.939-1.286-6.139a.008.008,0,0,0,0,0Zm8.226,6.276a.245.245,0,0,1-.245.245H54.048a10.332,10.332,0,0,0,1.226-5.428l3.136,1.292h0a1.706,1.706,0,0,1,1.059,1.582Z" transform="translate(0 -173.25)" fill="#fff"/>
    </g>
  </g>
</svg>
