<svg xmlns="http://www.w3.org/2000/svg" width="80" height="80" viewBox="0 0 80 80">
  <g id="t3-ic2" transform="translate(-543 -105)">
    <rect id="Rectangle_7834" data-name="Rectangle 7834" width="80" height="80" rx="10" transform="translate(543 105)" fill="#5038a1"/>
    <g id="embalaje" transform="translate(529.5 94.362)">
      <path id="Path_101697" data-name="Path 101697" d="M75.051,42.488,63.963,38.193a10.928,10.928,0,1,0-20.616,0L32.259,42.488A1.193,1.193,0,0,0,31.5,43.6V69.319a1.193,1.193,0,0,0,.761,1.113l20.962,8.126a1.2,1.2,0,0,0,.432.08,1.181,1.181,0,0,0,.425-.089l.006.008,20.964-8.126a1.193,1.193,0,0,0,.759-1.113V43.6a1.193,1.193,0,0,0-.759-1.112ZM71.319,43.6l-3.87,1.5-6.413-2.468a10.985,10.985,0,0,0,1.891-2.284Zm-12.63.686,5.454,2.1-3.079,1.193-5.649-2.207a10.854,10.854,0,0,0,3.274-1.084Zm3.712,5.33,4.006-1.553v4.97l-.67-.437a1.194,1.194,0,0,0-1.52.181L62.4,54.705ZM53.655,26.054A8.542,8.542,0,1,1,45.114,34.6a8.542,8.542,0,0,1,8.542-8.542Zm-8.589,15.27-1.6-.624.914-.354a10.953,10.953,0,0,0,.682.98Zm-4.887.652,17.591,6.876-4.114,1.595L35.992,43.6ZM33.886,68.5V45.342l18.576,7.2V75.7Zm20.962,7.2V52.543l5.167-2v7.172a1.193,1.193,0,0,0,.753,1.108,1.18,1.18,0,0,0,.44.085,1.192,1.192,0,0,0,.868-.375l3.194-3.39,1.679,1.091a1.193,1.193,0,0,0,1.841-1V47.138l4.635-1.8V68.5Z" transform="translate(0 0)" fill="#fff"/>
      <path id="Path_101698" data-name="Path 101698" d="M59.249,41.44a1.193,1.193,0,0,0,1.568-.023l5.786-5.2a1.193,1.193,0,1,0-1.6-1.772L60,38.949,57.713,37.02a1.193,1.193,0,0,0-1.541,1.822Z" transform="translate(-7.719 -3.333)" fill="#fff"/>
    </g>
  </g>
</svg>
