<svg xmlns="http://www.w3.org/2000/svg" width="140" height="140" viewBox="0 0 140 140">
  <g id="t3-ic8" transform="translate(-730 -2275)">
    <circle id="Ellipse_4091" data-name="Ellipse 4091" cx="70" cy="70" r="70" transform="translate(730 2275)" fill="#fff"/>
    <g id="Group_56282" data-name="Group 56282" transform="translate(1472.432 1539.115)">
      <g id="Group_56275" data-name="Group 56275" transform="translate(-712.432 767.766)">
        <g id="Group_56241" data-name="Group 56241" transform="translate(11.178 0.644)">
          <path id="Path_101905" data-name="Path 101905" d="M-661.835,773.455a5.652,5.652,0,0,1,5.7,5.2c.007.123.012.248.012.373v.6a6.049,6.049,0,0,1,6.03,6.522l-1.03,13.122H-690l-1.03-13.122a6.049,6.049,0,0,1,6.03-6.522v-.6c0-.125,0-.249.012-.373a5.652,5.652,0,0,1,5.7-5.2Z" transform="translate(691.046 -773.455)" fill="#ffb74d"/>
        </g>
        <g id="Group_56242" data-name="Group 56242" transform="translate(46.943 6.881)">
          <path id="Path_101906" data-name="Path 101906" d="M-622.617,785.388a6.633,6.633,0,0,1,2.293,5.573l-1.03,14.006h2.89l1.03-13.122A6.045,6.045,0,0,0-622.617,785.388Z" transform="translate(622.617 -785.388)" fill="#d99c42"/>
        </g>
        <g id="Group_56243" data-name="Group 56243" transform="translate(11.178 6.881)">
          <path id="Path_101907" data-name="Path 101907" d="M-685.844,785.388a6.633,6.633,0,0,0-2.293,5.573l1.03,14.006H-690l-1.03-13.122A6.045,6.045,0,0,1-685.844,785.388Z" transform="translate(691.046 -785.388)" fill="#ffcb80"/>
        </g>
        <g id="Group_56244" data-name="Group 56244" transform="translate(10.534)">
          <path id="Path_101908" data-name="Path 101908" d="M-651.715,799.327h-38.87a.644.644,0,0,1-.642-.594l-1.031-13.122a6.715,6.715,0,0,1,1.758-5.068,6.719,6.719,0,0,1,4.271-2.118q0-.2.013-.4a6.281,6.281,0,0,1,6.339-5.805h17.454a6.282,6.282,0,0,1,6.34,5.805q.012.2.013.4a6.718,6.718,0,0,1,4.27,2.118,6.711,6.711,0,0,1,1.758,5.068l-1.03,13.122a.645.645,0,0,1-.642.594Zm-38.275-1.288h37.679l.984-12.528a5.346,5.346,0,0,0-1.42-4.092,5.348,5.348,0,0,0-3.969-1.736.644.644,0,0,1-.644-.644v-.6c0-.112,0-.224-.01-.334a4.993,4.993,0,0,0-5.055-4.6h-17.453a4.993,4.993,0,0,0-5.054,4.6q-.01.166-.01.333v.6a.644.644,0,0,1-.644.644,5.349,5.349,0,0,0-3.969,1.735,5.347,5.347,0,0,0-1.42,4.092Z" transform="translate(692.278 -772.223)" fill="#12263f"/>
        </g>
        <g id="Group_56245" data-name="Group 56245" transform="translate(0.644 36.766)">
          <path id="Path_101909" data-name="Path 101909" d="M-687.759,856.849V842.566h15.223v14.283h13.744a9.683,9.683,0,0,1,9.628,9.7V886.3H-711.2V866.473a9.662,9.662,0,0,1,9.678-9.628Z" transform="translate(711.2 -842.566)" fill="#8c6df2"/>
        </g>
        <g id="Group_56246" data-name="Group 56246" transform="translate(23.063 56.97)">
          <path id="Path_101910" data-name="Path 101910" d="M-668.307,887.565l8.563,12.453,8.635-12.453-8.635-6.343Z" transform="translate(668.307 -881.222)" fill="#f4efed"/>
        </g>
        <g id="Group_56247" data-name="Group 56247" transform="translate(26.086 56.97)">
          <path id="Path_101911" data-name="Path 101911" d="M-656.983,881.222l-5.54,4.1,5.54,4.1,5.586-4.1Z" transform="translate(662.523 -881.222)" fill="#ffdc72"/>
        </g>
        <g id="Group_56248" data-name="Group 56248" transform="translate(27.69 65.176)">
          <path id="Path_101912" data-name="Path 101912" d="M-655.518,896.922l-3.936,4.866,3.936,5.723,3.969-5.723Z" transform="translate(659.454 -896.922)" fill="#ffdc72"/>
        </g>
        <g id="Group_56249" data-name="Group 56249" transform="translate(24.085 36.766)">
          <path id="Path_101913" data-name="Path 101913" d="M-666.351,853.391l7.54,9.379,7.682-9.379V842.566h-15.223Z" transform="translate(666.351 -842.566)" fill="#ff9f70"/>
        </g>
        <g id="Group_56251" data-name="Group 56251" transform="translate(49.67 51.049)">
          <g id="Group_56250" data-name="Group 56250">
            <path id="Path_101914" data-name="Path 101914" d="M-614.018,869.894H-617.4a9.68,9.68,0,0,1,9.628,9.7v19.756h3.382V879.6a9.683,9.683,0,0,0-9.628-9.7Z" transform="translate(617.4 -869.894)" fill="#735ac7"/>
          </g>
        </g>
        <g id="Group_56253" data-name="Group 56253" transform="translate(0.644 51.045)">
          <g id="Group_56252" data-name="Group 56252">
            <path id="Path_101915" data-name="Path 101915" d="M-701.522,869.886l3.382,0a9.662,9.662,0,0,0-9.678,9.628v19.827H-711.2V879.513A9.662,9.662,0,0,1-701.522,869.886Z" transform="translate(711.2 -869.886)" fill="#a38af2"/>
          </g>
        </g>
        <g id="Group_56254" data-name="Group 56254" transform="translate(11.976 70.721)">
          <path id="Path_101916" data-name="Path 101916" d="M-688.875,917.62a.644.644,0,0,1-.644-.644v-8.8a.644.644,0,0,1,.644-.644.644.644,0,0,1,.644.644v8.8A.644.644,0,0,1-688.875,917.62Z" transform="translate(689.519 -907.532)" fill="#12263f"/>
        </g>
        <g id="Group_56255" data-name="Group 56255" transform="translate(50.06 70.721)">
          <path id="Path_101917" data-name="Path 101917" d="M-616.01,917.62a.644.644,0,0,1-.644-.644v-8.8a.644.644,0,0,1,.644-.644.644.644,0,0,1,.644.644v8.8A.644.644,0,0,1-616.01,917.62Z" transform="translate(616.654 -907.532)" fill="#12263f"/>
        </g>
        <g id="Group_56256" data-name="Group 56256" transform="translate(0 36.122)">
          <path id="Path_101918" data-name="Path 101918" d="M-649.753,886.36h-62.036a.644.644,0,0,1-.644-.644V865.885a10.2,10.2,0,0,1,3.035-7.27,10.256,10.256,0,0,1,7.274-3h.014l13.118,0V841.979a.644.644,0,0,1,.644-.644h15.223a.644.644,0,0,1,.644.644v13.64h13.1a10.182,10.182,0,0,1,7.27,3.048,10.291,10.291,0,0,1,3,7.3v19.75A.644.644,0,0,1-649.753,886.36Zm-61.392-1.288H-650.4V865.965a9.013,9.013,0,0,0-2.628-6.393,8.907,8.907,0,0,0-6.356-2.667h-13.743a.644.644,0,0,1-.644-.644V842.623H-687.7v13.639a.645.645,0,0,1-.189.456.643.643,0,0,1-.455.188h0l-13.763,0h-.012a8.974,8.974,0,0,0-6.367,2.628,8.921,8.921,0,0,0-2.655,6.357Z" transform="translate(712.432 -841.335)" fill="#12263f"/>
        </g>
        <g id="Group_56257" data-name="Group 56257" transform="translate(10.467 23.736)">
          <path id="Path_101919" data-name="Path 101919" d="M-686.285,817.636h-1.077a5.043,5.043,0,0,0-5.043,5.042,5.042,5.042,0,0,0,5.043,5.042h1.077Z" transform="translate(692.405 -817.636)" fill="#ffbd8e"/>
        </g>
        <g id="Group_56258" data-name="Group 56258" transform="translate(46.764 23.736)">
          <path id="Path_101920" data-name="Path 101920" d="M-621.882,817.636h-1.077V827.72h1.077a5.042,5.042,0,0,0,5.042-5.042,5.042,5.042,0,0,0-5.042-5.042Z" transform="translate(622.959 -817.636)" fill="#e18152"/>
        </g>
        <g id="Group_56259" data-name="Group 56259" transform="translate(16.587 8.218)">
          <path id="Path_101921" data-name="Path 101921" d="M-665.607,829.1A15.188,15.188,0,0,1-680.7,813.812V803.231a15.187,15.187,0,0,1,15.089-15.285,15.188,15.188,0,0,1,15.088,15.285v10.581A15.187,15.187,0,0,1-665.607,829.1Z" transform="translate(680.696 -787.946)" fill="#ff9f70"/>
        </g>
        <g id="Group_56260" data-name="Group 56260" transform="translate(29.961 8.218)">
          <path id="Path_101922" data-name="Path 101922" d="M-653.393,787.946a14.984,14.984,0,0,0-1.715.1,15.215,15.215,0,0,1,13.374,15.183v10.581a15.215,15.215,0,0,1-13.374,15.183,14.984,14.984,0,0,0,1.715.1A15.188,15.188,0,0,0-638.3,813.812V803.23A15.188,15.188,0,0,0-653.393,787.946Z" transform="translate(655.108 -787.946)" fill="#e18152"/>
        </g>
        <g id="Group_56261" data-name="Group 56261" transform="translate(16.587 8.218)">
          <path id="Path_101923" data-name="Path 101923" d="M-665.607,787.946a14.993,14.993,0,0,1,1.714.1,15.215,15.215,0,0,0-13.374,15.183v10.581a15.215,15.215,0,0,0,13.374,15.183,14.984,14.984,0,0,1-1.714.1A15.188,15.188,0,0,1-680.7,813.812V803.23A15.187,15.187,0,0,1-665.607,787.946Z" transform="translate(680.696 -787.946)" fill="#ffbd8e"/>
        </g>
        <g id="Group_56262" data-name="Group 56262" transform="translate(15.943 7.574)">
          <path id="Path_101924" data-name="Path 101924" d="M-666.2,829.152a15.849,15.849,0,0,1-15.733-15.928V802.643A15.849,15.849,0,0,1-666.2,786.714a15.849,15.849,0,0,1,15.732,15.928v10.581A15.849,15.849,0,0,1-666.2,829.152Zm0-41.15a14.56,14.56,0,0,0-14.444,14.64v10.581a14.559,14.559,0,0,0,14.444,14.64,14.56,14.56,0,0,0,14.444-14.64V802.643A14.559,14.559,0,0,0-666.2,788Z" transform="translate(681.928 -786.714)" fill="#12263f"/>
        </g>
        <g id="Group_56263" data-name="Group 56263" transform="translate(9.824 23.092)">
          <path id="Path_101925" data-name="Path 101925" d="M-686.873,827.776h-1.077a5.693,5.693,0,0,1-5.686-5.686,5.692,5.692,0,0,1,5.686-5.686h1.077a.644.644,0,0,1,.644.644v10.084a.644.644,0,0,1-.644.644Zm-1.077-10.084a4.4,4.4,0,0,0-4.4,4.4,4.4,4.4,0,0,0,4.4,4.4h.433v-8.8Z" transform="translate(693.636 -816.404)" fill="#12263f"/>
        </g>
        <g id="Group_56264" data-name="Group 56264" transform="translate(46.12 23.092)">
          <path id="Path_101926" data-name="Path 101926" d="M-622.47,827.776h-1.077a.645.645,0,0,1-.644-.644V817.048a.645.645,0,0,1,.644-.644h1.077a5.692,5.692,0,0,1,5.686,5.686,5.692,5.692,0,0,1-5.686,5.686Zm-.433-1.288h.433a4.4,4.4,0,0,0,4.4-4.4,4.4,4.4,0,0,0-4.4-4.4h-.433Z" transform="translate(624.192 -816.404)" fill="#12263f"/>
        </g>
        <g id="Group_56265" data-name="Group 56265" transform="translate(31.625 47.591)">
          <path id="Path_101927" data-name="Path 101927" d="M-644.242,863.277l-7.682,9.379,8.635,6.343,2.3-12.263Z" transform="translate(651.924 -863.277)" fill="#f4efed"/>
        </g>
        <g id="Group_56266" data-name="Group 56266" transform="translate(20.765 47.591)">
          <path id="Path_101928" data-name="Path 101928" d="M-669.383,863.277l7.54,9.379L-670.4,879l-2.3-12.265Z" transform="translate(672.702 -863.277)" fill="#f4efed"/>
        </g>
        <g id="Group_56267" data-name="Group 56267" transform="translate(30.981 46.947)">
          <path id="Path_101929" data-name="Path 101929" d="M-643.877,879.055a.643.643,0,0,1-.382-.125l-8.635-6.342a.644.644,0,0,1-.258-.438.643.643,0,0,1,.141-.489l7.682-9.379a.643.643,0,0,1,.477-.236.646.646,0,0,1,.491.2l3.25,3.458a.644.644,0,0,1,.164.56l-2.3,12.263a.645.645,0,0,1-.4.481.643.643,0,0,1-.237.045Zm-7.707-7.1,7.263,5.334,2.048-10.935-2.524-2.685Z" transform="translate(653.157 -862.046)" fill="#12263f"/>
        </g>
        <g id="Group_56268" data-name="Group 56268" transform="translate(20.122 46.947)">
          <path id="Path_101930" data-name="Path 101930" d="M-670.993,879.055a.645.645,0,0,1-.235-.044.645.645,0,0,1-.4-.481l-2.3-12.264a.643.643,0,0,1,.168-.564l3.319-3.456a.638.638,0,0,1,.492-.2.645.645,0,0,1,.474.24l7.54,9.379a.643.643,0,0,1,.137.486.644.644,0,0,1-.255.435l-8.563,6.342a.648.648,0,0,1-.384.126Zm-1.6-12.7,2.046,10.927,7.2-5.331-6.661-8.286Z" transform="translate(673.933 -862.045)" fill="#12263f"/>
        </g>
        <g id="Group_56269" data-name="Group 56269" transform="translate(3.382 64.288)">
          <path id="Path_101931" data-name="Path 101931" d="M-705.318,900.572a.644.644,0,0,1-.644-.644v-4.061a.644.644,0,0,1,.644-.644.644.644,0,0,1,.644.644v4.061a.644.644,0,0,1-.644.644Z" transform="translate(705.962 -895.223)" fill="#12263f"/>
        </g>
        <g id="Group_56270" data-name="Group 56270" transform="translate(22.418 56.326)">
          <path id="Path_101932" data-name="Path 101932" d="M-660.333,900.073h0a.645.645,0,0,1-.529-.279l-8.563-12.453a.644.644,0,0,1,.147-.882l8.563-6.343a.645.645,0,0,1,.765,0l8.635,6.343a.643.643,0,0,1,.148.885L-659.8,899.8a.643.643,0,0,1-.529.278Zm-7.68-12.95,7.682,11.172,7.747-11.171-7.748-5.69Z" transform="translate(669.54 -879.99)" fill="#12263f"/>
        </g>
        <g id="Group_56271" data-name="Group 56271" transform="translate(25.442 56.326)">
          <path id="Path_101933" data-name="Path 101933" d="M-657.571,889.483a.639.639,0,0,1-.383-.126l-5.54-4.1a.646.646,0,0,1-.261-.517.645.645,0,0,1,.261-.517l5.54-4.1a.644.644,0,0,1,.764,0l5.587,4.1a.641.641,0,0,1,.263.519.644.644,0,0,1-.263.519l-5.587,4.1a.641.641,0,0,1-.381.125Zm-4.457-4.747,4.459,3.3,4.5-3.3-4.5-3.3Z" transform="translate(663.755 -879.989)" fill="#12263f"/>
        </g>
        <g id="Group_56272" data-name="Group 56272" transform="translate(27.046 64.532)">
          <path id="Path_101934" data-name="Path 101934" d="M-656.106,907.568h0a.645.645,0,0,1-.529-.279l-3.936-5.723a.645.645,0,0,1,.03-.77l3.936-4.866a.644.644,0,0,1,.5-.239h0a.645.645,0,0,1,.5.237l3.969,4.866a.644.644,0,0,1,.03.774l-3.969,5.723a.646.646,0,0,1-.529.277Zm-3.132-6.336,3.134,4.559,3.161-4.559-3.161-3.876Z" transform="translate(660.686 -895.69)" fill="#12263f"/>
        </g>
        <g id="Group_56273" data-name="Group 56273" transform="translate(18.105 4.73)">
          <path id="Path_101935" data-name="Path 101935" d="M-677.793,789.747a11.946,11.946,0,0,1,8.84,1.969c5.194,3.868,16.465,7.7,21.769,2.25,0,0-2.591-12.694-15.04-12.694S-677.793,789.747-677.793,789.747Z" transform="translate(677.793 -781.272)" fill="#ffb74d"/>
        </g>
        <g id="Group_56274" data-name="Group 56274" transform="translate(17.46 12.387)">
          <path id="Path_101936" data-name="Path 101936" d="M-655.168,804.316a20.286,20.286,0,0,1-3.647-.352,28.369,28.369,0,0,1-11.111-4.737,11.332,11.332,0,0,0-8.322-1.856.644.644,0,0,1-.764-.5.644.644,0,0,1,.5-.764,12.5,12.5,0,0,1,9.358,2.083,26.941,26.941,0,0,0,10.576,4.5c3.18.586,7.558.682,10.348-2.186a.644.644,0,0,1,.911-.013.644.644,0,0,1,.013.911,10.618,10.618,0,0,1-7.858,2.908Z" transform="translate(679.026 -795.923)" fill="#12263f"/>
        </g>
      </g>
      <g id="Group_56276" data-name="Group 56276" transform="translate(-657.851 763.396)">
        <circle id="Ellipse_4114" data-name="Ellipse 4114" cx="12.453" cy="12.453" r="12.453" fill="#a38af2"/>
      </g>
      <g id="Group_56277" data-name="Group 56277" transform="translate(-646.568 763.386)">
        <path id="Path_101937" data-name="Path 101937" d="M-585.235,763.843c-.4,0-.792.021-1.181.057a12.455,12.455,0,0,1,11.273,12.4,12.454,12.454,0,0,1-11.273,12.4c.389.036.782.057,1.181.057A12.455,12.455,0,0,0-572.78,776.3,12.456,12.456,0,0,0-585.235,763.843Z" transform="translate(586.416 -763.843)" fill="#8c6df2"/>
      </g>
      <g id="Group_56278" data-name="Group 56278" transform="translate(-657.842 763.386)">
        <path id="Path_101938" data-name="Path 101938" d="M-595.531,788.753c.4,0,.792-.021,1.181-.057a12.454,12.454,0,0,1-11.273-12.4,12.455,12.455,0,0,1,11.273-12.4c-.389-.037-.782-.057-1.181-.057A12.455,12.455,0,0,0-607.986,776.3,12.454,12.454,0,0,0-595.531,788.753Z" transform="translate(607.986 -763.843)" fill="#c4b3ff"/>
      </g>
      <g id="Group_56279" data-name="Group 56279" transform="translate(-658.343 762.886)">
        <path id="Path_101939" data-name="Path 101939" d="M-595.989,788.8a12.97,12.97,0,0,1-12.955-12.955,12.97,12.97,0,0,1,12.955-12.955,12.97,12.97,0,0,1,12.955,12.955A12.97,12.97,0,0,1-595.989,788.8Zm0-24.623a11.68,11.68,0,0,0-11.667,11.667,11.68,11.68,0,0,0,11.667,11.667,11.68,11.68,0,0,0,11.667-11.667A11.681,11.681,0,0,0-595.989,764.174Z" transform="translate(608.944 -762.886)" fill="#12263f"/>
      </g>
      <g id="Group_56280" data-name="Group 56280" transform="translate(-646.042 766.96)">
        <path id="Path_101940" data-name="Path 101940" d="M-584.765,780.735a.644.644,0,0,1-.644-.644v-8.768a.644.644,0,0,1,.644-.644.644.644,0,0,1,.644.644v8.768a.644.644,0,0,1-.644.644Z" transform="translate(585.409 -770.68)" fill="#12263f"/>
      </g>
      <g id="Group_56281" data-name="Group 56281" transform="translate(-646.042 775.727)">
        <path id="Path_101941" data-name="Path 101941" d="M-585.409,788.1a.644.644,0,0,1,.644-.644h5.63a.644.644,0,0,1,.644.644.644.644,0,0,1-.644.644h-5.63a.644.644,0,0,1-.644-.644Z" transform="translate(585.409 -787.455)" fill="#12263f"/>
      </g>
    </g>
  </g>
</svg>
