<svg xmlns="http://www.w3.org/2000/svg" width="140" height="140" viewBox="0 0 140 140">
  <g id="t3-ic9" transform="translate(-1150 -2275)">
    <circle id="Ellipse_4090" data-name="Ellipse 4090" cx="70" cy="70" r="70" transform="translate(1150 2275)" fill="#fff"/>
    <g id="Group_56320" data-name="Group 56320" transform="translate(2104.409 1547.197)">
      <g id="Group_56283" data-name="Group 56283" transform="translate(-869.794 755.312)">
        <circle id="Ellipse_4115" data-name="Ellipse 4115" cx="12.436" cy="12.436" r="12.436" fill="#a38af2"/>
      </g>
      <g id="Group_56284" data-name="Group 56284" transform="translate(-858.527 755.303)">
        <path id="Path_101942" data-name="Path 101942" d="M-797.011,755.76c-.4,0-.791.021-1.18.057A12.438,12.438,0,0,1-786.932,768.2a12.438,12.438,0,0,1-11.259,12.381c.389.037.782.057,1.18.057A12.438,12.438,0,0,0-784.573,768.2,12.439,12.439,0,0,0-797.011,755.76Z" transform="translate(798.191 -755.76)" fill="#8c6df2"/>
      </g>
      <g id="Group_56285" data-name="Group 56285" transform="translate(-869.785 755.303)">
        <path id="Path_101943" data-name="Path 101943" d="M-807.322,780.637c.4,0,.791-.021,1.18-.057A12.438,12.438,0,0,1-817.4,768.2a12.438,12.438,0,0,1,11.258-12.381c-.388-.037-.782-.057-1.18-.057A12.438,12.438,0,0,0-819.76,768.2,12.438,12.438,0,0,0-807.322,780.637Z" transform="translate(819.76 -755.76)" fill="#c4b3ff"/>
      </g>
      <g id="Group_56286" data-name="Group 56286" transform="translate(-870.285 754.803)">
        <path id="Path_101944" data-name="Path 101944" d="M-807.78,780.679a12.953,12.953,0,0,1-12.938-12.938A12.953,12.953,0,0,1-807.78,754.8a12.953,12.953,0,0,1,12.938,12.938A12.952,12.952,0,0,1-807.78,780.679Zm0-24.59a11.665,11.665,0,0,0-11.652,11.652,11.665,11.665,0,0,0,11.652,11.651,11.665,11.665,0,0,0,11.652-11.651A11.665,11.665,0,0,0-807.78,756.089Z" transform="translate(820.718 -754.803)" fill="#12263f"/>
      </g>
      <g id="Group_56287" data-name="Group 56287" transform="translate(-923.918 755.312)">
        <circle id="Ellipse_4116" data-name="Ellipse 4116" cx="12.436" cy="12.436" r="12.436" fill="#a38af2"/>
      </g>
      <g id="Group_56288" data-name="Group 56288" transform="translate(-912.651 755.303)">
        <path id="Path_101945" data-name="Path 101945" d="M-900.7,755.76c-.4,0-.791.021-1.18.057A12.439,12.439,0,0,1-890.623,768.2a12.438,12.438,0,0,1-11.259,12.381c.388.037.782.057,1.18.057A12.438,12.438,0,0,0-888.264,768.2,12.439,12.439,0,0,0-900.7,755.76Z" transform="translate(901.882 -755.76)" fill="#8c6df2"/>
      </g>
      <g id="Group_56289" data-name="Group 56289" transform="translate(-923.909 755.303)">
        <path id="Path_101946" data-name="Path 101946" d="M-911.013,780.637c.4,0,.791-.021,1.18-.057A12.438,12.438,0,0,1-921.092,768.2a12.438,12.438,0,0,1,11.259-12.381c-.389-.037-.782-.057-1.18-.057A12.438,12.438,0,0,0-923.451,768.2,12.438,12.438,0,0,0-911.013,780.637Z" transform="translate(923.451 -755.76)" fill="#c4b3ff"/>
      </g>
      <g id="Group_56290" data-name="Group 56290" transform="translate(-924.409 754.803)">
        <path id="Path_101947" data-name="Path 101947" d="M-911.471,780.679a12.952,12.952,0,0,1-12.938-12.938A12.953,12.953,0,0,1-911.471,754.8a12.953,12.953,0,0,1,12.938,12.938A12.953,12.953,0,0,1-911.471,780.679Zm0-24.59a11.665,11.665,0,0,0-11.652,11.652,11.665,11.665,0,0,0,11.652,11.651,11.665,11.665,0,0,0,11.652-11.651A11.665,11.665,0,0,0-911.471,756.089Z" transform="translate(924.409 -754.803)" fill="#12263f"/>
      </g>
      <g id="Group_56319" data-name="Group 56319" transform="translate(-916.135 755.36)">
        <g id="Group_56291" data-name="Group 56291" transform="translate(0.677 40.898)">
          <path id="Path_101948" data-name="Path 101948" d="M-883.8,848.521v-14.3h15.237v14.3H-854.8a9.693,9.693,0,0,1,9.637,9.712V878h-62.1V858.154a9.671,9.671,0,0,1,9.688-9.637Z" transform="translate(907.26 -834.224)" fill="#8c6df2"/>
        </g>
        <g id="Group_56292" data-name="Group 56292" transform="translate(24.142 40.898)">
          <path id="Path_101949" data-name="Path 101949" d="M-862.306,845.06l7.548,9.388,7.69-9.388V834.224h-15.237Z" transform="translate(862.306 -834.224)" fill="#ff9f70"/>
        </g>
        <g id="Group_56294" data-name="Group 56294" transform="translate(49.752 55.196)">
          <g id="Group_56293" data-name="Group 56293">
            <path id="Path_101950" data-name="Path 101950" d="M-809.857,861.615h-3.385a9.689,9.689,0,0,1,9.637,9.708V891.1h3.385V871.327A9.693,9.693,0,0,0-809.857,861.615Z" transform="translate(813.242 -861.615)" fill="#735ac7"/>
          </g>
        </g>
        <g id="Group_56296" data-name="Group 56296" transform="translate(0.677 55.191)">
          <g id="Group_56295" data-name="Group 56295">
            <path id="Path_101951" data-name="Path 101951" d="M-897.572,861.607l3.385,0a9.671,9.671,0,0,0-9.687,9.637v19.846h-3.385V871.244a9.671,9.671,0,0,1,9.688-9.637Z" transform="translate(907.26 -861.607)" fill="#a38af2"/>
          </g>
        </g>
        <g id="Group_56297" data-name="Group 56297" transform="translate(11.988 74.854)">
          <path id="Path_101952" data-name="Path 101952" d="M-884.913,909.441a.678.678,0,0,1-.678-.678v-8.809a.677.677,0,0,1,.678-.678.677.677,0,0,1,.677.678v8.809A.677.677,0,0,1-884.913,909.441Z" transform="translate(885.591 -899.277)" fill="#12263f"/>
        </g>
        <g id="Group_56298" data-name="Group 56298" transform="translate(50.109 74.854)">
          <path id="Path_101953" data-name="Path 101953" d="M-811.879,909.441a.678.678,0,0,1-.678-.678v-8.809a.677.677,0,0,1,.678-.678.677.677,0,0,1,.677.678v8.809A.677.677,0,0,1-811.879,909.441Z" transform="translate(812.557 -899.277)" fill="#12263f"/>
        </g>
        <g id="Group_56299" data-name="Group 56299" transform="translate(0 40.221)">
          <path id="Path_101954" data-name="Path 101954" d="M-845.783,878.062h-62.1a.678.678,0,0,1-.678-.678V857.534a10.243,10.243,0,0,1,3.047-7.3,10.3,10.3,0,0,1,7.3-3.014h.014l13.1,0V833.6a.678.678,0,0,1,.678-.677h15.237a.677.677,0,0,1,.678.677v13.62h13.081a10.229,10.229,0,0,1,7.3,3.061,10.336,10.336,0,0,1,3.013,7.33v19.77a.677.677,0,0,1-.677.678Zm-61.419-1.355h60.742V857.613a8.987,8.987,0,0,0-2.621-6.375,8.882,8.882,0,0,0-6.339-2.659h-13.757a.678.678,0,0,1-.678-.677v-13.62h-13.883V847.9a.675.675,0,0,1-.2.479.675.675,0,0,1-.479.2h0l-13.776,0h-.011a8.954,8.954,0,0,0-6.351,2.621,8.9,8.9,0,0,0-2.647,6.34v19.172Z" transform="translate(908.557 -832.926)" fill="#12263f"/>
        </g>
        <g id="Group_56300" data-name="Group 56300" transform="translate(11.784 0.676)">
          <path id="Path_101955" data-name="Path 101955" d="M-851.986,769.385V768.8a5.89,5.89,0,0,0-3.6-5.426,36.72,36.72,0,0,1-6.889-3.7l-3.563-2.508v-.006l0,0,0,0v.006l-3.562,2.508a36.739,36.739,0,0,1-6.889,3.7,5.89,5.89,0,0,0-3.6,5.426v.582a5.889,5.889,0,0,0-5.871,6.35l1,12.774h37.841l1-12.774a5.889,5.889,0,0,0-5.871-6.35Z" transform="translate(885.98 -757.165)" fill="#ffb74d"/>
        </g>
        <g id="Group_56302" data-name="Group 56302" transform="translate(31.735 0.686)">
          <g id="Group_56301" data-name="Group 56301">
            <path id="Path_101956" data-name="Path 101956" d="M-833.715,769.394v-.582a5.89,5.89,0,0,0-3.6-5.426,36.741,36.741,0,0,1-6.889-3.7l-3.558-2.5c1.388,2.846,4.789,5.184,7.195,6.2a5.89,5.89,0,0,1,3.6,5.426.612.612,0,0,0,.559.608,5.89,5.89,0,0,1,5.313,6.324l-1,12.774h3.252l1-12.774A5.889,5.889,0,0,0-833.715,769.394Z" transform="translate(847.758 -757.184)" fill="#d99c42"/>
          </g>
        </g>
        <g id="Group_56304" data-name="Group 56304" transform="translate(11.784 0.686)">
          <g id="Group_56303" data-name="Group 56303">
            <path id="Path_101957" data-name="Path 101957" d="M-880.092,769.394v-.582a5.89,5.89,0,0,1,3.6-5.426,36.723,36.723,0,0,0,6.889-3.7l3.558-2.5c-1.388,2.846-4.789,5.184-7.195,6.2a5.89,5.89,0,0,0-3.6,5.426.612.612,0,0,1-.558.608,5.889,5.889,0,0,0-5.313,6.324l1,12.774h-3.252l-1-12.774a5.888,5.888,0,0,1,5.871-6.349Z" transform="translate(885.981 -757.184)" fill="#ffcb80"/>
          </g>
        </g>
        <g id="Group_56305" data-name="Group 56305" transform="translate(11.107 0)">
          <path id="Path_101958" data-name="Path 101958" d="M-847.739,788.568H-885.58a.678.678,0,0,1-.675-.624l-1-12.775a6.585,6.585,0,0,1,1.725-4.971,6.587,6.587,0,0,1,4.144-2.073,6.555,6.555,0,0,1,4.01-5.989,35.645,35.645,0,0,0,6.763-3.629l3.519-2.477a.711.711,0,0,1,.12-.08.682.682,0,0,1,.38-.076.675.675,0,0,1,.255.074.679.679,0,0,1,.124.084l3.516,2.475a35.674,35.674,0,0,0,6.763,3.628,6.556,6.556,0,0,1,4.01,5.989,6.592,6.592,0,0,1,4.144,2.073,6.587,6.587,0,0,1,1.725,4.972l-1,12.775A.679.679,0,0,1-847.739,788.568Zm-37.214-1.355h36.588l.954-12.15a5.154,5.154,0,0,0-1.369-3.946,5.154,5.154,0,0,0-3.826-1.673.678.678,0,0,1-.678-.678v-.582a5.2,5.2,0,0,0-3.183-4.8,36.962,36.962,0,0,1-7.015-3.768l-3.177-2.236-3.177,2.236a36.978,36.978,0,0,1-7.015,3.768,5.2,5.2,0,0,0-3.183,4.8v.582a.677.677,0,0,1-.677.678,5.155,5.155,0,0,0-3.827,1.673,5.158,5.158,0,0,0-1.369,3.946Z" transform="translate(887.278 -755.87)" fill="#12263f"/>
        </g>
        <g id="Group_56306" data-name="Group 56306" transform="translate(10.51 27.855)">
          <path id="Path_101959" data-name="Path 101959" d="M-882.3,809.236h-1.078a5.047,5.047,0,0,0-5.047,5.047,5.047,5.047,0,0,0,5.047,5.047h1.078Z" transform="translate(888.421 -809.236)" fill="#ffbd8e"/>
        </g>
        <g id="Group_56307" data-name="Group 56307" transform="translate(46.843 27.855)">
          <path id="Path_101960" data-name="Path 101960" d="M-817.736,809.236h-1.078V819.33h1.078a5.048,5.048,0,0,0,5.047-5.047A5.047,5.047,0,0,0-817.736,809.236Z" transform="translate(818.814 -809.236)" fill="#e18152"/>
        </g>
        <g id="Group_56308" data-name="Group 56308" transform="translate(16.636 12.322)">
          <path id="Path_101961" data-name="Path 101961" d="M-861.582,820.668a15.2,15.2,0,0,1-15.1-15.3V794.776a15.2,15.2,0,0,1,15.1-15.3,15.2,15.2,0,0,1,15.1,15.3v10.592A15.2,15.2,0,0,1-861.582,820.668Z" transform="translate(876.685 -779.477)" fill="#ff9f70"/>
        </g>
        <g id="Group_56309" data-name="Group 56309" transform="translate(30.023 12.321)">
          <path id="Path_101962" data-name="Path 101962" d="M-849.322,779.476a15.039,15.039,0,0,0-1.716.1,15.23,15.23,0,0,1,13.387,15.2v10.592a15.23,15.23,0,0,1-13.387,15.2,15.025,15.025,0,0,0,1.716.1,15.2,15.2,0,0,0,15.1-15.3V794.777a15.2,15.2,0,0,0-15.1-15.3Z" transform="translate(851.038 -779.476)" fill="#e18152"/>
        </g>
        <g id="Group_56310" data-name="Group 56310" transform="translate(16.636 12.321)">
          <path id="Path_101963" data-name="Path 101963" d="M-861.582,779.476a15.04,15.04,0,0,1,1.717.1,15.23,15.23,0,0,0-13.387,15.2v10.592a15.23,15.23,0,0,0,13.387,15.2,15.026,15.026,0,0,1-1.717.1,15.2,15.2,0,0,1-15.1-15.3V794.777a15.2,15.2,0,0,1,15.1-15.3Z" transform="translate(876.685 -779.476)" fill="#ffbd8e"/>
        </g>
        <g id="Group_56311" data-name="Group 56311" transform="translate(15.959 11.644)">
          <path id="Path_101964" data-name="Path 101964" d="M-862.2,820.725a15.9,15.9,0,0,1-15.781-15.977V794.156A15.9,15.9,0,0,1-862.2,778.179a15.9,15.9,0,0,1,15.781,15.977v10.592A15.9,15.9,0,0,1-862.2,820.725Zm0-41.191a14.542,14.542,0,0,0-14.426,14.622v10.592A14.542,14.542,0,0,0-862.2,819.37a14.542,14.542,0,0,0,14.426-14.622V794.156A14.541,14.541,0,0,0-862.2,779.534Z" transform="translate(877.983 -778.179)" fill="#12263f"/>
        </g>
        <g id="Group_56312" data-name="Group 56312" transform="translate(9.833 27.177)">
          <path id="Path_101965" data-name="Path 101965" d="M-882.915,819.386h-1.078a5.731,5.731,0,0,1-5.724-5.724,5.731,5.731,0,0,1,5.724-5.725h1.078a.678.678,0,0,1,.677.677v10.095A.677.677,0,0,1-882.915,819.386Zm-1.078-10.094a4.374,4.374,0,0,0-4.369,4.369,4.374,4.374,0,0,0,4.369,4.37h.4v-8.739Z" transform="translate(889.718 -807.937)" fill="#12263f"/>
        </g>
        <g id="Group_56313" data-name="Group 56313" transform="translate(46.166 27.178)">
          <path id="Path_101966" data-name="Path 101966" d="M-818.356,819.387h-1.078a.677.677,0,0,1-.677-.677V808.616a.677.677,0,0,1,.677-.678h1.078a5.731,5.731,0,0,1,5.724,5.724A5.73,5.73,0,0,1-818.356,819.387Zm-.4-1.355h.4a4.375,4.375,0,0,0,4.37-4.37,4.375,4.375,0,0,0-4.37-4.37h-.4Z" transform="translate(820.112 -807.938)" fill="#12263f"/>
        </g>
        <g id="Group_56314" data-name="Group 56314" transform="translate(31.689 51.734)">
          <path id="Path_101967" data-name="Path 101967" d="M-840.156,854.983l-7.69,9.388,8.644,6.349,2.3-12.275Z" transform="translate(847.846 -854.983)" fill="#f4efed"/>
        </g>
        <g id="Group_56315" data-name="Group 56315" transform="translate(20.819 51.734)">
          <path id="Path_101968" data-name="Path 101968" d="M-865.349,854.983l7.548,9.388-8.571,6.349-2.3-12.277Z" transform="translate(868.672 -854.983)" fill="#f4efed"/>
        </g>
        <g id="Group_56316" data-name="Group 56316" transform="translate(31.011 51.057)">
          <path id="Path_101969" data-name="Path 101969" d="M-839.823,870.777a.678.678,0,0,1-.4-.131l-8.644-6.349a.679.679,0,0,1-.271-.461.678.678,0,0,1,.148-.515l7.69-9.388a.675.675,0,0,1,.5-.248.679.679,0,0,1,.517.213l3.253,3.462a.676.676,0,0,1,.173.589l-2.3,12.275a.68.68,0,0,1-.417.506.674.674,0,0,1-.248.047Zm-7.668-7.149,7.2,5.289,2.038-10.878-2.49-2.649Z" transform="translate(849.145 -853.686)" fill="#12263f"/>
        </g>
        <g id="Group_56317" data-name="Group 56317" transform="translate(20.142 51.056)">
          <path id="Path_101970" data-name="Path 101970" d="M-866.993,870.776a.68.68,0,0,1-.247-.046.678.678,0,0,1-.418-.506l-2.3-12.276a.678.678,0,0,1,.177-.594l3.323-3.461a.674.674,0,0,1,.518-.207.677.677,0,0,1,.5.252l7.548,9.388a.675.675,0,0,1,.144.51.677.677,0,0,1-.268.458l-8.571,6.349a.68.68,0,0,1-.4.133Zm-1.569-12.736,2.036,10.87,7.135-5.285-6.623-8.238Z" transform="translate(869.969 -853.684)" fill="#12263f"/>
        </g>
        <g id="Group_56318" data-name="Group 56318" transform="translate(3.385 68.415)">
          <path id="Path_101971" data-name="Path 101971" d="M-901.394,892.36a.677.677,0,0,1-.678-.677v-4.065a.677.677,0,0,1,.678-.677.677.677,0,0,1,.677.677v4.065A.677.677,0,0,1-901.394,892.36Z" transform="translate(902.072 -886.94)" fill="#12263f"/>
        </g>
      </g>
      <path id="Path_101972" data-name="Path 101972" d="M-904.353,767.091a.939.939,0,0,1,.882.636l3.821,11.088a.929.929,0,0,1,.065.375.937.937,0,0,1-.27.694.935.935,0,0,1-.694.269.858.858,0,0,1-.915-.636l-.865-2.809h-4.066l-.866,2.809a.858.858,0,0,1-.914.636.947.947,0,0,1-.694-.286.945.945,0,0,1-.285-.694.939.939,0,0,1,.081-.359l3.8-11.088a1.083,1.083,0,0,1,.352-.457.855.855,0,0,1,.531-.179Zm1.535,8.017-1.551-5.03-1.535,5.03Z" transform="translate(-7.292 -5.874)" fill="#12263f"/>
      <path id="Path_101973" data-name="Path 101973" d="M-797.6,773.539a2.912,2.912,0,0,1,2.032,3.106,3.229,3.229,0,0,1-1.059,2.619,4.133,4.133,0,0,1-2.753.889h-4.182a.959.959,0,0,1-.746-.286,1.1,1.1,0,0,1-.26-.772V768.149a1.1,1.1,0,0,1,.26-.772.959.959,0,0,1,.746-.285h3.879a3.711,3.711,0,0,1,2.737.923,3.517,3.517,0,0,1,.924,2.6,3.593,3.593,0,0,1-.42,1.756A2.884,2.884,0,0,1-797.6,773.539Zm-4.953-.739h2.518a1.921,1.921,0,0,0,1.486-.555,2.063,2.063,0,0,0,.513-1.461,2.1,2.1,0,0,0-.513-1.469,1.911,1.911,0,0,0-1.486-.563h-2.518Zm0,5.709h2.8a2.31,2.31,0,0,0,1.562-.521,1.886,1.886,0,0,0,.6-1.511,1.933,1.933,0,0,0-.579-1.5,2.268,2.268,0,0,0-1.587-.529h-2.8Z" transform="translate(-57.285 -5.874)" fill="#12263f"/>
    </g>
  </g>
</svg>
