<svg xmlns="http://www.w3.org/2000/svg" width="140" height="140" viewBox="0 0 140 140">
  <g id="t3-ic6" transform="translate(-1150 -1885)">
    <circle id="Ellipse_4089" data-name="Ellipse 4089" cx="70" cy="70" r="70" transform="translate(1150 1885)" fill="#fff"/>
    <g id="Group_56191" data-name="Group 56191" transform="translate(2265.554 1368.505)">
      <g id="Group_56188" data-name="Group 56188" transform="translate(-1085.554 548.149)">
        <g id="Group_56154" data-name="Group 56154" transform="translate(11.22 0.646)">
          <path id="Path_101828" data-name="Path 101828" d="M-1034.847,553.6a5.673,5.673,0,0,1,5.718,5.22c.007.124.011.249.011.375v.6a6.072,6.072,0,0,1,6.053,6.547l-1.034,13.171h-39.016l-1.034-13.171a6.072,6.072,0,0,1,6.053-6.547v-.6c0-.126,0-.251.012-.375a5.673,5.673,0,0,1,5.718-5.22Z" transform="translate(1064.168 -553.598)" fill="#ffb74d"/>
        </g>
        <g id="Group_56155" data-name="Group 56155" transform="translate(47.12 6.907)">
          <path id="Path_101829" data-name="Path 101829" d="M-995.739,565.531a6.658,6.658,0,0,1,2.3,5.594l-1.034,14.058h2.9l1.034-13.171A6.067,6.067,0,0,0-995.739,565.531Z" transform="translate(995.739 -565.531)" fill="#d99c42"/>
        </g>
        <g id="Group_56156" data-name="Group 56156" transform="translate(11.22 6.907)">
          <path id="Path_101830" data-name="Path 101830" d="M-1058.946,565.531a6.658,6.658,0,0,0-2.3,5.594l1.034,14.058h-2.9l-1.034-13.171A6.067,6.067,0,0,1-1058.946,565.531Z" transform="translate(1064.168 -565.531)" fill="#ffcb80"/>
        </g>
        <g id="Group_56157" data-name="Group 56157" transform="translate(10.573 0)">
          <path id="Path_101831" data-name="Path 101831" d="M-1024.684,579.571H-1063.7a.646.646,0,0,1-.644-.6l-1.035-13.171a6.74,6.74,0,0,1,1.765-5.087,6.742,6.742,0,0,1,4.287-2.126q0-.2.013-.4a6.3,6.3,0,0,1,6.363-5.827h17.519a6.306,6.306,0,0,1,6.364,5.827q.012.2.013.4a6.743,6.743,0,0,1,4.287,2.126,6.738,6.738,0,0,1,1.764,5.087l-1.034,13.171a.647.647,0,0,1-.645.6Zm-38.419-1.293h37.821l.987-12.575a5.367,5.367,0,0,0-1.425-4.108,5.369,5.369,0,0,0-3.984-1.742.647.647,0,0,1-.646-.647v-.6c0-.113,0-.225-.01-.335a5.012,5.012,0,0,0-5.073-4.614h-17.519a5.012,5.012,0,0,0-5.073,4.613q-.01.167-.01.335v.6a.647.647,0,0,1-.646.646,5.371,5.371,0,0,0-3.984,1.742,5.368,5.368,0,0,0-1.425,4.108Z" transform="translate(1065.4 -552.366)" fill="#12263f"/>
        </g>
        <g id="Group_56158" data-name="Group 56158" transform="translate(0.646 36.904)">
          <path id="Path_101832" data-name="Path 101832" d="M-1060.793,637.046V622.709h15.28v14.337h13.8a9.72,9.72,0,0,1,9.664,9.74v19.825h-62.269V646.706a9.7,9.7,0,0,1,9.714-9.664Z" transform="translate(1084.322 -622.709)" fill="#8c6df2"/>
        </g>
        <g id="Group_56159" data-name="Group 56159" transform="translate(23.149 57.184)">
          <path id="Path_101833" data-name="Path 101833" d="M-1041.429,667.731l8.595,12.5,8.668-12.5-8.668-6.366Z" transform="translate(1041.429 -661.365)" fill="#f4efed"/>
        </g>
        <g id="Group_56160" data-name="Group 56160" transform="translate(26.184 57.184)">
          <path id="Path_101834" data-name="Path 101834" d="M-1030.084,661.365l-5.561,4.118,5.561,4.118,5.607-4.118Z" transform="translate(1035.645 -661.365)" fill="#ffdc72"/>
        </g>
        <g id="Group_56161" data-name="Group 56161" transform="translate(27.794 65.421)">
          <path id="Path_101835" data-name="Path 101835" d="M-1028.625,677.065l-3.951,4.884,3.951,5.745,3.983-5.745Z" transform="translate(1032.576 -677.065)" fill="#ffdc72"/>
        </g>
        <g id="Group_56162" data-name="Group 56162" transform="translate(24.175 36.904)">
          <path id="Path_101836" data-name="Path 101836" d="M-1039.473,633.575l7.569,9.414,7.711-9.414V622.709h-15.28Z" transform="translate(1039.473 -622.709)" fill="#ff9f70"/>
        </g>
        <g id="Group_56164" data-name="Group 56164" transform="translate(49.857 51.241)">
          <g id="Group_56163" data-name="Group 56163">
            <path id="Path_101837" data-name="Path 101837" d="M-987.128,650.037h-3.394a9.716,9.716,0,0,1,9.664,9.735V679.6h3.394V659.777a9.72,9.72,0,0,0-9.664-9.74Z" transform="translate(990.522 -650.037)" fill="#735ac7"/>
          </g>
        </g>
        <g id="Group_56166" data-name="Group 56166" transform="translate(0.646 51.236)">
          <g id="Group_56165" data-name="Group 56165">
            <path id="Path_101838" data-name="Path 101838" d="M-1074.608,650.028l3.395,0a9.7,9.7,0,0,0-9.715,9.664v19.9h-3.394V659.692A9.7,9.7,0,0,1-1074.608,650.028Z" transform="translate(1084.322 -650.028)" fill="#a38af2"/>
          </g>
        </g>
        <g id="Group_56167" data-name="Group 56167" transform="translate(12.021 70.987)">
          <path id="Path_101839" data-name="Path 101839" d="M-1061.995,697.8a.647.647,0,0,1-.646-.646v-8.833a.647.647,0,0,1,.646-.646.647.647,0,0,1,.646.646v8.833A.646.646,0,0,1-1061.995,697.8Z" transform="translate(1062.641 -687.675)" fill="#12263f"/>
        </g>
        <g id="Group_56168" data-name="Group 56168" transform="translate(50.248 70.987)">
          <path id="Path_101840" data-name="Path 101840" d="M-989.13,697.8a.647.647,0,0,1-.646-.646v-8.833a.647.647,0,0,1,.646-.646.647.647,0,0,1,.646.646v8.833A.646.646,0,0,1-989.13,697.8Z" transform="translate(989.776 -687.675)" fill="#12263f"/>
        </g>
        <g id="Group_56169" data-name="Group 56169" transform="translate(0 36.258)">
          <path id="Path_101841" data-name="Path 101841" d="M-1022.639,666.673h-62.269a.647.647,0,0,1-.646-.647V646.12a10.24,10.24,0,0,1,3.047-7.3,10.293,10.293,0,0,1,7.3-3.013h.014l13.168,0v-13.69a.647.647,0,0,1,.646-.646h15.28a.647.647,0,0,1,.646.646v13.69h13.15a10.223,10.223,0,0,1,7.3,3.06,10.33,10.33,0,0,1,3.012,7.326v19.825A.646.646,0,0,1-1022.639,666.673Zm-61.622-1.293h60.976V646.2a9.047,9.047,0,0,0-2.638-6.417,8.939,8.939,0,0,0-6.38-2.677h-13.8a.647.647,0,0,1-.647-.646V622.77h-13.987v13.691a.647.647,0,0,1-.189.457.645.645,0,0,1-.457.189h0l-13.815,0h-.012a9.008,9.008,0,0,0-6.391,2.638,8.954,8.954,0,0,0-2.665,6.381Z" transform="translate(1085.554 -621.478)" fill="#12263f"/>
        </g>
        <g id="Group_56170" data-name="Group 56170" transform="translate(10.507 23.825)">
          <path id="Path_101842" data-name="Path 101842" d="M-1059.384,597.779h-1.081a5.062,5.062,0,0,0-5.062,5.061,5.061,5.061,0,0,0,5.062,5.061h1.081Z" transform="translate(1065.527 -597.779)" fill="#ffbd8e"/>
        </g>
        <g id="Group_56171" data-name="Group 56171" transform="translate(46.94 23.825)">
          <path id="Path_101843" data-name="Path 101843" d="M-995,597.779h-1.081V607.9H-995a5.061,5.061,0,0,0,5.061-5.061A5.061,5.061,0,0,0-995,597.779Z" transform="translate(996.081 -597.779)" fill="#e18152"/>
        </g>
        <g id="Group_56172" data-name="Group 56172" transform="translate(16.65 8.249)">
          <path id="Path_101844" data-name="Path 101844" d="M-1038.672,609.394a15.245,15.245,0,0,1-15.146-15.342V583.431a15.244,15.244,0,0,1,15.146-15.342,15.245,15.245,0,0,1,15.145,15.342v10.621A15.245,15.245,0,0,1-1038.672,609.394Z" transform="translate(1053.818 -568.089)" fill="#ff9f70"/>
        </g>
        <g id="Group_56173" data-name="Group 56173" transform="translate(30.074 8.249)">
          <path id="Path_101845" data-name="Path 101845" d="M-1026.509,568.089a15.042,15.042,0,0,0-1.721.1,15.272,15.272,0,0,1,13.424,15.24v10.621a15.272,15.272,0,0,1-13.424,15.24,15.042,15.042,0,0,0,1.721.1,15.244,15.244,0,0,0,15.145-15.342V583.431A15.244,15.244,0,0,0-1026.509,568.089Z" transform="translate(1028.23 -568.089)" fill="#e18152"/>
        </g>
        <g id="Group_56174" data-name="Group 56174" transform="translate(16.65 8.249)">
          <path id="Path_101846" data-name="Path 101846" d="M-1038.672,568.089a15.048,15.048,0,0,1,1.721.1,15.272,15.272,0,0,0-13.424,15.24v10.621a15.272,15.272,0,0,0,13.424,15.24,15.04,15.04,0,0,1-1.721.1,15.244,15.244,0,0,1-15.146-15.342V583.431A15.244,15.244,0,0,1-1038.672,568.089Z" transform="translate(1053.818 -568.089)" fill="#ffbd8e"/>
        </g>
        <g id="Group_56175" data-name="Group 56175" transform="translate(16.003 7.602)">
          <path id="Path_101847" data-name="Path 101847" d="M-1039.258,609.455a15.909,15.909,0,0,1-15.792-15.988V582.846a15.909,15.909,0,0,1,15.792-15.989,15.909,15.909,0,0,1,15.791,15.988v10.621A15.909,15.909,0,0,1-1039.258,609.455Zm0-41.305a14.615,14.615,0,0,0-14.5,14.7v10.621a14.615,14.615,0,0,0,14.5,14.7,14.615,14.615,0,0,0,14.5-14.7V582.846A14.615,14.615,0,0,0-1039.258,568.15Z" transform="translate(1055.05 -566.857)" fill="#12263f"/>
        </g>
        <g id="Group_56176" data-name="Group 56176" transform="translate(9.861 23.178)">
          <path id="Path_101848" data-name="Path 101848" d="M-1059.969,607.961h-1.081a5.714,5.714,0,0,1-5.708-5.707,5.714,5.714,0,0,1,5.708-5.708h1.081a.647.647,0,0,1,.647.647v10.122a.646.646,0,0,1-.647.646Zm-1.081-10.122a4.42,4.42,0,0,0-4.415,4.415,4.419,4.419,0,0,0,4.415,4.415h.435v-8.829Z" transform="translate(1066.758 -596.546)" fill="#12263f"/>
        </g>
        <g id="Group_56177" data-name="Group 56177" transform="translate(46.294 23.178)">
          <path id="Path_101849" data-name="Path 101849" d="M-995.585,607.961h-1.081a.647.647,0,0,1-.646-.646V597.193a.647.647,0,0,1,.646-.647h1.081a5.714,5.714,0,0,1,5.707,5.708,5.714,5.714,0,0,1-5.707,5.707Zm-.435-1.293h.435a4.42,4.42,0,0,0,4.415-4.415,4.42,4.42,0,0,0-4.415-4.415h-.435Z" transform="translate(997.313 -596.546)" fill="#12263f"/>
        </g>
        <g id="Group_56178" data-name="Group 56178" transform="translate(31.744 47.77)">
          <path id="Path_101850" data-name="Path 101850" d="M-1017.335,643.42l-7.711,9.414,8.668,6.366,2.306-12.309Z" transform="translate(1025.046 -643.42)" fill="#f4efed"/>
        </g>
        <g id="Group_56179" data-name="Group 56179" transform="translate(20.844 47.77)">
          <path id="Path_101851" data-name="Path 101851" d="M-1042.492,643.42l7.569,9.414-8.595,6.366-2.306-12.311Z" transform="translate(1045.824 -643.42)" fill="#f4efed"/>
        </g>
        <g id="Group_56180" data-name="Group 56180" transform="translate(31.097 47.124)">
          <path id="Path_101852" data-name="Path 101852" d="M-1016.964,659.262a.649.649,0,0,1-.383-.125l-8.668-6.366a.646.646,0,0,1-.259-.44.644.644,0,0,1,.142-.491l7.711-9.414a.644.644,0,0,1,.478-.237.647.647,0,0,1,.493.2l3.263,3.472a.646.646,0,0,1,.165.562l-2.306,12.309a.648.648,0,0,1-.4.483.656.656,0,0,1-.238.045Zm-7.736-7.13,7.29,5.354,2.056-10.976-2.533-2.7Z" transform="translate(1026.279 -642.189)" fill="#12263f"/>
        </g>
        <g id="Group_56181" data-name="Group 56181" transform="translate(20.197 47.123)">
          <path id="Path_101853" data-name="Path 101853" d="M-1044.1,659.262a.647.647,0,0,1-.236-.045.649.649,0,0,1-.4-.483l-2.305-12.31a.646.646,0,0,1,.169-.567l3.332-3.47a.642.642,0,0,1,.494-.2.648.648,0,0,1,.476.241l7.568,9.414a.646.646,0,0,1,.137.487.642.642,0,0,1-.256.437l-8.595,6.366a.65.65,0,0,1-.385.127Zm-1.609-12.75,2.054,10.968,7.225-5.351-6.686-8.317Z" transform="translate(1047.055 -642.188)" fill="#12263f"/>
        </g>
        <g id="Group_56182" data-name="Group 56182" transform="translate(3.394 64.529)">
          <path id="Path_101854" data-name="Path 101854" d="M-1078.438,680.735a.647.647,0,0,1-.646-.646v-4.076a.647.647,0,0,1,.646-.646.647.647,0,0,1,.646.646v4.076a.647.647,0,0,1-.646.646Z" transform="translate(1079.084 -675.366)" fill="#12263f"/>
        </g>
        <g id="Group_56183" data-name="Group 56183" transform="translate(22.502 56.538)">
          <path id="Path_101855" data-name="Path 101855" d="M-1033.42,680.292h0a.649.649,0,0,1-.531-.28l-8.595-12.5a.647.647,0,0,1,.148-.886l8.595-6.366a.646.646,0,0,1,.768,0l8.668,6.366a.646.646,0,0,1,.148.889l-8.668,12.5a.646.646,0,0,1-.531.279Zm-7.709-13,7.711,11.214,7.776-11.213-7.777-5.712Z" transform="translate(1042.662 -660.133)" fill="#12263f"/>
        </g>
        <g id="Group_56184" data-name="Group 56184" transform="translate(25.537 56.537)">
          <path id="Path_101856" data-name="Path 101856" d="M-1030.67,669.662a.646.646,0,0,1-.385-.127l-5.56-4.118a.647.647,0,0,1-.262-.519.647.647,0,0,1,.262-.52l5.56-4.118a.646.646,0,0,1,.767,0l5.608,4.118a.645.645,0,0,1,.264.521.647.647,0,0,1-.264.521l-5.608,4.118a.643.643,0,0,1-.382.125Zm-4.474-4.765,4.476,3.315,4.514-3.315-4.514-3.315Z" transform="translate(1036.877 -660.132)" fill="#12263f"/>
        </g>
        <g id="Group_56185" data-name="Group 56185" transform="translate(27.148 64.774)">
          <path id="Path_101857" data-name="Path 101857" d="M-1029.211,687.755h0a.649.649,0,0,1-.531-.28l-3.95-5.745a.647.647,0,0,1,.03-.773l3.95-4.884a.647.647,0,0,1,.5-.24h0a.647.647,0,0,1,.5.238l3.984,4.884a.647.647,0,0,1,.03.777l-3.984,5.745a.648.648,0,0,1-.531.278Zm-3.144-6.36,3.146,4.576,3.173-4.576-3.173-3.891Z" transform="translate(1033.808 -675.833)" fill="#12263f"/>
        </g>
        <g id="Group_56186" data-name="Group 56186" transform="translate(18.173 4.747)">
          <path id="Path_101858" data-name="Path 101858" d="M-1050.915,569.922a11.991,11.991,0,0,1,8.874,1.976c5.214,3.882,16.527,7.733,21.851,2.258,0,0-2.6-12.742-15.1-12.742S-1050.915,569.922-1050.915,569.922Z" transform="translate(1050.915 -561.415)" fill="#ffb74d"/>
        </g>
        <g id="Group_56187" data-name="Group 56187" transform="translate(17.526 12.434)">
          <path id="Path_101859" data-name="Path 101859" d="M-1028.2,584.491a20.406,20.406,0,0,1-3.66-.354,28.467,28.467,0,0,1-11.153-4.756,11.376,11.376,0,0,0-8.354-1.862.647.647,0,0,1-.766-.5.646.646,0,0,1,.5-.766,12.545,12.545,0,0,1,9.393,2.091,27.043,27.043,0,0,0,10.616,4.521c3.191.588,7.586.685,10.387-2.2a.647.647,0,0,1,.914-.013.646.646,0,0,1,.013.914,10.657,10.657,0,0,1-7.887,2.919Z" transform="translate(1052.148 -576.066)" fill="#12263f"/>
        </g>
      </g>
      <g id="Group_56189" data-name="Group 56189" transform="translate(-1032.418 544.025)">
        <path id="Path_101860" data-name="Path 101860" d="M-982.142,546.536a7.1,7.1,0,0,0-.1,10.044l10.995,11.207,11.207-10.995a7.1,7.1,0,0,0,.1-10.043,7.1,7.1,0,0,0-10.043-.1l-1.067,1.047-1.047-1.067A7.1,7.1,0,0,0-982.142,546.536Z" transform="translate(984.271 -544.504)" fill="#8c6df2"/>
      </g>
      <path id="Path_101861" data-name="Path 101861" d="M-980.11,556.587a7.1,7.1,0,0,1,.1-10.044,7.061,7.061,0,0,1,3.906-1.945,7.083,7.083,0,0,0-6.035,1.945,7.1,7.1,0,0,0-.1,10.044l10.995,11.207,1.084-1.064Z" transform="translate(-48.147 -0.486)" fill="#a38af2"/>
      <path id="Path_101862" data-name="Path 101862" d="M-948.441,546.859a7.1,7.1,0,0,0-9.813-.3,7.1,7.1,0,0,1,7.848,1.558,7.1,7.1,0,0,1-.1,10.043l-9.578,9.4.336.342,11.207-10.995A7.1,7.1,0,0,0-948.441,546.859Z" transform="translate(-59.647 -0.589)" fill="#735ac7"/>
      <g id="Group_56190" data-name="Group 56190" transform="translate(-1032.92 543.496)">
        <path id="Path_101863" data-name="Path 101863" d="M-971.7,567.843a.776.776,0,0,1-.548-.233l-10.764-10.972a7.68,7.68,0,0,1-2.212-5.488,7.682,7.682,0,0,1,2.317-5.445,7.741,7.741,0,0,1,10.934.1l.48.489.49-.48a7.74,7.74,0,0,1,10.934.1,7.677,7.677,0,0,1,2.212,5.488,7.678,7.678,0,0,1-2.317,5.445l-10.972,10.764a.778.778,0,0,1-.552.223Zm-5.859-23.023a6.267,6.267,0,0,0-4.478,1.8,6.266,6.266,0,0,0-1.89,4.442,6.265,6.265,0,0,0,1.8,4.477l10.438,10.64,10.641-10.438a6.267,6.267,0,0,0,1.89-4.443,6.265,6.265,0,0,0-1.8-4.477,6.266,6.266,0,0,0-4.442-1.89,6.269,6.269,0,0,0-4.478,1.8l-1.068,1.047a.794.794,0,0,1-1.124-.011l-1.047-1.067a6.269,6.269,0,0,0-4.442-1.89Zm-5.035,1.237h0Z" transform="translate(985.229 -543.496)" fill="#12263f"/>
      </g>
    </g>
  </g>
</svg>
