<svg xmlns="http://www.w3.org/2000/svg" width="588.151" height="490.986" viewBox="0 0 588.151 490.986">
  <g id="banner-princiapal" transform="translate(530.607 -22.941)">
    <g id="Group_53933" data-name="Group 53933">
      <ellipse id="Ellipse_4096" data-name="Ellipse 4096" cx="103.762" cy="6.815" rx="103.762" ry="6.815" transform="translate(-374.374 500.298)" fill="#e6a545"/>
      <ellipse id="Ellipse_4097" data-name="Ellipse 4097" cx="56.363" cy="6.815" rx="56.363" ry="6.815" transform="translate(-479.945 500.298)" fill="#e6a545"/>
    </g>
    <g id="Group_53890" data-name="Group 53890" transform="translate(-445.153 154.062)" opacity="0.7">
      <path id="Path_100745" data-name="Path 100745" d="M-67.275,243.776c8.632-82.157-109.425-101.289-198.39-86.886-76.774,12.429-159.6,70.6-150.258,107.756,9.211,36.65,60.183,6.214,80.607,53.645,21.2,49.24,6.563,52.42,12.051,93.857,2.239,16.909,15.912,45.908,50.541,39.04C-214.947,439.726-81.054,348.577-67.275,243.776Z" transform="translate(422.499 -152.507)" fill="#fff2cc"/>
      <path id="Path_100746" data-name="Path 100746" d="M-354.426,346.517c10.609-5.2,22.239-25.364-11.485-57.519-19.5-18.6-40.954-20.777-53.04-8.56-10.6,10.716,18.274,23.351,26.751,36C-377.774,337.952-370.715,354.5-354.426,346.517Z" transform="translate(421.26 -120.205)" fill="#fff2cc"/>
      <path id="Path_100897" data-name="Path 100897" d="M-354.426,346.517c10.609-5.2,22.239-25.364-11.485-57.519-19.5-18.6-40.954-20.777-53.04-8.56-10.6,10.716,18.274,23.351,26.751,36C-377.774,337.952-370.715,354.5-354.426,346.517Z" transform="matrix(0.105, 0.995, -0.995, 0.105, 682.626, 561.473)" fill="#fff2cc"/>
    </g>
    <g id="Group_53900" data-name="Group 53900" transform="translate(-138.529 154.062)">
      <g id="Group_53894" data-name="Group 53894" transform="translate(0 0)">
        <circle id="Ellipse_4094" data-name="Ellipse 4094" cx="46.09" cy="46.09" r="46.09" transform="translate(5.916 8.676)" fill="#ffb74d"/>
        <path id="Path_100750" data-name="Path 100750" d="M-168.065,154.661A43.521,43.521,0,0,1-150.406,189.7,43.59,43.59,0,0,1-194,233.288,43.417,43.417,0,0,1-222.9,222.318,46.056,46.056,0,0,0-183.739,244.1a46.089,46.089,0,0,0,46.089-46.089A46.106,46.106,0,0,0-168.065,154.661Z" transform="translate(235.745 -143.249)" fill="#cc41b6" opacity="0.3" style="mix-blend-mode: multiply;isolation: isolate"/>
        <g id="Group_53893" data-name="Group 53893" transform="translate(8.862 8.683)">
          <path id="Path_100751" data-name="Path 100751" d="M-225.618,185.186c.711-.931.711-.931,1.312-1.286-2.02,8.055-2.5,9.968,3.524,15.94-.207,1.029-1.243,1.63-1.386,2.691a18.007,18.007,0,0,0,.56,3.449c.177.767.612,2.4,1.086,3.764,1.35,3.879,1.849,4.071,3.328,4.644.371.144.975.348,1.112.721,1.164,3.206-.17,6.69,1.095,9.886,2.066,5.223,5.365,9.337,8.208,10.238-3.04-3.057-2.229-7.3-3.379-10.941l.391-.463c2.048.027,1.421-2.524,2.159-3.771,1.388-.144,2.859.813,4.175-.312-.05-1.474-1.859-2.454-1.166-4.137.807-1.968,3.35-1.839,4.338-3.588.234-.414-1.648-3.787-5.526-5.039-2.747-.886-3.055-1.248-3.33-1.569-.837-.981-.371-2.4-1.154-3.4-.842-1.075-2.488-.962-3.228-2.188-.473-.784-.473-.784-.405-2.344-4.07-.993-5.068-.787-5.278-.7-.983.407-1.133.47-1.684-.171-.389-.452-3.627-6.891-2.522-10.158,1.658-4.9,1.787-4.623,5.1,2.432l.428.033c1.02-2.038.567-4.549,2.069-6.433,1.974-2.478,5.084-3.41,7.391-5.436,0-.063,1.3-5.371,4.657-2.376.328-2.41,1.392-4.7,1.131-7.207a5.135,5.135,0,0,0-1.233.455l-.338-.25c.386-1.807,4.131-4.72,1.59-5.292-2.317,1.672-2.984,4.831-5.605,6.229-.56-1.225.559-2.367.178-3.584a6.778,6.778,0,0,0-.965.243c2.732-4.159,8.139-3.982,11.509-7.106-.342-.034-.8-.083-1.139-.119,1.755-1.161,3.679-2.034,5.434-3.195a46.455,46.455,0,0,1-6.592,1.33c.972-.747,2.508-.586,3.139-1.885a46.218,46.218,0,0,0-27.7,24.448C-226.02,182.911-225.633,185.146-225.618,185.186Z" transform="translate(225.674 -152.094)" fill="#5038a1"/>
          <path id="Path_100752" data-name="Path 100752" d="M-179.851,154.585a54.975,54.975,0,0,0-6.957-1.6,12.865,12.865,0,0,1,2.383.708l-.422-.016c2.979,1.007,3.879,1.31,8.708,4.48a10.6,10.6,0,0,0-2.321-.761,30.073,30.073,0,0,1,2.876,2.622,37.777,37.777,0,0,0-6.437-4.1,31.4,31.4,0,0,0,4.6,4.034,27.982,27.982,0,0,0-2.808-.875c-.542,5.779-.542,5.779-.879,6.081-1.154-.727-1.154-.727-.537-3.047-2.357-2.686-3-2.7-4.549-2.729-2.059,2.4-3.708,9.363-3.259,10.56a5.393,5.393,0,0,0,1.481-.363,15.708,15.708,0,0,0-.066,2.834l.4.171c1.487-.863,1.487-.863,1.537-6.634,1.625-1.359,1.625-1.359,2-1.511.066,1.335-.234,2.658-.121,3.993,1.013-.013,1.922-.6,2.951-.527.184,2.811-3.192,7.665-3.69,8.085-.126.106-.126.106-4.594-1.122-1.332,1.017-2.893,4.5-3.009,4.946-.414,1.586-.771,2.955-6.272,4.3.1.69.1.69.994,1.53,2.987,2.794,8,.419,8-2.89,8.024,3.522,8.506,3.733,12.818-2.344,1.711-2.412,4.108.754,4.225,1.392-1.543,1.787-5.351.881-5.544,4.133,1.243,1,2.929.463,4.242,1.223.272,4.035-7.009.174-7.487,4.19-1.73.842-2.849-.326-5.3-2.885-2.922-3.053-19.07,6.109-18.086,18.183.147,1.793,4.812,8.549,10.716,5.778,7.97-3.741,9.379.784,9.389.832-2.314,2.614.091,6.032-1.494,8.77-1.955,3.382,1.508,7.47-1.4,10.725.036.043,4.518,2.9,10.4-6.625.891-1.444.891-1.444,1.346-1.62.2.747.292,1.517.5,2.261l.5.254c1.21-.609,4.413-4.213,5.433-6.688.326-.793.326-.793-1.095-5.259-.24-.751.214-1.636,1.609-3.754a22.487,22.487,0,0,0,2.647-4.628c.062-.273.129-.641.162-.919.072-.622-.243-1.085-1.25-1.834a23.881,23.881,0,0,1-4.353-3.969c-.28-2.01-.618-4.7-.848-6.713,2.155,1.613,4.279,3.264,6.434,4.877.249-.283.766-.873-.922-6.292,9,1.3,9,1.3,9.28,1.352,1.893,3.988,2.125,4.137,2.889,4.633,2.069-1.658,3.422-5.822,4.044-8.157,2.15,3.718,2.231,4.308,2.261,4.531.3,2.224.615,4.524,2.4,5.541a20.3,20.3,0,0,0-1.023-4.729c1.217-1.994,1.217-1.994-.447-6.39a2.22,2.22,0,0,0,1-1A46.162,46.162,0,0,0-180.469,154C-180.269,154.173-180.028,154.4-179.851,154.585Z" transform="translate(234.688 -152.662)" fill="#5038a1"/>
          <path id="Path_100753" data-name="Path 100753" d="M-198.5,158.019c-1.692,1.36-3.532,2.524-5.2,3.92a6.5,6.5,0,0,0-.488.486c-2.278,2.451-3.165,6.857-2.047,7.993a.428.428,0,0,0,.313-.116c1.85-1.307,2.31-3.752,4.149-5.071,1.662-1.191,4.048-.25,5.558-1.888.3-.33.353-1.24.427-2.616.014-.287.065-1.042.193-1.856a14.5,14.5,0,0,0,3.843-3.1,26.555,26.555,0,0,1,1.936-3l-.513-.006a23.827,23.827,0,0,0-5.594,2.725C-196.93,156.173-197.552,157.26-198.5,158.019Z" transform="translate(233.952 -152.761)" fill="#5038a1"/>
        </g>
        <path id="Path_100754" data-name="Path 100754" d="M-155.2,199.013c-1.783-1.017-2.094-3.317-2.4-5.542-.032-.223-.112-.813-2.261-4.531-.622,2.333-1.975,6.5-4.044,8.157-.763-.5-.994-.644-2.889-4.634-.078-.011-.134-.023-.365-.056q.084-1.34.085-2.706a43.524,43.524,0,0,0-17.659-35.04,46.179,46.179,0,0,1,29.1,32.369c-.625.534-.99.84-1.034.863,1.664,4.394,1.664,4.394.447,6.391A20.117,20.117,0,0,1-155.2,199.013Z" transform="translate(252.409 -143.249)" fill="#3a2875"/>
        <ellipse id="Ellipse_4095" data-name="Ellipse 4095" cx="33.75" cy="24.986" rx="33.75" ry="24.986" transform="matrix(0.771, -0.636, 0.636, 0.771, 0, 42.953)" fill="#fff" opacity="0.21" style="mix-blend-mode: overlay;isolation: isolate"/>
      </g>
      <g id="Group_53899" data-name="Group 53899" transform="translate(14.441 26.763)">
        <g id="Group_53895" data-name="Group 53895" transform="translate(2.433 35.452)">
          <path id="Path_100755" data-name="Path 100755" d="M-214.256,192.945a2.919,2.919,0,0,0-3.007-2.918,2.932,2.932,0,0,0-2.83,2.773,2.922,2.922,0,0,0,1.551,2.727,1,1,0,0,1,.417.415l.95,1.8.948-1.8a.979.979,0,0,1,.408-.411A2.918,2.918,0,0,0-214.256,192.945Z" transform="translate(220.096 -190.026)" fill="#fff"/>
          <path id="Path_100756" data-name="Path 100756" d="M-216.512,192.464a1.19,1.19,0,0,1-1.189,1.191,1.191,1.191,0,0,1-1.191-1.191,1.191,1.191,0,0,1,1.191-1.191A1.19,1.19,0,0,1-216.512,192.464Z" transform="translate(220.622 -189.482)" fill="#a8a8a8"/>
          <path id="Path_100757" data-name="Path 100757" d="M-215.384,190.726c.009.1.013.2.013.3a4.087,4.087,0,0,1-3.779,4.075c.065.04.129.079.2.115a1,1,0,0,1,.417.415l.95,1.8.948-1.8a.978.978,0,0,1,.408-.411,2.918,2.918,0,0,0,1.563-2.586A2.91,2.91,0,0,0-215.384,190.726Z" transform="translate(220.509 -189.721)" fill="#e6e6e6"/>
        </g>
        <g id="Group_53896" data-name="Group 53896">
          <path id="Path_100758" data-name="Path 100758" d="M-214.909,168.787a3.441,3.441,0,0,0-3.542-3.439,3.455,3.455,0,0,0-3.334,3.268,3.44,3.44,0,0,0,1.827,3.212,1.167,1.167,0,0,1,.491.488l1.118,2.116,1.119-2.116a1.155,1.155,0,0,1,.48-.484A3.436,3.436,0,0,0-214.909,168.787Z" transform="translate(221.79 -165.347)" fill="#fff"/>
          <path id="Path_100759" data-name="Path 100759" d="M-217.565,168.219a1.4,1.4,0,0,1-1.4,1.4,1.4,1.4,0,0,1-1.4-1.4,1.4,1.4,0,0,1,1.4-1.4A1.4,1.4,0,0,1-217.565,168.219Z" transform="translate(222.409 -164.705)" fill="#a8a8a8"/>
          <path id="Path_100760" data-name="Path 100760" d="M-216.239,166.172c.009.119.016.238.016.359a4.815,4.815,0,0,1-4.453,4.8c.075.047.152.093.231.136a1.167,1.167,0,0,1,.491.488l1.118,2.116,1.119-2.116a1.155,1.155,0,0,1,.48-.484,3.437,3.437,0,0,0,1.842-3.045A3.423,3.423,0,0,0-216.239,166.172Z" transform="translate(222.276 -164.987)" fill="#e6e6e6"/>
        </g>
        <g id="Group_53897" data-name="Group 53897" transform="translate(39.247 27.225)">
          <path id="Path_100761" data-name="Path 100761" d="M-186.909,188.079A3.78,3.78,0,0,0-190.8,184.3a3.8,3.8,0,0,0-3.663,3.59,3.779,3.779,0,0,0,2.008,3.53,1.287,1.287,0,0,1,.539.537l1.228,2.324,1.23-2.324a1.265,1.265,0,0,1,.529-.532A3.778,3.778,0,0,0-186.909,188.079Z" transform="translate(194.469 -184.299)" fill="#fff"/>
          <path id="Path_100762" data-name="Path 100762" d="M-189.829,187.454A1.541,1.541,0,0,1-191.37,189a1.54,1.54,0,0,1-1.54-1.541,1.541,1.541,0,0,1,1.54-1.541A1.542,1.542,0,0,1-189.829,187.454Z" transform="translate(195.15 -183.594)" fill="#a8a8a8"/>
          <path id="Path_100763" data-name="Path 100763" d="M-188.369,185.205c.01.131.017.263.017.4a5.291,5.291,0,0,1-4.894,5.275c.083.053.168.1.256.149a1.287,1.287,0,0,1,.539.537l1.228,2.324,1.23-2.324a1.266,1.266,0,0,1,.529-.532,3.778,3.778,0,0,0,2.023-3.347A3.761,3.761,0,0,0-188.369,185.205Z" transform="translate(195.003 -183.903)" fill="#e6e6e6"/>
        </g>
        <g id="Group_53898" data-name="Group 53898" transform="translate(64.692 4.011)">
          <path id="Path_100764" data-name="Path 100764" d="M-170.132,171.452a3.313,3.313,0,0,0-3.41-3.311,3.328,3.328,0,0,0-3.209,3.146,3.309,3.309,0,0,0,1.758,3.091,1.138,1.138,0,0,1,.473.47l1.076,2.037,1.077-2.037a1.1,1.1,0,0,1,.463-.464A3.312,3.312,0,0,0-170.132,171.452Z" transform="translate(176.756 -168.139)" fill="#fff"/>
          <path id="Path_100765" data-name="Path 100765" d="M-172.691,170.9a1.351,1.351,0,0,1-1.35,1.35,1.349,1.349,0,0,1-1.349-1.35,1.349,1.349,0,0,1,1.349-1.35A1.351,1.351,0,0,1-172.691,170.9Z" transform="translate(177.352 -167.521)" fill="#a8a8a8"/>
          <path id="Path_100766" data-name="Path 100766" d="M-171.412,168.934c.009.113.014.228.014.345a4.635,4.635,0,0,1-4.287,4.621c.072.046.147.09.223.131a1.138,1.138,0,0,1,.473.47l1.076,2.037,1.077-2.037a1.1,1.1,0,0,1,.463-.464A3.312,3.312,0,0,0-170.6,171.1,3.3,3.3,0,0,0-171.412,168.934Z" transform="translate(177.224 -167.792)" fill="#e6e6e6"/>
        </g>
      </g>
    </g>
    <g id="Group_53910" data-name="Group 53910" transform="translate(-530.607 387.931)">
      <g id="Group_53909" data-name="Group 53909">
        <g id="Group_53902" data-name="Group 53902" transform="translate(22.755)">
          <path id="Path_100767" data-name="Path 100767" d="M-481.246,406.449c4.12-2.777,3.039-11.225,2.921-12.151-.619-4.846-2.56-5.486-2.06-8.533.849-5.184,6.8-5.385,7.529-9.839.8-4.885-6.06-6.553-6.759-13.55-.511-5.113,2.964-6.08,2.921-12.151-.028-4-1.588-11.357-6.955-13.016-5.485-1.7-12.441,3.335-13.238,8.208s4.846,7.809,3.381,12.179c-1.134,3.383-4.9,2.762-6.143,6.1-1.918,5.136,5.633,10.22,3.67,14.349-1.426,3-5.9,1.35-8.07,4.417-3.206,4.526,1.635,15.033,9.052,20.47C-493.9,403.741-485.805,409.521-481.246,406.449Z" transform="translate(505.056 -336.873)" fill="#b59eff"/>
          <g id="Group_53901" data-name="Group 53901" transform="translate(14.759 5.388)">
            <path id="Path_100768" data-name="Path 100768" d="M-489.537,409.735h-.044a.637.637,0,0,1-.59-.676c.006-.1.646-9.956-2.116-15.412-2.017-3.981-.968-7.692.249-11.99a46.2,46.2,0,0,0,1.556-6.865,22.32,22.32,0,0,0-.065-6.794,18.9,18.9,0,0,1,.591-8.759c2-7.63.228-17.269.211-17.365a.634.634,0,0,1,.506-.741.633.633,0,0,1,.74.5c.077.407,1.842,10.019-.23,17.923a17.64,17.64,0,0,0-.562,8.264,23.742,23.742,0,0,1,.068,7.128,47.355,47.355,0,0,1-1.6,7.05c-1.19,4.208-2.13,7.531-.337,11.071,2.92,5.768,2.279,15.653,2.25,16.071A.634.634,0,0,1-489.537,409.735Z" transform="translate(493.421 -341.121)" fill="#8c6df2"/>
          </g>
        </g>
        <g id="Group_53904" data-name="Group 53904" transform="translate(46.216 21.309)">
          <path id="Path_100769" data-name="Path 100769" d="M-471.106,420.7c4.857-1.048,6.992-9.293,7.225-10.2,1.224-4.729-.339-6.044,1.256-8.688,2.715-4.5,8.316-2.474,10.644-6.339,2.552-4.241-3.193-8.335-1.243-15.091,1.424-4.938,5.009-4.544,7.225-10.2,1.459-3.722,2.742-11.135-1.625-14.669-4.463-3.611-12.79-1.522-15.34,2.707s1.6,9.05-1.383,12.563c-2.31,2.72-5.573.745-7.971,3.383-3.688,4.057,1.436,11.581-1.921,14.685-2.438,2.254-5.978-.936-9.134,1.1-4.657,3.012-4.064,14.565.8,22.368C-481.846,413.491-476.479,421.862-471.106,420.7Z" transform="translate(486.561 -353.671)" fill="#b59eff"/>
          <g id="Group_53903" data-name="Group 53903" transform="translate(8.615 5.623)">
            <path id="Path_100770" data-name="Path 100770" d="M-479.136,421.749a.618.618,0,0,1-.274-.062.633.633,0,0,1-.3-.846c.043-.09,4.3-9.005,3.759-15.1-.393-4.447,1.96-7.5,4.685-11.041a46.4,46.4,0,0,0,3.995-5.8,22.31,22.31,0,0,0,2.462-6.332,18.907,18.907,0,0,1,3.8-7.913c4.686-6.336,6.625-15.949,6.644-16.045a.633.633,0,0,1,.745-.5.635.635,0,0,1,.5.745c-.08.406-2.011,9.986-6.869,16.554a17.642,17.642,0,0,0-3.59,7.465,23.7,23.7,0,0,1-2.585,6.643,47.2,47.2,0,0,1-4.1,5.953c-2.668,3.466-4.776,6.2-4.426,10.156.568,6.44-3.7,15.381-3.879,15.757A.634.634,0,0,1-479.136,421.749Z" transform="translate(479.77 -358.104)" fill="#8c6df2"/>
          </g>
        </g>
        <g id="Group_53906" data-name="Group 53906" transform="translate(0 22.552)">
          <path id="Path_100771" data-name="Path 100771" d="M-470.326,415.306c1.95-5.039-4.266-11.906-4.947-12.658-3.564-3.939-5.694-3.3-7.143-6.332-2.465-5.154,2.723-9.034.6-13.458-2.326-4.855-9.479-2.082-14.453-7.89-3.634-4.246-1.134-7.267-4.946-12.658-2.51-3.549-8.477-9.146-14.3-7.29-5.948,1.9-9.027,10.711-6.708,15.554s9.178,3.954,10.587,8.764c1.092,3.723-2.652,5.509-1.69,9.264,1.482,5.774,11.38,5.617,12.2,10.522.591,3.561-4.423,4.871-4.455,8.957-.047,6.032,10.8,12.4,20.8,12.638C-483.3,420.754-472.483,420.881-470.326,415.306Z" transform="translate(522.994 -354.651)" fill="#8c6df2"/>
          <g id="Group_53905" data-name="Group 53905" transform="translate(8.288 6.267)">
            <path id="Path_100772" data-name="Path 100772" d="M-474.333,421.21a.637.637,0,0,1-.545-.308c-.056-.093-5.621-9.3-11.489-12.457-4.257-2.29-5.623-6.243-7.206-10.823a50.568,50.568,0,0,0-2.881-7.1,24.358,24.358,0,0,0-4.291-6.034,20.519,20.519,0,0,1-4.905-8.163c-2.961-8.058-10.544-15.571-10.621-15.647a.635.635,0,0,1-.006-.9.634.634,0,0,1,.9-.008c.32.313,7.861,7.785,10.921,16.114a19.231,19.231,0,0,0,4.648,7.74,25.73,25.73,0,0,1,4.483,6.307,51.259,51.259,0,0,1,2.956,7.272c1.5,4.328,2.788,8.066,6.608,10.121,6.178,3.323,11.744,12.532,11.977,12.921a.634.634,0,0,1-.218.87A.62.62,0,0,1-474.333,421.21Z" transform="translate(516.461 -359.591)" fill="#5038a1"/>
          </g>
          <path id="Path_100773" data-name="Path 100773" d="M-484.782,418.638c.358.009,1.26.022,2.448-.041-4.818-2.479-16.785-7.635-17.195-15.275-.186-3.476,2.134-5.344.723-8.247-1.789-3.679-6.512-2.725-9.538-7.326a13.733,13.733,0,0,1-1.964-6.157c-.586-4.881,1.433-6.076.468-8.675-1.247-3.359-5.116-2.713-9.587-6.582a16.928,16.928,0,0,1-3.349-3.937,10.114,10.114,0,0,0,.554,6.1c2.316,4.838,9.178,3.954,10.587,8.764,1.092,3.723-2.652,5.509-1.69,9.264,1.482,5.774,11.38,5.617,12.2,10.522.591,3.561-4.423,4.871-4.455,8.957C-505.63,412.032-494.779,418.4-484.782,418.638Z" transform="translate(522.995 -352.571)" fill="#5038a1"/>
        </g>
        <g id="Group_53908" data-name="Group 53908" transform="translate(34.408 22.754)">
          <path id="Path_100774" data-name="Path 100774" d="M-474.613,424.834c4.458-2.25,4.445-10.808,4.442-11.746-.006-4.909-1.861-5.791-.979-8.765,1.5-5.063,7.46-4.512,8.744-8.861,1.408-4.771-5.215-7.3-5.031-14.359.133-5.163,3.719-5.688,4.442-11.746.476-3.988-.155-11.522-5.3-13.852-5.254-2.381-12.823,1.759-14.23,6.518s3.847,8.394,1.837,12.566c-1.556,3.231-5.23,2.137-6.893,5.31-2.559,4.879,4.329,10.9,1.852,14.767-1.8,2.81-6.051.6-8.6,3.388-3.766,4.109-.263,15.192,6.447,21.547C-486.884,420.541-479.543,427.323-474.613,424.834Z" transform="translate(495.869 -354.81)" fill="#8c6df2"/>
          <g id="Group_53907" data-name="Group 53907" transform="translate(14.218 5.431)">
            <path id="Path_100775" data-name="Path 100775" d="M-483.25,427.448a.585.585,0,0,1-.123-.011.634.634,0,0,1-.5-.745c.019-.1,1.9-9.847-.17-15.632-1.508-4.224.005-7.79,1.758-11.92a46.61,46.61,0,0,0,2.418-6.65,22.494,22.494,0,0,0,.789-6.783,19,19,0,0,1,1.692-8.656c2.954-7.356,2.4-17.188,2.4-17.286a.633.633,0,0,1,.595-.671.625.625,0,0,1,.671.595c.024.414.575,10.217-2.486,17.835a17.727,17.727,0,0,0-1.6,8.169,23.847,23.847,0,0,1-.831,7.114,47.369,47.369,0,0,1-2.477,6.828c-1.716,4.044-3.072,7.241-1.73,11,2.184,6.115.3,15.889.219,16.3A.632.632,0,0,1-483.25,427.448Z" transform="translate(484.661 -359.092)" fill="#5038a1"/>
          </g>
          <path id="Path_100776" data-name="Path 100776" d="M-487.88,419.03c.24.227.851.794,1.7,1.488-1.771-4.685-6.789-15.629-2.34-21.124,2.024-2.5,4.772-2.344,5.6-5.21,1.05-3.63-2.781-5.9-2.008-10.929a12.692,12.692,0,0,1,2.463-5.439c2.621-3.712,4.746-3.282,5.692-5.663,1.224-3.075-1.83-5.028-2.5-10.45a15.638,15.638,0,0,1,.14-4.775,9.347,9.347,0,0,0-3.392,4.525c-1.407,4.753,3.847,8.394,1.837,12.566-1.556,3.231-5.23,2.137-6.893,5.31-2.559,4.879,4.329,10.9,1.852,14.767-1.8,2.81-6.051.6-8.6,3.388C-498.093,401.592-494.589,412.675-487.88,419.03Z" transform="translate(495.869 -354.242)" fill="#5038a1"/>
        </g>
      </g>
      <path id="Path_100777" data-name="Path 100777" d="M-466.057,433.2h-33.124l-10.482-34.72h54.089Z" transform="translate(526.574 -320.332)" fill="#fff"/>
    </g>
    <g id="Group_53931" data-name="Group 53931" transform="translate(-449.908 169.148)">
      <path id="Path_100834" data-name="Path 100834" d="M-322.365,190.856s-1.079,11.03-9.105,17.084c0,0,7.666-.355,10.955-10.732Z" transform="translate(503.72 -157.297)" fill="#12263f"/>
      <g id="Group_53927" data-name="Group 53927" transform="translate(0 4.628)">
        <path id="Path_100835" data-name="Path 100835" d="M-277.7,266.558s15.033,43.672,8.168,100.3c-.346,2.859,1.161,6.5.871,9.259-.362,3.45-2.5,5.976-2.782,9.252-3.907,45.922-.075,74.517-.075,74.517l-12.4,1.37s-16.754-56.774-8.985-88.194c0,0-26.568-76.429-21.575-105.37Z" transform="translate(508.114 -141.598)" fill="#ffc685"/>
        <path id="Path_100836" data-name="Path 100836" d="M-259.746,428.05c-10.181-3.27-17.283-9.214-18.113-10.319.521,1.624-10.535,1.653-12.48,1.874a73.163,73.163,0,0,0-1.881,11.13,2.413,2.413,0,0,0,1.617,2.489,8.581,8.581,0,0,0,4.956.53s3.48-1.437,17.125,2.647c9.084,2.718,16.074-.1,18.386-1.685S-248.817,431.562-259.746,428.05Z" transform="translate(514.257 -101.007)" fill="#5038a1"/>
        <path id="Path_100837" data-name="Path 100837" d="M-290.768,419.44s3.461,6.138,9.188-1.243Z" transform="translate(514.649 -100.882)" fill="#ffc685"/>
        <path id="Path_100838" data-name="Path 100838" d="M-282.742,420.875s-2.552-2.434-3.042-4.337,3.677-2.793,5.68-2.215.748,5.528.748,5.528Z" transform="translate(515.977 -101.969)" fill="#5038a1"/>
        <path id="Path_100839" data-name="Path 100839" d="M-249.828,429.757c-.1.079-.2.156-.308.235-2.311,1.589-9.3,4.4-18.386,1.683-13.645-4.083-17.125-2.646-17.125-2.646a8.581,8.581,0,0,1-4.956-.53,2.406,2.406,0,0,1-1.487-1.536c-.051.453-.094.889-.131,1.294a2.413,2.413,0,0,0,1.617,2.489,8.581,8.581,0,0,0,4.956.53s3.48-1.437,17.125,2.647c9.084,2.718,16.074-.1,18.386-1.685C-249.031,431.477-248.7,430.721-249.828,429.757Z" transform="translate(514.257 -98.529)" fill="#36256b"/>
        <path id="Path_100840" data-name="Path 100840" d="M-282.27,454.627c-.774-.873-1.825-4.724-2.976-10.1-3.31-15.462-7.452-43.673-8.287-50.918-1.126-9.761,3.754-34.355,3.754-37.922s-6.194-30.6-6.194-30.6l-9.33.956c5.069,17.8,9.761,31.3,9.761,31.3-7.175,29.013,6.553,79.611,8.7,87.2a73.219,73.219,0,0,0-1.867,11.07,2.413,2.413,0,0,0,1.617,2.489,8.58,8.58,0,0,0,4.956.53s2.033-.827,9.024.58C-277.727,457.344-281.36,455.65-282.27,454.627Z" transform="translate(510.746 -125.882)" fill="#cc41b6" opacity="0.3" style="mix-blend-mode: multiply;isolation: isolate"/>
        <path id="Path_100841" data-name="Path 100841" d="M-374.187,284.3s1.3,7.8.45,10.763-5.181,1.265-5.181,1.265Z" transform="translate(490.981 -136.833)" fill="#ffc685"/>
        <path id="Path_100842" data-name="Path 100842" d="M-402.728,356.554l-9.043-5.226,32.149-55.628c.122-.211.245-.418.366-.614l.852.524c-.116.188-.234.387-.352.591L-410.4,350.963l7.311,4.225,31.649-54.761.866.5Z" transform="translate(482.343 -133.868)" fill="#a8a8a8"/>
        <g id="Group_53922" data-name="Group 53922" transform="translate(101.61 152.623)">
          <path id="Path_100843" data-name="Path 100843" d="M-377.44,304.455a1.9,1.9,0,0,1-.95-.255,1.9,1.9,0,0,1-.7-2.6c3.018-5.221,2.8-9,2.181-9.355-.566-.326-3.654.964-6.728,5.973a1.9,1.9,0,0,1-2.617.627,1.9,1.9,0,0,1-.627-2.617c3.085-5.027,8.1-9.459,11.833-7.3,3.794,2.193,2.486,8.989-.746,14.58A1.907,1.907,0,0,1-377.44,304.455Z" transform="translate(387.158 -288.365)" fill="#5038a1"/>
        </g>
        <path id="Path_100844" data-name="Path 100844" d="M-444.738,427.906a8.772,8.772,0,0,1-8.776,8.768,8.771,8.771,0,0,1-8.767-8.776,8.771,8.771,0,0,1,8.774-8.768A8.772,8.772,0,0,1-444.738,427.906Z" transform="translate(468.597 -100.632)" fill="#12263f"/>
        <rect id="Rectangle_7670" data-name="Rectangle 7670" width="38.288" height="122.207" rx="2.85" transform="matrix(0.866, 0.5, -0.5, 0.866, 61.151, 208.032)" fill="#5038a1"/>
        <path id="Path_100845" data-name="Path 100845" d="M-311.5,176.409c-5.146,7.534-3.984,15.279-7.345,26.441-4.786,15.9-18.77,25.205-21.639,27.986-12.908,12.513-9.453,23.379-10.6,30.274-1.569,9.406,9.858,21.128,25.607,24.237,19.319,3.814,30.084-17.259,40.715-32.2,22.531-31.667,8.8-82.105-7.239-84.107C-298.618,168.213-308.158,171.52-311.5,176.409Z" transform="translate(498.415 -167.816)" fill="#12263f"/>
        <path id="Path_100846" data-name="Path 100846" d="M-310.183,221s-1-7.56,55.407-6.426l-.972,14.31S-308.607,241.883-310.183,221Z" transform="translate(509.436 -155.587)" fill="#ffc685"/>
        <path id="Path_100847" data-name="Path 100847" d="M-269.68,219.7s23.557-11.767,36.429-19.058l4.322,4.047a209.771,209.771,0,0,1-37.694,27.907Z" transform="translate(520.311 -159.297)" fill="#ffc685"/>
        <path id="Path_100848" data-name="Path 100848" d="M-227.176,196.437s2.338.126,1.71,2.893-2.335,7.324-3.561,7.25a24.807,24.807,0,0,1-3.2-.54Z" transform="translate(530.368 -160.426)" fill="#ffc685"/>
        <path id="Path_100849" data-name="Path 100849" d="M-227.022,195.369s3.408.006,3.108,2.829-1.461,7.546-2.688,7.616-5.381-2.045-5.381-2.045Z" transform="translate(530.433 -160.713)" fill="#ffc685"/>
        <path id="Path_100850" data-name="Path 100850" d="M-242.409,203.091s10.156-8.357,16.252-7.222c5.477,1.021-.69,9.4-1.3,10.852s-4.22.117-5.9-.392c-1.182-.358,1.479-2.6.389-1.749-.088.069-.657.639-.713.7a5.819,5.819,0,0,1-4.674,1.974h0Z" transform="translate(527.634 -160.607)" fill="#ffc685"/>
        <path id="Path_100851" data-name="Path 100851" d="M-235.612,199.661s14.14-7.591,16.412-9.1,1.173,2.4-4.035,6.008-11.646,7.757-11.646,7.757Z" transform="translate(529.459 -162.093)" fill="#ffc685"/>
        <path id="Path_100852" data-name="Path 100852" d="M-320.469,243.521c-3.907-.96-8.658,2.04-10.719,5.715-4.492,8.007,3.986,18.873,6.582,22.2,2.063,2.645,7.03,9.012,10.321,7.839,4.067-1.447,3.065-13.516,2.073-19.233C-313.269,253.948-314.837,244.905-320.469,243.521Z" transform="translate(503.45 -147.832)" fill="#ffb74d"/>
        <path id="Path_100853" data-name="Path 100853" d="M-310.87,205.283l-.495-.176c-4.978-1.768-7.628-3.7-7.27-5.3.231-1.031,1.647-1.548,3.7-1.345a4.146,4.146,0,0,1,2.939,1.507,7.232,7.232,0,0,1,1.181,4.792Zm-4.7-6.029c-1.361-.039-2.154.315-2.246.734-.136.6,1.012,2.219,6.207,4.142a5.951,5.951,0,0,0-1.029-3.641,3.341,3.341,0,0,0-2.371-1.2C-315.208,199.272-315.4,199.259-315.573,199.254Z" transform="translate(507.158 -159.894)" fill="#ffb74d"/>
        <path id="Path_100854" data-name="Path 100854" d="M-301.323,202.724c-8.77-.462-28.152.193-32.778,10.039-.851,1.811.148,8.55,2.976,21.793,4.5,21.077,4.724,22.943,7.176,32.771,3.091,12.395,2.268,13.456,4.066,15.495,7.792,8.835,26.183,6.792,37.926,2.021,3.785-1.539,5.958-2.042,7.654-4,8.425-9.7-.384-66.335-11.892-74.814C-290.062,203.185-298.2,202.024-301.323,202.724Z" transform="translate(502.935 -158.791)" fill="#ffb74d"/>
        <path id="Path_100855" data-name="Path 100855" d="M-328.514,244.747q1.06,2.881,2,5.8c.629,1.947,1.205,3.911,1.778,5.876.539,1.974,1.066,3.953,1.515,5.952a37.331,37.331,0,0,1,.946,6.066,30.587,30.587,0,0,0-.547-3.013c-.217-1-.457-1.99-.712-2.978-.511-1.978-1.034-3.951-1.6-5.914Z" transform="translate(504.514 -147.454)" fill="#12263f"/>
        <path id="Path_100856" data-name="Path 100856" d="M-299.626,300.979c.17,8.277-4.5,23.286-6.581,29.561l.45,1.3c.134-.086.279-.174.429-.26,1.228,4.337,2.437,8.428,3.57,12.151C-296.3,328.962-299.626,300.979-299.626,300.979Z" transform="translate(510.504 -132.356)" fill="#4f0f14" opacity="0.17" style="mix-blend-mode: multiply;isolation: isolate"/>
        <path id="Path_100857" data-name="Path 100857" d="M-270.214,291.443s-10.473,44.984-46.38,89.3c-1.813,2.239-2.475,6.128-4.182,8.307-2.14,2.73-5.3,3.732-7.274,6.359-27.714,36.825-39.664,63.084-39.664,63.084l-9.85-6.935s14.594-55.493,37.872-77.98c0,0,18.109-78.862,37.72-100.726Z" transform="translate(491.344 -139.907)" fill="#ffc685"/>
        <path id="Path_100858" data-name="Path 100858" d="M-357.146,432.528c-5.606-2.6-4.863-17.252-4.907-18.633-.506,1.629-10.184-5.415-11.9-6.353a74.134,74.134,0,0,0-8.041,8.007,2.411,2.411,0,0,0-.108,2.966,8.582,8.582,0,0,0,3.75,3.283s4.6,11.414,8.325,15.4c3.342,3.577,11.968,3.467,14.773,3.493S-345.46,437.951-357.146,432.528Z" transform="translate(490.003 -103.743)" fill="#5038a1"/>
        <path id="Path_100859" data-name="Path 100859" d="M-304.93,275.711s17.552.251,26.5-13.066c0,0,11.387,25.46,14.085,68.634,0,0-31.4,6.023-38.949,10.851l-12.061-34.724Z" transform="translate(508.046 -142.649)" fill="#6c46c2"/>
        <path id="Path_100860" data-name="Path 100860" d="M-281.329,220.267s-5.921.019-9.3-1.81c-2.71-1.468-4.091-2.5-4.475-4.723a29.716,29.716,0,0,1,.87-14.985L-313.723,171.5s6.1,19.286,5.154,34.532c-.309,4.967-5.354,9.608-7.052,10.588-3.667,2.121-2.985,3.3-10.142,4.1,0,0,15.76,22.42,34.067,11.363.079-.044.155-.094.23-.146C-287.8,229.668-284.49,225.567-281.329,220.267Z" transform="translate(505.253 -167.121)" fill="#ffc685"/>
        <g id="Group_53923" data-name="Group 53923" transform="translate(200.136 34.365)">
          <path id="Path_100861" data-name="Path 100861" d="M-299.589,206.665c-.162-.976-.233-2.186-.364-3.159l-.221.131s-5.836-1.535-9.313-8.5C-309.487,195.139-309.4,205.536-299.589,206.665Z" transform="translate(309.487 -195.139)" fill="#e09153"/>
        </g>
        <path id="Path_100862" data-name="Path 100862" d="M-291.177,183.722c.067.42.143.958.225,1.575.408,3.1.934,8.2.977,10.34a20.628,20.628,0,0,1-5.269,14.576,2.362,2.362,0,0,1-2.16.693c-7.836-1.408-12.853-7.65-15.647-17.89-1.4-5.144-2.077-18.665,2.557-21.3C-304.012,168.02-292.755,173.876-291.177,183.722Z" transform="translate(508.386 -167.364)" fill="#ffc685"/>
        <path id="Path_100863" data-name="Path 100863" d="M-314.195,194.619c1.427,2.233,3.968,3.159,5.675,2.068s1.934-3.786.509-6.019-3.968-3.157-5.675-2.066S-315.622,192.386-314.195,194.619Z" transform="translate(508.107 -162.653)" fill="#ffc685"/>
        <path id="Path_100864" data-name="Path 100864" d="M-293.663,210.08s3.02-3.093,21.132,4.161c0,0,4.655,20.571.592,25.662l-16-.913Z" transform="translate(513.872 -156.939)" fill="#f9f9f9"/>
        <path id="Path_100865" data-name="Path 100865" d="M-226.234,205.018l-.013-.028s-32.665,22.669-37.171,24.359-22.247,1.83-22.247,1.83l1.709,9.35,9.87.563c1.2-1.5,1.636-4.367,1.659-7.648,5.973-1.006,10.1-2.018,10.1-2.018A214.5,214.5,0,0,0-226.234,205.018Z" transform="translate(516.019 -158.129)" fill="#cc41b6" opacity="0.3" style="mix-blend-mode: multiply;isolation: isolate"/>
        <g id="Group_53926" data-name="Group 53926" transform="translate(109.094 67.695)">
          <g id="Group_53925" data-name="Group 53925">
            <g id="Group_53924" data-name="Group 53924">
              <path id="Path_100866" data-name="Path 100866" d="M-305.24,222.906c-.213-4.038-16.006,1.208-20.316,2.976-16.228,6.658-32.485,27.851-34.865,28.884-5.309,2.3-17.437,39.5-20.836,44.231l7.48,5.352s.382-3.115,3.959-10.532c4.411-9.145,18.245-27.679,19.383-30.374C-350.436,263.442-304.669,233.757-305.24,222.906Z" transform="translate(381.258 -221.414)" fill="#ffc685"/>
            </g>
          </g>
        </g>
        <path id="Path_100867" data-name="Path 100867" d="M-316.6,208.843s-7.825-1.941-32.164,26.8c0,0,8.754,11.918,13.579,14.649,0,0,15.825-11.068,25.435-22.177C-300.005,216.851-316.6,208.843-316.6,208.843Z" transform="translate(499.076 -157.102)" fill="#f9f9f9"/>
        <path id="Path_100868" data-name="Path 100868" d="M-295.728,183.974s.342,4.673,3.173,6.589c2.122,1.435-1.248,3.433-2.375,3.259" transform="translate(513.317 -163.772)" fill="#ffc685"/>
        <path id="Path_100869" data-name="Path 100869" d="M-275.921,230.107c-.628-1.866-2.914-18.931-2.925-18.935a14.121,14.121,0,0,0-3.92-.855c-1.9-.277-5.259-.279-7.031-1.445-.752-.495,4.783,7.272-6.5,8.99-10.557.232-18.558-10.789-18.558-10.789-4.049,1.668-11.8,2.108-11.33,3.925a46.057,46.057,0,0,0-1.711,22.874s3.324,13.716,8.754,22.373c0,0,2.778,16.014,2.219,19.633l.011,13.747c13.951,7.508,29.075,8.474,39.527-5.793l4.1.731c-3.63-14.287-4.785-25.549-2.267-30.24C-271.927,247.581-273.173,238.264-275.921,230.107Z" transform="translate(504.484 -157.57)" fill="#f9f9f9"/>
        <path id="Path_100870" data-name="Path 100870" d="M-372.11,288.108s-1.659,8.3-4.073,11.509l-11.283-8.028,8.323-9.686Z" transform="translate(488.685 -137.478)" fill="#ffc685"/>
        <path id="Path_100871" data-name="Path 100871" d="M-375.471,296.616s-.854,1.984-2.073,1.937-2.122-1.194-2.509-1.258-2.052-.1-2.458-1.184-.454-.28-1.94-.831-.673-1.654-1.261-2.222-3.355-1.092-1.515-3.594Z" transform="translate(488.582 -135.448)" fill="#ffc685"/>
        <path id="Path_100872" data-name="Path 100872" d="M-290.274,170.886c-4.541-4.185-14.411-3.383-22.681.081-7.148,2.994-5.449,11.056-3.415,18.316,1.668,5.953,6.665,4.318,6.665,4.318s12.771-2.359,13.738-18.058c1.406.351,3.835,4.232,6.1,10.161C-289.87,185.7-285.736,175.07-290.274,170.886Z" transform="translate(507.3 -168.048)" fill="#12263f"/>
        <path id="Path_100873" data-name="Path 100873" d="M-302.423,174.086s2.746,7.976-1.275,11.961-1.492,7.851-1.492,7.851a5.616,5.616,0,0,1,1.385-5.328c2.332-2.694,6.157-10.215,4.733-13.718Z" transform="translate(510.566 -166.427)" fill="#12263f"/>
        <path id="Path_100874" data-name="Path 100874" transform="translate(507.451 -149.671)" fill="#5e433c"/>
        <path id="Path_100875" data-name="Path 100875" transform="translate(506.047 -150.835)" fill="#5e433c"/>
        <path id="Path_100876" data-name="Path 100876" d="M-282.032,264.768a1.661,1.661,0,0,1-.481-.067,1.667,1.667,0,0,1-1.137-2.065c10.99-37.837-15.533-54.824-15.8-54.99a1.667,1.667,0,0,1-.537-2.3,1.668,1.668,0,0,1,2.295-.537A44.468,44.468,0,0,1-284.579,219c5.248,8.753,10.224,23.589,4.132,44.565A1.67,1.67,0,0,1-282.032,264.768Z" transform="translate(512.106 -158.244)" fill="#ffb74d"/>
        <path id="Path_100877" data-name="Path 100877" d="M-342.575,335.819s30.9,29.531,90.22,1.154c0,0-9.461-37.975-18.773-73.97,0,0-16.711,10.156-42.047-1.69C-313.175,261.313-336.116,292.348-342.575,335.819Z" transform="translate(500.739 -143.006)" fill="#5038a1"/>
        <path id="Path_100878" data-name="Path 100878" d="M-375.763,407.542s-1.321,7.766,8.852,5.394Z" transform="translate(491.812 -103.743)" fill="#ffc685"/>
        <path id="Path_100879" data-name="Path 100879" d="M-369.538,414.394s-.5-3.911.416-5.907,5.159.166,6.49,2.08-3.245,5.325-3.245,5.325Z" transform="translate(493.462 -103.703)" fill="#5038a1"/>
        <path id="Path_100880" data-name="Path 100880" d="M-353.922,437.854c-2.8-.027-11.43.084-14.773-3.493-3.723-3.983-8.325-15.4-8.325-15.4a8.586,8.586,0,0,1-3.751-3.283,2.414,2.414,0,0,1,.108-2.966l.17-.2c-.549.6-1.062,1.172-1.5,1.693a2.411,2.411,0,0,0-.108,2.966,8.573,8.573,0,0,0,3.75,3.282s4.6,11.415,8.325,15.4c3.342,3.577,11.968,3.467,14.773,3.493,1.5.015,4.21-.775,4.595-2.347A7.138,7.138,0,0,1-353.922,437.854Z" transform="translate(490.003 -102.407)" fill="#36256b"/>
        <path id="Path_100881" data-name="Path 100881" d="M-459.445,441.413a3.955,3.955,0,0,1-1.445-5.4l57-98.621A3.951,3.951,0,0,1-400,335.445l-2.989-1.728a3.953,3.953,0,0,0-5.4,1.445l-57.2,98.961a3.954,3.954,0,0,0,1.445,5.4l26.3,15.2a3.931,3.931,0,0,0,2.315.511Z" transform="translate(467.566 -123.708)" fill="#5038a1" opacity="0.5" style="mix-blend-mode: multiply;isolation: isolate"/>
        <path id="Path_100882" data-name="Path 100882" d="M-297.568,173.981s5.334,1.74,6.812,9.218,4.1,12.43,4.527,12.434-3.5-2-5.12-9.483a18.737,18.737,0,0,0-6.934-11.05Z" transform="translate(512.632 -166.455)" fill="#12263f"/>
        <path id="Path_100883" data-name="Path 100883" d="M-284.241,252.64c-17.46-.094-21.684-23.749-21.684-23.749l-5.881,4.78c1.488,4.772,3.948,11.613,7.148,16.715,0,0,2.778,16.012,2.22,19.633,0,0-22.942,31.035-29.4,74.506a31.611,31.611,0,0,0,3.721,2.855c-6.251,20.67-10.232,38.006-10.232,38.006-17.89,17.282-30.641,54.033-35.59,70.133l-.013-.008a74.136,74.136,0,0,0-8.041,8.007,2.411,2.411,0,0,0-.108,2.966,8.573,8.573,0,0,0,3.75,3.282s4.6,11.415,8.325,15.4c1.806,1.933,5.155,2.786,8.295,3.167-2.655-1.88-4.681-4.541-7.74-10.126-3.089-5.641-3.577-8.88-2.991-12.19h0c.117-.658.275-1.319.464-2v-.005c.189-.683.409-1.388.648-2.135.06-.185.131-.411.209-.66l.053-.169q.1-.32.218-.7l.071-.224c.076-.246.159-.507.245-.785l.264-.845c3.08-9.88,10.914-34.874,16.775-45.618,6.759-12.391,18.585-24.594,18.585-24.594s16.709-26.659,15.395-34.544a8.148,8.148,0,0,1-.051-1.658l.008,0c.179-3.676,1.862-10.88,4.294-19.409v-.006q.356-1.248.733-2.533l.036-.121q.354-1.208.727-2.444l.085-.287q.352-1.163.714-2.345c.042-.132.081-.264.123-.4.226-.736.458-1.476.69-2.219.061-.193.121-.386.181-.578.216-.681.434-1.367.653-2.052q.118-.371.237-.742.3-.932.606-1.868c.1-.311.2-.622.3-.932.174-.529.35-1.058.525-1.588.133-.4.265-.8.4-1.2.122-.367.246-.732.369-1.1,3.443-10.222,7.1-20.06,9.974-26.579l.1-.218c.194-.438.384-.859.571-1.267.047-.1.094-.2.141-.3.164-.354.325-.7.481-1.025.09-.185.176-.359.263-.535.115-.236.233-.476.344-.7.2-.4.4-.774.589-1.114.4-.726.765-1.414,1.1-2.078.185-.36.346-.7.516-1.039.131-.266.268-.539.389-.8.217-.457.414-.892.6-1.319.043-.1.088-.2.129-.293,3.562-8.155,2.339-11.072,4.3-14.75,2.347-4.412,12.86-4.224,18.492-6.1S-266.782,252.734-284.241,252.64Z" transform="translate(490.003 -151.712)" fill="#cc41b6" opacity="0.3" style="mix-blend-mode: multiply;isolation: isolate"/>
        <path id="Path_100884" data-name="Path 100884" d="M-338.277,235.785s.5.682,1.318,1.74c-10.985,8.713-19.974,20.013-21.7,20.76-5.079,2.2-16.4,36.324-20.343,43.42l-.047-.042-8.323,9.686.053.037c-1.644,2.386,1.021,2.906,1.6,3.463s-.223,1.672,1.261,2.222,1.534-.247,1.94.831,2.073,1.119,2.458,1.183,1.29,1.21,2.509,1.258c1.041.041,1.811-1.394,2.014-1.815-14.484-10.992-2.38-15.306-2.38-15.306l20.557-41.4S-332.572,234.8-326.1,226.91s21.965-18.3,21.965-18.3l-.6-.3c-2.286.495-4.371.951-5.188,1.6C-314.367,211.883-323.118,217.881-338.277,235.785Z" transform="translate(488.584 -157.239)" fill="#cc41b6" opacity="0.3" style="mix-blend-mode: multiply;isolation: isolate"/>
        <path id="Path_100885" data-name="Path 100885" d="M-323.272,263.713l-2.1-2.585c17.061-13.893.389-56.026.218-56.45l3.292-.826C-321.133,205.676-304.315,248.276-323.272,263.713Z" transform="translate(505.356 -158.435)" fill="#ffb74d"/>
      </g>
      <g id="Group_53928" data-name="Group 53928" transform="translate(174.427)">
        <path id="Path_100886" data-name="Path 100886" d="M-326.2,194.119s17.46-.845,46.746-23.654c15.61-12.159-17.633,2.351-29.568,9.011C-321.136,186.236-336.906,194.26-326.2,194.119Z" transform="translate(329.755 -164.033)" fill="#ffb74d"/>
        <path id="Path_100887" data-name="Path 100887" d="M-322.511,189.887l33.418-17.552s-8.448-13.423-24.5-5.351C-329.193,174.83-322.511,189.887-322.511,189.887Z" transform="translate(331.317 -164.4)" fill="#ffb74d"/>
      </g>
      <g id="Group_53929" data-name="Group 53929" transform="translate(188.271 50.452)">
        <path id="Path_100888" data-name="Path 100888" d="M-313.6,204.173c-2.567.962-4.328,2.381-5,4.058.37-.119.728-.244,1.055-.379A17.124,17.124,0,0,0-313.6,204.173Z" transform="translate(318.905 -204.173)" fill="#5e433c"/>
        <path id="Path_100889" data-name="Path 100889" d="M-297.135,209.475c-.005-.052.013-.067.07-.029a5.572,5.572,0,0,0,1.428.627,16.284,16.284,0,0,0-4.246-4.185,16.458,16.458,0,0,0-1.674-.953C-301.128,207.023-299.76,208.052-297.135,209.475Z" transform="translate(323.481 -203.968)" fill="#5e433c"/>
        <path id="Path_100890" data-name="Path 100890" d="M-299.958,207.453c4.742,3.984,5.932,10.25,6.595,13.735l.047.252a28.885,28.885,0,0,1-.981,14.488l1.484.495a30.46,30.46,0,0,0,1.033-15.275l-.047-.251c-.545-2.871-1.44-7.517-4.239-11.477a5.573,5.573,0,0,1-1.428-.627c-.057-.038-.075-.023-.07.029a19.033,19.033,0,0,1-2.364-1.455" transform="translate(323.91 -203.315)" fill="#b59eff"/>
        <path id="Path_100891" data-name="Path 100891" d="M-317.479,207.319c-.327.136-.685.26-1.055.379-.014.036-.036.07-.048.105-1.024,2.763,1.058,5.967,5.21,12.358a57.385,57.385,0,0,0,3.788,5.181,33.751,33.751,0,0,1,3.02,4.227,37.3,37.3,0,0,1,4.512,12.006l1.534-.3a38.832,38.832,0,0,0-4.7-12.509,35.043,35.043,0,0,0-3.143-4.406,55.6,55.6,0,0,1-3.7-5.06c-3.741-5.758-5.8-8.928-5.051-10.954.044-.122,1.106-2.074,1.17-2.193" transform="translate(318.84 -203.641)" fill="#b59eff"/>
      </g>
      <g id="Group_53930" data-name="Group 53930" transform="translate(199.235 77.463)">
        <rect id="Rectangle_7671" data-name="Rectangle 7671" width="4.487" height="3.48" transform="translate(16.667 0.919) rotate(-11.823)" fill="#5038a1"/>
        <rect id="Rectangle_7672" data-name="Rectangle 7672" width="24.36" height="15.935" rx="0.897" transform="translate(0 6.301) rotate(-11.822)" fill="#5038a1"/>
        <circle id="Ellipse_4098" data-name="Ellipse 4098" cx="5.861" cy="5.861" r="5.861" transform="matrix(0.55, -0.835, 0.835, 0.55, 7.242, 12.141)" fill="#5038a1" style="mix-blend-mode: multiply;isolation: isolate"/>
        <path id="Path_100892" data-name="Path 100892" d="M-292.876,233.754a4.377,4.377,0,0,1-3.388,5.181,4.377,4.377,0,0,1-5.181-3.387,4.376,4.376,0,0,1,3.388-5.181A4.377,4.377,0,0,1-292.876,233.754Z" transform="translate(312.522 -224.176)" fill="#d8f0ef"/>
        <path id="Path_100893" data-name="Path 100893" d="M-304.253,244.4a1.455,1.455,0,0,1-1.72-1.125l-2.669-12.752a1.414,1.414,0,0,1,0-.351l-.186.039a1.454,1.454,0,0,0-1.125,1.72l2.669,12.752a1.455,1.455,0,0,0,1.72,1.125l21-4.4a1.432,1.432,0,0,0,1.128-1.369Z" transform="translate(310.254 -224.205)" fill="#5038a1" style="mix-blend-mode: multiply;isolation: isolate"/>
      </g>
      <path id="Path_100894" data-name="Path 100894" d="M-315.785,186.835c-.247-.865,17.3-9.323,24.159-13.187l-.25.076,1.307-.686c.457-.271.84-.511,1.115-.7,3.8-2.675-21.684,9.152-26.049,5.069-2.436-2.28-1.012-6.443.722-9.677-8.514,5.777-8.051,14.085-7.057,18.41-7.109,4.205-11.306,7.55-4.366,7.459,0,0,8.592-.426,23.814-8.535C-307.39,186.033-315.59,187.52-315.785,186.835Z" transform="translate(504.181 -163.507)" fill="#cc41b6" opacity="0.3" style="mix-blend-mode: multiply;isolation: isolate"/>
      <path id="Path_100895" data-name="Path 100895" d="M-336.532,370.091l-8.776,11.92s5.443-16.754,6.241-15.581S-338.033,369.716-336.532,370.091Z" transform="translate(500.005 -110.17)" fill="#cc41b6" opacity="0.3" style="mix-blend-mode: multiply;isolation: isolate"/>
      <path id="Path_100896" data-name="Path 100896" d="M-279.85,360.717l-.61,7.7s-4.13-11.546-3.1-10.8S-281.4,360.9-279.85,360.717Z" transform="translate(516.541 -112.529)" fill="#cc41b6" opacity="0.3" style="mix-blend-mode: multiply;isolation: isolate"/>
    </g>
  </g>
</svg>
