<svg xmlns="http://www.w3.org/2000/svg" width="80" height="80" viewBox="0 0 80 80">
  <g id="t1-ic1" transform="translate(-543 -2723)">
    <rect id="Rectangle_5543" data-name="Rectangle 5543" width="80" height="80" rx="10" transform="translate(543 2723)" fill="#5038a1"/>
    <g id="boleto" transform="translate(556 2745)">
      <path id="Path_100719" data-name="Path 100719" d="M49.629,0H5.371A5.377,5.377,0,0,0,0,5.371V31.152a5.377,5.377,0,0,0,5.371,5.371H49.629A5.377,5.377,0,0,0,55,31.152V5.371A5.377,5.377,0,0,0,49.629,0Zm3.223,31.152a3.226,3.226,0,0,1-3.223,3.223H28.574V32.012a1.074,1.074,0,1,0-2.148,0v2.363H5.371a3.226,3.226,0,0,1-3.223-3.223V5.371A3.226,3.226,0,0,1,5.371,2.148H26.426V4.512a1.074,1.074,0,0,0,2.148,0V2.148H49.629a3.226,3.226,0,0,1,3.223,3.223Zm0,0" fill="#fff"/>
      <path id="Path_100720" data-name="Path 100720" d="M294.164,280h-7.09a1.074,1.074,0,0,0,0,2.148h7.09a1.074,1.074,0,0,0,0-2.148Zm0,0" transform="translate(-255.277 -249.922)" fill="#fff"/>
      <path id="Path_100721" data-name="Path 100721" d="M399.52,280h-6.445a1.074,1.074,0,0,0,0,2.148h6.445a1.074,1.074,0,0,0,0-2.148Zm0,0" transform="translate(-349.891 -249.922)" fill="#fff"/>
      <path id="Path_100722" data-name="Path 100722" d="M453.074,240a1.074,1.074,0,1,0,1.074,1.074A1.076,1.076,0,0,0,453.074,240Zm0,0" transform="translate(-403.445 -214.219)" fill="#fff"/>
      <path id="Path_100723" data-name="Path 100723" d="M287.074,242.148h13.535a1.074,1.074,0,0,0,0-2.148H287.074a1.074,1.074,0,0,0,0,2.148Zm0,0" transform="translate(-255.277 -214.219)" fill="#fff"/>
      <path id="Path_100724" data-name="Path 100724" d="M247.074,216A1.074,1.074,0,0,0,246,217.074v3.438a1.074,1.074,0,0,0,2.148,0v-3.437A1.074,1.074,0,0,0,247.074,216Zm0,0" transform="translate(-219.574 -192.797)" fill="#fff"/>
      <path id="Path_100725" data-name="Path 100725" d="M247.074,144A1.074,1.074,0,0,0,246,145.074v3.438a1.074,1.074,0,0,0,2.148,0v-3.437A1.074,1.074,0,0,0,247.074,144Zm0,0" transform="translate(-219.574 -128.531)" fill="#fff"/>
      <path id="Path_100726" data-name="Path 100726" d="M247.074,72A1.074,1.074,0,0,0,246,73.074v3.438a1.074,1.074,0,0,0,2.148,0V73.074A1.074,1.074,0,0,0,247.074,72Zm0,0" transform="translate(-219.574 -64.266)" fill="#fff"/>
      <path id="Path_100727" data-name="Path 100727" d="M395.995,122.179a2.643,2.643,0,0,0-.816,2.148v3.179q0,2.828,3.059,2.828a3.451,3.451,0,0,0,2.245-.68,2.61,2.61,0,0,0,.835-2.148v-3.179a2.629,2.629,0,0,0-.824-2.148,3.441,3.441,0,0,0-2.254-.679A3.4,3.4,0,0,0,395.995,122.179Zm3.5,2.148v3.179q0,1.184-1.261,1.184-1.239,0-1.239-1.184v-3.179q0-1.183,1.239-1.184Q399.5,123.144,399.5,124.328Zm0,0" transform="translate(-352.728 -108.448)" fill="#fff"/>
      <path id="Path_100728" data-name="Path 100728" d="M304.773,62.1a3.4,3.4,0,0,0,2.245.679,3.437,3.437,0,0,0,2.253-.679,2.627,2.627,0,0,0,.824-2.148V56.777a2.628,2.628,0,0,0-.824-2.148,3.439,3.439,0,0,0-2.253-.679,3.4,3.4,0,0,0-2.245.679,2.64,2.64,0,0,0-.816,2.148v3.179A2.639,2.639,0,0,0,304.773,62.1Zm1-5.327q0-1.184,1.239-1.184,1.26,0,1.261,1.184v3.179q0,1.184-1.261,1.184-1.239,0-1.239-1.184Zm0,0" transform="translate(-271.306 -48.154)" fill="#fff"/>
      <path id="Path_100729" data-name="Path 100729" d="M333.043,62.6a.917.917,0,0,0,.3.668,1.01,1.01,0,0,0,.741.3.813.813,0,0,0,.846-.482l7.805-15.916a.905.905,0,0,0-.256-1.1,1.166,1.166,0,0,0-.763-.285.814.814,0,0,0-.78.46l-7.8,15.982a1.048,1.048,0,0,0-.086.373Zm0,0" transform="translate(-297.267 -40.867)" fill="#fff"/>
      <path id="Path_100730" data-name="Path 100730" d="M53.726,48.241c-.328-.175-.644-.343-.943-.512V43.8c0-1.711-1.285-4.3-3.223-4.3s-3.223,2.586-3.223,4.3v3.931c-.3.171-.626.341-.961.517-1.67.88-3.564,1.878-4.612,3.818A10.6,10.6,0,0,0,40,55.935a1.074,1.074,0,0,0,1.569.953l4.769-2.475v7.163L45.309,64.97a1.074,1.074,0,0,0,1.624,1.205l2.627-1.751,2.627,1.751a1.074,1.074,0,0,0,1.624-1.205l-1.028-3.393V54.414l4.769,2.475a1.074,1.074,0,0,0,1.569-.953,11.023,11.023,0,0,0-.683-3.716c-1.028-2.014-2.985-3.058-4.712-3.978ZM52.2,51.693a1.074,1.074,0,0,0-1.569.953v9.09a1.072,1.072,0,0,0,.046.311l.205.678-.73-.487a1.074,1.074,0,0,0-1.192,0l-.73.487.206-.678a1.072,1.072,0,0,0,.046-.311v-9.09a1.075,1.075,0,0,0-1.569-.953l-4.547,2.36a4.091,4.091,0,0,1,.287-.97c.737-1.364,2.255-2.164,3.723-2.938.537-.283,1.092-.576,1.6-.893a1.074,1.074,0,0,0,.506-.912V43.8a3.358,3.358,0,0,1,.445-1.45c.308-.546.581-.692.626-.7s.324.153.632.7a3.352,3.352,0,0,1,.445,1.45v4.544a1.074,1.074,0,0,0,.506.912c.5.311,1.046.6,1.574.884,1.518.809,3.088,1.647,3.809,3.059a3.851,3.851,0,0,1,.24.863Zm0,0" transform="translate(-35.703 -35.257)" fill="#fff"/>
    </g>
  </g>
</svg>
