<svg xmlns="http://www.w3.org/2000/svg" width="80" height="80" viewBox="0 0 80 80">
  <g id="t1-ic3" transform="translate(-548 -432)">
    <rect id="Rectangle_7678" data-name="Rectangle 7678" width="80" height="80" rx="10" transform="translate(548 432)" fill="#5038a1"/>
    <g id="guia" transform="translate(524.646 445)">
      <path id="Path_101661" data-name="Path 101661" d="M182.62,74.307h.7a3.786,3.786,0,0,0,2.6-6.538V60.364a13.926,13.926,0,0,0-2.668-8.23.808.808,0,1,0-1.308.949,12.321,12.321,0,0,1,2.359,7.281v6.5a3.779,3.779,0,0,0-.986-.131h-.689l.015-1.073s0-.008,0-.011V63.559a1.561,1.561,0,0,0-1.56-1.56H179.23a.808.808,0,0,0,0,1.616h1.8v2.026l-.021,8.417a11.839,11.839,0,0,1-20.127,8.455.808.808,0,0,0-1.131,1.154,13.5,13.5,0,0,0,3.156,2.306l-1.95,1.158a1.378,1.378,0,0,0-.623,1.564l-4.7,2.451a5.1,5.1,0,0,0-.54.328V78.558a.808.808,0,1,0-1.616,0V93.316a5.039,5.039,0,0,0-.552,2.3v4.8a.808.808,0,1,0,1.616,0v-4.8a3.414,3.414,0,0,1,1.84-3.036l4.96-2.588.309.325-.882,1.8a1.379,1.379,0,0,0,.279,1.6l7.5,7.276a.808.808,0,0,0,.563.228h.108a.808.808,0,0,0,.563-.228l7.5-7.276a1.379,1.379,0,0,0,.279-1.6l-.882-1.8.309-.325,4.96,2.588a3.414,3.414,0,0,1,1.84,3.036v4.8a.808.808,0,1,0,1.616,0v-4.8a5.025,5.025,0,0,0-2.709-4.469L178,88.695a1.378,1.378,0,0,0-.623-1.564l-1.957-1.163a13.471,13.471,0,0,0,7.2-11.661Zm.023-5.961h.675a2.173,2.173,0,1,1,0,4.345h-.675ZM171.907,87.233v1.085a2.74,2.74,0,0,1-5.479,0V87.234a13.544,13.544,0,0,0,5.479,0Zm-1.641,5.3-1.1,4.617-1.1-4.617a4.363,4.363,0,0,0,2.2,0Zm-6.915-2.014a.808.808,0,0,0-.141-.912l-1.127-1.184v0l-.049-.051,2.562-1.522a.808.808,0,0,0,.119-.087l.1.033v1.524a4.342,4.342,0,0,0,1.339,3.137l1.534,6.446L162.3,92.674Zm10.388-3.671L176.3,88.37l-.049.051h0l-1.128,1.184a.808.808,0,0,0-.141.912l1.054,2.156L170.649,97.9l1.534-6.446a4.342,4.342,0,0,0,1.339-3.137V86.789l.093-.033A.808.808,0,0,0,173.739,86.848Z" transform="translate(-100.447 -46.22)" fill="#fff"/>
      <path id="Path_101661_-_Outline" data-name="Path 101661 - Outline" d="M182.6,51.55a1.062,1.062,0,0,1,.857.437,14.175,14.175,0,0,1,2.715,8.377v7.3a4,4,0,0,1,1.187,2.855,4.043,4.043,0,0,1-4.038,4.038h-.455a13.721,13.721,0,0,1-6.937,11.42l1.581.939a1.627,1.627,0,0,1,.78,1.645l4.527,2.363a5.274,5.274,0,0,1,2.843,4.69v4.8a1.058,1.058,0,1,1-2.116,0v-4.8a3.165,3.165,0,0,0-1.706-2.814l-4.793-2.5-.059.062.805,1.647a1.628,1.628,0,0,1-.33,1.888l-7.5,7.276a1.053,1.053,0,0,1-.737.3h-.108a1.053,1.053,0,0,1-.737-.3l-7.5-7.276a1.628,1.628,0,0,1-.33-1.888l.805-1.647-.059-.062L156.5,92.8a3.165,3.165,0,0,0-1.706,2.814v4.8a1.058,1.058,0,1,1-2.116,0v-4.8a5.322,5.322,0,0,1,.552-2.357v-14.7a1.058,1.058,0,1,1,2.116,0V91.019q.087-.05.175-.1l4.527-2.363a1.627,1.627,0,0,1,.78-1.645l1.573-.934a13.777,13.777,0,0,1-2.827-2.136,1.058,1.058,0,0,1,1.481-1.511,11.589,11.589,0,0,0,19.7-8.277l.021-8.417V63.865H179.23a1.058,1.058,0,0,1,0-2.116h1.855a1.812,1.812,0,0,1,1.81,1.81v2.105l-.011.816h.435a4.028,4.028,0,0,1,.736.068V60.364a12.073,12.073,0,0,0-2.312-7.134,1.058,1.058,0,0,1,.856-1.679Zm.72,22.507a3.542,3.542,0,0,0,3.538-3.538,3.505,3.505,0,0,0-1.109-2.568l-.078-.074V60.364a13.678,13.678,0,0,0-2.62-8.083.56.56,0,0,0-.452-.23.558.558,0,0,0-.451.885,12.57,12.57,0,0,1,2.407,7.428v6.824l-.315-.085a3.536,3.536,0,0,0-.921-.122h-.942l.019-1.334V63.559a1.311,1.311,0,0,0-1.31-1.31H179.23a.558.558,0,0,0,0,1.116h2.048v2.276l-.021,8.417A12.089,12.089,0,0,1,160.7,82.691a.558.558,0,0,0-.781.8,13.252,13.252,0,0,0,3.1,2.264l.395.208-2.333,1.386a1.128,1.128,0,0,0-.51,1.281l.055.2-4.876,2.545a4.815,4.815,0,0,0-.514.312l-.392.271V78.558a.558.558,0,1,0-1.116,0V93.376l-.027.054a4.818,4.818,0,0,0-.525,2.184v4.8a.558.558,0,1,0,1.116,0v-4.8a3.663,3.663,0,0,1,1.975-3.258l5.127-2.675.559.587L161,92.227a1.129,1.129,0,0,0,.229,1.309l7.5,7.276a.555.555,0,0,0,.388.157h.108a.555.555,0,0,0,.388-.158l7.5-7.276a1.129,1.129,0,0,0,.229-1.309l-.958-1.96.559-.587,5.127,2.675a3.663,3.663,0,0,1,1.975,3.258v4.8a.558.558,0,1,0,1.116,0v-4.8a4.776,4.776,0,0,0-2.574-4.247l-4.876-2.545.055-.2a1.128,1.128,0,0,0-.51-1.281l-2.341-1.391.395-.208A13.222,13.222,0,0,0,182.37,74.3l0-.245Zm-.925-5.961h.925a2.423,2.423,0,1,1,0,4.845h-.925Zm.925,4.345a1.923,1.923,0,1,0,0-3.845h-.425v3.845Zm-9.647,14.031.11.1a.562.562,0,0,0,.086.063l2.832,1.682L175.3,89.779a.56.56,0,0,0-.1.63l1.133,2.319-6.134,5.95,1.75-7.352.053-.051a4.07,4.07,0,0,0,1.262-2.957V86.611l.169-.058.056-.02Zm2.233,1.953-2.132-1.266v1.16a4.564,4.564,0,0,1-1.363,3.266l-1.319,5.54,4.642-4.5-.974-1.993a1.062,1.062,0,0,1,.184-1.194Zm-11.245-1.948.137.048.055.019.21.072v1.7a4.07,4.07,0,0,0,1.262,2.957l.053.051,1.75,7.352-6.134-5.95,1.134-2.319a.56.56,0,0,0-.1-.63l-1.394-1.464,2.832-1.682a.557.557,0,0,0,.082-.06Zm1.265,5.107a4.564,4.564,0,0,1-1.363-3.266v-1.16l-2.132,1.266.961,1.009a1.062,1.062,0,0,1,.184,1.194l-.974,1.993,4.642,4.5Zm6.232-4.658v1.393a2.99,2.99,0,0,1-5.979,0V86.927l.3.062a13.359,13.359,0,0,0,5.378,0Zm-2.99,3.882a2.492,2.492,0,0,0,2.49-2.489v-.782a13.859,13.859,0,0,1-4.979,0v.781A2.492,2.492,0,0,0,169.167,90.808Zm-1.439,1.378.4.105a4.132,4.132,0,0,0,2.072,0l.4-.1-1.2,5.022h-.486Zm1.439,3.884.764-3.21a4.632,4.632,0,0,1-1.528,0Z" transform="translate(-100.447 -46.22)" fill="#fff"/>
      <path id="Path_101662" data-name="Path 101662" d="M55.269,28.087a13.451,13.451,0,0,0,1.789,6.465.808.808,0,1,0,1.4-.807,11.836,11.836,0,0,1-1.577-5.907V16.277a11.838,11.838,0,0,1,1.468-5.715l6.168,4.229a14.838,14.838,0,0,0,4,1.937.808.808,0,0,0,1.047-.772v-.627l2.654,1.764a1.791,1.791,0,0,0,.994.3H75.34a.808.808,0,0,0,0-1.616H73.213a.181.181,0,0,1-.1-.03L69.574,13.4a1.046,1.046,0,0,0-1.625.871v.545a13.222,13.222,0,0,1-2.52-1.353l-6.4-4.388a1.358,1.358,0,0,0-.347-.17l-1.2-2.845A7.271,7.271,0,0,1,64.1,1.73h7.341a12.439,12.439,0,0,1,7.824,2.777.808.808,0,1,0,1.019-1.254A14.06,14.06,0,0,0,71.443.114H64.1a8.839,8.839,0,0,0-8.04,5.169,4.6,4.6,0,0,0-1.413.4V.956a.956.956,0,0,0-1.413-.84l-12.2,6.621A1.309,1.309,0,0,0,40.974,9l7.962,4.925a.808.808,0,0,0,.85-1.374L42.274,7.9l10.759-5.84V6.939a4.623,4.623,0,0,0-1.065,2.955V21.568a3.786,3.786,0,0,0,2.622,6.519ZM53.584,9.895a3.032,3.032,0,0,1,2.51-2.983l1.054,2.506c-.019.027-.038.055-.055.083a13.449,13.449,0,0,0-1.828,6.776V20.51h-.675a3.775,3.775,0,0,0-1.006.137V9.895ZM52.417,24.3a2.175,2.175,0,0,1,2.173-2.173h.675v4.345h-.675A2.175,2.175,0,0,1,52.417,24.3Z" transform="translate(0 0)" fill="#fff"/>
      <path id="Path_101662_-_Outline" data-name="Path 101662 - Outline" d="M57.758,35.207a1.061,1.061,0,0,1-.917-.529,13.716,13.716,0,0,1-1.815-6.34h-.436A4.043,4.043,0,0,1,50.551,24.3a4,4,0,0,1,1.167-2.836V9.895a4.9,4.9,0,0,1,1.065-3.044V2.484L42.772,7.918l7.145,4.42a1.058,1.058,0,1,1-1.113,1.8L40.843,9.213a1.559,1.559,0,0,1,.076-2.7L53.117-.1A1.206,1.206,0,0,1,54.9.956V5.311a4.844,4.844,0,0,1,.994-.257A9.089,9.089,0,0,1,64.1-.136h7.341a14.31,14.31,0,0,1,9,3.195A1.058,1.058,0,0,1,79.11,4.7,12.189,12.189,0,0,0,71.443,1.98H64.1a6.978,6.978,0,0,0-6.342,4.08L58.871,8.7a1.585,1.585,0,0,1,.3.161l6.4,4.388A13.01,13.01,0,0,0,67.7,14.436v-.168a1.3,1.3,0,0,1,2.013-1.079l3.522,2.341H75.34a1.058,1.058,0,0,1,0,2.116H73.213a2.04,2.04,0,0,1-1.133-.342L69.815,15.8v.16a1.062,1.062,0,0,1-.43.852,1.058,1.058,0,0,1-.941.159A15.088,15.088,0,0,1,64.374,15l-5.938-4.072a11.613,11.613,0,0,0-1.306,5.351v11.56a11.586,11.586,0,0,0,1.543,5.782,1.058,1.058,0,0,1-.916,1.587ZM53.283,1.644V7.029l-.057.069a4.4,4.4,0,0,0-1.008,2.8v11.78l-.077.074a3.536,3.536,0,0,0,2.448,6.089h.925l0,.245a13.218,13.218,0,0,0,1.755,6.345.557.557,0,0,0,.762.2.558.558,0,0,0,.2-.762,12.086,12.086,0,0,1-1.61-6.032V16.277a12.108,12.108,0,0,1,1.5-5.836l.133-.241,6.395,4.385a14.588,14.588,0,0,0,3.935,1.9.558.558,0,0,0,.723-.533V14.864l3.042,2.022a1.541,1.541,0,0,0,.856.259H75.34a.558.558,0,0,0,0-1.116H73.213a.43.43,0,0,1-.238-.072L69.436,13.6a.8.8,0,0,0-1.237.663v.916l-.344-.139a13.5,13.5,0,0,1-2.567-1.379l-6.4-4.388a1.109,1.109,0,0,0-.284-.138L58.5,9.1,57.215,6.055l.043-.1A7.521,7.521,0,0,1,64.1,1.48h7.341a12.69,12.69,0,0,1,7.982,2.833.558.558,0,1,0,.7-.866A13.809,13.809,0,0,0,71.443.364H64.1a8.589,8.589,0,0,0-7.813,5.023l-.058.128-.14.017a4.351,4.351,0,0,0-1.337.382L54.4,6.08V.956a.709.709,0,0,0-.345-.607.722.722,0,0,0-.7-.014l-12.2,6.621a1.059,1.059,0,0,0-.052,1.831l7.962,4.925a.558.558,0,1,0,.587-.949L41.776,7.89Zm2.232,25.078h-.925a2.423,2.423,0,1,1,0-4.845h.925Zm-.925-4.345a1.923,1.923,0,1,0,0,3.845h.425V22.376Zm-1.256-1.4V9.645h.009a3.27,3.27,0,0,1,2.708-2.979l.2-.034,1.184,2.815-.082.119c-.015.022-.03.043-.04.062a13.2,13.2,0,0,0-1.794,6.65V20.76h-.925a3.531,3.531,0,0,0-.939.128Zm.5-10.831V20.332a4.022,4.022,0,0,1,.756-.072h.425V16.277a13.7,13.7,0,0,1,1.852-6.884L55.943,7.2a2.771,2.771,0,0,0-2.11,2.7Z" transform="translate(0 0)" fill="#fff"/>
    </g>
  </g>
</svg>
