<svg xmlns="http://www.w3.org/2000/svg" width="820" height="320" viewBox="0 0 820 320">
  <g id="t1-info2" transform="translate(-1006.071 307.128)">
    <rect id="Rectángulo_7768" data-name="Rectángulo 7768" width="820" height="320" transform="translate(1006.071 -307.128)" fill="none"/>
    <rect id="Rectangle_7873" data-name="Rectangle 7873" width="166.714" height="28.674" rx="4.286" transform="translate(1019.429 -291.152)" fill="#ffeaab"/>
    <path id="Rectangle_7873_-_Outline" data-name="Rectangle 7873 - Outline" d="M4.286-.75H162.429a5.041,5.041,0,0,1,5.036,5.036v20.1a5.041,5.041,0,0,1-5.036,5.036H4.286A5.041,5.041,0,0,1-.75,24.388V4.286A5.041,5.041,0,0,1,4.286-.75ZM162.429,27.924a3.54,3.54,0,0,0,3.536-3.536V4.286A3.54,3.54,0,0,0,162.429.75H4.286A3.54,3.54,0,0,0,.75,4.286v20.1a3.54,3.54,0,0,0,3.536,3.536Z" transform="translate(1019.429 -291.152)" fill="#ffb74d"/>
    <circle id="Ellipse_4117" data-name="Ellipse 4117" cx="96.429" cy="96.429" r="96.429" transform="translate(1319.643 -243.557)" fill="#ffeaab"/>
    <path id="Ellipse_4117_-_Outline" data-name="Ellipse 4117 - Outline" d="M96.429-1.5A98.645,98.645,0,0,1,116.163.49a97.4,97.4,0,0,1,35.019,14.736A98.21,98.21,0,0,1,186.661,58.31a97.447,97.447,0,0,1,5.707,18.384,98.869,98.869,0,0,1,0,39.469,97.4,97.4,0,0,1-14.736,35.019,98.21,98.21,0,0,1-43.084,35.478,97.447,97.447,0,0,1-18.384,5.707,98.869,98.869,0,0,1-39.469,0,97.4,97.4,0,0,1-35.019-14.736A98.21,98.21,0,0,1,6.2,134.547,97.447,97.447,0,0,1,.49,116.163a98.869,98.869,0,0,1,0-39.469A97.4,97.4,0,0,1,15.226,41.675,98.21,98.21,0,0,1,58.31,6.2,97.447,97.447,0,0,1,76.694.49,98.645,98.645,0,0,1,96.429-1.5Zm0,192.857A94.929,94.929,0,1,0,1.5,96.429,95.036,95.036,0,0,0,96.429,191.357Z" transform="translate(1319.643 -243.557)" fill="#ffb74d"/>
    <g id="Group_56398" data-name="Group 56398">
      <path id="Path_102115" data-name="Path 102115" d="M1041.592-274.913a1.353,1.353,0,0,0-.528-1.147,6.931,6.931,0,0,0-1.9-.843,13.463,13.463,0,0,1-2.171-.875,3.548,3.548,0,0,1-2.18-3.173,3.1,3.1,0,0,1,.584-1.85,3.82,3.82,0,0,1,1.679-1.27,6.336,6.336,0,0,1,2.457-.457,5.756,5.756,0,0,1,2.444.5,3.894,3.894,0,0,1,1.665,1.4,3.671,3.671,0,0,1,.593,2.056H1041.6a1.724,1.724,0,0,0-.554-1.366,2.273,2.273,0,0,0-1.556-.488,2.437,2.437,0,0,0-1.5.408,1.292,1.292,0,0,0-.536,1.077,1.234,1.234,0,0,0,.628,1.046,7.106,7.106,0,0,0,1.851.791,7.993,7.993,0,0,1,3.278,1.679,3.341,3.341,0,0,1,1.028,2.5,3.08,3.08,0,0,1-1.257,2.606,5.5,5.5,0,0,1-3.383.945,6.542,6.542,0,0,1-2.69-.541,4.251,4.251,0,0,1-1.85-1.481,3.79,3.79,0,0,1-.637-2.18h2.645q0,2.119,2.532,2.119a2.457,2.457,0,0,0,1.467-.383A1.244,1.244,0,0,0,1041.592-274.913Z" fill="#12263f"/>
      <path id="Path_102116" data-name="Path 102116" d="M1045.837-283.526a1.249,1.249,0,0,1,.382-.94,1.437,1.437,0,0,1,1.042-.369,1.441,1.441,0,0,1,1.037.369,1.242,1.242,0,0,1,.387.94,1.246,1.246,0,0,1-.392.949,1.443,1.443,0,0,1-1.032.369,1.442,1.442,0,0,1-1.033-.369A1.245,1.245,0,0,1,1045.837-283.526Zm2.7,11.971h-2.549v-9.51h2.549Z" fill="#12263f"/>
      <path id="Path_102117" data-name="Path 102117" d="M1055.777-274.183a.818.818,0,0,0-.462-.734,5.222,5.222,0,0,0-1.48-.479q-3.393-.713-3.393-2.883a2.614,2.614,0,0,1,1.05-2.114,4.24,4.24,0,0,1,2.747-.848,4.557,4.557,0,0,1,2.9.853,2.688,2.688,0,0,1,1.086,2.215h-2.54a1.23,1.23,0,0,0-.352-.9,1.484,1.484,0,0,0-1.1-.356,1.524,1.524,0,0,0-.993.29.915.915,0,0,0-.351.738.783.783,0,0,0,.4.681,4.116,4.116,0,0,0,1.35.449,11.018,11.018,0,0,1,1.6.426,2.628,2.628,0,0,1,2.013,2.557,2.48,2.48,0,0,1-1.116,2.105,4.809,4.809,0,0,1-2.883.8,5.018,5.018,0,0,1-2.123-.427,3.548,3.548,0,0,1-1.454-1.169,2.71,2.71,0,0,1-.527-1.6h2.408a1.321,1.321,0,0,0,.5,1.037,1.981,1.981,0,0,0,1.248.361,1.833,1.833,0,0,0,1.1-.277A.862.862,0,0,0,1055.777-274.183Z" fill="#12263f"/>
      <path id="Path_102118" data-name="Path 102118" d="M1062.923-283.4v2.338h1.626v1.863h-1.626v4.746a1.131,1.131,0,0,0,.2.756,1.013,1.013,0,0,0,.773.229,4.057,4.057,0,0,0,.748-.062v1.925a5.248,5.248,0,0,1-1.539.229,2.425,2.425,0,0,1-2.724-2.7V-279.2h-1.389v-1.863h1.389V-283.4Z" fill="#12263f"/>
      <path id="Path_102119" data-name="Path 102119" d="M1070.341-271.379a4.667,4.667,0,0,1-3.406-1.284,4.56,4.56,0,0,1-1.314-3.419v-.246a5.747,5.747,0,0,1,.554-2.562,4.057,4.057,0,0,1,1.568-1.74,4.408,4.408,0,0,1,2.317-.611,3.944,3.944,0,0,1,3.071,1.231,5,5,0,0,1,1.121,3.489v1.037H1068.2a2.359,2.359,0,0,0,.742,1.494,2.25,2.25,0,0,0,1.57.563,2.743,2.743,0,0,0,2.294-1.064l1.248,1.4a3.82,3.82,0,0,1-1.547,1.261A5.07,5.07,0,0,1,1070.341-271.379Zm-.29-7.814a1.591,1.591,0,0,0-1.227.512,2.658,2.658,0,0,0-.6,1.466h3.533v-.2a1.892,1.892,0,0,0-.457-1.311A1.634,1.634,0,0,0,1070.051-279.193Z" fill="#12263f"/>
      <path id="Path_102120" data-name="Path 102120" d="M1078.075-281.065l.079,1.064a3.341,3.341,0,0,1,2.734-1.24,2.537,2.537,0,0,1,2.522,1.45,3.267,3.267,0,0,1,2.857-1.45,2.837,2.837,0,0,1,2.3.9,4.143,4.143,0,0,1,.756,2.712v6.073h-2.549v-6.079a1.814,1.814,0,0,0-.316-1.184,1.4,1.4,0,0,0-1.116-.375,1.585,1.585,0,0,0-1.582,1.092l.009,6.546h-2.541v-6.07a1.8,1.8,0,0,0-.325-1.2,1.416,1.416,0,0,0-1.107-.37,1.645,1.645,0,0,0-1.565.9v6.739h-2.54v-9.51Z" fill="#12263f"/>
      <path id="Path_102121" data-name="Path 102121" d="M1096.787-271.555a2.841,2.841,0,0,1-.255-.853,3.072,3.072,0,0,1-2.4,1.029,3.38,3.38,0,0,1-2.317-.809,2.6,2.6,0,0,1-.918-2.039,2.685,2.685,0,0,1,1.121-2.32,5.531,5.531,0,0,1,3.239-.818h1.169v-.545a1.568,1.568,0,0,0-.339-1.054,1.329,1.329,0,0,0-1.067-.4,1.515,1.515,0,0,0-1.007.308,1.045,1.045,0,0,0-.365.844h-2.54a2.553,2.553,0,0,1,.51-1.53,3.368,3.368,0,0,1,1.442-1.1,5.261,5.261,0,0,1,2.091-.4,4.147,4.147,0,0,1,2.79.884,3.087,3.087,0,0,1,1.034,2.482v4.123a4.517,4.517,0,0,0,.378,2.047v.15Zm-2.1-1.767a2.189,2.189,0,0,0,1.037-.25,1.648,1.648,0,0,0,.7-.673v-1.634h-.949q-1.908,0-2.031,1.318l-.009.149a1.02,1.02,0,0,0,.334.783A1.3,1.3,0,0,0,1094.687-273.322Z" fill="#12263f"/>
      <path id="Path_102122" data-name="Path 102122" d="M1108.45-283.4v2.338h1.626v1.863h-1.626v4.746a1.136,1.136,0,0,0,.2.756,1.014,1.014,0,0,0,.774.229,4.052,4.052,0,0,0,.747-.062v1.925a5.241,5.241,0,0,1-1.538.229,2.426,2.426,0,0,1-2.725-2.7V-279.2h-1.389v-1.863h1.389V-283.4Z" fill="#12263f"/>
      <path id="Path_102123" data-name="Path 102123" d="M1117.187-272.522a3.186,3.186,0,0,1-2.6,1.143,3,3,0,0,1-2.334-.879,3.75,3.75,0,0,1-.821-2.575v-6.232h2.54v6.151q0,1.486,1.353,1.487a1.836,1.836,0,0,0,1.776-.9v-6.74h2.548v9.51h-2.39Z" fill="#12263f"/>
      <path id="Path_102124" data-name="Path 102124" d="M1126.907-278.683a6.861,6.861,0,0,0-.914-.07,1.859,1.859,0,0,0-1.889.975v6.223h-2.541v-9.51h2.4l.07,1.134a2.355,2.355,0,0,1,2.118-1.31,2.631,2.631,0,0,1,.791.115Z" fill="#12263f"/>
      <path id="Path_102125" data-name="Path 102125" d="M1130.871-271.555h-2.54v-9.51h2.54Zm-.747-13.368h2.769l-2.435,2.724h-2.065Z" fill="#12263f"/>
      <path id="Path_102126" data-name="Path 102126" d="M1138.21-274.183a.818.818,0,0,0-.462-.734,5.248,5.248,0,0,0-1.48-.479q-3.393-.713-3.393-2.883a2.614,2.614,0,0,1,1.05-2.114,4.239,4.239,0,0,1,2.747-.848,4.552,4.552,0,0,1,2.9.853,2.685,2.685,0,0,1,1.086,2.215h-2.54a1.229,1.229,0,0,0-.351-.9,1.487,1.487,0,0,0-1.1-.356,1.52,1.52,0,0,0-.993.29.916.916,0,0,0-.352.738.782.782,0,0,0,.4.681,4.109,4.109,0,0,0,1.349.449,11.069,11.069,0,0,1,1.6.426,2.628,2.628,0,0,1,2.013,2.557,2.478,2.478,0,0,1-1.117,2.105,4.808,4.808,0,0,1-2.882.8,5.018,5.018,0,0,1-2.123-.427,3.541,3.541,0,0,1-1.454-1.169,2.711,2.711,0,0,1-.528-1.6h2.408a1.328,1.328,0,0,0,.5,1.037,1.984,1.984,0,0,0,1.248.361,1.835,1.835,0,0,0,1.1-.277A.862.862,0,0,0,1138.21-274.183Z" fill="#12263f"/>
      <path id="Path_102127" data-name="Path 102127" d="M1145.355-283.4v2.338h1.626v1.863h-1.626v4.746a1.131,1.131,0,0,0,.2.756,1.01,1.01,0,0,0,.773.229,4.053,4.053,0,0,0,.747-.062v1.925a5.242,5.242,0,0,1-1.538.229,2.426,2.426,0,0,1-2.725-2.7V-279.2h-1.388v-1.863h1.388V-283.4Z" fill="#12263f"/>
      <path id="Path_102128" data-name="Path 102128" d="M1148.379-283.526a1.249,1.249,0,0,1,.382-.94,1.437,1.437,0,0,1,1.042-.369,1.441,1.441,0,0,1,1.037.369,1.242,1.242,0,0,1,.387.94,1.246,1.246,0,0,1-.392.949,1.443,1.443,0,0,1-1.032.369,1.442,1.442,0,0,1-1.033-.369A1.245,1.245,0,0,1,1148.379-283.526Zm2.7,11.971h-2.549v-9.51h2.549Z" fill="#12263f"/>
      <path id="Path_102129" data-name="Path 102129" d="M1157.124-273.427a1.666,1.666,0,0,0,1.143-.387,1.356,1.356,0,0,0,.457-1.028h2.381a3.25,3.25,0,0,1-.527,1.771,3.481,3.481,0,0,1-1.42,1.248,4.435,4.435,0,0,1-1.99.444,4.13,4.13,0,0,1-3.217-1.3,5.13,5.13,0,0,1-1.178-3.581v-.167a5.073,5.073,0,0,1,1.169-3.507,4.083,4.083,0,0,1,3.208-1.31,4,4,0,0,1,2.861,1.015,3.592,3.592,0,0,1,1.094,2.7h-2.381a1.745,1.745,0,0,0-.457-1.206,1.526,1.526,0,0,0-1.161-.464,1.53,1.53,0,0,0-1.34.647,3.746,3.746,0,0,0-.453,2.1v.264a3.793,3.793,0,0,0,.449,2.113A1.548,1.548,0,0,0,1157.124-273.427Z" fill="#12263f"/>
      <path id="Path_102130" data-name="Path 102130" d="M1162.16-276.4a5.643,5.643,0,0,1,.545-2.522,3.984,3.984,0,0,1,1.568-1.714,4.575,4.575,0,0,1,2.378-.607,4.33,4.33,0,0,1,3.142,1.178,4.726,4.726,0,0,1,1.358,3.2l.018.651a4.968,4.968,0,0,1-1.222,3.511,4.245,4.245,0,0,1-3.278,1.323,4.268,4.268,0,0,1-3.283-1.319,5.055,5.055,0,0,1-1.226-3.586Zm2.54.18a3.553,3.553,0,0,0,.51,2.073,1.683,1.683,0,0,0,1.459.718,1.685,1.685,0,0,0,1.441-.709,3.885,3.885,0,0,0,.519-2.266,3.515,3.515,0,0,0-.519-2.06,1.685,1.685,0,0,0-1.459-.731,1.658,1.658,0,0,0-1.441.726A3.956,3.956,0,0,0,1164.7-276.218Z" fill="#12263f"/>
    </g>
    <g id="Group_56400" data-name="Group 56400">
      <g id="Group_56399" data-name="Group 56399">
        <path id="Path_102131" data-name="Path 102131" d="M1358.3-172.4h-2.637v-12.8h2.637Z" fill="#12263f"/>
        <path id="Path_102132" data-name="Path 102132" d="M1362.915-181.908l.079,1.1a3.322,3.322,0,0,1,2.734-1.274,2.761,2.761,0,0,1,2.25.888,4.138,4.138,0,0,1,.755,2.654v6.144h-2.54v-6.1a1.652,1.652,0,0,0-.351-1.175,1.571,1.571,0,0,0-1.169-.366,1.749,1.749,0,0,0-1.609.916v6.722h-2.54v-9.51Z" fill="#12263f"/>
        <path id="Path_102133" data-name="Path 102133" d="M1373.7-184.246v2.338h1.626v1.863H1373.7v4.746a1.136,1.136,0,0,0,.2.756,1.018,1.018,0,0,0,.774.229,4.051,4.051,0,0,0,.747-.062v1.925a5.241,5.241,0,0,1-1.538.228,2.425,2.425,0,0,1-2.725-2.7v-5.124h-1.388v-1.863h1.388v-2.338Z" fill="#12263f"/>
        <path id="Path_102134" data-name="Path 102134" d="M1381.117-172.223a4.665,4.665,0,0,1-3.4-1.283,4.561,4.561,0,0,1-1.315-3.419v-.246a5.747,5.747,0,0,1,.554-2.562,4.061,4.061,0,0,1,1.57-1.74,4.4,4.4,0,0,1,2.315-.611,3.947,3.947,0,0,1,3.072,1.23,5,5,0,0,1,1.12,3.49v1.037h-6.055a2.36,2.36,0,0,0,.743,1.494,2.242,2.242,0,0,0,1.568.562,2.741,2.741,0,0,0,2.294-1.063l1.248,1.4a3.807,3.807,0,0,1-1.547,1.262A5.085,5.085,0,0,1,1381.117-172.223Zm-.29-7.813a1.585,1.585,0,0,0-1.225.512,2.648,2.648,0,0,0-.6,1.465h3.533v-.2a1.887,1.887,0,0,0-.457-1.311A1.637,1.637,0,0,0,1380.827-180.036Z" fill="#12263f"/>
        <path id="Path_102135" data-name="Path 102135" d="M1391.813-179.526a6.878,6.878,0,0,0-.914-.071,1.86,1.86,0,0,0-1.889.976v6.223h-2.54v-9.51h2.4l.07,1.134a2.355,2.355,0,0,1,2.119-1.31,2.668,2.668,0,0,1,.791.114Z" fill="#12263f"/>
        <path id="Path_102136" data-name="Path 102136" d="M1395.417-181.908l.079,1.063a3.343,3.343,0,0,1,2.733-1.239,2.536,2.536,0,0,1,2.523,1.45,3.264,3.264,0,0,1,2.856-1.45,2.835,2.835,0,0,1,2.3.9,4.138,4.138,0,0,1,.756,2.711v6.074h-2.549v-6.079a1.82,1.82,0,0,0-.316-1.185,1.4,1.4,0,0,0-1.116-.374,1.584,1.584,0,0,0-1.582,1.092l.008,6.546h-2.54v-6.07a1.8,1.8,0,0,0-.325-1.2,1.412,1.412,0,0,0-1.107-.37,1.645,1.645,0,0,0-1.565.9v6.74h-2.54v-9.51Z" fill="#12263f"/>
        <path id="Path_102137" data-name="Path 102137" d="M1412.995-172.223a4.665,4.665,0,0,1-3.405-1.283,4.561,4.561,0,0,1-1.315-3.419v-.246a5.747,5.747,0,0,1,.554-2.562,4.066,4.066,0,0,1,1.569-1.74,4.407,4.407,0,0,1,2.316-.611,3.948,3.948,0,0,1,3.072,1.23,5,5,0,0,1,1.12,3.49v1.037h-6.055a2.36,2.36,0,0,0,.743,1.494,2.242,2.242,0,0,0,1.568.562,2.741,2.741,0,0,0,2.294-1.063l1.248,1.4a3.806,3.806,0,0,1-1.547,1.262A5.084,5.084,0,0,1,1412.995-172.223Zm-.29-7.813a1.589,1.589,0,0,0-1.226.512,2.655,2.655,0,0,0-.6,1.465h3.533v-.2a1.893,1.893,0,0,0-.457-1.311A1.637,1.637,0,0,0,1412.7-180.036Z" fill="#12263f"/>
        <path id="Path_102138" data-name="Path 102138" d="M1417.952-177.224a5.733,5.733,0,0,1,1-3.542,3.235,3.235,0,0,1,2.729-1.318,2.916,2.916,0,0,1,2.294,1.037V-185.9h2.548v13.5h-2.293l-.124-1.011a2.987,2.987,0,0,1-2.443,1.186,3.228,3.228,0,0,1-2.693-1.322A5.915,5.915,0,0,1,1417.952-177.224Zm2.54.181a3.767,3.767,0,0,0,.466,2.057,1.517,1.517,0,0,0,1.354.715,1.7,1.7,0,0,0,1.661-1v-3.771a1.676,1.676,0,0,0-1.644-1Q1420.492-180.036,1420.492-177.043Z" fill="#12263f"/>
        <path id="Path_102139" data-name="Path 102139" d="M1428.473-184.369a1.256,1.256,0,0,1,.382-.941,1.436,1.436,0,0,1,1.041-.369,1.442,1.442,0,0,1,1.038.369,1.248,1.248,0,0,1,.386.941,1.248,1.248,0,0,1-.39.949,1.447,1.447,0,0,1-1.034.369,1.443,1.443,0,0,1-1.032-.369A1.249,1.249,0,0,1,1428.473-184.369Zm2.7,11.971h-2.549v-9.51h2.549Z" fill="#12263f"/>
        <path id="Path_102140" data-name="Path 102140" d="M1438.773-172.4a2.814,2.814,0,0,1-.254-.853,3.073,3.073,0,0,1-2.4,1.028,3.375,3.375,0,0,1-2.315-.808,2.6,2.6,0,0,1-.919-2.039,2.689,2.689,0,0,1,1.121-2.321,5.529,5.529,0,0,1,3.238-.817h1.169v-.545a1.567,1.567,0,0,0-.338-1.055,1.333,1.333,0,0,0-1.068-.4,1.512,1.512,0,0,0-1.006.307,1.048,1.048,0,0,0-.365.844h-2.54a2.556,2.556,0,0,1,.509-1.529,3.374,3.374,0,0,1,1.442-1.1,5.245,5.245,0,0,1,2.092-.4,4.152,4.152,0,0,1,2.791.883,3.092,3.092,0,0,1,1.032,2.483v4.122a4.549,4.549,0,0,0,.378,2.048v.15Zm-2.1-1.767a2.186,2.186,0,0,0,1.037-.251,1.646,1.646,0,0,0,.7-.672v-1.635h-.949q-1.908,0-2.03,1.319l-.009.149a1.014,1.014,0,0,0,.334.782A1.3,1.3,0,0,0,1436.673-174.165Z" fill="#12263f"/>
        <path id="Path_102141" data-name="Path 102141" d="M1448.257-179.526a6.9,6.9,0,0,0-.914-.071,1.862,1.862,0,0,0-1.89.976v6.223h-2.54v-9.51h2.4l.07,1.134a2.354,2.354,0,0,1,2.118-1.31,2.668,2.668,0,0,1,.791.114Z" fill="#12263f"/>
        <path id="Path_102142" data-name="Path 102142" d="M1449.461-184.369a1.253,1.253,0,0,1,.383-.941,1.435,1.435,0,0,1,1.041-.369,1.441,1.441,0,0,1,1.037.369,1.245,1.245,0,0,1,.387.941,1.245,1.245,0,0,1-.391.949,1.444,1.444,0,0,1-1.033.369,1.44,1.44,0,0,1-1.032-.369A1.246,1.246,0,0,1,1449.461-184.369Zm2.7,11.971h-2.549v-9.51h2.549Z" fill="#12263f"/>
        <path id="Path_102143" data-name="Path 102143" d="M1453.855-177.241a5.646,5.646,0,0,1,.545-2.523,4,4,0,0,1,1.57-1.714,4.575,4.575,0,0,1,2.377-.606,4.331,4.331,0,0,1,3.142,1.178,4.724,4.724,0,0,1,1.358,3.2l.017.65a4.974,4.974,0,0,1-1.221,3.512,4.251,4.251,0,0,1-3.279,1.322,4.265,4.265,0,0,1-3.282-1.318,5.06,5.06,0,0,1-1.227-3.586Zm2.541.18a3.552,3.552,0,0,0,.509,2.073,1.682,1.682,0,0,0,1.459.717,1.688,1.688,0,0,0,1.442-.708,3.9,3.9,0,0,0,.518-2.267,3.528,3.528,0,0,0-.518-2.06,1.688,1.688,0,0,0-1.459-.73,1.659,1.659,0,0,0-1.442.726A3.954,3.954,0,0,0,1456.4-177.061Z" fill="#12263f"/>
        <path id="Path_102144" data-name="Path 102144" d="M1469.579-175.026a.816.816,0,0,0-.461-.734,5.213,5.213,0,0,0-1.481-.479q-3.393-.713-3.393-2.883a2.615,2.615,0,0,1,1.051-2.114,4.237,4.237,0,0,1,2.746-.848,4.56,4.56,0,0,1,2.9.853,2.685,2.685,0,0,1,1.084,2.214h-2.54a1.228,1.228,0,0,0-.351-.9,1.487,1.487,0,0,0-1.1-.356,1.515,1.515,0,0,0-.993.29.915.915,0,0,0-.351.738.782.782,0,0,0,.4.681,4.1,4.1,0,0,0,1.349.448,10.909,10.909,0,0,1,1.6.427,2.627,2.627,0,0,1,2.013,2.557,2.481,2.481,0,0,1-1.116,2.105,4.818,4.818,0,0,1-2.883.8,5.029,5.029,0,0,1-2.122-.426,3.56,3.56,0,0,1-1.455-1.169,2.714,2.714,0,0,1-.528-1.6h2.409a1.325,1.325,0,0,0,.5,1.037,1.992,1.992,0,0,0,1.249.361,1.844,1.844,0,0,0,1.1-.277A.863.863,0,0,0,1469.579-175.026Z" fill="#12263f"/>
        <path id="Path_102145" data-name="Path 102145" d="M1473.807-180.845a1.277,1.277,0,0,1,.409-.984,1.447,1.447,0,0,1,1.023-.378,1.462,1.462,0,0,1,1.033.378,1.277,1.277,0,0,1,.409.984,1.259,1.259,0,0,1-.405.971,1.467,1.467,0,0,1-1.037.374,1.455,1.455,0,0,1-1.028-.374A1.258,1.258,0,0,1,1473.807-180.845Zm0,7.2a1.278,1.278,0,0,1,.409-.985,1.447,1.447,0,0,1,1.023-.378,1.462,1.462,0,0,1,1.033.378,1.277,1.277,0,0,1,.409.985,1.26,1.26,0,0,1-.405.971,1.467,1.467,0,0,1-1.037.373,1.454,1.454,0,0,1-1.028-.373A1.26,1.26,0,0,1,1473.807-173.646Z" fill="#12263f"/>
      </g>
    </g>
    <g id="Group_56402" data-name="Group 56402">
      <g id="Group_56401" data-name="Group 56401">
        <path id="Path_102146" data-name="Path 102146" d="M1661.956-283.6a7.73,7.73,0,0,1-.668,3.314,5.024,5.024,0,0,1-1.911,2.2,5.286,5.286,0,0,1-2.853.774,5.32,5.32,0,0,1-2.838-.765,5.084,5.084,0,0,1-1.934-2.184,7.494,7.494,0,0,1-.694-3.265v-.633a7.687,7.687,0,0,1,.681-3.327,5.074,5.074,0,0,1,1.925-2.206,5.289,5.289,0,0,1,2.843-.769,5.3,5.3,0,0,1,2.844.769,5.071,5.071,0,0,1,1.924,2.206,7.665,7.665,0,0,1,.681,3.318Zm-2.672-.58a5.38,5.38,0,0,0-.721-3.058,2.346,2.346,0,0,0-2.056-1.046,2.348,2.348,0,0,0-2.048,1.033,5.324,5.324,0,0,0-.73,3.027v.624a5.454,5.454,0,0,0,.721,3.041,2.343,2.343,0,0,0,2.074,1.081,2.321,2.321,0,0,0,2.039-1.041,5.42,5.42,0,0,0,.721-3.037Z" fill="#12263f"/>
        <path id="Path_102147" data-name="Path 102147" d="M1664.4-277.491v-7.647h-1.415V-287h1.415v-.809a3.282,3.282,0,0,1,.919-2.482,3.558,3.558,0,0,1,2.571-.884,5.948,5.948,0,0,1,1.292.175l-.027,1.952a3.222,3.222,0,0,0-.773-.079q-1.432,0-1.433,1.356V-287h1.89v1.863h-1.89v7.647Z" fill="#12263f"/>
        <path id="Path_102148" data-name="Path 102148" d="M1674.322-277.315a4.666,4.666,0,0,1-3.405-1.284,4.56,4.56,0,0,1-1.314-3.419v-.246a5.747,5.747,0,0,1,.553-2.562,4.061,4.061,0,0,1,1.57-1.74,4.4,4.4,0,0,1,2.315-.611,3.945,3.945,0,0,1,3.072,1.231,5,5,0,0,1,1.12,3.489v1.037h-6.055a2.36,2.36,0,0,0,.743,1.494,2.243,2.243,0,0,0,1.568.563,2.742,2.742,0,0,0,2.294-1.064l1.248,1.4a3.812,3.812,0,0,1-1.547,1.261A5.07,5.07,0,0,1,1674.322-277.315Zm-.29-7.814a1.585,1.585,0,0,0-1.225.512,2.652,2.652,0,0,0-.6,1.466h3.533v-.2a1.893,1.893,0,0,0-.457-1.312A1.637,1.637,0,0,0,1674.032-285.129Z" fill="#12263f"/>
        <path id="Path_102149" data-name="Path 102149" d="M1685.019-284.619a6.888,6.888,0,0,0-.915-.07,1.861,1.861,0,0,0-1.889.975v6.223h-2.54V-287h2.4l.071,1.134a2.352,2.352,0,0,1,2.118-1.31,2.636,2.636,0,0,1,.791.115Z" fill="#12263f"/>
        <path id="Path_102150" data-name="Path 102150" d="M1689.721-289.339V-287h1.626v1.863h-1.626v4.746a1.131,1.131,0,0,0,.2.756,1.012,1.012,0,0,0,.773.229,4.037,4.037,0,0,0,.747-.062v1.925a5.237,5.237,0,0,1-1.538.229,2.425,2.425,0,0,1-2.724-2.7v-5.124h-1.389V-287h1.389v-2.338Z" fill="#12263f"/>
        <path id="Path_102151" data-name="Path 102151" d="M1698.272-277.491a2.814,2.814,0,0,1-.254-.853,3.074,3.074,0,0,1-2.4,1.029,3.375,3.375,0,0,1-2.315-.809,2.6,2.6,0,0,1-.919-2.039,2.687,2.687,0,0,1,1.121-2.32,5.528,5.528,0,0,1,3.238-.818h1.169v-.545a1.562,1.562,0,0,0-.338-1.054,1.33,1.33,0,0,0-1.068-.4,1.512,1.512,0,0,0-1.006.308,1.045,1.045,0,0,0-.365.843h-2.54a2.558,2.558,0,0,1,.509-1.529,3.374,3.374,0,0,1,1.442-1.1,5.262,5.262,0,0,1,2.092-.4,4.152,4.152,0,0,1,2.791.884,3.089,3.089,0,0,1,1.032,2.482v4.123a4.547,4.547,0,0,0,.378,2.047v.15Zm-2.1-1.767a2.186,2.186,0,0,0,1.037-.25,1.642,1.642,0,0,0,.7-.673v-1.634h-.949q-1.908,0-2.03,1.318l-.009.149a1.018,1.018,0,0,0,.334.783A1.3,1.3,0,0,0,1696.172-279.258Z" fill="#12263f"/>
      </g>
    </g>
    <g id="Group_56404" data-name="Group 56404">
      <g id="Group_56403" data-name="Group 56403">
        <path id="Path_102152" data-name="Path 102152" d="M1650.429-7.414v-12.8h3.937a5.982,5.982,0,0,1,3.02.76,5.3,5.3,0,0,1,2.078,2.162,6.665,6.665,0,0,1,.747,3.186v.589a6.693,6.693,0,0,1-.733,3.173,5.266,5.266,0,0,1-2.071,2.153,6.01,6.01,0,0,1-3.014.773Zm2.636-10.661v8.543h1.275a2.865,2.865,0,0,0,2.364-1.01,4.57,4.57,0,0,0,.835-2.892v-.677a4.632,4.632,0,0,0-.809-2.957,2.853,2.853,0,0,0-2.364-1.007Z" fill="#12263f"/>
        <path id="Path_102153" data-name="Path 102153" d="M1666.337-7.238a4.668,4.668,0,0,1-3.405-1.283,4.561,4.561,0,0,1-1.315-3.419v-.246a5.747,5.747,0,0,1,.554-2.562,4.059,4.059,0,0,1,1.569-1.74,4.4,4.4,0,0,1,2.316-.611,3.949,3.949,0,0,1,3.072,1.23,5,5,0,0,1,1.12,3.49v1.037h-6.056a2.356,2.356,0,0,0,.744,1.494,2.242,2.242,0,0,0,1.568.562,2.742,2.742,0,0,0,2.294-1.063l1.248,1.4A3.821,3.821,0,0,1,1668.5-7.69,5.084,5.084,0,0,1,1666.337-7.238Zm-.29-7.813a1.589,1.589,0,0,0-1.226.512,2.655,2.655,0,0,0-.6,1.465h3.533v-.2a1.892,1.892,0,0,0-.457-1.311A1.637,1.637,0,0,0,1666.047-15.051Z" fill="#12263f"/>
        <path id="Path_102154" data-name="Path 102154" d="M1674.071-16.923l.079,1.063a3.343,3.343,0,0,1,2.734-1.239,2.536,2.536,0,0,1,2.522,1.45,3.265,3.265,0,0,1,2.857-1.45,2.833,2.833,0,0,1,2.3.9,4.138,4.138,0,0,1,.756,2.711v6.073h-2.549v-6.078a1.82,1.82,0,0,0-.316-1.185,1.4,1.4,0,0,0-1.116-.374,1.585,1.585,0,0,0-1.582,1.092l.009,6.545h-2.54v-6.069a1.793,1.793,0,0,0-.326-1.2,1.411,1.411,0,0,0-1.107-.37,1.646,1.646,0,0,0-1.565.9v6.739h-2.54v-9.509Z" fill="#12263f"/>
        <path id="Path_102155" data-name="Path 102155" d="M1692.783-7.414a2.828,2.828,0,0,1-.255-.852,3.074,3.074,0,0,1-2.4,1.028,3.377,3.377,0,0,1-2.316-.808,2.6,2.6,0,0,1-.918-2.039,2.689,2.689,0,0,1,1.121-2.321,5.529,5.529,0,0,1,3.238-.817h1.169v-.545a1.565,1.565,0,0,0-.338-1.055,1.334,1.334,0,0,0-1.068-.4,1.512,1.512,0,0,0-1.006.307,1.047,1.047,0,0,0-.365.844H1687.1a2.55,2.55,0,0,1,.51-1.529,3.366,3.366,0,0,1,1.442-1.1,5.243,5.243,0,0,1,2.091-.4,4.15,4.15,0,0,1,2.791.883,3.089,3.089,0,0,1,1.033,2.483v4.122a4.549,4.549,0,0,0,.378,2.048v.149Zm-2.1-1.766a2.189,2.189,0,0,0,1.037-.251,1.646,1.646,0,0,0,.7-.672v-1.635h-.949q-1.908,0-2.031,1.319l-.008.149a1.016,1.016,0,0,0,.334.782A1.3,1.3,0,0,0,1690.683-9.18Z" fill="#12263f"/>
        <path id="Path_102156" data-name="Path 102156" d="M1699.261-16.923l.079,1.1a3.322,3.322,0,0,1,2.733-1.274,2.758,2.758,0,0,1,2.25.888,4.142,4.142,0,0,1,.756,2.654v6.143h-2.54v-6.1a1.657,1.657,0,0,0-.351-1.176,1.577,1.577,0,0,0-1.169-.365,1.747,1.747,0,0,0-1.609.916v6.721h-2.54v-9.509Z" fill="#12263f"/>
        <path id="Path_102157" data-name="Path 102157" d="M1706.608-12.239a5.733,5.733,0,0,1,1-3.542,3.237,3.237,0,0,1,2.729-1.318,2.914,2.914,0,0,1,2.294,1.037v-4.852h2.549v13.5h-2.294l-.123-1.01a2.99,2.99,0,0,1-2.444,1.186,3.227,3.227,0,0,1-2.693-1.323A5.91,5.91,0,0,1,1706.608-12.239Zm2.54.181a3.78,3.78,0,0,0,.466,2.057,1.517,1.517,0,0,0,1.354.715,1.7,1.7,0,0,0,1.661-1v-3.771a1.674,1.674,0,0,0-1.644-1Q1709.149-15.051,1709.148-12.058Z" fill="#12263f"/>
        <path id="Path_102158" data-name="Path 102158" d="M1722.657-7.414a2.825,2.825,0,0,1-.255-.852,3.074,3.074,0,0,1-2.4,1.028,3.373,3.373,0,0,1-2.315-.808,2.6,2.6,0,0,1-.919-2.039,2.689,2.689,0,0,1,1.121-2.321,5.528,5.528,0,0,1,3.238-.817h1.169v-.545a1.565,1.565,0,0,0-.338-1.055,1.334,1.334,0,0,0-1.068-.4,1.512,1.512,0,0,0-1.006.307,1.047,1.047,0,0,0-.365.844h-2.541a2.55,2.55,0,0,1,.51-1.529,3.366,3.366,0,0,1,1.442-1.1,5.243,5.243,0,0,1,2.091-.4,4.15,4.15,0,0,1,2.791.883,3.09,3.09,0,0,1,1.033,2.483v4.122a4.55,4.55,0,0,0,.378,2.048v.149Zm-2.1-1.766a2.189,2.189,0,0,0,1.037-.251,1.646,1.646,0,0,0,.7-.672v-1.635h-.949q-1.908,0-2.031,1.319l-.008.149a1.016,1.016,0,0,0,.334.782A1.3,1.3,0,0,0,1720.557-9.18Z" fill="#12263f"/>
      </g>
    </g>
    <g id="Group_56405" data-name="Group 56405">
      <path id="Path_102159" data-name="Path 102159" d="M1359.25-142.022h-4.766l-1.07,2.977h-1.547l4.344-11.375h1.312l4.352,11.375h-1.539Zm-4.312-1.227h3.867l-1.938-5.32Z" fill="#12263f"/>
      <path id="Path_102160" data-name="Path 102160" d="M1362.836-143.342a4.972,4.972,0,0,1,.914-3.145,2.924,2.924,0,0,1,2.422-1.168,2.909,2.909,0,0,1,2.414,1.094l.07-.938h1.321v8.25a3.44,3.44,0,0,1-.973,2.586,3.592,3.592,0,0,1-2.613.946,4.351,4.351,0,0,1-1.789-.391,3.073,3.073,0,0,1-1.336-1.07l.75-.867a2.825,2.825,0,0,0,2.273,1.148,2.216,2.216,0,0,0,1.645-.594,2.274,2.274,0,0,0,.589-1.672v-.726a2.969,2.969,0,0,1-2.367,1,2.887,2.887,0,0,1-2.4-1.195A5.224,5.224,0,0,1,1362.836-143.342Zm1.453.164a3.787,3.787,0,0,0,.586,2.246,1.905,1.905,0,0,0,1.641.816,2.116,2.116,0,0,0,2.007-1.242v-3.859a2.143,2.143,0,0,0-1.992-1.211,1.919,1.919,0,0,0-1.648.82A4.12,4.12,0,0,0,1364.289-143.178Z" fill="#12263f"/>
      <path id="Path_102161" data-name="Path 102161" d="M1375.664-138.889a3.693,3.693,0,0,1-2.8-1.129,4.19,4.19,0,0,1-1.078-3.02v-.265a5.061,5.061,0,0,1,.481-2.246,3.737,3.737,0,0,1,1.343-1.547,3.382,3.382,0,0,1,1.871-.559,3.169,3.169,0,0,1,2.563,1.086,4.706,4.706,0,0,1,.914,3.11v.6h-5.727a3,3,0,0,0,.731,2.02,2.294,2.294,0,0,0,1.777.769,2.521,2.521,0,0,0,1.3-.312,3.273,3.273,0,0,0,.93-.828l.883.687A3.551,3.551,0,0,1,1375.664-138.889Zm-.18-7.578a1.925,1.925,0,0,0-1.468.636,3.092,3.092,0,0,0-.735,1.786h4.235v-.11a2.763,2.763,0,0,0-.594-1.707A1.819,1.819,0,0,0,1375.484-146.467Z" fill="#12263f"/>
      <path id="Path_102162" data-name="Path 102162" d="M1382-147.5l.047,1.063a3.077,3.077,0,0,1,2.531-1.219q2.679,0,2.7,3.024v5.586h-1.445v-5.594a1.953,1.953,0,0,0-.418-1.352,1.676,1.676,0,0,0-1.277-.437,2.087,2.087,0,0,0-1.235.375,2.541,2.541,0,0,0-.828.984v6.024h-1.445V-147.5Z" fill="#12263f"/>
      <path id="Path_102163" data-name="Path 102163" d="M1392.852-140.069a2.08,2.08,0,0,0,1.351-.469,1.651,1.651,0,0,0,.641-1.171h1.367a2.621,2.621,0,0,1-.5,1.382,3.293,3.293,0,0,1-1.231,1.047,3.555,3.555,0,0,1-1.628.391,3.481,3.481,0,0,1-2.747-1.153,4.591,4.591,0,0,1-1.019-3.152v-.242a5.072,5.072,0,0,1,.453-2.195,3.451,3.451,0,0,1,1.3-1.493,3.692,3.692,0,0,1,2-.531,3.391,3.391,0,0,1,2.363.852,3.047,3.047,0,0,1,1,2.211h-1.367a2,2,0,0,0-.621-1.348,1.931,1.931,0,0,0-1.379-.527,2.02,2.02,0,0,0-1.707.793,3.714,3.714,0,0,0-.606,2.293v.273a3.643,3.643,0,0,0,.6,2.25A2.03,2.03,0,0,0,1392.852-140.069Z" fill="#12263f"/>
      <path id="Path_102164" data-name="Path 102164" d="M1397.844-149.741a.858.858,0,0,1,.215-.593.8.8,0,0,1,.636-.243.819.819,0,0,1,.641.243.856.856,0,0,1,.219.593.828.828,0,0,1-.219.586.837.837,0,0,1-.641.235.819.819,0,0,1-.636-.235A.83.83,0,0,1,1397.844-149.741Zm1.562,10.7h-1.445V-147.5h1.445Z" fill="#12263f"/>
      <path id="Path_102165" data-name="Path 102165" d="M1406.938-139.045a3.013,3.013,0,0,1-.2-.891,3.223,3.223,0,0,1-2.406,1.047,2.985,2.985,0,0,1-2.051-.707,2.286,2.286,0,0,1-.8-1.793,2.39,2.39,0,0,1,1-2.051,4.734,4.734,0,0,1,2.825-.73h1.406v-.664a1.627,1.627,0,0,0-.453-1.208,1.826,1.826,0,0,0-1.336-.449,2.11,2.11,0,0,0-1.3.391,1.149,1.149,0,0,0-.523.945h-1.454a1.99,1.99,0,0,1,.45-1.222,3.045,3.045,0,0,1,1.218-.934,4.1,4.1,0,0,1,1.692-.344,3.345,3.345,0,0,1,2.289.731,2.634,2.634,0,0,1,.859,2.011v3.891a4.756,4.756,0,0,0,.3,1.852v.125Zm-2.4-1.1a2.534,2.534,0,0,0,1.289-.352,2.131,2.131,0,0,0,.883-.914v-1.734h-1.133q-2.656,0-2.656,1.555a1.312,1.312,0,0,0,.453,1.062A1.735,1.735,0,0,0,1404.539-140.147Z" fill="#12263f"/>
      <path id="Path_102166" data-name="Path 102166" d="M1415.344-141.288a1.067,1.067,0,0,0-.442-.91,4.251,4.251,0,0,0-1.539-.558,7.3,7.3,0,0,1-1.742-.563,2.474,2.474,0,0,1-.953-.781,1.866,1.866,0,0,1-.309-1.078,2.192,2.192,0,0,1,.879-1.758,3.432,3.432,0,0,1,2.246-.719,3.536,3.536,0,0,1,2.332.742,2.361,2.361,0,0,1,.9,1.9h-1.453a1.306,1.306,0,0,0-.5-1.024,1.892,1.892,0,0,0-1.27-.429,1.976,1.976,0,0,0-1.234.343,1.083,1.083,0,0,0-.445.9.874.874,0,0,0,.414.789,5.064,5.064,0,0,0,1.5.508,7.778,7.778,0,0,1,1.754.578,2.58,2.58,0,0,1,1,.808,1.993,1.993,0,0,1,.324,1.153,2.165,2.165,0,0,1-.906,1.816,3.8,3.8,0,0,1-2.352.684,4.252,4.252,0,0,1-1.8-.36,2.917,2.917,0,0,1-1.222-1,2.418,2.418,0,0,1-.442-1.4h1.446a1.489,1.489,0,0,0,.582,1.152,2.249,2.249,0,0,0,1.433.426,2.328,2.328,0,0,0,1.317-.332A1.02,1.02,0,0,0,1415.344-141.288Z" fill="#12263f"/>
      <path id="Path_102167" data-name="Path 102167" d="M1424.8-150.42l3.719,9.281,3.718-9.281h1.946v11.375h-1.5v-4.43l.14-4.781-3.734,9.211h-1.148l-3.727-9.188.148,4.758v4.43h-1.5V-150.42Z" fill="#12263f"/>
      <path id="Path_102168" data-name="Path 102168" d="M1441.82-139.045a3.02,3.02,0,0,1-.2-.891,3.225,3.225,0,0,1-2.406,1.047,2.983,2.983,0,0,1-2.051-.707,2.287,2.287,0,0,1-.8-1.793,2.389,2.389,0,0,1,1-2.051,4.734,4.734,0,0,1,2.825-.73h1.406v-.664a1.631,1.631,0,0,0-.453-1.208,1.825,1.825,0,0,0-1.336-.449,2.108,2.108,0,0,0-1.3.391,1.15,1.15,0,0,0-.524.945h-1.453a2,2,0,0,1,.449-1.222,3.057,3.057,0,0,1,1.219-.934,4.1,4.1,0,0,1,1.692-.344,3.345,3.345,0,0,1,2.289.731,2.638,2.638,0,0,1,.859,2.011v3.891a4.754,4.754,0,0,0,.3,1.852v.125Zm-2.4-1.1a2.534,2.534,0,0,0,1.289-.352,2.131,2.131,0,0,0,.883-.914v-1.734h-1.133q-2.658,0-2.656,1.555a1.311,1.311,0,0,0,.453,1.062A1.735,1.735,0,0,0,1439.422-140.147Z" fill="#12263f"/>
      <path id="Path_102169" data-name="Path 102169" d="M1447.953-141.163l1.969-6.336h1.547l-3.4,9.758q-.789,2.11-2.507,2.11l-.274-.024-.539-.1v-1.172l.391.031a1.921,1.921,0,0,0,1.144-.3,2.153,2.153,0,0,0,.676-1.086l.32-.859-3.015-8.36h1.578Z" fill="#12263f"/>
      <path id="Path_102170" data-name="Path 102170" d="M1452.258-143.35a4.985,4.985,0,0,1,.488-2.234,3.64,3.64,0,0,1,1.359-1.532,3.706,3.706,0,0,1,1.989-.539,3.566,3.566,0,0,1,2.793,1.2,4.6,4.6,0,0,1,1.066,3.179v.1a5.039,5.039,0,0,1-.473,2.215,3.586,3.586,0,0,1-1.351,1.527,3.742,3.742,0,0,1-2.02.547,3.558,3.558,0,0,1-2.785-1.195,4.577,4.577,0,0,1-1.066-3.165Zm1.453.172a3.617,3.617,0,0,0,.652,2.258,2.089,2.089,0,0,0,1.746.851,2.073,2.073,0,0,0,1.75-.863,3.954,3.954,0,0,0,.649-2.418,3.619,3.619,0,0,0-.66-2.254,2.1,2.1,0,0,0-1.754-.863,2.078,2.078,0,0,0-1.727.851A3.932,3.932,0,0,0,1453.711-143.178Z" fill="#12263f"/>
      <path id="Path_102171" data-name="Path 102171" d="M1465.852-146.2a4.389,4.389,0,0,0-.711-.054,1.9,1.9,0,0,0-1.93,1.211v6h-1.445V-147.5h1.406l.023.977a2.252,2.252,0,0,1,2.016-1.133,1.481,1.481,0,0,1,.641.11Z" fill="#12263f"/>
      <path id="Path_102172" data-name="Path 102172" d="M1467.188-149.741a.861.861,0,0,1,.214-.593.806.806,0,0,1,.637-.243.821.821,0,0,1,.641.243.855.855,0,0,1,.218.593.828.828,0,0,1-.218.586.839.839,0,0,1-.641.235.823.823,0,0,1-.637-.235A.834.834,0,0,1,1467.188-149.741Zm1.562,10.7h-1.445V-147.5h1.445Z" fill="#12263f"/>
      <path id="Path_102173" data-name="Path 102173" d="M1475.984-141.288a1.066,1.066,0,0,0-.441-.91,4.258,4.258,0,0,0-1.539-.558,7.267,7.267,0,0,1-1.742-.563,2.474,2.474,0,0,1-.953-.781,1.866,1.866,0,0,1-.309-1.078,2.192,2.192,0,0,1,.879-1.758,3.432,3.432,0,0,1,2.246-.719,3.538,3.538,0,0,1,2.332.742,2.361,2.361,0,0,1,.9,1.9H1475.9a1.308,1.308,0,0,0-.5-1.024,1.892,1.892,0,0,0-1.27-.429,1.976,1.976,0,0,0-1.234.343,1.084,1.084,0,0,0-.446.9.877.877,0,0,0,.414.789,5.085,5.085,0,0,0,1.5.508,7.778,7.778,0,0,1,1.754.578,2.565,2.565,0,0,1,1,.808,1.994,1.994,0,0,1,.325,1.153,2.163,2.163,0,0,1-.907,1.816,3.8,3.8,0,0,1-2.351.684,4.249,4.249,0,0,1-1.8-.36,2.92,2.92,0,0,1-1.223-1,2.417,2.417,0,0,1-.441-1.4h1.445a1.5,1.5,0,0,0,.582,1.152,2.252,2.252,0,0,0,1.434.426,2.325,2.325,0,0,0,1.316-.332A1.02,1.02,0,0,0,1475.984-141.288Z" fill="#12263f"/>
      <path id="Path_102174" data-name="Path 102174" d="M1481.273-149.545v2.046h1.579v1.118h-1.579v5.249a1.176,1.176,0,0,0,.211.762.89.89,0,0,0,.719.254,3.539,3.539,0,0,0,.688-.093v1.165a4.24,4.24,0,0,1-1.11.155,1.8,1.8,0,0,1-1.461-.586,2.518,2.518,0,0,1-.492-1.664v-5.242h-1.539V-147.5h1.539v-2.046Z" fill="#12263f"/>
      <path id="Path_102175" data-name="Path 102175" d="M1489.758-139.045a2.981,2.981,0,0,1-.2-.891,3.227,3.227,0,0,1-2.407,1.047,2.981,2.981,0,0,1-2.05-.707,2.283,2.283,0,0,1-.8-1.793,2.389,2.389,0,0,1,1-2.051,4.731,4.731,0,0,1,2.824-.73h1.406v-.664a1.627,1.627,0,0,0-.453-1.208,1.826,1.826,0,0,0-1.336-.449,2.112,2.112,0,0,0-1.3.391,1.152,1.152,0,0,0-.523.945h-1.453a1.989,1.989,0,0,1,.449-1.222,3.05,3.05,0,0,1,1.219-.934,4.1,4.1,0,0,1,1.691-.344,3.343,3.343,0,0,1,2.289.731,2.639,2.639,0,0,1,.86,2.011v3.891a4.759,4.759,0,0,0,.3,1.852v.125Zm-2.4-1.1a2.531,2.531,0,0,0,1.289-.352,2.119,2.119,0,0,0,.883-.914v-1.734H1488.4q-2.656,0-2.656,1.555a1.315,1.315,0,0,0,.453,1.062A1.737,1.737,0,0,0,1487.359-140.147Z" fill="#12263f"/>
      <path id="Path_102176" data-name="Path 102176" d="M1498.164-141.288a1.066,1.066,0,0,0-.441-.91,4.259,4.259,0,0,0-1.539-.558,7.291,7.291,0,0,1-1.743-.563,2.479,2.479,0,0,1-.953-.781,1.865,1.865,0,0,1-.308-1.078,2.192,2.192,0,0,1,.879-1.758,3.433,3.433,0,0,1,2.246-.719,3.538,3.538,0,0,1,2.332.742,2.363,2.363,0,0,1,.894,1.9h-1.453a1.306,1.306,0,0,0-.5-1.024,1.891,1.891,0,0,0-1.269-.429,1.977,1.977,0,0,0-1.235.343,1.083,1.083,0,0,0-.445.9.876.876,0,0,0,.414.789,5.064,5.064,0,0,0,1.5.508,7.779,7.779,0,0,1,1.754.578,2.581,2.581,0,0,1,1,.808,1.994,1.994,0,0,1,.324,1.153,2.162,2.162,0,0,1-.906,1.816,3.8,3.8,0,0,1-2.351.684,4.245,4.245,0,0,1-1.8-.36,2.913,2.913,0,0,1-1.223-1,2.416,2.416,0,0,1-.441-1.4h1.445a1.491,1.491,0,0,0,.582,1.152,2.25,2.25,0,0,0,1.434.426,2.327,2.327,0,0,0,1.316-.332A1.02,1.02,0,0,0,1498.164-141.288Z" fill="#12263f"/>
    </g>
    <path id="comprobado" d="M1331.745-143.3l4.482,4.49,8.606-8.6-1.236-1.218-7.37,7.359-3.264-3.258Z" fill="#5038a1"/>
    <g id="Group_56406" data-name="Group 56406">
      <path id="Path_102177" data-name="Path 102177" d="M1417.645-114.836l3.237-9.383h1.635l-4.2,11.375h-1.323l-4.195-11.375h1.627Z" fill="#12263f"/>
      <path id="Path_102178" data-name="Path 102178" d="M1426.479-114.961l1.961-6.336h1.541l-3.385,9.758q-.787,2.109-2.5,2.109l-.273-.023-.536-.1v-1.172l.389.032a1.91,1.91,0,0,0,1.14-.3,2.15,2.15,0,0,0,.673-1.086l.32-.859-3.005-8.36h1.572Z" fill="#12263f"/>
      <path id="Path_102179" data-name="Path 102179" d="M1439.321-122.992h-3.642v10.148h-1.487v-10.148h-3.634v-1.227h8.763Z" fill="#12263f"/>
    </g>
    <path id="comprobado-2" data-name="comprobado" d="M1392.767-117.1l4.482,4.49,8.606-8.6-1.236-1.218-7.37,7.359-3.264-3.258Z" fill="#5038a1"/>
    <g id="Group_56407" data-name="Group 56407">
      <path id="Path_102180" data-name="Path 102180" d="M1421-91.963a7.065,7.065,0,0,1-.56,2.918,4.266,4.266,0,0,1-1.588,1.9,4.356,4.356,0,0,1-2.4.657,4.324,4.324,0,0,1-2.374-.66,4.363,4.363,0,0,1-1.607-1.883,6.788,6.788,0,0,1-.588-2.832v-.821a6.974,6.974,0,0,1,.568-2.9,4.345,4.345,0,0,1,1.608-1.926,4.3,4.3,0,0,1,2.378-.668,4.38,4.38,0,0,1,2.4.66,4.267,4.267,0,0,1,1.6,1.914,7.1,7.1,0,0,1,.56,2.918Zm-1.487-.734a5.115,5.115,0,0,0-.81-3.106,2.665,2.665,0,0,0-2.264-1.082,2.638,2.638,0,0,0-2.23,1.082,5.008,5.008,0,0,0-.837,3v.836a5.122,5.122,0,0,0,.821,3.082,2.647,2.647,0,0,0,2.261,1.121,2.637,2.637,0,0,0,2.242-1.058,5.093,5.093,0,0,0,.817-3.036Z" fill="#12263f"/>
      <path id="Path_102181" data-name="Path 102181" d="M1430.859-96.791h-3.642v10.148h-1.487V-96.791H1422.1v-1.227h8.763Z" fill="#12263f"/>
      <path id="Path_102182" data-name="Path 102182" d="M1438.184-89.619h-4.748l-1.067,2.976h-1.541l4.328-11.375h1.308l4.335,11.375h-1.533Zm-4.3-1.227h3.852l-1.93-5.32Z" fill="#12263f"/>
    </g>
    <path id="comprobado-3" data-name="comprobado" d="M1391.135-90.9l4.465,4.49,8.574-8.6-1.231-1.218-7.343,7.359-3.252-3.258Z" fill="#5038a1"/>
    <path id="Path_102183" data-name="Path 102183" d="M1295.623-290.576a1.249,1.249,0,0,0-1.727-.378L1147.935-197.3l-1.148-6.106-6.377,13.71,14.714-3.483-5.483-2.246,145.6-93.424A1.25,1.25,0,0,0,1295.623-290.576Z" fill="#8c6df2"/>
    <path id="Path_102184" data-name="Path 102184" d="M1525.113-290.576a1.249,1.249,0,0,1,1.727-.378L1672.8-197.3l1.148-6.106,6.377,13.71-14.714-3.483,5.483-2.246-145.6-93.424A1.25,1.25,0,0,1,1525.113-290.576Z" fill="#8c6df2"/>
    <path id="Path_102185" data-name="Path 102185" d="M1140.609-103.985a1.248,1.248,0,0,1,1.726-.377L1288.3-10.708l1.147-6.106,6.377,13.71-14.714-3.483,5.483-2.246-145.6-93.425A1.25,1.25,0,0,1,1140.609-103.985Z" fill="#8c6df2"/>
    <path id="Path_102186" data-name="Path 102186" d="M1680.127-103.985a1.248,1.248,0,0,0-1.726-.377L1532.439-10.708l-1.147-6.106L1524.915-3.1l14.714-3.483-5.483-2.246,145.6-93.425A1.249,1.249,0,0,0,1680.127-103.985Z" fill="#8c6df2"/>
    <path id="Path_102187" data-name="Path 102187" d="M1634.429-285.681h-42.963v-7l-19.846,11.524,19.846,11.524v-7h42.963Z" fill="#8c6df2"/>
    <path id="Path_102187_-_Outline" data-name="Path 102187 - Outline" d="M1591.465-293.681a1,1,0,0,1,.5.133,1,1,0,0,1,.5.867v6h41.963a1,1,0,0,1,1,1v9.049a1,1,0,0,1-1,1h-41.963v6a1,1,0,0,1-.5.867,1,1,0,0,1-1,0l-19.846-11.524a1,1,0,0,1-.5-.865,1,1,0,0,1,.5-.865l19.846-11.524A1,1,0,0,1,1591.465-293.681Zm41.963,9h-41.963a1,1,0,0,1-1-1v-5.263l-16.854,9.787,16.854,9.787v-5.263a1,1,0,0,1,1-1h41.963Z" fill="#5038a1"/>
    <g id="Group_56408" data-name="Group 56408">
      <path id="Path_102188" data-name="Path 102188" d="M1409.341-285.066v19.257h-10.413l17.144,29.524,17.144-29.524H1422.8v-19.257Z" fill="#8c6df2"/>
      <path id="Path_102188_-_Outline" data-name="Path 102188 - Outline" d="M1409.341-286.066H1422.8a1,1,0,0,1,1,1v18.257h9.413a1,1,0,0,1,.867.5,1,1,0,0,1,0,1l-17.144,29.524a1,1,0,0,1-.865.5,1,1,0,0,1-.865-.5l-17.144-29.524a1,1,0,0,1,0-1,1,1,0,0,1,.867-.5h9.413v-18.257A1,1,0,0,1,1409.341-286.066Zm12.462,2h-11.462v18.257a1,1,0,0,1-1,1h-8.676l15.407,26.532,15.407-26.532H1422.8a1,1,0,0,1-1-1Z" fill="#5038a1"/>
      <path id="Path_102189" data-name="Path 102189" d="M1409.341-57.97v19.257h-10.413L1416.072-9.19l17.144-29.524H1422.8V-57.97Z" fill="#8c6df2"/>
      <path id="Path_102189_-_Outline" data-name="Path 102189 - Outline" d="M1409.341-58.97H1422.8a1,1,0,0,1,1,1v18.257h9.413a1,1,0,0,1,.867.5,1,1,0,0,1,0,1L1416.936-8.688a1,1,0,0,1-.865.5,1,1,0,0,1-.865-.5l-17.144-29.524a1,1,0,0,1,0-1,1,1,0,0,1,.867-.5h9.413V-57.97A1,1,0,0,1,1409.341-58.97Zm12.462,2h-11.462v18.257a1,1,0,0,1-1,1h-8.676l15.407,26.532,15.407-26.532H1422.8a1,1,0,0,1-1-1Z" fill="#5038a1"/>
    </g>
    <path id="Path_102190" data-name="Path 102190" d="M1634.429-16.614h-42.963v-7L1571.62-12.089,1591.465-.565v-7h42.963Z" fill="#8c6df2"/>
    <path id="Path_102190_-_Outline" data-name="Path 102190 - Outline" d="M1591.465-24.614a1,1,0,0,1,.5.133,1,1,0,0,1,.5.867v6h41.963a1,1,0,0,1,1,1v9.049a1,1,0,0,1-1,1h-41.963v6a1,1,0,0,1-.5.867,1,1,0,0,1-1,0l-19.846-11.524a1,1,0,0,1-.5-.865,1,1,0,0,1,.5-.865l19.846-11.524A1,1,0,0,1,1591.465-24.614Zm41.963,9h-41.963a1,1,0,0,1-1-1v-5.263l-16.854,9.787L1590.465-2.3V-7.565a1,1,0,0,1,1-1h41.963Z" fill="#5038a1"/>
    <path id="Path_102191" data-name="Path 102191" d="M1308.575-65.744V-237.96a1.25,1.25,0,0,0-1.25-1.25,1.251,1.251,0,0,0-1.25,1.25V-65.744l-5.347-2.908,6.6,13.6,6.6-13.6Z" fill="#8c6df2"/>
    <path id="Path_102192" data-name="Path 102192" d="M1517.847-228.513V-56.3a1.25,1.25,0,0,0,1.25,1.25,1.249,1.249,0,0,0,1.25-1.25V-228.513l5.347,2.909-6.6-13.606-6.6,13.606Z" fill="#8c6df2"/>
  </g>
</svg>
