<svg xmlns="http://www.w3.org/2000/svg" width="144" height="144" viewBox="0 0 144 144">
  <g id="t1-ic6" transform="translate(-436 -10967)">
    <rect id="Rectangle_7516" data-name="Rectangle 7516" width="144" height="144" rx="20" transform="translate(436 10967)" fill="#5038a1"/>
    <g id="aventuras" transform="translate(463 10994)">
      <g id="Group_55956" data-name="Group 55956" transform="translate(50.939 0)">
        <g id="Group_55955" data-name="Group 55955">
          <path id="Path_101642" data-name="Path 101642" d="M321.011,5.892a11.565,11.565,0,0,0-20.323.308,8.53,8.53,0,0,0-10.9,8.2,1.758,1.758,0,0,0,1.758,1.758h14.312a1.758,1.758,0,1,0,0-3.516H293.623a5.015,5.015,0,0,1,7.143-2.621,1.758,1.758,0,0,0,2.528-.981,8.048,8.048,0,0,1,15.015-.7,1.763,1.763,0,0,0,1.712,1.05c.1-.006.2-.01.3-.01a5.024,5.024,0,0,1,4.7,3.258h-4.955a1.758,1.758,0,1,0,0,3.516h7.031A1.758,1.758,0,0,0,328.85,14.4,8.543,8.543,0,0,0,321.011,5.892Z" transform="translate(-289.789 -0.001)" fill="#fff"/>
        </g>
      </g>
      <g id="Group_55958" data-name="Group 55958" transform="translate(72.334 12.637)">
        <g id="Group_55957" data-name="Group 55957">
          <path id="Path_101643" data-name="Path 101643" d="M414.5,72.406a1.757,1.757,0,1,0,.515,1.243A1.771,1.771,0,0,0,414.5,72.406Z" transform="translate(-411.5 -71.891)" fill="#fff"/>
        </g>
      </g>
      <g id="Group_55960" data-name="Group 55960" transform="translate(0 9.492)">
        <g id="Group_55959" data-name="Group 55959" transform="translate(0)">
          <path id="Path_101644" data-name="Path 101644" d="M89.78,120.65,63.588,73.259a1.758,1.758,0,0,0-3.077,0L50.029,92.225l-3.557-5.457a1.758,1.758,0,0,0-2.945,0L23.072,118.155l-3.624-6.2h1.29a1.758,1.758,0,0,0,1.518-2.644l-4.138-7.085h.859A1.758,1.758,0,0,0,20.5,99.577l-2.854-4.886,2.926-5.641L23.291,90.9a4.418,4.418,0,0,0,3.537.663,4.752,4.752,0,0,0,3.019-2.324L34.7,80.578a1.164,1.164,0,0,1,.872-.642,1,1,0,0,1,.877.374,4.5,4.5,0,0,0,6.788,0l2.14-2.381,2.558,4.93a1.758,1.758,0,1,0,3.121-1.619l-3.727-7.185h0L37.418,54.949a1.758,1.758,0,0,0-3.121,0L15.545,91.1l-1.653-2.83a1.758,1.758,0,0,0-3.036,0l-6.6,11.307a1.758,1.758,0,0,0,1.518,2.644h.859l-4.138,7.085a1.758,1.758,0,0,0,1.518,2.644H5.3L.24,120.614a1.758,1.758,0,0,0,1.518,2.644H88.242a1.758,1.758,0,0,0,1.538-2.608ZM35.858,59.575l7.79,15.018L40.623,77.96a.99.99,0,0,1-1.558,0,4.509,4.509,0,0,0-3.879-1.518,4.649,4.649,0,0,0-3.55,2.416l-4.855,8.656a1.218,1.218,0,0,1-.762.623.934.934,0,0,1-.757-.152L22.2,85.908ZM4.82,119.742l5.06-8.663a1.758,1.758,0,0,0-1.518-2.644H7.071l4.138-7.085a1.758,1.758,0,0,0-1.518-2.644H8.832l3.542-6.064,3.542,6.064h-.859a1.758,1.758,0,0,0-1.518,2.644l4.138,7.085h-1.29a1.758,1.758,0,0,0-1.518,2.644l5.06,8.663Zm41.938-26.1,6.888,10.569H46.757Zm-20.523,26.1,17.008-26.1v11.8l-9.315,14.293Zm11.889,0L45,109.191l6.876,10.551Zm16.986-1.477-6.866-10.536h6.866ZM52.2,95.561,62.05,77.743,76.561,104a1.741,1.741,0,0,1-.98,1.138,1.372,1.372,0,0,1-1.434-.216L67.2,99.414a4.937,4.937,0,0,0-6.515.3L57.118,103.1Zm6.423,24.181v-7.887l5.14,7.887Zm9.336,0h0L59.069,106.1l4.039-3.833a1.414,1.414,0,0,1,1.91-.1l6.943,5.507a4.874,4.874,0,0,0,4.978.7,5.091,5.091,0,0,0,1.5-.975l6.819,12.338Z" transform="translate(0 -54)" fill="#fff"/>
        </g>
      </g>
      <g id="Group_55962" data-name="Group 55962" transform="translate(9.492 80.859)">
        <g id="Group_55961" data-name="Group 55961">
          <path id="Path_101645" data-name="Path 101645" d="M69.117,460H55.758a1.758,1.758,0,1,0,0,3.516H69.117a1.758,1.758,0,1,0,0-3.516Z" transform="translate(-54 -460.001)" fill="#fff"/>
        </g>
      </g>
      <g id="Group_55964" data-name="Group 55964" transform="translate(63.938 80.859)">
        <g id="Group_55963" data-name="Group 55963">
          <path id="Path_101646" data-name="Path 101646" d="M388.023,460H365.495a1.758,1.758,0,1,0,0,3.516h22.528a1.758,1.758,0,1,0,0-3.516Z" transform="translate(-363.737 -460.001)" fill="#fff"/>
        </g>
      </g>
      <g id="Group_55966" data-name="Group 55966" transform="translate(35.333 86.484)">
        <g id="Group_55965" data-name="Group 55965">
          <path id="Path_101647" data-name="Path 101647" d="M225.437,492H202.763a1.758,1.758,0,1,0,0,3.516h22.674a1.758,1.758,0,0,0,0-3.516Z" transform="translate(-201.005 -492.001)" fill="#fff"/>
        </g>
      </g>
      <g id="Group_55968" data-name="Group 55968" transform="translate(28.478 86.484)">
        <g id="Group_55967" data-name="Group 55967">
          <path id="Path_101648" data-name="Path 101648" d="M165.009,492.516a1.752,1.752,0,1,0,.517,1.243A1.767,1.767,0,0,0,165.009,492.516Z" transform="translate(-162.01 -492.001)" fill="#fff"/>
        </g>
      </g>
      <g id="Group_55970" data-name="Group 55970" transform="translate(6.072)">
        <g id="Group_55969" data-name="Group 55969">
          <path id="Path_101649" data-name="Path 101649" d="M43.142,0a6.128,6.128,0,0,0-3.42,1.036A6.129,6.129,0,0,0,36.3,0a1.758,1.758,0,0,0,0,3.516,2.632,2.632,0,0,1,2.053.983,1.757,1.757,0,0,0,2.733,0,2.632,2.632,0,0,1,2.053-.983,1.758,1.758,0,0,0,0-3.516Z" transform="translate(-34.545)" fill="#fff"/>
        </g>
      </g>
      <g id="Group_55972" data-name="Group 55972" transform="translate(13.902 11.25)">
        <g id="Group_55971" data-name="Group 55971">
          <path id="Path_101650" data-name="Path 101650" d="M87.688,64a6.126,6.126,0,0,0-3.42,1.036A6.126,6.126,0,0,0,80.849,64a1.758,1.758,0,1,0,0,3.516A2.632,2.632,0,0,1,82.9,68.5a1.757,1.757,0,0,0,2.733,0,2.631,2.631,0,0,1,2.053-.983,1.758,1.758,0,1,0,0-3.516Z" transform="translate(-79.091 -64)" fill="#fff"/>
        </g>
      </g>
      <g id="Group_55974" data-name="Group 55974" transform="translate(76.992 33.486)">
        <g id="Group_55973" data-name="Group 55973">
          <path id="Path_101651" data-name="Path 101651" d="M446.6,190.5a6.129,6.129,0,0,0-3.42,1.036,6.127,6.127,0,0,0-3.42-1.036,1.758,1.758,0,0,0,0,3.516,2.631,2.631,0,0,1,2.053.983,1.758,1.758,0,0,0,1.366.652h0a1.758,1.758,0,0,0,1.366-.652,2.632,2.632,0,0,1,2.053-.983,1.758,1.758,0,1,0,0-3.516Z" transform="translate(-438 -190.5)" fill="#fff"/>
        </g>
      </g>
      <g id="Group_55976" data-name="Group 55976" transform="translate(62.322 19.107)">
        <g id="Group_55975" data-name="Group 55975">
          <path id="Path_101652" data-name="Path 101652" d="M363.143,108.7a6.127,6.127,0,0,0-3.42,1.036,6.127,6.127,0,0,0-3.42-1.036,1.758,1.758,0,1,0,0,3.516,2.632,2.632,0,0,1,2.053.983,1.757,1.757,0,0,0,2.733,0,2.632,2.632,0,0,1,2.053-.983,1.758,1.758,0,1,0,0-3.516Z" transform="translate(-354.546 -108.7)" fill="#fff"/>
        </g>
      </g>
      <g id="Group_55978" data-name="Group 55978" transform="translate(0 18.351)">
        <g id="Group_55977" data-name="Group 55977" transform="translate(0)">
          <path id="Path_101653" data-name="Path 101653" d="M8.6,104.4a6.125,6.125,0,0,0-3.419,1.036,6.127,6.127,0,0,0-3.42-1.036,1.758,1.758,0,1,0,0,3.516,2.632,2.632,0,0,1,2.053.983,1.757,1.757,0,0,0,2.733,0,2.631,2.631,0,0,1,2.053-.983,1.758,1.758,0,0,0,0-3.516Z" transform="translate(0 -104.399)" fill="#fff"/>
        </g>
      </g>
    </g>
  </g>
</svg>
