<svg xmlns="http://www.w3.org/2000/svg" xmlns:xlink="http://www.w3.org/1999/xlink" width="400" height="511" viewBox="0 0 400 511">
  <defs>
    <clipPath id="clip-path">
      <rect id="Rectangle_7871" data-name="Rectangle 7871" width="400" height="511" transform="translate(1020 9512)" fill="#fff" stroke="#707070" stroke-width="1"/>
    </clipPath>
  </defs>
  <g id="t1-m3" transform="translate(-1020 -9512)" clip-path="url(#clip-path)">
    <g id="t1-m3-2" data-name="t1-m3">
      <path id="Rectangle_5574" data-name="Rectangle 5574" d="M2.5,2.5V491.2h378V2.5H2.5M0,0H383V493.7H0Z" transform="translate(1037 9529.3)" fill="#ffdc72"/>
      <rect id="Rectangle_5573" data-name="Rectangle 5573" width="383" height="494.08" transform="translate(1020 9512.3)" fill="#fff8e3"/>
      <g id="Group_56370" data-name="Group 56370" transform="translate(2012.55 9639.049)">
        <g id="Group_56359" data-name="Group 56359" transform="translate(-750.553 -97.787)">
          <path id="Path_102017" data-name="Path 102017" d="M-784.167,40.45a11.743,11.743,0,0,1-3.507-.808,1.045,1.045,0,0,1-.336-.191l-1.388-1.174-2.4.686a1.084,1.084,0,0,1-.748-.06c-2.511-1.174-2.723-1.817-2.723-2.374a3.516,3.516,0,0,1,.5-1.547l.557-1.909-3.942-.1s-4.6.141-5.02.141h-.983l-2.963-.433a1.128,1.128,0,0,1-.467-.189l-4.486-3.227a1.074,1.074,0,0,1-.285-1.438l1.335-2.136,1.322-3.959-1.746-2.211a1.069,1.069,0,0,1-.2-.934l.788-3.021c-.092-.7-.355-2.734-.4-3.76a5.592,5.592,0,0,0-1.712-.439,1.073,1.073,0,0,1-.923-.8L-814.9,6.62a16.176,16.176,0,0,1-2.847-2.243,12.3,12.3,0,0,1-1.3-4.036L-820.3-1.478l-2.747-1.315h-7.713l-1.65,2.71-1.761,2.217a1.076,1.076,0,0,1-.566.366l-2.663.7a1,1,0,0,1-.414.026l-4.208-.559a1.105,1.105,0,0,1-.349-.109L-847.278.034l-4.48-3.167a.989.989,0,0,1-.212-.2l-3.507-4.347a1.065,1.065,0,0,1-.193-.364l-.42-1.4a1.063,1.063,0,0,1,.1-.853,1.074,1.074,0,0,1,.7-.5l1.965-.42a1.059,1.059,0,0,1,.9.221l3.758,3.085,2.869.838,2.033-.533,4.634-5.793.388-3.889a1.07,1.07,0,0,1,.529-.821l2.155-1.249.109-2.7-.812-2.2-2.447-2.061-2.057-2.192a1.061,1.061,0,0,1-.2-.315l-1.543-3.647a1.068,1.068,0,0,1-.056-.668A14.328,14.328,0,0,1-841.66-37a24.733,24.733,0,0,0,1.523-3.809l1.041-4.009-.791-4.6c-.139-.047-.283-.094-.422-.135a12.638,12.638,0,0,0,.184,1.787,1.064,1.064,0,0,1-.039.525,31.117,31.117,0,0,1-1.622,4.182,2.337,2.337,0,0,1-2.725.608,1.1,1.1,0,0,1-.341-.186l-2.057-1.684a1.093,1.093,0,0,1-.347-.521l-.561-1.87a1.079,1.079,0,0,1,.114-.87l1.337-2.172v-1.123l-1.555-1.558c-2.217-1.806-2.434-2.451-2.5-2.663-.2-.587-.619-3.464-.793-4.673a1.078,1.078,0,0,1,.3-.911l5.05-5.05,2.091-2.58-.328-4.737-1.727-2.764a1.074,1.074,0,0,1-.058-1.033l2.3-4.769-.525-4.364.182-3.186a1.071,1.071,0,0,1,.838-.979l4.261-.947.09-1.487a1.079,1.079,0,0,1,.69-.936,1.079,1.079,0,0,1,1.138.244l2.325,2.327,6.329-.358,2.108-4.343a1.065,1.065,0,0,1,.724-.576l6.732-1.543a1.065,1.065,0,0,1,1.058.354l2.245,2.663a1.073,1.073,0,0,1,.251.638l.259,5.181,1.823,1.723,5.223-.893a1.071,1.071,0,0,1,1.215.778l8.2,30.419,11.979,11.154a1.068,1.068,0,0,1,.332.908l-.536,4.557c4.833,17.076,4.454,17.708,4.178,18.17a1.608,1.608,0,0,1-1.307.87,1.448,1.448,0,0,1-.293-.015l-2.757,2.316-2.477,6.777L-787.661.2l.765,9.028h8.553a1.079,1.079,0,0,1,.5.124l4.769,2.524a1.076,1.076,0,0,1,.551.748c.647,3.4,1.022,5.5,1.116,6.247.195.381,1.157,2.059,5.823,9.412a1.065,1.065,0,0,1,0,1.151,1.057,1.057,0,0,1-1.043.484l-4.731-.636-.289.692.264,3.957a1.07,1.07,0,0,1-.362.878,1.088,1.088,0,0,1-.917.244l-3.505-.7a1.1,1.1,0,0,1-.292-.1l-1.251-.662a15.181,15.181,0,0,0-.542,2.106,8.652,8.652,0,0,1-.63,3.034c-.534,1.427-2.363,1.5-3.7,1.549a6.711,6.711,0,0,0-.865.062A1.938,1.938,0,0,1-784.167,40.45Zm-2.614-2.766a10.99,10.99,0,0,0,2.663.628,4.758,4.758,0,0,1,1.453-.178,5.467,5.467,0,0,0,1.843-.259,7.034,7.034,0,0,0,.426-2.187,21.214,21.214,0,0,1,1.037-3.985,1.073,1.073,0,0,1,.617-.656,1.06,1.06,0,0,1,.9.047l2.247,1.189,1.98.4-.188-2.813a1.092,1.092,0,0,1,.081-.482l.7-1.684a1.069,1.069,0,0,1,1.131-.649l3.265.439c-4.9-7.749-4.9-7.959-4.9-8.354-.028-.349-.576-3.336-1-5.6l-4.079-2.16h-9.27a1.071,1.071,0,0,1-1.067-.981l-.842-9.958-1.68-12.572a1.076,1.076,0,0,1,.056-.508l2.665-7.3a1.086,1.086,0,0,1,.317-.452l3.507-2.946a1.064,1.064,0,0,1,.394-.21c-.467-2.6-2.64-10.7-4.242-16.351a1.046,1.046,0,0,1-.032-.416l.495-4.229-11.8-10.991a1.064,1.064,0,0,1-.3-.506l-8.021-29.776-4.791.818a1.059,1.059,0,0,1-.915-.276l-2.526-2.387a1.059,1.059,0,0,1-.334-.724l-.261-5.249-1.592-1.888-5.594,1.281-2.16,4.448a1.079,1.079,0,0,1-.9.6l-7.434.42a1.1,1.1,0,0,1-.816-.313l-.985-.986a1.075,1.075,0,0,1-.831.9l-4.261.949-.137,2.187.555,4.48a1.062,1.062,0,0,1-.1.591l-2.177,4.518,1.555,2.492a1.074,1.074,0,0,1,.163.493l.373,5.425a1.081,1.081,0,0,1-.236.75l-2.432,2.991-4.743,4.752c.244,1.675.536,3.469.628,3.775a18.711,18.711,0,0,0,1.9,1.75l1.95,1.941a1.074,1.074,0,0,1,.313.758v1.87a1.079,1.079,0,0,1-.158.561l-1.243,2.02.328,1.1,1.624,1.328a1.649,1.649,0,0,0,.193.026c.246-.536.767-1.969,1.2-3.25-.456-2.815.092-3.467.274-3.685a1.306,1.306,0,0,1,1.013-.478,7.764,7.764,0,0,1,2.479.647,1.066,1.066,0,0,1,.634.8l.934,5.425a1.042,1.042,0,0,1-.019.452l-1.121,4.3a24.489,24.489,0,0,1-1.864,4.486,12.5,12.5,0,0,0-.945,2.727l1.328,3.143,1.836,1.965,2.571,2.157a1.087,1.087,0,0,1,.315.448l.981,2.665a1.094,1.094,0,0,1,.066.413l-.141,3.505a1.072,1.072,0,0,1-.534.885l-2.19,1.268-.366,3.661a1.085,1.085,0,0,1-.234.568l-5.043,6.3a1.061,1.061,0,0,1-.566.371l-2.665.7a1.046,1.046,0,0,1-.574-.006l-3.366-.983a1.057,1.057,0,0,1-.379-.2l-3.529-2.9-.321.069.026.09,3.28,4.069,4.229,3,4.613,2.361,3.816.508,2.117-.557,1.461-1.828,1.885-3.113a1.074,1.074,0,0,1,.915-.514h8.557a1.052,1.052,0,0,1,.463.1l3.224,1.543a1.068,1.068,0,0,1,.42.36l1.545,2.243a1.042,1.042,0,0,1,.169.416,14.317,14.317,0,0,0,.911,3.314,18.374,18.374,0,0,0,2.684,2.007,1.073,1.073,0,0,1,.456.632l.945,3.659c1.21.225,2.875.795,2.875,2.22,0,.746.3,3.083.411,3.923a1.076,1.076,0,0,1-.024.414l-.707,2.712,1.774,2.245a1.068,1.068,0,0,1,.173,1l-1.542,4.628a.974.974,0,0,1-.107.229l-.87,1.393,3.462,2.49,2.55.381.823-.011c.418,0,5.016-.141,5.016-.141l5.391.141a1.069,1.069,0,0,1,.838.439,1.072,1.072,0,0,1,.163.932l-.981,3.366a1.034,1.034,0,0,1-.109.249c-.049.084-.1.18-.143.272a11.47,11.47,0,0,0,1.007.561l2.552-.728a1.073,1.073,0,0,1,.986.212Z" transform="translate(856.135 97.787)" fill="#4e7985"/>
        </g>
        <g id="Group_56360" data-name="Group 56360" transform="translate(-919.003 213.538)">
          <path id="Path_102018" data-name="Path 102018" d="M-910.684,181.32a1.067,1.067,0,0,1-.632-.206,1.069,1.069,0,0,1-.4-1.142l.5-1.866-1.9-.713h-6.164c-.206,0-.756,0-6.363-2.128a1.07,1.07,0,0,1-.686-1.127l.563-4.677a1.083,1.083,0,0,1,.058-.242l1.181-3.207-1.406-4.375-4.358-1.506-3.284-1.54a1.073,1.073,0,0,1-.613-1.039c.163-2.526.293-5.553.216-6.038a41.978,41.978,0,0,1-.78-5.114c0-.416,0-1.112,3.068-3.3a.947.947,0,0,1,.673-.2l3.927.186a1.066,1.066,0,0,1,.231.039l5.517,1.5,2.513-2.933a37.418,37.418,0,0,0-1.564-3.719,2.607,2.607,0,0,1,.062-2.877l2.357-4.186,2.864-4.021a1.069,1.069,0,0,1,1.38-.321l4.263,2.3,4.5-3.336,4.216-3.859a1.08,1.08,0,0,1,.724-.281h2.993a1.071,1.071,0,0,1,.788.349l3.948,4.309,1.348.538,1.53-.3-.266-2.391a44.12,44.12,0,0,1-1.688-6.1c0-.264,0-1.054,1.78-2.43l2.23-3.259.5-1.894-4.047-2.751a1.074,1.074,0,0,1-.439-.641l-.66-2.8c-3.177-2.421-6.644-4.992-7.141-5.249-.214-.066-.778-.255-4.343-4.81a1.07,1.07,0,0,1-.152-.268l-.311-.791a1.073,1.073,0,0,1,.311-1.215,1.074,1.074,0,0,1,1.253-.086l3.089,1.933,4.981,1.53,6.1-2.387,5.065-2.948,7.475-7.34.249-2.969a1.066,1.066,0,0,1,.461-.793l2.016-1.386,2.26-4.523a1.008,1.008,0,0,1,.174-.251l1.823-1.963a1.064,1.064,0,0,1,1.125-.287l1.825.608,3.64-.78a1.057,1.057,0,0,1,1.028.339l2.012,2.28,1,.668,1.982-1.189c.221-.392.7-1.255,1.393-2.539,1.275-2.367,5.138-1,6.436-.45.711-.081,2.28-.255,2.783-.255.287,0,.96,0,3.366,2.085a1.076,1.076,0,0,1,.369.754,1.064,1.064,0,0,1-.289.788l-2.014,2.149a11.851,11.851,0,0,0-1.065,2.342,2.535,2.535,0,0,0,.347.638l5.114.593,5.676-4.883,3.544-3.548a6.574,6.574,0,0,0,.291-1.251,2.4,2.4,0,0,0-.088-.651,1.106,1.106,0,0,1-.041-.48l.278-1.965a1.084,1.084,0,0,1,.2-.484l1.575-2.138-.407-.814a1.058,1.058,0,0,1-.094-.677l.42-2.245a1.07,1.07,0,0,1,.8-.842l3.715-.9,3.886-4.769,1.755-3.377a1.085,1.085,0,0,1,.467-.458l2.245-1.123a1.077,1.077,0,0,1,1.166.135l2.243,1.87a1.073,1.073,0,0,1,.373.988l-1.309,8.416a1.054,1.054,0,0,1-.129.366l-2.245,3.927c-.032.131-2.558,6.989-3.124,8.306-.388.9-1.635,5.547-2.378,8.448a1.076,1.076,0,0,1-.09.231c-.206.394-2.074,3.867-3.981,4.926-.906.5-1.81,1.121-2.56,1.63a18.6,18.6,0,0,1-1.6,1.011c-.48.3-3.441,3.055-6.087,5.609l-1.787,5.543a1.074,1.074,0,0,1-.289.454l-2.8,2.618a39.075,39.075,0,0,0-3.394,3.546c.039.9.236,4.073.366,6.074a1.106,1.106,0,0,1-.054.409l-2.243,6.732a1.075,1.075,0,0,1-.471.583l-5.05,2.993-5.3,1.958-1.523,4.739a1.019,1.019,0,0,1-.154.3l-4.019,5.517a108.55,108.55,0,0,0-8.051,8,60.436,60.436,0,0,0-2.123,8.214c0,.5,0,1.354-6.862,6.723l-7.721,6.068-5.236,7.717-4.508,6.2a1.08,1.08,0,0,1-.692.426l-5.05.84a.957.957,0,0,1-.176.015h-4.735l-3.1,1.984A1.078,1.078,0,0,1-910.684,181.32Zm-2.245-6.07a1.079,1.079,0,0,1,.377.069l2.991,1.123a1.071,1.071,0,0,1,.66,1.279l-.039.141,1.046-.666a1.077,1.077,0,0,1,.576-.169h4.96l4.529-.754,4.231-5.817,5.309-7.824a1.049,1.049,0,0,1,.225-.242l7.854-6.17a52.134,52.134,0,0,0,6.059-5.294,56.858,56.858,0,0,1,2.34-8.93c.587-1.17,6.046-6.295,8.366-8.441l3.781-5.223,1.63-5.071a1.069,1.069,0,0,1,.651-.679l5.611-2.057,4.527-2.7,2.05-6.155c-.073-1.15-.362-5.682-.362-6.217,0-.433,0-1.022,4.073-4.891l2.609-2.434,1.785-5.534a1.07,1.07,0,0,1,.274-.441A81.081,81.081,0,0,1-830,85.973a15.377,15.377,0,0,0,1.348-.868c.778-.529,1.748-1.187,2.725-1.729s2.378-2.663,3.066-3.942c.3-1.174,1.9-7.342,2.453-8.634.544-1.268,3.132-8.291,3.158-8.364l2.222-3.914,1.185-7.623-1.238-1.033-1.309.653-1.712,3.248L-822.334,59a1.06,1.06,0,0,1-.578.364l-3.394.821-.227,1.208.54,1.08a1.068,1.068,0,0,1-.1,1.114l-1.8,2.449-.212,1.483a4.662,4.662,0,0,1,.12,1.043,8.887,8.887,0,0,1-.476,2.164,1.04,1.04,0,0,1-.259.418l-3.786,3.786-6.091,5.245a1.051,1.051,0,0,1-.821.253l-6.031-.7a1.063,1.063,0,0,1-.69-.366,4.268,4.268,0,0,1-1.1-2.38,10.3,10.3,0,0,1,1.4-3.471,1.11,1.11,0,0,1,.152-.206l1.322-1.412a7.829,7.829,0,0,0-1.286-.878c-.161.026-1.673.186-2.635.3a1.086,1.086,0,0,1-.568-.088c-1.7-.765-3.694-1.073-3.947-.608-.99,1.838-1.555,2.828-1.555,2.828a1.056,1.056,0,0,1-.379.386l-2.8,1.684a1.067,1.067,0,0,1-1.144-.028l-1.684-1.121a1.066,1.066,0,0,1-.21-.184l-1.688-1.913-3.314.709a1.073,1.073,0,0,1-.563-.03l-1.448-.484-1.251,1.345-2.314,4.632a1.086,1.086,0,0,1-.351.4l-1.825,1.256-.24,2.858a1.057,1.057,0,0,1-.317.675l-7.854,7.715a1.071,1.071,0,0,1-.214.163l-5.328,3.085-6.6,2.6a1.089,1.089,0,0,1-.7.026l-4.619-1.423a9.24,9.24,0,0,0,1,1.052s.534.144,7.807,5.695a1.068,1.068,0,0,1,.392.606l.653,2.772,4.33,2.946a1.069,1.069,0,0,1,.433,1.161l-.748,2.8a1.045,1.045,0,0,1-.152.33l-2.429,3.552a1.085,1.085,0,0,1-.242.253,6.647,6.647,0,0,0-1.043.958c.154.694.906,3.267,1.611,5.534l.416,3.567a1.067,1.067,0,0,1-.855,1.168l-2.8.561a1.071,1.071,0,0,1-.609-.056l-1.87-.748a1.082,1.082,0,0,1-.392-.27l-3.8-4.144h-2.106l-3.994,3.649-5.133,3.809a1.073,1.073,0,0,1-1.146.084l-4.03-2.172-2.256,3.16-2.372,4.206a.514.514,0,0,0-.013.606,45.578,45.578,0,0,1,1.956,4.668,1.063,1.063,0,0,1-.193,1.067l-3.366,3.927a1.068,1.068,0,0,1-1.095.336l-6.057-1.652-3.434-.165a15.089,15.089,0,0,0-1.858,1.568c.09.947.544,3.871.679,4.3.066.195.238.711-.09,6.035l2.522,1.185,4.756,1.641a1.075,1.075,0,0,1,.668.686l1.684,5.236a1.064,1.064,0,0,1-.015.7l-1.266,3.437-.446,3.717c2.209.825,4.484,1.628,4.911,1.7Z" transform="translate(934.759 -47.524)" fill="#4e7985"/>
        </g>
        <g id="Group_56361" data-name="Group 56361" transform="translate(-877.113 160.989)">
          <path id="Path_102019" data-name="Path 102019" d="M-909.5,64.356a1,1,0,0,1-.238-.028,1.066,1.066,0,0,1-.784-.724l-.289-.921c-1.965-2.965-1.965-3.569-1.965-3.833a58.3,58.3,0,0,1,1.883-6.931l.529-6.888-1.166-2.4-2.92-.891a1.071,1.071,0,0,1-.754-1.118c.3-3.452.5-3.745.643-3.959.071-.146.377-1.031.636-1.832l-.523-3.4a1.062,1.062,0,0,1,.056-.536l.934-2.526a1.087,1.087,0,0,1,1.155-.688l5.455.767.154-.154,1.81-3.621a1.069,1.069,0,0,1,1.033-.748l2.269.051,4.5.966,5.562-.814,5.845-1.114a1.078,1.078,0,0,1,.96.3,1.067,1.067,0,0,1,.291.96c-.386,1.971-1.142,5.984-1.247,7.053-.184,1.834-3.357,3.383-4.713,3.964l-5.468,3.115c.084,1.065.227,3.171.227,5.018,0,2.961-1.9,5.935-3.205,6.68-.566.384-1.98,3.274-2.305,4.414-.221.769-.87,4.043-1.1,5.241a1.073,1.073,0,0,1-.8.838l-3.194.765-2.485,2.657A1.063,1.063,0,0,1-909.5,64.356Zm-3.486-24.414,2.53.773a1.058,1.058,0,0,1,.649.555l1.5,3.085a1.089,1.089,0,0,1,.1.551l-.561,7.293a1.027,1.027,0,0,1-.043.229c-.853,2.813-1.77,6.008-1.828,6.487.082.141.808,1.354,1.5,2.412l1.56-1.667a1.064,1.064,0,0,1,.534-.311l2.837-.681c.251-1.275.788-3.961,1.011-4.741.126-.441,1.759-4.8,3.3-5.686a7.114,7.114,0,0,0,2.127-4.821c0-2.445-.274-5.483-.276-5.513a1.07,1.07,0,0,1,.538-1.028l6.172-3.507c1.742-.754,3.377-1.825,3.535-2.3.094-.951.628-3.839.975-5.663l-4.343.827-5.8.848a1.154,1.154,0,0,1-.384-.013l-4.489-.983-1.356-.015-1.665,3.329a1.077,1.077,0,0,1-.2.279l-.653.653a1.056,1.056,0,0,1-.908.3l-5.129-.722-.54,1.457.519,3.37a1.075,1.075,0,0,1-.036.488,12.1,12.1,0,0,1-.971,2.607C-912.773,37.935-912.884,38.91-912.985,39.942Zm9.7,19.61h0Z" transform="translate(915.207 -22.997)" fill="#4e7985"/>
        </g>
        <g id="Group_56362" data-name="Group 56362" transform="translate(-896.936 111.827)">
          <path id="Path_102020" data-name="Path 102020" d="M-886.545,53.318a1.03,1.03,0,0,1-.229-.026l-4.489-.983-2.063-.026-4.234-.831-3.233.18a1.063,1.063,0,0,1-.994-.546l-.938-1.675-2.991.525a1.074,1.074,0,0,1-.966-.321l-1.5-1.59a1.071,1.071,0,0,1-.094-1.354l1.365-1.926-.09-1.123-2.922-.512a1.1,1.1,0,0,1-.634-.362,20.015,20.015,0,0,1-2.421-3.2c.017.073-.4-.409-3.01-2.888a1.068,1.068,0,0,1-.319-.611l-1.007-6.367-2.532-4.7-3.3-4.763a1.056,1.056,0,0,1-.173-.418l-1.123-6.17a1.067,1.067,0,0,1,.172-.8l2.057-2.991a1.071,1.071,0,0,1,.422-.36l3.94-1.885,1.086-2.485c.064-.5.264-2.157.4-3.505A1.069,1.069,0,0,1-915.8.772l1.118-.6a1.069,1.069,0,0,1,.842-.071l1.474.491a1.069,1.069,0,0,1,.731,1.016V3.718c.178.653.4,1.4.542,1.8.435.086,1.562.321,2.519.51l5.819.4a1.066,1.066,0,0,1,.758.384,1.066,1.066,0,0,1,.242.816l-.491,4,.058,1.783c.248-.026.474-.047.647-.064l1.279-1.221a1.063,1.063,0,0,1,.435-.253l3.788-1.123a1.073,1.073,0,0,1,.69.03l2.174.84a1.073,1.073,0,0,1,.427.3l1.682,1.965a1.068,1.068,0,0,1,.257.619l.21,2.946a1.071,1.071,0,0,1-.129.591l-1.613,2.946a1.079,1.079,0,0,1-.887.555l-1.4.071a1.055,1.055,0,0,1-.493-.094l-2.8-1.262a1.128,1.128,0,0,1-.191-.109l-1.016-.741-.846.424-.469.7c.049.473.126,1.311.174,2.119a24.724,24.724,0,0,1-.289,3.794,1.049,1.049,0,0,1-.062.231l-.981,2.526a1.077,1.077,0,0,1-.784.662l-2.674.546a2.089,2.089,0,0,0-.332.808,23.713,23.713,0,0,0,.073,2.918,4.852,4.852,0,0,0,1.6,2.708,8.966,8.966,0,0,0,1.753,1.163l.416-.195.619-1.133.878-3.044a1.068,1.068,0,0,1,.478-.621l2.8-1.682a1.074,1.074,0,0,1,.9-.094,1.072,1.072,0,0,1,.649.636l.422,1.123.66,3.642.529,1.234,11.812.531a1.067,1.067,0,0,1,.581.2c2.286,1.656,2.445,2.055,2.541,2.295a6.73,6.73,0,0,0,1.131,1.249,25.185,25.185,0,0,1,2.472,1.3,1.06,1.06,0,0,1,.538.893l.2,5.986a1.074,1.074,0,0,1-.87,1.088l-5.388,1.026-5.8.848A.939.939,0,0,1-886.545,53.318Zm-10.942-4.013a1.183,1.183,0,0,1,.212.019l4.182.838,2.083.03,4.5.966,5.562-.814,4.441-.848-.148-4.467c-.739-.413-1.487-.814-1.682-.887a6.3,6.3,0,0,1-2.331-2.438c-.077-.041-.84-.641-1.551-1.166l-12.159-.546a1.075,1.075,0,0,1-.936-.647l-.842-1.965a1.191,1.191,0,0,1-.071-.236l-.581-3.287-1.309.786-.795,2.751a1.117,1.117,0,0,1-.088.216l-.842,1.543a1.074,1.074,0,0,1-.484.456l-1.191.561a1.084,1.084,0,0,1-.872.017,11.336,11.336,0,0,1-2.745-1.725A6.841,6.841,0,0,1-907.46,34.3a23.884,23.884,0,0,1-.071-3.25,4.651,4.651,0,0,1,1.018-2.282,1.059,1.059,0,0,1,.609-.362l2.513-.514.724-1.868a21.855,21.855,0,0,0,.255-3.239c-.068-1.159-.206-2.391-.206-2.4a1.065,1.065,0,0,1,.174-.713l.84-1.262a1.075,1.075,0,0,1,.413-.364l1.684-.842a1.07,1.07,0,0,1,1.108.092l1.455,1.058,2.468,1.11.546-.028,1.174-2.142-.163-2.28-1.277-1.491-1.583-.611-3.188.945-1.356,1.294a1.076,1.076,0,0,1-.621.289s-1.286.141-2.286.212c-1.095.1-1.423-.493-1.523-.842a1.177,1.177,0,0,1,.431-1.268l-.054-2.012.362-3.025-4.846-.356c-3.209-.619-3.415-.756-3.6-.878-.3-.2-.546-.364-1.281-3.141a1.084,1.084,0,0,1-.036-.274V2.385l-.3-.1-.21.114c-.163,1.506-.366,3.137-.366,3.137a1.087,1.087,0,0,1-.082.3l-1.309,2.993a1.073,1.073,0,0,1-.518.538l-4.043,1.933-1.645,2.393,1,5.508,3.233,4.673,2.68,4.962a1.078,1.078,0,0,1,.116.343l.977,6.19c3.074,2.929,3.152,3.126,3.261,3.4.129.236,1,1.33,1.819,2.307l3.355.587a1.074,1.074,0,0,1,.883.971l.189,2.337a1.074,1.074,0,0,1-.2.7l-1.084,1.53.5.529,3.173-.555a1.067,1.067,0,0,1,1.121.533l.981,1.753,2.7-.148Z" transform="translate(924.459 -0.05)" fill="#4e7985"/>
        </g>
        <g id="Group_56363" data-name="Group 56363" transform="translate(-807.077 27.043)">
          <path id="Path_102021" data-name="Path 102021" d="M-797.76,100.773a1.08,1.08,0,0,1-.489-.118l-3.833-1.965a1.024,1.024,0,0,1-.3-.231l-1.789-1.958L-808.23,95a1.071,1.071,0,0,1-.609-.572l-1.776-4.021-.789-2.732-6.6-.846a1.076,1.076,0,0,1-.606-.291l-2.432-2.337a1.08,1.08,0,0,1-.328-.726l-.187-4.3a1.074,1.074,0,0,1,.668-1.039l3.113-1.262,1.133-2.018-1.018-1.208a1.057,1.057,0,0,1-.246-.591l-.375-4.021-.5-3.392-3.265-2.92a1.078,1.078,0,0,1-.274-.39l-1.309-3.179-1.253-3.912-8.568-2.093a1.07,1.07,0,0,1-.7-.544,1.067,1.067,0,0,1-.049-.889l.953-2.43V48.031l-6.149,3.392-.441,1.622-1.324,4.071a1.076,1.076,0,0,1-.364.516l-3.274,2.524a1.072,1.072,0,0,1-1.168.09l-3.927-2.149a1.059,1.059,0,0,1-.407-.394l-1.562-2.629-5.018-1.47-4.118-.821a1.074,1.074,0,0,1-.859-1.118s.294-4.593.36-5.832c-.3-.371-1.022-1.142-1.637-1.757a1.075,1.075,0,0,1-.122-1.371l1.26-1.81-.3-2.31-1.32-2.642-1.073-.938-1.421,2.648a1,1,0,0,1-1,.563l-3.46-.186a1.008,1.008,0,0,1-.227-.039l-3.327-.915-.838.452a1.052,1.052,0,0,1-.461.126l-4.394.186a1.029,1.029,0,0,1-1.016-.613l-1.59-3.366a1.069,1.069,0,0,1-.084-.653l.467-2.524a1.076,1.076,0,0,1,.354-.615l1.648-1.423-.146-1.892a1.068,1.068,0,0,1,.182-.686l1.191-1.748-.133-1.8-1.832-2.166a1.066,1.066,0,0,1-.249-.791l.373-4.021a1.081,1.081,0,0,1,.081-.317l2.057-4.863a1.064,1.064,0,0,1,.334-.431l2.432-1.87a1.063,1.063,0,0,1,.9-.193,1.071,1.071,0,0,1,.718.581l1.8,3.788,3.263,3.623,2.179,3.042,1.667.4,3.085-.943a1.07,1.07,0,0,1,1,.2l1.123.934a1.071,1.071,0,0,1,.377.958l-.317,2.545c2.2,2.775,2.2,3.156,2.2,3.492a7.363,7.363,0,0,1-.536,1.99l.1.711a10.517,10.517,0,0,0,1.463-.336c.394-.384,1.18-.645,3.107.21a1.04,1.04,0,0,1,.448.373l1.81,2.633,3.782.756a1.069,1.069,0,0,1,.681.456l1.667,2.5,1.894.63,4.036,1.007,3.128.214,1.429-1.579a1.089,1.089,0,0,1,.519-.317l4.581-1.215a1.085,1.085,0,0,1,.276-.034h1.028a1.076,1.076,0,0,1,.827.388l1.6,1.935,1.193.458,2.34-5.658-.788-2.132-.589-2.042a1.075,1.075,0,0,1-.021-.495l.748-3.927a1.069,1.069,0,0,1,.484-.707l2.339-1.463-.381-1.585a1.117,1.117,0,0,1-.017-.422l.469-2.9a1.069,1.069,0,0,1,.493-.739,1.055,1.055,0,0,1,.881-.114l3.927,1.217a1.076,1.076,0,0,1,.456.281l4.581,4.767a1.066,1.066,0,0,1,.27.491l.748,3.087a1.07,1.07,0,0,1-.126.808l-1.588,2.616-3.655,4.386.131,2.082,1.386,1.071,1.345-3.437a1.074,1.074,0,0,1,.593-.6l5.924-2.524,1.521-3.974a1.063,1.063,0,0,1,.244-.375l1.588-1.588a1.072,1.072,0,0,1,.553-.294l3.368-.656a1.09,1.09,0,0,1,.823.176l1.915,1.358,3.919-.4,4.431-2.952.212-1.489a1.092,1.092,0,0,1,.279-.583l9.738-10.372.259-5.033a1.207,1.207,0,0,1,.051-.276l1.316-4.028-.242-1.151L-777.8-4.971l-1.588-1.772a1.069,1.069,0,0,1-.251-.911l.281-1.5a1.07,1.07,0,0,1,.827-.851l2.618-.559a1.079,1.079,0,0,1,.8.141l4.861,3.085a1.076,1.076,0,0,1,.465.647l.808,3.115h.878l5.037-2.687.075-.184-1.1-1.373a1.076,1.076,0,0,1-.212-.891l.375-1.776a1.068,1.068,0,0,1,.426-.649l2.487-1.778.733-.951.606-1.757-.722-1.048a1.026,1.026,0,0,1-.156-.349l-.467-1.87a1.049,1.049,0,0,1-.013-.463c.251-1.292.523-2.777.544-3.025-.021-.261-.274-1.855-.345-2.288l-.709-1.862a1.052,1.052,0,0,1-.049-.591l.452-2.26a1.07,1.07,0,0,1,.756-.821l1.09-.311a1.073,1.073,0,0,1,.986.212l1.671,1.412a10.99,10.99,0,0,0,2.663.628,4.758,4.758,0,0,1,1.453-.178,5.467,5.467,0,0,0,1.843-.259,7.034,7.034,0,0,0,.426-2.187,21.214,21.214,0,0,1,1.037-3.985,1.073,1.073,0,0,1,.617-.656,1.059,1.059,0,0,1,.9.047l2.247,1.189,1.98.4-.188-2.813a1.092,1.092,0,0,1,.081-.482l.7-1.684a1.075,1.075,0,0,1,1.131-.649l5.545.746a1.07,1.07,0,0,1,.761.488l1.68,2.633,3.61-.309a1.029,1.029,0,0,1,.814.279,1.065,1.065,0,0,1,.347.788v1.532a1.138,1.138,0,0,1-.036.283l-1.684,6.17-4.15,10.764a.969.969,0,0,1-.133.244l-4.246,5.84c.1,1.157.234,3.529-.336,4.668a33.554,33.554,0,0,1-1.95,3.128,1.078,1.078,0,0,1-.878.456h-5.57l-.729.324a10.492,10.492,0,0,1,.062,2.71c-.225,1.35-2.76,2.991-4.844,4.129a1.217,1.217,0,0,1-.57.131,3.448,3.448,0,0,0-2.05.5.6.6,0,0,0-.189.486,7.043,7.043,0,0,0,1.116,3.5l2.534,2.513a1.071,1.071,0,0,1,.3.9,1.069,1.069,0,0,1-.536.788l-1.219.686a9.926,9.926,0,0,0,1.444,2.318c1.054.7,1.615,3.023,1.855,4.343a1.068,1.068,0,0,1-.024.486l-1.123,3.925-1.444,3.486a1.081,1.081,0,0,1-.591.583l-2.47.988c-.039.071-.075.144-.107.212.814.144,2.179.3,3.12.384a1.078,1.078,0,0,1,.261.06l3.927,1.4a1.052,1.052,0,0,1,.559.456l4.208,7.012a1.072,1.072,0,0,1-.081,1.221l-4.163,5.2,1,4.264a1.07,1.07,0,0,1-.563,1.2l-1.684.842a1.08,1.08,0,0,1-1.03-.041l-2.8-1.682a1.1,1.1,0,0,1-.249-.208l-1.6-1.8-2.106,1.532-2.969,5.4a1.04,1.04,0,0,1-.144.2l-2.524,2.807a1.089,1.089,0,0,1-.386.272L-766.82,61l-2.344,3.906-1.71,2.567a1.07,1.07,0,0,1-.928.478,1.067,1.067,0,0,1-.893-.54l-2.172-3.8-4.107-4.1-.056-.064a49.677,49.677,0,0,1-2.49,4.371l-3.237,5.665-.478,3.584,1.725,2.464a1.077,1.077,0,0,1,.1,1.05l-2.243,5.048a1.049,1.049,0,0,1-1.069.632l-2.468-.2-1.455,5.579-1.054,5.547,1.369,4.107a1.075,1.075,0,0,1-.06.823,1.075,1.075,0,0,1-.626.536l-6.414,2.08A1.085,1.085,0,0,1-797.76,100.773Zm-3.173-3.9,3.265,1.671,4.964-1.609-1.116-3.349a1.052,1.052,0,0,1-.036-.54l1.123-5.89,1.7-6.52a1.078,1.078,0,0,1,1.125-.8l2.608.219,1.688-3.8-1.615-2.31a1.067,1.067,0,0,1-.184-.756l.561-4.206a1.063,1.063,0,0,1,.131-.392l3.368-5.89a40.525,40.525,0,0,0,2.459-4.354,1.845,1.845,0,0,1,1.44-1.279,2.452,2.452,0,0,1,2.074,1.007l4.129,4.12a.979.979,0,0,1,.172.225l1.384,2.421.722-1.08,2.5-4.165a1.068,1.068,0,0,1,.506-.437l3.145-1.311,2.28-2.535,3.027-5.5a1.048,1.048,0,0,1,.308-.349l3.085-2.245a1.073,1.073,0,0,1,1.431.156l2.134,2.4,2.16,1.3.4-.2-.928-3.944a1.074,1.074,0,0,1,.206-.915l4.021-5.026-3.625-6.046-3.439-1.228a28.368,28.368,0,0,1-4.034-.6,1.475,1.475,0,0,1-.955-.938,3.352,3.352,0,0,1,.683-2.635,1.079,1.079,0,0,1,.495-.4l2.387-.956,1.23-2.95,1.009-3.563a8.088,8.088,0,0,0-.93-2.732c-.953-.636-2.132-3.059-2.59-4.071a1.074,1.074,0,0,1,.45-1.378l.863-.484-1.656-1.658a8.937,8.937,0,0,1-1.624-4.872,2.744,2.744,0,0,1,.859-2.044,5.11,5.11,0,0,1,3.31-1.088,13.175,13.175,0,0,0,3.539-2.56,11.86,11.86,0,0,0-.212-2.719,1.072,1.072,0,0,1,.621-1.17l1.682-.748a1.085,1.085,0,0,1,.435-.092h5.234a26.227,26.227,0,0,0,1.476-2.4,11.4,11.4,0,0,0,.079-3.891,1.079,1.079,0,0,1,.2-.748l4.405-6.059,4.064-10.528,1.611-6.151-3.092.264a1.068,1.068,0,0,1-.994-.488l-1.761-2.766-4.238-.57-.289.692.264,3.957a1.07,1.07,0,0,1-.362.878,1.088,1.088,0,0,1-.917.244l-3.505-.7a1.1,1.1,0,0,1-.292-.1l-1.251-.662a15.181,15.181,0,0,0-.542,2.106,8.652,8.652,0,0,1-.63,3.034c-.534,1.427-2.363,1.5-3.7,1.549a6.711,6.711,0,0,0-.865.062c-.679.274-2.115.045-4.227-.7a1.045,1.045,0,0,1-.336-.191l-1.318-1.116L-759.433-27l.636,1.675a1.035,1.035,0,0,1,.058.212c.257,1.607.388,2.545.388,2.787a25.446,25.446,0,0,1-.536,3.152l.362,1.45.919,1.337a1.078,1.078,0,0,1,.131.958l-.842,2.432a1.011,1.011,0,0,1-.163.3l-.936,1.215a1,1,0,0,1-.227.219l-2.277,1.628-.182.872,1.178,1.476a1.074,1.074,0,0,1,.152,1.082l-.467,1.121a1.069,1.069,0,0,1-.484.533l-5.611,2.993a1.058,1.058,0,0,1-.5.126H-769.8a1.071,1.071,0,0,1-1.033-.791l-.93-3.533L-775.9-8.374l-1.493.321-.054.276,1.148,1.29,3.182,2.811a1.06,1.06,0,0,1,.339.581l.373,1.778a1.068,1.068,0,0,1-.028.551L-773.788,3.4l-.274,5.281a1.076,1.076,0,0,1-.287.677l-9.774,10.415-.234,1.628a1.07,1.07,0,0,1-.465.739l-5.05,3.366a1.1,1.1,0,0,1-.486.176l-4.583.467a1.088,1.088,0,0,1-.726-.191l-1.87-1.326-2.594.506-1.2,1.2-1.6,4.182a1.07,1.07,0,0,1-.572.6l-5.956,2.547-1.7,4.341a1.072,1.072,0,0,1-.714.641,1.074,1.074,0,0,1-.941-.184l-2.9-2.243a1.071,1.071,0,0,1-.414-.782l-.186-2.991a1.062,1.062,0,0,1,.249-.754l3.833-4.583,1.266-2.1-.576-2.378-4.191-4.36-2.485-.769-.236,1.468.512,2.13a1.075,1.075,0,0,1-.476,1.159l-2.6,1.622-.613,3.216.493,1.72.911,2.447a1.066,1.066,0,0,1-.015.78l-2.9,7.014a1.076,1.076,0,0,1-1.375.591l-2.432-.936a1.1,1.1,0,0,1-.441-.317l-1.453-1.761h-.386l-4.139,1.1-1.566,1.729a1.1,1.1,0,0,1-.872.349l-3.833-.281-4.3-1.058-2.322-.769a1.076,1.076,0,0,1-.553-.422l-1.624-2.436-3.773-.754a1.072,1.072,0,0,1-.673-.446l-1.879-2.73a5.559,5.559,0,0,0-.786-.253,10.068,10.068,0,0,1-3.417.821,1.073,1.073,0,0,1-1.2-.919l-.278-2.055a1.05,1.05,0,0,1,.058-.521c.186-.5.369-1.052.452-1.356-.311-.5-1.2-1.69-1.969-2.648a1.086,1.086,0,0,1-.227-.8l.3-2.41-.227-.191-2.813.859a1.069,1.069,0,0,1-.563.019l-2.335-.561a1.068,1.068,0,0,1-.621-.42l-2.34-3.274-3.291-3.644a1.149,1.149,0,0,1-.171-.257l-1.3-2.732-1.157.891-1.883,4.45-.317,3.407,1.765,2.089a1.08,1.08,0,0,1,.251.613l.189,2.524a1.077,1.077,0,0,1-.184.683l-1.191,1.746.159,2.057a1.076,1.076,0,0,1-.369.893l-1.772,1.53-.336,1.815,1.14,2.41,3.439-.146,1-.538a1.057,1.057,0,0,1,.79-.09l3.63,1,2.665.144,1.735-3.233a1.071,1.071,0,0,1,.752-.548,1.071,1.071,0,0,1,.9.249l2.243,1.963a1.075,1.075,0,0,1,.253.328l1.5,2.991a1.1,1.1,0,0,1,.1.343l.375,2.9a1.082,1.082,0,0,1-.182.75l-.99,1.42c1.648,1.7,1.648,2,1.648,2.361,0,.242-.191,3.3-.317,5.307l3.289.658,5.515,1.611a1.06,1.06,0,0,1,.619.48l1.628,2.74,3.057,1.673,2.455-1.894,1.753-5.714a1.078,1.078,0,0,1,.516-.656l8.135-4.488a1.08,1.08,0,0,1,1.063.015,1.073,1.073,0,0,1,.525.923v3.272a1.063,1.063,0,0,1-.073.392l-.576,1.468,7.979,1.967a1.065,1.065,0,0,1,.754.711l1.406,4.394,1.183,2.871,3.372,3.014a1.071,1.071,0,0,1,.345.645l.561,3.833.349,3.741,1.281,1.521a1.073,1.073,0,0,1,.114,1.215l-1.684,2.993a1.062,1.062,0,0,1-.529.467l-2.76,1.118.135,3.117,1.866,1.8,6.942.889a1.075,1.075,0,0,1,.9.769l.934,3.274,1.542,3.467,3.878,1.431a1.1,1.1,0,0,1,.42.285Z" transform="translate(882.517 39.523)" fill="#4e7985"/>
        </g>
        <g id="Group_56364" data-name="Group 56364" transform="translate(-800.45 -32.106)">
          <path id="Path_102022" data-name="Path 102022" d="M-839.256,71.348l-.079,0-3.833-.281-4.3-1.058-2.322-.769a1.076,1.076,0,0,1-.553-.422l-1.624-2.436-3.773-.754a1.072,1.072,0,0,1-.673-.446l-1.879-2.73a5.853,5.853,0,0,0-.786-.253,10.068,10.068,0,0,1-3.417.821,1.073,1.073,0,0,1-1.2-.919l-.278-2.055a1.05,1.05,0,0,1,.058-.521c.186-.5.369-1.052.452-1.356-.311-.5-1.2-1.69-1.969-2.648a1.086,1.086,0,0,1-.227-.8l.3-2.41-.227-.191-2.813.859a1.069,1.069,0,0,1-.563.019l-2.335-.561a1.068,1.068,0,0,1-.621-.42l-2.34-3.274-3.291-3.644a1.149,1.149,0,0,1-.171-.257l-1.6-3.362a1.072,1.072,0,0,1,.034-.988l2.631-4.656a1.066,1.066,0,0,1,.576-.482l3.715-1.315a8.459,8.459,0,0,0,.165-2.112c-.114-.135-.5-.718-.1-6.875l0-4.795a1.047,1.047,0,0,1,.084-.411l.934-2.243a1.072,1.072,0,0,1,.542-.563l4.489-2.057a1.11,1.11,0,0,1,.3-.088l6.305-.874,1.791-2.28,1.984-3.263a1.118,1.118,0,0,1,.193-.234l3.9-3.544.848-2.717a1.068,1.068,0,0,1,.788-.724c1.271-.283,3.514-.823,4.135-1.071a21.607,21.607,0,0,0,2.882-1.963V-3.226l-2.3-4.251a1.063,1.063,0,0,1-.129-.548l.176-4.746-1.356-2.376a1.068,1.068,0,0,1,.279-1.382l.6-.458,1.043-7.488-.551-6.8a1.071,1.071,0,0,1,.424-.943l3.34-2.5.347-6.794a1.072,1.072,0,0,1,.051-.272l1.38-4.313-2.481-6.38a1.06,1.06,0,0,1-.066-.27l-.748-6.732a1.053,1.053,0,0,1,.208-.761l3.927-5.236a1.1,1.1,0,0,1,.249-.24l1.78-1.223a1.068,1.068,0,0,1,1.046-.092,1.063,1.063,0,0,1,.624.846l.351,2.89,1.562,1.562,1.59,1.8a1.066,1.066,0,0,1,.259.581l.152,1.266,1.77,1.2a1.072,1.072,0,0,1,.469.887v2.175a1.1,1.1,0,0,1-.069.379l-.771,2.033a1.073,1.073,0,0,1-.57.6l-2.065.913-1.221,2.112v1.465c.043-.026.148.223.322.536l5.043-.064h.015a1.074,1.074,0,0,1,1.026.765l.36,1.2,3.28,4.069,4.229,3,4.613,2.361,3.816.508,2.117-.557,1.461-1.828,1.885-3.113a1.074,1.074,0,0,1,.915-.514h8.557a1.052,1.052,0,0,1,.463.1l3.224,1.543a1.068,1.068,0,0,1,.42.36l1.545,2.243a1.042,1.042,0,0,1,.169.416,14.317,14.317,0,0,0,.911,3.314,18.374,18.374,0,0,0,2.684,2.007,1.073,1.073,0,0,1,.456.632l.945,3.659c1.21.225,2.875.795,2.875,2.22,0,.746.3,3.083.411,3.923a1.076,1.076,0,0,1-.024.414l-.707,2.712,1.774,2.245a1.068,1.068,0,0,1,.173,1l-1.542,4.628a.974.974,0,0,1-.107.229l-.87,1.393,3.462,2.49,2.55.381.823-.011c.418,0,5.016-.141,5.016-.141l5.391.141a1.069,1.069,0,0,1,.838.439,1.072,1.072,0,0,1,.163.932l-.981,3.366a1.034,1.034,0,0,1-.109.249c-.049.084-.1.18-.143.272a11.47,11.47,0,0,0,1.007.561l1.459-.418a1.086,1.086,0,0,1,1.022.242,1.074,1.074,0,0,1,.323,1l-.39,1.956.636,1.675a1.035,1.035,0,0,1,.058.212c.257,1.607.388,2.545.388,2.787a25.446,25.446,0,0,1-.536,3.152l.362,1.45.919,1.337a1.078,1.078,0,0,1,.131.958l-.842,2.432a1.011,1.011,0,0,1-.163.3l-.936,1.215a1,1,0,0,1-.227.219l-2.277,1.628-.182.872,1.178,1.476a1.074,1.074,0,0,1,.152,1.082l-.467,1.121a1.069,1.069,0,0,1-.484.533l-5.611,2.993a1.058,1.058,0,0,1-.5.126h-1.965a1.071,1.071,0,0,1-1.033-.791l-.93-3.533-4.131-2.622-1.493.321-.054.276,1.148,1.29,3.182,2.811a1.06,1.06,0,0,1,.339.581l.373,1.778a1.068,1.068,0,0,1-.028.551l-1.358,4.167-.274,5.281a1.076,1.076,0,0,1-.287.677l-9.774,10.415-.234,1.628a1.07,1.07,0,0,1-.465.739l-5.05,3.366a1.1,1.1,0,0,1-.486.176l-4.583.467a1.088,1.088,0,0,1-.726-.191l-1.87-1.326-2.594.506-1.2,1.2-1.6,4.182a1.07,1.07,0,0,1-.572.6l-5.956,2.547-1.7,4.341a1.072,1.072,0,0,1-.714.641,1.074,1.074,0,0,1-.941-.184l-2.9-2.243a1.071,1.071,0,0,1-.414-.782l-.186-2.991a1.062,1.062,0,0,1,.249-.754l3.833-4.583,1.266-2.1-.576-2.378-4.191-4.36-2.485-.769-.236,1.468.512,2.13a1.075,1.075,0,0,1-.476,1.159l-2.6,1.622-.613,3.216.493,1.72.911,2.447a1.066,1.066,0,0,1-.015.78l-2.9,7.014a1.076,1.076,0,0,1-1.375.591l-2.432-.936a1.1,1.1,0,0,1-.441-.317l-1.453-1.761h-.386l-4.139,1.1L-838.464,71A1.07,1.07,0,0,1-839.256,71.348Zm-9.5-4.026,1.894.63,4.036,1.007,3.128.214,1.429-1.579a1.089,1.089,0,0,1,.519-.317l4.581-1.215a1.084,1.084,0,0,1,.276-.034h1.028a1.076,1.076,0,0,1,.827.388l1.6,1.935,1.193.458,2.34-5.658-.788-2.132-.589-2.042a1.075,1.075,0,0,1-.021-.495l.748-3.927a1.069,1.069,0,0,1,.484-.707l2.339-1.463-.381-1.585a1.117,1.117,0,0,1-.017-.422l.469-2.9a1.069,1.069,0,0,1,.493-.739,1.055,1.055,0,0,1,.881-.114l3.927,1.217a1.076,1.076,0,0,1,.456.281l4.581,4.767a1.066,1.066,0,0,1,.27.491l.748,3.087a1.07,1.07,0,0,1-.126.808l-1.588,2.616-3.655,4.386.131,2.082,1.386,1.071,1.345-3.437a1.074,1.074,0,0,1,.593-.6l5.924-2.524,1.521-3.974a1.063,1.063,0,0,1,.244-.375l1.588-1.588a1.072,1.072,0,0,1,.553-.294l3.368-.656a1.09,1.09,0,0,1,.823.176l1.915,1.358,3.919-.4,4.431-2.952.212-1.489a1.092,1.092,0,0,1,.279-.583l9.738-10.372.259-5.033a1.207,1.207,0,0,1,.051-.276l1.316-4.028-.242-1.151-3.008-2.665-1.588-1.772a1.069,1.069,0,0,1-.251-.911l.281-1.5a1.069,1.069,0,0,1,.829-.851l2.616-.559a1.063,1.063,0,0,1,.8.141l4.861,3.085a1.076,1.076,0,0,1,.465.647l.808,3.115h.878l5.037-2.687.075-.184-1.1-1.373a1.076,1.076,0,0,1-.212-.891l.375-1.776a1.068,1.068,0,0,1,.426-.649l2.487-1.778.733-.951.606-1.757-.722-1.048a1.026,1.026,0,0,1-.156-.349l-.467-1.87a1.049,1.049,0,0,1-.013-.463c.251-1.292.523-2.777.544-3.025-.021-.261-.274-1.855-.345-2.288l-.709-1.862a1.052,1.052,0,0,1-.049-.591l.107-.538-.165.049a1.084,1.084,0,0,1-.748-.06c-2.511-1.174-2.723-1.817-2.723-2.374a3.516,3.516,0,0,1,.5-1.547l.557-1.909-3.942-.1s-4.6.141-5.02.141h-.983l-2.963-.433a1.128,1.128,0,0,1-.467-.189l-4.486-3.227a1.074,1.074,0,0,1-.285-1.438l1.335-2.136,1.322-3.959-1.746-2.211a1.069,1.069,0,0,1-.2-.934l.788-3.021c-.092-.7-.355-2.734-.4-3.76a5.592,5.592,0,0,0-1.712-.439,1.073,1.073,0,0,1-.923-.8L-788.3-28.4a16.176,16.176,0,0,1-2.847-2.243,12.3,12.3,0,0,1-1.3-4.036l-1.251-1.819-2.747-1.315h-7.713l-1.65,2.71-1.761,2.217a1.076,1.076,0,0,1-.566.366l-2.663.7a1,1,0,0,1-.414.026l-4.208-.559a1.105,1.105,0,0,1-.349-.109l-4.908-2.524-4.48-3.167a.989.989,0,0,1-.212-.2l-3.507-4.347a1.065,1.065,0,0,1-.193-.364l-.188-.63-4.872.06h-.015a1.067,1.067,0,0,1-.926-.536c-.915-1.581-.915-1.937-.915-2.149v-1.753a1.075,1.075,0,0,1,.144-.538l1.543-2.663a1.038,1.038,0,0,1,.495-.443l1.973-.872.542-1.431v-1.41l-1.7-1.153a1.081,1.081,0,0,1-.463-.761l-.169-1.423-1.324-1.5-1.776-1.774a1.064,1.064,0,0,1-.306-.63l-.182-1.5-.176.122-3.567,4.754.686,6.172,2.567,6.6a1.079,1.079,0,0,1,.021.716l-1.453,4.542-.368,7.156a1.07,1.07,0,0,1-.426.8l-3.267,2.449.514,6.331a1.219,1.219,0,0,1-.009.234l-1.121,8.043a1.068,1.068,0,0,1-.411.7l-.2.156,1.043,1.828a1.067,1.067,0,0,1,.141.572l-.176,4.756,2.29,4.231a1.061,1.061,0,0,1,.131.51v2.243a1.07,1.07,0,0,1-.409.842,25.585,25.585,0,0,1-3.818,2.584,39.1,39.1,0,0,1-3.861,1.037l-.752,2.4a1.078,1.078,0,0,1-.3.471l-4,3.638-1.978,3.235-2.127,2.721a1.069,1.069,0,0,1-.694.4l-6.577.915-3.964,1.817-.692,1.658v4.649a41.089,41.089,0,0,0-.092,5.943c.067.051.531.75-.116,3.991a1.073,1.073,0,0,1-.694.8l-3.923,1.386-2.157,3.822,1.294,2.717,3.263,3.625,2.179,3.042,1.667.4,3.085-.943a1.07,1.07,0,0,1,1,.2l1.123.934a1.071,1.071,0,0,1,.377.958l-.317,2.545c2.2,2.775,2.2,3.156,2.2,3.492a7.363,7.363,0,0,1-.536,1.99l.1.711a10.517,10.517,0,0,0,1.463-.336c.394-.384,1.18-.645,3.107.21a1.04,1.04,0,0,1,.448.373l1.81,2.633,3.782.756a1.069,1.069,0,0,1,.681.456Z" transform="translate(879.424 67.131)" fill="#4e7985"/>
        </g>
        <g id="Group_56365" data-name="Group 56365" transform="translate(-948.55 -74.409)">
          <path id="Path_102023" data-name="Path 102023" d="M-842.964,109.218a1.073,1.073,0,0,1-1.016-.733l-.771-2.314-.816-2.984-1.665-2.6-1.862-4.358-1.073-.386a5.2,5.2,0,0,0-1.45.371c-.36.435-1.219,1.365-1.219,1.365a1.064,1.064,0,0,1-1.453.111l-2.033-1.611-2.258-2.618-1.211.06.3,5.59.548,3.319a1.067,1.067,0,0,1-.011.4c-.512,2.391-.791,2.575-1.084,2.772-.195.131-.42.281-2.841.593a1.17,1.17,0,0,1-.394-.024l-5.474-1.352-2.132.328-1.5,1.735a1.05,1.05,0,0,1-.27.225l-2.183,1.277a1.072,1.072,0,0,1-1.129-.03,1.066,1.066,0,0,1-.42-.531l-4.958-.362c-3.209-.619-3.415-.756-3.6-.878-.3-.2-.546-.364-1.281-3.141a1.084,1.084,0,0,1-.036-.274V101.7l-.3-.1-.714.381a1.072,1.072,0,0,1-1.1-.058,1.066,1.066,0,0,1-.469-1c.073-.718.133-1.352.133-1.633a24.178,24.178,0,0,0-.5-3.13l-2.5-3.756a1.062,1.062,0,0,1-.144-.868l.9-3.43.176-8.373-.63-1.142-4.193-2.1a1.075,1.075,0,0,1-.512-.548l-1.309-3.179a1.075,1.075,0,0,1-.079-.471l.171-2.914-.7-1.538-.525-.349-5.952.874-6.794.555-3,1.412a1.045,1.045,0,0,1-.456.1h-6.732a1.073,1.073,0,0,1-.611-.191l-2.43-1.684a1.061,1.061,0,0,1-.452-.733l-1.476-10.7-1.9-4.324-3.192-2.837a1.08,1.08,0,0,1-.343-.613l-.9-5.028-3.814-5.993-2.035-2.961-1.371-2.53a1.072,1.072,0,0,1,.186-1.264l1.684-1.684a1.028,1.028,0,0,1,.474-.274l7.312-2.012,1.624-1.082V25.021l-1.849-2.522a1.07,1.07,0,0,1-.208-.634v-.934a1.071,1.071,0,0,1,.938-1.063l5.984-.75,4.578-.193a1,1,0,0,1,.613.163l2.8,1.753a9.5,9.5,0,0,0,1.849.109,3.578,3.578,0,0,0-.219-.709,1.081,1.081,0,0,1,.111-1.061l2.132-2.95-1.922-6.984-.692-3.788-2.807-2.067-3.25.812a1.074,1.074,0,0,1-1.084-.351l-3.739-4.488a1.162,1.162,0,0,1-.156-.251l-2.166-4.874-7-7.182-6.333-2.532a1.082,1.082,0,0,1-.491-.394l-4.219-6.237-2.318-1.963a1.07,1.07,0,0,1-.379-.816,1.075,1.075,0,0,1,.379-.818l2.429-2.057,2.64-1.819.163-3.584a1.053,1.053,0,0,1,.2-.581l4.285-5.89v-2.271l1.135-6.905a1.072,1.072,0,0,1,.671-.825,1.078,1.078,0,0,1,1.05.161l.234.184a1.067,1.067,0,0,1,.394,1.011c-.212,1.309-.428,2.732-.561,3.683.086-.028.167-.056.242-.086a1.088,1.088,0,0,1,.75-.006l3.085,1.123a1.069,1.069,0,0,1,.688,1.2l-.842,4.63a1.077,1.077,0,0,1-.656.8l-1.566.626-.343,1.725,2.665,3.109,4.8-.446,1.4-3.961.133-5.69-2.757-9.236a1.073,1.073,0,0,1-.039-.422l.664-6.1-4.028-6.8-4.083-.371a1.075,1.075,0,0,1-.949-.836l-.559-2.526a1.06,1.06,0,0,1,.154-.825c2.727-4.092,3.154-4.236,3.5-4.349.176-.058.581-.193,5.271-.195l8.921-2,8.041-9.813a1.077,1.077,0,0,1,.5-.339l4.422-1.444a1.061,1.061,0,0,1,1.343.664l4.216,12.1,5.864,1.275a1.077,1.077,0,0,1,.795.722l2.243,7.012a1.07,1.07,0,0,1-.233,1.054l-3.366,3.647-4.053,4.868-3.524,9.487-.274,6.005a1.068,1.068,0,0,1-.169.533l-2.957,4.568-1.369,10.143a1.086,1.086,0,0,1-.1.334l-2.661,5.322A30.206,30.206,0,0,0-908-10.5a31.241,31.241,0,0,0,4.947,6.826c3.981,1.178,10.4,2.961,11.488,2.961.306,0,.85.011,1.547.021,2.53.043,9.249.156,10.455-.246,1.493-.5,9.369-2.976,11.158-3.539.692-1,2.877-3.818,5.821-4.354,2.123-.386,5.945-3.745,7.571-5.32l.527-6.616a1.149,1.149,0,0,1,.053-.253l2.8-8.416a1.083,1.083,0,0,1,.347-.5l8.416-6.732,4.339-5.185a1.08,1.08,0,0,1,.938-.375l13.883,1.633,5.433-4.139,1.75-2.247.1-.373a1.072,1.072,0,0,1,.559-.675,1.069,1.069,0,0,1,.876-.03l2.552,1.043A1.1,1.1,0,0,1-812-46.7l3.194,3.906,5.174,2.142a1.058,1.058,0,0,1,.516.45l3.927,6.732a1.085,1.085,0,0,1,.094.21l2.055,6.359L-796-22.755l2.26,1.455a1.066,1.066,0,0,1,.491.846l.186,3.741a1.067,1.067,0,0,1-.741,1.073l-4.911,1.579-1.206,1.607.675,4.227.191,8.274,2.224,1.928c.133-.026.557-.056,1.345-.231.645-.144,2.38-2.213,3.743-4.456l1.084-3.252a1.07,1.07,0,0,1,.938-.731,1.042,1.042,0,0,1,1.035.589l2.8,5.611a1.069,1.069,0,0,1-.4,1.4A16.081,16.081,0,0,0-788.9,2.739c-.021.163-.435,2.378-.786,4.39l.891,8.551,1.8,2.554,4.36.467c2.618-1.806,5.427-3.826,5.8-4.229.336-.516,4.557-4.407,7.036-6.676l2.3-1.765a1.072,1.072,0,0,1,.863-.2,1.079,1.079,0,0,1,.718.518L-764.4,8.99a1.067,1.067,0,0,1,.141.572l-.176,4.756,2.29,4.231a1.061,1.061,0,0,1,.131.51V21.3a1.07,1.07,0,0,1-.409.842,25.585,25.585,0,0,1-3.818,2.584,39.1,39.1,0,0,1-3.861,1.037l-.752,2.4a1.078,1.078,0,0,1-.3.471l-4,3.638-1.978,3.235-2.127,2.721a1.069,1.069,0,0,1-.694.4l-6.577.915-3.964,1.817-.692,1.658v4.649a41.089,41.089,0,0,0-.092,5.943c.067.051.531.75-.116,3.991a1.073,1.073,0,0,1-.694.8l-3.923,1.386-2.432,4.306a1.046,1.046,0,0,1-.97.544,1.1,1.1,0,0,1-.45-.116l-1.335,1.026L-803.084,70l-.317,3.407,1.765,2.089a1.08,1.08,0,0,1,.251.613l.189,2.524a1.077,1.077,0,0,1-.184.683l-1.191,1.746.159,2.057a1.076,1.076,0,0,1-.369.893l-1.772,1.53-.336,1.815.484,1.026a1.065,1.065,0,0,1,.021.868,1.069,1.069,0,0,1-.626.6l-3.5,1.264-1.5,3.37a1.073,1.073,0,0,1-.66.587l-3.156.981a1.068,1.068,0,0,1-1.088-.279l-2.033-2.1-1.4-2.108a16.874,16.874,0,0,0-2.305.2c-.27.1-.844.3-1.414.495-.551.191-1.1.379-1.375.482a34.992,34.992,0,0,0-2.49,2.826,1.069,1.069,0,0,1-.649.381l-2.955.514-1.564,1.251-.568,3.655a1.068,1.068,0,0,1-.911.9l-1.538.212-1.489,2.38-2.9,3.362a1.077,1.077,0,0,1-.626.351l-3.646.632A1.363,1.363,0,0,1-842.964,109.218Zm-7.083-15.537a1.052,1.052,0,0,1,.364.064l1.753.632a1.076,1.076,0,0,1,.624.589l1.965,4.628,1.667,2.573a1.032,1.032,0,0,1,.133.3l1.3,4.469,2.365-.409,2.554-2.939,1.654-2.67a1.076,1.076,0,0,1,.763-.493l1.243-.171.51-3.278a1.072,1.072,0,0,1,.388-.673l2.106-1.684a1.1,1.1,0,0,1,.484-.219l2.83-.493c2.355-2.875,2.929-3.089,3.149-3.173.285-.1.859-.3,1.429-.5.551-.191,1.1-.379,1.375-.482a17.216,17.216,0,0,1,3.574-.349,1.146,1.146,0,0,1,.923.484l1.613,2.453,1.446,1.474,2.065-.641,1.487-3.344a1.07,1.07,0,0,1,.615-.572l2.822-1.02-.131-.274a1.069,1.069,0,0,1-.084-.653l.467-2.524a1.076,1.076,0,0,1,.354-.615l1.648-1.423-.146-1.892a1.068,1.068,0,0,1,.182-.686l1.191-1.748-.133-1.8-1.832-2.166a1.066,1.066,0,0,1-.249-.791l.373-4.021a1.081,1.081,0,0,1,.081-.317l2.057-4.863a1.064,1.064,0,0,1,.334-.431l2.432-1.87a1.061,1.061,0,0,1,.615-.221l2-3.548a1.066,1.066,0,0,1,.576-.482l3.715-1.315a8.459,8.459,0,0,0,.165-2.112c-.114-.135-.5-.718-.1-6.875l0-4.795a1.047,1.047,0,0,1,.084-.411l.934-2.243a1.072,1.072,0,0,1,.542-.563l4.489-2.057a1.11,1.11,0,0,1,.3-.088l6.305-.874,1.791-2.28,1.984-3.263a1.118,1.118,0,0,1,.193-.234l3.9-3.544.848-2.715a1.067,1.067,0,0,1,.788-.726c1.271-.283,3.514-.823,4.135-1.071a21.607,21.607,0,0,0,2.882-1.963V19.332l-2.3-4.251a1.063,1.063,0,0,1-.129-.548l.176-4.746-.75-1.311-1.258.962c-2.509,2.3-6.32,5.843-6.7,6.322-.094.148-.463.7-6.618,4.93a1.1,1.1,0,0,1-.72.182l-5.236-.561a1.069,1.069,0,0,1-.763-.448l-2.243-3.179a1.047,1.047,0,0,1-.188-.506L-791.83,7.2a1.036,1.036,0,0,1,.011-.294c.178-1.028.776-4.426.975-5.018.083-.255.27-.812,2.609-2.3l-1.21-2.421-.3.913a.945.945,0,0,1-.1.212c-.713,1.191-3.194,5.106-5.174,5.545a4.765,4.765,0,0,1-2.77.1,1.084,1.084,0,0,1-.223-.148l-2.8-2.43a1.079,1.079,0,0,1-.369-.788l-.186-8.6-.735-4.529a1.062,1.062,0,0,1,.2-.812l1.682-2.243a1.064,1.064,0,0,1,.529-.377l4.452-1.431-.118-2.37-2.155-1.386a1.073,1.073,0,0,1-.458-.641l-1.123-4.488-2-6.177-3.687-6.322-5.091-2.106a1.072,1.072,0,0,1-.42-.311l-3.192-3.9-1.33-.544-1.843,2.37a1.062,1.062,0,0,1-.2.195l-5.89,4.488a1.057,1.057,0,0,1-.778.212l-13.727-1.62-4.12,4.891-8.319,6.68-2.663,7.994-.551,6.884a1.077,1.077,0,0,1-.311.671c-.57.572-5.662,5.583-8.981,6.187-2.569.467-4.591,3.685-4.611,3.717a1.074,1.074,0,0,1-.589.458S-877.2.534-878.881,1.1c-1.29.428-5.4.45-11.171.356-.679-.011-1.213-.021-1.51-.021-1.75,0-10.61-2.607-12.369-3.13a1.074,1.074,0,0,1-.452-.27,33.341,33.341,0,0,1-5.53-7.572,32.586,32.586,0,0,1-2.633-9.624,1.085,1.085,0,0,1,.107-.591l2.727-5.45,1.378-10.2a1.082,1.082,0,0,1,.163-.439l2.929-4.523.266-5.883a1.135,1.135,0,0,1,.066-.326l3.646-9.817a1.07,1.07,0,0,1,.18-.311l4.208-5.052,2.98-3.229-1.866-5.83-5.847-1.27a1.068,1.068,0,0,1-.784-.694l-4.069-11.674-3.126,1.022-8.077,9.858a1.067,1.067,0,0,1-.594.364l-9.4,2.1a.972.972,0,0,1-.236.028c-1.776,0-3.863.032-4.587.086-.42.478-1.4,1.851-2.262,3.126l.294,1.313,3.848.349a1.074,1.074,0,0,1,.825.521l4.489,7.574a1.07,1.07,0,0,1,.143.662l-.679,6.237,2.745,9.191a1.083,1.083,0,0,1,.045.33l-.142,6.031a1.034,1.034,0,0,1-.06.332l-1.684,4.769a1.07,1.07,0,0,1-.911.711l-6.031.559a1.049,1.049,0,0,1-.913-.368l-3.366-3.927a1.075,1.075,0,0,1-.238-.908l.561-2.8a1.069,1.069,0,0,1,.653-.786l1.553-.621.574-3.156-1.873-.679a4.937,4.937,0,0,1-1.33.285l-.088.527.015,2.442a1.069,1.069,0,0,1-.206.63l-4.3,5.913-.171,3.792a1.072,1.072,0,0,1-.463.833l-2.993,2.057-1.382,1.174,1.468,1.241a1.253,1.253,0,0,1,.195.216l4.116,6.087,6.241,2.5a1.082,1.082,0,0,1,.369.246l7.293,7.482a1.01,1.01,0,0,1,.212.313l2.185,4.913,3.214,3.856,3.087-.771a1.048,1.048,0,0,1,.9.178L-913,3.986a1.064,1.064,0,0,1,.42.671l.748,4.114,2.035,7.387a1.067,1.067,0,0,1-.165.913l-2.093,2.9c.354,1.127.313,2.333-.726,2.856a7.5,7.5,0,0,1-3.646.1,1.079,1.079,0,0,1-.392-.15l-2.71-1.695-4.158.174-4.716.593,1.607,2.192a1.068,1.068,0,0,1,.208.632V27.1a1.068,1.068,0,0,1-.478.891l-2.243,1.5a1.023,1.023,0,0,1-.311.141l-7.205,1.984-.919.917.93,1.731,2,2.892,3.948,6.2a1.048,1.048,0,0,1,.15.386l.87,4.872,3.089,2.745a1.068,1.068,0,0,1,.268.369l2.059,4.675a1.081,1.081,0,0,1,.079.285l1.433,10.38,1.768,1.225h6.157l2.963-1.395a1.107,1.107,0,0,1,.369-.1l6.92-.561,6.288-.926a1.068,1.068,0,0,1,.752.167l1.123.748a1.069,1.069,0,0,1,.379.448l.936,2.059a1.082,1.082,0,0,1,.094.506l-.174,2.935,1.063,2.582,4.131,2.063a1.049,1.049,0,0,1,.456.439l.934,1.684a1.062,1.062,0,0,1,.135.542l-.187,8.788a1.081,1.081,0,0,1-.034.251l-.814,3.087,2.352,3.527a1.054,1.054,0,0,1,.154.368,27.4,27.4,0,0,1,.587,3.779l0,.077a1,1,0,0,1,.251.051l1.474.491a1.069,1.069,0,0,1,.731,1.016v2.106c.178.653.4,1.4.542,1.8.435.086,1.562.321,2.519.51l5.819.4a1.081,1.081,0,0,1,.448.129l.9-.525,1.637-1.9a1.082,1.082,0,0,1,.649-.358l2.734-.42a1.027,1.027,0,0,1,.42.019l5.485,1.354c.557-.075,1.166-.167,1.553-.238.09-.309.21-.769.313-1.23l-.529-3.233-.364-6.779a1.067,1.067,0,0,1,.274-.773,1.075,1.075,0,0,1,.743-.354l2.8-.139a1.044,1.044,0,0,1,.868.373l2.455,2.877,1.1.853c.2-.227.418-.465.572-.645a5.083,5.083,0,0,1,3.008-1.069A1.124,1.124,0,0,1-850.047,93.681Zm-23.141,12.5h0Z" transform="translate(948.55 86.875)" fill="#4e7985"/>
        </g>
        <g id="Group_56366" data-name="Group 56366" transform="translate(-880.04 101.105)">
          <path id="Path_102024" data-name="Path 102024" d="M-884.6,51.692a1.071,1.071,0,0,1-.544-.148,1.076,1.076,0,0,1-.521-.795c-.739-.413-1.489-.816-1.684-.889a6.3,6.3,0,0,1-2.331-2.438c-.077-.041-.84-.641-1.551-1.166l-12.159-.546a1.075,1.075,0,0,1-.936-.647l-.842-1.965a1.191,1.191,0,0,1-.071-.236l-.581-3.287-1.309.786-.795,2.751a1.117,1.117,0,0,1-.088.216l-.842,1.543a1.074,1.074,0,0,1-.484.456l-1.191.561a1.084,1.084,0,0,1-.872.017,11.336,11.336,0,0,1-2.745-1.725,6.841,6.841,0,0,1-2.327-4.165,23.884,23.884,0,0,1-.071-3.25,4.651,4.651,0,0,1,1.018-2.282,1.059,1.059,0,0,1,.609-.362l2.513-.514.724-1.868a21.855,21.855,0,0,0,.255-3.239c-.068-1.159-.206-2.391-.206-2.4a1.065,1.065,0,0,1,.174-.713l.84-1.262a1.075,1.075,0,0,1,.413-.364l1.684-.842a1.07,1.07,0,0,1,1.108.092l1.455,1.058,2.468,1.11.546-.028,1.174-2.142-.163-2.28-1.277-1.491-1.583-.611-3.188.945-1.356,1.294a1.076,1.076,0,0,1-.621.289s-1.286.141-2.286.212c-1.095.1-1.423-.493-1.523-.842a1.177,1.177,0,0,1,.431-1.268l-.054-2.012.418-3.512a1.072,1.072,0,0,1,.523-.795l2.029-1.187,1.637-1.9a1.082,1.082,0,0,1,.649-.358l2.734-.42a1.027,1.027,0,0,1,.42.019l5.485,1.354c.557-.075,1.166-.167,1.553-.238.09-.309.21-.769.313-1.23l-.529-3.233-.364-6.779a1.067,1.067,0,0,1,.274-.773,1.075,1.075,0,0,1,.743-.354l2.8-.139a1.044,1.044,0,0,1,.868.373l2.455,2.877,1.1.853c.2-.227.418-.465.572-.645A5.083,5.083,0,0,1-886.7.094a1.052,1.052,0,0,1,.482.058l1.753.632a1.076,1.076,0,0,1,.624.589L-881.875,6l1.667,2.573a1.032,1.032,0,0,1,.133.3l1.3,4.469,2.365-.409,2.554-2.939,1.654-2.67a1.076,1.076,0,0,1,.763-.493l1.243-.171.51-3.278a1.072,1.072,0,0,1,.388-.673l2.106-1.684a1.1,1.1,0,0,1,.484-.219l2.83-.493c2.355-2.875,2.929-3.089,3.149-3.173.285-.1.859-.3,1.429-.5.551-.191,1.1-.379,1.375-.482a17.216,17.216,0,0,1,3.574-.349,1.146,1.146,0,0,1,.923.484l1.613,2.453,1.446,1.474L-848.3-.42l1.487-3.344a1.07,1.07,0,0,1,.615-.572l1.532-.553a1.056,1.056,0,0,1,.887.073,1.068,1.068,0,0,1,.527.718l1.9,9.249a1.1,1.1,0,0,1,.019.251l-.139,4.349.557,5.468a1.073,1.073,0,0,1-.173.7l-4.908,7.432a1.068,1.068,0,0,1-.853.48l-16.315.692-2.762,1.38-1.123,3.5a1.077,1.077,0,0,1-.3.465l-3.085,2.8a1.079,1.079,0,0,1-.722.279h-4.193l-4.133,1.215-.833,1.98.133,3.974a1.108,1.108,0,0,1-.021.251l-.96,4.662v4.379a1.074,1.074,0,0,1-.583.953l-2.368,1.213A1.065,1.065,0,0,1-884.6,51.692Zm2.367-2.284h0Zm-20.39-5.808,11.812.531a1.067,1.067,0,0,1,.581.2c2.286,1.656,2.445,2.055,2.541,2.295a6.73,6.73,0,0,0,1.131,1.249,25.569,25.569,0,0,1,2.449,1.29l.805-.413V44.919a1.058,1.058,0,0,1,.021-.216l.958-4.643-.137-4.081a1.093,1.093,0,0,1,.084-.452l1.12-2.663a1.072,1.072,0,0,1,.686-.613l4.769-1.4a1.106,1.106,0,0,1,.3-.043h3.934L-869,28.469l1.174-3.653a1.079,1.079,0,0,1,.54-.632l3.366-1.682a1.078,1.078,0,0,1,.431-.111l16.009-.681,4.4-6.657-.523-5.232.131-4.362-1.613-7.835L-846.539.893a1.073,1.073,0,0,1-.66.587l-3.156.981a1.068,1.068,0,0,1-1.088-.279l-2.033-2.1-1.4-2.108a16.875,16.875,0,0,0-2.305.2c-.27.1-.844.3-1.414.495-.551.191-1.1.379-1.375.482a34.99,34.99,0,0,0-2.49,2.826,1.069,1.069,0,0,1-.649.381l-2.955.514-1.564,1.251-.568,3.655a1.068,1.068,0,0,1-.911.9l-1.538.212-1.489,2.38-2.9,3.362a1.077,1.077,0,0,1-.626.351l-3.646.632a1.074,1.074,0,0,1-1.2-.718l-.771-2.314-.816-2.984L-883.765,7l-1.862-4.358-1.073-.386a5.2,5.2,0,0,0-1.45.371c-.36.435-1.219,1.365-1.219,1.365a1.064,1.064,0,0,1-1.453.111l-2.033-1.611-2.258-2.618-1.211.06.3,5.59.548,3.319a1.067,1.067,0,0,1-.011.4c-.512,2.391-.791,2.575-1.084,2.772-.195.131-.42.281-2.841.593a1.17,1.17,0,0,1-.394-.024l-5.474-1.352-2.132.328-1.5,1.735a1.05,1.05,0,0,1-.27.225l-1.725,1.009-.347,2.826.058,1.783c.248-.026.474-.047.647-.064l1.279-1.221a1.063,1.063,0,0,1,.435-.253l3.788-1.123a1.073,1.073,0,0,1,.69.03l2.174.84a1.073,1.073,0,0,1,.427.3l1.682,1.965a1.068,1.068,0,0,1,.257.619l.21,2.946a1.07,1.07,0,0,1-.129.591l-1.613,2.946a1.079,1.079,0,0,1-.887.555l-1.4.071a1.055,1.055,0,0,1-.493-.094l-2.8-1.262a1.128,1.128,0,0,1-.191-.109l-1.016-.741-.846.424-.469.7c.049.473.126,1.311.174,2.119a24.724,24.724,0,0,1-.289,3.794,1.049,1.049,0,0,1-.062.231l-.981,2.526a1.077,1.077,0,0,1-.784.662l-2.674.546a2.089,2.089,0,0,0-.332.808,23.713,23.713,0,0,0,.073,2.918,4.852,4.852,0,0,0,1.6,2.708,8.966,8.966,0,0,0,1.753,1.163l.416-.195.619-1.133.878-3.044a1.068,1.068,0,0,1,.478-.621l2.8-1.682a1.074,1.074,0,0,1,.9-.094,1.072,1.072,0,0,1,.649.636l.422,1.123.66,3.642Z" transform="translate(916.573 4.955)" fill="#4e7985"/>
        </g>
        <g id="Group_56367" data-name="Group 56367" transform="translate(-890.063 127.867)">
          <path id="Path_102025" data-name="Path 102025" d="M-909.707,142.944a1.135,1.135,0,0,1-.315-.047l-5.47-1.684a1.123,1.123,0,0,1-.253-.116l-3.209-2.005a1.065,1.065,0,0,1-.428-.516l-1.748-4.446a1.066,1.066,0,0,1-.036-.668l.683-2.567-.748-3.833a1.074,1.074,0,0,1,.733-1.23l1.116-.347c-.056-.973-.139-2.524-.139-3.154a17.415,17.415,0,0,0-.354-2.127,16.066,16.066,0,0,1-.394-2.55,31.194,31.194,0,0,1,1.555-5.588l1.688-3.212c.778-3.094,1.429-4.917,1.932-5.423l5.75-5.75,1.249-6.595a1.028,1.028,0,0,1,.133-.351l4.8-8-.458-1.465a1.077,1.077,0,0,1,.242-1.052l2.7-2.89a1.064,1.064,0,0,1,.534-.311l2.837-.681c.251-1.275.788-3.961,1.011-4.741.126-.441,1.759-4.8,3.3-5.686a7.114,7.114,0,0,0,2.127-4.821c0-2.445-.274-5.483-.276-5.513a1.07,1.07,0,0,1,.538-1.028l6.172-3.507c1.742-.754,3.377-1.825,3.535-2.3.1-1.043.735-4.411,1.067-6.153a1.062,1.062,0,0,1-.315-.726l-.184-5.476a1.066,1.066,0,0,1,.583-.988l1.785-.915V30.648a1.058,1.058,0,0,1,.021-.216l.958-4.643-.137-4.081a1.093,1.093,0,0,1,.084-.452l1.12-2.663a1.072,1.072,0,0,1,.686-.613l4.769-1.4a1.106,1.106,0,0,1,.3-.043h3.934l2.569-2.335,1.174-3.653a1.079,1.079,0,0,1,.54-.632l3.366-1.682a1.078,1.078,0,0,1,.431-.111l13.3-.578a1.054,1.054,0,0,1,1.108.992l.394,5.414L-842.313,16a1.118,1.118,0,0,1,.114.448l.186,6.545,1.112,8.116a1.065,1.065,0,0,1-.041.465l-1.12,3.554-2.132,4.1a1.061,1.061,0,0,1-.354.394l-2.329,1.553v2.727l1.2,2.391a1.066,1.066,0,0,1,.114.531l-.186,3.741-1.714,6.939-1.4,7.52,2.05,2.781,4.743.341a1.07,1.07,0,0,1,.923.683l.671,1.744h.624l1.986-1.834,1.127-2.17a1.067,1.067,0,0,1,1.095-.568l2.8.373a1.067,1.067,0,0,1,.686.386l2.526,3.085,1.965,3.312a1.087,1.087,0,0,1,.148.566l-.094,4.861a1.061,1.061,0,0,1-.323.746l-3.565,3.482,1.022,11.959a1.076,1.076,0,0,1-.589,1.05l-.754.377-1.712,3.248-4.231,5.228a1.06,1.06,0,0,1-.578.364l-3.394.821-.227,1.208.54,1.08a1.068,1.068,0,0,1-.1,1.114l-1.8,2.449-.212,1.483a4.662,4.662,0,0,1,.12,1.043,8.887,8.887,0,0,1-.476,2.164,1.04,1.04,0,0,1-.259.418l-3.786,3.786-6.091,5.245a1.051,1.051,0,0,1-.821.253l-6.031-.7a1.063,1.063,0,0,1-.69-.366,4.268,4.268,0,0,1-1.1-2.38,10.3,10.3,0,0,1,1.4-3.471,1.11,1.11,0,0,1,.152-.206l1.322-1.412a7.829,7.829,0,0,0-1.286-.878c-.161.026-1.673.186-2.635.3a1.086,1.086,0,0,1-.568-.088c-1.7-.765-3.694-1.073-3.947-.608-.99,1.838-1.555,2.828-1.555,2.828a1.056,1.056,0,0,1-.379.386l-2.8,1.684a1.067,1.067,0,0,1-1.144-.028l-1.684-1.121a1.066,1.066,0,0,1-.21-.184l-1.688-1.913-3.314.709a1.073,1.073,0,0,1-.563-.03l-1.448-.484-1.251,1.345-2.314,4.632a1.086,1.086,0,0,1-.351.4l-1.825,1.256-.24,2.858a1.057,1.057,0,0,1-.317.675l-7.854,7.715a1.071,1.071,0,0,1-.214.163l-5.328,3.085-6.6,2.6A1.1,1.1,0,0,1-909.707,142.944Zm-5.022-3.736,4.981,1.53,6.1-2.387,5.065-2.948,7.475-7.34.249-2.969a1.066,1.066,0,0,1,.461-.793l2.016-1.386,2.26-4.523a1.008,1.008,0,0,1,.174-.251l1.823-1.963a1.064,1.064,0,0,1,1.125-.287l1.825.608,3.64-.78a1.057,1.057,0,0,1,1.028.339l2.012,2.28,1,.668,1.982-1.189c.221-.392.7-1.255,1.393-2.539,1.275-2.367,5.138-1,6.436-.45.711-.081,2.28-.255,2.783-.255.287,0,.96,0,3.366,2.085a1.076,1.076,0,0,1,.369.754,1.064,1.064,0,0,1-.289.788l-2.014,2.149a11.667,11.667,0,0,0-1.062,2.342,2.433,2.433,0,0,0,.345.638l5.114.593,5.676-4.883,3.544-3.548a6.574,6.574,0,0,0,.291-1.251,2.4,2.4,0,0,0-.088-.651,1.106,1.106,0,0,1-.041-.48l.278-1.965a1.084,1.084,0,0,1,.2-.484l1.575-2.138-.407-.814a1.058,1.058,0,0,1-.094-.677l.42-2.245a1.07,1.07,0,0,1,.8-.842l3.715-.9,3.886-4.769,1.755-3.377a1.085,1.085,0,0,1,.467-.458l.416-.208-1-11.741a1.072,1.072,0,0,1,.319-.857l3.612-3.527.079-4.12-1.718-2.92-2.158-2.62-1.643-.221-.868,1.671a1.069,1.069,0,0,1-.225.294l-2.432,2.243a1.061,1.061,0,0,1-.726.285h-1.778a1.07,1.07,0,0,1-1-.688l-.69-1.8-4.559-.326a1.064,1.064,0,0,1-.784-.433l-2.618-3.552a1.069,1.069,0,0,1-.193-.831l1.5-8.043,1.7-6.8.143-3.25-1.185-2.37a1.061,1.061,0,0,1-.113-.478V40.606a1.074,1.074,0,0,1,.478-.891L-845.964,38l1.93-3.685.977-3.147-1.09-7.994-.189-6.421-1.018-2.033a1.046,1.046,0,0,1-.109-.4l-.334-4.6-12.019.529-2.762,1.38-1.123,3.5a1.077,1.077,0,0,1-.3.465l-3.085,2.8a1.079,1.079,0,0,1-.722.279H-870l-4.133,1.215-.833,1.98.133,3.974a1.108,1.108,0,0,1-.021.251l-.96,4.662v4.379a1.074,1.074,0,0,1-.583.953l-1.763.9.126,3.809a1.087,1.087,0,0,1,.225.174,1.067,1.067,0,0,1,.291.96c-.386,1.971-1.142,5.984-1.247,7.053-.184,1.834-3.357,3.383-4.713,3.964l-5.468,3.115c.084,1.065.227,3.171.227,5.018,0,2.961-1.9,5.935-3.205,6.68-.566.384-1.98,3.274-2.305,4.414-.221.769-.87,4.043-1.1,5.241a1.073,1.073,0,0,1-.8.838l-3.194.765-2.059,2.2.416,1.328a1.083,1.083,0,0,1-.1.872l-4.951,8.251L-907.3,98.4a1.077,1.077,0,0,1-.3.559l-5.982,5.984a31.782,31.782,0,0,0-1.4,4.551,1.034,1.034,0,0,1-.092.242l-1.684,3.179a35.832,35.832,0,0,0-1.371,4.739,17.508,17.508,0,0,0,.354,2.123,16.066,16.066,0,0,1,.394,2.55c0,.917.186,3.856.186,3.859a1.075,1.075,0,0,1-.752,1.091l-1,.313.611,3.134a1.079,1.079,0,0,1-.015.482l-.658,2.464,1.489,3.79Zm86.044-60.639h0Z" transform="translate(921.251 -7.537)" fill="#4e7985"/>
        </g>
        <g id="Group_56368" data-name="Group 56368" transform="translate(-819.888 98.808)">
          <path id="Path_102026" data-name="Path 102026" d="M-866.178,116.781a1.057,1.057,0,0,1-.311-.045,1.072,1.072,0,0,1-.748-1.189l.54-3.469-1.238-1.033-.555.276a1.066,1.066,0,0,1-1-.024,1.074,1.074,0,0,1-.542-.844L-871.1,97.99a1.072,1.072,0,0,1,.319-.857l3.612-3.527.079-4.12-1.718-2.92-2.158-2.62-1.643-.221-.868,1.671a1.069,1.069,0,0,1-.225.294l-2.432,2.243a1.061,1.061,0,0,1-.726.285h-1.778a1.07,1.07,0,0,1-1-.688l-.69-1.8-4.559-.326a1.064,1.064,0,0,1-.784-.433l-2.618-3.552a1.069,1.069,0,0,1-.193-.831l1.5-8.043,1.7-6.8.143-3.25-1.185-2.37a1.061,1.061,0,0,1-.113-.478V56.1a1.074,1.074,0,0,1,.478-.891l2.577-1.718,1.93-3.685.977-3.147-1.09-7.994-.189-6.421-1.018-2.033a1.046,1.046,0,0,1-.109-.4l-.409-5.628a1.071,1.071,0,0,1,.27-.791,1.06,1.06,0,0,1,.758-.356l2.71-.1,4.4-6.657-.523-5.232.131-4.362-1.879-9.127a1.068,1.068,0,0,1,.686-1.221l2.4-.868a1.072,1.072,0,0,1,1.333.551l.656,1.384,3.439-.146,1-.538a1.057,1.057,0,0,1,.79-.09l3.63,1,2.665.144,1.735-3.233a1.071,1.071,0,0,1,.752-.548,1.085,1.085,0,0,1,.9.249l2.243,1.963a1.075,1.075,0,0,1,.253.328l1.5,2.991a1.1,1.1,0,0,1,.1.343l.375,2.9a1.082,1.082,0,0,1-.182.75l-.99,1.42c1.648,1.7,1.648,2,1.648,2.361,0,.242-.191,3.3-.317,5.307l3.289.658,5.515,1.611a1.06,1.06,0,0,1,.619.48l1.628,2.74,3.057,1.673,2.455-1.894,1.753-5.714a1.078,1.078,0,0,1,.516-.656l8.135-4.488a1.08,1.08,0,0,1,1.063.015,1.073,1.073,0,0,1,.525.923v3.272a1.063,1.063,0,0,1-.073.392l-.576,1.468,7.979,1.967a1.071,1.071,0,0,1,.756.711l1.4,4.394,1.183,2.871,3.372,3.014a1.06,1.06,0,0,1,.345.645l.561,3.833.349,3.741,1.281,1.521a1.073,1.073,0,0,1,.114,1.215l-1.684,2.993a1.062,1.062,0,0,1-.529.467l-2.76,1.118.135,3.117,1.866,1.8,6.942.889a1.075,1.075,0,0,1,.9.769l.934,3.274,1.542,3.467,3.878,1.431a1.1,1.1,0,0,1,.42.285L-794.1,58.6l3.265,1.671,5.51-1.787a1.072,1.072,0,0,1,1.022.2,1.068,1.068,0,0,1,.368.975L-788,86.744a1.07,1.07,0,0,1-.7.851,1.071,1.071,0,0,1-1.082-.223l-2.432-2.243a61.6,61.6,0,0,0-6.348-3.659c-.323.032-3.726.683-6.734,1.3a1,1,0,0,1-.4.006l-6.545-1.123a1.061,1.061,0,0,1-.808-.645l-2.245-5.423-3.426-5.281-3.25-.887-4.086,2.723,1.033,7.565,1.648,5.448.6,4.469a1.07,1.07,0,0,1-.756,1.166l-8.788,2.618-16.889,7.276-3.756,8.583a1.06,1.06,0,0,1-.364.448l-2.331,1.641a1.078,1.078,0,0,1-.491.189l-7.312.859-1.737,3.756A1.068,1.068,0,0,1-866.178,116.781Zm-1.611-8.079a1.081,1.081,0,0,1,.688.249l2.106,1.755a1.06,1.06,0,0,1,.681-.358l7.638-.9,1.866-1.313,3.805-8.7a1.069,1.069,0,0,1,.568-.557l5.8-2.432,11.58-5.046,8.039-2.4-.443-3.4-1.648-5.442-1.157-8.392a1.071,1.071,0,0,1,.467-1.035l5.05-3.366a1.067,1.067,0,0,1,.876-.141l4.114,1.121a1.074,1.074,0,0,1,.619.452l3.739,5.8,2.106,5.048,5.768.99c2.04-.42,6.376-1.292,7.124-1.292.317,0,1.058,0,7.494,4.094l1.095,1,3.507-23.377-4.287,1.39a1.066,1.066,0,0,1-.818-.066l-3.833-1.965a1.024,1.024,0,0,1-.3-.231l-1.789-1.958-4.058-1.5a1.071,1.071,0,0,1-.609-.572l-1.776-4.021-.789-2.732-6.6-.846a1.076,1.076,0,0,1-.606-.291l-2.432-2.337a1.08,1.08,0,0,1-.328-.726l-.187-4.3a1.074,1.074,0,0,1,.668-1.039l3.113-1.262,1.133-2.018-1.018-1.208a1.057,1.057,0,0,1-.246-.591l-.375-4.021-.5-3.392-3.265-2.92a1.078,1.078,0,0,1-.274-.39l-1.309-3.179-1.253-3.912-8.568-2.093a1.07,1.07,0,0,1-.7-.544,1.067,1.067,0,0,1-.049-.889l.953-2.43V9.763l-6.149,3.392L-833,14.776l-1.324,4.071a1.076,1.076,0,0,1-.364.516l-3.274,2.524a1.072,1.072,0,0,1-1.168.09l-3.927-2.149a1.059,1.059,0,0,1-.407-.394l-1.562-2.629-5.018-1.47-4.118-.821a1.074,1.074,0,0,1-.859-1.118s.294-4.593.36-5.832c-.3-.371-1.022-1.142-1.637-1.757a1.075,1.075,0,0,1-.122-1.371l1.26-1.81-.3-2.31-1.32-2.642-1.073-.938-1.421,2.648a1.039,1.039,0,0,1-1,.563l-3.46-.189a.9.9,0,0,1-.227-.036l-3.327-.915-.838.452a1.052,1.052,0,0,1-.461.126l-4.394.186a1.029,1.029,0,0,1-1.016-.613l-.54-1.144-.609.219,1.718,8.341a1.1,1.1,0,0,1,.019.251l-.139,4.349.557,5.468a1.073,1.073,0,0,1-.173.7l-4.908,7.432a1.068,1.068,0,0,1-.853.48l-2.153.081.313,4.309,1.028,2.057a1.118,1.118,0,0,1,.114.448l.186,6.545,1.112,8.116a1.065,1.065,0,0,1-.041.465l-1.123,3.554-2.13,4.1a1.061,1.061,0,0,1-.354.394l-2.329,1.553V59.4l1.2,2.391a1.066,1.066,0,0,1,.114.531l-.186,3.741-1.714,6.939-1.4,7.52,2.05,2.781,4.743.341a1.07,1.07,0,0,1,.923.683l.671,1.744h.624l1.986-1.834,1.127-2.17a1.067,1.067,0,0,1,1.095-.568l2.8.373a1.067,1.067,0,0,1,.686.386l2.526,3.085,1.965,3.312a1.087,1.087,0,0,1,.148.566l-.094,4.861a1.061,1.061,0,0,1-.323.746l-3.565,3.482.889,10.419A1.058,1.058,0,0,1-867.789,108.7Zm11.507,1.778h0Z" transform="translate(888.497 6.027)" fill="#4e7985"/>
        </g>
        <g id="Group_56369" data-name="Group 56369" transform="translate(-779.965 201.284)">
          <path id="Path_102027" data-name="Path 102027" transform="translate(869.863 -41.804)" fill="#4e7985"/>
        </g>
      </g>
      <path id="Path_102094" data-name="Path 102094" d="M12.209,12.963H9.468L8.935,15H6.809l3.11-9.953h1.839L14.889,15H12.743Zm-2.3-1.675h1.859l-.93-3.548ZM17.166,7.6l.055.731a2.052,2.052,0,0,1,1.716-.868q1.907,0,1.962,2.673V15H18.957V10.283a1.7,1.7,0,0,0-.188-.913.732.732,0,0,0-.66-.284.9.9,0,0,0-.82.54V15H15.347V7.6Zm7.369-1.818V7.6h.991V9.053h-.991v3.677a1.084,1.084,0,0,0,.12.6.54.54,0,0,0,.461.164,1.808,1.808,0,0,0,.458-.048l-.014,1.5a3.013,3.013,0,0,1-1.066.185q-1.873,0-1.894-2.149V9.053h-.854V7.6H22.6V5.785ZM28.616,15H26.674V7.6h1.941Zm-2.03-9.311a1,1,0,0,1,.287-.738,1.164,1.164,0,0,1,1.531,0,1,1,0,0,1,.287.738,1.053,1.053,0,1,1-2.105,0Zm3.3,5.373a4.016,4.016,0,0,1,.793-2.639,3.01,3.01,0,0,1,4.4,0,4.039,4.039,0,0,1,.793,2.652v.472a4.023,4.023,0,0,1-.786,2.639,3.033,3.033,0,0,1-4.413,0,4.037,4.037,0,0,1-.79-2.649Zm1.941.485q0,1.982,1.06,1.982.978,0,1.053-1.654l.007-.813a3.112,3.112,0,0,0-.28-1.5.873.873,0,0,0-.793-.489.851.851,0,0,0-.769.489,3.145,3.145,0,0,0-.277,1.5Zm4.99-.485a4.836,4.836,0,0,1,.608-2.707,2.045,2.045,0,0,1,1.8-.889,1.766,1.766,0,0,1,1.545.875L40.9,7.6h1.688v10.24H40.647V14.426a1.7,1.7,0,0,1-1.422.711,2.015,2.015,0,0,1-1.781-.906,4.719,4.719,0,0,1-.625-2.608Zm1.941.485a3.614,3.614,0,0,0,.232,1.528.818.818,0,0,0,.793.455.93.93,0,0,0,.861-.458V9.552a.915.915,0,0,0-.854-.479.823.823,0,0,0-.79.444A3.434,3.434,0,0,0,38.76,11Zm8.914,2.775a1.905,1.905,0,0,1-1.613.813,1.812,1.812,0,0,1-1.545-.7A3.359,3.359,0,0,1,43.99,12.4V7.6h1.935v4.84q.014,1.08.718,1.08a1,1,0,0,0,.957-.574V7.6h1.948V15H47.729ZM52.958,15H51.017V7.6h1.941Zm-2.03-9.311a1,1,0,0,1,.287-.738,1.164,1.164,0,0,1,1.531,0,1,1,0,0,1,.287.738,1.053,1.053,0,1,1-2.105,0ZM57.969,15a2.7,2.7,0,0,1-.164-.574,1.653,1.653,0,0,1-1.408.711,2.084,2.084,0,0,1-1.542-.615,2.162,2.162,0,0,1-.612-1.593,2.239,2.239,0,0,1,.742-1.8,3.244,3.244,0,0,1,2.136-.649h.588V9.887a1.114,1.114,0,0,0-.171-.7.613.613,0,0,0-.5-.205q-.725,0-.725.848H54.38a2.141,2.141,0,0,1,.769-1.692,2.863,2.863,0,0,1,1.945-.667,2.629,2.629,0,0,1,1.883.632,2.374,2.374,0,0,1,.667,1.808v3.479a3.641,3.641,0,0,0,.273,1.5V15Zm-1.142-1.381a1.079,1.079,0,0,0,.547-.13.92.92,0,0,0,.335-.308V11.644h-.465a.992.992,0,0,0-.776.314,1.208,1.208,0,0,0-.284.841Q56.185,13.619,56.828,13.619Z" transform="translate(1125 9670)" fill="#12263f"/>
      <path id="Path_102093" data-name="Path 102093" d="M9.954,12.389a1.247,1.247,0,0,0-.311-.919,3.581,3.581,0,0,0-1.131-.646,5.272,5.272,0,0,1-2.153-1.33,2.672,2.672,0,0,1-.656-1.8,2.525,2.525,0,0,1,.892-2.02A3.366,3.366,0,0,1,8.86,4.91a3.393,3.393,0,0,1,1.634.386,2.679,2.679,0,0,1,1.1,1.09,3.271,3.271,0,0,1,.386,1.6h-2a1.651,1.651,0,0,0-.3-1.063,1.042,1.042,0,0,0-.858-.366,1.074,1.074,0,0,0-.82.311,1.169,1.169,0,0,0-.294.837,1.031,1.031,0,0,0,.328.742A3.773,3.773,0,0,0,9.2,9.135a4.979,4.979,0,0,1,2.116,1.292,2.878,2.878,0,0,1,.66,1.948,2.569,2.569,0,0,1-.827,2.03,3.274,3.274,0,0,1-2.249.731,3.873,3.873,0,0,1-1.757-.4A2.974,2.974,0,0,1,5.9,13.605a3.3,3.3,0,0,1-.448-1.743H7.472a1.9,1.9,0,0,0,.335,1.251A1.371,1.371,0,0,0,8.9,13.5Q9.954,13.5,9.954,12.389ZM16.728,15a2.7,2.7,0,0,1-.164-.574,1.653,1.653,0,0,1-1.408.711,2.084,2.084,0,0,1-1.542-.615A2.162,2.162,0,0,1,13,12.929a2.239,2.239,0,0,1,.742-1.8,3.244,3.244,0,0,1,2.136-.649h.588V9.887a1.114,1.114,0,0,0-.171-.7.613.613,0,0,0-.5-.205q-.725,0-.725.848H13.139a2.141,2.141,0,0,1,.769-1.692,2.863,2.863,0,0,1,1.945-.667,2.629,2.629,0,0,1,1.883.632A2.374,2.374,0,0,1,18.4,9.907v3.479a3.641,3.641,0,0,0,.273,1.5V15Zm-1.142-1.381a1.079,1.079,0,0,0,.547-.13.92.92,0,0,0,.335-.308V11.644H16a.992.992,0,0,0-.776.314,1.208,1.208,0,0,0-.284.841Q14.944,13.619,15.586,13.619ZM21.575,7.6l.055.731a2.052,2.052,0,0,1,1.716-.868q1.907,0,1.962,2.673V15H23.366V10.283a1.7,1.7,0,0,0-.188-.913.732.732,0,0,0-.66-.284.9.9,0,0,0-.82.54V15H19.756V7.6Zm7.369-1.818V7.6h.991V9.053h-.991v3.677a1.084,1.084,0,0,0,.12.6.54.54,0,0,0,.461.164,1.808,1.808,0,0,0,.458-.048l-.014,1.5a3.013,3.013,0,0,1-1.066.185q-1.873,0-1.894-2.149V9.053h-.854V7.6h.854V5.785ZM34.508,15a2.7,2.7,0,0,1-.164-.574,1.653,1.653,0,0,1-1.408.711,2.084,2.084,0,0,1-1.542-.615,2.162,2.162,0,0,1-.612-1.593,2.239,2.239,0,0,1,.742-1.8,3.244,3.244,0,0,1,2.136-.649h.588V9.887a1.114,1.114,0,0,0-.171-.7.613.613,0,0,0-.5-.205q-.725,0-.725.848H30.919a2.141,2.141,0,0,1,.769-1.692,2.863,2.863,0,0,1,1.945-.667,2.629,2.629,0,0,1,1.883.632,2.374,2.374,0,0,1,.667,1.808v3.479a3.641,3.641,0,0,0,.273,1.5V15Zm-1.142-1.381a1.079,1.079,0,0,0,.547-.13.92.92,0,0,0,.335-.308V11.644h-.465a.992.992,0,0,0-.776.314,1.208,1.208,0,0,0-.284.841Q32.724,13.619,33.367,13.619ZM39.355,7.6l.055.731a2.052,2.052,0,0,1,1.716-.868q1.907,0,1.962,2.673V15H41.146V10.283a1.7,1.7,0,0,0-.188-.913.732.732,0,0,0-.66-.284.9.9,0,0,0-.82.54V15H37.537V7.6Zm4.86,3.473a4.829,4.829,0,0,1,.615-2.714,2.037,2.037,0,0,1,1.791-.9,1.727,1.727,0,0,1,1.422.738V4.5h1.948V15H48.235l-.089-.752a1.782,1.782,0,0,1-1.531.889,2.02,2.02,0,0,1-1.774-.889,4.673,4.673,0,0,1-.625-2.611Zm1.941.485a3.529,3.529,0,0,0,.232,1.528.819.819,0,0,0,.786.434.943.943,0,0,0,.868-.513V9.634a.922.922,0,0,0-.861-.547.833.833,0,0,0-.779.431,3.352,3.352,0,0,0-.246,1.531ZM54.4,15.137a3.032,3.032,0,0,1-2.324-.889,3.578,3.578,0,0,1-.834-2.543v-.588a4.206,4.206,0,0,1,.766-2.7,2.655,2.655,0,0,1,2.194-.95,2.513,2.513,0,0,1,2.1.891A4.25,4.25,0,0,1,57.019,11v.949H53.17a2.013,2.013,0,0,0,.362,1.2,1.225,1.225,0,0,0,.991.381,2.175,2.175,0,0,0,1.62-.663l.759,1.169a2.5,2.5,0,0,1-1.032.8A3.543,3.543,0,0,1,54.4,15.137ZM53.184,10.6h1.935V10.42a2.067,2.067,0,0,0-.219-1,.761.761,0,0,0-.711-.342.8.8,0,0,0-.735.362A2.5,2.5,0,0,0,53.184,10.6ZM61.763,9.47l-.643-.055a1.056,1.056,0,0,0-1.073.7V15H58.106V7.6h1.825l.055.8a1.4,1.4,0,0,1,1.265-.937,1.355,1.355,0,0,1,.533.089Z" transform="translate(1239 9680)" fill="#12263f"/>
      <path id="Path_102092" data-name="Path 102092" d="M17.066,15h-2.01L12.117,8.472V15h-2.01V5.047h2.01l2.946,6.535V5.047h2Zm1.292-3.937a4.016,4.016,0,0,1,.793-2.639,2.694,2.694,0,0,1,2.194-.957,2.71,2.71,0,0,1,2.208.957,4.039,4.039,0,0,1,.793,2.652v.472a4.023,4.023,0,0,1-.786,2.639,2.7,2.7,0,0,1-2.2.95,2.712,2.712,0,0,1-2.211-.954,4.037,4.037,0,0,1-.79-2.649Zm1.941.485q0,1.982,1.06,1.982.978,0,1.053-1.654l.007-.813a3.112,3.112,0,0,0-.28-1.5.873.873,0,0,0-.793-.489.851.851,0,0,0-.769.489,3.145,3.145,0,0,0-.277,1.5ZM29.2,9.47l-.643-.055a1.056,1.056,0,0,0-1.073.7V15H25.543V7.6h1.825l.055.8a1.4,1.4,0,0,1,1.265-.937,1.355,1.355,0,0,1,.533.089Zm3.582-3.685V7.6h.991V9.053h-.991v3.677a1.084,1.084,0,0,0,.12.6.54.54,0,0,0,.461.164,1.808,1.808,0,0,0,.458-.048l-.014,1.5a3.013,3.013,0,0,1-1.066.185q-1.873,0-1.894-2.149V9.053h-.854V7.6h.854V5.785Zm5.038,9.352a3.032,3.032,0,0,1-2.324-.889,3.578,3.578,0,0,1-.834-2.543v-.588a4.206,4.206,0,0,1,.766-2.7,2.655,2.655,0,0,1,2.194-.95,2.513,2.513,0,0,1,2.1.891A4.25,4.25,0,0,1,40.438,11v.949H36.59a2.013,2.013,0,0,0,.362,1.2,1.225,1.225,0,0,0,.991.381,2.175,2.175,0,0,0,1.62-.663l.759,1.169a2.5,2.5,0,0,1-1.032.8A3.543,3.543,0,0,1,37.82,15.137ZM36.6,10.6h1.935V10.42a2.067,2.067,0,0,0-.219-1,.761.761,0,0,0-.711-.342.8.8,0,0,0-.735.362A2.5,2.5,0,0,0,36.6,10.6Zm7.9.479a4.829,4.829,0,0,1,.615-2.714,2.037,2.037,0,0,1,1.791-.9,1.727,1.727,0,0,1,1.422.738V4.5h1.948V15H48.519l-.089-.752a1.782,1.782,0,0,1-1.531.889,2.02,2.02,0,0,1-1.774-.889,4.673,4.673,0,0,1-.625-2.611Zm1.941.485a3.529,3.529,0,0,0,.232,1.528.819.819,0,0,0,.786.434.943.943,0,0,0,.868-.513V9.634a.922.922,0,0,0-.861-.547.833.833,0,0,0-.779.431,3.352,3.352,0,0,0-.246,1.531Zm8.244,3.575a3.032,3.032,0,0,1-2.324-.889,3.578,3.578,0,0,1-.834-2.543v-.588a4.206,4.206,0,0,1,.766-2.7,2.655,2.655,0,0,1,2.194-.95,2.513,2.513,0,0,1,2.1.891A4.25,4.25,0,0,1,57.3,11v.949H53.454a2.013,2.013,0,0,0,.362,1.2,1.225,1.225,0,0,0,.991.381,2.175,2.175,0,0,0,1.62-.663l.759,1.169a2.5,2.5,0,0,1-1.032.8A3.543,3.543,0,0,1,54.685,15.137ZM53.468,10.6H55.4V10.42a2.067,2.067,0,0,0-.219-1,.761.761,0,0,0-.711-.342.8.8,0,0,0-.735.362A2.5,2.5,0,0,0,53.468,10.6ZM9.954,30.389a1.247,1.247,0,0,0-.311-.919,3.581,3.581,0,0,0-1.131-.646,5.272,5.272,0,0,1-2.153-1.33,2.672,2.672,0,0,1-.656-1.8,2.525,2.525,0,0,1,.892-2.02A3.366,3.366,0,0,1,8.86,22.91a3.393,3.393,0,0,1,1.634.386,2.679,2.679,0,0,1,1.1,1.09,3.271,3.271,0,0,1,.386,1.6h-2a1.651,1.651,0,0,0-.3-1.063,1.042,1.042,0,0,0-.858-.366,1.074,1.074,0,0,0-.82.311,1.169,1.169,0,0,0-.294.837,1.031,1.031,0,0,0,.328.742,3.773,3.773,0,0,0,1.162.687,4.979,4.979,0,0,1,2.116,1.292,2.878,2.878,0,0,1,.66,1.948,2.569,2.569,0,0,1-.827,2.03,3.274,3.274,0,0,1-2.249.731,3.873,3.873,0,0,1-1.757-.4A2.974,2.974,0,0,1,5.9,31.605a3.3,3.3,0,0,1-.448-1.743H7.472a1.9,1.9,0,0,0,.335,1.251A1.371,1.371,0,0,0,8.9,31.5Q9.954,31.5,9.954,30.389ZM16.728,33a2.7,2.7,0,0,1-.164-.574,1.653,1.653,0,0,1-1.408.711,2.084,2.084,0,0,1-1.542-.615A2.162,2.162,0,0,1,13,30.929a2.239,2.239,0,0,1,.742-1.8,3.244,3.244,0,0,1,2.136-.649h.588v-.595a1.114,1.114,0,0,0-.171-.7.613.613,0,0,0-.5-.205q-.725,0-.725.848H13.139a2.141,2.141,0,0,1,.769-1.692,2.863,2.863,0,0,1,1.945-.667,2.629,2.629,0,0,1,1.883.632,2.374,2.374,0,0,1,.667,1.808v3.479a3.641,3.641,0,0,0,.273,1.5V33Zm-1.142-1.381a1.079,1.079,0,0,0,.547-.13.92.92,0,0,0,.335-.308V29.644H16a.992.992,0,0,0-.776.314,1.208,1.208,0,0,0-.284.841Q14.944,31.619,15.586,31.619ZM21.575,25.6l.055.731a2.052,2.052,0,0,1,1.716-.868q1.907,0,1.962,2.673V33H23.366V28.283a1.7,1.7,0,0,0-.188-.913.732.732,0,0,0-.66-.284.9.9,0,0,0-.82.54V33H19.756V25.6Zm7.369-1.818V25.6h.991v1.449h-.991v3.677a1.084,1.084,0,0,0,.12.6.54.54,0,0,0,.461.164,1.808,1.808,0,0,0,.458-.048l-.014,1.5a3.013,3.013,0,0,1-1.066.185q-1.873,0-1.894-2.149V27.053h-.854V25.6h.854V23.785ZM34.508,33a2.7,2.7,0,0,1-.164-.574,1.653,1.653,0,0,1-1.408.711,2.084,2.084,0,0,1-1.542-.615,2.162,2.162,0,0,1-.612-1.593,2.239,2.239,0,0,1,.742-1.8,3.244,3.244,0,0,1,2.136-.649h.588v-.595a1.114,1.114,0,0,0-.171-.7.613.613,0,0,0-.5-.205q-.725,0-.725.848H30.919a2.141,2.141,0,0,1,.769-1.692,2.863,2.863,0,0,1,1.945-.667,2.629,2.629,0,0,1,1.883.632,2.374,2.374,0,0,1,.667,1.808v3.479a3.641,3.641,0,0,0,.273,1.5V33Zm-1.142-1.381a1.079,1.079,0,0,0,.547-.13.92.92,0,0,0,.335-.308V29.644h-.465a.992.992,0,0,0-.776.314,1.208,1.208,0,0,0-.284.841Q32.724,31.619,33.367,31.619ZM39.355,25.6l.055.731a2.052,2.052,0,0,1,1.716-.868q1.907,0,1.962,2.673V33H41.146V28.283a1.7,1.7,0,0,0-.188-.913.732.732,0,0,0-.66-.284.9.9,0,0,0-.82.54V33H37.537V25.6Zm4.86,3.473a4.829,4.829,0,0,1,.615-2.714,2.037,2.037,0,0,1,1.791-.9,1.727,1.727,0,0,1,1.422.738V22.5h1.948V33H48.235l-.089-.752a1.782,1.782,0,0,1-1.531.889,2.02,2.02,0,0,1-1.774-.889,4.673,4.673,0,0,1-.625-2.611Zm1.941.485a3.529,3.529,0,0,0,.232,1.528.819.819,0,0,0,.786.434.943.943,0,0,0,.868-.513V27.634a.922.922,0,0,0-.861-.547.833.833,0,0,0-.779.431,3.352,3.352,0,0,0-.246,1.531ZM54.4,33.137a3.032,3.032,0,0,1-2.324-.889,3.578,3.578,0,0,1-.834-2.543v-.588a4.206,4.206,0,0,1,.766-2.7,2.655,2.655,0,0,1,2.194-.95,2.513,2.513,0,0,1,2.1.891A4.25,4.25,0,0,1,57.019,29v.949H53.17a2.013,2.013,0,0,0,.362,1.2,1.225,1.225,0,0,0,.991.381,2.175,2.175,0,0,0,1.62-.663l.759,1.169a2.5,2.5,0,0,1-1.032.8A3.543,3.543,0,0,1,54.4,33.137ZM53.184,28.6h1.935V28.42a2.067,2.067,0,0,0-.219-1,.761.761,0,0,0-.711-.342.8.8,0,0,0-.735.362A2.5,2.5,0,0,0,53.184,28.6Zm8.579-1.128-.643-.055a1.056,1.056,0,0,0-1.073.7V33H58.106V25.6h1.825l.055.8a1.4,1.4,0,0,1,1.265-.937,1.355,1.355,0,0,1,.533.089Z" transform="translate(1326 9560)" fill="#12263f"/>
      <text id="Boyac" transform="translate(1259 9744)" fill="#12263f" font-size="14" font-family="RobotoCondensed-Bold, Roboto" font-weight="700"><tspan x="-20.344" y="15">Boyac</tspan></text>
      <path id="Path_102095" data-name="Path 102095" d="M22.053,11.685a3.722,3.722,0,0,1-.957,2.577,3.38,3.38,0,0,1-2.488.875,3.135,3.135,0,0,1-2.587-1.111,4.923,4.923,0,0,1-.9-3.168V9.183a4.8,4.8,0,0,1,.93-3.162A3.186,3.186,0,0,1,18.635,4.91a3.208,3.208,0,0,1,2.471.909,4.134,4.134,0,0,1,.96,2.611H20.05a2.681,2.681,0,0,0-.325-1.453,1.281,1.281,0,0,0-1.09-.4,1.219,1.219,0,0,0-1.142.564A3.944,3.944,0,0,0,17.138,9v1.88a4.338,4.338,0,0,0,.332,2.037,1.218,1.218,0,0,0,1.138.554,1.316,1.316,0,0,0,1.094-.386,2.544,2.544,0,0,0,.342-1.4ZM26.708,15a2.7,2.7,0,0,1-.164-.574,1.653,1.653,0,0,1-1.408.711,2.084,2.084,0,0,1-1.542-.615,2.162,2.162,0,0,1-.612-1.593,2.239,2.239,0,0,1,.742-1.8,3.244,3.244,0,0,1,2.136-.649h.588V9.887a1.114,1.114,0,0,0-.171-.7.613.613,0,0,0-.5-.205q-.725,0-.725.848H23.12a2.141,2.141,0,0,1,.769-1.692,2.863,2.863,0,0,1,1.945-.667,2.629,2.629,0,0,1,1.883.632,2.374,2.374,0,0,1,.667,1.808v3.479a3.641,3.641,0,0,0,.273,1.5V15Zm-1.142-1.381a1.079,1.079,0,0,0,.547-.13.92.92,0,0,0,.335-.308V11.644h-.465a.992.992,0,0,0-.776.314,1.208,1.208,0,0,0-.284.841Q24.924,13.619,25.567,13.619ZM31.815,15H29.874V4.5h1.941Zm1.237-3.924a4.829,4.829,0,0,1,.615-2.714,2.037,2.037,0,0,1,1.791-.9,1.727,1.727,0,0,1,1.422.738V4.5h1.948V15H37.072l-.089-.752a1.782,1.782,0,0,1-1.531.889,2.02,2.02,0,0,1-1.774-.889,4.673,4.673,0,0,1-.625-2.611Zm1.941.485a3.529,3.529,0,0,0,.232,1.528.819.819,0,0,0,.786.434.943.943,0,0,0,.868-.513V9.634a.922.922,0,0,0-.861-.547.833.833,0,0,0-.779.431,3.352,3.352,0,0,0-.246,1.531ZM43.764,15a2.7,2.7,0,0,1-.164-.574,1.653,1.653,0,0,1-1.408.711,2.084,2.084,0,0,1-1.542-.615,2.162,2.162,0,0,1-.612-1.593,2.239,2.239,0,0,1,.742-1.8,3.244,3.244,0,0,1,2.136-.649H43.5V9.887a1.114,1.114,0,0,0-.171-.7.613.613,0,0,0-.5-.205q-.725,0-.725.848H40.175a2.141,2.141,0,0,1,.769-1.692,2.863,2.863,0,0,1,1.945-.667,2.629,2.629,0,0,1,1.883.632,2.374,2.374,0,0,1,.667,1.808v3.479a3.641,3.641,0,0,0,.273,1.5V15Zm-1.142-1.381a1.079,1.079,0,0,0,.547-.13.92.92,0,0,0,.335-.308V11.644H43.04a.992.992,0,0,0-.776.314,1.208,1.208,0,0,0-.284.841Q41.98,13.619,42.623,13.619Zm7.492-.6a.6.6,0,0,0-.236-.455A4.657,4.657,0,0,0,48.83,12a4.365,4.365,0,0,1-1.644-1A1.909,1.909,0,0,1,46.738,9.7a2.065,2.065,0,0,1,.7-1.6,2.665,2.665,0,0,1,1.856-.632,2.885,2.885,0,0,1,1.948.629,2.114,2.114,0,0,1,.731,1.688H50.04q0-.9-.752-.9a.7.7,0,0,0-.506.191.707.707,0,0,0-.2.533.56.56,0,0,0,.219.434,4.81,4.81,0,0,0,1.032.537,4.271,4.271,0,0,1,1.671.974,1.986,1.986,0,0,1,.489,1.391,1.945,1.945,0,0,1-.745,1.593,3.017,3.017,0,0,1-1.955.6,3.112,3.112,0,0,1-1.436-.318,2.411,2.411,0,0,1-.974-.885,2.279,2.279,0,0,1-.352-1.224h1.839a1.172,1.172,0,0,0,.236.759.924.924,0,0,0,.728.253Q50.115,13.722,50.115,13.018Z" transform="translate(1048 9732)" fill="#12263f"/>
      <path id="Path_102096" data-name="Path 102096" d="M11.16,11.363h-1V15H8.152V5.047h3.206a3.256,3.256,0,0,1,2.334.783,2.923,2.923,0,0,1,.824,2.225,2.9,2.9,0,0,1-1.442,2.775L14.817,14.9V15h-2.16Zm-1-1.675H11.3a1.057,1.057,0,0,0,.9-.4,1.738,1.738,0,0,0,.3-1.07q0-1.5-1.169-1.5H10.162ZM17.832,15H15.891V7.6h1.941ZM15.8,5.689a1,1,0,0,1,.287-.738,1.164,1.164,0,0,1,1.531,0,1,1,0,0,1,.287.738,1.053,1.053,0,1,1-2.105,0Zm6.8,7.328a.6.6,0,0,0-.236-.455A4.657,4.657,0,0,0,21.318,12a4.365,4.365,0,0,1-1.644-1A1.909,1.909,0,0,1,19.227,9.7a2.065,2.065,0,0,1,.7-1.6,2.665,2.665,0,0,1,1.856-.632,2.885,2.885,0,0,1,1.948.629,2.114,2.114,0,0,1,.731,1.688H22.528q0-.9-.752-.9a.7.7,0,0,0-.506.191.706.706,0,0,0-.2.533.56.56,0,0,0,.219.434,4.81,4.81,0,0,0,1.032.537,4.271,4.271,0,0,1,1.671.974,1.986,1.986,0,0,1,.489,1.391,1.945,1.945,0,0,1-.745,1.593,3.017,3.017,0,0,1-1.955.6,3.112,3.112,0,0,1-1.436-.318,2.411,2.411,0,0,1-.974-.885,2.279,2.279,0,0,1-.352-1.224H20.86a1.172,1.172,0,0,0,.236.759.924.924,0,0,0,.728.253Q22.6,13.722,22.6,13.018ZM29.2,15a2.7,2.7,0,0,1-.164-.574,1.653,1.653,0,0,1-1.408.711,2.084,2.084,0,0,1-1.542-.615,2.162,2.162,0,0,1-.612-1.593,2.239,2.239,0,0,1,.742-1.8,3.244,3.244,0,0,1,2.136-.649h.588V9.887a1.114,1.114,0,0,0-.171-.7.613.613,0,0,0-.5-.205q-.725,0-.725.848H25.611a2.141,2.141,0,0,1,.769-1.692,2.863,2.863,0,0,1,1.945-.667,2.629,2.629,0,0,1,1.883.632,2.374,2.374,0,0,1,.667,1.808v3.479a3.641,3.641,0,0,0,.273,1.5V15Zm-1.142-1.381a1.079,1.079,0,0,0,.547-.13.92.92,0,0,0,.335-.308V11.644h-.465a.992.992,0,0,0-.776.314,1.208,1.208,0,0,0-.284.841Q27.416,13.619,28.059,13.619ZM35.927,9.47l-.643-.055a1.056,1.056,0,0,0-1.073.7V15H32.27V7.6h1.825l.055.8a1.4,1.4,0,0,1,1.265-.937,1.355,1.355,0,0,1,.533.089Zm4.3,5.53a2.7,2.7,0,0,1-.164-.574,1.653,1.653,0,0,1-1.408.711,2.084,2.084,0,0,1-1.542-.615,2.162,2.162,0,0,1-.612-1.593,2.239,2.239,0,0,1,.742-1.8,3.244,3.244,0,0,1,2.136-.649h.588V9.887a1.114,1.114,0,0,0-.171-.7.613.613,0,0,0-.5-.205q-.725,0-.725.848H36.638a2.141,2.141,0,0,1,.769-1.692,2.863,2.863,0,0,1,1.945-.667,2.629,2.629,0,0,1,1.883.632A2.374,2.374,0,0,1,41.9,9.907v3.479a3.641,3.641,0,0,0,.273,1.5V15Zm-1.142-1.381a1.079,1.079,0,0,0,.547-.13.92.92,0,0,0,.335-.308V11.644H39.5a.992.992,0,0,0-.776.314,1.208,1.208,0,0,0-.284.841Q38.442,13.619,39.085,13.619ZM45.333,15H43.392V4.5h1.941Zm1.237-3.924a4.829,4.829,0,0,1,.615-2.714,2.037,2.037,0,0,1,1.791-.9,1.727,1.727,0,0,1,1.422.738V4.5h1.948V15H50.59l-.089-.752a1.782,1.782,0,0,1-1.531.889,2.02,2.02,0,0,1-1.774-.889,4.673,4.673,0,0,1-.625-2.611Zm1.941.485a3.529,3.529,0,0,0,.232,1.528.819.819,0,0,0,.786.434.943.943,0,0,0,.868-.513V9.634a.922.922,0,0,0-.861-.547.833.833,0,0,0-.779.431,3.352,3.352,0,0,0-.246,1.531ZM57.282,15a2.7,2.7,0,0,1-.164-.574,1.653,1.653,0,0,1-1.408.711,2.084,2.084,0,0,1-1.542-.615,2.162,2.162,0,0,1-.612-1.593,2.239,2.239,0,0,1,.742-1.8,3.244,3.244,0,0,1,2.136-.649h.588V9.887a1.114,1.114,0,0,0-.171-.7.613.613,0,0,0-.5-.205q-.725,0-.725.848H53.693a2.141,2.141,0,0,1,.769-1.692,2.863,2.863,0,0,1,1.945-.667,2.629,2.629,0,0,1,1.883.632,2.374,2.374,0,0,1,.667,1.808v3.479a3.641,3.641,0,0,0,.273,1.5V15Zm-1.142-1.381a1.079,1.079,0,0,0,.547-.13.92.92,0,0,0,.335-.308V11.644h-.465a.992.992,0,0,0-.776.314,1.208,1.208,0,0,0-.284.841Q55.5,13.619,56.141,13.619Z" transform="translate(1048 9763.822)" fill="#12263f"/>
      <path id="Path_102097" data-name="Path 102097" d="M19.633,10.8A4.437,4.437,0,0,1,18.3,14.385l1.374,1.23L18.41,16.777,16.578,15.1l-.526.034a3.251,3.251,0,0,1-2.642-1.145,4.834,4.834,0,0,1-.96-3.168V9.265a4.893,4.893,0,0,1,.95-3.2A3.233,3.233,0,0,1,16.038,4.91a3.264,3.264,0,0,1,2.6,1.107,4.739,4.739,0,0,1,.991,3.11ZM17.617,9.251a4.02,4.02,0,0,0-.39-2.01,1.418,1.418,0,0,0-2.372-.017,3.884,3.884,0,0,0-.4,1.924V10.8a4.008,4.008,0,0,0,.393,2.017,1.307,1.307,0,0,0,1.2.649,1.275,1.275,0,0,0,1.172-.646,3.983,3.983,0,0,0,.393-1.972Zm7.007,5.072a1.905,1.905,0,0,1-1.613.813,1.812,1.812,0,0,1-1.545-.7,3.359,3.359,0,0,1-.526-2.041V7.6h1.935v4.84q.014,1.08.718,1.08a1,1,0,0,0,.957-.574V7.6H26.5V15H24.678ZM29.908,15H27.966V7.6h1.941Zm-2.03-9.311a1,1,0,0,1,.287-.738,1.164,1.164,0,0,1,1.531,0,1,1,0,0,1,.287.738,1.053,1.053,0,1,1-2.105,0Zm5.3,1.914.055.731a2.052,2.052,0,0,1,1.716-.868q1.907,0,1.962,2.673V15H34.966V10.283a1.7,1.7,0,0,0-.188-.913.732.732,0,0,0-.66-.284.9.9,0,0,0-.82.54V15H31.357V7.6Zm4.86,3.473a4.829,4.829,0,0,1,.615-2.714,2.037,2.037,0,0,1,1.791-.9,1.727,1.727,0,0,1,1.422.738V4.5h1.948V15H42.055l-.089-.752a1.782,1.782,0,0,1-1.531.889,2.02,2.02,0,0,1-1.774-.889,4.673,4.673,0,0,1-.625-2.611Zm1.941.485a3.529,3.529,0,0,0,.232,1.528.819.819,0,0,0,.786.434.943.943,0,0,0,.868-.513V9.634A.922.922,0,0,0,41,9.087a.833.833,0,0,0-.779.431,3.352,3.352,0,0,0-.246,1.531ZM47.312,15H45.377V7.6h1.935ZM46.751,4.6h2.174l-1.9,2.119H45.412Zm1.928,6.46a4.016,4.016,0,0,1,.793-2.639,3.01,3.01,0,0,1,4.4,0,4.039,4.039,0,0,1,.793,2.652v.472a4.023,4.023,0,0,1-.786,2.639,3.033,3.033,0,0,1-4.413,0,4.037,4.037,0,0,1-.79-2.649Zm1.941.485q0,1.982,1.06,1.982.978,0,1.053-1.654l.007-.813a3.112,3.112,0,0,0-.28-1.5.873.873,0,0,0-.793-.489.851.851,0,0,0-.769.489,3.145,3.145,0,0,0-.277,1.5Z" transform="translate(1048 9799.822)" fill="#12263f"/>
      <path id="Path_102098" data-name="Path 102098" d="M22.159,6.722H19.7V15H17.682V6.722h-2.42V5.047h6.9Zm-.588,4.341a4.016,4.016,0,0,1,.793-2.639,2.694,2.694,0,0,1,2.194-.957,2.71,2.71,0,0,1,2.208.957,4.039,4.039,0,0,1,.793,2.652v.472a4.023,4.023,0,0,1-.786,2.639,2.7,2.7,0,0,1-2.2.95,2.712,2.712,0,0,1-2.211-.954,4.037,4.037,0,0,1-.79-2.649Zm1.941.485q0,1.982,1.06,1.982.978,0,1.053-1.654l.007-.813a3.112,3.112,0,0,0-.28-1.5.873.873,0,0,0-.793-.489.851.851,0,0,0-.769.489,3.145,3.145,0,0,0-.277,1.5ZM30.793,15H28.852V4.5h1.941Zm3.527,0H32.379V7.6H34.32ZM32.29,5.689a1,1,0,0,1,.287-.738,1.164,1.164,0,0,1,1.531,0,1,1,0,0,1,.287.738,1.053,1.053,0,1,1-2.105,0ZM37.636,7.6l.055.684a2.081,2.081,0,0,1,1.716-.82,1.6,1.6,0,0,1,1.565,1,2.027,2.027,0,0,1,1.812-1q1.941,0,1.989,2.687V15H42.838V10.276a1.756,1.756,0,0,0-.178-.916.662.662,0,0,0-.6-.273q-.54,0-.807.663l.014.232V15H39.331V10.29a1.859,1.859,0,0,0-.171-.919.651.651,0,0,0-.608-.284.886.886,0,0,0-.793.54V15H35.824V7.6ZM49.715,15a2.7,2.7,0,0,1-.164-.574,1.653,1.653,0,0,1-1.408.711,2.084,2.084,0,0,1-1.542-.615,2.162,2.162,0,0,1-.612-1.593,2.239,2.239,0,0,1,.742-1.8,3.244,3.244,0,0,1,2.136-.649h.588V9.887a1.114,1.114,0,0,0-.171-.7.613.613,0,0,0-.5-.205q-.725,0-.725.848H46.126A2.141,2.141,0,0,1,46.9,8.133a2.863,2.863,0,0,1,1.945-.667,2.629,2.629,0,0,1,1.883.632,2.374,2.374,0,0,1,.667,1.808v3.479a3.641,3.641,0,0,0,.273,1.5V15Zm-1.142-1.381a1.079,1.079,0,0,0,.547-.13.92.92,0,0,0,.335-.308V11.644H48.99a.992.992,0,0,0-.776.314,1.208,1.208,0,0,0-.284.841Q47.931,13.619,48.573,13.619Z" transform="translate(1137 9835.834)" fill="#12263f"/>
      <path id="Path_102100" data-name="Path 102100" d="M26.715,15h-2V10.741H21.746V15h-2.01V5.047h2.01V9.073h2.967V5.047h2Zm5.154-.677a1.905,1.905,0,0,1-1.613.813,1.812,1.812,0,0,1-1.545-.7,3.359,3.359,0,0,1-.526-2.041V7.6H30.12v4.84q.014,1.08.718,1.08a1,1,0,0,0,.957-.574V7.6h1.948V15H31.924ZM37.154,15H35.212V7.6h1.941Zm-2.03-9.311a1,1,0,0,1,.287-.738,1.164,1.164,0,0,1,1.531,0,1,1,0,0,1,.287.738,1.053,1.053,0,1,1-2.105,0ZM40.681,15H38.74V4.5h1.941Zm5.011,0a2.7,2.7,0,0,1-.164-.574,1.653,1.653,0,0,1-1.408.711,2.084,2.084,0,0,1-1.542-.615,2.162,2.162,0,0,1-.612-1.593,2.239,2.239,0,0,1,.742-1.8,3.244,3.244,0,0,1,2.136-.649h.588V9.887a1.114,1.114,0,0,0-.171-.7.613.613,0,0,0-.5-.205q-.725,0-.725.848H42.1a2.141,2.141,0,0,1,.769-1.692,2.863,2.863,0,0,1,1.945-.667A2.629,2.629,0,0,1,46.7,8.1a2.374,2.374,0,0,1,.667,1.808v3.479a3.641,3.641,0,0,0,.273,1.5V15ZM44.55,13.619a1.079,1.079,0,0,0,.547-.13.92.92,0,0,0,.335-.308V11.644h-.465a.992.992,0,0,0-.776.314,1.208,1.208,0,0,0-.284.841Q43.908,13.619,44.55,13.619Z" transform="translate(1215 9912.822)" fill="#12263f"/>
      <path id="Path_102099" data-name="Path 102099" d="M7.934,11.685a3.722,3.722,0,0,1-.957,2.577,3.38,3.38,0,0,1-2.488.875A3.135,3.135,0,0,1,1.9,14.026,4.923,4.923,0,0,1,1,10.857V9.183a4.8,4.8,0,0,1,.93-3.162A3.186,3.186,0,0,1,4.516,4.91a3.208,3.208,0,0,1,2.471.909,4.134,4.134,0,0,1,.96,2.611H5.931a2.681,2.681,0,0,0-.325-1.453,1.281,1.281,0,0,0-1.09-.4,1.219,1.219,0,0,0-1.142.564A3.944,3.944,0,0,0,3.019,9v1.88a4.338,4.338,0,0,0,.332,2.037,1.218,1.218,0,0,0,1.138.554,1.316,1.316,0,0,0,1.094-.386,2.544,2.544,0,0,0,.342-1.4Zm4.778,2.639a1.905,1.905,0,0,1-1.613.813,1.812,1.812,0,0,1-1.545-.7A3.359,3.359,0,0,1,9.027,12.4V7.6h1.935v4.84q.014,1.08.718,1.08a1,1,0,0,0,.957-.574V7.6h1.948V15H12.767ZM17.736,7.6l.055.731a2.052,2.052,0,0,1,1.716-.868q1.907,0,1.962,2.673V15H19.527V10.283a1.7,1.7,0,0,0-.188-.913.732.732,0,0,0-.66-.284.9.9,0,0,0-.82.54V15H15.918V7.6Zm4.86,3.473a4.829,4.829,0,0,1,.615-2.714A2.037,2.037,0,0,1,25,7.467a1.727,1.727,0,0,1,1.422.738V4.5h1.948V15H26.616l-.089-.752A1.782,1.782,0,0,1,25,15.137a2.02,2.02,0,0,1-1.774-.889,4.673,4.673,0,0,1-.625-2.611Zm1.941.485a3.53,3.53,0,0,0,.232,1.528.819.819,0,0,0,.786.434.943.943,0,0,0,.868-.513V9.634a.922.922,0,0,0-.861-.547.833.833,0,0,0-.779.431,3.352,3.352,0,0,0-.246,1.531ZM31.825,15H29.884V7.6h1.941Zm-2.03-9.311a1,1,0,0,1,.287-.738,1.164,1.164,0,0,1,1.531,0,1,1,0,0,1,.287.738,1.053,1.053,0,1,1-2.105,0Zm5.3,1.914.055.731a2.052,2.052,0,0,1,1.716-.868q1.907,0,1.962,2.673V15H36.884V10.283a1.7,1.7,0,0,0-.188-.913.732.732,0,0,0-.66-.284.9.9,0,0,0-.82.54V15H33.274V7.6ZM43.727,15a2.7,2.7,0,0,1-.164-.574,1.653,1.653,0,0,1-1.408.711,2.084,2.084,0,0,1-1.542-.615A2.162,2.162,0,0,1,40,12.929a2.239,2.239,0,0,1,.742-1.8,3.244,3.244,0,0,1,2.136-.649h.588V9.887a1.114,1.114,0,0,0-.171-.7.613.613,0,0,0-.5-.205q-.725,0-.725.848H40.138a2.141,2.141,0,0,1,.769-1.692,2.863,2.863,0,0,1,1.945-.667,2.629,2.629,0,0,1,1.883.632A2.374,2.374,0,0,1,45.4,9.907v3.479a3.641,3.641,0,0,0,.273,1.5V15Zm-1.142-1.381a1.079,1.079,0,0,0,.547-.13.92.92,0,0,0,.335-.308V11.644H43a.992.992,0,0,0-.776.314,1.208,1.208,0,0,0-.284.841Q41.942,13.619,42.585,13.619ZM48.621,7.6l.055.684a2.081,2.081,0,0,1,1.716-.82,1.6,1.6,0,0,1,1.565,1,2.027,2.027,0,0,1,1.812-1q1.941,0,1.989,2.687V15H53.823V10.276a1.756,1.756,0,0,0-.178-.916.662.662,0,0,0-.6-.273q-.54,0-.807.663l.014.232V15H50.316V10.29a1.859,1.859,0,0,0-.171-.919.651.651,0,0,0-.608-.284.886.886,0,0,0-.793.54V15H46.81V7.6ZM60.7,15a2.7,2.7,0,0,1-.164-.574,1.653,1.653,0,0,1-1.408.711,2.084,2.084,0,0,1-1.542-.615,2.162,2.162,0,0,1-.612-1.593,2.239,2.239,0,0,1,.742-1.8,3.244,3.244,0,0,1,2.136-.649h.588V9.887a1.114,1.114,0,0,0-.171-.7.613.613,0,0,0-.5-.205q-.725,0-.725.848H57.111a2.141,2.141,0,0,1,.769-1.692,2.863,2.863,0,0,1,1.945-.667,2.629,2.629,0,0,1,1.883.632,2.374,2.374,0,0,1,.667,1.808v3.479a3.641,3.641,0,0,0,.273,1.5V15Zm-1.142-1.381a1.079,1.079,0,0,0,.547-.13.92.92,0,0,0,.335-.308V11.644h-.465a.992.992,0,0,0-.776.314,1.208,1.208,0,0,0-.284.841Q58.916,13.619,59.559,13.619ZM67.427,9.47l-.643-.055a1.056,1.056,0,0,0-1.073.7V15H63.77V7.6h1.825l.055.8a1.4,1.4,0,0,1,1.265-.937,1.355,1.355,0,0,1,.533.089Zm3.534,4.061q.841,0,.854-1.094h1.818a2.717,2.717,0,0,1-.745,1.955A2.528,2.528,0,0,1,71,15.137a2.7,2.7,0,0,1-2.181-.889,4.012,4.012,0,0,1-.766-2.618v-.588A4.141,4.141,0,0,1,68.8,8.383a2.653,2.653,0,0,1,2.191-.916,2.507,2.507,0,0,1,1.928.755,3.073,3.073,0,0,1,.718,2.143H71.815a1.939,1.939,0,0,0-.205-.957.7.7,0,0,0-.656-.335.782.782,0,0,0-.725.359A3.06,3.06,0,0,0,70,10.823v.752a6.036,6.036,0,0,0,.089,1.261.95.95,0,0,0,.294.526A.9.9,0,0,0,70.961,13.53ZM78.241,15a2.7,2.7,0,0,1-.164-.574,1.653,1.653,0,0,1-1.408.711,2.084,2.084,0,0,1-1.542-.615,2.162,2.162,0,0,1-.612-1.593,2.239,2.239,0,0,1,.742-1.8,3.244,3.244,0,0,1,2.136-.649h.588V9.887a1.114,1.114,0,0,0-.171-.7.613.613,0,0,0-.5-.205q-.725,0-.725.848H74.652a2.141,2.141,0,0,1,.769-1.692,2.863,2.863,0,0,1,1.945-.667A2.629,2.629,0,0,1,79.25,8.1a2.374,2.374,0,0,1,.667,1.808v3.479a3.641,3.641,0,0,0,.273,1.5V15ZM77.1,13.619a1.079,1.079,0,0,0,.547-.13.92.92,0,0,0,.335-.308V11.644h-.465a.992.992,0,0,0-.776.314,1.208,1.208,0,0,0-.284.841Q76.457,13.619,77.1,13.619Z" transform="translate(1259 9853)" fill="#12263f"/>
      <path id="Path_102028" data-name="Path 102028" d="M-6748.667-8356.917a.75.75,0,0,1-.75-.75v-71.583H-6806a.75.75,0,0,1-.75-.75.75.75,0,0,1,.75-.75h58.083v73.083A.75.75,0,0,1-6748.667-8356.917Z" transform="translate(-5507.5 1442.001) rotate(180)" fill="#ffb74d"/>
      <path id="Path_102032" data-name="Path 102032" d="M-6748.667-8406.916a.75.75,0,0,1-.75-.75v-21.584h-91.75a.75.75,0,0,1-.75-.75.75.75,0,0,1,.75-.75h93.25v23.084A.75.75,0,0,1-6748.667-8406.916Z" transform="translate(7907.167 18181)" fill="#ffb74d"/>
      <path id="Path_102033" data-name="Path 102033" d="M-6777.833-8429.25h-63.333a.75.75,0,0,1-.75-.75.75.75,0,0,1,.75-.75h63.333a.75.75,0,0,1,.75.75A.75.75,0,0,1-6777.833-8429.25Z" transform="translate(7907.167 18212.822)" fill="#ffb74d"/>
      <path id="Path_102034" data-name="Path 102034" d="M-6759.167-8429.25h-82a.75.75,0,0,1-.75-.75.75.75,0,0,1,.75-.75h82a.75.75,0,0,1,.75.75A.75.75,0,0,1-6759.167-8429.25Z" transform="translate(7907.167 18248.822)" fill="#ffb74d"/>
      <path id="Path_102035" data-name="Path 102035" d="M-6735.334-8429.25h-105.833a.75.75,0,0,1-.75-.75.75.75,0,0,1,.75-.75h105.833a.75.75,0,0,1,.75.75A.75.75,0,0,1-6735.334-8429.25Z" transform="translate(8000.333 18361.822)" fill="#ffb74d"/>
      <path id="Path_102029" data-name="Path 102029" d="M-6736.333-8429.25H-6806a.75.75,0,0,1-.75-.75.75.75,0,0,1,.75-.75h69.667a.75.75,0,0,1,.75.75A.75.75,0,0,1-6736.333-8429.25Z" transform="translate(-5433.666 1167) rotate(180)" fill="#ffb74d"/>
    </g>
  </g>
</svg>
