<svg xmlns="http://www.w3.org/2000/svg" width="404.248" height="265.908" viewBox="0 0 404.248 265.908">
  <g id="t1-m2" transform="translate(-388.75 -7513.75)">
    <rect id="Rectángulo_7854" data-name="Rectángulo 7854" width="401.748" height="263" transform="translate(390 7515)" fill="#fff8e3"/>
    <path id="Rectángulo_7854_-_Outline" data-name="Rectángulo 7854 - Outline" d="M1,1V262H400.748V1H1M0,0H401.748V263H0Z" transform="translate(390 7515)" fill="#707070"/>
    <path id="Path_102055" data-name="Path 102055" d="M-2117.286,14.571c-3.428.429-11.142,0-12.857,2.572s4.286,4.714,4.286,4.714,11.143-.857,7.714,4.714-5.571,7.286-5.571,12-1.286,17.143-4.714,20.572-.858,13.714-6.429,15-13.714,7.311-11.571,9.227,6.428-1.915,10.285,0,13.286,8.344,11.572,13.059-7.286,19.714-13.715,23.142-10.285-.857-18,0-16.285,4.415-20.142,1.351-6-3.493-12-3.493-5.572.86-9.858,4.716-14.142,5.569-16.714,6-7.714,3.643-3,6.75-12.857,6.107-17.571,3.964-7.715-9-14.143-12.428-12.857-12.429-26.572-16.286-27.39-5.572-36.838-5.572-17.162,0-17.59-3.857-16.714-2.143-24.429-.428-7.714,5.571-17.143,8.143S-2401.857,118.286-2410,120s-26.143,9.429-36.857,3.429-15.429-3.858-22.286-3.858-18-6-20.571-10.714-4.286-9.857-9-12.428-6,2.142-9,2.571a33.231,33.231,0,0,0-6.284,1.714v49.715h122.528c6.307-5.048,15.327-10.063,18.756-10.336,6-.478,14.571-7.664,12-11.093s2.571-6.429,8.143-6,3-.857,6.428-4.714,12.857-.429,21,0,24,8.143,26.143,12,20.143,12.857,20.143,12.857l6.071,7.286h158.535l2-142.715S-2113.857,14.143-2117.286,14.571Z" transform="translate(2903.998 7599.088)" fill="#ffdc72"/>
    <path id="Path_102055_-_Outline" data-name="Path 102055 - Outline" d="M-2114.049,14.725a5.259,5.259,0,0,1-3.026,1.532c-.9.113-2.05.169-3.265.229a46.136,46.136,0,0,0-5.549.492c-2.215.4-2.734.948-2.841,1.107l-.005.008a3.929,3.929,0,0,0,1.593,1.3,13.772,13.772,0,0,0,1.554.747c.292-.014.726-.029,1.245-.029,4.335,0,7.062.947,8.105,2.814.507.907.838,2.43-.459,4.538-.836,1.36-1.593,2.487-2.261,3.482-2.036,3.034-3.058,4.556-3.058,7.627,0,3.286-.927,17.488-5.212,21.774-1.055,1.054-1.4,3.521-1.725,5.907a24.241,24.241,0,0,1-1.207,5.561,6.052,6.052,0,0,1-4.317,3.986,22.554,22.554,0,0,0-6.979,3.307,17.658,17.658,0,0,0-2.685,2.21,6.093,6.093,0,0,0-.74.905h.073a10.214,10.214,0,0,0,2.217-.436,15.453,15.453,0,0,1,3.969-.669,7.106,7.106,0,0,1,3.234.73,39.051,39.051,0,0,1,8.275,5.756,17.32,17.32,0,0,1,3.492,4.254,6.147,6.147,0,0,1,.646,5.152,113.408,113.408,0,0,1-5.17,12.239c-3.187,6.3-6.242,10.169-9.342,11.822a12.436,12.436,0,0,1-5.975,1.551,23.723,23.723,0,0,1-5.037-.7,26.385,26.385,0,0,0-5.7-.765,17.285,17.285,0,0,0-1.9.106c-2.3.256-4.729.771-7.074,1.268a45.262,45.262,0,0,1-8.829,1.316,8.512,8.512,0,0,1-5.484-1.591,12.561,12.561,0,0,0-4.594-2.589,24.463,24.463,0,0,0-6.349-.535,12.054,12.054,0,0,0-4.262.454,8.535,8.535,0,0,0-2.492,1.98c-.55.53-1.172,1.131-1.967,1.846-3.925,3.531-11.722,5.435-17.572,6.411-1.424.237-3.314,1.481-3.487,2.295-.1.493.849,1.164,1.143,1.359a2.77,2.77,0,0,1,1.455,3.207c-.293.976-1.237,2.406-6.042,3.555a40.624,40.624,0,0,1-8.908,1.046,14.456,14.456,0,0,1-5.714-.876c-2.577-1.171-4.58-3.428-6.7-5.818-2.185-2.462-4.445-5.008-7.539-6.658a44.879,44.879,0,0,1-6.982-5.079,79.227,79.227,0,0,0-8.143-6.1,41.761,41.761,0,0,0-11.107-4.975,155.287,155.287,0,0,0-19.8-4.186,119.343,119.343,0,0,0-16.576-1.322,91.948,91.948,0,0,1-12.433-.5c-1.571-.239-6.317-.963-6.832-4.75-.224-.181-1.44-.936-6.173-.936a84.875,84.875,0,0,0-16.212,1.862,17.689,17.689,0,0,0-7.179,3.383,28.091,28.091,0,0,1-9.885,4.741c-3.953,1.078-9.776,2.983-15.941,5-8.4,2.747-17.086,5.588-21.87,6.6-1.665.35-3.78.968-6.229,1.683-6.153,1.8-13.81,4.031-20.969,4.031a22.009,22.009,0,0,1-10.84-2.465,33.7,33.7,0,0,0-7.657-3.269,21.58,21.58,0,0,0-5.755-.744c-1.272,0-2.494.086-3.789.178-1.35.1-2.746.194-4.254.194-3.5,0-8.121-1.38-12.685-3.785s-7.981-5.253-9.378-7.815c-.529-.97-1.023-1.957-1.5-2.911-1.81-3.619-3.519-7.037-6.822-8.839a3.854,3.854,0,0,0-1.774-.556c-.836,0-1.5.514-2.511,1.352a7.391,7.391,0,0,1-3.66,1.965,28.83,28.83,0,0,0-4.825,1.227v46.819h120.237c6.014-4.71,15.189-10.01,19.212-10.331a14.159,14.159,0,0,0,6.322-2.548,12.688,12.688,0,0,0,4.336-4.478c.282-.625.322-1.08.117-1.352a4.327,4.327,0,0,1-.572-4.7c1.213-2.426,4.833-4.057,9.006-4.057.4,0,.8.015,1.2.046.646.05,1.157.074,1.564.074a3.739,3.739,0,0,0,.91-.074c.068-.114.173-.352.26-.549a12.635,12.635,0,0,1,2.292-3.6c1.426-1.6,3.654-2.384,6.811-2.384a54.539,54.539,0,0,1,8.095.892,74.241,74.241,0,0,0,7.454.924c3.93.207,9.895,2.028,15.955,4.873,2.266,1.064,9.8,4.784,11.585,8,.26.468,1.766,2.372,10.222,7.218,4.673,2.678,9.151,4.921,9.2,4.944l.318.159.228.273,5.561,6.674h156.062l1.879-134m1.8-7.011-2,142.715h-158.535l-6.071-7.286s-18-9-20.143-12.857-18-11.572-26.143-12-17.571-3.857-21,0-.858,5.143-6.428,4.714-10.715,2.571-8.143,6-6,10.615-12,11.093c-3.429.273-12.449,5.288-18.756,10.336H-2514V100.714A33.231,33.231,0,0,1-2507.714,99c3-.429,4.286-5.143,9-2.571s6.428,7.714,9,12.428,13.714,10.714,20.571,10.714,11.572-2.142,22.286,3.858,28.714-1.715,36.857-3.429,28.286-9,37.714-11.571,9.429-6.429,17.143-8.143,24-3.429,24.429.428,8.143,3.857,17.59,3.857,23.124,1.715,36.838,5.572,20.143,12.857,26.572,16.286,9.428,10.285,14.143,12.428,22.285-.857,17.571-3.964.429-6.322,3-6.75,12.429-2.143,16.714-6,3.858-4.716,9.858-4.716,8.142.428,12,3.493,12.428-.493,20.142-1.351c5.442-.6,8.965,1.351,12.825,1.351a10.638,10.638,0,0,0,5.175-1.351c6.429-3.428,12-18.428,13.715-23.142s-7.715-11.143-11.572-13.059c-3.042-1.51-6.35.553-8.664.553a2.319,2.319,0,0,1-1.621-.553c-2.143-1.916,6-7.941,11.571-9.227s3-11.572,6.429-15,4.714-15.857,4.714-20.572,2.143-6.428,5.571-12-7.714-4.714-7.714-4.714-6-2.143-4.286-4.714,9.429-2.143,12.857-2.572S-2112.25,7.714-2112.25,7.714Z" transform="translate(2903.998 7599.088)" fill="#ffb74d"/>
    <rect id="Rectangle_7856" data-name="Rectangle 7856" width="401.748" height="45.677" transform="translate(390 7733.981)" fill="#5038a1"/>
    <path id="Rectángulo_7854-2" data-name="Rectángulo 7854" d="M-1.25-1.25H403v265.5H-1.25ZM400.5,1.25H1.25v260.5H400.5Z" transform="translate(390 7515)" fill="#5038a1"/>
    <path id="Rectangle_7857" data-name="Rectangle 7857" d="M-.75-.75H13.607V17.036H-.75ZM12.107.75H.75V15.536H12.107Z" transform="translate(443.855 7594.803)" fill="#5038a1"/>
    <path id="Rectangle_7858" data-name="Rectangle 7858" d="M-.75-.75H45.321V64.179H-.75ZM43.821.75H.75V62.679H43.821Z" transform="translate(478.569 7629.088)" fill="#5038a1"/>
    <path id="Rectangle_7859" data-name="Rectangle 7859" d="M-.75-.75H48.321V41.464H-.75ZM46.821.75H.75V39.964H46.821Z" transform="translate(557.427 7535.445)" fill="#5038a1"/>
    <path id="Rectangle_7860" data-name="Rectangle 7860" d="M-.75-.75H13.607V12.321H-.75ZM12.107.75H.75V10.821H12.107Z" transform="translate(460.141 7571.874)" fill="#5038a1"/>
    <path id="Line_148" data-name="Line 148" d="M21.38,18.579-.477.579.477-.579l21.857,18Z" transform="translate(456.712 7611.088)" fill="#5038a1"/>
    <path id="Line_149" data-name="Line 149" d="M.217,26.218l-.434-1.436L84.212-.718,84.645.718Z" transform="translate(472.998 7552.16)" fill="#5038a1"/>
    <g id="Group_56389" data-name="Group 56389" transform="translate(2903.998 7599.088)">
      <path id="Path_102058" data-name="Path 102058" d="M-2411.691,90.279l-3.039-3.507-.153-2.52.793-3.9,1.579-4.384-.06-.447-.508-.339,1.2-4.582c-.06-.347-.184-1.094-.234-1.694-.036-.434-.114-1.036-.175-1.465l-1.365-.421-1.715-1.81.829-1.741.2-2.187,1.886-2.8.249-1.352-.151-.49-1.051-1.4.117-3.64.766-2.22.348-.15c.783-.335,1.724-.752,1.88-.84.109-.074.754-.486,1.189-.764l-.057-3.091.632-2.592,2.17-3.71,1.632-.426,1.135-.964,1.115-1.37,1.39-1.418,1.214-.62,2.106-.275,1.225,2.7.514,1.48.426.092,1.891.582a10.051,10.051,0,0,1,2.256.968,2.384,2.384,0,0,1,.5,1.971c-.192.583-1.352,1.177-1.363,1.182a1.035,1.035,0,0,1-.965-.047,1.066,1.066,0,0,1-.377-.389l-1.339.235-1.732,1.189-1.563.394.312.417.785.683.936,1.337-.163.426a2.885,2.885,0,0,1-.369.677,1.085,1.085,0,0,1,.313.3,1.58,1.58,0,0,1,.174,1.086l-.032.445-1.141.624s-.494.094-.947.157l.368,1.186-.014.166s-.18,2.127-.19,2.333c0,.119.065,4.937.065,4.937l0,.384-.971.89-.677,1.064.245,2.322-.634,1.971-1.029,1.887-.818,1.312.19,1.268-.795,1.372-2.613,10.453c-.252.353-1.537,2.131-1.95,2.545a17.082,17.082,0,0,0-.681,2.429l-.123.512a9.13,9.13,0,0,1-.681,1.706c-.052.106-.093.188-.114.239-.057.172-.153.46-1.306,1.2l-.256.11Zm-1.363-4.19,1.969,2.272.119-.03c.229-.153.461-.323.57-.416.031-.072.073-.159.122-.259a7.949,7.949,0,0,0,.559-1.369l.116-.487c.436-1.869.718-2.832,1.138-3.251.218-.219,1.078-1.375,1.675-2.2l2.554-10.336.556-.961-.2-1.3,1.132-1.811.94-1.695.457-1.468-.271-2.562,1.2-1.836.487-.447c-.015-1.154-.059-4.525-.059-4.6s.138-1.742.182-2.281l-.1-.334-1.158-.345-.785-2.093,2.1-.467.253.109a1.515,1.515,0,0,0,.5.094c.131-.01.3-.031.467-.056-.147-.095-.255-.163-.257-.164l-.974-.466-2.028-1.536.768-1.73,1.046.059-.571-1.5,2.043-.868,1.263-.275.293-.18,1.209-.976,2.223-.39c-.256-.1-.531-.206-.789-.3l-3.039-.813-.8-2.32-.67-1.466-.682.089-.642.367-1.069,1.128-1.182,1.434-1.538,1.326-1.324.344-1.744,2.983-.461,2.017.071,3.843-.405.259s-1.4.89-1.588,1.017a14.687,14.687,0,0,1-1.781.825l-.476,1.376-.055,2.653.92,1.31.319,1.035-.491,2.265-1.74,2.578-.252,2.191-.389.818.595.629,1.971.606.08.534s.2,1.319.263,2.111c.06.729.244,1.7.245,1.711l.036.189-.986,3.768.231.154.1,1.629-1.666,4.6-.715,3.556Z" fill="#5038a1"/>
    </g>
    <path id="Path_102059" data-name="Path 102059" d="M-2455.587,10.114l-.666-.768-.033-.553.173-.854.346-.961-.013-.1-.111-.075.263-1c-.014-.076-.041-.239-.052-.371-.008-.1-.025-.227-.038-.321l-.3-.092-.376-.4.182-.381.043-.479.414-.613.054-.3-.033-.107-.23-.307.025-.8.168-.486.077-.033c.171-.074.377-.165.411-.184l.261-.167-.013-.678.139-.568.475-.813.358-.093.249-.211.244-.3.3-.311.266-.136.462-.06.268.591.113.324.093.02.414.128a2.181,2.181,0,0,1,.495.212.521.521,0,0,1,.109.432c-.042.127-.3.258-.3.259a.228.228,0,0,1-.211-.011.24.24,0,0,1-.083-.085l-.293.051-.379.261-.343.086.069.092.172.149.205.293-.036.094a.648.648,0,0,1-.081.148.251.251,0,0,1,.069.066.355.355,0,0,1,.038.238l-.007.1-.25.137s-.109.02-.208.034l.081.26,0,.036s-.04.466-.042.511c0,.026.014,1.082.014,1.082V3.19l-.212.195-.149.233.054.509-.139.432-.225.413-.18.288.042.277-.174.3-.572,2.29c-.056.078-.337.467-.428.558a3.741,3.741,0,0,0-.149.532l-.027.112a1.92,1.92,0,0,1-.149.374l-.025.052c-.013.038-.034.1-.286.264l-.056.024Z" transform="translate(2903.998 7599.088)" fill="#5038a1"/>
    <g id="Group_56390" data-name="Group 56390" transform="translate(2903.998 7599.088)">
      <path id="Path_102060" data-name="Path 102060" d="M-2326.715-25.213l-1.169-1.4a7.543,7.543,0,0,1-1.192-1.887,3.879,3.879,0,0,1,.107-1.729l.056-.583c0-.024.124-1.046.124-1.648a1.62,1.62,0,0,0-.149-.677l-.543-.809-1-.88-.181-1.447.927-1.18.39-.641.165-.639V-43.24l.584-1.089c.5-1.16.708-1.323.829-1.42.054-.065.427-.578.74-1.025l.59-1.475,1.58-.886.966-.851,1.552-.149,1.062.651,1,.073,1.123-.211.307-.377-.023-.871-.4-2.362.837-1.117,1.079-.47.127-.393.451-.725.737-.644,2.083,1.315.356,1.785,2.833.647.47,1.761-.726,1.589-.651.522-.287.59.639,1.16.177,1.062-.061.9.075.031.1-.069,1.044-.511,2.022.587-.362,2.151-.732,1.338-2.188.822-.606,2.425-.095,2.625-.513,1.8-.949,2.011-2.981.517-.928-.143-1.135,1.286-1.866,2.754-1.615,1.2-1.685-.033-1.1.63Zm-.692-3.748c.149.251.545.83.879,1.3l.4.473.8-.25,1.248-.748,1.59.031,1.024-.762,1.651-2.506,1.828-2.085,1.577.242,1.833-.318.516-1.078.433-1.555.087-2.584.847-3.391,2.434-.914.381-.85-.281.133-.73.554-2.108-.868.132-1.929-.116-.7-.93-1.51,1.02-1.906.483-.386.3-.659-.044-.164-2.761-.639-.44-1.321-.156-.872-.193-.122-.2.765-1.426.622-.125.167.293,1.757.052,1.623-1.106,1.357-1.959.368-1.635-.12-.928-.569-.44.042-.693.6-1.19.683-.5,1.178a7.559,7.559,0,0,1-1.13,1.465c.026,0-.189.437-.361.83l-.41.77-.028,4.4-.324,1.1-.514.834-.541.7.011.1.739.69.642.964a3.226,3.226,0,0,1,.4,1.567c0,.679-.135,1.834-.135,1.834l-.063.627C-2327.341-29.583-2327.4-29.164-2327.407-28.961Z" fill="#5038a1"/>
    </g>
    <g id="Group_56391" data-name="Group 56391" transform="translate(2903.998 7599.088)">
      <path id="Path_102061" data-name="Path 102061" d="M-2322.31-54.614l-.268-.4c-.264-.282-1.736-1.793-1.736-1.793l-.2-.205-.242-1.906.241-1.749,2.886-1.233,2.257-.539,1,1.239-.006.3s-.011.658-.031.76a2.92,2.92,0,0,1-.206.561l.987,1.624-.162,1.508-1.324,1.13-1.236.4Zm-.576-3.183c.665.683,1.061,1.091,1.3,1.341l.842-.127.913-.306.4-.377.031-.291-1.134-1.908.172-.4s.2-.461.271-.649l-1.009.234-1.851.8-.078.566Z" fill="#5038a1"/>
    </g>
    <g id="Group_56392" data-name="Group 56392" transform="translate(2903.998 7599.088)">
      <path id="Path_102062" data-name="Path 102062" d="M-2438.534-17.672l-.235-.283a1.524,1.524,0,0,1-.241-.38.791.791,0,0,1,.021-.35l.012-.117s.025-.211.025-.333a.319.319,0,0,0-.03-.136l-.11-.164-.2-.177-.036-.292.187-.239.079-.129.033-.129v-.909l.118-.22c.1-.234.143-.267.167-.287s.086-.117.15-.207l.119-.3.318-.179.2-.172.314-.03.214.131.2.015.227-.042.062-.077,0-.175-.081-.477.169-.226.218-.1.026-.079.091-.146.148-.13.421.265.072.361.572.13.094.356-.146.32-.132.106-.058.119.13.234.035.214-.012.181.015.007.019-.014.211-.1.408.118-.073.434-.148.27-.441.166-.123.49-.019.529-.1.363-.191.406-.6.105-.187-.029-.229.259-.377.556-.326.243-.34-.007-.222.127Z" fill="#5038a1"/>
      <path id="Path_102063" data-name="Path 102063" d="M-2437.644-23.606l-.055-.081c-.053-.057-.35-.362-.35-.362l-.04-.041-.049-.385.049-.353.582-.249.456-.109.2.251v.059s0,.133-.006.154a.7.7,0,0,1-.042.113l.2.328-.032.3-.268.228-.249.081Z" fill="#5038a1"/>
    </g>
    <path id="Path_102091" data-name="Path 102091" d="M47.168,4.2l2.856,8.9,2.848-8.9h4.061V17H53.839V14.012l.3-6.117L51.044,17H49L45.9,7.886l.3,6.126V17H43.116V4.2ZM64.113,17a3.344,3.344,0,0,1-.281-.853,2.754,2.754,0,0,1-2.285,1.028,3.374,3.374,0,0,1-2.285-.813,2.588,2.588,0,0,1-.94-2.043,2.66,2.66,0,0,1,1.143-2.338,5.821,5.821,0,0,1,3.322-.791H63.7v-.5q0-1.316-1.134-1.316a.927.927,0,0,0-1.055,1.042H58.55a2.655,2.655,0,0,1,1.173-2.239,4.931,4.931,0,0,1,2.993-.86A4.323,4.323,0,0,1,65.59,8.2a3.086,3.086,0,0,1,1.081,2.435v4.21a4.311,4.311,0,0,0,.4,2V17Zm-1.854-1.934a1.652,1.652,0,0,0,.918-.237,1.487,1.487,0,0,0,.523-.536V12.772h-.861q-1.547,0-1.547,1.389a.848.848,0,0,0,.272.655A.986.986,0,0,0,62.259,15.066Zm11.8-4.9-.976-.07a1.752,1.752,0,0,0-1.793.879V17H68.332V7.49h2.777l.1,1.222a2.294,2.294,0,0,1,2.083-1.4,2.888,2.888,0,0,1,.826.105Zm16.04,2.5a4.673,4.673,0,0,1-.721,2.36,4.35,4.35,0,0,1-1.85,1.586,6.3,6.3,0,0,1-2.72.563,5.025,5.025,0,0,1-3.973-1.644,6.786,6.786,0,0,1-1.45-4.641v-.633a7.746,7.746,0,0,1,.655-3.292,4.961,4.961,0,0,1,1.885-2.18,5.26,5.26,0,0,1,2.848-.769,5.516,5.516,0,0,1,3.744,1.226,4.844,4.844,0,0,1,1.608,3.379H87.053a2.292,2.292,0,0,0-.589-1.679,2.422,2.422,0,0,0-1.687-.51,1.843,1.843,0,0,0-1.687.861,5.536,5.536,0,0,0-.562,2.751v.905a6.126,6.126,0,0,0,.514,2.927,1.882,1.882,0,0,0,1.771.879,2.369,2.369,0,0,0,1.626-.5,2.126,2.126,0,0,0,.6-1.591ZM96.782,17a3.344,3.344,0,0,1-.281-.853,2.754,2.754,0,0,1-2.285,1.028,3.374,3.374,0,0,1-2.285-.813,2.588,2.588,0,0,1-.94-2.043,2.66,2.66,0,0,1,1.143-2.338,5.821,5.821,0,0,1,3.322-.791h.914v-.5q0-1.316-1.134-1.316a.927.927,0,0,0-1.055,1.042H91.219a2.655,2.655,0,0,1,1.173-2.239,4.931,4.931,0,0,1,2.993-.86,4.323,4.323,0,0,1,2.874.888,3.086,3.086,0,0,1,1.081,2.435v4.21a4.311,4.311,0,0,0,.4,2V17Zm-1.854-1.934a1.652,1.652,0,0,0,.918-.237,1.487,1.487,0,0,0,.523-.536V12.772h-.861q-1.547,0-1.547,1.389a.848.848,0,0,0,.272.655A.986.986,0,0,0,94.928,15.066Zm11.8-4.9-.976-.07a1.752,1.752,0,0,0-1.793.879V17H101V7.49h2.777l.1,1.222a2.294,2.294,0,0,1,2.083-1.4,2.888,2.888,0,0,1,.826.105ZM110.924,17h-2.971V7.49h2.971ZM107.777,5.029a1.334,1.334,0,0,1,.457-1.043,1.934,1.934,0,0,1,2.373,0,1.334,1.334,0,0,1,.457,1.043,1.334,1.334,0,0,1-.457,1.043,1.934,1.934,0,0,1-2.373,0A1.334,1.334,0,0,1,107.777,5.029Zm13.8,7.295a5.8,5.8,0,0,1-.967,3.595,3.238,3.238,0,0,1-2.725,1.257,2.81,2.81,0,0,1-2.338-1.151l-.123.976H112.77V3.5h2.962V8.255a2.711,2.711,0,0,1,2.136-.94,3.239,3.239,0,0,1,2.742,1.274,5.826,5.826,0,0,1,.967,3.586Zm-2.971-.189a3.866,3.866,0,0,0-.365-1.952A1.229,1.229,0,0,0,117.12,9.6a1.418,1.418,0,0,0-1.389.763v3.773a1.426,1.426,0,0,0,1.406.755,1.258,1.258,0,0,0,1.327-1.018A7.309,7.309,0,0,0,118.605,12.135Zm8.877,5.04a4.889,4.889,0,0,1-3.542-1.305,4.507,4.507,0,0,1-1.354-3.4v-.246a5.84,5.84,0,0,1,.541-2.575,3.955,3.955,0,0,1,1.578-1.727,4.763,4.763,0,0,1,2.461-.611,4.117,4.117,0,0,1,3.164,1.244,4.887,4.887,0,0,1,1.16,3.467v1.151H125.6a2.135,2.135,0,0,0,.694,1.257,2.066,2.066,0,0,0,1.389.457,2.662,2.662,0,0,0,2.2-.984l1.354,1.6a3.784,3.784,0,0,1-1.569,1.217A5.3,5.3,0,0,1,127.482,17.176ZM127.148,9.6q-1.3,0-1.547,1.723h2.988v-.229a1.467,1.467,0,0,0-.36-1.1A1.434,1.434,0,0,0,127.148,9.6Z" transform="translate(504 7748)" fill="#fff"/>
    <path id="Path_102089" data-name="Path 102089" d="M6.59,12.389a1.247,1.247,0,0,0-.311-.919,3.581,3.581,0,0,0-1.131-.646,5.272,5.272,0,0,1-2.153-1.33,2.672,2.672,0,0,1-.656-1.8,2.525,2.525,0,0,1,.892-2.02A3.366,3.366,0,0,1,5.5,4.91,3.393,3.393,0,0,1,7.13,5.3a2.679,2.679,0,0,1,1.1,1.09,3.271,3.271,0,0,1,.386,1.6h-2a1.651,1.651,0,0,0-.3-1.063,1.042,1.042,0,0,0-.858-.366,1.074,1.074,0,0,0-.82.311,1.169,1.169,0,0,0-.294.837,1.031,1.031,0,0,0,.328.742,3.773,3.773,0,0,0,1.162.687,4.979,4.979,0,0,1,2.116,1.292,2.878,2.878,0,0,1,.66,1.948,2.569,2.569,0,0,1-.827,2.03,3.274,3.274,0,0,1-2.249.731,3.873,3.873,0,0,1-1.757-.4A2.974,2.974,0,0,1,2.54,13.605a3.3,3.3,0,0,1-.448-1.743H4.109a1.9,1.9,0,0,0,.335,1.251,1.371,1.371,0,0,0,1.094.39Q6.59,13.5,6.59,12.389ZM13.365,15a2.7,2.7,0,0,1-.164-.574,1.653,1.653,0,0,1-1.408.711,2.084,2.084,0,0,1-1.542-.615,2.162,2.162,0,0,1-.612-1.593,2.239,2.239,0,0,1,.742-1.8,3.244,3.244,0,0,1,2.136-.649H13.1V9.887a1.114,1.114,0,0,0-.171-.7.613.613,0,0,0-.5-.205q-.725,0-.725.848H9.776a2.141,2.141,0,0,1,.769-1.692,2.863,2.863,0,0,1,1.945-.667,2.629,2.629,0,0,1,1.883.632,2.374,2.374,0,0,1,.667,1.808v3.479a3.641,3.641,0,0,0,.273,1.5V15Zm-1.142-1.381a1.079,1.079,0,0,0,.547-.13.92.92,0,0,0,.335-.308V11.644H12.64a.992.992,0,0,0-.776.314,1.208,1.208,0,0,0-.284.841Q11.581,13.619,12.223,13.619ZM18.211,7.6l.055.731a2.052,2.052,0,0,1,1.716-.868q1.907,0,1.962,2.673V15H20V10.283a1.7,1.7,0,0,0-.188-.913.732.732,0,0,0-.66-.284.9.9,0,0,0-.82.54V15H16.393V7.6ZM31.4,12.963H28.664L28.13,15H26l3.11-9.953h1.839L34.084,15H31.938Zm-2.3-1.675H30.96l-.93-3.548ZM36.361,7.6l.055.731a2.052,2.052,0,0,1,1.716-.868q1.907,0,1.962,2.673V15H38.152V10.283a1.7,1.7,0,0,0-.188-.913.732.732,0,0,0-.66-.284.9.9,0,0,0-.82.54V15H34.542V7.6Zm4.86,3.473a4.829,4.829,0,0,1,.615-2.714,2.037,2.037,0,0,1,1.791-.9,1.727,1.727,0,0,1,1.422.738V4.5H47V15H45.241l-.089-.752a1.782,1.782,0,0,1-1.531.889,2.02,2.02,0,0,1-1.774-.889,4.673,4.673,0,0,1-.625-2.611Zm1.941.485a3.529,3.529,0,0,0,.232,1.528.819.819,0,0,0,.786.434.943.943,0,0,0,.868-.513V9.634a.922.922,0,0,0-.861-.547.833.833,0,0,0-.779.431,3.352,3.352,0,0,0-.246,1.531ZM52.07,9.47l-.643-.055a1.056,1.056,0,0,0-1.073.7V15H48.413V7.6h1.825l.055.8a1.4,1.4,0,0,1,1.265-.937,1.355,1.355,0,0,1,.533.089Zm3.979,5.667a3.032,3.032,0,0,1-2.324-.889,3.578,3.578,0,0,1-.834-2.543v-.588a4.206,4.206,0,0,1,.766-2.7,2.655,2.655,0,0,1,2.194-.95,2.513,2.513,0,0,1,2.1.891A4.25,4.25,0,0,1,58.667,11v.949H54.818a2.013,2.013,0,0,0,.362,1.2,1.225,1.225,0,0,0,.991.381,2.175,2.175,0,0,0,1.62-.663l.759,1.169a2.5,2.5,0,0,1-1.032.8A3.543,3.543,0,0,1,56.048,15.137ZM54.832,10.6h1.935V10.42a2.067,2.067,0,0,0-.219-1,.761.761,0,0,0-.711-.342.8.8,0,0,0-.735.362A2.5,2.5,0,0,0,54.832,10.6ZM55.98,4.5h2.174l-1.9,2.119H54.64Zm7.055,8.518a.6.6,0,0,0-.236-.455A4.657,4.657,0,0,0,61.75,12a4.365,4.365,0,0,1-1.644-1A1.909,1.909,0,0,1,59.658,9.7a2.065,2.065,0,0,1,.7-1.6,2.665,2.665,0,0,1,1.856-.632,2.885,2.885,0,0,1,1.948.629,2.114,2.114,0,0,1,.731,1.688H62.959q0-.9-.752-.9a.7.7,0,0,0-.506.191.707.707,0,0,0-.2.533.56.56,0,0,0,.219.434,4.81,4.81,0,0,0,1.032.537,4.271,4.271,0,0,1,1.671.974,1.986,1.986,0,0,1,.489,1.391,1.945,1.945,0,0,1-.745,1.593,3.017,3.017,0,0,1-1.955.6,3.112,3.112,0,0,1-1.436-.318,2.411,2.411,0,0,1-.974-.885,2.279,2.279,0,0,1-.352-1.224h1.839a1.172,1.172,0,0,0,.236.759.924.924,0,0,0,.728.253Q63.035,13.722,63.035,13.018Z" transform="translate(529 7626)" fill="#12263f"/>
    <path id="Path_102088" data-name="Path 102088" d="M3.66,15H1.65V5.047H3.66Zm4.867-1.982a.6.6,0,0,0-.236-.455A4.657,4.657,0,0,0,7.242,12a4.365,4.365,0,0,1-1.644-1A1.909,1.909,0,0,1,5.15,9.7a2.065,2.065,0,0,1,.7-1.6,2.665,2.665,0,0,1,1.856-.632A2.885,2.885,0,0,1,9.655,8.1a2.114,2.114,0,0,1,.731,1.688H8.452q0-.9-.752-.9a.7.7,0,0,0-.506.191.706.706,0,0,0-.2.533.56.56,0,0,0,.219.434,4.81,4.81,0,0,0,1.032.537,4.271,4.271,0,0,1,1.671.974,1.986,1.986,0,0,1,.489,1.391,1.945,1.945,0,0,1-.745,1.593,3.017,3.017,0,0,1-1.955.6,3.112,3.112,0,0,1-1.436-.318,2.411,2.411,0,0,1-.974-.885,2.279,2.279,0,0,1-.352-1.224H6.784a1.172,1.172,0,0,0,.236.759.924.924,0,0,0,.728.253Q8.527,13.722,8.527,13.018ZM13.641,15H11.7V4.5h1.941Zm5.011,0a2.7,2.7,0,0,1-.164-.574,1.653,1.653,0,0,1-1.408.711,2.084,2.084,0,0,1-1.542-.615,2.162,2.162,0,0,1-.612-1.593,2.239,2.239,0,0,1,.742-1.8,3.244,3.244,0,0,1,2.136-.649h.588V9.887a1.114,1.114,0,0,0-.171-.7.613.613,0,0,0-.5-.205q-.725,0-.725.848H15.063a2.141,2.141,0,0,1,.769-1.692,2.863,2.863,0,0,1,1.945-.667A2.629,2.629,0,0,1,19.66,8.1a2.374,2.374,0,0,1,.667,1.808v3.479a3.641,3.641,0,0,0,.273,1.5V15ZM17.51,13.619a1.079,1.079,0,0,0,.547-.13.92.92,0,0,0,.335-.308V11.644h-.465a.992.992,0,0,0-.776.314,1.208,1.208,0,0,0-.284.841Q16.867,13.619,17.51,13.619Zm7.185-2.543a4.829,4.829,0,0,1,.615-2.714,2.037,2.037,0,0,1,1.791-.9,1.727,1.727,0,0,1,1.422.738V4.5h1.948V15H28.714l-.089-.752a1.782,1.782,0,0,1-1.531.889,2.02,2.02,0,0,1-1.774-.889,4.673,4.673,0,0,1-.625-2.611Zm1.941.485a3.53,3.53,0,0,0,.232,1.528.819.819,0,0,0,.786.434.943.943,0,0,0,.868-.513V9.634a.922.922,0,0,0-.861-.547.833.833,0,0,0-.779.431,3.352,3.352,0,0,0-.246,1.531Zm8.244,3.575a3.032,3.032,0,0,1-2.324-.889,3.578,3.578,0,0,1-.834-2.543v-.588a4.206,4.206,0,0,1,.766-2.7,2.655,2.655,0,0,1,2.194-.95,2.513,2.513,0,0,1,2.1.891A4.25,4.25,0,0,1,37.5,11v.949H33.649a2.013,2.013,0,0,0,.362,1.2A1.225,1.225,0,0,0,35,13.53a2.175,2.175,0,0,0,1.62-.663l.759,1.169a2.5,2.5,0,0,1-1.032.8A3.543,3.543,0,0,1,34.88,15.137ZM33.663,10.6H35.6V10.42a2.067,2.067,0,0,0-.219-1,.761.761,0,0,0-.711-.342.8.8,0,0,0-.735.362A2.5,2.5,0,0,0,33.663,10.6Zm10.261.9V15h-2.01V5.047H45.3a3.111,3.111,0,0,1,2.355.916,3.294,3.294,0,0,1,.878,2.379,3.081,3.081,0,0,1-.868,2.311,3.3,3.3,0,0,1-2.406.848Zm0-1.675H45.3a1.094,1.094,0,0,0,.889-.376,1.665,1.665,0,0,0,.314-1.094,1.973,1.973,0,0,0-.321-1.186,1.03,1.03,0,0,0-.861-.448h-1.4Zm9.509-.355-.643-.055a1.056,1.056,0,0,0-1.073.7V15H49.775V7.6H51.6l.055.8a1.4,1.4,0,0,1,1.265-.937,1.355,1.355,0,0,1,.533.089Zm.52,1.593a4.016,4.016,0,0,1,.793-2.639,3.01,3.01,0,0,1,4.4,0,4.039,4.039,0,0,1,.793,2.652v.472a4.023,4.023,0,0,1-.786,2.639,3.033,3.033,0,0,1-4.413,0,4.037,4.037,0,0,1-.79-2.649Zm1.941.485q0,1.982,1.06,1.982.978,0,1.053-1.654l.007-.813a3.112,3.112,0,0,0-.28-1.5.873.873,0,0,0-.793-.489.851.851,0,0,0-.769.489,3.145,3.145,0,0,0-.277,1.5Zm7.574.718L64.4,7.6h2.017L64.391,15H62.545L60.508,7.6h2.023ZM69.36,15H67.419V7.6H69.36ZM67.33,5.689a1,1,0,0,1,.287-.738,1.164,1.164,0,0,1,1.531,0,1,1,0,0,1,.287.738,1.053,1.053,0,1,1-2.105,0ZM70.6,11.076a4.829,4.829,0,0,1,.615-2.714A2.037,2.037,0,0,1,73,7.467a1.727,1.727,0,0,1,1.422.738V4.5h1.948V15H74.617l-.089-.752A1.782,1.782,0,0,1,73,15.137a2.02,2.02,0,0,1-1.774-.889,4.673,4.673,0,0,1-.625-2.611Zm1.941.485a3.53,3.53,0,0,0,.232,1.528.819.819,0,0,0,.786.434.943.943,0,0,0,.868-.513V9.634a.922.922,0,0,0-.861-.547.833.833,0,0,0-.779.431,3.352,3.352,0,0,0-.246,1.531Zm8.244,3.575a3.032,3.032,0,0,1-2.324-.889,3.578,3.578,0,0,1-.834-2.543v-.588a4.206,4.206,0,0,1,.766-2.7,2.655,2.655,0,0,1,2.194-.95,2.513,2.513,0,0,1,2.1.891A4.25,4.25,0,0,1,83.4,11v.949H79.553a2.013,2.013,0,0,0,.362,1.2,1.225,1.225,0,0,0,.991.381,2.175,2.175,0,0,0,1.62-.663l.759,1.169a2.5,2.5,0,0,1-1.032.8A3.543,3.543,0,0,1,80.783,15.137ZM79.566,10.6H81.5V10.42a2.067,2.067,0,0,0-.219-1,.761.761,0,0,0-.711-.342.8.8,0,0,0-.735.362A2.5,2.5,0,0,0,79.566,10.6Zm6.7-2.994.055.731a2.052,2.052,0,0,1,1.716-.868q1.907,0,1.962,2.673V15H88.057V10.283a1.7,1.7,0,0,0-.188-.913.732.732,0,0,0-.66-.284.9.9,0,0,0-.82.54V15H84.447V7.6Zm7.793,5.927q.841,0,.854-1.094h1.818a2.717,2.717,0,0,1-.745,1.955,2.528,2.528,0,0,1-1.887.745,2.7,2.7,0,0,1-2.181-.889,4.012,4.012,0,0,1-.766-2.618v-.588A4.141,4.141,0,0,1,91.9,8.383a2.653,2.653,0,0,1,2.191-.916,2.507,2.507,0,0,1,1.928.755,3.073,3.073,0,0,1,.718,2.143H94.913a1.939,1.939,0,0,0-.205-.957.7.7,0,0,0-.656-.335.782.782,0,0,0-.725.359,3.06,3.06,0,0,0-.232,1.391v.752a6.036,6.036,0,0,0,.089,1.261.95.95,0,0,0,.294.526A.9.9,0,0,0,94.059,13.53Zm5.8,1.47H97.914V7.6h1.941Zm-2.03-9.311a1,1,0,0,1,.287-.738,1.164,1.164,0,0,1,1.531,0,1,1,0,0,1,.287.738,1.053,1.053,0,1,1-2.105,0ZM104.866,15a2.7,2.7,0,0,1-.164-.574,1.653,1.653,0,0,1-1.408.711,2.084,2.084,0,0,1-1.542-.615,2.162,2.162,0,0,1-.612-1.593,2.239,2.239,0,0,1,.742-1.8,3.244,3.244,0,0,1,2.136-.649h.588V9.887a1.114,1.114,0,0,0-.171-.7.613.613,0,0,0-.5-.205q-.725,0-.725.848h-1.935a2.141,2.141,0,0,1,.769-1.692,2.863,2.863,0,0,1,1.945-.667,2.629,2.629,0,0,1,1.883.632,2.374,2.374,0,0,1,.667,1.808v3.479a3.641,3.641,0,0,0,.273,1.5V15Zm-1.142-1.381a1.079,1.079,0,0,0,.547-.13.92.92,0,0,0,.335-.308V11.644h-.465a.992.992,0,0,0-.776.314,1.208,1.208,0,0,0-.284.841Q103.082,13.619,103.725,13.619Z" transform="translate(609 7533)" fill="#12263f"/>
  </g>
</svg>
