<svg xmlns="http://www.w3.org/2000/svg" width="400" height="473" viewBox="0 0 400 473">
  <g id="t1-m4" transform="translate(-1020 -15723)">
    <path id="Rectangle_7537" data-name="Rectangle 7537" d="M2.5,2.5v451h378V2.5H2.5M0,0H383V456H0Z" transform="translate(1037 15740)" fill="#ffdc72"/>
    <rect id="Rectangle_7536" data-name="Rectangle 7536" width="383" height="456" transform="translate(1020 15723)" fill="#fff8e3"/>
    <g id="Group_56375" data-name="Group 56375" transform="translate(2717.825 15832.316)">
      <g id="Group_56371" data-name="Group 56371" transform="translate(-1604.183 203.218)">
        <path id="Path_102036" data-name="Path 102036" d="M-1516.1,192.1h-11.447a.9.9,0,0,1-.857-.627l-1.881-5.959-1.68-6.859-3.005-2.862c-4.766-2.389-4.766-2.885-4.766-3.408a37.445,37.445,0,0,1,.737-3.807h-3.467l-5.517,1.687a.923.923,0,0,1-.531,0l-10.506-3.293a.912.912,0,0,1-.241-.119l-9.564-6.586-8.2-8.332-15.1-8.562a.883.883,0,0,1-.322-.309l-3.2-5.186c-1.667-1.247-3.544-2.6-3.891-2.763-.192-.061-.688-.226-3.21-3.586l-1.338-2.648a.9.9,0,0,1,.031-.861c4.026-6.76,4.475-7.06,4.665-7.188.471-.314,4.554-2.984,4.554-2.984a.916.916,0,0,1,.7-.122l2.666.627a.962.962,0,0,1,.21.079l3.1,1.622h1.818c.636,0,2.587.1,3.347.142l1.523-1.053.437-1.531-1.387-2.5a.89.89,0,0,1-.11-.516l.156-1.726a.859.859,0,0,1,.063-.26l.753-1.827-1.509-.6a.9.9,0,0,1-.524-.568l-2.35-7.523a.89.89,0,0,1,0-.548l2.51-7.683,5.244-9.412a.879.879,0,0,1,.124-.171l1.881-2.039a.893.893,0,0,1,.309-.217l11.759-5.017a.928.928,0,0,1,.474-.065l9.121,1.238,1.4-.221a.9.9,0,0,1,1.019.7l.573,2.652,4.486,2.314a.892.892,0,0,1,.463.605l1.074,4.908,3.188,6.377,2.643,2.937,4.673,2.626,5.147-.147,5.869-1.389a.9.9,0,0,1,.681.11l4.547,2.824a.9.9,0,0,1,.426.763v1.881a.91.91,0,0,1-.077.365l-.438.984,1.493,2.486,1.927.828a.9.9,0,0,1,.53.665l.314,1.725a.918.918,0,0,1-.023.419l-.941,3.135a.867.867,0,0,1-.187.336l-2.352,2.666-2.955,4.965.711,1.629,3.437.55a27,27,0,0,0,3.4.174c.221-.122,1.822-1.32,3.117-2.344a.9.9,0,0,1,.508-.192l5.8-.314a.9.9,0,0,1,.733.316l1.645,1.946,3.82,2.6a.891.891,0,0,1,.379.586l.47,2.666a.9.9,0,0,1-.25.792l-1.371,1.371-.853,4.545.733,2.784,1.215,2.86a.9.9,0,0,1-.268,1.051l-2.352,1.881a.831.831,0,0,1-.183.111l-6.557,3.052-2.513,3.041,2.095,5.3c.318.39.708,1.25.251,2.923-.467,1.7-.93,3.722-.932,3.728a.9.9,0,0,1-.26.453l-4.914,4.606a36.673,36.673,0,0,1-2.592,4.311,11.321,11.321,0,0,0,.187,1.286l2.979,3.277a.988.988,0,0,1,.122.174l1.883,3.451a.892.892,0,0,1,.108.384l.358,6.941a.9.9,0,0,1-.534.866.9.9,0,0,1-1-.185l-.348-.349-3.642,2.023A.876.876,0,0,1-1516.1,192.1Zm-10.789-1.8h10.556l4.03-2.238a.838.838,0,0,1,.277-.1l-.257-4.982-1.732-3.174-3.063-3.37a.915.915,0,0,1-.207-.388c-.271-1.083-.449-2.519.235-3.2.264-.295,1.43-2.321,2.355-4.028a.9.9,0,0,1,.176-.228l4.818-4.518c.144-.613.515-2.168.887-3.53.275-1,.074-1.331.072-1.335-.133-.1-.136-.14-.2-.295l-2.353-5.959a.893.893,0,0,1,.144-.9l2.979-3.605a.9.9,0,0,1,.314-.243l6.643-3.092,1.739-1.389-.992-2.353-.824-3.1a.877.877,0,0,1-.014-.393l.941-5.017a.879.879,0,0,1,.248-.469l1.236-1.238-.323-1.832-3.605-2.452a.878.878,0,0,1-.182-.163l-1.437-1.7-5.071.275a22.134,22.134,0,0,1-3.5,2.479c-.162.054-.648.216-4.134-.115l-3.976-.634a.9.9,0,0,1-.681-.528l-1.1-2.508a.894.894,0,0,1,.058-.83l3.284-5.476,2.321-2.653.823-2.743-.188-1.037-1.751-.751a.916.916,0,0,1-.415-.363l-1.883-3.137a.906.906,0,0,1-.052-.828l.552-1.236V103.74l-3.807-2.362-5.594,1.324a.9.9,0,0,1-.181.025l-5.488.156a.916.916,0,0,1-.465-.115l-5.019-2.822a.922.922,0,0,1-.226-.181l-2.824-3.137a.891.891,0,0,1-.135-.2l-3.292-6.586a.836.836,0,0,1-.074-.21l-1.008-4.606-4.486-2.314a.9.9,0,0,1-.467-.609l-.481-2.235-.693.11a.918.918,0,0,1-.262,0l-9.005-1.222L-1575,83.606l-1.678,1.82-5.123,9.158-2.35,7.249,2.139,6.848,1.956.781a.9.9,0,0,1,.494.485.906.906,0,0,1,0,.692l-1.047,2.54-.119,1.313,1.432,2.581a.886.886,0,0,1,.079.683l-.627,2.2a.894.894,0,0,1-.352.492l-2.039,1.41a.85.85,0,0,1-.561.158s-2.785-.154-3.557-.154h-2.039a.9.9,0,0,1-.415-.1l-3.193-1.672-2.181-.514c-.972.636-3.83,2.506-4.218,2.765-.276.309-2.159,3.332-3.866,6.191l1.033,2.069a28.564,28.564,0,0,0,2.443,2.907,38.853,38.853,0,0,1,4.349,3.049.874.874,0,0,1,.226.246l3.171,5.136,15.011,8.51a.956.956,0,0,1,.2.153l8.154,8.31,9.322,6.4,10.112,3.169,5.379-1.644a.875.875,0,0,1,.262-.04h4.547a.9.9,0,0,1,.9.9v.785a.911.911,0,0,1-.022.2c-.289,1.274-.605,2.759-.719,3.426a37.5,37.5,0,0,0,3.85,2.157.936.936,0,0,1,.219.153l3.293,3.137a.907.907,0,0,1,.253.438l1.725,7.056Z" transform="translate(1604.183 -76.939)" fill="#5038a1"/>
      </g>
      <g id="Group_56372" data-name="Group 56372" transform="translate(-1548.675 -81.616)">
        <path id="Path_102037" data-name="Path 102037" d="M-1518.913,143.077a.9.9,0,0,1-.316-.057l-2.51-.941a.892.892,0,0,1-.289-.178l-3.528-3.221-3.988-2.2-1.275.81a.9.9,0,0,1-.916.029l-4.547-2.508a.878.878,0,0,1-.3-.266l-1.345-1.883-5.337-.781a5.93,5.93,0,0,0-.169.722c-.092.55-.271,1.671-6.1,1.543-.158.3-.451.754-3.751,4.527a.911.911,0,0,1-.843.291.9.9,0,0,1-.679-.577l-1.807-5a.88.88,0,0,1-.045-.437l.785-5.33a.9.9,0,0,1,.433-.643l5.2-3.063,2.831-3.255.453-13.736c-.641-1.371-2.3-4.931-2.456-5.389-.161-.481-.878-6.013-1.293-9.266l-.007-9.207-.758-8.3-1.581-2.238-3.185-1.159a.9.9,0,0,1-.566-.634l-.941-3.922a.9.9,0,0,1,.218-.823l2.351-2.51a.91.91,0,0,1,.706-.282l5.395.3,4.452-2.366,1.1-4.132-.876-4.825-2.323-4.064-5.459-3.489a.878.878,0,0,1-.25-.239l-2.98-4.234a.9.9,0,0,1-.153-.377l-.785-5.019a.9.9,0,0,1,.178-.686.9.9,0,0,1,.618-.347c2.181-.225,5.477-1.128,5.63-2.353.314-2.513.785-5.968.785-5.968.419-2.558,1.056-6.559,1.213-7.748a18.941,18.941,0,0,0-3.577-1.906c-.207.023-2.86.413-5.231.785a.9.9,0,0,1-.967-.543l-1.568-3.764-1.784-4.9-3.318-1.877a.9.9,0,0,1-.354-1.2l1.719-3.3-1.719-6.449-8.255-7.031a.9.9,0,0,1-.3-.86l1.726-8.623a.889.889,0,0,1,.162-.363l1.412-1.881a.881.881,0,0,1,.345-.278l3.226-1.468.769-1.1a10.713,10.713,0,0,0-.379-2.089c-.314-.781-1.408-3.44-1.408-3.44l-.832-3.756a.9.9,0,0,1,.043-.525l.941-2.353a.9.9,0,0,1,1.022-.544l4.391.941a.9.9,0,0,1,.623.49,17.077,17.077,0,0,1,1.495,7.831c-.2,2.387.733,3.367,1.157,3.684l1.655-.311,1.557-4.673a.887.887,0,0,1,.329-.446l5.928-4.258,1.809-3.756-.726-3.625a.894.894,0,0,1,.467-.972l3.92-2.039,3.846-1.6-1.394-4.179c-1.33-1.328-3.428-3.384-3.83-3.688-.288-.214-.954-.713-1.137-6.244l-3.785-5.9-1.935-4.017a.9.9,0,0,1,.011-.8l4-7.762a.9.9,0,0,1,.706-.481.907.907,0,0,1,.789.325l2.587,3.174a.962.962,0,0,1,.119.189l2.267,4.874c4.748,3.922,4.852,4.236,4.946,4.514.124.253,1.441,2.337,2.688,4.263l2.326.95a.918.918,0,0,1,.219.128l4.39,3.49a.9.9,0,0,1,.327.852l-.941,5.643.012,2.048a.9.9,0,0,1-.171.528l-3.606,4.958-.144,3.18a.906.906,0,0,1-.39.7l-2.508,1.725-1.159.984,1.229,1.04a.932.932,0,0,1,.165.181l3.451,5.1,5.233,2.093a.925.925,0,0,1,.309.207l6.115,6.273a.849.849,0,0,1,.178.262l1.831,4.119,2.695,3.234,2.59-.647a.875.875,0,0,1,.749.149l2.98,2.2a.884.884,0,0,1,.351.562l.629,3.449,1.707,6.194a.9.9,0,0,1-.138.765l-1.757,2.431c.3.945.264,1.956-.607,2.395a6.3,6.3,0,0,1-3.059.083.93.93,0,0,1-.329-.126l-2.273-1.421-3.485.146-3.954.5,1.349,1.838a.893.893,0,0,1,.172.53V4.5a.9.9,0,0,1-.4.747l-1.883,1.254a.871.871,0,0,1-.26.119l-6.043,1.664-.771.769.781,1.452,1.674,2.425,3.311,5.2a.883.883,0,0,1,.126.323l.729,4.085,2.589,2.3a.88.88,0,0,1,.226.309l1.724,3.92a.914.914,0,0,1,.068.239l1.2,8.7,1.484,1.028h5.163l2.485-1.169a.926.926,0,0,1,.309-.083l5.8-.471,5.272-.776a.89.89,0,0,1,.629.14l.941.627a.9.9,0,0,1,.32.375l.783,1.726a.884.884,0,0,1,.079.424l-.144,2.461.891,2.165,3.464,1.73a.9.9,0,0,1,.383.368l.785,1.412a.926.926,0,0,1,.113.454l-.158,7.369a.928.928,0,0,1-.029.21l-.681,2.589,1.97,2.957a.909.909,0,0,1,.131.311,23.521,23.521,0,0,1,.489,3.167c0,.816-.427,4.267-.476,4.658a.943.943,0,0,1-.068.25l-1.1,2.51a.9.9,0,0,1-.435.449l-3.388,1.62-1.381,2.007.841,4.619,2.713,3.918,2.247,4.162a.923.923,0,0,1,.095.286l.941,5.957a.9.9,0,0,1-.65,1.008l-3.012.823-1.717,4.437a.9.9,0,0,1-.408.463l-3.449,1.883-4.3,1.495-6.433,15.465a.891.891,0,0,1-.6.523l-3.282.877,1.992,2.2a.9.9,0,0,1,.232.6v3.516l2.362,2.082,1.611,1.013a.9.9,0,0,1,.39.975l-.785,3.137a.9.9,0,0,1-.57.629l-4.252,1.52-4.9,3.83a.886.886,0,0,1-.383.174l-4.859.941A.93.93,0,0,1-1518.913,143.077Zm-2.032-2.619,2.109.79,4.4-.852,4.849-3.787a.9.9,0,0,1,.25-.138l3.938-1.407.51-2.041-1.178-.751-2.777-2.436a.9.9,0,0,1-.3-.674V125.59l-2.747-3.038a.9.9,0,0,1-.2-.857.9.9,0,0,1,.629-.613l4.277-1.141,6.415-15.428a.9.9,0,0,1,.537-.5l4.547-1.568,3.023-1.662,1.764-4.556a.9.9,0,0,1,.6-.543l2.675-.729-.792-5.012L-1490.54,86l-2.77-3.992a.91.91,0,0,1-.144-.35l-.941-5.174a.9.9,0,0,1,.144-.67l1.725-2.508a.894.894,0,0,1,.352-.3l3.306-1.581.911-2.084c.181-1.448.447-3.792.447-4.306a20.542,20.542,0,0,0-.413-2.625l-2.1-3.149a.9.9,0,0,1-.122-.728l.758-2.876.149-7.02-.532-.957-3.516-1.757a.9.9,0,0,1-.429-.46l-1.1-2.666a.9.9,0,0,1-.066-.4l.144-2.443-.586-1.29-.44-.293-4.99.733-5.7.465-2.517,1.184a.888.888,0,0,1-.383.086h-5.645a.9.9,0,0,1-.512-.16l-2.039-1.412a.893.893,0,0,1-.377-.614l-1.238-8.971-1.595-3.625-2.677-2.378a.906.906,0,0,1-.287-.514l-.753-4.216-3.2-5.025-1.708-2.483-1.148-2.122a.9.9,0,0,1,.156-1.06l1.412-1.412a.865.865,0,0,1,.4-.23l6.133-1.687,1.362-.907V2.759l-1.55-2.114a.9.9,0,0,1-.174-.532V-.67a.9.9,0,0,1,.787-.891l5.017-.629,3.837-.162a.817.817,0,0,1,.514.137l2.354,1.469a7.951,7.951,0,0,0,1.55.092,2.905,2.905,0,0,0-.185-.595.906.906,0,0,1,.1-.889l1.786-2.474-1.61-5.856-.58-3.176-2.353-1.734-2.727.681a.9.9,0,0,1-.907-.295l-3.136-3.764a.96.96,0,0,1-.129-.21l-1.816-4.089-5.871-6.02-5.312-2.123a.909.909,0,0,1-.41-.331l-3.537-5.229-1.944-1.646a.9.9,0,0,1-.318-.684.9.9,0,0,1,.318-.686l2.037-1.726,2.213-1.523.136-3.005a.9.9,0,0,1,.171-.487l3.591-4.938v-1.9l.868-5.269-3.879-3.081-2.468-1.01a.918.918,0,0,1-.413-.343c-2.209-3.408-2.793-4.408-2.964-4.741-.383-.433-2.614-2.341-4.615-3.993a.887.887,0,0,1-.242-.314l-2.307-4.955-1.649-2.025-3.165,6.144,1.689,3.517,3.866,6.02a.9.9,0,0,1,.142.458,25.874,25.874,0,0,0,.535,5.2c.815.677,3.507,3.361,4.063,3.916a.908.908,0,0,1,.215.35l1.727,5.176a.9.9,0,0,1-.51,1.114l-4.547,1.881-3.25,1.694.65,3.259a.892.892,0,0,1-.07.566l-2.039,4.234a.887.887,0,0,1-.286.34L-1553.75-31l-1.633,4.9a.9.9,0,0,1-.686.6l-2.508.471a.914.914,0,0,1-.519-.057c-.115-.049-2.786-1.247-2.423-5.6a15.112,15.112,0,0,0-1.155-6.512l-3.2-.686-.557,1.394.724,3.331h0c.014,0,1.064,2.549,1.369,3.313a13.633,13.633,0,0,1,.531,2.925.893.893,0,0,1-.16.589l-1.1,1.568a.906.906,0,0,1-.365.3L-1568.667-23l-1.151,1.536-1.583,7.906,8.066,6.87a.891.891,0,0,1,.286.453l1.883,7.056a.9.9,0,0,1-.072.647l-1.48,2.837,2.851,1.611a.9.9,0,0,1,.4.476l1.883,5.174,1.282,3.074c1.725-.266,4.506-.686,4.929-.686.485,0,5.289,2.019,5.289,3.406,0,.474-.792,5.4-1.267,8.3h0s-.467,3.429-.78,5.925c-.316,2.54-4.29,3.48-6.289,3.8l.609,3.9,2.756,3.918,5.5,3.51a.9.9,0,0,1,.3.313l2.508,4.39a.863.863,0,0,1,.1.284l.941,5.176a.9.9,0,0,1-.016.392l-1.254,4.7a.9.9,0,0,1-.448.56l-5.018,2.666a.93.93,0,0,1-.47.1l-5.228-.291-1.733,1.85.715,2.98,3,1.089a.906.906,0,0,1,.426.325l1.883,2.666a.9.9,0,0,1,.162.438l.783,8.623,0,9.176c.4,3.081,1.092,8.337,1.218,8.844.1.287,1.347,2.984,2.461,5.357a.9.9,0,0,1,.083.411l-.47,14.271a.892.892,0,0,1-.219.559l-3.135,3.607a1,1,0,0,1-.223.185l-4.962,2.917-.688,4.681,1.211,3.35c2-2.307,2.343-2.783,2.4-2.878a1.866,1.866,0,0,1,1.145-1.074.854.854,0,0,1,.309-.047,18.481,18.481,0,0,0,4.629-.314,6.788,6.788,0,0,1,.5-1.54.886.886,0,0,1,.934-.487l6.429.94a.894.894,0,0,1,.6.366l1.45,2.03,3.9,2.152,1.275-.81a.9.9,0,0,1,.918-.029l4.547,2.508a.878.878,0,0,1,.17.124ZM-1543.8-57.694Z" transform="translate(1573.284 81.616)" fill="#5038a1"/>
      </g>
      <g id="Group_56373" data-name="Group 56373" transform="translate(-1530.245 94.24)">
        <path id="Path_102038" data-name="Path 102038" d="M-1531.789,110.742a.871.871,0,0,1-.368-.079l-3.029-1.362-3.712-.595-3.674.153a.684.684,0,0,1-.3-.038l-5.174-1.568a.867.867,0,0,1-.375-.225l-2.089-2.087h-1.353a.951.951,0,0,1-.225-.029l-4.234-1.1a.9.9,0,0,1-.571-.453l-1.725-3.293a.885.885,0,0,1-.1-.357l-.291-4.516a.9.9,0,0,1-.088-.95c1.258-2.493,1.989-3.9,2.229-4.3.332-.555,1.9-1.9,5.276-4.7.927-.769,1.888-1.565,2.073-1.75a37.184,37.184,0,0,0,2.31-5.03l3.088-6.338.2-2.335-3.636.938a.913.913,0,0,1-.672-.09l-3.293-1.881a.907.907,0,0,1-.431-.586.9.9,0,0,1,.144-.713l2.594-3.661.751-2.149-3.383-1.09-1.182,1.538a.937.937,0,0,1-.2.192l-2.51,1.725a.862.862,0,0,1-.262.124l-3.293.941a.9.9,0,0,1-.88-.23l-1.726-1.725a.888.888,0,0,1-.21-.331l-.857-2.369a.9.9,0,0,1,.169-.9c2.894-3.307,3.334-3.92,3.4-4.029a1.866,1.866,0,0,1,1.145-1.074.855.855,0,0,1,.309-.047,18.212,18.212,0,0,0,4.629-.314,6.788,6.788,0,0,1,.5-1.54.886.886,0,0,1,.934-.487l6.429.94a.894.894,0,0,1,.6.366l1.45,2.03,3.9,2.152,1.275-.81a.9.9,0,0,1,.918-.029l4.547,2.508a.877.877,0,0,1,.17.124l3.48,3.176,2.109.79,4.4-.852,4.849-3.787a.9.9,0,0,1,.25-.138l3.938-1.407.51-2.041-1.178-.751-2.777-2.436a.9.9,0,0,1-.3-.674V47.626l-2.747-3.038a.9.9,0,0,1-.2-.857.9.9,0,0,1,.629-.613l4.277-1.141,6.415-15.428a.9.9,0,0,1,.537-.5l4.547-1.568,3.023-1.662,1.764-4.556a.9.9,0,0,1,.6-.543l2.74-.746a.9.9,0,0,1,.456-.593.9.9,0,0,1,1.037.146c2.793,2.655,2.86,2.824,2.955,3.059.106.2.839,1.116,1.523,1.935l2.815.492a.9.9,0,0,1,.74.814l.156,1.96a.9.9,0,0,1-.162.591l-.907,1.281.417.446,2.659-.465a.89.89,0,0,1,.939.447l.823,1.469,2.264-.124a.878.878,0,0,1,.226.014l3.528.706a.9.9,0,0,1,.631.487.9.9,0,0,1,0,.8l-1.645,3.293a.869.869,0,0,1-.169.232l-.548.55a.893.893,0,0,1-.76.255l-4.3-.605-.453,1.222.437,2.826a.935.935,0,0,1-.032.41,9.932,9.932,0,0,1-.816,2.186c0,.075-.09.893-.176,1.759l2.121.649a.886.886,0,0,1,.546.465l1.254,2.587a.9.9,0,0,1,.088.462l-.471,6.115a.765.765,0,0,1-.036.192c-.715,2.359-1.482,5.037-1.532,5.44.075.129.8,1.337,1.421,2.269a.913.913,0,0,1,.11.23l.783,2.51a.9.9,0,0,1-.086.731l-4.151,6.918-1.067,5.643a.9.9,0,0,1-.248.469l-5.018,5.017a27.162,27.162,0,0,0-1.177,3.816.787.787,0,0,1-.077.2l-1.41,2.666a30.012,30.012,0,0,0-1.15,3.974,14.724,14.724,0,0,0,.3,1.78,13.683,13.683,0,0,1,.331,2.138c0,.769.155,3.234.155,3.235a.9.9,0,0,1-.629.914l-2.508.783a.917.917,0,0,1-.268.041h-1.568a.892.892,0,0,1-.329-.063l-5.175-2.039-4.294-2.064-2.193-1.311-2.549.106.223,2.35a.879.879,0,0,1-.068.44l-2.51,5.8a.909.909,0,0,1-.271.352s-1.421,1.1-2.053,1.577a4.936,4.936,0,0,1-2.576.652l-5.734.146-2.255,2.256a.893.893,0,0,1-.5.252l-2.978.471A.924.924,0,0,1-1531.789,110.742Zm-7.056-3.834a.942.942,0,0,1,.142.011l3.92.627a.916.916,0,0,1,.226.068l2.892,1.3,2.425-.383,2.3-2.3a.888.888,0,0,1,.611-.262l6.115-.156a3.528,3.528,0,0,0,1.522-.291c.487-.365,1.446-1.108,1.845-1.417l2.326-5.38-.291-3.063a.9.9,0,0,1,.217-.675.9.9,0,0,1,.639-.307l3.763-.154a.855.855,0,0,1,.5.126l2.351,1.412,4.161,2,4.954,1.951h1.263l1.707-.534c-.047-.816-.117-2.116-.117-2.644a14.982,14.982,0,0,0-.3-1.784,13.457,13.457,0,0,1-.331-2.138,26.008,26.008,0,0,1,1.3-4.685l1.414-2.693c.654-2.594,1.2-4.123,1.622-4.547l4.822-4.822,1.046-5.529a.9.9,0,0,1,.113-.295l4.026-6.711-.625-2c-1.647-2.486-1.647-2.993-1.647-3.214a48.45,48.45,0,0,1,1.579-5.811l.444-5.776-.977-2.016-2.448-.747a.9.9,0,0,1-.632-.938c.255-2.894.419-3.14.539-3.32.059-.122.316-.864.533-1.536l-.438-2.847a.907.907,0,0,1,.045-.449l.785-2.118a.913.913,0,0,1,.968-.577l4.572.643.129-.129,1.056-2.111-2.264-.453-2.707.151a.906.906,0,0,1-.835-.458l-.785-1.4-2.508.44a.9.9,0,0,1-.81-.269l-1.254-1.333a.9.9,0,0,1-.079-1.135l1.144-1.615-.075-.941-2.452-.429a.911.911,0,0,1-.53-.305,16.722,16.722,0,0,1-2.03-2.677c.034.065-.286-.28-1.761-1.7l-2.847.778-1.717,4.437a.9.9,0,0,1-.408.463l-3.449,1.883-4.3,1.495-6.431,15.466a.9.9,0,0,1-.6.523l-3.282.877,1.992,2.2a.9.9,0,0,1,.232.6v3.516l2.362,2.082,1.611,1.013a.9.9,0,0,1,.39.975l-.785,3.137a.9.9,0,0,1-.57.629l-4.252,1.52-4.9,3.83a.886.886,0,0,1-.383.174l-4.859.941a.881.881,0,0,1-.487-.041l-2.51-.941a.892.892,0,0,1-.289-.178l-3.528-3.221-3.988-2.2-1.275.81a.9.9,0,0,1-.916.029l-4.547-2.508a.878.878,0,0,1-.3-.266L-1546.1,54.7l-5.337-.781a5.93,5.93,0,0,0-.169.722c-.09.55-.288,1.683-6.115,1.541-.131.278-.381.688-3.386,4.13l.611,1.685,1.211,1.209,2.643-.754,2.272-1.561,1.48-1.926a.9.9,0,0,1,.988-.309l4.861,1.568a.9.9,0,0,1,.528.454.894.894,0,0,1,.043.7l-1.1,3.137a1.012,1.012,0,0,1-.115.223l-2.095,2.955,2.116,1.209,4.509-1.164a.917.917,0,0,1,.8.183.9.9,0,0,1,.316.762l-.314,3.765a.883.883,0,0,1-.088.318l-3.137,6.429c-.558,1.4-2,4.89-2.68,5.573-.233.234-.95.83-2.2,1.863-1.586,1.313-4.538,3.758-4.894,4.254-.129.217-.58,1.062-1.92,3.71a.936.936,0,0,1,.021.144l.3,4.669,1.451,2.772,3.739.97h1.61a.9.9,0,0,1,.634.262l2.2,2.193,4.813,1.459,3.611-.151Z" transform="translate(1563.025 -16.276)" fill="#5038a1"/>
      </g>
      <g id="Group_56374" data-name="Group 56374" transform="translate(-1553.884 171.715)">
        <path id="Path_102039" data-name="Path 102039" d="M-1492.977,174.788l-8.779-.471-1.363,0a.911.911,0,0,1-.544-.183c-5.294-4.035-5.294-5.041-5.294-5.42a30.517,30.517,0,0,1,1.218-4.973,16.223,16.223,0,0,0,.284-4.514c-.411-.823-1.6-4.015-2.021-5.138l-1.728-.787-2.625,2.22a.9.9,0,0,1-.178.119l-6.271,3.135a.89.89,0,0,1-.713.04.9.9,0,0,1-.517-.494l-1.254-2.978-.824-3.1a.877.877,0,0,1-.014-.393l.941-5.017a.879.879,0,0,1,.248-.469l1.236-1.238-.323-1.832-3.605-2.452a.877.877,0,0,1-.182-.163l-1.437-1.7-5.071.275a22.134,22.134,0,0,1-3.5,2.479c-.162.054-.648.216-4.134-.115l-3.976-.634a.9.9,0,0,1-.681-.528l-1.1-2.508a.894.894,0,0,1,.058-.83l3.284-5.476,2.321-2.653.823-2.743-.188-1.037-1.751-.751a.916.916,0,0,1-.415-.363l-1.883-3.137a.906.906,0,0,1-.052-.828l.552-1.236v-1.191l-3.807-2.362-5.594,1.324a.9.9,0,0,1-.181.025l-5.488.156a.916.916,0,0,1-.465-.115l-5.019-2.822a.922.922,0,0,1-.226-.181l-2.824-3.137a.891.891,0,0,1-.135-.2l-3.292-6.586a.836.836,0,0,1-.074-.21l-1.008-4.606-4.486-2.314a.9.9,0,0,1-.467-.609l-.661-3.065a.9.9,0,0,1,.137-.7.894.894,0,0,1,.6-.379l7.123-1.126,6.009-5.862,1.211-7.858a.876.876,0,0,1,.126-.338l6.742-10.82a.822.822,0,0,1,.147-.18l4.744-4.439.71-1.412a.894.894,0,0,1,.636-.478.905.905,0,0,1,.765.212l.16.144a.9.9,0,0,1,.3.613l.3,4.669,1.451,2.772,3.739.97h1.61a.9.9,0,0,1,.634.262l2.2,2.193,4.813,1.459,3.611-.151a.965.965,0,0,1,.18.011l3.92.627a.916.916,0,0,1,.226.068l2.892,1.3,2.425-.383,2.3-2.3a.888.888,0,0,1,.611-.262l6.115-.156a3.528,3.528,0,0,0,1.522-.291c.487-.365,1.446-1.108,1.845-1.417l2.326-5.38-.291-3.063a.9.9,0,0,1,.217-.675.9.9,0,0,1,.639-.307l3.763-.154a.855.855,0,0,1,.5.126l2.351,1.412,4.161,2,4.954,1.951h1.263l.769-.241a.894.894,0,0,1,.728.084.9.9,0,0,1,.422.6l.667,3.419a.9.9,0,0,1-.013.4l-.552,2.066,1.568,3.993a35.783,35.783,0,0,0,2.934,3.429s.445.12,6.544,4.775a.9.9,0,0,1,.331.508l.546,2.325,3.632,2.47a.9.9,0,0,1,.361.974l-.627,2.352a.879.879,0,0,1-.126.277l-2.039,2.978a.94.94,0,0,1-.2.212,5.564,5.564,0,0,0-.875.8c.128.582.76,2.74,1.351,4.64l.348,2.991a.9.9,0,0,1-.717.979l-2.353.471a.893.893,0,0,1-.509-.047l-1.568-.627a.9.9,0,0,1-.329-.226l-3.181-3.474h-1.766l-3.35,3.059-4.3,3.194a.9.9,0,0,1-.961.07l-3.379-1.822-1.894,2.65-1.987,3.526a.431.431,0,0,0-.012.508,38.322,38.322,0,0,1,1.642,3.914.9.9,0,0,1-.162.895l-2.822,3.293a.9.9,0,0,1-.918.282l-5.08-1.385-2.878-.138a12.633,12.633,0,0,0-1.558,1.315c.075.794.456,3.246.569,3.607.054.163.2.6-.074,5.061l2.113.993,3.988,1.376a.9.9,0,0,1,.561.575l1.412,4.391a.9.9,0,0,1-.012.584l-1.062,2.881-.374,3.117c1.852.692,3.76,1.365,4.117,1.423l5.257-.005a.911.911,0,0,1,.316.057l2.508.941a.9.9,0,0,1,.552,1.072l-.627,2.352a.894.894,0,0,1-.153.313l-2.828,3.72-.711,6.683,3.446,3.3a13.809,13.809,0,0,1,3.005,2.754v0c.212.426,1.624,2.677,2.463,4a.9.9,0,0,1,.12.3l.463,2.2a.9.9,0,0,1-.433.965l-1.09.623a.9.9,0,0,1-.417.117Zm-9.839-2.265h1.108l8.75.471,6.992-.228.327-.189-.294-1.4c-.448-.706-2.143-3.384-2.459-4.008a18.283,18.283,0,0,0-2.565-2.2l-3.846-3.677a.9.9,0,0,1-.271-.744l.785-7.369a.906.906,0,0,1,.178-.449l2.873-3.78.37-1.394-1.594-.6h-5.168c-.174,0-.634,0-5.335-1.784a.9.9,0,0,1-.575-.945l.47-3.922a.91.91,0,0,1,.05-.2l.99-2.689-1.178-3.668-3.654-1.263-2.754-1.292a.9.9,0,0,1-.514-.871c.137-2.118.244-4.656.182-5.062a35.052,35.052,0,0,1-.654-4.288c0-.349,0-.932,2.571-2.768a.8.8,0,0,1,.566-.167l3.293.156a.88.88,0,0,1,.192.032l4.627,1.261,2.107-2.459a31.141,31.141,0,0,0-1.311-3.117,2.185,2.185,0,0,1,.052-2.414l1.974-3.51,2.4-3.372a.9.9,0,0,1,1.157-.269l3.575,1.926,3.774-2.8,3.537-3.235a.9.9,0,0,1,.605-.235h2.508a.9.9,0,0,1,.663.293L-1475,103.9l1.13.451,1.282-.255-.223-2a36.854,36.854,0,0,1-1.417-5.118c0-.221,0-.884,1.493-2.037l1.87-2.732.424-1.588-3.394-2.307a.893.893,0,0,1-.368-.537l-.555-2.352c-2.662-2.03-5.569-4.186-5.988-4.4-.178-.056-.65-.214-3.64-4.033a.884.884,0,0,1-.129-.226l-1.724-4.389a.893.893,0,0,1-.031-.56l.573-2.152-.437-2.231a.92.92,0,0,1-.21.025h-1.568a.892.892,0,0,1-.329-.063l-5.175-2.039-4.294-2.064-2.193-1.311-2.549.106.223,2.35a.879.879,0,0,1-.068.44l-2.51,5.8a.909.909,0,0,1-.271.352s-1.421,1.1-2.053,1.577a4.936,4.936,0,0,1-2.576.652l-5.734.146-2.255,2.256a.893.893,0,0,1-.5.252l-2.978.471a.88.88,0,0,1-.509-.068l-3.029-1.362-3.712-.595-3.674.153a.684.684,0,0,1-.3-.038l-5.174-1.568a.867.867,0,0,1-.375-.225l-2.089-2.087h-1.353a.951.951,0,0,1-.225-.029l-4.234-1.1a.9.9,0,0,1-.571-.453l-1.725-3.293a.885.885,0,0,1-.1-.357l-.158-2.465-4.362,4.08-6.582,10.563-1.227,7.973a.886.886,0,0,1-.26.5l-6.428,6.271a.893.893,0,0,1-.487.244l-6.467,1.022.372,1.723,4.486,2.314a.892.892,0,0,1,.463.605l1.074,4.908,3.188,6.377,2.643,2.937,4.673,2.626,5.147-.147,5.869-1.389a.9.9,0,0,1,.681.11l4.547,2.824a.9.9,0,0,1,.426.763v1.881a.91.91,0,0,1-.077.365l-.438.984,1.493,2.486,1.927.828a.9.9,0,0,1,.53.665l.314,1.725a.918.918,0,0,1-.023.419l-.941,3.135a.867.867,0,0,1-.187.336l-2.352,2.666-2.955,4.965.711,1.629,3.437.55a26.989,26.989,0,0,0,3.4.174c.221-.122,1.822-1.32,3.117-2.344a.9.9,0,0,1,.508-.192l5.8-.314a.9.9,0,0,1,.733.316l1.645,1.946,3.82,2.6a.891.891,0,0,1,.379.586l.47,2.666a.9.9,0,0,1-.25.792l-1.371,1.371-.853,4.545.733,2.784.839,1.978,5.321-2.661,2.977-2.519a.906.906,0,0,1,.95-.131l2.589,1.177a.893.893,0,0,1,.47.507c.453,1.229,1.71,4.583,2.077,5.317.542,1.085.073,4.365-.153,5.725a31.682,31.682,0,0,0-1.164,4.556A33.9,33.9,0,0,0-1502.816,172.523Z" transform="translate(1576.183 -59.403)" fill="#5038a1"/>
      </g>
    </g>
    <path id="Path_102101" data-name="Path 102101" d="M23.424,11.685a3.722,3.722,0,0,1-.957,2.577,3.38,3.38,0,0,1-2.488.875,3.135,3.135,0,0,1-2.587-1.111,4.923,4.923,0,0,1-.9-3.168V9.183a4.8,4.8,0,0,1,.93-3.162A3.186,3.186,0,0,1,20.006,4.91a3.208,3.208,0,0,1,2.471.909,4.134,4.134,0,0,1,.96,2.611H21.421A2.681,2.681,0,0,0,21.1,6.978a1.281,1.281,0,0,0-1.09-.4,1.219,1.219,0,0,0-1.142.564A3.944,3.944,0,0,0,18.509,9v1.88a4.338,4.338,0,0,0,.332,2.037,1.218,1.218,0,0,0,1.138.554,1.316,1.316,0,0,0,1.094-.386,2.544,2.544,0,0,0,.342-1.4Zm3.028-3.432A1.911,1.911,0,0,1,28,7.467a1.794,1.794,0,0,1,1.538.711,3.573,3.573,0,0,1,.533,2.119V15H28.127V10.317a1.688,1.688,0,0,0-.2-.94.738.738,0,0,0-.653-.291.914.914,0,0,0-.82.485V15H24.518V4.5h1.935Zm4.778,2.81a4.016,4.016,0,0,1,.793-2.639,3.01,3.01,0,0,1,4.4,0,4.039,4.039,0,0,1,.793,2.652v.472a4.023,4.023,0,0,1-.786,2.639,3.033,3.033,0,0,1-4.413,0,4.037,4.037,0,0,1-.79-2.649Zm1.941.485q0,1.982,1.06,1.982.978,0,1.053-1.654l.007-.813a3.112,3.112,0,0,0-.28-1.5.873.873,0,0,0-.793-.489.851.851,0,0,0-.769.489,3.145,3.145,0,0,0-.277,1.5Zm7.923,1.982q.841,0,.854-1.094h1.818a2.717,2.717,0,0,1-.745,1.955,2.528,2.528,0,0,1-1.887.745,2.7,2.7,0,0,1-2.181-.889,4.012,4.012,0,0,1-.766-2.618v-.588a4.141,4.141,0,0,1,.742-2.659,2.653,2.653,0,0,1,2.191-.916,2.507,2.507,0,0,1,1.928.755,3.073,3.073,0,0,1,.718,2.143H41.949a1.939,1.939,0,0,0-.205-.957.7.7,0,0,0-.656-.335.782.782,0,0,0-.725.359,3.06,3.06,0,0,0-.232,1.391v.752a6.036,6.036,0,0,0,.089,1.261.95.95,0,0,0,.294.526A.9.9,0,0,0,41.095,13.53Zm3.541-2.468a4.016,4.016,0,0,1,.793-2.639,3.01,3.01,0,0,1,4.4,0,4.039,4.039,0,0,1,.793,2.652v.472a4.023,4.023,0,0,1-.786,2.639,3.033,3.033,0,0,1-4.413,0,4.037,4.037,0,0,1-.79-2.649Zm1.941.485q0,1.982,1.06,1.982.978,0,1.053-1.654l.007-.813a3.112,3.112,0,0,0-.28-1.5.873.873,0,0,0-.793-.489.851.851,0,0,0-.769.489,3.145,3.145,0,0,0-.277,1.5ZM48,4.5h2.174l-1.9,2.119H46.659Z" transform="translate(1186.666 15893.666)" fill="#12263f"/>
    <path id="Path_102103" data-name="Path 102103" d="M23.8,11.685a3.722,3.722,0,0,1-.957,2.577,3.38,3.38,0,0,1-2.488.875,3.135,3.135,0,0,1-2.587-1.111,4.923,4.923,0,0,1-.9-3.168V9.183a4.8,4.8,0,0,1,.93-3.162A3.186,3.186,0,0,1,20.382,4.91a3.208,3.208,0,0,1,2.471.909,4.134,4.134,0,0,1,.96,2.611H21.8a2.681,2.681,0,0,0-.325-1.453,1.281,1.281,0,0,0-1.09-.4,1.219,1.219,0,0,0-1.142.564A3.944,3.944,0,0,0,18.885,9v1.88a4.338,4.338,0,0,0,.332,2.037,1.218,1.218,0,0,0,1.138.554,1.316,1.316,0,0,0,1.094-.386,2.544,2.544,0,0,0,.342-1.4ZM28.455,15a2.7,2.7,0,0,1-.164-.574,1.653,1.653,0,0,1-1.408.711,2.084,2.084,0,0,1-1.542-.615,2.162,2.162,0,0,1-.612-1.593,2.239,2.239,0,0,1,.742-1.8,3.244,3.244,0,0,1,2.136-.649H28.2V9.887a1.114,1.114,0,0,0-.171-.7.613.613,0,0,0-.5-.205q-.725,0-.725.848H24.866a2.141,2.141,0,0,1,.769-1.692,2.863,2.863,0,0,1,1.945-.667,2.629,2.629,0,0,1,1.883.632,2.374,2.374,0,0,1,.667,1.808v3.479a3.641,3.641,0,0,0,.273,1.5V15Zm-1.142-1.381a1.079,1.079,0,0,0,.547-.13.92.92,0,0,0,.335-.308V11.644H27.73a.992.992,0,0,0-.776.314,1.208,1.208,0,0,0-.284.841Q26.671,13.619,27.313,13.619Zm7.854.7a1.905,1.905,0,0,1-1.613.813,1.812,1.812,0,0,1-1.545-.7,3.359,3.359,0,0,1-.526-2.041V7.6h1.935v4.84q.014,1.08.718,1.08a1,1,0,0,0,.957-.574V7.6h1.948V15H35.223Zm5.927-.793q.841,0,.854-1.094h1.818a2.717,2.717,0,0,1-.745,1.955,2.528,2.528,0,0,1-1.887.745,2.7,2.7,0,0,1-2.181-.889,4.012,4.012,0,0,1-.766-2.618v-.588a4.141,4.141,0,0,1,.742-2.659,2.653,2.653,0,0,1,2.191-.916,2.507,2.507,0,0,1,1.928.755,3.073,3.073,0,0,1,.718,2.143H41.949a1.939,1.939,0,0,0-.205-.957.7.7,0,0,0-.656-.335.782.782,0,0,0-.725.359,3.06,3.06,0,0,0-.232,1.391v.752a6.036,6.036,0,0,0,.089,1.261.95.95,0,0,0,.294.526A.9.9,0,0,0,41.095,13.53ZM48.375,15a2.7,2.7,0,0,1-.164-.574,1.653,1.653,0,0,1-1.408.711,2.084,2.084,0,0,1-1.542-.615,2.162,2.162,0,0,1-.612-1.593,2.239,2.239,0,0,1,.742-1.8,3.244,3.244,0,0,1,2.136-.649h.588V9.887a1.114,1.114,0,0,0-.171-.7.613.613,0,0,0-.5-.205q-.725,0-.725.848H44.786a2.141,2.141,0,0,1,.769-1.692A2.863,2.863,0,0,1,47.5,7.467a2.629,2.629,0,0,1,1.883.632,2.374,2.374,0,0,1,.667,1.808v3.479a3.641,3.641,0,0,0,.273,1.5V15Zm-1.142-1.381a1.079,1.079,0,0,0,.547-.13.92.92,0,0,0,.335-.308V11.644H47.65a.992.992,0,0,0-.776.314,1.208,1.208,0,0,0-.284.841Q46.591,13.619,47.233,13.619Z" transform="translate(1178.333 16032.666)" fill="#12263f"/>
    <path id="Path_102104" data-name="Path 102104" d="M22.665,15h-2.01L17.716,8.472V15h-2.01V5.047h2.01l2.946,6.535V5.047h2ZM27.7,15a2.7,2.7,0,0,1-.164-.574,1.653,1.653,0,0,1-1.408.711,2.084,2.084,0,0,1-1.542-.615,2.162,2.162,0,0,1-.612-1.593,2.239,2.239,0,0,1,.742-1.8,3.244,3.244,0,0,1,2.136-.649h.588V9.887a1.114,1.114,0,0,0-.171-.7.613.613,0,0,0-.5-.205q-.725,0-.725.848H24.107a2.141,2.141,0,0,1,.769-1.692,2.863,2.863,0,0,1,1.945-.667A2.629,2.629,0,0,1,28.7,8.1a2.374,2.374,0,0,1,.667,1.808v3.479a3.641,3.641,0,0,0,.273,1.5V15Zm-1.142-1.381a1.079,1.079,0,0,0,.547-.13.92.92,0,0,0,.335-.308V11.644h-.465a.992.992,0,0,0-.776.314,1.208,1.208,0,0,0-.284.841Q25.912,13.619,26.555,13.619ZM34.423,9.47l-.643-.055a1.056,1.056,0,0,0-1.073.7V15H30.766V7.6h1.825l.055.8a1.4,1.4,0,0,1,1.265-.937,1.355,1.355,0,0,1,.533.089ZM37.444,15H35.5V7.6h1.941Zm-2.03-9.311a1,1,0,0,1,.287-.738,1.164,1.164,0,0,1,1.531,0,1,1,0,0,1,.287.738,1.053,1.053,0,1,1-2.105,0Zm5.3,1.914.055.731a2.052,2.052,0,0,1,1.716-.868q1.907,0,1.962,2.673V15H42.5V10.283a1.7,1.7,0,0,0-.188-.913.732.732,0,0,0-.66-.284.9.9,0,0,0-.82.54V15H38.894V7.6ZM43.891,4.6A2.128,2.128,0,0,1,43.5,5.884a1.164,1.164,0,0,1-.974.53,1.117,1.117,0,0,1-.386-.062,2.8,2.8,0,0,1-.472-.253,2.369,2.369,0,0,0-.431-.232.893.893,0,0,0-.277-.041.369.369,0,0,0-.308.167.8.8,0,0,0-.123.482L39.44,6.414a2.145,2.145,0,0,1,.39-1.3,1.152,1.152,0,0,1,.957-.537.955.955,0,0,1,.291.044,3.14,3.14,0,0,1,.485.239,3.488,3.488,0,0,0,.5.246.927.927,0,0,0,.3.051A.39.39,0,0,0,42.67,5a.759.759,0,0,0,.133-.482Zm1.716,6.467A4.016,4.016,0,0,1,46.4,8.424a3.01,3.01,0,0,1,4.4,0,4.039,4.039,0,0,1,.793,2.652v.472a4.023,4.023,0,0,1-.786,2.639,3.033,3.033,0,0,1-4.413,0,4.037,4.037,0,0,1-.79-2.649Zm1.941.485q0,1.982,1.06,1.982.978,0,1.053-1.654l.007-.813a3.112,3.112,0,0,0-.28-1.5.873.873,0,0,0-.793-.489.851.851,0,0,0-.769.489,3.145,3.145,0,0,0-.277,1.5Z" transform="translate(1135.333 16082.666)" fill="#12263f"/>
    <path id="Path_102102" data-name="Path 102102" d="M6.922,12.266,8.6,5.047h2.242L7.968,15H5.876L3.026,5.047H5.254ZM14.879,15a2.7,2.7,0,0,1-.164-.574,1.653,1.653,0,0,1-1.408.711,2.084,2.084,0,0,1-1.542-.615,2.162,2.162,0,0,1-.612-1.593,2.239,2.239,0,0,1,.742-1.8,3.244,3.244,0,0,1,2.136-.649h.588V9.887a1.114,1.114,0,0,0-.171-.7.613.613,0,0,0-.5-.205q-.725,0-.725.848H11.291a2.141,2.141,0,0,1,.769-1.692A2.863,2.863,0,0,1,14,7.467a2.629,2.629,0,0,1,1.883.632,2.374,2.374,0,0,1,.667,1.808v3.479a3.641,3.641,0,0,0,.273,1.5V15Zm-1.142-1.381a1.079,1.079,0,0,0,.547-.13.92.92,0,0,0,.335-.308V11.644h-.465a.992.992,0,0,0-.776.314,1.208,1.208,0,0,0-.284.841Q13.1,13.619,13.738,13.619ZM19.986,15H18.044V4.5h1.941Zm3.527,0H21.572V4.5h1.941ZM28,15.137a3.032,3.032,0,0,1-2.324-.889,3.578,3.578,0,0,1-.834-2.543v-.588a4.206,4.206,0,0,1,.766-2.7,2.655,2.655,0,0,1,2.194-.95,2.513,2.513,0,0,1,2.1.891A4.25,4.25,0,0,1,30.616,11v.949H26.767a2.013,2.013,0,0,0,.362,1.2,1.225,1.225,0,0,0,.991.381,2.175,2.175,0,0,0,1.62-.663l.759,1.169a2.5,2.5,0,0,1-1.032.8A3.543,3.543,0,0,1,28,15.137ZM26.781,10.6h1.935V10.42a2.067,2.067,0,0,0-.219-1,.761.761,0,0,0-.711-.342.8.8,0,0,0-.735.362A2.5,2.5,0,0,0,26.781,10.6Zm7.9.479a4.829,4.829,0,0,1,.615-2.714,2.037,2.037,0,0,1,1.791-.9,1.727,1.727,0,0,1,1.422.738V4.5h1.948V15H38.7l-.089-.752a1.782,1.782,0,0,1-1.531.889,2.02,2.02,0,0,1-1.774-.889,4.673,4.673,0,0,1-.625-2.611Zm1.941.485a3.529,3.529,0,0,0,.232,1.528.819.819,0,0,0,.786.434.943.943,0,0,0,.868-.513V9.634a.922.922,0,0,0-.861-.547.833.833,0,0,0-.779.431,3.352,3.352,0,0,0-.246,1.531Zm8.244,3.575a3.032,3.032,0,0,1-2.324-.889,3.578,3.578,0,0,1-.834-2.543v-.588a4.206,4.206,0,0,1,.766-2.7,2.655,2.655,0,0,1,2.194-.95,2.513,2.513,0,0,1,2.1.891A4.25,4.25,0,0,1,47.48,11v.949H43.631a2.013,2.013,0,0,0,.362,1.2,1.225,1.225,0,0,0,.991.381,2.175,2.175,0,0,0,1.62-.663l.759,1.169a2.5,2.5,0,0,1-1.032.8A3.543,3.543,0,0,1,44.862,15.137ZM43.645,10.6H45.58V10.42a2.067,2.067,0,0,0-.219-1,.761.761,0,0,0-.711-.342.8.8,0,0,0-.735.362A2.5,2.5,0,0,0,43.645,10.6ZM50.6,15H48.663V4.5H50.6ZM62.17,11.685a3.722,3.722,0,0,1-.957,2.577,3.38,3.38,0,0,1-2.488.875,3.135,3.135,0,0,1-2.587-1.111,4.923,4.923,0,0,1-.9-3.168V9.183a4.8,4.8,0,0,1,.93-3.162,3.677,3.677,0,0,1,5.055-.2,4.134,4.134,0,0,1,.96,2.611H60.167a2.681,2.681,0,0,0-.325-1.453,1.281,1.281,0,0,0-1.09-.4,1.219,1.219,0,0,0-1.142.564A3.944,3.944,0,0,0,57.255,9v1.88a4.338,4.338,0,0,0,.332,2.037,1.218,1.218,0,0,0,1.138.554,1.316,1.316,0,0,0,1.094-.386,2.544,2.544,0,0,0,.342-1.4ZM66.826,15a2.7,2.7,0,0,1-.164-.574,1.653,1.653,0,0,1-1.408.711,2.084,2.084,0,0,1-1.542-.615,2.162,2.162,0,0,1-.612-1.593,2.239,2.239,0,0,1,.742-1.8,3.244,3.244,0,0,1,2.136-.649h.588V9.887a1.114,1.114,0,0,0-.171-.7.613.613,0,0,0-.5-.205q-.725,0-.725.848H63.237a2.141,2.141,0,0,1,.769-1.692,2.863,2.863,0,0,1,1.945-.667,2.629,2.629,0,0,1,1.883.632A2.374,2.374,0,0,1,68.5,9.907v3.479a3.641,3.641,0,0,0,.273,1.5V15Zm-1.142-1.381a1.079,1.079,0,0,0,.547-.13.92.92,0,0,0,.335-.308V11.644H66.1a.992.992,0,0,0-.776.314,1.208,1.208,0,0,0-.284.841Q65.042,13.619,65.684,13.619Zm7.854.7a1.905,1.905,0,0,1-1.613.813,1.812,1.812,0,0,1-1.545-.7,3.359,3.359,0,0,1-.526-2.041V7.6h1.935v4.84q.014,1.08.718,1.08a1,1,0,0,0,.957-.574V7.6h1.948V15H73.593Zm5.927-.793q.841,0,.854-1.094h1.818a2.717,2.717,0,0,1-.745,1.955,2.528,2.528,0,0,1-1.887.745,2.7,2.7,0,0,1-2.181-.889,4.012,4.012,0,0,1-.766-2.618v-.588A4.141,4.141,0,0,1,77.3,8.383a2.653,2.653,0,0,1,2.191-.916,2.507,2.507,0,0,1,1.928.755,3.073,3.073,0,0,1,.718,2.143H80.32a1.939,1.939,0,0,0-.205-.957.7.7,0,0,0-.656-.335.782.782,0,0,0-.725.359,3.06,3.06,0,0,0-.232,1.391v.752a6.036,6.036,0,0,0,.089,1.261.95.95,0,0,0,.294.526A.9.9,0,0,0,79.465,13.53ZM86.746,15a2.7,2.7,0,0,1-.164-.574,1.653,1.653,0,0,1-1.408.711,2.084,2.084,0,0,1-1.542-.615,2.162,2.162,0,0,1-.612-1.593,2.239,2.239,0,0,1,.742-1.8,3.244,3.244,0,0,1,2.136-.649h.588V9.887a1.114,1.114,0,0,0-.171-.7.613.613,0,0,0-.5-.205q-.725,0-.725.848H83.157a2.141,2.141,0,0,1,.769-1.692,2.863,2.863,0,0,1,1.945-.667,2.629,2.629,0,0,1,1.883.632,2.374,2.374,0,0,1,.667,1.808v3.479a3.641,3.641,0,0,0,.273,1.5V15ZM85.6,13.619a1.079,1.079,0,0,0,.547-.13.92.92,0,0,0,.335-.308V11.644h-.465a.992.992,0,0,0-.776.314,1.208,1.208,0,0,0-.284.841Q84.961,13.619,85.6,13.619Z" transform="translate(1086.333 15971.666)" fill="#12263f"/>
    <path id="Path_102040" data-name="Path 102040" d="M-6748.667-8315.25a.75.75,0,0,1-.75-.75v-114a.75.75,0,0,1,.75-.75.75.75,0,0,1,.75.75v114A.75.75,0,0,1-6748.667-8315.25Z" transform="translate(9544.333 9242) rotate(-90)" fill="#ffb74d"/>
  </g>
</svg>
