<svg xmlns="http://www.w3.org/2000/svg" width="400" height="397" viewBox="0 0 400 397">
  <g id="t1-m1" transform="translate(-1020 -5367)">
    <path id="Rectangle_5557" data-name="Rectangle 5557" d="M2.5,2.5v375h378V2.5H2.5M0,0H383V380H0Z" transform="translate(1037 5384)" fill="#ffdc72"/>
    <rect id="Rectangle_5558" data-name="Rectangle 5558" width="383" height="380" transform="translate(1020 5367)" fill="#fff8e3"/>
    <g id="Group_53941" data-name="Group 53941" transform="translate(-42.512 5365.52)">
      <g id="Group_53934" data-name="Group 53934" transform="translate(1260.362 35.908)">
        <path id="Path_100898" data-name="Path 100898" d="M1222.942,154.574a1.075,1.075,0,0,1-.461-.1l-2.676-1.264-8.824-.689-4.438.56a1.078,1.078,0,0,1-.683-.146l-1.41-.846a1.078,1.078,0,0,1-.392-.4l-1.55-2.819a1.085,1.085,0,0,1-.069-.881l1.408-3.947a1.033,1.033,0,0,1,.134-.254,41.29,41.29,0,0,1,3.363-4.233,2.8,2.8,0,0,0,.739-1.242l-3.51-1.518a1.083,1.083,0,0,1-.379-.28l-1.673-1.912-4.5-.261a1.077,1.077,0,0,1-.975-1.311l1.242-5.521v-.538l-6.862.6-12.637,1.686a1.061,1.061,0,0,1-1.008-.426l-2.821-3.8a1.07,1.07,0,0,1-.194-.827l2.537-14.659a1.048,1.048,0,0,1,.165-.413l3.264-4.9.123-.579a1.139,1.139,0,0,1,1.083-.855l.947.026,11.386-2.02c4.786-2.442,10.051-5.308,10.676-5.932,1.148-1.148,10.684-8.307,11.767-9.121l8.522-8.725a1.068,1.068,0,0,1,.513-.293l11.466-2.819,18.442-4.98,4.44-5.293.542-10.165,0-5.2a1.076,1.076,0,0,1,1.077-1.077h5.523l4.959-1.1a1.075,1.075,0,0,1,1.305,1.141l-.188,2.254.265,2.537,1.891-.1,1.757-2.134-1.669-1.942a1.092,1.092,0,0,1-.258-.747l.187-4.324a1.083,1.083,0,0,1,.652-.943l2.631-1.126a1.08,1.08,0,0,1,.426-.088h2.793L1285.931,39l5.74-2.967a1.09,1.09,0,0,1,.777-.084l8.271,2.257,12.984,3.762a1.083,1.083,0,0,1,.728.719l1.471,4.778c.874,1.57,4.533,8.154,4.914,9.293a23.287,23.287,0,0,1,.241,5.467,1.079,1.079,0,0,1-.79.988l-5.919,1.613-6,6.18a1.093,1.093,0,0,1-.482.286l-34.491,9.642-14.26,29.448a1.082,1.082,0,0,1-.81.6c-3.617.545-11.47,1.72-13.8,2.011-.448,1.21-1.352,4.989-2.028,8.232a1.056,1.056,0,0,1-.355.6c-2.556,2.181-6.5,5.566-6.89,5.956a59.788,59.788,0,0,0-1.979,6.29,1.075,1.075,0,0,1-.114.267l-8.165,13.735-.965,5.616a1.075,1.075,0,0,1-.567.773A1.059,1.059,0,0,1,1222.942,154.574Zm-12.009-4.2,9.237.7a1.088,1.088,0,0,1,.375.1l1.574.743.758-4.416a1.117,1.117,0,0,1,.138-.368l8.193-13.783c1.738-6.346,2.309-6.914,2.5-7.1.528-.525,5.4-4.688,6.738-5.833,1.994-9.517,2.5-9.517,3.419-9.517.583-.039,8.23-1.167,13.563-1.97l14.224-29.374a1.072,1.072,0,0,1,.678-.566l34.68-9.7,6-6.18a1.056,1.056,0,0,1,.487-.291l5.441-1.484a18.836,18.836,0,0,0-.164-3.9c-.224-.67-2.644-5.148-4.806-9.024a1.031,1.031,0,0,1-.088-.209l-1.333-4.33-12.411-3.6-7.846-2.14-5.454,2.814-4.22,1.731a1.115,1.115,0,0,1-.409.08h-2.786l-1.806.773-.14,3.223,1.981,2.306a1.08,1.08,0,0,1,.013,1.387l-2.633,3.2a1.071,1.071,0,0,1-.771.39l-3.385.187a1.092,1.092,0,0,1-1.128-.967l-.375-3.76.073-.995-3.656.812a1.053,1.053,0,0,1-.232.026h-4.565v4.186l-.564,10.583a1.072,1.072,0,0,1-.25.633l-4.888,5.827a1.057,1.057,0,0,1-.545.349l-18.793,5.075-11.19,2.75-8.432,8.615c-4.328,3.264-10.872,8.243-11.66,9.031-1.188,1.189-9.674,5.54-11.362,6.4a1.06,1.06,0,0,1-.3.1l-11.653,2.067a1.084,1.084,0,0,1-.215.017l-.166-.006a1.078,1.078,0,0,1-.132.278l-3.255,4.886-2.42,13.981,2.168,2.926,12.056-1.606,8.081-.711a1.045,1.045,0,0,1,.823.278,1.071,1.071,0,0,1,.349.795v1.832a1.114,1.114,0,0,1-.024.237l-.995,4.416,3.658.192a1.075,1.075,0,0,1,.76.366l1.811,2.071,4.009,1.738a1.075,1.075,0,0,1,.644.881,4.6,4.6,0,0,1-1.438,3.546,38.552,38.552,0,0,0-3.04,3.828l-1.2,3.35,1.176,2.14.844.506Z" transform="translate(-1174.749 -35.908)" fill="#5038a1"/>
      </g>
      <g id="Group_53935" data-name="Group 53935" transform="translate(1170.235 110.9)">
        <path id="Path_100899" data-name="Path 100899" d="M1155.494,121.942a1.065,1.065,0,0,1-.728-.286l-2.444-2.254c-2.773-1.983-6.236-4.242-7.052-4.446-1.624-.4-3.368-2.315-3.841-2.862l-4.389-2.924a1.085,1.085,0,0,1-.448-.635l-1.314-5.262c-.01-.047-.019-.095-.026-.142l-.754-6.768-1.559-4.976a1.079,1.079,0,0,1,.6-1.309l10.544-4.5L1151.4,77.3l6.246-6.249a1.091,1.091,0,0,1,1.107-.261l.4.136a1.078,1.078,0,0,1,.549.42l6.464,9.64a1.078,1.078,0,0,1,.183.556l.186,4.509.745,7.457a1.043,1.043,0,0,1,0,.233l-1.314,11.274a1.082,1.082,0,0,1-.489.782l-2.343,1.505L1161,112.619l-4.554,8.744a1.071,1.071,0,0,1-.771.562A1.052,1.052,0,0,1,1155.494,121.942Zm-16.912-14.334,4.167,2.776a1,1,0,0,1,.229.207,7.924,7.924,0,0,0,2.816,2.276c1.621.407,6.854,4.128,7.887,4.868l1.51,1.389,3.861-7.4,2.209-5.54a1.073,1.073,0,0,1,.418-.5l2.2-1.419,1.242-10.654-.739-7.4-.181-4.27-5.777-8.619-5.458,5.461-7.427,8.411a1.118,1.118,0,0,1-.383.278l-9.872,4.214,1.313,4.248.786,6.893Z" transform="translate(-1132.893 -70.736)" fill="#5038a1"/>
      </g>
      <g id="Group_53936" data-name="Group 53936" transform="translate(1188.188 96.991)">
        <path id="Path_100900" data-name="Path 100900" d="M1201.229,202.128a1.073,1.073,0,0,1-.284-.039l-11.279-3.1a1.113,1.113,0,0,1-.517-.321l-4.7-5.258-7.568-5.135-9.046-1.1a1.084,1.084,0,0,1-.6-.282l-8.173-7.612-4.972-3.579a1.211,1.211,0,0,1-.2-.183l-1.411-1.692a1.066,1.066,0,0,1-.245-.607,19.948,19.948,0,0,1,.05-4.933,19.931,19.931,0,0,0,.458-2.444l-4.5-5.562a1.037,1.037,0,0,1-.215-.452l-.846-3.947a1.118,1.118,0,0,1-.024-.224v-5.355a1.077,1.077,0,0,1,.1-.456l1.972-4.229.866-3.3-8.374-5.5a1.073,1.073,0,0,1-.444-1.2l1.087-3.8v-5.771a1.076,1.076,0,0,1,1.806-.79l1.411,1.3,3.858-7.4,2.209-5.54a1.073,1.073,0,0,1,.418-.5l2.2-1.419,1.242-10.652-.739-7.4-.181-4.27-6.292-9.388a1.076,1.076,0,0,1,1.238-1.619l21.31,7.2,5.64,1.09a1.077,1.077,0,0,1,.758,1.537l-.986,1.975a1.075,1.075,0,0,1-.446.463l-3.848,2.11-.224,3.693,1.565,2.3,2.991-2.166,6.806-12.435-1.449-9.222a1.076,1.076,0,0,1,.149-.736l4.323-6.955a1.085,1.085,0,0,1,.519-.433l6.2-2.442a1.075,1.075,0,0,1,.764-.009l14.685,5.39,12.3.34a1.074,1.074,0,0,1,1.023,1.3l-.163.779a1.081,1.081,0,0,1-.158.377l-3.255,4.886-2.42,13.981,2.545,3.437,2.765,3.176a1.077,1.077,0,0,1,.241.928l-1.126,5.357-.545,6.079a1.087,1.087,0,0,1-.218.556l-4.509,5.919a1.082,1.082,0,0,1-.5.364l-10.208,3.585-10.686,10.413-2.248,4.75,3.1,7.48,9.933,8a1.121,1.121,0,0,1,.293.364l6.2,12.687a1.078,1.078,0,0,1-.706,1.518l-6.766,1.69a.958.958,0,0,1-.26.032h-8.454l-1.141.652.228,3.443,2.73,9.545,4.546,5.62,7.19,4.7a1.089,1.089,0,0,1,.461.663l1.408,6.2a1.077,1.077,0,0,1-.743,1.273l-7.609,2.257A1.157,1.157,0,0,1,1201.229,202.128ZM1190.545,197l10.675,2.935,6.346-1.882-1.088-4.793-6.965-4.554a1.173,1.173,0,0,1-.25-.224l-4.791-5.921a1.092,1.092,0,0,1-.2-.381l-2.82-9.868a1.235,1.235,0,0,1-.039-.224l-.282-4.229a1.075,1.075,0,0,1,.54-1.006l1.975-1.128a1.077,1.077,0,0,1,.534-.142h8.606l5.349-1.337-5.515-11.274-9.961-8.027a1.079,1.079,0,0,1-.319-.426l-3.385-8.176a1.08,1.08,0,0,1,.022-.872l2.536-5.357a1.081,1.081,0,0,1,.222-.31l11-10.712a1.05,1.05,0,0,1,.392-.245l10.129-3.557,4.126-5.418.536-5.893,1.038-4.957-2.468-2.838-2.872-3.872a1.071,1.071,0,0,1-.194-.827l2.537-14.659a1.048,1.048,0,0,1,.165-.413l2.814-4.227-10.878-.3a1.084,1.084,0,0,1-.34-.065l-14.465-5.31-5.489,2.162-3.925,6.311,1.444,9.19a1.093,1.093,0,0,1-.118.685l-7.1,12.969a1.028,1.028,0,0,1-.314.353l-4.087,2.961a1.074,1.074,0,0,1-1.52-.265l-2.4-3.525a1.094,1.094,0,0,1-.185-.672l.282-4.651a1.085,1.085,0,0,1,.558-.879l4.076-2.235.2-.4-4.388-.857-18.445-6.219,4.7,7.007a1.078,1.078,0,0,1,.183.556l.186,4.509.745,7.457a1.043,1.043,0,0,1,0,.233l-1.313,11.274a1.082,1.082,0,0,1-.489.782l-2.343,1.505-2.127,5.318-4.554,8.744a1.077,1.077,0,0,1-1.684.293l-.638-.586v3.46a1.071,1.071,0,0,1-.043.3l-.911,3.185,8.361,5.486a1.073,1.073,0,0,1,.45,1.176l-1.128,4.229-1.938,4.19v5l.769,3.583,4.63,5.721a1.085,1.085,0,0,1,.233.812,24.677,24.677,0,0,1-.611,3.307,20.811,20.811,0,0,0,.028,3.747l1.1,1.322,4.963,3.585,8.025,7.461,8.951,1.081a1.131,1.131,0,0,1,.478.179l7.892,5.357a1.178,1.178,0,0,1,.2.172Z" transform="translate(-1141.23 -64.276)" fill="#5038a1"/>
      </g>
      <g id="Group_53937" data-name="Group 53937" transform="translate(1147.218 167.282)">
        <path id="Path_100901" data-name="Path 100901" d="M1175.268,206.217a1.964,1.964,0,0,1-1.133-.357,3.207,3.207,0,0,1-1.184-2.521,35.358,35.358,0,0,0-1.171-5.446l-4.3-3.1-3.568-1.529-3.712.484-3.886,3.359a1.093,1.093,0,0,1-.314.189l-3.383,1.316a1.081,1.081,0,0,1-1.253-.357c-.971-1.3-1.342-2.323-1.1-3.053l.206-.62-3.609-1.01-1.7-.153a1.082,1.082,0,0,1-.855-.59,8.257,8.257,0,0,1-.868-3.114,53.089,53.089,0,0,0-1.643-6.458,1,1,0,0,1-.047-.308v-2.431l-1.189-3.051-2.349-3.075a.977.977,0,0,1-.116-.192l-1.88-3.947a1.059,1.059,0,0,1-.013-.9,1.078,1.078,0,0,1,.674-.6,14.17,14.17,0,0,1,2.754-.607h7.211l1.1-.245a25.378,25.378,0,0,0,1.522-3.122c-.028-.209-.4-1.985-.775-3.68l-6.671-1.54a1.071,1.071,0,0,1-.713-.553l-2.633-5.075-1.738-3.652-5.506-2.842-4.672-2.242a1.034,1.034,0,0,1-.263-.179l-2.444-2.254a1.117,1.117,0,0,1-.263-.375l-1.5-3.566a1.074,1.074,0,0,1,.806-1.477l3.238-.573,2.33-4.412a35.51,35.51,0,0,0,.151-5.635,16.51,16.51,0,0,0-1.693-3.2l-2.842-4.832a1.078,1.078,0,0,1-.069-.954l1.268-3.1,2.9-13.217.861-3.288a1.08,1.08,0,0,1,.842-.786l2.2-.416a1.068,1.068,0,0,1,1.146.543l1.126,2.067a1.1,1.1,0,0,1,.11.3l1.451,7.25,1.469,1.766,3.781.859a1.077,1.077,0,0,1,.64.426l.939,1.313a1.062,1.062,0,0,1,.192.5l.751,6.2.2,4.6a1.1,1.1,0,0,1-.129.553l-.458.857h4.022a.951.951,0,0,1,.247.03l3.947.939a1.046,1.046,0,0,1,.5.269l4.13,3.951,6.326,1.8a1.09,1.09,0,0,1,.56.383l2.442,3.2,2.551,4.871a1.066,1.066,0,0,1,.115.5l-.181,9.2,2.011,2.515a1.091,1.091,0,0,1,.206.426l.706,3.006,2.743,4.111,4.255,2.127,6.038,3.208a1.07,1.07,0,0,1,.4.362l2.819,4.324a1.06,1.06,0,0,1,.17.5l.377,4.888a1.043,1.043,0,0,1-.019.308l-.564,2.631a1.077,1.077,0,0,1-.291.536l-1.242,1.245.575,2.022,2.054,6.156a1.08,1.08,0,0,1,.056.34v2.631c0,.575-.19,3.824-.19,3.824-.233,1.2-.646,2.571-1.419,3.088a7.21,7.21,0,0,0-.928,1.608,1.125,1.125,0,0,1-.224.323l-3.193,3.2a.971.971,0,0,1-.269.2l-6.2,3.2A2.293,2.293,0,0,1,1175.268,206.217Zm-11.206-15.133a1.076,1.076,0,0,1,.426.086l3.947,1.692a1.038,1.038,0,0,1,.2.114l4.7,3.385a1.052,1.052,0,0,1,.4.564,39.055,39.055,0,0,1,1.357,6.234,2.125,2.125,0,0,0,.215.87l5.778-2.976,2.937-2.937a6.262,6.262,0,0,1,1.619-2.341,7.9,7.9,0,0,0,.48-1.568c-.009,0,.168-3.01.168-3.553V188.2l-2.013-6.035-.762-2.676a1.074,1.074,0,0,1,.271-1.055l1.466-1.469.465-2.166-.343-4.457-2.517-3.861-5.769-3.064-4.489-2.244a1.072,1.072,0,0,1-.413-.364l-3.008-4.513a1.084,1.084,0,0,1-.151-.351l-.7-2.959-2.106-2.627a1.087,1.087,0,0,1-.234-.7l.185-9.319-2.314-4.44-2.13-2.76-6.238-1.783a1.063,1.063,0,0,1-.448-.256l-4.113-3.934-3.54-.842h-5.7a1.079,1.079,0,0,1-.949-1.587l1.176-2.183-.177-4.218-.71-5.844-.543-.758-3.734-.848a1.081,1.081,0,0,1-.59-.362l-1.88-2.254a1.055,1.055,0,0,1-.228-.478l-1.473-7.358-.672-1.236-.766.144-.679,2.59-2.948,13.35-1.126,2.78,2.552,4.337a18.506,18.506,0,0,1,1.951,3.809c.3,1.206-.011,5.321-.114,6.552a1.07,1.07,0,0,1-.119.413l-2.681,5.073a1.074,1.074,0,0,1-.764.558l-2.429.428.887,2.108,2.154,1.987,4.554,2.186,5.854,3.021a1.086,1.086,0,0,1,.478.5l1.878,3.947,2.388,4.6,6.845,1.58a1.077,1.077,0,0,1,.808.81,50.238,50.238,0,0,1,.967,4.937c0,.254,0,.842-2.013,4.47a1.1,1.1,0,0,1-.708.53l-1.695.375a1.071,1.071,0,0,1-.233.026h-7.329a6.468,6.468,0,0,0-.92.185l1.279,2.683,2.375,3.107a1.016,1.016,0,0,1,.149.263l1.316,3.383a1.11,1.11,0,0,1,.073.392v2.472a47.937,47.937,0,0,1,1.69,6.925,5.121,5.121,0,0,0,.407,1.621l1.257.127,4.88,1.35a1.076,1.076,0,0,1,.732,1.376l-.51,1.533a3.308,3.308,0,0,0,.282.568l2.4-.935,3.992-3.449a1.085,1.085,0,0,1,.566-.252l4.324-.564A.986.986,0,0,1,1164.062,191.085Zm-11.726,4.563Z" transform="translate(-1122.203 -96.92)" fill="#5038a1"/>
      </g>
      <g id="Group_53938" data-name="Group 53938" transform="translate(1100.512 205.909)">
        <path id="Path_100902" data-name="Path 100902" d="M1127.826,237.461c-1.4,0-2.978-.019-4.7-.047-.685-.013-1.219-.022-1.52-.022-1.757,0-10.663-2.62-12.428-3.146a1.078,1.078,0,0,1-.454-.271,33.432,33.432,0,0,1-5.557-7.61,32.749,32.749,0,0,1-2.646-9.672,1.088,1.088,0,0,1,.108-.594l2.741-5.478,1.384-10.254a1.058,1.058,0,0,1,.162-.441l2.945-4.548.269-5.911a1.064,1.064,0,0,1,.065-.327l3.665-9.866a1.127,1.127,0,0,1,.183-.314l4.229-5.075,2.993-3.245-1.878-5.859-5.874-1.277a1.07,1.07,0,0,1-.786-.7l-4.438-12.73a1.076,1.076,0,0,1,.683-1.378l2.25-.734,7.726-6.776,5.026-9.237.682-5.437a1.072,1.072,0,0,1,.422-.728l6.2-4.651,7.291-6.031a1.084,1.084,0,0,1,1.008-.2l7.36,2.317,3.174-.56a1.063,1.063,0,0,1,1.18.642l1.41,3.35,2.153,1.987,4.554,2.186,5.855,3.021a1.087,1.087,0,0,1,.478.5l1.877,3.947,2.388,4.6,6.845,1.58a1.076,1.076,0,0,1,.807.81,50.209,50.209,0,0,1,.967,4.937c0,.254,0,.842-2.014,4.47a1.1,1.1,0,0,1-.708.53l-1.695.375a1.07,1.07,0,0,1-.233.026h-7.329a6.482,6.482,0,0,0-.919.185l1.279,2.683,2.375,3.107a1.023,1.023,0,0,1,.149.263l1.315,3.383a1.113,1.113,0,0,1,.073.392V162.1a47.938,47.938,0,0,1,1.69,6.925,5.121,5.121,0,0,0,.407,1.621l1.257.127,4.879,1.35a1.076,1.076,0,0,1,.732,1.376l-.51,1.533a3.308,3.308,0,0,0,.282.568l2.4-.935,3.992-3.449a1.086,1.086,0,0,1,.566-.252l4.324-.564a1.034,1.034,0,0,1,.564.078l3.947,1.692a1.031,1.031,0,0,1,.2.114l4.7,3.385a1.052,1.052,0,0,1,.4.564,39.037,39.037,0,0,1,1.357,6.234,1.887,1.887,0,0,0,.237.874,1.073,1.073,0,0,1,.157.909l-1.462,5.267a1.062,1.062,0,0,1-.187.373l-1.975,2.539a1.042,1.042,0,0,1-.2.194l-5.919,4.511a1.09,1.09,0,0,1-.784.213l-13.8-1.628-4.138,4.918-8.361,6.714-2.678,8.034-.554,6.916a1.056,1.056,0,0,1-.31.676c-.573.573-5.693,5.611-9.026,6.216-2.584.472-4.615,3.7-4.634,3.738a1.076,1.076,0,0,1-.594.461s-9.849,3.094-11.542,3.658A29.249,29.249,0,0,1,1127.826,237.461Zm-17.768-5.2c4,1.182,10.456,2.976,11.546,2.976.308,0,.857.009,1.557.022,2.543.043,9.293.155,10.508-.25,1.5-.5,9.416-2.991,11.214-3.555.7-1.006,2.892-3.837,5.85-4.375,2.134-.39,5.975-3.764,7.609-5.346l.532-6.649a1.108,1.108,0,0,1,.05-.254l2.82-8.458a1.082,1.082,0,0,1,.349-.5l8.458-6.765,4.358-5.209a1.115,1.115,0,0,1,.945-.377l13.953,1.641,5.46-4.162,1.759-2.259,1.286-4.636a4.413,4.413,0,0,1-.346-1.453,35.344,35.344,0,0,0-1.171-5.446l-4.3-3.1-3.568-1.529-3.71.485-3.889,3.359a1.094,1.094,0,0,1-.314.189l-3.383,1.316a1.081,1.081,0,0,1-1.253-.357c-.971-1.3-1.342-2.323-1.1-3.053l.206-.62-3.609-1.01-1.7-.153a1.082,1.082,0,0,1-.855-.59,8.256,8.256,0,0,1-.868-3.114,53.089,53.089,0,0,0-1.643-6.458,1,1,0,0,1-.047-.308v-2.431l-1.189-3.051-2.349-3.075a.923.923,0,0,1-.116-.192l-1.88-3.947a1.059,1.059,0,0,1-.013-.9,1.079,1.079,0,0,1,.674-.6,14.173,14.173,0,0,1,2.754-.607h7.211l1.1-.245a25.412,25.412,0,0,0,1.523-3.122c-.028-.209-.4-1.985-.775-3.68l-6.671-1.54a1.072,1.072,0,0,1-.713-.553l-2.633-5.075-1.738-3.652-5.506-2.842-4.673-2.242a1.031,1.031,0,0,1-.263-.179l-2.444-2.254a1.112,1.112,0,0,1-.263-.375l-1.167-2.773-2.586.456a1.057,1.057,0,0,1-.51-.034l-7.054-2.22-6.879,5.689-5.874,4.408-.65,5.185a1.131,1.131,0,0,1-.123.381l-5.215,9.586a1.076,1.076,0,0,1-.235.295l-8.036,7.048a1.051,1.051,0,0,1-.375.215l-1.421.461,3.878,11.124,5.9,1.281a1.085,1.085,0,0,1,.8.723l2.257,7.05a1.081,1.081,0,0,1-.237,1.057l-3.383,3.665-4.076,4.892-3.54,9.537-.275,6.033a1.074,1.074,0,0,1-.17.536l-2.971,4.591-1.378,10.193a1.042,1.042,0,0,1-.1.338l-2.674,5.346a30.26,30.26,0,0,0,2.392,8.63A31.65,31.65,0,0,0,1110.058,232.263Z" transform="translate(-1100.512 -114.86)" fill="#5038a1"/>
      </g>
      <g id="Group_53939" data-name="Group 53939" transform="translate(1154.222 130.156)">
        <path id="Path_100903" data-name="Path 100903" d="M1202.6,297.509c-.039,0-.075,0-.116,0l-5.262-.564a1.07,1.07,0,0,1-.765-.45l-2.252-3.2a1.061,1.061,0,0,1-.191-.508l-.941-9.022a.972.972,0,0,1,.011-.3c.179-1.034.779-4.449.979-5.043.082-.252.269-.814,2.625-2.315l-1.219-2.431-.3.917a1.078,1.078,0,0,1-.1.213c-.717,1.2-3.213,5.129-5.2,5.573a4.844,4.844,0,0,1-2.784.1,1.092,1.092,0,0,1-.224-.151l-2.817-2.442a1.072,1.072,0,0,1-.372-.79l-.189-8.647-.738-4.55a1.09,1.09,0,0,1,.2-.816l1.69-2.257a1.09,1.09,0,0,1,.532-.379l4.477-1.438-.119-2.379-2.166-1.393a1.07,1.07,0,0,1-.463-.646l-1.126-4.509-2.011-6.21-3.706-6.352-5.116-2.117a1.079,1.079,0,0,1-.42-.314l-3.21-3.923-2.313-.945a1.07,1.07,0,0,1-.629-1.283l1.3-4.688a1.072,1.072,0,0,1,.85-.773,1.055,1.055,0,0,1,1.057.428l5.764-2.969,2.937-2.937a6.266,6.266,0,0,1,1.62-2.341,7.928,7.928,0,0,0,.48-1.568c-.009,0,.168-3.01.168-3.553v-2.457l-2.013-6.036-.762-2.676a1.074,1.074,0,0,1,.271-1.055l1.466-1.469.465-2.166-.343-4.457-2.517-3.861-5.769-3.064-4.49-2.244a1.069,1.069,0,0,1-.413-.364l-3.008-4.513a1.084,1.084,0,0,1-.151-.351l-.7-2.959-2.106-2.627a1.086,1.086,0,0,1-.235-.7l.185-9.319-2.314-4.44-2.13-2.76-6.238-1.783a1.06,1.06,0,0,1-.448-.256l-4.113-3.934-3.54-.842h-5.7a1.079,1.079,0,0,1-.949-1.587l1.176-2.183-.177-4.218-.711-5.844-.542-.758-3.734-.848a1.082,1.082,0,0,1-.59-.362l-1.88-2.254a1.055,1.055,0,0,1-.228-.478l-1.473-7.358-.672-1.236-1.434.271a1.08,1.08,0,0,1-1.242-1.331l2.918-11.126-.28-14.371a1.078,1.078,0,0,1,.517-.941l3.788-2.3,6.509-8.029a1.076,1.076,0,0,1,.413-.312l2.767-1.184a1.084,1.084,0,0,1,.874.015,1.072,1.072,0,0,1,.577.657l1.6,5.176.795,6.968,1.186,4.716,4.168,2.776a1,1,0,0,1,.229.207,7.924,7.924,0,0,0,2.816,2.276c1.621.407,6.854,4.128,7.887,4.868a1.075,1.075,0,0,1,.448.874v5.921a1.071,1.071,0,0,1-.043.3l-.911,3.185,8.361,5.486a1.073,1.073,0,0,1,.45,1.176l-1.128,4.229-1.938,4.19v5l.769,3.583,4.63,5.721a1.085,1.085,0,0,1,.233.812,24.643,24.643,0,0,1-.611,3.307,20.819,20.819,0,0,0,.028,3.747l1.1,1.322,4.963,3.585,8.025,7.461,8.951,1.081a1.129,1.129,0,0,1,.478.179l7.894,5.357a1.243,1.243,0,0,1,.2.172l4.582,5.123,10.675,2.935,2.252-.67a1.084,1.084,0,0,1,.894.129,1.066,1.066,0,0,1,.48.76l.689,5.125a1.063,1.063,0,0,1,.006.25l-.39,4.024c1.223,2.132,3.075,5.549,3.075,6.725a32.314,32.314,0,0,1-.771,4.576l3.546,5.254a1.038,1.038,0,0,1,.148.329l1.55,5.921a1.145,1.145,0,0,1,.034.271v9.209l-.947,8.021a1.077,1.077,0,0,1-.458.76l-2.862,1.968-3.585,4.78.689,6.2,2.58,6.636a1.079,1.079,0,0,1,.023.717l-1.462,4.565-.37,7.192a1.061,1.061,0,0,1-.429.805l-3.281,2.463.515,6.361a1.087,1.087,0,0,1-.006.237l-1.126,8.081a1.081,1.081,0,0,1-.413.708l-3.2,2.444c-2.523,2.31-6.352,5.872-6.735,6.352-.1.151-.469.7-6.653,4.957A1.082,1.082,0,0,1,1202.6,297.509Zm-4.664-2.657,4.382.467c2.631-1.815,5.454-3.846,5.829-4.25.338-.517,4.578-4.427,7.069-6.707l2.92-2.235,1.048-7.528-.553-6.834a1.071,1.071,0,0,1,.428-.947l3.353-2.517.351-6.828a1.075,1.075,0,0,1,.05-.271l1.386-4.337-2.491-6.41a1.072,1.072,0,0,1-.067-.271l-.754-6.768a1.07,1.07,0,0,1,.209-.762l3.947-5.263a1.079,1.079,0,0,1,.252-.243l2.605-1.792.883-7.409-.009-8.942-1.466-5.609-3.7-5.486a1.066,1.066,0,0,1-.157-.844,35.9,35.9,0,0,0,.818-4.552,36.3,36.3,0,0,0-2.958-5.945,1.083,1.083,0,0,1-.14-.644l.412-4.244-.506-3.757-1.344.4a1.064,1.064,0,0,1-.592,0l-11.279-3.1a1.114,1.114,0,0,1-.517-.321l-4.7-5.258-7.569-5.135-9.046-1.1a1.083,1.083,0,0,1-.6-.282l-8.173-7.612-4.972-3.579a1.215,1.215,0,0,1-.2-.183l-1.41-1.692a1.065,1.065,0,0,1-.245-.607,19.966,19.966,0,0,1,.05-4.933,19.907,19.907,0,0,0,.458-2.444l-4.5-5.562a1.038,1.038,0,0,1-.215-.452l-.846-3.947a1.145,1.145,0,0,1-.023-.224v-5.355a1.077,1.077,0,0,1,.1-.456l1.972-4.229.866-3.3-8.374-5.5a1.074,1.074,0,0,1-.444-1.2l1.088-3.8v-5.215a44.526,44.526,0,0,0-6.705-4.21c-1.624-.4-3.368-2.315-3.841-2.862l-4.388-2.924a1.085,1.085,0,0,1-.448-.635l-1.314-5.262-.779-6.91-1.2-3.837-1.428.612-6.458,7.969a1.1,1.1,0,0,1-.278.241l-3.417,2.074.269,13.9a1.066,1.066,0,0,1-.036.295l-2.522,9.623.532-.1a1.068,1.068,0,0,1,1.146.543l1.126,2.067a1.1,1.1,0,0,1,.11.3l1.451,7.25,1.469,1.766,3.781.859a1.076,1.076,0,0,1,.64.426l.939,1.313a1.063,1.063,0,0,1,.192.5l.751,6.2.2,4.6a1.1,1.1,0,0,1-.129.553l-.459.857h4.022a.952.952,0,0,1,.248.03l3.947.939a1.046,1.046,0,0,1,.495.269l4.13,3.951,6.326,1.8a1.089,1.089,0,0,1,.56.383l2.442,3.2,2.551,4.871a1.064,1.064,0,0,1,.115.5l-.181,9.2,2.011,2.515a1.1,1.1,0,0,1,.207.426l.706,3.006,2.743,4.111,4.255,2.127,6.038,3.208a1.073,1.073,0,0,1,.4.362l2.818,4.324a1.056,1.056,0,0,1,.17.5l.377,4.888a1.051,1.051,0,0,1-.019.308l-.564,2.631a1.077,1.077,0,0,1-.291.536l-1.242,1.245.575,2.022,2.054,6.156a1.079,1.079,0,0,1,.056.34v2.631c0,.575-.189,3.824-.189,3.824-.233,1.2-.646,2.571-1.419,3.088a7.214,7.214,0,0,0-.928,1.608,1.127,1.127,0,0,1-.224.323l-3.193,3.2a.969.969,0,0,1-.269.2l-6.2,3.2a1.046,1.046,0,0,1-.224.086,1.89,1.89,0,0,1-.657.039l-.693,2.5,1.68.685a1.1,1.1,0,0,1,.424.317l3.213,3.925,5.2,2.151a1.085,1.085,0,0,1,.519.452l3.947,6.768a1.072,1.072,0,0,1,.095.211l2.067,6.391,1.042,4.166,2.274,1.46a1.079,1.079,0,0,1,.491.853l.189,3.76a1.077,1.077,0,0,1-.745,1.079l-4.937,1.585-1.21,1.617.678,4.248.192,8.314,2.235,1.938c.134-.024.56-.056,1.352-.232.648-.144,2.392-2.222,3.759-4.477l1.09-3.271a1.076,1.076,0,0,1,.947-.732,1.087,1.087,0,0,1,1.038.592l2.821,5.637a1.077,1.077,0,0,1-.411,1.406,16.221,16.221,0,0,0-2.622,1.843c-.024.168-.44,2.394-.79,4.412l.894,8.594Z" transform="translate(-1125.456 -79.679)" fill="#5038a1"/>
      </g>
      <g id="Group_53940" data-name="Group 53940" transform="translate(1235.835 124.711)">
        <path id="Path_100904" data-name="Path 100904" d="M1201.224,261.99a1.024,1.024,0,0,1-.3-.043l-3.382-.986a1.074,1.074,0,0,1-.383-.2l-3.544-2.911-1.466.314-5.922.095a1.148,1.148,0,0,1-.943-.538c-.922-1.589-.922-1.947-.922-2.16v-1.763a1.1,1.1,0,0,1,.144-.538l1.551-2.679a1.074,1.074,0,0,1,.5-.446l1.985-.876.545-1.438V246.4l-1.71-1.161a1.058,1.058,0,0,1-.465-.762l-.172-1.43-1.309-1.486-1.809-1.809a1.065,1.065,0,0,1-.306-.631l-.4-3.273a1.079,1.079,0,0,1,.459-1.016l.818-.564.883-7.409-.009-8.942-1.466-5.609-3.7-5.486a1.066,1.066,0,0,1-.157-.844,35.921,35.921,0,0,0,.818-4.552,36.313,36.313,0,0,0-2.958-5.945,1.083,1.083,0,0,1-.14-.644l.412-4.244-.672-5a1.076,1.076,0,0,1,.76-1.176l4.091-1.212-1.087-4.793-6.966-4.554a1.176,1.176,0,0,1-.25-.224l-4.791-5.921a1.094,1.094,0,0,1-.2-.381l-2.82-9.868a1.234,1.234,0,0,1-.039-.224l-.282-4.229a1.075,1.075,0,0,1,.541-1.006l1.974-1.128a1.077,1.077,0,0,1,.534-.142h8.606l5.349-1.337-5.515-11.274-9.961-8.027a1.08,1.08,0,0,1-.319-.426l-3.385-8.176a1.08,1.08,0,0,1,.021-.872l2.536-5.357a1.08,1.08,0,0,1,.222-.31l11-10.712a1.05,1.05,0,0,1,.392-.245l10.129-3.557,4.126-5.418.536-5.893,1.038-4.957-2.468-2.838a1.078,1.078,0,0,1,.67-1.774l12.687-1.69,8.081-.711a1.045,1.045,0,0,1,.823.278,1.07,1.07,0,0,1,.349.795v1.832a1.114,1.114,0,0,1-.024.237l-.995,4.416,3.658.192a1.074,1.074,0,0,1,.76.366l1.811,2.071,4.009,1.738a1.075,1.075,0,0,1,.644.881A4.6,4.6,0,0,1,1222,93.508a38.478,38.478,0,0,0-3.04,3.828l-1.2,3.35,1.176,2.14.844.506,4.283-.519,9.237.7a1.087,1.087,0,0,1,.375.1l2.857,1.348a1.074,1.074,0,0,1,.6,1.154l-3.325,19.373a1.324,1.324,0,0,1-.071.243,55.219,55.219,0,0,0-2.735,7.3,15.672,15.672,0,0,0,1.568,3.8,1.074,1.074,0,0,1-.073,1.126l-6.258,8.833-1.46,7.48a1.075,1.075,0,0,1-1.057.87h-1.647l-11.625,19.129-.123,2.037a1.079,1.079,0,0,1-.842.986l-4.283.952-.14,2.2.56,4.5a1.054,1.054,0,0,1-.1.594l-2.186,4.541,1.563,2.5a1.063,1.063,0,0,1,.162.5l.377,5.45a1.072,1.072,0,0,1-.239.754l-2.444,3.008L1198,207.072c.248,1.682.538,3.484.633,3.792a18.962,18.962,0,0,0,1.914,1.761l1.959,1.951a1.074,1.074,0,0,1,.314.76v1.88a1.071,1.071,0,0,1-.159.566l-1.251,2.03.329,1.1,1.632,1.333a1.75,1.75,0,0,0,.194.028c.248-.54.771-1.981,1.208-3.266-.458-2.829.093-3.484.276-3.706a1.313,1.313,0,0,1,1.018-.48,7.855,7.855,0,0,1,2.491.65,1.079,1.079,0,0,1,.638.807l.941,5.45a1.06,1.06,0,0,1-.021.456l-1.128,4.322a24.194,24.194,0,0,1-1.871,4.509,12.808,12.808,0,0,0-.952,2.743l1.337,3.159,1.843,1.975,2.586,2.166a1.06,1.06,0,0,1,.314.452l.986,2.679a1.05,1.05,0,0,1,.069.416l-.142,3.523a1.074,1.074,0,0,1-.536.887l-2.2,1.277-.368,3.68a1.051,1.051,0,0,1-.235.568l-5.067,6.337a1.09,1.09,0,0,1-.571.372l-2.678.7A1.056,1.056,0,0,1,1201.224,261.99Zm-2.87-3.034,2.885.84,2.043-.536,4.655-5.82.392-3.91a1.08,1.08,0,0,1,.53-.825l2.168-1.253.108-2.717-.814-2.209-2.461-2.074-2.065-2.2a1.053,1.053,0,0,1-.2-.314l-1.55-3.665a1.09,1.09,0,0,1-.058-.672,14.585,14.585,0,0,1,1.408-3.872,24.87,24.87,0,0,0,1.531-3.828l1.051-4.029-.8-4.621c-.144-.05-.289-.095-.424-.136a13.081,13.081,0,0,0,.183,1.8,1.064,1.064,0,0,1-.036.528,31.733,31.733,0,0,1-1.63,4.205,2.351,2.351,0,0,1-2.739.612,1.086,1.086,0,0,1-.342-.189l-2.067-1.692a1.074,1.074,0,0,1-.349-.523l-.562-1.88a1.075,1.075,0,0,1,.112-.874l1.343-2.181v-1.13l-1.563-1.563c-2.229-1.817-2.444-2.465-2.515-2.676-.2-.59-.623-3.484-.8-4.7a1.069,1.069,0,0,1,.3-.913l5.075-5.075,2.1-2.595-.327-4.759-1.735-2.78a1.083,1.083,0,0,1-.056-1.038l2.306-4.791-.528-4.386.183-3.2a1.079,1.079,0,0,1,.842-.984l4.283-.952.09-1.492a1.071,1.071,0,0,1,.153-.493l12.078-19.876a1.076,1.076,0,0,1,.919-.517h1.367l1.337-6.837a1.06,1.06,0,0,1,.177-.416l6.012-8.488a13.261,13.261,0,0,1-1.512-4.233c0-1.2,1.958-5.911,2.858-8.014l3.165-18.44-1.938-.915-8.824-.689-4.438.56a1.078,1.078,0,0,1-.683-.146l-1.411-.846a1.078,1.078,0,0,1-.392-.4l-1.55-2.819a1.085,1.085,0,0,1-.069-.881l1.408-3.947a1.036,1.036,0,0,1,.134-.254,41.307,41.307,0,0,1,3.363-4.233,2.786,2.786,0,0,0,.739-1.242l-3.51-1.518a1.081,1.081,0,0,1-.379-.28l-1.673-1.912-4.5-.261a1.077,1.077,0,0,1-.975-1.311l1.242-5.521V79.4l-6.862.6-10.656,1.421,1.505,1.733a1.078,1.078,0,0,1,.241.928l-1.126,5.357-.545,6.079a1.086,1.086,0,0,1-.218.556L1189.255,102a1.083,1.083,0,0,1-.5.364l-10.208,3.585L1167.86,116.36l-2.248,4.75,3.1,7.48,9.933,8a1.119,1.119,0,0,1,.293.364l6.2,12.687a1.078,1.078,0,0,1-.706,1.518l-6.766,1.69a.958.958,0,0,1-.26.032h-8.454l-1.141.652.228,3.443,2.73,9.545,4.546,5.62,7.19,4.7a1.088,1.088,0,0,1,.461.663l1.408,6.2a1.077,1.077,0,0,1-.745,1.273l-4.173,1.236.564,4.212a1.083,1.083,0,0,1,.006.25l-.39,4.024c1.223,2.132,3.075,5.549,3.075,6.725a32.313,32.313,0,0,1-.771,4.576l3.546,5.254a1.035,1.035,0,0,1,.148.329l1.55,5.921a1.145,1.145,0,0,1,.035.271v9.209l-.947,8.021a1.078,1.078,0,0,1-.458.76l-.681.469.271,2.257,1.572,1.57a.347.347,0,0,1,.045.052l1.55,1.761a1.041,1.041,0,0,1,.261.581l.155,1.275,1.778,1.2a1.08,1.08,0,0,1,.472.891v2.186a1.032,1.032,0,0,1-.069.381l-.775,2.046a1.085,1.085,0,0,1-.573.6l-2.078.915-1.227,2.123v1.475l0,0a3.241,3.241,0,0,1,.321.538l5.073-.062,1.759-.4a1.066,1.066,0,0,1,.909.22Z" transform="translate(-1163.358 -77.15)" fill="#5038a1"/>
      </g>
    </g>
    <path id="Path_102080" data-name="Path 102080" d="M13.659,12.963H10.917L10.384,15H8.258l3.11-9.953h1.839L16.338,15H14.192Zm-2.3-1.675h1.859l-.93-3.548Zm7.95-5.5V7.6H20.3V9.053h-.991v3.677a1.084,1.084,0,0,0,.12.6.54.54,0,0,0,.461.164,1.808,1.808,0,0,0,.458-.048l-.014,1.5a3.013,3.013,0,0,1-1.066.185q-1.873,0-1.894-2.149V9.053h-.854V7.6h.854V5.785ZM23.386,15H21.445V4.5h1.941ZM28.4,15a2.7,2.7,0,0,1-.164-.574,1.653,1.653,0,0,1-1.408.711,2.084,2.084,0,0,1-1.542-.615,2.162,2.162,0,0,1-.612-1.593,2.239,2.239,0,0,1,.742-1.8,3.244,3.244,0,0,1,2.136-.649h.588V9.887a1.114,1.114,0,0,0-.171-.7.613.613,0,0,0-.5-.205q-.725,0-.725.848H24.808a2.141,2.141,0,0,1,.769-1.692,2.863,2.863,0,0,1,1.945-.667,2.629,2.629,0,0,1,1.883.632,2.374,2.374,0,0,1,.667,1.808v3.479a3.641,3.641,0,0,0,.273,1.5V15Zm-1.142-1.381a1.079,1.079,0,0,0,.547-.13.92.92,0,0,0,.335-.308V11.644h-.465a.992.992,0,0,0-.776.314,1.208,1.208,0,0,0-.284.841Q26.613,13.619,27.255,13.619ZM27.836,4.5H30.01l-1.9,2.119H26.5Zm5.407,3.1.055.731a2.052,2.052,0,0,1,1.716-.868q1.907,0,1.962,2.673V15H35.035V10.283a1.7,1.7,0,0,0-.188-.913.732.732,0,0,0-.66-.284.9.9,0,0,0-.82.54V15H31.425V7.6Zm7.369-1.818V7.6H41.6V9.053h-.991v3.677a1.084,1.084,0,0,0,.12.6.54.54,0,0,0,.461.164,1.808,1.808,0,0,0,.458-.048l-.014,1.5a3.013,3.013,0,0,1-1.066.185q-1.873,0-1.894-2.149V9.053h-.854V7.6h.854V5.785ZM44.694,15H42.752V7.6h1.941Zm-2.03-9.311a1,1,0,0,1,.287-.738,1.164,1.164,0,0,1,1.531,0,1,1,0,0,1,.287.738,1.053,1.053,0,1,1-2.105,0Zm6.2,7.841q.841,0,.854-1.094h1.818a2.717,2.717,0,0,1-.745,1.955,2.528,2.528,0,0,1-1.887.745,2.7,2.7,0,0,1-2.181-.889,4.012,4.012,0,0,1-.766-2.618v-.588A4.141,4.141,0,0,1,46.7,8.383a2.653,2.653,0,0,1,2.191-.916,2.507,2.507,0,0,1,1.928.755,3.073,3.073,0,0,1,.718,2.143H49.718a1.939,1.939,0,0,0-.205-.957.7.7,0,0,0-.656-.335.782.782,0,0,0-.725.359,3.06,3.06,0,0,0-.232,1.391v.752a6.036,6.036,0,0,0,.089,1.261.95.95,0,0,0,.294.526A.9.9,0,0,0,48.864,13.53ZM52.4,11.063A4.016,4.016,0,0,1,53.2,8.424a3.01,3.01,0,0,1,4.4,0,4.039,4.039,0,0,1,.793,2.652v.472a4.023,4.023,0,0,1-.786,2.639,3.033,3.033,0,0,1-4.413,0,4.037,4.037,0,0,1-.79-2.649Zm1.941.485q0,1.982,1.06,1.982.978,0,1.053-1.654l.007-.813a3.112,3.112,0,0,0-.28-1.5.873.873,0,0,0-.793-.489.851.851,0,0,0-.769.489,3.145,3.145,0,0,0-.277,1.5Z" transform="translate(1068 5458)" fill="#12263f"/>
    <path id="Path_102081" data-name="Path 102081" d="M22.388,12.389a1.247,1.247,0,0,0-.311-.919,3.581,3.581,0,0,0-1.131-.646,5.272,5.272,0,0,1-2.153-1.33,2.672,2.672,0,0,1-.656-1.8,2.525,2.525,0,0,1,.892-2.02,3.708,3.708,0,0,1,3.9-.376,2.679,2.679,0,0,1,1.1,1.09,3.271,3.271,0,0,1,.386,1.6h-2a1.651,1.651,0,0,0-.3-1.063,1.042,1.042,0,0,0-.858-.366,1.074,1.074,0,0,0-.82.311,1.169,1.169,0,0,0-.294.837,1.031,1.031,0,0,0,.328.742,3.773,3.773,0,0,0,1.162.687,4.979,4.979,0,0,1,2.116,1.292,2.878,2.878,0,0,1,.66,1.948,2.569,2.569,0,0,1-.827,2.03,3.274,3.274,0,0,1-2.249.731,3.873,3.873,0,0,1-1.757-.4,2.974,2.974,0,0,1-1.241-1.135,3.3,3.3,0,0,1-.448-1.743h2.017a1.9,1.9,0,0,0,.335,1.251,1.371,1.371,0,0,0,1.094.39Q22.388,13.5,22.388,12.389Zm6.9,1.935a1.905,1.905,0,0,1-1.613.813,1.812,1.812,0,0,1-1.545-.7A3.359,3.359,0,0,1,25.6,12.4V7.6h1.935v4.84q.014,1.08.718,1.08a1,1,0,0,0,.957-.574V7.6h1.948V15H29.34Zm5.927-.793q.841,0,.854-1.094h1.818a2.717,2.717,0,0,1-.745,1.955,2.528,2.528,0,0,1-1.887.745,2.7,2.7,0,0,1-2.181-.889,4.012,4.012,0,0,1-.766-2.618v-.588a4.141,4.141,0,0,1,.742-2.659,2.653,2.653,0,0,1,2.191-.916,2.507,2.507,0,0,1,1.928.755,3.073,3.073,0,0,1,.718,2.143H36.067a1.939,1.939,0,0,0-.205-.957.7.7,0,0,0-.656-.335.782.782,0,0,0-.725.359,3.06,3.06,0,0,0-.232,1.391v.752a6.036,6.036,0,0,0,.089,1.261.95.95,0,0,0,.294.526A.9.9,0,0,0,35.212,13.53ZM42.629,9.47l-.643-.055a1.056,1.056,0,0,0-1.073.7V15H38.972V7.6H40.8l.055.8a1.4,1.4,0,0,1,1.265-.937,1.355,1.355,0,0,1,.533.089Zm3.979,5.667a3.032,3.032,0,0,1-2.324-.889,3.578,3.578,0,0,1-.834-2.543v-.588a4.206,4.206,0,0,1,.766-2.7,2.655,2.655,0,0,1,2.194-.95,2.513,2.513,0,0,1,2.1.891A4.25,4.25,0,0,1,49.226,11v.949H45.377a2.013,2.013,0,0,0,.362,1.2,1.225,1.225,0,0,0,.991.381,2.175,2.175,0,0,0,1.62-.663l.759,1.169a2.5,2.5,0,0,1-1.032.8A3.543,3.543,0,0,1,46.608,15.137ZM45.391,10.6h1.935V10.42a2.067,2.067,0,0,0-.219-1,.761.761,0,0,0-.711-.342.8.8,0,0,0-.735.362A2.5,2.5,0,0,0,45.391,10.6Z" transform="translate(1044.833 5528.084)" fill="#12263f"/>
    <path id="Path_102079" data-name="Path 102079" d="M6.184,5.047l1.88,7.2,1.873-7.2h2.625V15H10.545V12.307l.185-4.149L8.74,15H7.373L5.384,8.157l.185,4.149V15H3.559V5.047ZM17.593,15a2.7,2.7,0,0,1-.164-.574,1.653,1.653,0,0,1-1.408.711,2.084,2.084,0,0,1-1.542-.615,2.162,2.162,0,0,1-.612-1.593,2.239,2.239,0,0,1,.742-1.8,3.244,3.244,0,0,1,2.136-.649h.588V9.887a1.114,1.114,0,0,0-.171-.7.613.613,0,0,0-.5-.205q-.725,0-.725.848H14a2.141,2.141,0,0,1,.769-1.692,2.863,2.863,0,0,1,1.945-.667A2.629,2.629,0,0,1,18.6,8.1a2.374,2.374,0,0,1,.667,1.808v3.479a3.641,3.641,0,0,0,.273,1.5V15Zm-1.142-1.381a1.079,1.079,0,0,0,.547-.13.92.92,0,0,0,.335-.308V11.644h-.465a.992.992,0,0,0-.776.314,1.208,1.208,0,0,0-.284.841Q15.809,13.619,16.451,13.619Zm3.985-2.543a4.59,4.59,0,0,1,.656-2.714,2.149,2.149,0,0,1,1.839-.9,1.774,1.774,0,0,1,1.552.793l.075-.656H26.3V15a2.833,2.833,0,0,1-.793,2.164,3.192,3.192,0,0,1-2.276.749,3.752,3.752,0,0,1-1.278-.243,2.367,2.367,0,0,1-1-.619l.649-1.34a2.045,2.045,0,0,0,.711.468,2.166,2.166,0,0,0,.827.181,1.212,1.212,0,0,0,.933-.311,1.483,1.483,0,0,0,.291-1v-.636a1.732,1.732,0,0,1-1.442.725,2.1,2.1,0,0,1-1.829-.919,4.534,4.534,0,0,1-.66-2.594Zm1.935.485a3.154,3.154,0,0,0,.267,1.494.9.9,0,0,0,.848.468.986.986,0,0,0,.882-.431V9.559a.969.969,0,0,0-.868-.472.92.92,0,0,0-.851.472,3.131,3.131,0,0,0-.277,1.518Zm5.079-.485a4.829,4.829,0,0,1,.615-2.714,2.037,2.037,0,0,1,1.791-.9,1.727,1.727,0,0,1,1.422.738V4.5h1.948V15H31.47l-.089-.752a1.782,1.782,0,0,1-1.531.889,2.02,2.02,0,0,1-1.774-.889,4.673,4.673,0,0,1-.625-2.611Zm1.941.485a3.53,3.53,0,0,0,.232,1.528.819.819,0,0,0,.786.434.943.943,0,0,0,.868-.513V9.634a.922.922,0,0,0-.861-.547.833.833,0,0,0-.779.431,3.352,3.352,0,0,0-.246,1.531ZM38.162,15A2.7,2.7,0,0,1,38,14.426a1.653,1.653,0,0,1-1.408.711,2.084,2.084,0,0,1-1.542-.615,2.162,2.162,0,0,1-.612-1.593,2.239,2.239,0,0,1,.742-1.8,3.244,3.244,0,0,1,2.136-.649H37.9V9.887a1.114,1.114,0,0,0-.171-.7.613.613,0,0,0-.5-.205q-.725,0-.725.848H34.573a2.141,2.141,0,0,1,.769-1.692,2.863,2.863,0,0,1,1.945-.667A2.629,2.629,0,0,1,39.17,8.1a2.374,2.374,0,0,1,.667,1.808v3.479a3.641,3.641,0,0,0,.273,1.5V15Zm-1.142-1.381a1.079,1.079,0,0,0,.547-.13.92.92,0,0,0,.335-.308V11.644h-.465a.992.992,0,0,0-.776.314,1.208,1.208,0,0,0-.284.841Q36.378,13.619,37.021,13.619ZM43.269,15H41.327V4.5h1.941Zm4.484.137a3.032,3.032,0,0,1-2.324-.889,3.578,3.578,0,0,1-.834-2.543v-.588a4.206,4.206,0,0,1,.766-2.7,2.655,2.655,0,0,1,2.194-.95,2.513,2.513,0,0,1,2.1.891A4.25,4.25,0,0,1,50.371,11v.949H46.522a2.013,2.013,0,0,0,.362,1.2,1.225,1.225,0,0,0,.991.381,2.175,2.175,0,0,0,1.62-.663l.759,1.169a2.5,2.5,0,0,1-1.032.8A3.543,3.543,0,0,1,47.753,15.137ZM46.536,10.6h1.935V10.42a2.067,2.067,0,0,0-.219-1,.761.761,0,0,0-.711-.342.8.8,0,0,0-.735.362A2.5,2.5,0,0,0,46.536,10.6Zm6.7-2.994.055.731a2.052,2.052,0,0,1,1.716-.868q1.907,0,1.962,2.673V15H55.026V10.283a1.7,1.7,0,0,0-.188-.913.732.732,0,0,0-.66-.284.9.9,0,0,0-.82.54V15H51.417V7.6ZM61.869,15a2.7,2.7,0,0,1-.164-.574,1.653,1.653,0,0,1-1.408.711,2.084,2.084,0,0,1-1.542-.615,2.162,2.162,0,0,1-.612-1.593,2.239,2.239,0,0,1,.742-1.8,3.244,3.244,0,0,1,2.136-.649h.588V9.887a1.114,1.114,0,0,0-.171-.7.613.613,0,0,0-.5-.205q-.725,0-.725.848H58.28a2.141,2.141,0,0,1,.769-1.692,2.863,2.863,0,0,1,1.945-.667,2.629,2.629,0,0,1,1.883.632,2.374,2.374,0,0,1,.667,1.808v3.479a3.641,3.641,0,0,0,.273,1.5V15Zm-1.142-1.381a1.079,1.079,0,0,0,.547-.13.92.92,0,0,0,.335-.308V11.644h-.465a.992.992,0,0,0-.776.314,1.208,1.208,0,0,0-.284.841Q60.085,13.619,60.728,13.619Z" transform="translate(1130.167 5430.5)" fill="#12263f"/>
    <path id="Path_102082" data-name="Path 102082" d="M17.538,11.685a3.722,3.722,0,0,1-.957,2.577,3.38,3.38,0,0,1-2.488.875,3.135,3.135,0,0,1-2.587-1.111,4.923,4.923,0,0,1-.9-3.168V9.183a4.8,4.8,0,0,1,.93-3.162A3.186,3.186,0,0,1,14.12,4.91a3.208,3.208,0,0,1,2.471.909,4.134,4.134,0,0,1,.96,2.611H15.535a2.681,2.681,0,0,0-.325-1.453,1.281,1.281,0,0,0-1.09-.4,1.219,1.219,0,0,0-1.142.564A3.944,3.944,0,0,0,12.623,9v1.88a4.338,4.338,0,0,0,.332,2.037,1.218,1.218,0,0,0,1.138.554,1.316,1.316,0,0,0,1.094-.386,2.544,2.544,0,0,0,.342-1.4Zm.916-.622a4.016,4.016,0,0,1,.793-2.639,2.694,2.694,0,0,1,2.194-.957,2.71,2.71,0,0,1,2.208.957,4.039,4.039,0,0,1,.793,2.652v.472a4.023,4.023,0,0,1-.786,2.639,2.7,2.7,0,0,1-2.2.95,2.712,2.712,0,0,1-2.211-.954,4.037,4.037,0,0,1-.79-2.649Zm1.941.485q0,1.982,1.06,1.982.978,0,1.053-1.654l.007-.813a3.112,3.112,0,0,0-.28-1.5.873.873,0,0,0-.793-.489.851.851,0,0,0-.769.489,3.145,3.145,0,0,0-.277,1.5ZM21.817,4.5h2.174l-1.9,2.119H20.478ZM29.3,9.47l-.643-.055a1.056,1.056,0,0,0-1.073.7V15H25.639V7.6h1.825l.055.8a1.4,1.4,0,0,1,1.265-.937,1.355,1.355,0,0,1,.533.089Zm.731,1.606a4.829,4.829,0,0,1,.615-2.714,2.037,2.037,0,0,1,1.791-.9,1.727,1.727,0,0,1,1.422.738V4.5H35.8V15H34.047l-.089-.752a1.782,1.782,0,0,1-1.531.889,2.02,2.02,0,0,1-1.774-.889,4.673,4.673,0,0,1-.625-2.611Zm1.941.485a3.529,3.529,0,0,0,.232,1.528.819.819,0,0,0,.786.434.943.943,0,0,0,.868-.513V9.634a.922.922,0,0,0-.861-.547.833.833,0,0,0-.779.431,3.352,3.352,0,0,0-.246,1.531Zm5.031-.5a4.016,4.016,0,0,1,.793-2.639,3.01,3.01,0,0,1,4.4,0,4.039,4.039,0,0,1,.793,2.652v.472a4.023,4.023,0,0,1-.786,2.639,3.033,3.033,0,0,1-4.413,0A4.037,4.037,0,0,1,37,11.534Zm1.941.485q0,1.982,1.06,1.982.978,0,1.053-1.654l.007-.813a3.112,3.112,0,0,0-.28-1.5.873.873,0,0,0-.793-.489.851.851,0,0,0-.769.489,3.145,3.145,0,0,0-.277,1.5Zm11.02-.007a5.077,5.077,0,0,1-.574,2.7,1.986,1.986,0,0,1-1.8.9,1.78,1.78,0,0,1-1.545-.868L45.976,15H44.191V4.5h1.935V8.205a1.711,1.711,0,0,1,1.442-.738,1.991,1.991,0,0,1,1.8.892,4.939,4.939,0,0,1,.588,2.615Zm-1.935-.485A3.621,3.621,0,0,0,47.8,9.487a.826.826,0,0,0-.786-.4.932.932,0,0,0-.889.554v3.37a.925.925,0,0,0,.9.52.819.819,0,0,0,.769-.362,3.172,3.172,0,0,0,.229-1.408ZM54.637,15a2.7,2.7,0,0,1-.164-.574,1.653,1.653,0,0,1-1.408.711,2.084,2.084,0,0,1-1.542-.615,2.162,2.162,0,0,1-.612-1.593,2.239,2.239,0,0,1,.742-1.8,3.244,3.244,0,0,1,2.136-.649h.588V9.887a1.114,1.114,0,0,0-.171-.7.613.613,0,0,0-.5-.205q-.725,0-.725.848H51.048a2.141,2.141,0,0,1,.769-1.692,2.863,2.863,0,0,1,1.945-.667,2.629,2.629,0,0,1,1.883.632,2.374,2.374,0,0,1,.667,1.808v3.479a3.641,3.641,0,0,0,.273,1.5V15ZM53.5,13.619a1.079,1.079,0,0,0,.547-.13.92.92,0,0,0,.335-.308V11.644h-.465a.992.992,0,0,0-.776.314,1.208,1.208,0,0,0-.284.841Q52.853,13.619,53.5,13.619Z" transform="translate(1092 5700)" fill="#12263f"/>
    <path id="Path_102078" data-name="Path 102078" d="M8.221,13.332h3.527V15H6.211V5.047h2.01ZM16.328,15a2.7,2.7,0,0,1-.164-.574,1.653,1.653,0,0,1-1.408.711,2.084,2.084,0,0,1-1.542-.615,2.162,2.162,0,0,1-.612-1.593,2.239,2.239,0,0,1,.742-1.8,3.244,3.244,0,0,1,2.136-.649h.588V9.887a1.114,1.114,0,0,0-.171-.7.613.613,0,0,0-.5-.205q-.725,0-.725.848H12.739a2.141,2.141,0,0,1,.769-1.692,2.863,2.863,0,0,1,1.945-.667,2.629,2.629,0,0,1,1.883.632A2.374,2.374,0,0,1,18,9.907v3.479a3.641,3.641,0,0,0,.273,1.5V15Zm-1.142-1.381a1.079,1.079,0,0,0,.547-.13.92.92,0,0,0,.335-.308V11.644H15.6a.992.992,0,0,0-.776.314,1.208,1.208,0,0,0-.284.841Q14.544,13.619,15.187,13.619Zm14.308.253a3.667,3.667,0,0,1-1.425.947,5.208,5.208,0,0,1-1.849.318,3.391,3.391,0,0,1-2.666-1.063,4.6,4.6,0,0,1-.978-3.093V9.189a4.923,4.923,0,0,1,.9-3.168A3.175,3.175,0,0,1,26.1,4.91a3.377,3.377,0,0,1,2.444.8,3.785,3.785,0,0,1,.954,2.509H27.539a2.27,2.27,0,0,0-.4-1.3,1.27,1.27,0,0,0-.984-.345,1.288,1.288,0,0,0-1.183.595,3.79,3.79,0,0,0-.383,1.894v1.8A3.7,3.7,0,0,0,25,12.85a1.48,1.48,0,0,0,1.336.619,1.746,1.746,0,0,0,.964-.239l.178-.123V11.281H26.069V9.764h3.425Zm4.963.451a1.905,1.905,0,0,1-1.613.813,1.812,1.812,0,0,1-1.545-.7,3.359,3.359,0,0,1-.526-2.041V7.6h1.935v4.84q.014,1.08.718,1.08a1,1,0,0,0,.957-.574V7.6H36.33V15H34.512ZM41.225,15a2.7,2.7,0,0,1-.164-.574,1.653,1.653,0,0,1-1.408.711,2.084,2.084,0,0,1-1.542-.615,2.162,2.162,0,0,1-.612-1.593,2.239,2.239,0,0,1,.742-1.8,3.244,3.244,0,0,1,2.136-.649h.588V9.887a1.114,1.114,0,0,0-.171-.7.613.613,0,0,0-.5-.205q-.725,0-.725.848H37.636A2.141,2.141,0,0,1,38.4,8.133a2.863,2.863,0,0,1,1.945-.667,2.629,2.629,0,0,1,1.883.632A2.374,2.374,0,0,1,42.9,9.907v3.479a3.641,3.641,0,0,0,.273,1.5V15Zm-1.142-1.381a1.079,1.079,0,0,0,.547-.13.92.92,0,0,0,.335-.308V11.644H40.5a.992.992,0,0,0-.776.314,1.208,1.208,0,0,0-.284.841Q39.44,13.619,40.083,13.619ZM46.338,7.6V15.4a2.841,2.841,0,0,1-.581,1.928,2.074,2.074,0,0,1-1.647.663,3.294,3.294,0,0,1-.875-.116l-.007-1.579a2.878,2.878,0,0,0,.513.062q.643,0,.656-.9V7.6ZM44.267,5.689a1,1,0,0,1,.287-.738,1.164,1.164,0,0,1,1.531,0,1,1,0,0,1,.287.738,1.053,1.053,0,1,1-2.105,0ZM49.77,15H47.828V7.6H49.77Zm-2.03-9.311a1,1,0,0,1,.287-.738,1.164,1.164,0,0,1,1.531,0,1,1,0,0,1,.287.738,1.053,1.053,0,1,1-2.105,0Zm7.178,3.78-.643-.055a1.056,1.056,0,0,0-1.073.7V15H51.26V7.6h1.825l.055.8A1.4,1.4,0,0,1,54.4,7.467a1.355,1.355,0,0,1,.533.089Zm4.3,5.53a2.7,2.7,0,0,1-.164-.574,1.653,1.653,0,0,1-1.408.711,2.084,2.084,0,0,1-1.542-.615,2.162,2.162,0,0,1-.612-1.593,2.239,2.239,0,0,1,.742-1.8,3.244,3.244,0,0,1,2.136-.649h.588V9.887a1.114,1.114,0,0,0-.171-.7.613.613,0,0,0-.5-.205q-.725,0-.725.848H55.628A2.141,2.141,0,0,1,56.4,8.133a2.863,2.863,0,0,1,1.945-.667,2.629,2.629,0,0,1,1.883.632,2.374,2.374,0,0,1,.667,1.808v3.479a3.641,3.641,0,0,0,.273,1.5V15Zm-1.142-1.381a1.079,1.079,0,0,0,.547-.13.92.92,0,0,0,.335-.308V11.644h-.465a.992.992,0,0,0-.776.314,1.208,1.208,0,0,0-.284.841Q57.433,13.619,58.075,13.619Z" transform="translate(1200 5406.167)" fill="#12263f"/>
    <path id="Path_102084" data-name="Path 102084" d="M24.911,11.685a3.722,3.722,0,0,1-.957,2.577,3.38,3.38,0,0,1-2.488.875,3.135,3.135,0,0,1-2.587-1.111,4.923,4.923,0,0,1-.9-3.168V9.183a4.8,4.8,0,0,1,.93-3.162A3.186,3.186,0,0,1,21.493,4.91a3.208,3.208,0,0,1,2.471.909,4.134,4.134,0,0,1,.96,2.611H22.908a2.681,2.681,0,0,0-.325-1.453,1.281,1.281,0,0,0-1.09-.4,1.219,1.219,0,0,0-1.142.564A3.944,3.944,0,0,0,20,9v1.88a4.338,4.338,0,0,0,.332,2.037,1.218,1.218,0,0,0,1.138.554,1.316,1.316,0,0,0,1.094-.386,2.544,2.544,0,0,0,.342-1.4Zm4.129,3.452a3.032,3.032,0,0,1-2.324-.889,3.578,3.578,0,0,1-.834-2.543v-.588a4.206,4.206,0,0,1,.766-2.7,2.655,2.655,0,0,1,2.194-.95,2.513,2.513,0,0,1,2.1.891A4.25,4.25,0,0,1,31.658,11v.949H27.809a2.013,2.013,0,0,0,.362,1.2,1.225,1.225,0,0,0,.991.381,2.175,2.175,0,0,0,1.62-.663l.759,1.169a2.5,2.5,0,0,1-1.032.8A3.543,3.543,0,0,1,29.04,15.137ZM27.823,10.6h1.935V10.42a2.067,2.067,0,0,0-.219-1,.761.761,0,0,0-.711-.342.8.8,0,0,0-.735.362A2.5,2.5,0,0,0,27.823,10.6Zm8.2,2.42a.6.6,0,0,0-.236-.455A4.657,4.657,0,0,0,34.741,12a4.365,4.365,0,0,1-1.644-1A1.909,1.909,0,0,1,32.649,9.7a2.065,2.065,0,0,1,.7-1.6,2.665,2.665,0,0,1,1.856-.632,2.885,2.885,0,0,1,1.948.629,2.114,2.114,0,0,1,.731,1.688H35.951q0-.9-.752-.9a.7.7,0,0,0-.506.191.707.707,0,0,0-.2.533.56.56,0,0,0,.219.434,4.81,4.81,0,0,0,1.032.537,4.271,4.271,0,0,1,1.671.974,1.986,1.986,0,0,1,.489,1.391,1.945,1.945,0,0,1-.745,1.593,3.017,3.017,0,0,1-1.955.6,3.112,3.112,0,0,1-1.436-.318,2.411,2.411,0,0,1-.974-.885,2.279,2.279,0,0,1-.352-1.224h1.839a1.172,1.172,0,0,0,.236.759.924.924,0,0,0,.728.253Q36.026,13.722,36.026,13.018ZM42.623,15a2.7,2.7,0,0,1-.164-.574,1.653,1.653,0,0,1-1.408.711,2.084,2.084,0,0,1-1.542-.615,2.162,2.162,0,0,1-.612-1.593,2.239,2.239,0,0,1,.742-1.8,3.244,3.244,0,0,1,2.136-.649h.588V9.887a1.114,1.114,0,0,0-.171-.7.613.613,0,0,0-.5-.205q-.725,0-.725.848H39.034A2.141,2.141,0,0,1,39.8,8.133a2.863,2.863,0,0,1,1.945-.667,2.629,2.629,0,0,1,1.883.632A2.374,2.374,0,0,1,44.3,9.907v3.479a3.641,3.641,0,0,0,.273,1.5V15Zm-1.142-1.381a1.079,1.079,0,0,0,.547-.13.92.92,0,0,0,.335-.308V11.644H41.9a.992.992,0,0,0-.776.314,1.208,1.208,0,0,0-.284.841Q40.838,13.619,41.481,13.619ZM49.349,9.47l-.643-.055a1.056,1.056,0,0,0-1.073.7V15H45.692V7.6h1.825l.055.8a1.4,1.4,0,0,1,1.265-.937,1.355,1.355,0,0,1,.533.089Z" transform="translate(1261 5517)" fill="#12263f"/>
    <path id="Path_102083" data-name="Path 102083" d="M14.582,15V5.047h3.076a3.549,3.549,0,0,1,2.369.694,2.53,2.53,0,0,1,.81,2.034A2.451,2.451,0,0,1,20.5,9.08a1.977,1.977,0,0,1-.916.8,1.74,1.74,0,0,1,1.032.769,2.633,2.633,0,0,1,.362,1.425,2.839,2.839,0,0,1-.8,2.188A3.275,3.275,0,0,1,17.876,15Zm2.01-4.327v2.659h1.285A1.009,1.009,0,0,0,18.7,13a1.441,1.441,0,0,0,.28-.95q0-1.34-.971-1.374Zm0-1.463h1.046A1.064,1.064,0,0,0,18.82,7.986a1.4,1.4,0,0,0-.273-.971,1.166,1.166,0,0,0-.889-.294H16.591Zm5.523,1.853a4.016,4.016,0,0,1,.793-2.639A2.694,2.694,0,0,1,25.1,7.467a2.71,2.71,0,0,1,2.208.957,4.039,4.039,0,0,1,.793,2.652v.472a4.023,4.023,0,0,1-.786,2.639,2.7,2.7,0,0,1-2.2.95,2.712,2.712,0,0,1-2.211-.954,4.037,4.037,0,0,1-.79-2.649Zm1.941.485q0,1.982,1.06,1.982.978,0,1.053-1.654l.007-.813a3.112,3.112,0,0,0-.28-1.5.873.873,0,0,0-.793-.489.851.851,0,0,0-.769.489,3.145,3.145,0,0,0-.277,1.5ZM31.336,15H29.4V4.5h1.941Zm3.575,0H32.977V7.6h1.935ZM34.351,4.6h2.174l-1.9,2.119H33.011Zm4.58,7.663L39.868,7.6h2.017L39.854,15H38.008L35.971,7.6h2.023ZM46.2,15a2.7,2.7,0,0,1-.164-.574,1.653,1.653,0,0,1-1.408.711,2.084,2.084,0,0,1-1.542-.615,2.162,2.162,0,0,1-.612-1.593,2.239,2.239,0,0,1,.742-1.8,3.244,3.244,0,0,1,2.136-.649h.588V9.887a1.114,1.114,0,0,0-.171-.7.613.613,0,0,0-.5-.205q-.725,0-.725.848H42.616a2.141,2.141,0,0,1,.769-1.692,2.863,2.863,0,0,1,1.945-.667,2.629,2.629,0,0,1,1.883.632,2.374,2.374,0,0,1,.667,1.808v3.479a3.641,3.641,0,0,0,.273,1.5V15Zm-1.142-1.381a1.079,1.079,0,0,0,.547-.13.92.92,0,0,0,.335-.308V11.644H45.48a.992.992,0,0,0-.776.314,1.208,1.208,0,0,0-.284.841Q44.42,13.619,45.063,13.619ZM52.931,9.47l-.643-.055a1.056,1.056,0,0,0-1.073.7V15H49.274V7.6H51.1l.055.8a1.4,1.4,0,0,1,1.265-.937,1.355,1.355,0,0,1,.533.089Z" transform="translate(1267.5 5595)" fill="#12263f"/>
    <path id="Path_100905" data-name="Path 100905" d="M-6731.666-8404.917a.749.749,0,0,1-.615-.32l-16.776-24.013H-6806a.75.75,0,0,1-.75-.75.75.75,0,0,1,.75-.75h57.725l.224.32,17,24.333a.751.751,0,0,1-.185,1.045A.751.751,0,0,1-6731.666-8404.917Z" transform="translate(7879 13907)" fill="#ffb74d"/>
    <path id="Path_100911" data-name="Path 100911" d="M-6748.667-8356.917a.75.75,0,0,1-.75-.75v-71.583H-6806a.75.75,0,0,1-.75-.75.75.75,0,0,1,.75-.75h58.083v73.083A.75.75,0,0,1-6748.667-8356.917Z" transform="translate(-5654.834 -2711) rotate(180)" fill="#ffb74d"/>
    <path id="Path_100910" data-name="Path 100910" d="M-6721.833-8393.334a.747.747,0,0,1-.6-.3l-26.609-35.615H-6806a.75.75,0,0,1-.75-.75.75.75,0,0,1,.75-.75h57.709l.225.3,26.833,35.916a.75.75,0,0,1-.152,1.05A.747.747,0,0,1-6721.833-8393.334Z" transform="translate(7855.833 13977.084)" fill="#ffb74d"/>
    <path id="Path_100908" data-name="Path 100908" d="M-6731.666-8404.917a.749.749,0,0,1-.615-.32l-16.776-24.013H-6806a.75.75,0,0,1-.75-.75.75.75,0,0,1,.75-.75h57.725l.224.32,17,24.333a.751.751,0,0,1-.185,1.045A.751.751,0,0,1-6731.666-8404.917Z" transform="translate(7941.167 13879.5)" fill="#ffb74d"/>
    <path id="Path_100907" data-name="Path 100907" d="M-6831.166-8405.75a.75.75,0,0,1-.656-.385.75.75,0,0,1,.29-1.021l42.337-23.595h57.528a.75.75,0,0,1,.75.75.75.75,0,0,1-.75.75H-6788.8l-42,23.405A.748.748,0,0,1-6831.166-8405.75Z" transform="translate(8057.167 13966)" fill="#ffb74d"/>
    <path id="Path_100909" data-name="Path 100909" d="M-6875.167-8399.25a.75.75,0,0,1-.708-.5.75.75,0,0,1,.462-.955l86.287-30.042h57.46a.75.75,0,0,1,.75.75.75.75,0,0,1-.75.75h-57.207l-86.048,29.958A.752.752,0,0,1-6875.167-8399.25Z" transform="translate(8063.667 14044)" fill="#ffb74d"/>
    <path id="Path_100906" data-name="Path 100906" d="M-6724-8393.917a.747.747,0,0,1-.615-.32l-24.443-35.013H-6806a.75.75,0,0,1-.75-.75.75.75,0,0,1,.75-.75h57.725l24.89,35.653a.75.75,0,0,1-.186,1.045A.749.749,0,0,1-6724-8393.917Z" transform="translate(8011 13855.167)" fill="#ffb74d"/>
  </g>
</svg>
