<svg xmlns="http://www.w3.org/2000/svg" width="401.748" height="264.658" viewBox="0 0 401.748 264.658">
  <g id="t1-m2-1" transform="translate(-808.252 -7515)">
    <rect id="Rect치ngulo_7854" data-name="Rect치ngulo 7854" width="401.748" height="263" transform="translate(808.252 7515)" fill="#fff8e3"/>
    <path id="Path_102054" data-name="Path 102054" d="M-1921.857,143.571s3-14.571,7.714-14.571,20.143-1.714,15.429-6.429-5.172-10.714,3.842-14.142,9.015-5.143,22.729-5.572,19.714-10.714,19.714-12.857-2.142-6.429,11.572-12.857,16.714-9.429,10.286-12.857S-1846.857,54-1843.429,50.143s12-10.286,6-19.714-2.571-15.858-4.285-17.572-6.429-3.857.857-5.571,12-4.286,6.857-8.572-12.857-11.571-7.286-17.143,2.143-4.714-3.857-9S-1858-38.571-1861.429-42s-16.285-12-19.285-15-9.857-10.286-10.715-16.286a37.733,37.733,0,0,1,0-10.8H-1694V147Z" transform="translate(2903.998 7599.088)" fill="#ffdc72"/>
    <path id="Path_102054_-_Outline" data-name="Path 102054 - Outline" d="M-1695.7,145.274V-82.388h-194.234a37.87,37.87,0,0,0,.186,8.861c.548,3.83,4.182,9.273,10.234,15.325,1.358,1.358,5.182,4.162,8.881,6.874a118.463,118.463,0,0,1,10.4,8.126c3.306,3.306,10.186,10.186,16.072,14.39a39.092,39.092,0,0,0,3.671,2.281c1.93,1.09,3.454,1.952,3.69,3.682s-.974,3.309-3.289,5.623a4.311,4.311,0,0,0-1.433,3.346c.195,4.282,6.525,9.556,8.605,11.289,2.207,1.839,3.106,3.7,2.674,5.534-.621,2.63-3.776,4.48-10.23,6a11.378,11.378,0,0,0-2.344.755c.312.3.763.659,1.05.887a15.111,15.111,0,0,1,1.25,1.072c1.108,1.108,1.075,2.672,1.033,4.653a21.319,21.319,0,0,0,3.484,13.208c5.941,9.335-.694,16.12-4.657,20.173-.558.571-1.086,1.11-1.506,1.583a.984.984,0,0,0-.25.932c.108.6.755,2.318,4.432,5.265a55.511,55.511,0,0,0,8.205,5.317c1.807.963,4.2,2.532,4.137,5.022-.059,2.3-2.236,4.065-4.126,5.346a79.34,79.34,0,0,1-10.375,5.529c-5.03,2.357-8.331,4.631-9.813,6.758a4.663,4.663,0,0,0-.84,3.63c.029.3.06.617.06.929,0,1.738-1.849,5.25-5.277,8.335a24.709,24.709,0,0,1-16.084,6.221c-10.166.318-12.432,1.312-16.947,3.293-1.441.632-3.075,1.349-5.231,2.169-3.469,1.319-5.531,3.085-5.964,5.108-.4,1.872.565,4.089,2.72,6.243,1.747,1.748,1.463,3.325,1.138,4.109-.5,1.216-1.919,2.978-8.363,4.236a55.556,55.556,0,0,1-9.407.986c-.651,0-2.231,1.293-4.018,6.141-.68,1.845-1.208,3.711-1.555,5.062l224.017,3.371M-1694,147l-227.859-3.429s3-14.571,7.714-14.571,20.143-1.714,15.429-6.429-5.172-10.714,3.842-14.142,9.015-5.143,22.729-5.572,19.714-10.714,19.714-12.857-2.142-6.429,11.572-12.857,16.714-9.429,10.286-12.857S-1846.857,54-1843.429,50.143s12-10.286,6-19.714-2.571-15.858-4.285-17.572-6.429-3.857.857-5.571,12-4.286,6.857-8.572-12.857-11.571-7.286-17.143,2.143-4.714-3.857-9S-1858-38.571-1861.429-42s-16.285-12-19.285-15-9.857-10.286-10.715-16.286a37.733,37.733,0,0,1,0-10.8H-1694Z" transform="translate(2903.998 7599.088)" fill="#ffb74d"/>
    <rect id="Rectangle_7855" data-name="Rectangle 7855" width="401.748" height="45.677" transform="translate(808.252 7733.981)" fill="#5038a1"/>
    <path id="Rectangle_7861" data-name="Rectangle 7861" d="M-.75-.75H13.607V11.036H-.75ZM12.107.75H.75V9.536H12.107Z" transform="translate(858.498 7640.66)" fill="#5038a1"/>
    <path id="Rectangle_7862" data-name="Rectangle 7862" d="M-.75-.75H42.536V25.607H-.75ZM41.036.75H.75V24.107H41.036Z" transform="translate(844.569 7596.517)" fill="#5038a1"/>
    <path id="Rectangle_7863" data-name="Rectangle 7863" d="M-.75-.75H13.607V11.036H-.75ZM12.107.75H.75V9.536H12.107Z" transform="translate(1018.141 7684.588)" fill="#5038a1"/>
    <path id="Path_102056" data-name="Path 102056" d="M-1996.964,131.25h-75.214V75.964h75.214Zm-73.714-1.5h72.214V77.464h-72.214Z" transform="translate(2903.998 7599.088)" fill="#5038a1"/>
    <path id="Line_150" data-name="Line 150" d="M.75,19.286H-.75V0H.75Z" transform="translate(865.462 7621.374)" fill="#5038a1"/>
    <path id="Line_151" data-name="Line 151" d="M.141,22.165l-.282-1.473L111.716-.737,112,.737Z" transform="translate(906.284 7689.731)" fill="#5038a1"/>
    <path id="Path_102057" data-name="Path 102057" d="M-1994.607-84.088s-3.536,5.552,0,8.767,4.5,6.107,9,7.714a22.74,22.74,0,0,1,9,6.428c.643.965,11.25,7.072,7.393,8.036s-13.179-1.286-15.107,1.607-.965,7.393-9.322,7.393-17.036,3.536-17.678,0-.643-8.357-2.893-10.286-2.679-1.607-3.429-5.785,1.179-7.072-3.643-6.429-10.607,3.214-7.714,5.143,2.949,6.107-.776,5.464-12.4-.964-13.367-5.464,3-6.75-2.357-7.393-7.929-2.571-8.25-5.464-.107-6.429-5.679-6.429-14.571-3.3-14.571-3.3Z" transform="translate(2903.998 7599.088)" fill="#ffdc72"/>
    <path id="Path_102057_-_Outline" data-name="Path 102057 - Outline" d="M-2057.836-82.388c5.106.671,5.474,4.637,5.7,7.092.024.262.047.51.074.751a3.151,3.151,0,0,0,1.506,2.359,12.084,12.084,0,0,0,5.257,1.6c1.445.173,3.034.513,3.862,1.716.8,1.167.482,2.448.2,3.579a7.079,7.079,0,0,0-.243,3.431c.22,1.025,1.317,1.881,3.262,2.545a35.923,35.923,0,0,0,6.58,1.292c.787.1,1.53.2,2.151.308a2.621,2.621,0,0,0,.441.042.738.738,0,0,0,.4-.073.675.675,0,0,0,.04-.413,2.92,2.92,0,0,0-1.335-1.93,2.9,2.9,0,0,1-1.462-3.149c.313-1.352,1.607-2.5,3.955-3.5a23.823,23.823,0,0,1,5.939-1.6,10.674,10.674,0,0,1,1.41-.1,3.9,3.9,0,0,1,2.91,1.011c1.051,1.054,1.046,2.489,1.041,4.008a15.752,15.752,0,0,0,.18,2.9,10.963,10.963,0,0,0,.759,2.88,3.878,3.878,0,0,0,1.128,1.112c.282.226.6.482.975.8,2.217,1.9,2.659,5.358,3.088,8.7.117.912.227,1.774.37,2.561a3.177,3.177,0,0,0,1.341.185,39.271,39.271,0,0,0,5.313-.62,60.753,60.753,0,0,1,9.353-.952c2.427,0,4.085-.4,5.066-1.216a6.235,6.235,0,0,0,1.6-2.788,12.421,12.421,0,0,1,1.239-2.631c1.351-2.028,4.332-2.3,7.069-2.3,1.125,0,2.3.052,3.438.1,1.1.048,2.13.094,3.078.094.486,0,.916-.013,1.292-.038-.256-.243-.591-.538-1.028-.893-1.08-.878-2.4-1.81-3.463-2.558a11.054,11.054,0,0,1-2.673-2.163,21.2,21.2,0,0,0-8.157-5.77c-3.434-1.226-5.084-3.135-6.831-5.156a31.729,31.729,0,0,0-2.741-2.9c-2.791-2.538-2.328-5.982-1.516-8.325h-60.57m-16.164-1.7h79.393s-3.536,5.552,0,8.767,4.5,6.107,9,7.714a22.741,22.741,0,0,1,9,6.428c.643.965,11.25,7.072,7.393,8.036-2.18.545-6.1.063-9.453.063-2.578,0-4.816.285-5.655,1.544-1.929,2.893-.965,7.393-9.322,7.393s-17.036,3.536-17.678,0-.643-8.357-2.893-10.286-2.679-1.607-3.429-5.785,1.18-7.072-3.643-6.429-10.607,3.214-7.714,5.143,2.949,6.107-.776,5.464-12.4-.964-13.367-5.464,3-6.75-2.357-7.393-7.929-2.571-8.25-5.464-.107-6.429-5.679-6.429S-2074-84.088-2074-84.088Z" transform="translate(2903.998 7599.088)" fill="#ffb74d"/>
    <path id="Rect치ngulo_7854-2" data-name="Rect치ngulo 7854" d="M2.5,2.5v258H399.248V2.5H2.5M0,0H401.748V263H0Z" transform="translate(808.252 7515)" fill="#5038a1"/>
    <g id="Group_56393" data-name="Group 56393" transform="translate(2903.998 7599.088)">
      <path id="Path_102064" data-name="Path 102064" d="M-2041.316,125.881q-.315,0-.618-.015c-2.117-.109-3.666-.783-4.362-1.9a2.859,2.859,0,0,1-.366-3.079c.812-1.366,2.612-1.253,3.925-1.172.162.01.314.021.449.026a6.055,6.055,0,0,0,1.227-3.641,10.01,10.01,0,0,0-.085-1.1c-.208-1.835-.493-4.348,3.692-6.923,1.859-1.145,2.219-2.754,2.742-5.738a24.121,24.121,0,0,1,1.831-6.48c2.883-6.129,19.547-14.04,22.249-14.04a2.256,2.256,0,0,1,2.134,1.448c1.022,2.467-1.409,8.2-2.68,9.469-.409.6-.864,3.9-1.2,6.3a65.845,65.845,0,0,1-1.309,7.487c-1.492,5.6-9.838,10.683-14.737,11.384-2.452.35-2.759.917-3.58,2.435a16.7,16.7,0,0,1-1.555,2.465C-2035.23,124.963-2038.55,125.881-2041.316,125.881Zm-1.635-3.171a7.332,7.332,0,0,0,1.87.168c2.207-.058,4.329-.843,5.158-1.91a13.681,13.681,0,0,0,1.284-2.051c1.116-2.061,2.122-3.453,5.8-3.978,3.935-.562,11.145-4.994,12.263-9.187a64.435,64.435,0,0,0,1.236-7.123c.627-4.55,1-6.972,2.045-8.015a13.853,13.853,0,0,0,2.072-5.671c-3.505,1.009-16.857,7.767-18.939,12.192a21.412,21.412,0,0,0-1.59,5.722c-.506,2.885-1.029,5.869-4.124,7.773-2.562,1.576-2.463,2.448-2.284,4.032a12.589,12.589,0,0,1,.1,1.441c0,2.774-1.548,6.643-4.071,6.643-.222,0-.495-.015-.79-.034Z" fill="#5038a1"/>
    </g>
    <g id="Group_56394" data-name="Group 56394" transform="translate(2903.998 7599.088)">
      <path id="Path_102065" data-name="Path 102065" d="M-2058.524,127.674a1.5,1.5,0,0,1-1.2-.6c-1.935-2.579.518-4.966,2.141-6.545.192-.187.383-.372.569-.559a10.831,10.831,0,0,1,7.49-2.8,2.077,2.077,0,0,1,2.194,1.352c.594,1.782-1.756,3.785-2.8,4.563a9.39,9.39,0,0,1-1.089.667,4.924,4.924,0,0,0-1.346.93c-.256,1.473-2.2,2.487-5.761,2.975A1.742,1.742,0,0,1-2058.524,127.674Zm6.956-7.273a6.755,6.755,0,0,0-3.325,1.691c-.195.195-.4.392-.6.587a15.427,15.427,0,0,0-1.574,1.687,7,7,0,0,0,1.639-.568c.407-1.363,1.754-2.11,2.757-2.666a7.943,7.943,0,0,0,.744-.443C-2051.811,120.6-2051.69,120.506-2051.568,120.4Z" fill="#5038a1"/>
    </g>
    <path id="Path_102066" data-name="Path 102066" d="M-1881.07,93.87c-.032,0-.064,0-.094,0a.8.8,0,0,1-.663-.288.433.433,0,0,1-.055-.467c.123-.208.4-.19.6-.178l.068,0a.922.922,0,0,0,.186-.553,1.435,1.435,0,0,0-.013-.168.939.939,0,0,1,.561-1.051c.282-.174.337-.418.416-.871a3.69,3.69,0,0,1,.278-.984c.438-.93,2.968-2.132,3.378-2.132a.346.346,0,0,1,.325.22,2,2,0,0,1-.408,1.438,4.844,4.844,0,0,0-.181.957,9.9,9.9,0,0,1-.2,1.137,3.115,3.115,0,0,1-2.237,1.728c-.373.053-.419.14-.544.37a2.5,2.5,0,0,1-.236.374A1.534,1.534,0,0,1-1881.07,93.87Z" transform="translate(2903.998 7599.088)" fill="#5038a1"/>
    <path id="Path_102067" data-name="Path 102067" d="M-1883.683,94.142a.226.226,0,0,1-.182-.091c-.294-.392.078-.754.325-.994.029-.028.058-.056.086-.085a1.645,1.645,0,0,1,1.137-.424.317.317,0,0,1,.334.205c.09.27-.267.575-.425.693a1.364,1.364,0,0,1-.165.1.766.766,0,0,0-.2.141c-.039.224-.334.378-.874.452Z" transform="translate(2903.998 7599.088)" fill="#5038a1"/>
    <g id="Group_56395" data-name="Group 56395" transform="translate(2903.998 7599.088)">
      <path id="Path_102068" data-name="Path 102068" d="M-2045.536,17.328a1.5,1.5,0,0,1-.733-.191,1.5,1.5,0,0,1-.758-1.474c.049-.446.379-2.717,2.005-3.692a7.56,7.56,0,0,0,.748-.569,15.748,15.748,0,0,1,5.24-2.961,4.515,4.515,0,0,0,2.554-2.6,6.156,6.156,0,0,1,3.01-3.182,2.408,2.408,0,0,1,2.632.222c.526.445,1.067,1.343.66,3.1-.067.286-.662,2.677-2.083,3.288a15.71,15.71,0,0,0-1.161,2.109c-.384.778-.781,1.581-1.2,2.25-1.23,1.968-3.633,1.956-5.393,1.941a14.272,14.272,0,0,0-1.5.041,7.572,7.572,0,0,0-3.1,1.407A1.494,1.494,0,0,1-2045.536,17.328Zm5.1-4.765c.289,0,.572,0,.862,0,1.046,0,2.108-.05,2.41-.533s.6-1.08.909-1.7a6.7,6.7,0,0,1-1.782.935,13.791,13.791,0,0,0-2.764,1.294C-2040.68,12.563-2040.559,12.563-2040.437,12.563Zm7.18-6.119h0Z" fill="#5038a1"/>
    </g>
    <path id="Path_102069" data-name="Path 102069" d="M-2041.794,49.62a.591.591,0,0,1-.285-.074.584.584,0,0,1-.3-.574,2.018,2.018,0,0,1,.78-1.436,2.875,2.875,0,0,0,.291-.221,6.134,6.134,0,0,1,2.038-1.151,1.76,1.76,0,0,0,.993-1.012,2.4,2.4,0,0,1,1.171-1.238.937.937,0,0,1,1.023.087,1.121,1.121,0,0,1,.257,1.2c-.026.111-.258,1.041-.81,1.279a6.014,6.014,0,0,0-.452.82c-.149.3-.3.615-.466.875a2.231,2.231,0,0,1-2.1.755,5.316,5.316,0,0,0-.584.016,2.949,2.949,0,0,0-1.206.547A.584.584,0,0,1-2041.794,49.62Z" transform="translate(2903.998 7599.088)" fill="#5038a1"/>
    <path id="Path_102090" data-name="Path 102090" d="M32.587,10.865a7.546,7.546,0,0,1-.694,3.313A5.132,5.132,0,0,1,29.919,16.4a5.494,5.494,0,0,1-2.914.778,5.572,5.572,0,0,1-2.9-.751,5.123,5.123,0,0,1-1.973-2.149,7.329,7.329,0,0,1-.743-3.208v-.721a7.58,7.58,0,0,1,.69-3.318A5.119,5.119,0,0,1,24.057,4.81,5.854,5.854,0,0,1,29.889,4.8,5.211,5.211,0,0,1,31.871,7a7.362,7.362,0,0,1,.716,3.274Zm-3.138-.536a5.381,5.381,0,0,0-.637-2.9,2.044,2.044,0,0,0-1.824-.989q-2.32,0-2.452,3.48l-.009.94a5.535,5.535,0,0,0,.624,2.892,2.041,2.041,0,0,0,1.854,1.011,2.016,2.016,0,0,0,1.8-.993,5.383,5.383,0,0,0,.642-2.856Zm8.613,4.562a1.317,1.317,0,0,0,.967-.338,1.241,1.241,0,0,0,.334-.945h2.777a3.288,3.288,0,0,1-1.121,2.566,4.168,4.168,0,0,1-2.887,1,4.22,4.22,0,0,1-3.27-1.3,5.125,5.125,0,0,1-1.2-3.6v-.123A5.792,5.792,0,0,1,34.2,9.6a3.872,3.872,0,0,1,1.534-1.7,4.573,4.573,0,0,1,2.373-.593,4.116,4.116,0,0,1,2.944,1.028,3.647,3.647,0,0,1,1.09,2.786H39.363A1.626,1.626,0,0,0,39,10a1.244,1.244,0,0,0-.967-.4q-1.151,0-1.345,1.468a10.357,10.357,0,0,0-.062,1.283,4.068,4.068,0,0,0,.343,1.986A1.187,1.187,0,0,0,38.063,14.891Zm9.932,2.285a4.889,4.889,0,0,1-3.542-1.305,4.507,4.507,0,0,1-1.354-3.4v-.246a5.84,5.84,0,0,1,.541-2.575,3.955,3.955,0,0,1,1.578-1.727,4.763,4.763,0,0,1,2.461-.611,4.117,4.117,0,0,1,3.164,1.244A4.887,4.887,0,0,1,52,12.025v1.151H46.113a2.135,2.135,0,0,0,.694,1.257,2.066,2.066,0,0,0,1.389.457,2.662,2.662,0,0,0,2.2-.984l1.354,1.6a3.784,3.784,0,0,1-1.569,1.217A5.3,5.3,0,0,1,47.994,17.176ZM47.66,9.6q-1.3,0-1.547,1.723H49.1v-.229a1.467,1.467,0,0,0-.36-1.1A1.434,1.434,0,0,0,47.66,9.6Zm-.035-6.108h3.129l-2.443,2.76-2.417,0ZM58.55,17a3.344,3.344,0,0,1-.281-.853,2.754,2.754,0,0,1-2.285,1.028,3.374,3.374,0,0,1-2.285-.813,2.588,2.588,0,0,1-.94-2.043A2.66,2.66,0,0,1,53.9,11.981a5.821,5.821,0,0,1,3.322-.791h.914v-.5q0-1.316-1.134-1.316a.927.927,0,0,0-1.055,1.042H52.986A2.655,2.655,0,0,1,54.16,8.175a4.931,4.931,0,0,1,2.993-.86,4.323,4.323,0,0,1,2.874.888,3.086,3.086,0,0,1,1.081,2.435v4.21a4.311,4.311,0,0,0,.4,2V17ZM56.7,15.066a1.652,1.652,0,0,0,.918-.237,1.487,1.487,0,0,0,.523-.536V12.772h-.861q-1.547,0-1.547,1.389a.848.848,0,0,0,.272.655A.986.986,0,0,0,56.7,15.066ZM65.467,7.49l.1,1.116a3.225,3.225,0,0,1,2.716-1.292A2.713,2.713,0,0,1,70.5,8.2a4.226,4.226,0,0,1,.76,2.672V17H68.288V11A1.6,1.6,0,0,0,68,9.938,1.342,1.342,0,0,0,66.943,9.6a1.413,1.413,0,0,0-1.292.686V17H62.689V7.49Zm7.058,4.667a5.613,5.613,0,0,1,.554-2.536,3.96,3.96,0,0,1,1.591-1.709,4.791,4.791,0,0,1,2.435-.6A4.373,4.373,0,0,1,80.47,8.637a5.076,5.076,0,0,1,1.23,3.6v.105a4.925,4.925,0,0,1-1.235,3.529,4.384,4.384,0,0,1-3.344,1.305,4.434,4.434,0,0,1-3.261-1.217,4.761,4.761,0,0,1-1.327-3.3Zm2.962.185a3.538,3.538,0,0,0,.413,1.934,1.376,1.376,0,0,0,1.222.615q1.582,0,1.617-2.435v-.3Q78.738,9.6,77.1,9.6q-1.485,0-1.608,2.206Zm15.223.316V17H87.624V4.2H92.73a5.948,5.948,0,0,1,2.6.541,4.074,4.074,0,0,1,1.749,1.538,4.2,4.2,0,0,1,.62,2.263,3.7,3.7,0,0,1-1.34,2.993,5.561,5.561,0,0,1-3.678,1.121Zm0-2.382H92.73A1.906,1.906,0,0,0,94.1,9.828a1.665,1.665,0,0,0,.47-1.266,2.059,2.059,0,0,0-.483-1.433,1.712,1.712,0,0,0-1.318-.545H90.709ZM104.464,17a3.344,3.344,0,0,1-.281-.853,2.754,2.754,0,0,1-2.285,1.028,3.374,3.374,0,0,1-2.285-.813,2.588,2.588,0,0,1-.94-2.043,2.66,2.66,0,0,1,1.143-2.338,5.821,5.821,0,0,1,3.322-.791h.914v-.5q0-1.316-1.134-1.316a.927.927,0,0,0-1.055,1.042H98.9a2.655,2.655,0,0,1,1.173-2.239,4.931,4.931,0,0,1,2.993-.86,4.323,4.323,0,0,1,2.874.888,3.086,3.086,0,0,1,1.081,2.435v4.21a4.311,4.311,0,0,0,.4,2V17Zm-1.854-1.934a1.652,1.652,0,0,0,.918-.237,1.487,1.487,0,0,0,.523-.536V12.772h-.861q-1.547,0-1.547,1.389a.848.848,0,0,0,.272.655A.986.986,0,0,0,102.609,15.066Zm10.072-.176a1.317,1.317,0,0,0,.967-.338,1.241,1.241,0,0,0,.334-.945h2.777a3.288,3.288,0,0,1-1.121,2.566,4.168,4.168,0,0,1-2.887,1,4.22,4.22,0,0,1-3.27-1.3,5.125,5.125,0,0,1-1.2-3.6v-.123a5.792,5.792,0,0,1,.532-2.544,3.872,3.872,0,0,1,1.534-1.7,4.573,4.573,0,0,1,2.373-.593,4.116,4.116,0,0,1,2.944,1.028,3.647,3.647,0,0,1,1.09,2.786h-2.777a1.626,1.626,0,0,0-.36-1.134,1.244,1.244,0,0,0-.967-.4q-1.151,0-1.345,1.468a10.357,10.357,0,0,0-.062,1.283,4.068,4.068,0,0,0,.343,1.986A1.187,1.187,0,0,0,112.682,14.891ZM121.242,17h-2.979V7.49h2.979ZM120.135,3.676h3.129l-2.443,2.76-2.417,0ZM123.835,17V9.547h-1.38V7.49h1.38V7.174a3.631,3.631,0,0,1,1.248-2.909,4.987,4.987,0,0,1,3.243-.949,11.509,11.509,0,0,1,3.094.51l-.4,2.338-.492-.132a7.832,7.832,0,0,0-2.021-.255q-1.7,0-1.7,1.547V7.49h1.863V9.547h-1.863V17Zm8.947,0H129.8V7.49h2.979Zm5.827-2.109a1.317,1.317,0,0,0,.967-.338,1.241,1.241,0,0,0,.334-.945h2.777a3.288,3.288,0,0,1-1.121,2.566,4.168,4.168,0,0,1-2.887,1,4.22,4.22,0,0,1-3.27-1.3,5.125,5.125,0,0,1-1.2-3.6v-.123a5.792,5.792,0,0,1,.532-2.544,3.872,3.872,0,0,1,1.534-1.7,4.573,4.573,0,0,1,2.373-.593A4.116,4.116,0,0,1,141.6,8.343a3.647,3.647,0,0,1,1.09,2.786H139.91A1.626,1.626,0,0,0,139.55,10a1.244,1.244,0,0,0-.967-.4q-1.151,0-1.345,1.468a10.357,10.357,0,0,0-.062,1.283,4.068,4.068,0,0,0,.343,1.986A1.187,1.187,0,0,0,138.609,14.891Zm4.957-2.733a5.613,5.613,0,0,1,.554-2.536,3.96,3.96,0,0,1,1.591-1.709,4.791,4.791,0,0,1,2.435-.6,4.373,4.373,0,0,1,3.366,1.323,5.076,5.076,0,0,1,1.23,3.6v.105a4.925,4.925,0,0,1-1.235,3.529,4.384,4.384,0,0,1-3.344,1.305,4.434,4.434,0,0,1-3.261-1.217,4.761,4.761,0,0,1-1.327-3.3Zm2.962.185a3.538,3.538,0,0,0,.413,1.934,1.376,1.376,0,0,0,1.222.615q1.582,0,1.617-2.435v-.3q0-2.558-1.635-2.558-1.485,0-1.608,2.206Z" transform="translate(922 7748)" fill="#fff"/>
    <path id="Path_102086" data-name="Path 102086" d="M3.293,15H1.284V5.047h2.01Zm4.867-1.982a.6.6,0,0,0-.236-.455A4.657,4.657,0,0,0,6.875,12a4.365,4.365,0,0,1-1.644-1A1.909,1.909,0,0,1,4.784,9.7a2.065,2.065,0,0,1,.7-1.6A2.665,2.665,0,0,1,7.34,7.467,2.885,2.885,0,0,1,9.289,8.1a2.114,2.114,0,0,1,.731,1.688H8.085q0-.9-.752-.9a.7.7,0,0,0-.506.191.706.706,0,0,0-.2.533.56.56,0,0,0,.219.434,4.81,4.81,0,0,0,1.032.537,4.271,4.271,0,0,1,1.671.974,1.986,1.986,0,0,1,.489,1.391A1.945,1.945,0,0,1,9.3,14.535a3.017,3.017,0,0,1-1.955.6A3.112,3.112,0,0,1,5.9,14.819a2.411,2.411,0,0,1-.974-.885,2.279,2.279,0,0,1-.352-1.224H6.417a1.172,1.172,0,0,0,.236.759.924.924,0,0,0,.728.253Q8.161,13.722,8.161,13.018ZM13.274,15H11.333V4.5h1.941Zm5.011,0a2.7,2.7,0,0,1-.164-.574,1.653,1.653,0,0,1-1.408.711,2.084,2.084,0,0,1-1.542-.615,2.162,2.162,0,0,1-.612-1.593,2.239,2.239,0,0,1,.742-1.8,3.244,3.244,0,0,1,2.136-.649h.588V9.887a1.114,1.114,0,0,0-.171-.7.613.613,0,0,0-.5-.205q-.725,0-.725.848H14.7a2.141,2.141,0,0,1,.769-1.692,2.863,2.863,0,0,1,1.945-.667,2.629,2.629,0,0,1,1.883.632,2.374,2.374,0,0,1,.667,1.808v3.479a3.641,3.641,0,0,0,.273,1.5V15Zm-1.142-1.381a1.079,1.079,0,0,0,.547-.13.92.92,0,0,0,.335-.308V11.644H17.56a.992.992,0,0,0-.776.314,1.208,1.208,0,0,0-.284.841Q16.5,13.619,17.143,13.619Zm7.185-2.543a4.829,4.829,0,0,1,.615-2.714,2.037,2.037,0,0,1,1.791-.9,1.727,1.727,0,0,1,1.422.738V4.5H30.1V15H28.347l-.089-.752a1.782,1.782,0,0,1-1.531.889,2.02,2.02,0,0,1-1.774-.889,4.673,4.673,0,0,1-.625-2.611Zm1.941.485a3.53,3.53,0,0,0,.232,1.528.819.819,0,0,0,.786.434.943.943,0,0,0,.868-.513V9.634a.922.922,0,0,0-.861-.547.833.833,0,0,0-.779.431,3.352,3.352,0,0,0-.246,1.531Zm8.244,3.575a3.032,3.032,0,0,1-2.324-.889,3.578,3.578,0,0,1-.834-2.543v-.588a4.206,4.206,0,0,1,.766-2.7,2.655,2.655,0,0,1,2.194-.95,2.513,2.513,0,0,1,2.1.891A4.25,4.25,0,0,1,37.131,11v.949H33.283a2.013,2.013,0,0,0,.362,1.2,1.225,1.225,0,0,0,.991.381,2.175,2.175,0,0,0,1.62-.663l.759,1.169a2.5,2.5,0,0,1-1.032.8A3.543,3.543,0,0,1,34.513,15.137ZM33.3,10.6h1.935V10.42a2.067,2.067,0,0,0-.219-1,.761.761,0,0,0-.711-.342.8.8,0,0,0-.735.362A2.5,2.5,0,0,0,33.3,10.6ZM44.172,5.047l1.88,7.2,1.873-7.2H50.55V15H48.534V12.307l.185-4.149L46.729,15H45.362L43.373,8.157l.185,4.149V15h-2.01V5.047ZM55.582,15a2.7,2.7,0,0,1-.164-.574,1.653,1.653,0,0,1-1.408.711,2.084,2.084,0,0,1-1.542-.615,2.162,2.162,0,0,1-.612-1.593,2.239,2.239,0,0,1,.742-1.8,3.244,3.244,0,0,1,2.136-.649h.588V9.887a1.114,1.114,0,0,0-.171-.7.613.613,0,0,0-.5-.205q-.725,0-.725.848H51.993a2.141,2.141,0,0,1,.769-1.692,2.863,2.863,0,0,1,1.945-.667A2.629,2.629,0,0,1,56.59,8.1a2.374,2.374,0,0,1,.667,1.808v3.479a3.641,3.641,0,0,0,.273,1.5V15ZM54.44,13.619a1.079,1.079,0,0,0,.547-.13.92.92,0,0,0,.335-.308V11.644h-.465a.992.992,0,0,0-.776.314,1.208,1.208,0,0,0-.284.841Q53.8,13.619,54.44,13.619ZM60.688,15H58.747V4.5h1.941Zm7.26-3.466a4.952,4.952,0,0,1-.6,2.673,1.979,1.979,0,0,1-1.781.93,1.722,1.722,0,0,1-1.449-.731v3.438H62.185V7.6h1.791l.068.677a1.735,1.735,0,0,1,1.511-.813,2.026,2.026,0,0,1,1.781.861,4.734,4.734,0,0,1,.612,2.639Zm-1.928-.485a3.492,3.492,0,0,0-.236-1.518.829.829,0,0,0-.8-.444.92.92,0,0,0-.868.5v3.466A.921.921,0,0,0,65,13.53a.8.8,0,0,0,.8-.485,3.841,3.841,0,0,0,.222-1.511ZM72.1,15.137a3.032,3.032,0,0,1-2.324-.889,3.578,3.578,0,0,1-.834-2.543v-.588a4.206,4.206,0,0,1,.766-2.7,2.655,2.655,0,0,1,2.194-.95,2.513,2.513,0,0,1,2.1.891A4.25,4.25,0,0,1,74.722,11v.949H70.874a2.013,2.013,0,0,0,.362,1.2,1.225,1.225,0,0,0,.991.381,2.175,2.175,0,0,0,1.62-.663l.759,1.169a2.5,2.5,0,0,1-1.032.8A3.543,3.543,0,0,1,72.1,15.137ZM70.887,10.6h1.935V10.42a2.067,2.067,0,0,0-.219-1,.761.761,0,0,0-.711-.342.8.8,0,0,0-.735.362A2.5,2.5,0,0,0,70.887,10.6ZM77.846,15H75.9V4.5h1.941Zm1.271-3.937a4.016,4.016,0,0,1,.793-2.639,3.01,3.01,0,0,1,4.4,0,4.039,4.039,0,0,1,.793,2.652v.472a4.023,4.023,0,0,1-.786,2.639,3.033,3.033,0,0,1-4.413,0,4.037,4.037,0,0,1-.79-2.649Zm1.941.485q0,1.982,1.06,1.982.978,0,1.053-1.654l.007-.813a3.112,3.112,0,0,0-.28-1.5.873.873,0,0,0-.793-.489.851.851,0,0,0-.769.489,3.145,3.145,0,0,0-.277,1.5Z" transform="translate(861 7576)" fill="#12263f"/>
    <path id="Path_102085" data-name="Path 102085" d="M24.109,11.685a3.722,3.722,0,0,1-.957,2.577,3.38,3.38,0,0,1-2.488.875,3.135,3.135,0,0,1-2.587-1.111,4.923,4.923,0,0,1-.9-3.168V9.183a4.8,4.8,0,0,1,.93-3.162A3.186,3.186,0,0,1,20.691,4.91a3.208,3.208,0,0,1,2.471.909,4.134,4.134,0,0,1,.96,2.611H22.106a2.681,2.681,0,0,0-.325-1.453,1.281,1.281,0,0,0-1.09-.4,1.219,1.219,0,0,0-1.142.564A3.944,3.944,0,0,0,19.194,9v1.88a4.338,4.338,0,0,0,.332,2.037,1.218,1.218,0,0,0,1.138.554,1.316,1.316,0,0,0,1.094-.386,2.544,2.544,0,0,0,.342-1.4Zm.916-.622a4.016,4.016,0,0,1,.793-2.639,3.01,3.01,0,0,1,4.4,0,4.039,4.039,0,0,1,.793,2.652v.472a4.023,4.023,0,0,1-.786,2.639,2.7,2.7,0,0,1-2.2.95,2.712,2.712,0,0,1-2.211-.954,4.037,4.037,0,0,1-.79-2.649Zm1.941.485q0,1.982,1.06,1.982.978,0,1.053-1.654l.007-.813a3.112,3.112,0,0,0-.28-1.5.873.873,0,0,0-.793-.489.851.851,0,0,0-.769.489,3.145,3.145,0,0,0-.277,1.5ZM34.247,15H32.305V4.5h1.941Zm1.271-3.937a4.016,4.016,0,0,1,.793-2.639,3.01,3.01,0,0,1,4.4,0,4.039,4.039,0,0,1,.793,2.652v.472a4.023,4.023,0,0,1-.786,2.639,3.033,3.033,0,0,1-4.413,0,4.037,4.037,0,0,1-.79-2.649Zm1.941.485q0,1.982,1.06,1.982.978,0,1.053-1.654l.007-.813a3.112,3.112,0,0,0-.28-1.5.873.873,0,0,0-.793-.489.851.851,0,0,0-.769.489,3.145,3.145,0,0,0-.277,1.5ZM44.528,7.6l.055.684a2.081,2.081,0,0,1,1.716-.82,1.6,1.6,0,0,1,1.565,1,2.027,2.027,0,0,1,1.812-1q1.941,0,1.989,2.687V15H49.73V10.276a1.756,1.756,0,0,0-.178-.916.662.662,0,0,0-.6-.273q-.54,0-.807.663l.014.232V15H46.223V10.29a1.859,1.859,0,0,0-.171-.919.651.651,0,0,0-.608-.284.886.886,0,0,0-.793.54V15H42.716V7.6Zm14.335,3.938a5.077,5.077,0,0,1-.574,2.7,1.986,1.986,0,0,1-1.8.9,1.78,1.78,0,0,1-1.545-.868L54.877,15H53.093V4.5h1.935V8.205a1.711,1.711,0,0,1,1.442-.738,1.991,1.991,0,0,1,1.8.892,4.939,4.939,0,0,1,.588,2.615Zm-1.935-.485A3.621,3.621,0,0,0,56.7,9.487a.826.826,0,0,0-.786-.4.932.932,0,0,0-.889.554v3.37a.925.925,0,0,0,.9.52.819.819,0,0,0,.769-.362,3.172,3.172,0,0,0,.229-1.408ZM62.055,15H60.114V7.6h1.941Zm-2.03-9.311a1,1,0,0,1,.287-.738,1.164,1.164,0,0,1,1.531,0,1,1,0,0,1,.287.738,1.053,1.053,0,1,1-2.105,0ZM67.066,15a2.7,2.7,0,0,1-.164-.574,1.653,1.653,0,0,1-1.408.711,2.084,2.084,0,0,1-1.542-.615,2.162,2.162,0,0,1-.612-1.593,2.239,2.239,0,0,1,.742-1.8,3.244,3.244,0,0,1,2.136-.649h.588V9.887a1.114,1.114,0,0,0-.171-.7.613.613,0,0,0-.5-.205q-.725,0-.725.848H63.477a2.141,2.141,0,0,1,.769-1.692,2.863,2.863,0,0,1,1.945-.667,2.629,2.629,0,0,1,1.883.632,2.374,2.374,0,0,1,.667,1.808v3.479a3.641,3.641,0,0,0,.273,1.5V15Zm-1.142-1.381a1.079,1.079,0,0,0,.547-.13.92.92,0,0,0,.335-.308V11.644h-.465a.992.992,0,0,0-.776.314,1.208,1.208,0,0,0-.284.841Q65.282,13.619,65.924,13.619Z" transform="translate(1100 7625)" fill="#12263f"/>
    <path id="Path_102087" data-name="Path 102087" d="M10.512,15H8.5V5.047h2.01Zm4.867-1.982a.6.6,0,0,0-.236-.455A4.657,4.657,0,0,0,14.094,12a4.365,4.365,0,0,1-1.644-1A1.909,1.909,0,0,1,12,9.7a2.065,2.065,0,0,1,.7-1.6,2.665,2.665,0,0,1,1.856-.632,2.885,2.885,0,0,1,1.948.629,2.114,2.114,0,0,1,.731,1.688H15.3q0-.9-.752-.9a.7.7,0,0,0-.506.191.707.707,0,0,0-.2.533.56.56,0,0,0,.219.434,4.81,4.81,0,0,0,1.032.537,4.271,4.271,0,0,1,1.671.974,1.986,1.986,0,0,1,.489,1.391,1.945,1.945,0,0,1-.745,1.593,3.017,3.017,0,0,1-1.955.6,3.112,3.112,0,0,1-1.436-.318,2.411,2.411,0,0,1-.974-.885A2.279,2.279,0,0,1,11.8,12.71h1.839a1.172,1.172,0,0,0,.236.759.924.924,0,0,0,.728.253Q15.379,13.722,15.379,13.018ZM20.493,15H18.551V4.5h1.941ZM25.5,15a2.7,2.7,0,0,1-.164-.574,1.653,1.653,0,0,1-1.408.711,2.084,2.084,0,0,1-1.542-.615,2.162,2.162,0,0,1-.612-1.593,2.239,2.239,0,0,1,.742-1.8,3.244,3.244,0,0,1,2.136-.649h.588V9.887a1.114,1.114,0,0,0-.171-.7.613.613,0,0,0-.5-.205q-.725,0-.725.848H21.915a2.141,2.141,0,0,1,.769-1.692,2.863,2.863,0,0,1,1.945-.667,2.629,2.629,0,0,1,1.883.632,2.374,2.374,0,0,1,.667,1.808v3.479a3.641,3.641,0,0,0,.273,1.5V15Zm-1.142-1.381a1.079,1.079,0,0,0,.547-.13.92.92,0,0,0,.335-.308V11.644h-.465a.992.992,0,0,0-.776.314,1.208,1.208,0,0,0-.284.841Q23.719,13.619,24.362,13.619Zm14.308.253a3.667,3.667,0,0,1-1.425.947,5.208,5.208,0,0,1-1.849.318,3.391,3.391,0,0,1-2.666-1.063,4.6,4.6,0,0,1-.978-3.093V9.189a4.923,4.923,0,0,1,.9-3.168A3.175,3.175,0,0,1,35.272,4.91a3.377,3.377,0,0,1,2.444.8,3.785,3.785,0,0,1,.954,2.509H36.714a2.27,2.27,0,0,0-.4-1.3,1.27,1.27,0,0,0-.984-.345,1.288,1.288,0,0,0-1.183.595,3.79,3.79,0,0,0-.383,1.894v1.8a3.7,3.7,0,0,0,.407,1.979,1.48,1.48,0,0,0,1.336.619,1.746,1.746,0,0,0,.964-.239l.178-.123V11.281H35.245V9.764h3.425Zm1.1-2.81a4.016,4.016,0,0,1,.793-2.639,3.01,3.01,0,0,1,4.4,0,4.039,4.039,0,0,1,.793,2.652v.472a4.023,4.023,0,0,1-.786,2.639,3.033,3.033,0,0,1-4.413,0,4.037,4.037,0,0,1-.79-2.649Zm1.941.485q0,1.982,1.06,1.982.978,0,1.053-1.654l.007-.813a3.112,3.112,0,0,0-.28-1.5.873.873,0,0,0-.793-.489.851.851,0,0,0-.769.489,3.145,3.145,0,0,0-.277,1.5Zm8.9-2.078-.643-.055a1.056,1.056,0,0,0-1.073.7V15H46.955V7.6H48.78l.055.8A1.4,1.4,0,0,1,50.1,7.467a1.355,1.355,0,0,1,.533.089Zm.759,1.606a4.59,4.59,0,0,1,.656-2.714,2.149,2.149,0,0,1,1.839-.9,1.774,1.774,0,0,1,1.552.793l.075-.656h1.743V15a2.833,2.833,0,0,1-.793,2.164,3.192,3.192,0,0,1-2.276.749,3.752,3.752,0,0,1-1.278-.243,2.367,2.367,0,0,1-1-.619l.649-1.34a2.045,2.045,0,0,0,.711.468,2.166,2.166,0,0,0,.827.181,1.212,1.212,0,0,0,.933-.311,1.483,1.483,0,0,0,.291-1v-.636a1.732,1.732,0,0,1-1.442.725,2.1,2.1,0,0,1-1.829-.919,4.534,4.534,0,0,1-.66-2.594Zm1.935.485a3.154,3.154,0,0,0,.267,1.494.9.9,0,0,0,.848.468.986.986,0,0,0,.882-.431V9.559a.969.969,0,0,0-.868-.472.92.92,0,0,0-.851.472,3.131,3.131,0,0,0-.277,1.518Zm5.113-.5a4.016,4.016,0,0,1,.793-2.639,3.01,3.01,0,0,1,4.4,0,4.039,4.039,0,0,1,.793,2.652v.472a4.023,4.023,0,0,1-.786,2.639,3.033,3.033,0,0,1-4.413,0,4.037,4.037,0,0,1-.79-2.649Zm1.941.485q0,1.982,1.06,1.982.978,0,1.053-1.654l.007-.813a3.112,3.112,0,0,0-.28-1.5.873.873,0,0,0-.793-.489.851.851,0,0,0-.769.489,3.145,3.145,0,0,0-.277,1.5ZM67.38,7.6l.055.731a2.052,2.052,0,0,1,1.716-.868q1.907,0,1.962,2.673V15H69.171V10.283a1.7,1.7,0,0,0-.188-.913.732.732,0,0,0-.66-.284.9.9,0,0,0-.82.54V15H65.562V7.6ZM76.014,15a2.7,2.7,0,0,1-.164-.574,1.653,1.653,0,0,1-1.408.711,2.084,2.084,0,0,1-1.542-.615,2.162,2.162,0,0,1-.612-1.593,2.239,2.239,0,0,1,.742-1.8,3.244,3.244,0,0,1,2.136-.649h.588V9.887a1.114,1.114,0,0,0-.171-.7.613.613,0,0,0-.5-.205q-.725,0-.725.848H72.425a2.141,2.141,0,0,1,.769-1.692,2.863,2.863,0,0,1,1.945-.667,2.629,2.629,0,0,1,1.883.632,2.374,2.374,0,0,1,.667,1.808v3.479a3.641,3.641,0,0,0,.273,1.5V15Zm-1.142-1.381a1.079,1.079,0,0,0,.547-.13.92.92,0,0,0,.335-.308V11.644H75.29a.992.992,0,0,0-.776.314,1.208,1.208,0,0,0-.284.841Q74.23,13.619,74.873,13.619Z" transform="translate(866 7655)" fill="#12263f"/>
  </g>
</svg>
