<svg xmlns="http://www.w3.org/2000/svg" width="80" height="80" viewBox="0 0 80 80">
  <g id="t2-ic3" transform="translate(-543 -2947)">
    <rect id="Rectangle_7611" data-name="Rectangle 7611" width="80" height="80" rx="10" transform="translate(543 2947)" fill="#5038a1"/>
    <g id="auction" transform="translate(558 2961.998)">
      <g id="Group_55996" data-name="Group 55996" transform="translate(9.834 16.741)">
        <g id="Group_55995" data-name="Group 55995">
          <path id="Path_101677" data-name="Path 101677" d="M102.372,171.706a.976.976,0,1,0,0,1.381A.977.977,0,0,0,102.372,171.706Z" transform="translate(-100.704 -171.42)" fill="#fff"/>
        </g>
      </g>
      <g id="Group_55998" data-name="Group 55998" transform="translate(0 38.281)">
        <g id="Group_55997" data-name="Group 55997">
          <path id="Path_101678" data-name="Path 101678" d="M24.726,397.429a3.419,3.419,0,0,0-2.755-5.442H5.371a3.416,3.416,0,0,0-2.752,5.441A4.887,4.887,0,0,0,0,401.752v.977a.977.977,0,0,0,.977.977h25.39a.977.977,0,0,0,.977-.977v-.977A4.887,4.887,0,0,0,24.726,397.429ZM4.335,394.369a1.455,1.455,0,0,1,1.036-.429h16.6a1.465,1.465,0,1,1,0,2.93H5.371a1.465,1.465,0,0,1-1.036-2.5Zm-2.382,7.384a2.933,2.933,0,0,1,2.93-2.93H22.46a2.933,2.933,0,0,1,2.93,2.93Z" transform="translate(0 -391.987)" fill="#fff"/>
        </g>
      </g>
      <g id="Group_56000" data-name="Group 56000" transform="translate(0.002 0.001)">
        <g id="Group_55999" data-name="Group 55999" transform="translate(0 0)">
          <path id="Path_101679" data-name="Path 101679" d="M49.11,41.029a6.149,6.149,0,0,0-1.176-1.351L43.371,35.7a.969.969,0,0,0-.389-.339l-2.759-2.407L27.45,21.811a2.924,2.924,0,0,0-.858-4.664l1.182-1.182a3.908,3.908,0,0,0,3.771-1.009,3.906,3.906,0,0,0,0-5.524L23.259,1.145a3.9,3.9,0,0,0-6.534,3.771L4.936,16.706a3.93,3.93,0,0,0-1.011-.132,3.906,3.906,0,0,0-2.762,6.668l8.286,8.286a3.9,3.9,0,0,0,6.534-3.771l1.179-1.179a2.93,2.93,0,0,0,4.666.856l13.6,15.63a.981.981,0,0,0,.132.166c.017.017.036.033.054.049l4.054,4.658c.1.119.208.236.32.348A5.808,5.808,0,0,0,44.121,50a5.993,5.993,0,0,0,.822-.057,5.909,5.909,0,0,0,4.36-3.018A5.778,5.778,0,0,0,49.11,41.029ZM19.116,2.526a1.952,1.952,0,0,1,2.762,0l8.286,8.286A1.953,1.953,0,0,1,27.4,13.575L19.117,5.288h0A1.955,1.955,0,0,1,19.116,2.526Zm-5.524,27.62a1.956,1.956,0,0,1-2.762,0L2.544,21.86A1.953,1.953,0,0,1,5.305,19.1l8.287,8.287A1.954,1.954,0,0,1,13.593,30.146ZM17.7,23.273,14.974,26,6.687,17.717,17.735,6.669l8.287,8.287-2.736,2.736-.027.026-5.521,5.521Zm3.487,2.037-.006.006L20.5,26A.977.977,0,0,1,19.1,24.635l5.547-5.547a.977.977,0,0,1,1.657.7.968.968,0,0,1-.286.69l-.684.684-.014.014Zm2.022.74L26.067,23.2,38.152,33.737l-4.41,4.41ZM35.027,39.623l4.6-4.6L41.1,36.31l-4.79,4.79ZM47.6,45.971a3.972,3.972,0,0,1-2.923,2.038,3.88,3.88,0,0,1-3.3-1.107c-.075-.075-.147-.153-.214-.233l-.009-.011L37.6,42.577l4.98-4.98,4.077,3.556.009.008a4.2,4.2,0,0,1,.806.927A3.856,3.856,0,0,1,47.6,45.971Z" transform="translate(-0.021 -0.001)" fill="#fff"/>
        </g>
      </g>
      <g id="Group_56002" data-name="Group 56002" transform="translate(12.596 9.836)">
        <g id="Group_56001" data-name="Group 56001">
          <path id="Path_101680" data-name="Path 101680" d="M134.8,100.993a.977.977,0,0,0-1.381,0l-4.143,4.143a.977.977,0,0,0,1.381,1.381l4.143-4.143A.976.976,0,0,0,134.8,100.993Z" transform="translate(-128.985 -100.707)" fill="#fff"/>
        </g>
      </g>
    </g>
  </g>
</svg>
