<svg xmlns="http://www.w3.org/2000/svg" width="80" height="80" viewBox="0 0 80 80">
  <g id="t2-ic5" transform="translate(-543 -368)">
    <rect id="Rectangle_7812" data-name="Rectangle 7812" width="80" height="80" rx="10" transform="translate(543 368)" fill="#5038a1"/>
    <g id="handshake" transform="translate(558.001 382.5)">
      <path id="Path_101681" data-name="Path 101681" d="M49.8,110.878l-8.369-10.871a.98.98,0,0,0-1.3-.229l-5.4,3.436H27.674a.972.972,0,0,0-.27.045l-5.464,1.573-5.669-1.551-5.509-3.5a.98.98,0,0,0-1.289.211L.217,111.455a.98.98,0,0,0,.124,1.359l4.852,4.175,4.353,5.865a3.462,3.462,0,0,0,2.178,5.815,3.487,3.487,0,0,0-.04.53,3.465,3.465,0,0,0,3.465,3.465h.037c0,.024,0,.047,0,.071a3.464,3.464,0,0,0,3.465,3.465,3.535,3.535,0,0,0,.541-.042,3.465,3.465,0,0,0,5.9,2.11l.53-.53.222.179a3.463,3.463,0,0,0,5.872-2.544,3.459,3.459,0,0,0,3.517-3.515,3.462,3.462,0,0,0,3.517-3.519,3.463,3.463,0,0,0,2.96-5.35l3.178-6.656,4.778-4.111a.98.98,0,0,0,.137-1.341ZM10.449,101.9l3.961,2.519-8.617,10.5L2.34,111.948Zm.559,22.258,1.2-1.2c.036-.036.074-.071.113-.1a1.5,1.5,0,0,1,.817-.331h.026c.043,0,.085-.006.129-.005A1.5,1.5,0,0,1,14.36,123a1.541,1.541,0,0,1-.066,2.133l-1.159,1.159a1.5,1.5,0,1,1-2.127-2.127Zm3.076,6.1a1.5,1.5,0,0,1,0-2.127l2.318-2.318a1.52,1.52,0,0,1,1.71-.3,1.5,1.5,0,0,1,.829,1.553,1.587,1.587,0,0,1-.448.906l-2.282,2.281a1.5,1.5,0,0,1-2.127,0Zm3.5,3.534a1.5,1.5,0,0,1,0-2.127l2.318-2.318a1.521,1.521,0,0,1,1.818-.238,1.5,1.5,0,0,1,.718,1.52,1.589,1.589,0,0,1-.446.882L19.711,133.8a1.5,1.5,0,0,1-2.127,0Zm3.987,3.082a1.506,1.506,0,0,1,0-2.127l1.2-1.2c.036-.036.074-.07.113-.1l0,0a1.5,1.5,0,0,1,.667-.31l.017,0c.042-.008.085-.014.127-.018l.052,0c.035,0,.07,0,.105,0a1.494,1.494,0,0,1,1.073.471,1.359,1.359,0,0,1,.1.114,1.552,1.552,0,0,1-.169,2.025L23.7,136.88a1.506,1.506,0,0,1-2.127,0Zm18.29-10.942a1.505,1.505,0,0,1-2.127,0,.892.892,0,0,0-.067-.06l-6.3-6.371a.981.981,0,0,0-1.394,1.379l6.372,6.439,0,0a1.5,1.5,0,1,1-2.127,2.127l-4.263-4.307a.98.98,0,1,0-1.394,1.379l4.2,4.241a.93.93,0,0,0,.069.077,1.5,1.5,0,1,1-2.127,2.127l-2.327-2.351A.98.98,0,1,0,26.978,132l2.262,2.285a.874.874,0,0,0,.069.077,1.5,1.5,0,1,1-2.127,2.127,2.171,2.171,0,0,0-.222-.177c-.064-.049-.081-.083-.049-.161s.081-.15.113-.23.065-.18.093-.271a3.535,3.535,0,0,0,.127-1.508,3.43,3.43,0,0,0-2.923-2.951,3.5,3.5,0,0,0-.84-3.155,3.439,3.439,0,0,0-2.47-1.084h-.1a3.431,3.431,0,0,0-3.4-3.534,3.526,3.526,0,0,0-.837.089,3.431,3.431,0,0,0-3.362-2.942,3.473,3.473,0,0,0-2.367.89l-3.79-5.107L16.224,105.3l2.89.79-3.774,6.659a3.465,3.465,0,0,0,1.307,4.723q.076.043.153.082l.012.006a3.487,3.487,0,0,0,.416.174,3.465,3.465,0,0,0,4.142-1.568l2.452-4.328,4.379.311,11.66,11.66a1.506,1.506,0,0,1,0,2.127Zm.406-4.494L29.328,110.505a.868.868,0,0,0-.065-.06.981.981,0,0,0-.559-.225l-5.362-.38a1,1,0,0,0-.922.495L19.663,115.2a1.5,1.5,0,1,1-2.617-1.483l3.681-6.5,1.492-.429.029-.01,5.567-1.608h6.726l8.4,10.674Zm3.955-7.133-7.765-9.877,3.963-2.52,7.256,9.425Zm0,0" transform="translate(0 -89.445)" fill="#fff"/>
      <path id="Path_101682" data-name="Path 101682" d="M301.125,37.529a.978.978,0,0,0,.694-.287l6.7-6.7a.98.98,0,1,0-1.387-1.387l-6.7,6.7a.981.981,0,0,0,.693,1.674Zm0,0" transform="translate(-270.835 -25.6)" fill="#fff"/>
      <path id="Path_101683" data-name="Path 101683" d="M130.18,37.242a.981.981,0,1,0,1.387-1.387l-6.7-6.7a.981.981,0,0,0-1.387,1.387Zm0,0" transform="translate(-111.165 -25.601)" fill="#fff"/>
      <path id="Path_101684" data-name="Path 101684" d="M246.941,48.2a.981.981,0,0,0,.98-.98V41.679a.98.98,0,1,0-1.961,0v5.542A.981.981,0,0,0,246.941,48.2Zm0,0" transform="translate(-221.942 -36.273)" fill="#fff"/>
      <path id="Path_101685" data-name="Path 101685" d="M246.059,1.853A.98.98,0,1,0,247.56.7a.98.98,0,0,0-1.5,1.153Zm0,0" transform="translate(-221.965 0)" fill="#fff"/>
    </g>
  </g>
</svg>
