<svg xmlns="http://www.w3.org/2000/svg" width="280" height="283" viewBox="0 0 280 283">
  <g id="t2-k4" transform="translate(-285 -1340)">
    <path id="Rectangle_7852" data-name="Rectangle 7852" d="M2.5,2.5v261h260V2.5H2.5M0,0H265V266H0Z" transform="translate(300 1357)" fill="#ffdc72"/>
    <rect id="Rectangle_7851" data-name="Rectangle 7851" width="263" height="266" transform="translate(285 1340)" fill="#fff8e3"/>
    <g id="empleado" transform="translate(341.979 1398)">
      <g id="Group_56071" data-name="Group 56071" transform="translate(2.218 0)">
        <g id="Group_56062" data-name="Group 56062" transform="translate(5.248)">
          <g id="Group_56061" data-name="Group 56061">
            <g id="Group_56060" data-name="Group 56060">
              <g id="Group_56058" data-name="Group 56058">
                <g id="Group_56057" data-name="Group 56057">
                  <g id="Group_56056" data-name="Group 56056">
                    <path id="Path_101728" data-name="Path 101728" d="M119.03,31.25H48.4V10.707A3.208,3.208,0,0,1,51.6,7.5h64.218a3.208,3.208,0,0,1,3.208,3.208Z" transform="translate(-41.667 -7.499)" fill="#fff"/>
                    <path id="Path_101729" data-name="Path 101729" d="M233.757,7.5H215.2a3.208,3.208,0,0,1,3.208,3.208V31.251h18.553V10.708A3.208,3.208,0,0,0,233.757,7.5Z" transform="translate(-159.603 -7.5)" fill="#e8e8e8"/>
                    <g id="Group_56055" data-name="Group 56055" transform="translate(0 13.266)">
                      <g id="Group_56054" data-name="Group 56054">
                        <g id="Group_56053" data-name="Group 56053">
                          <g id="Group_56052" data-name="Group 56052">
                            <path id="Path_101730" data-name="Path 101730" d="M109.523,179.5H25.433V58.293a5.516,5.516,0,0,1,5.516-5.516h73.058a5.516,5.516,0,0,1,5.516,5.516Z" transform="translate(-25.433 -52.777)" fill="#fff"/>
                          </g>
                        </g>
                      </g>
                    </g>
                    <path id="Path_101731" data-name="Path 101731" d="M248.9,52.777h-18.53a5.516,5.516,0,0,1,5.516,5.516V179.5h18.53V58.293A5.516,5.516,0,0,0,248.9,52.777Z" transform="translate(-170.323 -39.511)" fill="#e8e8e8"/>
                    <path id="Path_101732" data-name="Path 101732" d="M67.591,369.3H89.1v33.984H67.591Z" transform="translate(-55.239 -263.294)" fill="#f4fbff"/>
                  </g>
                </g>
              </g>
              <g id="Group_56059" data-name="Group 56059" transform="translate(11.538 24.579)">
                <path id="Path_101733" data-name="Path 101733" d="M64.813,103.11V93.652a2.263,2.263,0,0,1,2.263-2.263h9.458A2.263,2.263,0,0,1,78.8,93.652v9.458a2.263,2.263,0,0,1-2.263,2.263H67.076A2.263,2.263,0,0,1,64.813,103.11Z" transform="translate(-64.813 -91.389)" fill="#c2b0ff"/>
                <path id="Path_101734" data-name="Path 101734" d="M145.072,103.11V93.652a2.263,2.263,0,0,1,2.263-2.263h9.458a2.263,2.263,0,0,1,2.263,2.263v9.458a2.263,2.263,0,0,1-2.263,2.263h-9.458A2.263,2.263,0,0,1,145.072,103.11Z" transform="translate(-121.557 -91.389)" fill="#c2b0ff"/>
                <path id="Path_101735" data-name="Path 101735" d="M225.33,103.11V93.652a2.263,2.263,0,0,1,2.263-2.263h9.458a2.263,2.263,0,0,1,2.263,2.263v9.458a2.263,2.263,0,0,1-2.263,2.263h-9.458A2.263,2.263,0,0,1,225.33,103.11Z" transform="translate(-178.3 -91.389)" fill="#c2b0ff"/>
                <path id="Path_101736" data-name="Path 101736" d="M64.813,186.058V176.6a2.263,2.263,0,0,1,2.263-2.263h9.458A2.263,2.263,0,0,1,78.8,176.6v9.458a2.263,2.263,0,0,1-2.263,2.263H67.076A2.263,2.263,0,0,1,64.813,186.058Z" transform="translate(-64.813 -150.034)" fill="#c2b0ff"/>
                <path id="Path_101737" data-name="Path 101737" d="M145.072,186.058V176.6a2.263,2.263,0,0,1,2.263-2.263h9.458a2.263,2.263,0,0,1,2.263,2.263v9.458a2.263,2.263,0,0,1-2.263,2.263h-9.458A2.263,2.263,0,0,1,145.072,186.058Z" transform="translate(-121.557 -150.034)" fill="#c2b0ff"/>
                <path id="Path_101738" data-name="Path 101738" d="M225.33,186.058V176.6a2.263,2.263,0,0,1,2.263-2.263h9.458a2.263,2.263,0,0,1,2.263,2.263v9.458a2.263,2.263,0,0,1-2.263,2.263h-9.458A2.263,2.263,0,0,1,225.33,186.058Z" transform="translate(-178.3 -150.034)" fill="#c2b0ff"/>
                <path id="Path_101739" data-name="Path 101739" d="M64.813,269.006v-9.458a2.263,2.263,0,0,1,2.263-2.263h9.458a2.263,2.263,0,0,1,2.263,2.263v9.458a2.263,2.263,0,0,1-2.263,2.263H67.076A2.263,2.263,0,0,1,64.813,269.006Z" transform="translate(-64.813 -208.679)" fill="#c2b0ff"/>
                <path id="Path_101740" data-name="Path 101740" d="M145.072,269.006v-9.458a2.263,2.263,0,0,1,2.263-2.263h9.458a2.263,2.263,0,0,1,2.263,2.263v9.458a2.263,2.263,0,0,1-2.263,2.263h-9.458A2.263,2.263,0,0,1,145.072,269.006Z" transform="translate(-121.557 -208.679)" fill="#c2b0ff"/>
                <path id="Path_101741" data-name="Path 101741" d="M225.33,269.006v-9.458a2.263,2.263,0,0,1,2.263-2.263h9.458a2.263,2.263,0,0,1,2.263,2.263v9.458a2.263,2.263,0,0,1-2.263,2.263h-9.458A2.263,2.263,0,0,1,225.33,269.006Z" transform="translate(-178.3 -208.679)" fill="#c2b0ff"/>
              </g>
            </g>
          </g>
        </g>
        <g id="Group_56070" data-name="Group 56070" transform="translate(52.647 38.11)">
          <g id="Group_56069" data-name="Group 56069">
            <path id="Path_101742" data-name="Path 101742" d="M290.925,142.834a5.264,5.264,0,0,0-5.264-5.264H267.518A12.116,12.116,0,0,0,255.4,149.686v13.452h42.743V149.877a5.264,5.264,0,0,0-5.264-5.264H292.7A1.779,1.779,0,0,1,290.925,142.834Z" transform="translate(-235.422 -137.57)" fill="#ffdc72"/>
            <path id="Path_101743" data-name="Path 101743" d="M342.459,144.613h-.177a1.778,1.778,0,0,1-1.778-1.778,5.265,5.265,0,0,0-5.265-5.264h-9.712v25.569h22.2V149.877A5.264,5.264,0,0,0,342.459,144.613Z" transform="translate(-285 -137.57)" fill="#ffb74d"/>
            <path id="Path_101744" data-name="Path 101744" d="M215.014,335.824l-17.329,5.086A14.583,14.583,0,0,0,187.208,354.9v24.662h82.711V354.9a14.583,14.583,0,0,0-10.475-13.993l-16.787-4.928Z" transform="translate(-187.208 -277.737)" fill="#8c6df2"/>
            <path id="Path_101745" data-name="Path 101745" d="M348.371,341.033,331.584,336.1l-18.6-.106a10.336,10.336,0,0,0,7.425,9.86l9.405,2.761a14.583,14.583,0,0,1,10.475,13.993v17.075h18.553V355.026A14.584,14.584,0,0,0,348.371,341.033Z" transform="translate(-276.135 -277.861)" fill="#765ccc"/>
            <path id="Path_101746" data-name="Path 101746" d="M313.1,393.061h-5.285l-4.773,26.931.022.04h14.82Z" transform="translate(-269.106 -318.204)" fill="#ffb74d"/>
            <g id="Group_56067" data-name="Group 56067" transform="translate(19.98 14.264)">
              <g id="Group_56066" data-name="Group 56066" transform="translate(11.856 32.004)">
                <g id="Group_56065" data-name="Group 56065">
                  <g id="Group_56064" data-name="Group 56064">
                    <g id="Group_56063" data-name="Group 56063">
                      <path id="Path_101747" data-name="Path 101747" d="M314.9,310.783v-15.3H295.867v15.3c0,5.255,9.516,5.722,9.516,5.722S314.9,316.039,314.9,310.783Z" transform="translate(-295.867 -295.488)" fill="#ffddce"/>
                    </g>
                  </g>
                </g>
              </g>
              <path id="Path_101748" data-name="Path 101748" d="M298.145,195.794h-3.638a3.663,3.663,0,0,1-3.663-3.663v-2a3.867,3.867,0,0,0-5.081-3.672,28.642,28.642,0,0,1-17.973,0l-.007,0a3.867,3.867,0,0,0-5.08,3.672v2.006a3.663,3.663,0,0,1-3.663,3.663H255.4v5.991a2.772,2.772,0,0,0,2.772,2.772.911.911,0,0,1,.906.86,17.729,17.729,0,0,0,35.387,0,.911.911,0,0,1,.906-.86,2.772,2.772,0,0,0,2.772-2.772v-5.99Z" transform="translate(-255.402 -186.255)" fill="#ffddce"/>
              <path id="Path_101749" data-name="Path 101749" d="M328.792,195.8a3.663,3.663,0,0,1-3.663-3.663v-2a3.867,3.867,0,0,0-5.081-3.672,28.634,28.634,0,0,1-9.815,1.43V207.2a17.7,17.7,0,0,1-6.338,13.314,17.729,17.729,0,0,0,24.857-15.09.911.911,0,0,1,.906-.86,2.772,2.772,0,0,0,2.772-2.772V195.8h-3.637Z" transform="translate(-289.687 -186.257)" fill="#ffcbbe"/>
            </g>
            <g id="Group_56068" data-name="Group 56068" transform="translate(23.985 56.778)">
              <path id="Path_101750" data-name="Path 101750" d="M273.212,331.651l-2.71,1.217a2.423,2.423,0,0,0-.722,3.923l7.506,7.517a2.592,2.592,0,0,0,3.47.132l5.885-4.916-10.034-7.5A3.368,3.368,0,0,0,273.212,331.651Z" transform="translate(-269.071 -331.356)" fill="#8c6df2"/>
              <path id="Path_101751" data-name="Path 101751" d="M338.66,332.1l-9.622,7.451,5.531,4.729a2.592,2.592,0,0,0,3.481-.1l7.509-7.313a2.423,2.423,0,0,0-.7-3.949l-2.763-1.231A3.368,3.368,0,0,0,338.66,332.1Z" transform="translate(-311.468 -331.385)" fill="#8c6df2"/>
            </g>
          </g>
          <path id="Path_101752" data-name="Path 101752" d="M315.054,359.233l-5.8,4.84,2.953,5.071H317.5l2.953-5.292Z" transform="translate(-273.499 -294.287)" fill="#ffb74d"/>
        </g>
        <path id="Path_101753" data-name="Path 101753" d="M148.336,481.388H12.309a4.789,4.789,0,0,1,0-9.578H148.336a4.789,4.789,0,0,1,0,9.578Z" transform="translate(-7.52 -335.77)" fill="#5038a1"/>
      </g>
      <g id="Group_56072" data-name="Group 56072" transform="translate(0.021 0)">
        <path id="Path_101754" data-name="Path 101754" d="M75.692,88.349a4.465,4.465,0,0,0-4.46-4.46H61.774a4.465,4.465,0,0,0-4.46,4.46v9.458a4.465,4.465,0,0,0,4.46,4.46h9.458a4.465,4.465,0,0,0,4.46-4.46V88.349ZM71.3,97.807a.066.066,0,0,1-.066.066H61.774a.066.066,0,0,1-.066-.066V88.349a.066.066,0,0,1,.066-.066h9.458a.066.066,0,0,1,.066.066v9.458Z" transform="translate(-40.528 -59.31)" fill="#12263f"/>
        <path id="Path_101755" data-name="Path 101755" d="M155.951,88.349a4.465,4.465,0,0,0-4.46-4.46h-9.458a4.465,4.465,0,0,0-4.46,4.46v9.458a4.465,4.465,0,0,0,4.46,4.46h9.458a4.465,4.465,0,0,0,4.46-4.46Zm-4.394,9.458a.066.066,0,0,1-.066.066h-9.458a.066.066,0,0,1-.066-.066V88.349a.066.066,0,0,1,.066-.066h9.458a.066.066,0,0,1,.066.066Z" transform="translate(-97.271 -59.31)" fill="#12263f"/>
        <path id="Path_101756" data-name="Path 101756" d="M75.692,171.3a4.465,4.465,0,0,0-4.46-4.46H61.774a4.465,4.465,0,0,0-4.46,4.46v9.458a4.465,4.465,0,0,0,4.46,4.46h9.458a4.465,4.465,0,0,0,4.46-4.46V171.3ZM71.3,180.755a.066.066,0,0,1-.066.066H61.774a.066.066,0,0,1-.066-.066V171.3a.066.066,0,0,1,.066-.066h9.458a.066.066,0,0,1,.066.066v9.458Z" transform="translate(-40.528 -117.955)" fill="#12263f"/>
        <path id="Path_101757" data-name="Path 101757" d="M155.951,171.3a4.465,4.465,0,0,0-4.46-4.46h-9.458a4.465,4.465,0,0,0-4.46,4.46v9.458a4.465,4.465,0,0,0,4.46,4.46h9.458a4.465,4.465,0,0,0,4.46-4.46Zm-4.394,9.458a.066.066,0,0,1-.066.066h-9.458a.066.066,0,0,1-.066-.066V171.3a.066.066,0,0,1,.066-.066h9.458a.066.066,0,0,1,.066.066Z" transform="translate(-97.271 -117.955)" fill="#12263f"/>
        <path id="Path_101758" data-name="Path 101758" d="M71.232,249.785H61.774a4.465,4.465,0,0,0-4.46,4.46V263.7a4.465,4.465,0,0,0,4.46,4.46h9.458a4.465,4.465,0,0,0,4.46-4.46v-9.458A4.465,4.465,0,0,0,71.232,249.785ZM71.3,263.7a.066.066,0,0,1-.066.066H61.774a.066.066,0,0,1-.066-.066v-9.458a.066.066,0,0,1,.066-.066h9.458a.066.066,0,0,1,.066.066V263.7Z" transform="translate(-40.528 -176.6)" fill="#12263f"/>
        <path id="Path_101759" data-name="Path 101759" d="M151.491,249.785h-9.458a4.465,4.465,0,0,0-4.46,4.46V263.7a4.465,4.465,0,0,0,4.46,4.46h9.458a4.465,4.465,0,0,0,4.46-4.46v-9.458a4.465,4.465,0,0,0-4.46-4.46Zm.066,13.919a.066.066,0,0,1-.066.066h-9.458a.066.066,0,0,1-.066-.066v-9.458a.066.066,0,0,1,.066-.066h9.458a.066.066,0,0,1,.066.066Z" transform="translate(-97.271 -176.6)" fill="#12263f"/>
        <path id="Path_101760" data-name="Path 101760" d="M143.034,136.04h-3.261V117.472a16.873,16.873,0,0,0-12.054-16.1l-13.308-3.907a4.618,4.618,0,0,0-1.28-.852l-2.763-1.231a5.559,5.559,0,0,0-2.439-.477v-6.2a19.909,19.909,0,0,0,8.079-13.783,4.978,4.978,0,0,0,3.777-4.824V52.614a7.471,7.471,0,0,0-7.232-7.458A7.472,7.472,0,0,0,105.1,38.11H86.962a14.247,14.247,0,0,0-4.768.819c.014-.142.022-.286.022-.432V29.039a4.465,4.465,0,0,0-4.46-4.46H68.3a4.465,4.465,0,0,0-4.46,4.46V38.5a4.465,4.465,0,0,0,4.46,4.46h7.941a14.293,14.293,0,0,0-3.146,5.925H68.3a4.465,4.465,0,0,0-4.46,4.46V62.8a4.465,4.465,0,0,0,4.46,4.46h4.35V70.1a4.946,4.946,0,0,0,1.076,3.084H68.3a4.465,4.465,0,0,0-4.46,4.46V87.1a4.465,4.465,0,0,0,4.46,4.46h9.458a4.465,4.465,0,0,0,4.46-4.46v-.338A20.119,20.119,0,0,0,84.5,88.71v6.183a5.557,5.557,0,0,0-2.413.484l-2.71,1.217a4.61,4.61,0,0,0-1.271.85l-13.387,3.929a16.872,16.872,0,0,0-12.055,16.1v1.492a2.2,2.2,0,1,0,4.394,0v-1.492a12.454,12.454,0,0,1,8.9-11.885l10.962-3.217a4.634,4.634,0,0,0,1.082,1.7l7.506,7.516.022.022a4.763,4.763,0,0,0,4.183,1.286l1.558,2.677L87.646,136.04H70.813v-4.774a2.2,2.2,0,1,0-4.394,0v4.774H57.062v-6.8a2.2,2.2,0,0,0-4.394,0v6.8H43.523V110.4H43.8a2.2,2.2,0,1,0,0-4.394H17.345a2.2,2.2,0,1,0,0,4.394h.276V136.04H9.664V20.979a3.323,3.323,0,0,1,3.319-3.319H86.041a3.322,3.322,0,0,1,3.318,3.319v8.91a2.2,2.2,0,1,0,4.394,0v-8.91a7.723,7.723,0,0,0-6.728-7.648V5.405A5.411,5.411,0,0,0,81.62,0H17.4A5.411,5.411,0,0,0,12,5.405v7.926a7.723,7.723,0,0,0-6.728,7.648V136.258a6.987,6.987,0,0,0,1.738,13.754H143.035a6.986,6.986,0,1,0,0-13.973ZM17.4,4.395H81.62a1.012,1.012,0,0,1,1.011,1.011v7.86H16.392V5.405A1.012,1.012,0,0,1,17.4,4.395ZM135.379,117.472V136.04h-9.363v-4.774a2.2,2.2,0,1,0-4.394,0v4.774H104.8l-3.633-20.489,1.58-2.831a4.754,4.754,0,0,0,4.222-1.264l7.509-7.312a4.571,4.571,0,0,0,1.12-1.752l10.887,3.2a12.454,12.454,0,0,1,8.9,11.884Zm-40.538-4.506-1.383-2.376,2.946-2.461,2.619,2.24-1.45,2.6H94.841ZM108.58,99.4l2.763,1.231a.227.227,0,0,1,.065.368l-7.5,7.3a.4.4,0,0,1-.53.016l-3.48-2.975,7.488-5.8a1.168,1.168,0,0,1,1.192-.144ZM105.1,42.5a3.071,3.071,0,0,1,3.067,3.067,3.98,3.98,0,0,0,3.975,3.975h.177a3.071,3.071,0,0,1,3.067,3.067v9.3h-1.441a1.468,1.468,0,0,1-1.466-1.466v-2a6.048,6.048,0,0,0-7.968-5.758,26.624,26.624,0,0,1-16.6,0,6.06,6.06,0,0,0-7.967,5.758v2.006a1.468,1.468,0,0,1-1.466,1.466H77.042v-9.49a9.931,9.931,0,0,1,9.92-9.919ZM68.232,38.5V29.039a.066.066,0,0,1,.066-.066h9.458a.066.066,0,0,1,.066.066V38.5a.066.066,0,0,1-.066.066H68.3A.066.066,0,0,1,68.232,38.5Zm0,24.3V53.342a.066.066,0,0,1,.066-.066h4.35v9.59H68.3a.066.066,0,0,1-.066-.066Zm9.59,24.3a.066.066,0,0,1-.066.066H68.3a.066.066,0,0,1-.066-.066V77.645a.066.066,0,0,1,.066-.066H76.92a19.709,19.709,0,0,0,.9,2.686V87.1Zm2.9-13.51a3.117,3.117,0,0,0-3.1-2.918.575.575,0,0,1-.575-.575V66.308h1.441a5.867,5.867,0,0,0,5.86-5.86V58.441a1.669,1.669,0,0,1,2.2-1.583,31.044,31.044,0,0,0,19.352,0,1.669,1.669,0,0,1,2.194,1.586v2a5.867,5.867,0,0,0,5.86,5.86h1.441V70.1a.575.575,0,0,1-.575.575,3.117,3.117,0,0,0-3.1,2.919,15.532,15.532,0,0,1-31,0Zm15.5,18.938a19.8,19.8,0,0,0,7.318-1.4v5.83L96.4,102.492l-7.5-5.6V91.134a19.812,19.812,0,0,0,7.319,1.4Zm-15.1,8.436a.227.227,0,0,1,.067-.365l2.71-1.217a1.173,1.173,0,0,1,1.18.13l7.806,5.833-3.752,3.134a.394.394,0,0,1-.522-.014ZM95.42,117.361h1.6l3.313,18.679H92.11Zm-73.4-6.962H39.128V136.04H22.016Zm121.019,35.219H7.007a2.592,2.592,0,1,1,0-5.183H143.035a2.592,2.592,0,1,1,0,5.183Z" transform="translate(-0.021 0)" fill="#12263f"/>
      </g>
    </g>
  </g>
</svg>
