<svg xmlns="http://www.w3.org/2000/svg" width="140" height="140" viewBox="0 0 140 140">
  <g id="t3-ic10" transform="translate(-730 -2665)">
    <circle id="Ellipse_4093" data-name="Ellipse 4093" cx="70" cy="70" r="70" transform="translate(730 2665)" fill="#fff"/>
    <g id="Group_56358" data-name="Group 56358" transform="translate(1954.35 1931.731)">
      <g id="Group_56349" data-name="Group 56349" transform="translate(-1194.35 760.827)">
        <g id="Group_56321" data-name="Group 56321" transform="translate(0.678 40.952)">
          <path id="Path_101974" data-name="Path 101974" d="M-1140.573,854a9.684,9.684,0,0,1,9.7,9.65v19.877h-62.179v-19.8a9.706,9.706,0,0,1,9.65-9.726h13.776V839.69h15.258v14.316Z" transform="translate(1193.052 -839.69)" fill="#8c6df2"/>
        </g>
        <g id="Group_56322" data-name="Group 56322" transform="translate(24.105 40.952)">
          <path id="Path_101975" data-name="Path 101975" d="M-1132.973,839.69h-15.258v10.85l7.7,9.4,7.558-9.4Z" transform="translate(1148.231 -839.69)" fill="#ff9f70"/>
        </g>
        <g id="Group_56324" data-name="Group 56324" transform="translate(0.678 55.268)">
          <g id="Group_56323" data-name="Group 56323">
            <path id="Path_101976" data-name="Path 101976" d="M-1193.052,876.806v19.8h3.389V876.8a9.7,9.7,0,0,1,9.65-9.721h-3.39A9.706,9.706,0,0,0-1193.052,876.806Z" transform="translate(1193.052 -867.081)" fill="#735ac7"/>
          </g>
        </g>
        <g id="Group_56326" data-name="Group 56326" transform="translate(49.768 55.264)">
          <g id="Group_56325" data-name="Group 56325">
            <path id="Path_101977" data-name="Path 101977" d="M-1095.741,867.073a9.684,9.684,0,0,1,9.7,9.65V896.6h-3.39V876.728a9.684,9.684,0,0,0-9.7-9.65l3.389,0Z" transform="translate(1099.13 -867.073)" fill="#a38af2"/>
          </g>
        </g>
        <g id="Group_56327" data-name="Group 56327" transform="translate(50.175 74.953)">
          <path id="Path_101978" data-name="Path 101978" d="M-1098.35,914.242v-8.82a.679.679,0,0,1,.678-.678.679.679,0,0,1,.678.678v8.82a.679.679,0,0,1-.678.678A.678.678,0,0,1-1098.35,914.242Z" transform="translate(1098.35 -904.743)" fill="#12263f"/>
        </g>
        <g id="Group_56328" data-name="Group 56328" transform="translate(12.003 74.953)">
          <path id="Path_101979" data-name="Path 101979" d="M-1171.384,914.242v-8.82a.679.679,0,0,1,.678-.678.679.679,0,0,1,.678.678v8.82a.679.679,0,0,1-.678.678A.678.678,0,0,1-1171.384,914.242Z" transform="translate(1171.384 -904.743)" fill="#12263f"/>
        </g>
        <g id="Group_56329" data-name="Group 56329" transform="translate(0 40.274)">
          <path id="Path_101980" data-name="Path 101980" d="M-1193.672,883.588a.678.678,0,0,1-.678-.678v-19.8a10.349,10.349,0,0,1,3.017-7.339,10.243,10.243,0,0,1,7.312-3.065h13.1V839.07a.678.678,0,0,1,.678-.678h15.258a.678.678,0,0,1,.678.678v13.638l13.116,0h.014a10.31,10.31,0,0,1,7.314,3.018,10.258,10.258,0,0,1,3.052,7.31v19.877a.679.679,0,0,1-.678.678Zm61.5-1.357v-19.2a8.909,8.909,0,0,0-2.651-6.349,8.963,8.963,0,0,0-6.359-2.624h-.011l-13.794,0h0a.679.679,0,0,1-.48-.2.679.679,0,0,1-.2-.48V839.749h-13.9v13.638a.679.679,0,0,1-.678.678h-13.775a8.892,8.892,0,0,0-6.348,2.663,9,9,0,0,0-2.625,6.384v19.119h60.822Z" transform="translate(1194.35 -838.392)" fill="#12263f"/>
        </g>
        <g id="Group_56330" data-name="Group 56330" transform="translate(11.799 0.677)">
          <path id="Path_101981" data-name="Path 101981" d="M-1165.877,774.867a5.9,5.9,0,0,0-5.879,6.358l1,12.791h37.891l1-12.791a5.9,5.9,0,0,0-5.878-6.358v-.583a5.9,5.9,0,0,0-3.6-5.433,36.77,36.77,0,0,1-6.9-3.7l-3.568-2.511v-.006l0,0,0,0v.006l-3.567,2.511a36.77,36.77,0,0,1-6.9,3.7,5.9,5.9,0,0,0-3.6,5.433v.583Z" transform="translate(1171.774 -762.631)" fill="#ffb74d"/>
        </g>
        <g id="Group_56332" data-name="Group 56332" transform="translate(11.799 0.687)">
          <g id="Group_56331" data-name="Group 56331">
            <path id="Path_101982" data-name="Path 101982" d="M-1171.756,781.234l1,12.791h3.256l-1-12.791a5.9,5.9,0,0,1,5.32-6.332.612.612,0,0,0,.559-.608,5.9,5.9,0,0,1,3.6-5.433c2.409-1.019,5.815-3.361,7.2-6.21l-3.562,2.507a36.785,36.785,0,0,1-6.9,3.7,5.9,5.9,0,0,0-3.6,5.433v.583A5.9,5.9,0,0,0-1171.756,781.234Z" transform="translate(1171.774 -762.65)" fill="#d99c42"/>
          </g>
        </g>
        <g id="Group_56334" data-name="Group 56334" transform="translate(31.778 0.687)">
          <g id="Group_56333" data-name="Group 56333">
            <path id="Path_101983" data-name="Path 101983" d="M-1119.488,774.876a5.9,5.9,0,0,1,5.878,6.358l-1,12.791h-3.256l1-12.791a5.9,5.9,0,0,0-5.319-6.332.612.612,0,0,1-.559-.608,5.9,5.9,0,0,0-3.6-5.433c-2.41-1.019-5.815-3.361-7.2-6.21l3.562,2.507a36.77,36.77,0,0,0,6.9,3.7,5.9,5.9,0,0,1,3.6,5.433v.583Z" transform="translate(1133.55 -762.65)" fill="#ffcb80"/>
          </g>
        </g>
        <g id="Group_56335" data-name="Group 56335" transform="translate(11.122)">
          <path id="Path_101984" data-name="Path 101984" d="M-1172.047,793.452l-1-12.792a6.592,6.592,0,0,1,1.727-4.978,6.6,6.6,0,0,1,4.149-2.077,6.564,6.564,0,0,1,4.015-6,35.712,35.712,0,0,0,6.772-3.633l3.521-2.478a.739.739,0,0,1,.125-.084.684.684,0,0,1,.255-.074.679.679,0,0,1,.381.076.647.647,0,0,1,.12.08l3.524,2.48a35.68,35.68,0,0,0,6.772,3.634,6.565,6.565,0,0,1,4.015,6,6.6,6.6,0,0,1,4.149,2.076,6.6,6.6,0,0,1,1.728,4.978l-1,12.791a.678.678,0,0,1-.676.625h-37.891A.679.679,0,0,1-1172.047,793.452Zm38.9-12.9a5.163,5.163,0,0,0-1.371-3.951,5.164,5.164,0,0,0-3.831-1.676.678.678,0,0,1-.678-.678v-.583a5.211,5.211,0,0,0-3.187-4.808,36.964,36.964,0,0,1-7.024-3.773l-3.181-2.239-3.181,2.239a36.975,36.975,0,0,1-7.024,3.773,5.212,5.212,0,0,0-3.187,4.808v.583a.678.678,0,0,1-.678.678,5.164,5.164,0,0,0-3.831,1.676,5.163,5.163,0,0,0-1.371,3.951l.955,12.166h36.636Z" transform="translate(1173.071 -761.336)" fill="#12263f"/>
        </g>
        <g id="Group_56336" data-name="Group 56336" transform="translate(46.877 27.892)">
          <path id="Path_101985" data-name="Path 101985" d="M-1104.661,824.81h1.08a5.054,5.054,0,0,0,5.054-5.054,5.054,5.054,0,0,0-5.054-5.054h-1.08Z" transform="translate(1104.661 -814.702)" fill="#ffbd8e"/>
        </g>
        <g id="Group_56337" data-name="Group 56337" transform="translate(10.497 27.892)">
          <path id="Path_101986" data-name="Path 101986" d="M-1174.267,819.756a5.054,5.054,0,0,0,5.054,5.054h1.08V814.7h-1.08A5.054,5.054,0,0,0-1174.267,819.756Z" transform="translate(1174.267 -814.702)" fill="#e18152"/>
        </g>
        <g id="Group_56338" data-name="Group 56338" transform="translate(16.631 12.338)">
          <path id="Path_101987" data-name="Path 101987" d="M-1162.531,810.869V800.263a15.223,15.223,0,0,1,15.123-15.32,15.222,15.222,0,0,1,15.123,15.32v10.606a15.222,15.222,0,0,1-15.123,15.32A15.222,15.222,0,0,1-1162.531,810.869Z" transform="translate(1162.531 -784.943)" fill="#ff9f70"/>
        </g>
        <g id="Group_56339" data-name="Group 56339" transform="translate(16.631 12.338)">
          <path id="Path_101988" data-name="Path 101988" d="M-1147.408,784.943a15.223,15.223,0,0,0-15.123,15.32v10.606a15.223,15.223,0,0,0,15.123,15.32,15.049,15.049,0,0,0,1.719-.1,15.251,15.251,0,0,1-13.4-15.219V800.263a15.249,15.249,0,0,1,13.4-15.218,15.049,15.049,0,0,0-1.719-.1Z" transform="translate(1162.531 -784.943)" fill="#e18152"/>
        </g>
        <g id="Group_56340" data-name="Group 56340" transform="translate(30.035 12.338)">
          <path id="Path_101989" data-name="Path 101989" d="M-1135.166,784.943a15.222,15.222,0,0,1,15.123,15.32v10.606a15.222,15.222,0,0,1-15.123,15.32,15.048,15.048,0,0,1-1.719-.1,15.25,15.25,0,0,0,13.4-15.219V800.263a15.249,15.249,0,0,0-13.4-15.218,15.048,15.048,0,0,1,1.719-.1Z" transform="translate(1136.884 -784.943)" fill="#ffbd8e"/>
        </g>
        <g id="Group_56341" data-name="Group 56341" transform="translate(15.952 11.66)">
          <path id="Path_101990" data-name="Path 101990" d="M-1163.83,810.249V799.643a15.919,15.919,0,0,1,15.8-16,15.919,15.919,0,0,1,15.8,16v10.606a15.919,15.919,0,0,1-15.8,16A15.919,15.919,0,0,1-1163.83,810.249Zm15.8-25.248a14.561,14.561,0,0,0-14.445,14.642v10.606a14.561,14.561,0,0,0,14.445,14.641,14.56,14.56,0,0,0,14.445-14.641V799.643A14.561,14.561,0,0,0-1148.028,785Z" transform="translate(1163.83 -783.645)" fill="#12263f"/>
        </g>
        <g id="Group_56342" data-name="Group 56342" transform="translate(46.198 27.213)">
          <path id="Path_101991" data-name="Path 101991" d="M-1105.959,824.19V814.081a.679.679,0,0,1,.678-.678h1.08a5.739,5.739,0,0,1,5.731,5.733,5.739,5.739,0,0,1-5.731,5.733h-1.08A.679.679,0,0,1-1105.959,824.19Zm1.357-9.429v8.751h.4a4.381,4.381,0,0,0,4.375-4.376,4.38,4.38,0,0,0-4.375-4.376Z" transform="translate(1105.959 -813.403)" fill="#12263f"/>
        </g>
        <g id="Group_56343" data-name="Group 56343" transform="translate(9.819 27.214)">
          <path id="Path_101992" data-name="Path 101992" d="M-1175.564,819.137a5.738,5.738,0,0,1,5.732-5.733h1.08a.679.679,0,0,1,.678.678V824.19a.679.679,0,0,1-.678.678h-1.08A5.738,5.738,0,0,1-1175.564,819.137Zm6.133-4.376h-.4a4.38,4.38,0,0,0-4.375,4.376,4.38,4.38,0,0,0,4.375,4.376h.4Z" transform="translate(1175.564 -813.404)" fill="#12263f"/>
        </g>
        <g id="Group_56344" data-name="Group 56344" transform="translate(20.847 51.802)">
          <path id="Path_101993" data-name="Path 101993" d="M-1154.464,863.915l2.3,12.291,8.656-6.357-7.7-9.4Z" transform="translate(1154.464 -860.449)" fill="#f4efed"/>
        </g>
        <g id="Group_56345" data-name="Group 56345" transform="translate(31.804 51.802)">
          <path id="Path_101994" data-name="Path 101994" d="M-1122.615,863.914l-2.3,12.293-8.582-6.357,7.558-9.4Z" transform="translate(1133.499 -860.449)" fill="#f4efed"/>
        </g>
        <g id="Group_56346" data-name="Group 56346" transform="translate(20.168 51.124)">
          <path id="Path_101995" data-name="Path 101995" d="M-1152.782,876.266a.674.674,0,0,1-.249-.048.679.679,0,0,1-.418-.506l-2.3-12.291a.678.678,0,0,1,.172-.59l3.258-3.466a.679.679,0,0,1,.517-.213.676.676,0,0,1,.5.248l7.7,9.4a.68.68,0,0,1,.149.515.68.68,0,0,1-.272.461l-8.656,6.357a.677.677,0,0,1-.4.132Zm.921-15.409-2.493,2.652,2.041,10.892,7.209-5.3Z" transform="translate(1155.762 -859.152)" fill="#12263f"/>
        </g>
        <g id="Group_56347" data-name="Group 56347" transform="translate(31.126 51.124)">
          <path id="Path_101996" data-name="Path 101996" d="M-1125.537,876.265a.676.676,0,0,1-.4-.134l-8.583-6.357a.679.679,0,0,1-.269-.458.681.681,0,0,1,.144-.512l7.558-9.4a.68.68,0,0,1,.5-.253.676.676,0,0,1,.519.208l3.327,3.465a.677.677,0,0,1,.177.595l-2.3,12.293a.678.678,0,0,1-.419.506.677.677,0,0,1-.248.047Zm-.979-15.41-6.632,8.249L-1126,874.4l2.039-10.884Z" transform="translate(1134.797 -859.15)" fill="#12263f"/>
        </g>
        <g id="Group_56348" data-name="Group 56348" transform="translate(58.789 68.505)">
          <path id="Path_101997" data-name="Path 101997" d="M-1081.869,897.154v-4.07a.679.679,0,0,1,.678-.678.679.679,0,0,1,.678.678v4.07a.679.679,0,0,1-.678.678A.679.679,0,0,1-1081.869,897.154Z" transform="translate(1081.869 -892.406)" fill="#12263f"/>
        </g>
      </g>
      <g id="Group_56357" data-name="Group 56357" transform="translate(-1145.685 760.269)">
        <g id="Group_56350" data-name="Group 56350" transform="translate(0.737 0.737)">
          <path id="Path_101998" data-name="Path 101998" d="M-1099.829,771.417a1.947,1.947,0,0,0,1.948,1.947h.619a2,2,0,0,0-2.028,1.887,1.947,1.947,0,0,0,1.946,2.008h10.125v9.01a1.9,1.9,0,0,0,1.9,1.9,1.9,1.9,0,0,0,1.871-1.589l1.528-9.317h.261a2.6,2.6,0,0,0,2.6-2.6h3.032V763.907h-3.056a2.572,2.572,0,0,0-2.58-2.227H-1095.4a1.947,1.947,0,0,0-1.947,2.007,2,2,0,0,0,2.028,1.887h-1.659a1.947,1.947,0,0,0-1.948,1.947,1.947,1.947,0,0,0,1.948,1.947h-.907a1.948,1.948,0,0,0-1.948,1.948Z" transform="translate(1099.829 -761.68)" fill="#f4efed"/>
        </g>
        <g id="Group_56351" data-name="Group 56351" transform="translate(24.537 0.738)">
          <path id="Path_101999" data-name="Path 101999" d="M-1049.533,761.681h-3.46a1.3,1.3,0,0,0-1.3,1.3v12.3a1.3,1.3,0,0,0,1.3,1.3h3.46a1.3,1.3,0,0,0,1.3-1.3v-12.3A1.3,1.3,0,0,0-1049.533,761.681Z" transform="translate(1054.293 -761.681)" fill="#8c6df2"/>
        </g>
        <g id="Group_56352" data-name="Group 56352" transform="translate(26.739 0.738)">
          <path id="Path_102000" data-name="Path 102000" d="M-1048.78,762.981v12.3a1.3,1.3,0,0,1-1.3,1.3h2.558a1.3,1.3,0,0,0,1.3-1.3v-12.3a1.3,1.3,0,0,0-1.3-1.3h-2.558A1.3,1.3,0,0,1-1048.78,762.981Z" transform="translate(1050.08 -761.681)" fill="#735ac7"/>
        </g>
        <g id="Group_56353" data-name="Group 56353" transform="translate(23.8)">
          <path id="Path_102001" data-name="Path 102001" d="M-1053.667,760.269h3.461a2.04,2.04,0,0,1,2.037,2.038v12.3a2.04,2.04,0,0,1-2.037,2.038h-3.461a2.04,2.04,0,0,1-2.037-2.038v-12.3A2.04,2.04,0,0,1-1053.667,760.269Zm3.461,14.905a.563.563,0,0,0,.562-.562v-12.3a.563.563,0,0,0-.562-.562h-3.461a.563.563,0,0,0-.562.562v12.3a.563.563,0,0,0,.562.562Z" transform="translate(1055.704 -760.269)" fill="#12263f"/>
        </g>
        <g id="Group_56354" data-name="Group 56354" transform="translate(0 7.79)">
          <path id="Path_102002" data-name="Path 102002" d="M-1098.555,775.173h5.254a.738.738,0,0,1,.738.737.738.738,0,0,1-.738.738h-5.254a1.211,1.211,0,0,0-1.209,1.209,1.211,1.211,0,0,0,1.209,1.209h5.254a.738.738,0,0,1,.738.738.738.738,0,0,1-.738.738h-5.254a2.688,2.688,0,0,1-2.685-2.685A2.688,2.688,0,0,1-1098.555,775.173Z" transform="translate(1101.24 -775.173)" fill="#12263f"/>
        </g>
        <g id="Group_56355" data-name="Group 56355" transform="translate(0.908 3.894)">
          <path id="Path_102003" data-name="Path 102003" d="M-1096.819,767.72h4.347a.739.739,0,0,1,.738.738.739.739,0,0,1-.738.738h-4.346a1.21,1.21,0,0,0-1.209,1.209,1.211,1.211,0,0,0,1.209,1.209h4.346a.738.738,0,0,1,.738.738.738.738,0,0,1-.738.738h-4.346a2.688,2.688,0,0,1-2.685-2.685A2.688,2.688,0,0,1-1096.819,767.72Z" transform="translate(1099.503 -767.72)" fill="#12263f"/>
        </g>
        <g id="Group_56356" data-name="Group 56356" transform="translate(0.538)">
          <path id="Path_102004" data-name="Path 102004" d="M-1095.579,760.269h13.732a3.344,3.344,0,0,1,3.161,2.227h2.475a.738.738,0,0,1,.737.737v10.749a.738.738,0,0,1-.737.738h-2.377a3.351,3.351,0,0,1-2.889,2.583l-1.43,8.718a2.624,2.624,0,0,1-2.6,2.208,2.637,2.637,0,0,1-2.634-2.634v-8.272h-9.386a2.666,2.666,0,0,1-1.928-.815,2.665,2.665,0,0,1-.757-1.952,2.748,2.748,0,0,1,2.765-2.6h4.635a.739.739,0,0,1,.738.738.738.738,0,0,1-.738.738h-4.635a1.263,1.263,0,0,0-1.29,1.172,1.2,1.2,0,0,0,.341.88,1.2,1.2,0,0,0,.869.367h10.124a.738.738,0,0,1,.738.738v9.01a1.159,1.159,0,0,0,1.158,1.158,1.154,1.154,0,0,0,1.143-.97l1.528-9.316a.738.738,0,0,1,.729-.619h.26a1.868,1.868,0,0,0,1.866-1.865.738.738,0,0,1,.738-.738h2.295v-9.273h-2.318a.738.738,0,0,1-.732-.643,1.825,1.825,0,0,0-1.848-1.584h-13.731a1.2,1.2,0,0,0-.868.367,1.2,1.2,0,0,0-.341.88,1.263,1.263,0,0,0,1.291,1.172h2.687a.738.738,0,0,1,.738.738.738.738,0,0,1-.738.738h-2.687a2.748,2.748,0,0,1-2.766-2.6,2.667,2.667,0,0,1,.757-1.952,2.661,2.661,0,0,1,1.927-.815Z" transform="translate(1100.211 -760.269)" fill="#12263f"/>
        </g>
      </g>
    </g>
  </g>
</svg>
