<svg xmlns="http://www.w3.org/2000/svg" width="140" height="140" viewBox="0 0 140 140">
  <g id="t3-ic4" transform="translate(-310 -1885)">
    <circle id="Ellipse_4087" data-name="Ellipse 4087" cx="70" cy="70" r="70" transform="translate(310 1885)" fill="#fff"/>
    <g id="Group_56114" data-name="Group 56114" transform="translate(1108.806 1368.972)">
      <g id="Group_56107" data-name="Group 56107" transform="translate(-768.806 547.909)">
        <g id="Group_56073" data-name="Group 56073" transform="translate(11.178 0.644)">
          <path id="Path_101761" data-name="Path 101761" d="M-718.209,553.6a5.652,5.652,0,0,1,5.7,5.2c.007.123.012.248.012.373v.6a6.049,6.049,0,0,1,6.03,6.523l-1.03,13.122h-38.87l-1.03-13.122a6.049,6.049,0,0,1,6.03-6.523v-.6q0-.188.011-.373a5.652,5.652,0,0,1,5.7-5.2Z" transform="translate(747.42 -553.598)" fill="#ffb74d"/>
        </g>
        <g id="Group_56074" data-name="Group 56074" transform="translate(46.943 6.881)">
          <path id="Path_101762" data-name="Path 101762" d="M-678.991,565.531A6.633,6.633,0,0,1-676.7,571.1l-1.03,14.006h2.891l1.03-13.122A6.045,6.045,0,0,0-678.991,565.531Z" transform="translate(678.991 -565.531)" fill="#d99c42"/>
        </g>
        <g id="Group_56075" data-name="Group 56075" transform="translate(11.177 6.881)">
          <path id="Path_101763" data-name="Path 101763" d="M-742.218,565.531a6.631,6.631,0,0,0-2.293,5.573l1.03,14.006h-2.891l-1.03-13.122A6.045,6.045,0,0,1-742.218,565.531Z" transform="translate(747.42 -565.531)" fill="#ffcb80"/>
        </g>
        <g id="Group_56076" data-name="Group 56076" transform="translate(10.534)">
          <path id="Path_101764" data-name="Path 101764" d="M-708.089,579.469h-38.87a.643.643,0,0,1-.642-.593l-1.031-13.122a6.715,6.715,0,0,1,1.758-5.068,6.717,6.717,0,0,1,4.271-2.118q0-.2.013-.4a6.281,6.281,0,0,1,6.339-5.805H-718.8a6.282,6.282,0,0,1,6.34,5.805q.012.2.013.4a6.717,6.717,0,0,1,4.271,2.118,6.715,6.715,0,0,1,1.758,5.068l-1.031,13.122a.644.644,0,0,1-.642.593Zm-38.274-1.288h37.679l.984-12.528a5.349,5.349,0,0,0-1.42-4.092,5.348,5.348,0,0,0-3.969-1.735.644.644,0,0,1-.644-.644v-.6c0-.112,0-.224-.01-.334a4.993,4.993,0,0,0-5.054-4.6h-17.454a4.992,4.992,0,0,0-5.054,4.6q-.01.166-.01.334v.6a.644.644,0,0,1-.644.644,5.35,5.35,0,0,0-3.969,1.736,5.347,5.347,0,0,0-1.42,4.092Z" transform="translate(748.652 -552.366)" fill="#12263f"/>
        </g>
        <g id="Group_56077" data-name="Group 56077" transform="translate(0.644 36.765)">
          <path id="Path_101765" data-name="Path 101765" d="M-744.133,636.992V622.709h15.222v14.283h13.744a9.683,9.683,0,0,1,9.628,9.7v19.751h-62.035V646.615a9.662,9.662,0,0,1,9.678-9.628Z" transform="translate(767.574 -622.709)" fill="#8c6df2"/>
        </g>
        <g id="Group_56078" data-name="Group 56078" transform="translate(23.062 56.969)">
          <path id="Path_101766" data-name="Path 101766" d="M-724.681,667.708l8.563,12.452,8.635-12.452-8.635-6.343Z" transform="translate(724.681 -661.365)" fill="#f4efed"/>
        </g>
        <g id="Group_56079" data-name="Group 56079" transform="translate(26.085 56.969)">
          <path id="Path_101767" data-name="Path 101767" d="M-713.357,661.365l-5.54,4.1,5.54,4.1,5.586-4.1Z" transform="translate(718.897 -661.365)" fill="#ffdc72"/>
        </g>
        <g id="Group_56080" data-name="Group 56080" transform="translate(27.69 65.175)">
          <path id="Path_101768" data-name="Path 101768" d="M-711.892,677.065l-3.935,4.866,3.935,5.723,3.969-5.723Z" transform="translate(715.827 -677.065)" fill="#ffdc72"/>
        </g>
        <g id="Group_56081" data-name="Group 56081" transform="translate(24.085 36.765)">
          <path id="Path_101769" data-name="Path 101769" d="M-722.725,633.534l7.54,9.379,7.682-9.379V622.709h-15.222Z" transform="translate(722.725 -622.709)" fill="#ff9f70"/>
        </g>
        <g id="Group_56083" data-name="Group 56083" transform="translate(49.669 51.049)">
          <g id="Group_56082" data-name="Group 56082">
            <path id="Path_101770" data-name="Path 101770" d="M-670.392,650.037h-3.382a9.68,9.68,0,0,1,9.628,9.7v19.755h3.382V659.74a9.683,9.683,0,0,0-9.628-9.7Z" transform="translate(673.774 -650.037)" fill="#735ac7"/>
          </g>
        </g>
        <g id="Group_56085" data-name="Group 56085" transform="translate(0.644 51.044)">
          <g id="Group_56084" data-name="Group 56084">
            <path id="Path_101771" data-name="Path 101771" d="M-757.9,650.028l3.382,0a9.662,9.662,0,0,0-9.678,9.628v19.826h-3.382V659.656A9.662,9.662,0,0,1-757.9,650.028Z" transform="translate(767.574 -650.028)" fill="#a38af2"/>
          </g>
        </g>
        <g id="Group_56086" data-name="Group 56086" transform="translate(11.976 70.721)">
          <path id="Path_101772" data-name="Path 101772" d="M-745.249,697.763a.644.644,0,0,1-.644-.644v-8.8a.644.644,0,0,1,.644-.644.644.644,0,0,1,.644.644v8.8A.644.644,0,0,1-745.249,697.763Z" transform="translate(745.893 -687.675)" fill="#12263f"/>
        </g>
        <g id="Group_56087" data-name="Group 56087" transform="translate(50.059 70.721)">
          <path id="Path_101773" data-name="Path 101773" d="M-672.384,697.763a.644.644,0,0,1-.644-.644v-8.8a.644.644,0,0,1,.644-.644.644.644,0,0,1,.644.644v8.8A.644.644,0,0,1-672.384,697.763Z" transform="translate(673.028 -687.675)" fill="#12263f"/>
        </g>
        <g id="Group_56088" data-name="Group 56088" transform="translate(0 36.122)">
          <path id="Path_101774" data-name="Path 101774" d="M-706.127,666.5h-62.035a.644.644,0,0,1-.644-.644V646.028a10.2,10.2,0,0,1,3.035-7.27,10.255,10.255,0,0,1,7.274-3h.014l13.118,0V622.122a.644.644,0,0,1,.644-.644H-729.5a.644.644,0,0,1,.644.644v13.639h13.1a10.185,10.185,0,0,1,7.27,3.049,10.29,10.29,0,0,1,3,7.3v19.75A.644.644,0,0,1-706.127,666.5Zm-61.391-1.288h60.747V646.108a9.014,9.014,0,0,0-2.628-6.393,8.9,8.9,0,0,0-6.356-2.667H-729.5a.644.644,0,0,1-.644-.644V622.765h-13.934V636.4a.645.645,0,0,1-.189.456.644.644,0,0,1-.456.188h0l-13.763,0h-.012a8.973,8.973,0,0,0-6.367,2.628,8.92,8.92,0,0,0-2.655,6.357Z" transform="translate(768.806 -621.478)" fill="#12263f"/>
        </g>
        <g id="Group_56089" data-name="Group 56089" transform="translate(10.468 23.736)">
          <path id="Path_101775" data-name="Path 101775" d="M-742.659,597.779h-1.077a5.042,5.042,0,0,0-5.042,5.042,5.042,5.042,0,0,0,5.042,5.042h1.077Z" transform="translate(748.778 -597.779)" fill="#ffbd8e"/>
        </g>
        <g id="Group_56090" data-name="Group 56090" transform="translate(46.764 23.736)">
          <path id="Path_101776" data-name="Path 101776" d="M-678.256,597.779h-1.077v10.084h1.077a5.042,5.042,0,0,0,5.042-5.042,5.042,5.042,0,0,0-5.042-5.042Z" transform="translate(679.333 -597.779)" fill="#e18152"/>
        </g>
        <g id="Group_56091" data-name="Group 56091" transform="translate(16.587 8.218)">
          <path id="Path_101777" data-name="Path 101777" d="M-721.981,609.239a15.187,15.187,0,0,1-15.089-15.284V583.374a15.188,15.188,0,0,1,15.089-15.285,15.188,15.188,0,0,1,15.089,15.285v10.581A15.188,15.188,0,0,1-721.981,609.239Z" transform="translate(737.07 -568.089)" fill="#ff9f70"/>
        </g>
        <g id="Group_56092" data-name="Group 56092" transform="translate(29.961 8.218)">
          <path id="Path_101778" data-name="Path 101778" d="M-709.767,568.089a15,15,0,0,0-1.715.1,15.215,15.215,0,0,1,13.374,15.183v10.581a15.215,15.215,0,0,1-13.374,15.183,14.986,14.986,0,0,0,1.715.1,15.187,15.187,0,0,0,15.089-15.284V583.373A15.188,15.188,0,0,0-709.767,568.089Z" transform="translate(711.482 -568.089)" fill="#e18152"/>
        </g>
        <g id="Group_56093" data-name="Group 56093" transform="translate(16.587 8.218)">
          <path id="Path_101779" data-name="Path 101779" d="M-721.981,568.089a15.006,15.006,0,0,1,1.715.1,15.214,15.214,0,0,0-13.374,15.183v10.581a15.214,15.214,0,0,0,13.374,15.183,14.985,14.985,0,0,1-1.715.1,15.187,15.187,0,0,1-15.089-15.284V583.373A15.187,15.187,0,0,1-721.981,568.089Z" transform="translate(737.07 -568.089)" fill="#ffbd8e"/>
        </g>
        <g id="Group_56094" data-name="Group 56094" transform="translate(15.943 7.574)">
          <path id="Path_101780" data-name="Path 101780" d="M-722.569,609.295A15.849,15.849,0,0,1-738.3,593.367V582.786a15.85,15.85,0,0,1,15.733-15.929,15.849,15.849,0,0,1,15.732,15.928v10.581A15.849,15.849,0,0,1-722.569,609.295Zm0-41.15a14.56,14.56,0,0,0-14.444,14.641v10.581a14.56,14.56,0,0,0,14.444,14.64,14.56,14.56,0,0,0,14.444-14.64V582.786A14.56,14.56,0,0,0-722.569,568.145Z" transform="translate(738.302 -566.857)" fill="#12263f"/>
        </g>
        <g id="Group_56095" data-name="Group 56095" transform="translate(9.824 23.091)">
          <path id="Path_101781" data-name="Path 101781" d="M-743.246,607.919h-1.078a5.693,5.693,0,0,1-5.686-5.686,5.693,5.693,0,0,1,5.686-5.687h1.078a.644.644,0,0,1,.644.644v10.084a.644.644,0,0,1-.644.644Zm-1.078-10.084a4.4,4.4,0,0,0-4.4,4.4,4.4,4.4,0,0,0,4.4,4.4h.433v-8.8Z" transform="translate(750.01 -596.546)" fill="#12263f"/>
        </g>
        <g id="Group_56096" data-name="Group 56096" transform="translate(46.12 23.091)">
          <path id="Path_101782" data-name="Path 101782" d="M-678.844,607.919h-1.077a.644.644,0,0,1-.644-.644V597.19a.644.644,0,0,1,.644-.644h1.077a5.693,5.693,0,0,1,5.687,5.687,5.693,5.693,0,0,1-5.687,5.686Zm-.433-1.288h.433a4.4,4.4,0,0,0,4.4-4.4,4.4,4.4,0,0,0-4.4-4.4h-.433Z" transform="translate(680.565 -596.546)" fill="#12263f"/>
        </g>
        <g id="Group_56097" data-name="Group 56097" transform="translate(31.625 47.59)">
          <path id="Path_101783" data-name="Path 101783" d="M-700.616,643.42-708.3,652.8l8.635,6.342,2.3-12.263Z" transform="translate(708.298 -643.42)" fill="#f4efed"/>
        </g>
        <g id="Group_56098" data-name="Group 56098" transform="translate(20.766 47.59)">
          <path id="Path_101784" data-name="Path 101784" d="M-725.756,643.42l7.54,9.379-8.563,6.342-2.3-12.265Z" transform="translate(729.075 -643.42)" fill="#f4efed"/>
        </g>
        <g id="Group_56099" data-name="Group 56099" transform="translate(30.981 46.947)">
          <path id="Path_101785" data-name="Path 101785" d="M-700.251,659.2a.645.645,0,0,1-.381-.125l-8.635-6.343a.644.644,0,0,1-.258-.438.646.646,0,0,1,.141-.489l7.682-9.379a.642.642,0,0,1,.476-.236.644.644,0,0,1,.491.2l3.25,3.458a.644.644,0,0,1,.164.56l-2.3,12.263a.644.644,0,0,1-.4.481.654.654,0,0,1-.237.045Zm-7.707-7.1,7.263,5.334,2.048-10.935-2.524-2.685Z" transform="translate(709.531 -642.189)" fill="#12263f"/>
        </g>
        <g id="Group_56100" data-name="Group 56100" transform="translate(20.122 46.947)">
          <path id="Path_101786" data-name="Path 101786" d="M-727.367,659.2a.644.644,0,0,1-.235-.044.644.644,0,0,1-.4-.481l-2.3-12.264a.644.644,0,0,1,.168-.564l3.319-3.457a.639.639,0,0,1,.493-.2.645.645,0,0,1,.474.24l7.54,9.379a.644.644,0,0,1,.136.485.64.64,0,0,1-.255.435l-8.563,6.342a.648.648,0,0,1-.384.127Zm-1.6-12.7,2.047,10.927,7.2-5.331-6.661-8.286Z" transform="translate(730.307 -642.188)" fill="#12263f"/>
        </g>
        <g id="Group_56101" data-name="Group 56101" transform="translate(3.382 64.287)">
          <path id="Path_101787" data-name="Path 101787" d="M-761.692,680.715a.644.644,0,0,1-.644-.644V676.01a.644.644,0,0,1,.644-.644.644.644,0,0,1,.644.644v4.061a.644.644,0,0,1-.644.644Z" transform="translate(762.336 -675.366)" fill="#12263f"/>
        </g>
        <g id="Group_56102" data-name="Group 56102" transform="translate(22.418 56.325)">
          <path id="Path_101788" data-name="Path 101788" d="M-716.707,680.216h0a.647.647,0,0,1-.53-.279l-8.563-12.453a.645.645,0,0,1,.147-.883l8.563-6.342a.644.644,0,0,1,.765,0l8.635,6.342a.644.644,0,0,1,.148.886l-8.635,12.453a.642.642,0,0,1-.529.277Zm-7.68-12.949,7.682,11.172,7.747-11.171-7.747-5.69Z" transform="translate(725.914 -660.133)" fill="#12263f"/>
        </g>
        <g id="Group_56103" data-name="Group 56103" transform="translate(25.442 56.325)">
          <path id="Path_101789" data-name="Path 101789" d="M-713.945,669.626a.642.642,0,0,1-.383-.127l-5.539-4.1a.645.645,0,0,1-.261-.517.645.645,0,0,1,.261-.518l5.539-4.1a.644.644,0,0,1,.765,0l5.586,4.1a.643.643,0,0,1,.263.52.645.645,0,0,1-.263.519l-5.586,4.1a.642.642,0,0,1-.382.125Zm-4.457-4.747,4.459,3.3,4.5-3.3-4.5-3.3Z" transform="translate(720.128 -660.132)" fill="#12263f"/>
        </g>
        <g id="Group_56104" data-name="Group 56104" transform="translate(27.046 64.531)">
          <path id="Path_101790" data-name="Path 101790" d="M-712.48,687.71h0a.647.647,0,0,1-.53-.279l-3.935-5.723a.644.644,0,0,1,.03-.77l3.935-4.866a.645.645,0,0,1,.5-.239h0a.645.645,0,0,1,.5.237l3.969,4.866a.644.644,0,0,1,.03.774l-3.969,5.723a.645.645,0,0,1-.529.277Zm-3.132-6.336,3.134,4.559,3.161-4.559-3.161-3.876Z" transform="translate(717.06 -675.833)" fill="#12263f"/>
        </g>
        <g id="Group_56105" data-name="Group 56105" transform="translate(18.104 4.73)">
          <path id="Path_101791" data-name="Path 101791" d="M-734.167,569.89a11.948,11.948,0,0,1,8.841,1.969c5.194,3.868,16.465,7.7,21.769,2.25,0,0-2.591-12.694-15.04-12.694S-734.167,569.89-734.167,569.89Z" transform="translate(734.167 -561.415)" fill="#ffb74d"/>
        </g>
        <g id="Group_56106" data-name="Group 56106" transform="translate(17.46 12.387)">
          <path id="Path_101792" data-name="Path 101792" d="M-711.542,584.459a20.32,20.32,0,0,1-3.646-.352,28.357,28.357,0,0,1-11.112-4.738,11.333,11.333,0,0,0-8.322-1.855.644.644,0,0,1-.764-.5.644.644,0,0,1,.5-.764,12.5,12.5,0,0,1,9.359,2.083,26.936,26.936,0,0,0,10.576,4.5c3.179.586,7.558.682,10.348-2.187a.645.645,0,0,1,.911-.013.645.645,0,0,1,.013.911,10.619,10.619,0,0,1-7.858,2.908Z" transform="translate(735.4 -576.066)" fill="#12263f"/>
        </g>
      </g>
      <g id="Group_56108" data-name="Group 56108" transform="translate(-714.225 543.538)">
        <circle id="Ellipse_4113" data-name="Ellipse 4113" cx="12.453" cy="12.453" r="12.453" transform="translate(0 0)" fill="#ffb74d"/>
      </g>
      <g id="Group_56109" data-name="Group 56109" transform="translate(-702.942 543.529)">
        <path id="Path_101793" data-name="Path 101793" d="M-641.609,543.986c-.4,0-.792.021-1.181.057a12.455,12.455,0,0,1,11.273,12.4,12.455,12.455,0,0,1-11.273,12.4c.389.037.782.057,1.181.057a12.455,12.455,0,0,0,12.454-12.455A12.455,12.455,0,0,0-641.609,543.986Z" transform="translate(642.79 -543.986)" fill="#d99c42"/>
      </g>
      <g id="Group_56110" data-name="Group 56110" transform="translate(-714.216 543.529)">
        <path id="Path_101794" data-name="Path 101794" d="M-651.905,568.9c.4,0,.792-.021,1.181-.057A12.455,12.455,0,0,1-662,556.441a12.455,12.455,0,0,1,11.273-12.4c-.389-.037-.782-.057-1.181-.057a12.455,12.455,0,0,0-12.455,12.455A12.455,12.455,0,0,0-651.905,568.9Z" transform="translate(664.36 -543.986)" fill="#ffcb80"/>
      </g>
      <g id="Group_56111" data-name="Group 56111" transform="translate(-714.717 543.028)">
        <path id="Path_101795" data-name="Path 101795" d="M-652.362,568.939a12.97,12.97,0,0,1-12.956-12.955,12.97,12.97,0,0,1,12.956-12.956,12.97,12.97,0,0,1,12.955,12.956A12.97,12.97,0,0,1-652.362,568.939Zm0-24.623a11.681,11.681,0,0,0-11.667,11.667,11.68,11.68,0,0,0,11.667,11.667A11.68,11.68,0,0,0-640.7,555.984,11.68,11.68,0,0,0-652.362,544.316Z" transform="translate(665.318 -543.028)" fill="#12263f"/>
      </g>
      <g id="Group_56113" data-name="Group 56113" transform="translate(-706.644 548.522)">
        <g id="Group_56112" data-name="Group 56112">
          <path id="Path_101796" data-name="Path 101796" d="M-645,553.54a.753.753,0,0,1,.758.758v.388a6.417,6.417,0,0,1,2.734.97.943.943,0,0,1,.529.846.971.971,0,0,1-.988.97,1.023,1.023,0,0,1-.529-.158,6.4,6.4,0,0,0-1.817-.776v3.386c2.681.671,3.827,1.746,3.827,3.633,0,1.94-1.517,3.228-3.757,3.44v1.058a.753.753,0,0,1-.758.758.768.768,0,0,1-.777-.758v-1.093a7.637,7.637,0,0,1-3.616-1.376.969.969,0,0,1-.476-.847.956.956,0,0,1,.97-.97.963.963,0,0,1,.582.194,6.246,6.246,0,0,0,2.611,1.182v-3.475c-2.576-.67-3.775-1.64-3.775-3.634,0-1.887,1.5-3.192,3.7-3.369V554.3a.769.769,0,0,1,.777-.758Zm-.705,6.014v-3.122c-1.129.106-1.693.706-1.693,1.482C-647.4,558.655-647.068,559.114-645.709,559.554Zm1.393,2.452v3.21c1.129-.123,1.746-.688,1.746-1.535C-642.57,562.906-642.959,562.429-644.317,562.006Z" transform="translate(649.873 -553.54)" fill="#12263f"/>
        </g>
      </g>
    </g>
  </g>
</svg>
